%TF.GenerationSoftware,Altium Limited,Altium Designer,22.1.2 (22)*%
G04 Layer_Color=16711935*
%FSLAX26Y26*%
%MOIN*%
%TF.SameCoordinates,4DF63D30-2817-4CE9-9CB3-8786E99D956B*%
%TF.FilePolarity,Negative*%
%TF.FileFunction,Soldermask,Bot*%
%TF.Part,Single*%
G01*
G75*
%TA.AperFunction,SMDPad,CuDef*%
%ADD28R,0.033465X0.035433*%
%ADD29R,0.023622X0.023622*%
%ADD40R,0.035433X0.033465*%
%ADD48R,0.043307X0.094488*%
G04:AMPARAMS|DCode=91|XSize=33.465mil|YSize=35.433mil|CornerRadius=0mil|HoleSize=0mil|Usage=FLASHONLY|Rotation=225.000|XOffset=0mil|YOffset=0mil|HoleType=Round|Shape=Rectangle|*
%AMROTATEDRECTD91*
4,1,4,-0.000696,0.024359,0.024359,-0.000696,0.000696,-0.024359,-0.024359,0.000696,-0.000696,0.024359,0.0*
%
%ADD91ROTATEDRECTD91*%

G04:AMPARAMS|DCode=92|XSize=33.465mil|YSize=35.433mil|CornerRadius=0mil|HoleSize=0mil|Usage=FLASHONLY|Rotation=315.000|XOffset=0mil|YOffset=0mil|HoleType=Round|Shape=Rectangle|*
%AMROTATEDRECTD92*
4,1,4,-0.024359,-0.000696,0.000696,0.024359,0.024359,0.000696,-0.000696,-0.024359,-0.024359,-0.000696,0.0*
%
%ADD92ROTATEDRECTD92*%

%ADD93R,0.094488X0.043307*%
%ADD103R,0.037921X0.051307*%
%ADD104R,0.026504X0.027685*%
%TA.AperFunction,FiducialPad,Global*%
%ADD105R,0.047370X0.047370*%
%ADD106C,0.047370*%
%TA.AperFunction,SMDPad,CuDef*%
%ADD107R,0.059181X0.051307*%
%TA.AperFunction,ComponentPad*%
%ADD108O,0.078866X0.047370*%
%ADD109O,0.094614X0.047370*%
%ADD110C,0.051307*%
%ADD111C,0.090677*%
%ADD112R,0.086740X0.086740*%
%ADD113C,0.086740*%
%ADD114O,0.114299X0.074929*%
%ADD115C,0.110362*%
%ADD116O,0.063118X0.114299*%
%ADD117C,0.008000*%
%ADD118C,0.063118*%
%ADD119C,0.070992*%
%ADD120C,0.244220*%
%ADD121C,0.074929*%
%ADD122C,0.165480*%
%ADD123C,0.068000*%
%TA.AperFunction,ViaPad*%
%ADD124C,0.023748*%
%ADD125C,0.035559*%
%ADD126C,0.025716*%
%ADD127C,0.027685*%
%ADD128C,0.058000*%
G36*
X5658004Y2222478D02*
X5658518Y2222376D01*
X5659014Y2222207D01*
X5659485Y2221975D01*
X5659921Y2221684D01*
X5660315Y2221338D01*
X5660661Y2220944D01*
X5660952Y2220508D01*
X5661184Y2220038D01*
X5661352Y2219541D01*
X5661455Y2219027D01*
X5661489Y2218504D01*
Y2112205D01*
X5661455Y2111682D01*
X5661352Y2111167D01*
X5661184Y2110671D01*
X5660952Y2110200D01*
X5660661Y2109764D01*
X5660315Y2109370D01*
X5659921Y2109024D01*
X5659485Y2108733D01*
X5659014Y2108501D01*
X5658518Y2108333D01*
X5658004Y2108230D01*
X5657480Y2108196D01*
X5580709D01*
X5580185Y2108230D01*
X5579671Y2108333D01*
X5579175Y2108501D01*
X5578704Y2108733D01*
X5578268Y2109024D01*
X5577874Y2109370D01*
X5577529Y2109764D01*
X5577237Y2110200D01*
X5577005Y2110671D01*
X5576837Y2111167D01*
X5576734Y2111682D01*
X5576700Y2112205D01*
Y2218504D01*
X5576734Y2219027D01*
X5576837Y2219541D01*
X5577005Y2220038D01*
X5577237Y2220508D01*
X5577529Y2220944D01*
X5577874Y2221338D01*
X5578268Y2221684D01*
X5578704Y2221975D01*
X5579175Y2222207D01*
X5579671Y2222376D01*
X5580185Y2222478D01*
X5580709Y2222512D01*
X5657480D01*
X5658004Y2222478D01*
D02*
G37*
G36*
Y2813029D02*
X5658518Y2812927D01*
X5659014Y2812759D01*
X5659485Y2812527D01*
X5659921Y2812235D01*
X5660315Y2811890D01*
X5660661Y2811495D01*
X5660952Y2811059D01*
X5661184Y2810589D01*
X5661352Y2810093D01*
X5661455Y2809578D01*
X5661489Y2809055D01*
Y2702756D01*
X5661455Y2702233D01*
X5661352Y2701718D01*
X5661184Y2701222D01*
X5660952Y2700752D01*
X5660661Y2700316D01*
X5660315Y2699921D01*
X5659921Y2699576D01*
X5659485Y2699284D01*
X5659014Y2699052D01*
X5658518Y2698884D01*
X5658004Y2698782D01*
X5657480Y2698747D01*
X5580709D01*
X5580185Y2698782D01*
X5579671Y2698884D01*
X5579175Y2699052D01*
X5578704Y2699284D01*
X5578268Y2699576D01*
X5577874Y2699921D01*
X5577529Y2700316D01*
X5577237Y2700752D01*
X5577005Y2701222D01*
X5576837Y2701718D01*
X5576734Y2702233D01*
X5576700Y2702756D01*
Y2809055D01*
X5576734Y2809578D01*
X5576837Y2810093D01*
X5577005Y2810589D01*
X5577237Y2811059D01*
X5577529Y2811495D01*
X5577874Y2811890D01*
X5578268Y2812235D01*
X5578704Y2812527D01*
X5579175Y2812759D01*
X5579671Y2812927D01*
X5580185Y2813029D01*
X5580709Y2813064D01*
X5657480D01*
X5658004Y2813029D01*
D02*
G37*
D28*
X5678150Y2066929D02*
D03*
X5621063D02*
D03*
X5678150Y2657480D02*
D03*
X5621063D02*
D03*
X5128937Y2559055D02*
D03*
X5186024D02*
D03*
X5128937Y3149606D02*
D03*
X5186024D02*
D03*
X3573819Y1917323D02*
D03*
X3630905D02*
D03*
X3573819Y1850394D02*
D03*
X3630905D02*
D03*
D29*
X4466535Y1791339D02*
D03*
X4509842D02*
D03*
D40*
X5295276Y2154528D02*
D03*
Y2097441D02*
D03*
X5118110Y2154528D02*
D03*
Y2097441D02*
D03*
X5216535Y2154528D02*
D03*
Y2097441D02*
D03*
X5295276Y2745079D02*
D03*
Y2687992D02*
D03*
X5118110Y2745079D02*
D03*
Y2687992D02*
D03*
X5216535Y2745079D02*
D03*
Y2687992D02*
D03*
D48*
X5023622Y2736220D02*
D03*
X4897638D02*
D03*
X5023622Y2145669D02*
D03*
X4897638D02*
D03*
X4905512Y2480315D02*
D03*
X4779528D02*
D03*
X4905512Y3070866D02*
D03*
X4779528D02*
D03*
D91*
X3618608Y1776089D02*
D03*
X3578242Y1735722D02*
D03*
X4239659Y2058557D02*
D03*
X4280026Y2098923D02*
D03*
X4196352Y2097927D02*
D03*
X4236719Y2138293D02*
D03*
X4125486Y2168793D02*
D03*
X4165852Y2209160D02*
D03*
X4086116Y2208163D02*
D03*
X4126482Y2248530D02*
D03*
X3661916Y1736719D02*
D03*
X3621549Y1696352D02*
D03*
X3697349Y1701285D02*
D03*
X3656982Y1660919D02*
D03*
D92*
X4129423Y1614671D02*
D03*
X4169789Y1574305D02*
D03*
X4282966Y1768215D02*
D03*
X4323333Y1727848D02*
D03*
X3811522Y2153045D02*
D03*
X3771155Y2193412D02*
D03*
X3713097Y2054620D02*
D03*
X3672730Y2094986D02*
D03*
X3673727Y2015250D02*
D03*
X3633360Y2055616D02*
D03*
X4200289Y1685537D02*
D03*
X4240656Y1645171D02*
D03*
X4093990Y1579238D02*
D03*
X4134356Y1538872D02*
D03*
D93*
X4881890Y2385827D02*
D03*
Y2259843D02*
D03*
Y2976378D02*
D03*
Y2850394D02*
D03*
D103*
X5332480Y3074803D02*
D03*
X5282480D02*
D03*
X5232480D02*
D03*
X5182480D02*
D03*
X4982480D02*
D03*
X5032480D02*
D03*
X5082480D02*
D03*
X5132480D02*
D03*
X4982480Y2830709D02*
D03*
X5032480D02*
D03*
X5082480D02*
D03*
X5132480D02*
D03*
X5332480D02*
D03*
X5282480D02*
D03*
X5232480D02*
D03*
X5182480D02*
D03*
X5332480Y2484252D02*
D03*
X5282480D02*
D03*
X5232480D02*
D03*
X5182480D02*
D03*
X4982480D02*
D03*
X5032480D02*
D03*
X5082480D02*
D03*
X5132480D02*
D03*
X4982480Y2240157D02*
D03*
X5032480D02*
D03*
X5082480D02*
D03*
X5132480D02*
D03*
X5332480D02*
D03*
X5282480D02*
D03*
X5232480D02*
D03*
X5182480D02*
D03*
D104*
X5571850Y2794291D02*
D03*
X5687992Y2717520D02*
D03*
Y2743110D02*
D03*
Y2768701D02*
D03*
Y2794291D02*
D03*
X5571850Y2768701D02*
D03*
Y2743110D02*
D03*
Y2717520D02*
D03*
Y2203740D02*
D03*
X5687992Y2126968D02*
D03*
Y2152559D02*
D03*
Y2178150D02*
D03*
Y2203740D02*
D03*
X5571850Y2178150D02*
D03*
Y2152559D02*
D03*
Y2126968D02*
D03*
D105*
X6043307Y5748032D02*
D03*
X1043307Y1043307D02*
D03*
D106*
X1358268Y6003937D02*
D03*
X6043307Y1043307D02*
D03*
D107*
X4529528Y1922244D02*
D03*
X4446850D02*
D03*
Y1857284D02*
D03*
X4529528D02*
D03*
D108*
X5881890Y5339370D02*
D03*
Y4896850D02*
D03*
D109*
X6039370Y5339370D02*
D03*
Y4896850D02*
D03*
D110*
X5820866Y2858268D02*
D03*
Y3047244D02*
D03*
X5990158D02*
D03*
Y2858268D02*
D03*
X5820866Y1677165D02*
D03*
Y1866142D02*
D03*
X5990158D02*
D03*
Y1677165D02*
D03*
X5820866Y2267716D02*
D03*
Y2456693D02*
D03*
X5990158D02*
D03*
Y2267716D02*
D03*
D111*
X1387795Y4889764D02*
D03*
Y4724409D02*
D03*
Y4559055D02*
D03*
X1171260Y4889764D02*
D03*
Y4724409D02*
D03*
Y4559055D02*
D03*
X5834646Y5590551D02*
D03*
X5503937D02*
D03*
X3122047Y4204724D02*
D03*
X3452756D02*
D03*
D112*
X2410866Y3312205D02*
D03*
D113*
X2510866D02*
D03*
X2410866Y3212205D02*
D03*
X2510866D02*
D03*
X2410866Y3112205D02*
D03*
X2510866D02*
D03*
X2410866Y3012205D02*
D03*
X2510866D02*
D03*
X2410866Y2912205D02*
D03*
X2510866D02*
D03*
X2410866Y2812205D02*
D03*
X2510866D02*
D03*
X2410866Y2712205D02*
D03*
X2510866D02*
D03*
X2410866Y2612205D02*
D03*
X2510866D02*
D03*
X2410866Y2512205D02*
D03*
X2510866D02*
D03*
X2410866Y2412205D02*
D03*
X2510866D02*
D03*
X2410866Y2312205D02*
D03*
X2510866D02*
D03*
X2410866Y2212205D02*
D03*
X2510866D02*
D03*
X2410866Y2112205D02*
D03*
X2510866D02*
D03*
X2410866Y2012205D02*
D03*
X2510866D02*
D03*
X2410866Y1912205D02*
D03*
X2510866D02*
D03*
X2410866Y1812205D02*
D03*
X2510866D02*
D03*
X2410866Y1712205D02*
D03*
X2510866D02*
D03*
X2410866Y1612205D02*
D03*
X2510866D02*
D03*
X2410866Y1512205D02*
D03*
X2510866D02*
D03*
X2410866Y1412205D02*
D03*
X2510866D02*
D03*
D114*
X1405512Y5206693D02*
D03*
Y5580709D02*
D03*
X1220472D02*
D03*
Y5206693D02*
D03*
D115*
X1476378Y5393701D02*
D03*
D116*
X1240158D02*
D03*
D117*
X1112205D02*
D03*
D118*
X5590551Y5590551D02*
D03*
X5669291D02*
D03*
X5748032D02*
D03*
X3366142Y4204724D02*
D03*
X3287402D02*
D03*
X3208661D02*
D03*
D119*
X3224409Y3962205D02*
D03*
Y3862205D02*
D03*
Y3762205D02*
D03*
X2480315Y3962205D02*
D03*
Y3862205D02*
D03*
Y3762205D02*
D03*
D120*
X5905512Y5905512D02*
D03*
X1181102Y1181102D02*
D03*
X1200000Y5800000D02*
D03*
X5905512Y1181102D02*
D03*
D121*
X5767717Y4675197D02*
D03*
X5960630Y4698819D02*
D03*
X5767717Y4104331D02*
D03*
X5960630Y4080709D02*
D03*
D122*
X2460630Y3503937D02*
D03*
X3996063Y3858268D02*
D03*
X5295276D02*
D03*
X3996063Y5748032D02*
D03*
X5295276D02*
D03*
X1555118Y3503937D02*
D03*
X2460630Y1220472D02*
D03*
X1555118D02*
D03*
D123*
X3239961Y4406299D02*
D03*
X3339961D02*
D03*
X3239961Y4806299D02*
D03*
X3339961D02*
D03*
Y4906299D02*
D03*
X3239961D02*
D03*
Y4706299D02*
D03*
X3339961D02*
D03*
X3239961Y4606299D02*
D03*
X3339961D02*
D03*
X3239961Y4506299D02*
D03*
X3339961D02*
D03*
D124*
X5860236Y2884252D02*
D03*
Y2863583D02*
D03*
X4162939Y2035992D02*
D03*
X4178220Y2020850D02*
D03*
X3872000Y4596000D02*
D03*
X3873000Y4619000D02*
D03*
X5943558Y1703937D02*
D03*
Y1682205D02*
D03*
X5860236Y2293898D02*
D03*
Y2272441D02*
D03*
X5908331Y3020866D02*
D03*
Y3041732D02*
D03*
Y2430709D02*
D03*
Y2451575D02*
D03*
Y1860827D02*
D03*
Y1839961D02*
D03*
X5860236Y1682205D02*
D03*
Y1703937D02*
D03*
X5863000Y1761024D02*
D03*
Y1782614D02*
D03*
X5930000Y1761614D02*
D03*
Y1782480D02*
D03*
X5863000Y2352165D02*
D03*
Y2373032D02*
D03*
X5930000Y2352165D02*
D03*
Y2373032D02*
D03*
Y2964488D02*
D03*
Y2943780D02*
D03*
X5863000Y2964488D02*
D03*
Y2943780D02*
D03*
X3871877Y4644486D02*
D03*
X3873648Y4569883D02*
D03*
X3871458Y4531705D02*
D03*
X5642204Y2381299D02*
D03*
Y2402165D02*
D03*
X5629331Y1684646D02*
D03*
X5614724Y1699803D02*
D03*
X5629252Y2275276D02*
D03*
X5614803Y2290276D02*
D03*
X5668678Y1760630D02*
D03*
Y1782677D02*
D03*
Y2351968D02*
D03*
Y2372835D02*
D03*
X5860236Y1839961D02*
D03*
Y1860827D02*
D03*
Y2430709D02*
D03*
Y2451575D02*
D03*
X5943558Y2293898D02*
D03*
Y2272441D02*
D03*
X5640000Y1789764D02*
D03*
X5640986Y1812205D02*
D03*
X4220472Y1744685D02*
D03*
Y1724016D02*
D03*
X5668678Y2962795D02*
D03*
Y2941929D02*
D03*
X4072323Y2138307D02*
D03*
X4058780Y2154016D02*
D03*
X5943558Y2863583D02*
D03*
Y2884252D02*
D03*
X5860236Y3041732D02*
D03*
Y3020866D02*
D03*
X5614724Y2880905D02*
D03*
X5629331Y2865748D02*
D03*
X5642204Y2993110D02*
D03*
Y2972244D02*
D03*
X5755905Y1677165D02*
D03*
X5787402Y1740158D02*
D03*
X3881890Y4669291D02*
D03*
X5448819Y3751968D02*
D03*
Y3716535D02*
D03*
Y3610236D02*
D03*
Y3539370D02*
D03*
Y3503937D02*
D03*
X5708661Y1771653D02*
D03*
Y2952756D02*
D03*
Y2362205D02*
D03*
Y5118110D02*
D03*
X5905512Y1771653D02*
D03*
Y1757874D02*
D03*
Y1785433D02*
D03*
Y2952756D02*
D03*
Y2938976D02*
D03*
Y2966535D02*
D03*
Y2375984D02*
D03*
Y2348425D02*
D03*
Y2362205D02*
D03*
D125*
X3976378Y1861925D02*
D03*
X3948539Y1834086D02*
D03*
X3920700Y1806247D02*
D03*
X3948539Y1889764D02*
D03*
X3920700Y1861925D02*
D03*
X3892861Y1834086D02*
D03*
X3920700Y1917603D02*
D03*
X3892861Y1889764D02*
D03*
X3865023Y1861925D02*
D03*
X3892861Y1945441D02*
D03*
X3865023Y1917603D02*
D03*
X3837184Y1889764D02*
D03*
X4004217Y1834086D02*
D03*
X3976378Y1806247D02*
D03*
X3948539Y1778408D02*
D03*
X3976378Y1750570D02*
D03*
X4004217Y1778408D02*
D03*
X4032056Y1806247D02*
D03*
X3976378Y1917603D02*
D03*
X4004217Y1945441D02*
D03*
X4032056Y1973280D02*
D03*
X4004217Y1889764D02*
D03*
X4032056Y1917603D02*
D03*
X4059894Y1945441D02*
D03*
X4032056Y1861925D02*
D03*
X4059894Y1889764D02*
D03*
X4087733Y1917603D02*
D03*
X4059894Y1834086D02*
D03*
X4087733Y1861925D02*
D03*
X4115572Y1889764D02*
D03*
X3948539Y1945441D02*
D03*
X3976378Y1973280D02*
D03*
X4004217Y2001119D02*
D03*
X3976378Y2028958D02*
D03*
X3948539Y2001119D02*
D03*
X3920700Y1973280D02*
D03*
D126*
X5568000Y4213000D02*
D03*
X3195000Y5158000D02*
D03*
X2859000Y1466000D02*
D03*
X2790000Y1815000D02*
D03*
X2946000Y1474000D02*
D03*
D127*
X3672000Y1798000D02*
D03*
X4246000Y1801000D02*
D03*
X5231000Y2923551D02*
D03*
Y2333000D02*
D03*
X3531496Y5468504D02*
D03*
X3185039Y5263779D02*
D03*
X3701772Y1822835D02*
D03*
X5314961Y4716535D02*
D03*
X5527559Y4338583D02*
D03*
X5905512Y1523622D02*
D03*
X5704724Y1602362D02*
D03*
X5066929Y3665354D02*
D03*
X4889764Y4031496D02*
D03*
X3881890Y4952756D02*
D03*
X3739173Y4537402D02*
D03*
X3574803Y4370079D02*
D03*
X4127134Y4423000D02*
D03*
X3826772Y4125984D02*
D03*
X3976378Y4393701D02*
D03*
X4385827Y1921260D02*
D03*
X5330709Y2295276D02*
D03*
Y2885827D02*
D03*
Y3129921D02*
D03*
Y2539370D02*
D03*
X5547244Y2066929D02*
D03*
X4972441Y2137795D02*
D03*
Y2728347D02*
D03*
X5547244Y2657480D02*
D03*
X4082677Y4338583D02*
D03*
X4322835D02*
D03*
X4082677Y4401575D02*
D03*
X4188976D02*
D03*
X4153543Y2381890D02*
D03*
X3631890Y1978347D02*
D03*
X3677165Y1917323D02*
D03*
X3728347Y1795276D02*
D03*
X3724078Y1762205D02*
D03*
X4066929Y1632953D02*
D03*
X4146000Y1734000D02*
D03*
X3834900Y2128144D02*
D03*
X3737464Y2030708D02*
D03*
X3695706Y1988950D02*
D03*
X4103936Y1637464D02*
D03*
X4214758Y2031242D02*
D03*
X4061645Y2184355D02*
D03*
X4103403Y2142597D02*
D03*
X4173000Y2073000D02*
D03*
X5788000Y2924102D02*
D03*
X5975000Y2982102D02*
D03*
X5464000Y2982551D02*
D03*
Y2392000D02*
D03*
X4092056Y4506229D02*
D03*
X4091413Y4469413D02*
D03*
X3977000Y4512000D02*
D03*
X3976000Y4968000D02*
D03*
X5975000Y2391551D02*
D03*
X5788000Y2333551D02*
D03*
D128*
X2602000Y4749000D02*
D03*
X2110236Y5472441D02*
D03*
Y5354331D02*
D03*
%TF.MD5,1ead51b5ee2358f56bf7772edb09eead*%
M02*
