%TF.GenerationSoftware,Altium Limited,Altium Designer,22.1.2 (22)*%
G04 Layer_Color=2752767*
%FSLAX26Y26*%
%MOIN*%
%TF.SameCoordinates,4DF63D30-2817-4CE9-9CB3-8786E99D956B*%
%TF.FilePolarity,Positive*%
%TF.FileFunction,Drawing*%
%TF.Part,Single*%
G01*
G75*
%TA.AperFunction,NonConductor*%
%ADD194C,0.005000*%
%ADD195C,0.006667*%
%ADD196C,0.004000*%
D194*
X5861890Y5319370D02*
Y5359370D01*
X5901890D01*
Y5319370D01*
X5861890D01*
Y4876850D02*
Y4916850D01*
X5901890D01*
Y4876850D01*
X5861890D01*
X5905512Y3080394D02*
X5885512Y3120394D01*
X5925512D01*
X5905512Y3080394D01*
Y2785118D02*
X5915512Y2795118D01*
X5925512D01*
X5915512Y2805118D01*
X5925512Y2815118D01*
X5915512D01*
X5905512Y2825118D01*
X5895512Y2815118D01*
X5885512D01*
X5895512Y2805118D01*
X5885512Y2795118D01*
X5895512D01*
X5905512Y2785118D01*
X5800866Y2838268D02*
X5810866Y2858268D01*
X5800866Y2878268D01*
X5820866Y2868268D01*
X5840866Y2878268D01*
X5830866Y2858268D01*
X5840866Y2838268D01*
X5820866Y2848268D01*
X5800866Y2838268D01*
Y3027244D02*
X5810866Y3047244D01*
X5800866Y3067244D01*
X5820866Y3057244D01*
X5840866Y3067244D01*
X5830866Y3047244D01*
X5840866Y3027244D01*
X5820866Y3037244D01*
X5800866Y3027244D01*
X5970158D02*
X5980158Y3047244D01*
X5970158Y3067244D01*
X5990158Y3057244D01*
X6010158Y3067244D01*
X6000158Y3047244D01*
X6010158Y3027244D01*
X5990158Y3037244D01*
X5970158Y3027244D01*
Y2838268D02*
X5980158Y2858268D01*
X5970158Y2878268D01*
X5990158Y2868268D01*
X6010158Y2878268D01*
X6000158Y2858268D01*
X6010158Y2838268D01*
X5990158Y2848268D01*
X5970158Y2838268D01*
X1377795Y4879764D02*
Y4869764D01*
X1397795D01*
Y4879764D01*
X1407795D01*
Y4899764D01*
X1397795D01*
Y4909764D01*
X1377795D01*
Y4899764D01*
X1367795D01*
Y4879764D01*
X1377795D01*
Y4714409D02*
Y4704409D01*
X1397795D01*
Y4714409D01*
X1407795D01*
Y4734409D01*
X1397795D01*
Y4744409D01*
X1377795D01*
Y4734409D01*
X1367795D01*
Y4714409D01*
X1377795D01*
Y4549055D02*
Y4539055D01*
X1397795D01*
Y4549055D01*
X1407795D01*
Y4569055D01*
X1397795D01*
Y4579055D01*
X1377795D01*
Y4569055D01*
X1367795D01*
Y4549055D01*
X1377795D01*
X1161260Y4879764D02*
Y4869764D01*
X1181260D01*
Y4879764D01*
X1191260D01*
Y4899764D01*
X1181260D01*
Y4909764D01*
X1161260D01*
Y4899764D01*
X1151260D01*
Y4879764D01*
X1161260D01*
Y4714409D02*
Y4704409D01*
X1181260D01*
Y4714409D01*
X1191260D01*
Y4734409D01*
X1181260D01*
Y4744409D01*
X1161260D01*
Y4734409D01*
X1151260D01*
Y4714409D01*
X1161260D01*
Y4549055D02*
Y4539055D01*
X1181260D01*
Y4549055D01*
X1191260D01*
Y4569055D01*
X1181260D01*
Y4579055D01*
X1161260D01*
Y4569055D01*
X1151260D01*
Y4549055D01*
X1161260D01*
X2390866Y3292205D02*
X2400866D01*
X2410866Y3302205D01*
X2420866Y3292205D01*
X2430866D01*
Y3302205D01*
X2420866Y3312205D01*
X2430866Y3322205D01*
Y3332205D01*
X2420866D01*
X2410866Y3322205D01*
X2400866Y3332205D01*
X2390866D01*
Y3322205D01*
X2400866Y3312205D01*
X2390866Y3302205D01*
Y3292205D01*
X2490866D02*
X2500866D01*
X2510866Y3302205D01*
X2520866Y3292205D01*
X2530866D01*
Y3302205D01*
X2520866Y3312205D01*
X2530866Y3322205D01*
Y3332205D01*
X2520866D01*
X2510866Y3322205D01*
X2500866Y3332205D01*
X2490866D01*
Y3322205D01*
X2500866Y3312205D01*
X2490866Y3302205D01*
Y3292205D01*
X2390866Y3192205D02*
X2400866D01*
X2410866Y3202205D01*
X2420866Y3192205D01*
X2430866D01*
Y3202205D01*
X2420866Y3212205D01*
X2430866Y3222205D01*
Y3232205D01*
X2420866D01*
X2410866Y3222205D01*
X2400866Y3232205D01*
X2390866D01*
Y3222205D01*
X2400866Y3212205D01*
X2390866Y3202205D01*
Y3192205D01*
X2490866D02*
X2500866D01*
X2510866Y3202205D01*
X2520866Y3192205D01*
X2530866D01*
Y3202205D01*
X2520866Y3212205D01*
X2530866Y3222205D01*
Y3232205D01*
X2520866D01*
X2510866Y3222205D01*
X2500866Y3232205D01*
X2490866D01*
Y3222205D01*
X2500866Y3212205D01*
X2490866Y3202205D01*
Y3192205D01*
X2390866Y3092205D02*
X2400866D01*
X2410866Y3102205D01*
X2420866Y3092205D01*
X2430866D01*
Y3102205D01*
X2420866Y3112205D01*
X2430866Y3122205D01*
Y3132205D01*
X2420866D01*
X2410866Y3122205D01*
X2400866Y3132205D01*
X2390866D01*
Y3122205D01*
X2400866Y3112205D01*
X2390866Y3102205D01*
Y3092205D01*
X2490866D02*
X2500866D01*
X2510866Y3102205D01*
X2520866Y3092205D01*
X2530866D01*
Y3102205D01*
X2520866Y3112205D01*
X2530866Y3122205D01*
Y3132205D01*
X2520866D01*
X2510866Y3122205D01*
X2500866Y3132205D01*
X2490866D01*
Y3122205D01*
X2500866Y3112205D01*
X2490866Y3102205D01*
Y3092205D01*
X2390866Y2992205D02*
X2400866D01*
X2410866Y3002205D01*
X2420866Y2992205D01*
X2430866D01*
Y3002205D01*
X2420866Y3012205D01*
X2430866Y3022205D01*
Y3032205D01*
X2420866D01*
X2410866Y3022205D01*
X2400866Y3032205D01*
X2390866D01*
Y3022205D01*
X2400866Y3012205D01*
X2390866Y3002205D01*
Y2992205D01*
X2490866D02*
X2500866D01*
X2510866Y3002205D01*
X2520866Y2992205D01*
X2530866D01*
Y3002205D01*
X2520866Y3012205D01*
X2530866Y3022205D01*
Y3032205D01*
X2520866D01*
X2510866Y3022205D01*
X2500866Y3032205D01*
X2490866D01*
Y3022205D01*
X2500866Y3012205D01*
X2490866Y3002205D01*
Y2992205D01*
X2390866Y2892205D02*
X2400866D01*
X2410866Y2902205D01*
X2420866Y2892205D01*
X2430866D01*
Y2902205D01*
X2420866Y2912205D01*
X2430866Y2922205D01*
Y2932205D01*
X2420866D01*
X2410866Y2922205D01*
X2400866Y2932205D01*
X2390866D01*
Y2922205D01*
X2400866Y2912205D01*
X2390866Y2902205D01*
Y2892205D01*
X2490866D02*
X2500866D01*
X2510866Y2902205D01*
X2520866Y2892205D01*
X2530866D01*
Y2902205D01*
X2520866Y2912205D01*
X2530866Y2922205D01*
Y2932205D01*
X2520866D01*
X2510866Y2922205D01*
X2500866Y2932205D01*
X2490866D01*
Y2922205D01*
X2500866Y2912205D01*
X2490866Y2902205D01*
Y2892205D01*
X2390866Y2792205D02*
X2400866D01*
X2410866Y2802205D01*
X2420866Y2792205D01*
X2430866D01*
Y2802205D01*
X2420866Y2812205D01*
X2430866Y2822205D01*
Y2832205D01*
X2420866D01*
X2410866Y2822205D01*
X2400866Y2832205D01*
X2390866D01*
Y2822205D01*
X2400866Y2812205D01*
X2390866Y2802205D01*
Y2792205D01*
X2490866D02*
X2500866D01*
X2510866Y2802205D01*
X2520866Y2792205D01*
X2530866D01*
Y2802205D01*
X2520866Y2812205D01*
X2530866Y2822205D01*
Y2832205D01*
X2520866D01*
X2510866Y2822205D01*
X2500866Y2832205D01*
X2490866D01*
Y2822205D01*
X2500866Y2812205D01*
X2490866Y2802205D01*
Y2792205D01*
X2390866Y2692205D02*
X2400866D01*
X2410866Y2702205D01*
X2420866Y2692205D01*
X2430866D01*
Y2702205D01*
X2420866Y2712205D01*
X2430866Y2722205D01*
Y2732205D01*
X2420866D01*
X2410866Y2722205D01*
X2400866Y2732205D01*
X2390866D01*
Y2722205D01*
X2400866Y2712205D01*
X2390866Y2702205D01*
Y2692205D01*
X2490866D02*
X2500866D01*
X2510866Y2702205D01*
X2520866Y2692205D01*
X2530866D01*
Y2702205D01*
X2520866Y2712205D01*
X2530866Y2722205D01*
Y2732205D01*
X2520866D01*
X2510866Y2722205D01*
X2500866Y2732205D01*
X2490866D01*
Y2722205D01*
X2500866Y2712205D01*
X2490866Y2702205D01*
Y2692205D01*
X2390866Y2592205D02*
X2400866D01*
X2410866Y2602205D01*
X2420866Y2592205D01*
X2430866D01*
Y2602205D01*
X2420866Y2612205D01*
X2430866Y2622205D01*
Y2632205D01*
X2420866D01*
X2410866Y2622205D01*
X2400866Y2632205D01*
X2390866D01*
Y2622205D01*
X2400866Y2612205D01*
X2390866Y2602205D01*
Y2592205D01*
X2490866D02*
X2500866D01*
X2510866Y2602205D01*
X2520866Y2592205D01*
X2530866D01*
Y2602205D01*
X2520866Y2612205D01*
X2530866Y2622205D01*
Y2632205D01*
X2520866D01*
X2510866Y2622205D01*
X2500866Y2632205D01*
X2490866D01*
Y2622205D01*
X2500866Y2612205D01*
X2490866Y2602205D01*
Y2592205D01*
X2390866Y2492205D02*
X2400866D01*
X2410866Y2502205D01*
X2420866Y2492205D01*
X2430866D01*
Y2502205D01*
X2420866Y2512205D01*
X2430866Y2522205D01*
Y2532205D01*
X2420866D01*
X2410866Y2522205D01*
X2400866Y2532205D01*
X2390866D01*
Y2522205D01*
X2400866Y2512205D01*
X2390866Y2502205D01*
Y2492205D01*
X2490866D02*
X2500866D01*
X2510866Y2502205D01*
X2520866Y2492205D01*
X2530866D01*
Y2502205D01*
X2520866Y2512205D01*
X2530866Y2522205D01*
Y2532205D01*
X2520866D01*
X2510866Y2522205D01*
X2500866Y2532205D01*
X2490866D01*
Y2522205D01*
X2500866Y2512205D01*
X2490866Y2502205D01*
Y2492205D01*
X2390866Y2392205D02*
X2400866D01*
X2410866Y2402205D01*
X2420866Y2392205D01*
X2430866D01*
Y2402205D01*
X2420866Y2412205D01*
X2430866Y2422205D01*
Y2432205D01*
X2420866D01*
X2410866Y2422205D01*
X2400866Y2432205D01*
X2390866D01*
Y2422205D01*
X2400866Y2412205D01*
X2390866Y2402205D01*
Y2392205D01*
X2490866D02*
X2500866D01*
X2510866Y2402205D01*
X2520866Y2392205D01*
X2530866D01*
Y2402205D01*
X2520866Y2412205D01*
X2530866Y2422205D01*
Y2432205D01*
X2520866D01*
X2510866Y2422205D01*
X2500866Y2432205D01*
X2490866D01*
Y2422205D01*
X2500866Y2412205D01*
X2490866Y2402205D01*
Y2392205D01*
X2390866Y2292205D02*
X2400866D01*
X2410866Y2302205D01*
X2420866Y2292205D01*
X2430866D01*
Y2302205D01*
X2420866Y2312205D01*
X2430866Y2322205D01*
Y2332205D01*
X2420866D01*
X2410866Y2322205D01*
X2400866Y2332205D01*
X2390866D01*
Y2322205D01*
X2400866Y2312205D01*
X2390866Y2302205D01*
Y2292205D01*
X2490866D02*
X2500866D01*
X2510866Y2302205D01*
X2520866Y2292205D01*
X2530866D01*
Y2302205D01*
X2520866Y2312205D01*
X2530866Y2322205D01*
Y2332205D01*
X2520866D01*
X2510866Y2322205D01*
X2500866Y2332205D01*
X2490866D01*
Y2322205D01*
X2500866Y2312205D01*
X2490866Y2302205D01*
Y2292205D01*
X2390866Y2192205D02*
X2400866D01*
X2410866Y2202205D01*
X2420866Y2192205D01*
X2430866D01*
Y2202205D01*
X2420866Y2212205D01*
X2430866Y2222205D01*
Y2232205D01*
X2420866D01*
X2410866Y2222205D01*
X2400866Y2232205D01*
X2390866D01*
Y2222205D01*
X2400866Y2212205D01*
X2390866Y2202205D01*
Y2192205D01*
X2490866D02*
X2500866D01*
X2510866Y2202205D01*
X2520866Y2192205D01*
X2530866D01*
Y2202205D01*
X2520866Y2212205D01*
X2530866Y2222205D01*
Y2232205D01*
X2520866D01*
X2510866Y2222205D01*
X2500866Y2232205D01*
X2490866D01*
Y2222205D01*
X2500866Y2212205D01*
X2490866Y2202205D01*
Y2192205D01*
X2390866Y2092205D02*
X2400866D01*
X2410866Y2102205D01*
X2420866Y2092205D01*
X2430866D01*
Y2102205D01*
X2420866Y2112205D01*
X2430866Y2122205D01*
Y2132205D01*
X2420866D01*
X2410866Y2122205D01*
X2400866Y2132205D01*
X2390866D01*
Y2122205D01*
X2400866Y2112205D01*
X2390866Y2102205D01*
Y2092205D01*
X2490866D02*
X2500866D01*
X2510866Y2102205D01*
X2520866Y2092205D01*
X2530866D01*
Y2102205D01*
X2520866Y2112205D01*
X2530866Y2122205D01*
Y2132205D01*
X2520866D01*
X2510866Y2122205D01*
X2500866Y2132205D01*
X2490866D01*
Y2122205D01*
X2500866Y2112205D01*
X2490866Y2102205D01*
Y2092205D01*
X2390866Y1992205D02*
X2400866D01*
X2410866Y2002205D01*
X2420866Y1992205D01*
X2430866D01*
Y2002205D01*
X2420866Y2012205D01*
X2430866Y2022205D01*
Y2032205D01*
X2420866D01*
X2410866Y2022205D01*
X2400866Y2032205D01*
X2390866D01*
Y2022205D01*
X2400866Y2012205D01*
X2390866Y2002205D01*
Y1992205D01*
X2490866D02*
X2500866D01*
X2510866Y2002205D01*
X2520866Y1992205D01*
X2530866D01*
Y2002205D01*
X2520866Y2012205D01*
X2530866Y2022205D01*
Y2032205D01*
X2520866D01*
X2510866Y2022205D01*
X2500866Y2032205D01*
X2490866D01*
Y2022205D01*
X2500866Y2012205D01*
X2490866Y2002205D01*
Y1992205D01*
X2390866Y1892205D02*
X2400866D01*
X2410866Y1902205D01*
X2420866Y1892205D01*
X2430866D01*
Y1902205D01*
X2420866Y1912205D01*
X2430866Y1922205D01*
Y1932205D01*
X2420866D01*
X2410866Y1922205D01*
X2400866Y1932205D01*
X2390866D01*
Y1922205D01*
X2400866Y1912205D01*
X2390866Y1902205D01*
Y1892205D01*
X2490866D02*
X2500866D01*
X2510866Y1902205D01*
X2520866Y1892205D01*
X2530866D01*
Y1902205D01*
X2520866Y1912205D01*
X2530866Y1922205D01*
Y1932205D01*
X2520866D01*
X2510866Y1922205D01*
X2500866Y1932205D01*
X2490866D01*
Y1922205D01*
X2500866Y1912205D01*
X2490866Y1902205D01*
Y1892205D01*
X2390866Y1792205D02*
X2400866D01*
X2410866Y1802205D01*
X2420866Y1792205D01*
X2430866D01*
Y1802205D01*
X2420866Y1812205D01*
X2430866Y1822205D01*
Y1832205D01*
X2420866D01*
X2410866Y1822205D01*
X2400866Y1832205D01*
X2390866D01*
Y1822205D01*
X2400866Y1812205D01*
X2390866Y1802205D01*
Y1792205D01*
X2490866D02*
X2500866D01*
X2510866Y1802205D01*
X2520866Y1792205D01*
X2530866D01*
Y1802205D01*
X2520866Y1812205D01*
X2530866Y1822205D01*
Y1832205D01*
X2520866D01*
X2510866Y1822205D01*
X2500866Y1832205D01*
X2490866D01*
Y1822205D01*
X2500866Y1812205D01*
X2490866Y1802205D01*
Y1792205D01*
X2390866Y1692205D02*
X2400866D01*
X2410866Y1702205D01*
X2420866Y1692205D01*
X2430866D01*
Y1702205D01*
X2420866Y1712205D01*
X2430866Y1722205D01*
Y1732205D01*
X2420866D01*
X2410866Y1722205D01*
X2400866Y1732205D01*
X2390866D01*
Y1722205D01*
X2400866Y1712205D01*
X2390866Y1702205D01*
Y1692205D01*
X2490866D02*
X2500866D01*
X2510866Y1702205D01*
X2520866Y1692205D01*
X2530866D01*
Y1702205D01*
X2520866Y1712205D01*
X2530866Y1722205D01*
Y1732205D01*
X2520866D01*
X2510866Y1722205D01*
X2500866Y1732205D01*
X2490866D01*
Y1722205D01*
X2500866Y1712205D01*
X2490866Y1702205D01*
Y1692205D01*
X2390866Y1592205D02*
X2400866D01*
X2410866Y1602205D01*
X2420866Y1592205D01*
X2430866D01*
Y1602205D01*
X2420866Y1612205D01*
X2430866Y1622205D01*
Y1632205D01*
X2420866D01*
X2410866Y1622205D01*
X2400866Y1632205D01*
X2390866D01*
Y1622205D01*
X2400866Y1612205D01*
X2390866Y1602205D01*
Y1592205D01*
X2490866D02*
X2500866D01*
X2510866Y1602205D01*
X2520866Y1592205D01*
X2530866D01*
Y1602205D01*
X2520866Y1612205D01*
X2530866Y1622205D01*
Y1632205D01*
X2520866D01*
X2510866Y1622205D01*
X2500866Y1632205D01*
X2490866D01*
Y1622205D01*
X2500866Y1612205D01*
X2490866Y1602205D01*
Y1592205D01*
X2390866Y1492205D02*
X2400866D01*
X2410866Y1502205D01*
X2420866Y1492205D01*
X2430866D01*
Y1502205D01*
X2420866Y1512205D01*
X2430866Y1522205D01*
Y1532205D01*
X2420866D01*
X2410866Y1522205D01*
X2400866Y1532205D01*
X2390866D01*
Y1522205D01*
X2400866Y1512205D01*
X2390866Y1502205D01*
Y1492205D01*
X2490866D02*
X2500866D01*
X2510866Y1502205D01*
X2520866Y1492205D01*
X2530866D01*
Y1502205D01*
X2520866Y1512205D01*
X2530866Y1522205D01*
Y1532205D01*
X2520866D01*
X2510866Y1522205D01*
X2500866Y1532205D01*
X2490866D01*
Y1522205D01*
X2500866Y1512205D01*
X2490866Y1502205D01*
Y1492205D01*
X2390866Y1392205D02*
X2400866D01*
X2410866Y1402205D01*
X2420866Y1392205D01*
X2430866D01*
Y1402205D01*
X2420866Y1412205D01*
X2430866Y1422205D01*
Y1432205D01*
X2420866D01*
X2410866Y1422205D01*
X2400866Y1432205D01*
X2390866D01*
Y1422205D01*
X2400866Y1412205D01*
X2390866Y1402205D01*
Y1392205D01*
X2490866D02*
X2500866D01*
X2510866Y1402205D01*
X2520866Y1392205D01*
X2530866D01*
Y1402205D01*
X2520866Y1412205D01*
X2530866Y1422205D01*
Y1432205D01*
X2520866D01*
X2510866Y1422205D01*
X2500866Y1432205D01*
X2490866D01*
Y1422205D01*
X2500866Y1412205D01*
X2490866Y1402205D01*
Y1392205D01*
X1385512Y5206693D02*
X1405512Y5226693D01*
X1425512Y5206693D01*
X1405512Y5186693D01*
X1385512Y5206693D01*
Y5580709D02*
X1405512Y5600709D01*
X1425512Y5580709D01*
X1405512Y5560709D01*
X1385512Y5580709D01*
X1456378Y5373701D02*
Y5413701D01*
X1496378D01*
Y5373701D01*
X1456378D01*
X1464378Y5381701D02*
Y5405701D01*
X1488378D01*
Y5381701D01*
X1464378D01*
X1112205Y5373701D02*
X1092205Y5413701D01*
X1132205D01*
X1112205Y5373701D01*
Y5381701D02*
X1100205Y5405701D01*
X1124205D01*
X1112205Y5381701D01*
X1200472Y5580709D02*
X1220472Y5600709D01*
X1240472Y5580709D01*
X1220472Y5560709D01*
X1200472Y5580709D01*
Y5206693D02*
X1220472Y5226693D01*
X1240472Y5206693D01*
X1220472Y5186693D01*
X1200472Y5206693D01*
X5834646Y5570551D02*
X5844646Y5580551D01*
X5854646D01*
X5844646Y5590551D01*
X5854646Y5600551D01*
X5844646D01*
X5834646Y5610551D01*
X5824646Y5600551D01*
X5814646D01*
X5824646Y5590551D01*
X5814646Y5580551D01*
X5824646D01*
X5834646Y5570551D01*
Y5578551D02*
X5840646Y5584551D01*
X5846646D01*
X5840646Y5590551D01*
X5846646Y5596551D01*
X5840646D01*
X5834646Y5602551D01*
X5828646Y5596551D01*
X5822646D01*
X5828646Y5590551D01*
X5822646Y5584551D01*
X5828646D01*
X5834646Y5578551D01*
X5503937Y5570551D02*
X5513937Y5580551D01*
X5523937D01*
X5513937Y5590551D01*
X5523937Y5600551D01*
X5513937D01*
X5503937Y5610551D01*
X5493937Y5600551D01*
X5483937D01*
X5493937Y5590551D01*
X5483937Y5580551D01*
X5493937D01*
X5503937Y5570551D01*
Y5578551D02*
X5509937Y5584551D01*
X5515937D01*
X5509937Y5590551D01*
X5515937Y5596551D01*
X5509937D01*
X5503937Y5602551D01*
X5497937Y5596551D01*
X5491937D01*
X5497937Y5590551D01*
X5491937Y5584551D01*
X5497937D01*
X5503937Y5578551D01*
X5570551Y5570551D02*
X5580551Y5590551D01*
X5570551Y5610551D01*
X5590551Y5600551D01*
X5610551Y5610551D01*
X5600551Y5590551D01*
X5610551Y5570551D01*
X5590551Y5580551D01*
X5570551Y5570551D01*
X5578551Y5578551D02*
X5584551Y5590551D01*
X5578551Y5602551D01*
X5590551Y5596551D01*
X5602551Y5602551D01*
X5596551Y5590551D01*
X5602551Y5578551D01*
X5590551Y5584551D01*
X5578551Y5578551D01*
X5649291Y5570551D02*
X5659291Y5590551D01*
X5649291Y5610551D01*
X5669291Y5600551D01*
X5689291Y5610551D01*
X5679291Y5590551D01*
X5689291Y5570551D01*
X5669291Y5580551D01*
X5649291Y5570551D01*
X5657291Y5578551D02*
X5663291Y5590551D01*
X5657291Y5602551D01*
X5669291Y5596551D01*
X5681291Y5602551D01*
X5675291Y5590551D01*
X5681291Y5578551D01*
X5669291Y5584551D01*
X5657291Y5578551D01*
X5728032Y5570551D02*
X5738032Y5590551D01*
X5728032Y5610551D01*
X5748032Y5600551D01*
X5768032Y5610551D01*
X5758032Y5590551D01*
X5768032Y5570551D01*
X5748032Y5580551D01*
X5728032Y5570551D01*
X5736032Y5578551D02*
X5742032Y5590551D01*
X5736032Y5602551D01*
X5748032Y5596551D01*
X5760032Y5602551D01*
X5754032Y5590551D01*
X5760032Y5578551D01*
X5748032Y5584551D01*
X5736032Y5578551D01*
X3214409Y3952205D02*
Y3942205D01*
X3234409D01*
Y3952205D01*
X3244409D01*
Y3972205D01*
X3234409D01*
Y3982205D01*
X3214409D01*
Y3972205D01*
X3204409D01*
Y3952205D01*
X3214409D01*
X3218409Y3956205D02*
Y3950205D01*
X3230409D01*
Y3956205D01*
X3236409D01*
Y3968205D01*
X3230409D01*
Y3974205D01*
X3218409D01*
Y3968205D01*
X3212409D01*
Y3956205D01*
X3218409D01*
X3214409Y3852205D02*
Y3842205D01*
X3234409D01*
Y3852205D01*
X3244409D01*
Y3872205D01*
X3234409D01*
Y3882205D01*
X3214409D01*
Y3872205D01*
X3204409D01*
Y3852205D01*
X3214409D01*
X3218409Y3856205D02*
Y3850205D01*
X3230409D01*
Y3856205D01*
X3236409D01*
Y3868205D01*
X3230409D01*
Y3874205D01*
X3218409D01*
Y3868205D01*
X3212409D01*
Y3856205D01*
X3218409D01*
X3214409Y3752205D02*
Y3742205D01*
X3234409D01*
Y3752205D01*
X3244409D01*
Y3772205D01*
X3234409D01*
Y3782205D01*
X3214409D01*
Y3772205D01*
X3204409D01*
Y3752205D01*
X3214409D01*
X3218409Y3756205D02*
Y3750205D01*
X3230409D01*
Y3756205D01*
X3236409D01*
Y3768205D01*
X3230409D01*
Y3774205D01*
X3218409D01*
Y3768205D01*
X3212409D01*
Y3756205D01*
X3218409D01*
X5885512Y5885512D02*
X5895512D01*
X5905512Y5895512D01*
X5915512Y5885512D01*
X5925512D01*
Y5895512D01*
X5915512Y5905512D01*
X5925512Y5915512D01*
Y5925512D01*
X5915512D01*
X5905512Y5915512D01*
X5895512Y5925512D01*
X5885512D01*
Y5915512D01*
X5895512Y5905512D01*
X5885512Y5895512D01*
Y5885512D01*
X5893512Y5893512D02*
X5899512D01*
X5905512Y5899512D01*
X5911512Y5893512D01*
X5917512D01*
Y5899512D01*
X5911512Y5905512D01*
X5917512Y5911512D01*
Y5917512D01*
X5911512D01*
X5905512Y5911512D01*
X5899512Y5917512D01*
X5893512D01*
Y5911512D01*
X5899512Y5905512D01*
X5893512Y5899512D01*
Y5893512D01*
X5747717Y4655197D02*
X5757717D01*
X5767717Y4665197D01*
X5777717Y4655197D01*
X5787717D01*
Y4665197D01*
X5777717Y4675197D01*
X5787717Y4685197D01*
Y4695197D01*
X5777717D01*
X5767717Y4685197D01*
X5757717Y4695197D01*
X5747717D01*
Y4685197D01*
X5757717Y4675197D01*
X5747717Y4665197D01*
Y4655197D01*
X5940630Y4678819D02*
X5950630D01*
X5960630Y4688819D01*
X5970630Y4678819D01*
X5980630D01*
Y4688819D01*
X5970630Y4698819D01*
X5980630Y4708819D01*
Y4718819D01*
X5970630D01*
X5960630Y4708819D01*
X5950630Y4718819D01*
X5940630D01*
Y4708819D01*
X5950630Y4698819D01*
X5940630Y4688819D01*
Y4678819D01*
X5747717Y4084331D02*
X5757717D01*
X5767717Y4094331D01*
X5777717Y4084331D01*
X5787717D01*
Y4094331D01*
X5777717Y4104331D01*
X5787717Y4114331D01*
Y4124331D01*
X5777717D01*
X5767717Y4114331D01*
X5757717Y4124331D01*
X5747717D01*
Y4114331D01*
X5757717Y4104331D01*
X5747717Y4094331D01*
Y4084331D01*
X5940630Y4060709D02*
X5950630D01*
X5960630Y4070709D01*
X5970630Y4060709D01*
X5980630D01*
Y4070709D01*
X5970630Y4080709D01*
X5980630Y4090709D01*
Y4100709D01*
X5970630D01*
X5960630Y4090709D01*
X5950630Y4100709D01*
X5940630D01*
Y4090709D01*
X5950630Y4080709D01*
X5940630Y4070709D01*
Y4060709D01*
X2460630Y3503937D02*
Y3537260D01*
X2477291Y3553921D01*
X2493952Y3537260D01*
Y3503937D01*
Y3528929D01*
X2460630D01*
X3239961Y4456283D02*
Y4406299D01*
X3264952D01*
X3273283Y4414630D01*
Y4422961D01*
X3264952Y4431291D01*
X3239961D01*
X3264952D01*
X3273283Y4439622D01*
Y4447952D01*
X3264952Y4456283D01*
X3239961D01*
X3339961D02*
Y4406299D01*
X3364952D01*
X3373283Y4414630D01*
Y4422961D01*
X3364952Y4431291D01*
X3339961D01*
X3364952D01*
X3373283Y4439622D01*
Y4447952D01*
X3364952Y4456283D01*
X3339961D01*
X5905512Y1899291D02*
X5885512Y1939291D01*
X5925512D01*
X5905512Y1899291D01*
Y1604016D02*
X5915512Y1614016D01*
X5925512D01*
X5915512Y1624016D01*
X5925512Y1634016D01*
X5915512D01*
X5905512Y1644016D01*
X5895512Y1634016D01*
X5885512D01*
X5895512Y1624016D01*
X5885512Y1614016D01*
X5895512D01*
X5905512Y1604016D01*
X5800866Y1657165D02*
X5810866Y1677165D01*
X5800866Y1697165D01*
X5820866Y1687165D01*
X5840866Y1697165D01*
X5830866Y1677165D01*
X5840866Y1657165D01*
X5820866Y1667165D01*
X5800866Y1657165D01*
Y1846142D02*
X5810866Y1866142D01*
X5800866Y1886142D01*
X5820866Y1876142D01*
X5840866Y1886142D01*
X5830866Y1866142D01*
X5840866Y1846142D01*
X5820866Y1856142D01*
X5800866Y1846142D01*
X5970158D02*
X5980158Y1866142D01*
X5970158Y1886142D01*
X5990158Y1876142D01*
X6010158Y1886142D01*
X6000158Y1866142D01*
X6010158Y1846142D01*
X5990158Y1856142D01*
X5970158Y1846142D01*
Y1657165D02*
X5980158Y1677165D01*
X5970158Y1697165D01*
X5990158Y1687165D01*
X6010158Y1697165D01*
X6000158Y1677165D01*
X6010158Y1657165D01*
X5990158Y1667165D01*
X5970158Y1657165D01*
X5905512Y2489843D02*
X5885512Y2529843D01*
X5925512D01*
X5905512Y2489843D01*
Y2194567D02*
X5915512Y2204567D01*
X5925512D01*
X5915512Y2214567D01*
X5925512Y2224567D01*
X5915512D01*
X5905512Y2234567D01*
X5895512Y2224567D01*
X5885512D01*
X5895512Y2214567D01*
X5885512Y2204567D01*
X5895512D01*
X5905512Y2194567D01*
X5800866Y2247716D02*
X5810866Y2267716D01*
X5800866Y2287716D01*
X5820866Y2277716D01*
X5840866Y2287716D01*
X5830866Y2267716D01*
X5840866Y2247716D01*
X5820866Y2257716D01*
X5800866Y2247716D01*
Y2436693D02*
X5810866Y2456693D01*
X5800866Y2476693D01*
X5820866Y2466693D01*
X5840866Y2476693D01*
X5830866Y2456693D01*
X5840866Y2436693D01*
X5820866Y2446693D01*
X5800866Y2436693D01*
X5970158D02*
X5980158Y2456693D01*
X5970158Y2476693D01*
X5990158Y2466693D01*
X6010158Y2476693D01*
X6000158Y2456693D01*
X6010158Y2436693D01*
X5990158Y2446693D01*
X5970158Y2436693D01*
Y2247716D02*
X5980158Y2267716D01*
X5970158Y2287716D01*
X5990158Y2277716D01*
X6010158Y2287716D01*
X6000158Y2267716D01*
X6010158Y2247716D01*
X5990158Y2257716D01*
X5970158Y2247716D01*
X3239961Y4856283D02*
Y4806299D01*
X3264952D01*
X3273283Y4814630D01*
Y4822961D01*
X3264952Y4831291D01*
X3239961D01*
X3264952D01*
X3273283Y4839622D01*
Y4847952D01*
X3264952Y4856283D01*
X3239961D01*
X3339961D02*
Y4806299D01*
X3364952D01*
X3373283Y4814630D01*
Y4822961D01*
X3364952Y4831291D01*
X3339961D01*
X3364952D01*
X3373283Y4839622D01*
Y4847952D01*
X3364952Y4856283D01*
X3339961D01*
Y4956283D02*
Y4906299D01*
X3364952D01*
X3373283Y4914630D01*
Y4922961D01*
X3364952Y4931291D01*
X3339961D01*
X3364952D01*
X3373283Y4939622D01*
Y4947952D01*
X3364952Y4956283D01*
X3339961D01*
X3239961D02*
Y4906299D01*
X3264952D01*
X3273283Y4914630D01*
Y4922961D01*
X3264952Y4931291D01*
X3239961D01*
X3264952D01*
X3273283Y4939622D01*
Y4947952D01*
X3264952Y4956283D01*
X3239961D01*
Y4756283D02*
Y4706299D01*
X3264952D01*
X3273283Y4714630D01*
Y4722961D01*
X3264952Y4731291D01*
X3239961D01*
X3264952D01*
X3273283Y4739622D01*
Y4747952D01*
X3264952Y4756283D01*
X3239961D01*
X3339961D02*
Y4706299D01*
X3364952D01*
X3373283Y4714630D01*
Y4722961D01*
X3364952Y4731291D01*
X3339961D01*
X3364952D01*
X3373283Y4739622D01*
Y4747952D01*
X3364952Y4756283D01*
X3339961D01*
X3239961Y4656283D02*
Y4606299D01*
X3264952D01*
X3273283Y4614630D01*
Y4622961D01*
X3264952Y4631291D01*
X3239961D01*
X3264952D01*
X3273283Y4639622D01*
Y4647952D01*
X3264952Y4656283D01*
X3239961D01*
X3339961D02*
Y4606299D01*
X3364952D01*
X3373283Y4614630D01*
Y4622961D01*
X3364952Y4631291D01*
X3339961D01*
X3364952D01*
X3373283Y4639622D01*
Y4647952D01*
X3364952Y4656283D01*
X3339961D01*
X3239961Y4556283D02*
Y4506299D01*
X3264952D01*
X3273283Y4514630D01*
Y4522961D01*
X3264952Y4531291D01*
X3239961D01*
X3264952D01*
X3273283Y4539622D01*
Y4547952D01*
X3264952Y4556283D01*
X3239961D01*
X3339961D02*
Y4506299D01*
X3364952D01*
X3373283Y4514630D01*
Y4522961D01*
X3364952Y4531291D01*
X3339961D01*
X3364952D01*
X3373283Y4539622D01*
Y4547952D01*
X3364952Y4556283D01*
X3339961D01*
X3122047Y4184724D02*
X3132047Y4194724D01*
X3142047D01*
X3132047Y4204724D01*
X3142047Y4214724D01*
X3132047D01*
X3122047Y4224724D01*
X3112047Y4214724D01*
X3102047D01*
X3112047Y4204724D01*
X3102047Y4194724D01*
X3112047D01*
X3122047Y4184724D01*
Y4192724D02*
X3128047Y4198724D01*
X3134047D01*
X3128047Y4204724D01*
X3134047Y4210724D01*
X3128047D01*
X3122047Y4216724D01*
X3116047Y4210724D01*
X3110047D01*
X3116047Y4204724D01*
X3110047Y4198724D01*
X3116047D01*
X3122047Y4192724D01*
X3452756Y4184724D02*
X3462756Y4194724D01*
X3472756D01*
X3462756Y4204724D01*
X3472756Y4214724D01*
X3462756D01*
X3452756Y4224724D01*
X3442756Y4214724D01*
X3432756D01*
X3442756Y4204724D01*
X3432756Y4194724D01*
X3442756D01*
X3452756Y4184724D01*
Y4192724D02*
X3458756Y4198724D01*
X3464756D01*
X3458756Y4204724D01*
X3464756Y4210724D01*
X3458756D01*
X3452756Y4216724D01*
X3446756Y4210724D01*
X3440756D01*
X3446756Y4204724D01*
X3440756Y4198724D01*
X3446756D01*
X3452756Y4192724D01*
X3346142Y4184724D02*
X3356142Y4204724D01*
X3346142Y4224724D01*
X3366142Y4214724D01*
X3386142Y4224724D01*
X3376142Y4204724D01*
X3386142Y4184724D01*
X3366142Y4194724D01*
X3346142Y4184724D01*
X3354142Y4192724D02*
X3360142Y4204724D01*
X3354142Y4216724D01*
X3366142Y4210724D01*
X3378142Y4216724D01*
X3372142Y4204724D01*
X3378142Y4192724D01*
X3366142Y4198724D01*
X3354142Y4192724D01*
X3267402Y4184724D02*
X3277402Y4204724D01*
X3267402Y4224724D01*
X3287402Y4214724D01*
X3307402Y4224724D01*
X3297402Y4204724D01*
X3307402Y4184724D01*
X3287402Y4194724D01*
X3267402Y4184724D01*
X3275402Y4192724D02*
X3281402Y4204724D01*
X3275402Y4216724D01*
X3287402Y4210724D01*
X3299402Y4216724D01*
X3293402Y4204724D01*
X3299402Y4192724D01*
X3287402Y4198724D01*
X3275402Y4192724D01*
X3188661Y4184724D02*
X3198661Y4204724D01*
X3188661Y4224724D01*
X3208661Y4214724D01*
X3228661Y4224724D01*
X3218661Y4204724D01*
X3228661Y4184724D01*
X3208661Y4194724D01*
X3188661Y4184724D01*
X3196661Y4192724D02*
X3202661Y4204724D01*
X3196661Y4216724D01*
X3208661Y4210724D01*
X3220661Y4216724D01*
X3214661Y4204724D01*
X3220661Y4192724D01*
X3208661Y4198724D01*
X3196661Y4192724D01*
X1161102Y1161102D02*
X1171102D01*
X1181102Y1171102D01*
X1191102Y1161102D01*
X1201102D01*
Y1171102D01*
X1191102Y1181102D01*
X1201102Y1191102D01*
Y1201102D01*
X1191102D01*
X1181102Y1191102D01*
X1171102Y1201102D01*
X1161102D01*
Y1191102D01*
X1171102Y1181102D01*
X1161102Y1171102D01*
Y1161102D01*
X1169102Y1169102D02*
X1175102D01*
X1181102Y1175102D01*
X1187102Y1169102D01*
X1193102D01*
Y1175102D01*
X1187102Y1181102D01*
X1193102Y1187102D01*
Y1193102D01*
X1187102D01*
X1181102Y1187102D01*
X1175102Y1193102D01*
X1169102D01*
Y1187102D01*
X1175102Y1181102D01*
X1169102Y1175102D01*
Y1169102D01*
X1180000Y5780000D02*
X1190000D01*
X1200000Y5790000D01*
X1210000Y5780000D01*
X1220000D01*
Y5790000D01*
X1210000Y5800000D01*
X1220000Y5810000D01*
Y5820000D01*
X1210000D01*
X1200000Y5810000D01*
X1190000Y5820000D01*
X1180000D01*
Y5810000D01*
X1190000Y5800000D01*
X1180000Y5790000D01*
Y5780000D01*
X1188000Y5788000D02*
X1194000D01*
X1200000Y5794000D01*
X1206000Y5788000D01*
X1212000D01*
Y5794000D01*
X1206000Y5800000D01*
X1212000Y5806000D01*
Y5812000D01*
X1206000D01*
X1200000Y5806000D01*
X1194000Y5812000D01*
X1188000D01*
Y5806000D01*
X1194000Y5800000D01*
X1188000Y5794000D01*
Y5788000D01*
X5885512Y1161102D02*
X5895512D01*
X5905512Y1171102D01*
X5915512Y1161102D01*
X5925512D01*
Y1171102D01*
X5915512Y1181102D01*
X5925512Y1191102D01*
Y1201102D01*
X5915512D01*
X5905512Y1191102D01*
X5895512Y1201102D01*
X5885512D01*
Y1191102D01*
X5895512Y1181102D01*
X5885512Y1171102D01*
Y1161102D01*
X5893512Y1169102D02*
X5899512D01*
X5905512Y1175102D01*
X5911512Y1169102D01*
X5917512D01*
Y1175102D01*
X5911512Y1181102D01*
X5917512Y1187102D01*
Y1193102D01*
X5911512D01*
X5905512Y1187102D01*
X5899512Y1193102D01*
X5893512D01*
Y1187102D01*
X5899512Y1181102D01*
X5893512Y1175102D01*
Y1169102D01*
X2470315Y3952205D02*
Y3942205D01*
X2490315D01*
Y3952205D01*
X2500315D01*
Y3972205D01*
X2490315D01*
Y3982205D01*
X2470315D01*
Y3972205D01*
X2460315D01*
Y3952205D01*
X2470315D01*
X2474315Y3956205D02*
Y3950205D01*
X2486315D01*
Y3956205D01*
X2492315D01*
Y3968205D01*
X2486315D01*
Y3974205D01*
X2474315D01*
Y3968205D01*
X2468315D01*
Y3956205D01*
X2474315D01*
X2470315Y3852205D02*
Y3842205D01*
X2490315D01*
Y3852205D01*
X2500315D01*
Y3872205D01*
X2490315D01*
Y3882205D01*
X2470315D01*
Y3872205D01*
X2460315D01*
Y3852205D01*
X2470315D01*
X2474315Y3856205D02*
Y3850205D01*
X2486315D01*
Y3856205D01*
X2492315D01*
Y3868205D01*
X2486315D01*
Y3874205D01*
X2474315D01*
Y3868205D01*
X2468315D01*
Y3856205D01*
X2474315D01*
X2470315Y3752205D02*
Y3742205D01*
X2490315D01*
Y3752205D01*
X2500315D01*
Y3772205D01*
X2490315D01*
Y3782205D01*
X2470315D01*
Y3772205D01*
X2460315D01*
Y3752205D01*
X2470315D01*
X2474315Y3756205D02*
Y3750205D01*
X2486315D01*
Y3756205D01*
X2492315D01*
Y3768205D01*
X2486315D01*
Y3774205D01*
X2474315D01*
Y3768205D01*
X2468315D01*
Y3756205D01*
X2474315D01*
X3996063Y3858268D02*
Y3891590D01*
X4012724Y3908251D01*
X4029386Y3891590D01*
Y3858268D01*
Y3883260D01*
X3996063D01*
X5295276Y3858268D02*
Y3891590D01*
X5311937Y3908251D01*
X5328598Y3891590D01*
Y3858268D01*
Y3883260D01*
X5295276D01*
X3996063Y5748032D02*
Y5781354D01*
X4012724Y5798015D01*
X4029386Y5781354D01*
Y5748032D01*
Y5773023D01*
X3996063D01*
X5295276Y5748032D02*
Y5781354D01*
X5311937Y5798015D01*
X5328598Y5781354D01*
Y5748032D01*
Y5773023D01*
X5295276D01*
X1555118Y3503937D02*
Y3537260D01*
X1571779Y3553921D01*
X1588441Y3537260D01*
Y3503937D01*
Y3528929D01*
X1555118D01*
X2460630Y1220472D02*
Y1253795D01*
X2477291Y1270456D01*
X2493952Y1253795D01*
Y1220472D01*
Y1245464D01*
X2460630D01*
X1555118Y1220472D02*
Y1253795D01*
X1571779Y1270456D01*
X1588441Y1253795D01*
Y1220472D01*
Y1245464D01*
X1555118D01*
X5893559Y2925905D02*
X5885228Y2934236D01*
X5868567D01*
X5860236Y2925905D01*
Y2892583D01*
X5868567Y2884252D01*
X5885228D01*
X5893559Y2892583D01*
Y2905236D02*
X5885228Y2913566D01*
X5868567D01*
X5860236Y2905236D01*
Y2871913D01*
X5868567Y2863583D01*
X5885228D01*
X5893559Y2871913D01*
X3976378Y1911909D02*
Y1861925D01*
X4001370D01*
X4009701Y1870256D01*
Y1903578D01*
X4001370Y1911909D01*
X3976378D01*
X3948539Y1884070D02*
Y1834086D01*
X3973531D01*
X3981862Y1842417D01*
Y1875739D01*
X3973531Y1884070D01*
X3948539D01*
X3920700Y1856231D02*
Y1806247D01*
X3945692D01*
X3954023Y1814578D01*
Y1847900D01*
X3945692Y1856231D01*
X3920700D01*
X3948539Y1939748D02*
Y1889764D01*
X3973531D01*
X3981862Y1898094D01*
Y1931417D01*
X3973531Y1939748D01*
X3948539D01*
X3920700Y1911909D02*
Y1861925D01*
X3945692D01*
X3954023Y1870255D01*
Y1903578D01*
X3945692Y1911909D01*
X3920700D01*
X3892861Y1884070D02*
Y1834086D01*
X3917853D01*
X3926184Y1842417D01*
Y1875739D01*
X3917853Y1884070D01*
X3892861D01*
X3920700Y1967586D02*
Y1917603D01*
X3945692D01*
X3954023Y1925933D01*
Y1959256D01*
X3945692Y1967586D01*
X3920700D01*
X3892861Y1939748D02*
Y1889764D01*
X3917853D01*
X3926184Y1898094D01*
Y1931417D01*
X3917853Y1939748D01*
X3892861D01*
X3865023Y1911909D02*
Y1861925D01*
X3890015D01*
X3898345Y1870255D01*
Y1903578D01*
X3890015Y1911909D01*
X3865023D01*
X3892861Y1995425D02*
Y1945441D01*
X3917853D01*
X3926184Y1953772D01*
Y1987095D01*
X3917853Y1995425D01*
X3892861D01*
X3865023Y1967586D02*
Y1917603D01*
X3890015D01*
X3898345Y1925933D01*
Y1959256D01*
X3890015Y1967586D01*
X3865023D01*
X3837184Y1939748D02*
Y1889764D01*
X3862176D01*
X3870506Y1898094D01*
Y1931417D01*
X3862176Y1939748D01*
X3837184D01*
X4004217Y1884070D02*
Y1834086D01*
X4029209D01*
X4037539Y1842417D01*
Y1875739D01*
X4029209Y1884070D01*
X4004217D01*
X3976378Y1856231D02*
Y1806247D01*
X4001370D01*
X4009701Y1814578D01*
Y1847900D01*
X4001370Y1856231D01*
X3976378D01*
X3948539Y1828392D02*
Y1778408D01*
X3973531D01*
X3981862Y1786739D01*
Y1820062D01*
X3973531Y1828392D01*
X3948539D01*
X3976378Y1800553D02*
Y1750570D01*
X4001370D01*
X4009701Y1758900D01*
Y1792223D01*
X4001370Y1800553D01*
X3976378D01*
X4004217Y1828392D02*
Y1778408D01*
X4029209D01*
X4037539Y1786739D01*
Y1820062D01*
X4029209Y1828392D01*
X4004217D01*
X4032056Y1856231D02*
Y1806247D01*
X4057048D01*
X4065378Y1814578D01*
Y1847900D01*
X4057048Y1856231D01*
X4032056D01*
X3976378Y1967586D02*
Y1917603D01*
X4001370D01*
X4009701Y1925933D01*
Y1959256D01*
X4001370Y1967586D01*
X3976378D01*
X4004217Y1995425D02*
Y1945441D01*
X4029209D01*
X4037539Y1953772D01*
Y1987095D01*
X4029209Y1995425D01*
X4004217D01*
X4032056Y2023264D02*
Y1973280D01*
X4057048D01*
X4065378Y1981611D01*
Y2014934D01*
X4057048Y2023264D01*
X4032056D01*
X4004217Y1939748D02*
Y1889764D01*
X4029209D01*
X4037539Y1898094D01*
Y1931417D01*
X4029209Y1939748D01*
X4004217D01*
X4032056Y1967586D02*
Y1917603D01*
X4057048D01*
X4065378Y1925933D01*
Y1959256D01*
X4057048Y1967586D01*
X4032056D01*
X4059894Y1995425D02*
Y1945441D01*
X4084886D01*
X4093217Y1953772D01*
Y1987095D01*
X4084886Y1995425D01*
X4059894D01*
X4032056Y1911909D02*
Y1861925D01*
X4057048D01*
X4065378Y1870255D01*
Y1903578D01*
X4057048Y1911909D01*
X4032056D01*
X4059894Y1939748D02*
Y1889764D01*
X4084886D01*
X4093217Y1898094D01*
Y1931417D01*
X4084886Y1939748D01*
X4059894D01*
X4087733Y1967586D02*
Y1917603D01*
X4112725D01*
X4121056Y1925933D01*
Y1959256D01*
X4112725Y1967586D01*
X4087733D01*
X4059894Y1884070D02*
Y1834086D01*
X4084886D01*
X4093217Y1842417D01*
Y1875739D01*
X4084886Y1884070D01*
X4059894D01*
X4087733Y1911909D02*
Y1861925D01*
X4112725D01*
X4121056Y1870255D01*
Y1903578D01*
X4112725Y1911909D01*
X4087733D01*
X4115572Y1939748D02*
Y1889764D01*
X4140564D01*
X4148895Y1898094D01*
Y1931417D01*
X4140564Y1939748D01*
X4115572D01*
X3948539Y1995425D02*
Y1945441D01*
X3973531D01*
X3981862Y1953772D01*
Y1987095D01*
X3973531Y1995425D01*
X3948539D01*
X3976378Y2023264D02*
Y1973280D01*
X4001370D01*
X4009701Y1981611D01*
Y2014934D01*
X4001370Y2023264D01*
X3976378D01*
X4004217Y2051103D02*
Y2001119D01*
X4029209D01*
X4037539Y2009450D01*
Y2042772D01*
X4029209Y2051103D01*
X4004217D01*
X3976378Y2078942D02*
Y2028958D01*
X4001370D01*
X4009701Y2037289D01*
Y2070611D01*
X4001370Y2078942D01*
X3976378D01*
X3948539Y2051103D02*
Y2001119D01*
X3973531D01*
X3981862Y2009450D01*
Y2042772D01*
X3973531Y2051103D01*
X3948539D01*
X3920700Y2023264D02*
Y1973280D01*
X3945692D01*
X3954023Y1981611D01*
Y2014934D01*
X3945692Y2023264D01*
X3920700D01*
X4196261Y2077645D02*
X4187931Y2085975D01*
X4171270D01*
X4162939Y2077645D01*
Y2044322D01*
X4171270Y2035992D01*
X4187931D01*
X4196261Y2044322D01*
X4211543Y2062503D02*
X4203212Y2070834D01*
X4186551D01*
X4178220Y2062503D01*
Y2029180D01*
X4186551Y2020850D01*
X4203212D01*
X4211543Y2029180D01*
X3905323Y4637653D02*
X3896992Y4645984D01*
X3880331D01*
X3872000Y4637653D01*
Y4604331D01*
X3880331Y4596000D01*
X3896992D01*
X3905323Y4604331D01*
X3906323Y4660653D02*
X3897992Y4668984D01*
X3881331D01*
X3873000Y4660653D01*
Y4627331D01*
X3881331Y4619000D01*
X3897992D01*
X3906323Y4627331D01*
X5976881Y1745590D02*
X5968550Y1753921D01*
X5951889D01*
X5943558Y1745590D01*
Y1712268D01*
X5951889Y1703937D01*
X5968550D01*
X5976881Y1712268D01*
Y1723858D02*
X5968550Y1732188D01*
X5951889D01*
X5943558Y1723858D01*
Y1690535D01*
X5951889Y1682205D01*
X5968550D01*
X5976881Y1690535D01*
X5893559Y2335551D02*
X5885228Y2343881D01*
X5868567D01*
X5860236Y2335551D01*
Y2302228D01*
X5868567Y2293898D01*
X5885228D01*
X5893559Y2302228D01*
Y2314094D02*
X5885228Y2322425D01*
X5868567D01*
X5860236Y2314094D01*
Y2280771D01*
X5868567Y2272441D01*
X5885228D01*
X5893559Y2280771D01*
X5941653Y3062519D02*
X5933323Y3070850D01*
X5916661D01*
X5908331Y3062519D01*
Y3029197D01*
X5916661Y3020866D01*
X5933323D01*
X5941653Y3029197D01*
Y3083385D02*
X5933323Y3091716D01*
X5916661D01*
X5908331Y3083385D01*
Y3050063D01*
X5916661Y3041732D01*
X5933323D01*
X5941653Y3050063D01*
Y2472362D02*
X5933323Y2480693D01*
X5916661D01*
X5908331Y2472362D01*
Y2439039D01*
X5916661Y2430709D01*
X5933323D01*
X5941653Y2439039D01*
Y2493228D02*
X5933323Y2501559D01*
X5916661D01*
X5908331Y2493228D01*
Y2459905D01*
X5916661Y2451575D01*
X5933323D01*
X5941653Y2459905D01*
Y1902480D02*
X5933323Y1910811D01*
X5916661D01*
X5908331Y1902480D01*
Y1869157D01*
X5916661Y1860827D01*
X5933323D01*
X5941653Y1869157D01*
Y1881614D02*
X5933323Y1889944D01*
X5916661D01*
X5908331Y1881614D01*
Y1848291D01*
X5916661Y1839961D01*
X5933323D01*
X5941653Y1848291D01*
X5893559Y1723858D02*
X5885228Y1732188D01*
X5868567D01*
X5860236Y1723858D01*
Y1690535D01*
X5868567Y1682205D01*
X5885228D01*
X5893559Y1690535D01*
Y1745590D02*
X5885228Y1753921D01*
X5868567D01*
X5860236Y1745590D01*
Y1712268D01*
X5868567Y1703937D01*
X5885228D01*
X5893559Y1712268D01*
X5896323Y1802677D02*
X5887992Y1811007D01*
X5871331D01*
X5863000Y1802677D01*
Y1769354D01*
X5871331Y1761024D01*
X5887992D01*
X5896323Y1769354D01*
Y1824267D02*
X5887992Y1832598D01*
X5871331D01*
X5863000Y1824267D01*
Y1790945D01*
X5871331Y1782614D01*
X5887992D01*
X5896323Y1790945D01*
X5963323Y1803267D02*
X5954992Y1811598D01*
X5938331D01*
X5930000Y1803267D01*
Y1769945D01*
X5938331Y1761614D01*
X5954992D01*
X5963323Y1769945D01*
Y1824133D02*
X5954992Y1832464D01*
X5938331D01*
X5930000Y1824133D01*
Y1790811D01*
X5938331Y1782480D01*
X5954992D01*
X5963323Y1790811D01*
X5896323Y2393819D02*
X5887992Y2402149D01*
X5871331D01*
X5863000Y2393819D01*
Y2360496D01*
X5871331Y2352165D01*
X5887992D01*
X5896323Y2360496D01*
Y2414685D02*
X5887992Y2423015D01*
X5871331D01*
X5863000Y2414685D01*
Y2381362D01*
X5871331Y2373032D01*
X5887992D01*
X5896323Y2381362D01*
X5963323Y2393819D02*
X5954992Y2402149D01*
X5938331D01*
X5930000Y2393819D01*
Y2360496D01*
X5938331Y2352165D01*
X5954992D01*
X5963323Y2360496D01*
Y2414685D02*
X5954992Y2423015D01*
X5938331D01*
X5930000Y2414685D01*
Y2381362D01*
X5938331Y2373032D01*
X5954992D01*
X5963323Y2381362D01*
Y3006141D02*
X5954992Y3014472D01*
X5938331D01*
X5930000Y3006141D01*
Y2972819D01*
X5938331Y2964488D01*
X5954992D01*
X5963323Y2972819D01*
Y2985433D02*
X5954992Y2993763D01*
X5938331D01*
X5930000Y2985433D01*
Y2952110D01*
X5938331Y2943780D01*
X5954992D01*
X5963323Y2952110D01*
X5896323Y3006141D02*
X5887992Y3014472D01*
X5871331D01*
X5863000Y3006141D01*
Y2972819D01*
X5871331Y2964488D01*
X5887992D01*
X5896323Y2972819D01*
Y2985433D02*
X5887992Y2993763D01*
X5871331D01*
X5863000Y2985433D01*
Y2952110D01*
X5871331Y2943780D01*
X5887992D01*
X5896323Y2952110D01*
X5601323Y4262984D02*
X5568000D01*
Y4213000D01*
X5601323D01*
X5568000Y4237992D02*
X5584661D01*
X3228323Y5207984D02*
X3195000D01*
Y5158000D01*
X3228323D01*
X3195000Y5182992D02*
X3211661D01*
X3905200Y4686139D02*
X3896869Y4694470D01*
X3880207D01*
X3871877Y4686139D01*
Y4652816D01*
X3880207Y4644486D01*
X3896869D01*
X3905200Y4652816D01*
X3906970Y4611537D02*
X3898639Y4619867D01*
X3881978D01*
X3873648Y4611537D01*
Y4578214D01*
X3881978Y4569883D01*
X3898639D01*
X3906970Y4578214D01*
X3904781Y4573358D02*
X3896450Y4581689D01*
X3879789D01*
X3871458Y4573358D01*
Y4540036D01*
X3879789Y4531705D01*
X3896450D01*
X3904781Y4540036D01*
X2892323Y1515984D02*
X2859000D01*
Y1466000D01*
X2892323D01*
X2859000Y1490992D02*
X2875661D01*
X2823323Y1864984D02*
X2790000D01*
Y1815000D01*
X2823323D01*
X2790000Y1839992D02*
X2806661D01*
X2979323Y1523984D02*
X2946000D01*
Y1474000D01*
X2979323D01*
X2946000Y1498992D02*
X2962661D01*
X5675526Y2422952D02*
X5667195Y2431283D01*
X5650534D01*
X5642204Y2422952D01*
Y2389630D01*
X5650534Y2381299D01*
X5667195D01*
X5675526Y2389630D01*
Y2443819D02*
X5667195Y2452149D01*
X5650534D01*
X5642204Y2443819D01*
Y2410496D01*
X5650534Y2402165D01*
X5667195D01*
X5675526Y2410496D01*
X5662653Y1726299D02*
X5654323Y1734630D01*
X5637661D01*
X5629331Y1726299D01*
Y1692976D01*
X5637661Y1684646D01*
X5654323D01*
X5662653Y1692976D01*
X5648047Y1741456D02*
X5639716Y1749787D01*
X5623055D01*
X5614724Y1741456D01*
Y1708134D01*
X5623055Y1699803D01*
X5639716D01*
X5648047Y1708134D01*
X5662575Y2316929D02*
X5654244Y2325259D01*
X5637583D01*
X5629252Y2316929D01*
Y2283606D01*
X5637583Y2275276D01*
X5654244D01*
X5662575Y2283606D01*
X5648126Y2331929D02*
X5639795Y2340259D01*
X5623134D01*
X5614803Y2331929D01*
Y2298606D01*
X5623134Y2290276D01*
X5639795D01*
X5648126Y2298606D01*
X5702001Y1802283D02*
X5693670Y1810614D01*
X5677009D01*
X5668678Y1802283D01*
Y1768960D01*
X5677009Y1760630D01*
X5693670D01*
X5702001Y1768960D01*
Y1824330D02*
X5693670Y1832661D01*
X5677009D01*
X5668678Y1824330D01*
Y1791008D01*
X5677009Y1782677D01*
X5693670D01*
X5702001Y1791008D01*
Y2393622D02*
X5693670Y2401952D01*
X5677009D01*
X5668678Y2393622D01*
Y2360299D01*
X5677009Y2351968D01*
X5693670D01*
X5702001Y2360299D01*
Y2414488D02*
X5693670Y2422818D01*
X5677009D01*
X5668678Y2414488D01*
Y2381165D01*
X5677009Y2372835D01*
X5693670D01*
X5702001Y2381165D01*
X5893559Y1881614D02*
X5885228Y1889944D01*
X5868567D01*
X5860236Y1881614D01*
Y1848291D01*
X5868567Y1839961D01*
X5885228D01*
X5893559Y1848291D01*
Y1902480D02*
X5885228Y1910811D01*
X5868567D01*
X5860236Y1902480D01*
Y1869157D01*
X5868567Y1860827D01*
X5885228D01*
X5893559Y1869157D01*
Y2472362D02*
X5885228Y2480693D01*
X5868567D01*
X5860236Y2472362D01*
Y2439039D01*
X5868567Y2430709D01*
X5885228D01*
X5893559Y2439039D01*
Y2493228D02*
X5885228Y2501559D01*
X5868567D01*
X5860236Y2493228D01*
Y2459905D01*
X5868567Y2451575D01*
X5885228D01*
X5893559Y2459905D01*
X5976881Y2335551D02*
X5968550Y2343881D01*
X5951889D01*
X5943558Y2335551D01*
Y2302228D01*
X5951889Y2293898D01*
X5968550D01*
X5976881Y2302228D01*
Y2314094D02*
X5968550Y2322425D01*
X5951889D01*
X5943558Y2314094D01*
Y2280771D01*
X5951889Y2272441D01*
X5968550D01*
X5976881Y2280771D01*
X5673323Y1831417D02*
X5664992Y1839748D01*
X5648331D01*
X5640000Y1831417D01*
Y1798094D01*
X5648331Y1789764D01*
X5664992D01*
X5673323Y1798094D01*
X5674309Y1853858D02*
X5665978Y1862188D01*
X5649317D01*
X5640986Y1853858D01*
Y1820535D01*
X5649317Y1812205D01*
X5665978D01*
X5674309Y1820535D01*
X4253795Y1786338D02*
X4245464Y1794669D01*
X4228803D01*
X4220472Y1786338D01*
Y1753016D01*
X4228803Y1744685D01*
X4245464D01*
X4253795Y1753016D01*
Y1765669D02*
X4245464Y1773999D01*
X4228803D01*
X4220472Y1765669D01*
Y1732346D01*
X4228803Y1724016D01*
X4245464D01*
X4253795Y1732346D01*
X5702001Y3004448D02*
X5693670Y3012779D01*
X5677009D01*
X5668678Y3004448D01*
Y2971126D01*
X5677009Y2962795D01*
X5693670D01*
X5702001Y2971126D01*
Y2983582D02*
X5693670Y2991913D01*
X5677009D01*
X5668678Y2983582D01*
Y2950260D01*
X5677009Y2941929D01*
X5693670D01*
X5702001Y2950260D01*
X4105645Y2179960D02*
X4097315Y2188291D01*
X4080653D01*
X4072323Y2179960D01*
Y2146638D01*
X4080653Y2138307D01*
X4097315D01*
X4105645Y2146638D01*
X4092102Y2195669D02*
X4083771Y2203999D01*
X4067110D01*
X4058780Y2195669D01*
Y2162346D01*
X4067110Y2154016D01*
X4083771D01*
X4092102Y2162346D01*
X5976881Y2905236D02*
X5968550Y2913566D01*
X5951889D01*
X5943558Y2905236D01*
Y2871913D01*
X5951889Y2863583D01*
X5968550D01*
X5976881Y2871913D01*
Y2925905D02*
X5968550Y2934236D01*
X5951889D01*
X5943558Y2925905D01*
Y2892583D01*
X5951889Y2884252D01*
X5968550D01*
X5976881Y2892583D01*
X5893559Y3083385D02*
X5885228Y3091716D01*
X5868567D01*
X5860236Y3083385D01*
Y3050063D01*
X5868567Y3041732D01*
X5885228D01*
X5893559Y3050063D01*
Y3062519D02*
X5885228Y3070850D01*
X5868567D01*
X5860236Y3062519D01*
Y3029197D01*
X5868567Y3020866D01*
X5885228D01*
X5893559Y3029197D01*
X5648047Y2922559D02*
X5639716Y2930889D01*
X5623055D01*
X5614724Y2922559D01*
Y2889236D01*
X5623055Y2880905D01*
X5639716D01*
X5648047Y2889236D01*
X5662653Y2907401D02*
X5654323Y2915732D01*
X5637661D01*
X5629331Y2907401D01*
Y2874079D01*
X5637661Y2865748D01*
X5654323D01*
X5662653Y2874079D01*
X5675526Y3034763D02*
X5667195Y3043094D01*
X5650534D01*
X5642204Y3034763D01*
Y3001441D01*
X5650534Y2993110D01*
X5667195D01*
X5675526Y3001441D01*
Y3013897D02*
X5667195Y3022228D01*
X5650534D01*
X5642204Y3013897D01*
Y2980575D01*
X5650534Y2972244D01*
X5667195D01*
X5675526Y2980575D01*
X3705323Y1847984D02*
X3672000D01*
Y1798000D01*
X3705323D01*
X3672000Y1822992D02*
X3688661D01*
X2635323Y4798984D02*
X2602000D01*
Y4773992D01*
X2618661D01*
X2602000D01*
Y4749000D01*
X4279323Y1850984D02*
X4246000D01*
Y1801000D01*
X4279323D01*
X4246000Y1825992D02*
X4262661D01*
X5264323Y2973535D02*
X5231000D01*
Y2923551D01*
X5264323D01*
X5231000Y2948543D02*
X5247661D01*
X5264323Y2382984D02*
X5231000D01*
Y2333000D01*
X5264323D01*
X5231000Y2357992D02*
X5247661D01*
X3564819Y5518488D02*
X3531496D01*
Y5468504D01*
X3564819D01*
X3531496Y5493496D02*
X3548157D01*
X3218362Y5313763D02*
X3185039D01*
Y5263779D01*
X3218362D01*
X3185039Y5288771D02*
X3201701D01*
X3735094Y1872818D02*
X3701772D01*
Y1822835D01*
X3735094D01*
X3701772Y1847826D02*
X3718433D01*
X5348283Y4766519D02*
X5314961D01*
Y4716535D01*
X5348283D01*
X5314961Y4741527D02*
X5331622D01*
X5560882Y4388566D02*
X5527559D01*
Y4338583D01*
X5560882D01*
X5527559Y4363575D02*
X5544220D01*
X5938834Y1573606D02*
X5905512D01*
Y1523622D01*
X5938834D01*
X5905512Y1548614D02*
X5922173D01*
X5738047Y1652346D02*
X5704724D01*
Y1602362D01*
X5738047D01*
X5704724Y1627354D02*
X5721386D01*
X5789228Y1718819D02*
X5780897Y1727149D01*
X5764236D01*
X5755905Y1718819D01*
Y1685496D01*
X5764236Y1677165D01*
X5780897D01*
X5789228Y1685496D01*
X5820724Y1781811D02*
X5812394Y1790141D01*
X5795732D01*
X5787402Y1781811D01*
Y1748488D01*
X5795732Y1740158D01*
X5812394D01*
X5820724Y1748488D01*
X5100252Y3715338D02*
X5066929D01*
Y3665354D01*
X5100252D01*
X5066929Y3690346D02*
X5083590D01*
X4923086Y4081480D02*
X4889764D01*
Y4031496D01*
X4923086D01*
X4889764Y4056488D02*
X4906425D01*
X3915212Y4710944D02*
X3906882Y4719275D01*
X3890220D01*
X3881890Y4710944D01*
Y4677622D01*
X3890220Y4669291D01*
X3906882D01*
X3915212Y4677622D01*
X5482141Y3793622D02*
X5473811Y3801952D01*
X5457150D01*
X5448819Y3793622D01*
Y3760299D01*
X5457150Y3751968D01*
X5473811D01*
X5482141Y3760299D01*
Y3758189D02*
X5473811Y3766519D01*
X5457150D01*
X5448819Y3758189D01*
Y3724866D01*
X5457150Y3716535D01*
X5473811D01*
X5482141Y3724866D01*
Y3651889D02*
X5473811Y3660220D01*
X5457150D01*
X5448819Y3651889D01*
Y3618567D01*
X5457150Y3610236D01*
X5473811D01*
X5482141Y3618567D01*
Y3581023D02*
X5473811Y3589354D01*
X5457150D01*
X5448819Y3581023D01*
Y3547701D01*
X5457150Y3539370D01*
X5473811D01*
X5482141Y3547701D01*
Y3545590D02*
X5473811Y3553921D01*
X5457150D01*
X5448819Y3545590D01*
Y3512268D01*
X5457150Y3503937D01*
X5473811D01*
X5482141Y3512268D01*
X5741984Y1813307D02*
X5733653Y1821637D01*
X5716992D01*
X5708661Y1813307D01*
Y1779984D01*
X5716992Y1771653D01*
X5733653D01*
X5741984Y1779984D01*
Y2994409D02*
X5733653Y3002740D01*
X5716992D01*
X5708661Y2994409D01*
Y2961086D01*
X5716992Y2952756D01*
X5733653D01*
X5741984Y2961086D01*
Y2403858D02*
X5733653Y2412189D01*
X5716992D01*
X5708661Y2403858D01*
Y2370535D01*
X5716992Y2362205D01*
X5733653D01*
X5741984Y2370535D01*
Y5159763D02*
X5733653Y5168094D01*
X5716992D01*
X5708661Y5159763D01*
Y5126441D01*
X5716992Y5118110D01*
X5733653D01*
X5741984Y5126441D01*
X3915212Y5002740D02*
X3881890D01*
Y4952756D01*
X3915212D01*
X3881890Y4977748D02*
X3898551D01*
X3772496Y4587385D02*
X3739173D01*
Y4537402D01*
X3772496D01*
X3739173Y4562394D02*
X3755834D01*
X3608126Y4420062D02*
X3574803D01*
Y4370079D01*
X3608126D01*
X3574803Y4395071D02*
X3591464D01*
X4160456Y4472984D02*
X4127134D01*
Y4423000D01*
X4160456D01*
X4127134Y4447992D02*
X4143795D01*
X3860094Y4175968D02*
X3826772D01*
Y4125984D01*
X3860094D01*
X3826772Y4150976D02*
X3843433D01*
X4009701Y4443685D02*
X3976378D01*
Y4393701D01*
X4009701D01*
X3976378Y4418693D02*
X3993039D01*
X4419149Y1971244D02*
X4385827D01*
Y1921260D01*
X4419149D01*
X4385827Y1946252D02*
X4402488D01*
X5364031Y2345260D02*
X5330709D01*
Y2295276D01*
X5364031D01*
X5330709Y2320268D02*
X5347370D01*
X5364031Y2935811D02*
X5330709D01*
Y2885827D01*
X5364031D01*
X5330709Y2910819D02*
X5347370D01*
X5364031Y3179905D02*
X5330709D01*
Y3129921D01*
X5364031D01*
X5330709Y3154913D02*
X5347370D01*
X5364031Y2589354D02*
X5330709D01*
Y2539370D01*
X5364031D01*
X5330709Y2564362D02*
X5347370D01*
X5580567Y2116913D02*
X5547244D01*
Y2066929D01*
X5580567D01*
X5547244Y2091921D02*
X5563905D01*
X5005764Y2187779D02*
X4972441D01*
Y2137795D01*
X5005764D01*
X4972441Y2162787D02*
X4989102D01*
X5005764Y2778330D02*
X4972441D01*
Y2728347D01*
X5005764D01*
X4972441Y2753338D02*
X4989102D01*
X5580567Y2707464D02*
X5547244D01*
Y2657480D01*
X5580567D01*
X5547244Y2682472D02*
X5563905D01*
X4116000Y4388566D02*
X4082677D01*
Y4338583D01*
X4116000D01*
X4082677Y4363575D02*
X4099338D01*
X4356157Y4388566D02*
X4322835D01*
Y4338583D01*
X4356157D01*
X4322835Y4363575D02*
X4339496D01*
X4116000Y4451559D02*
X4082677D01*
Y4401575D01*
X4116000D01*
X4082677Y4426567D02*
X4099338D01*
X4222299Y4451559D02*
X4188976D01*
Y4401575D01*
X4222299D01*
X4188976Y4426567D02*
X4205638D01*
X2143559Y5522425D02*
X2110236D01*
Y5497433D01*
X2126898D01*
X2110236D01*
Y5472441D01*
X2143559Y5404315D02*
X2110236D01*
Y5379323D01*
X2126898D01*
X2110236D01*
Y5354331D01*
X4186866Y2431874D02*
X4153543D01*
Y2381890D01*
X4186866D01*
X4153543Y2406882D02*
X4170205D01*
X3665212Y2028330D02*
X3631890D01*
Y1978347D01*
X3665212D01*
X3631890Y2003338D02*
X3648551D01*
X3710488Y1967307D02*
X3677165D01*
Y1917323D01*
X3710488D01*
X3677165Y1942315D02*
X3693827D01*
X3761669Y1845259D02*
X3728347D01*
Y1795276D01*
X3761669D01*
X3728347Y1820267D02*
X3745008D01*
X3757401Y1812189D02*
X3724078D01*
Y1762205D01*
X3757401D01*
X3724078Y1787197D02*
X3740740D01*
X4100252Y1682937D02*
X4066929D01*
Y1632953D01*
X4100252D01*
X4066929Y1657945D02*
X4083590D01*
X4179323Y1783984D02*
X4146000D01*
Y1734000D01*
X4179323D01*
X4146000Y1758992D02*
X4162661D01*
X3868223Y2178128D02*
X3834900D01*
Y2128144D01*
X3868223D01*
X3834900Y2153136D02*
X3851561D01*
X3770787Y2080692D02*
X3737464D01*
Y2030708D01*
X3770787D01*
X3737464Y2055700D02*
X3754125D01*
X3729028Y2038934D02*
X3695706D01*
Y1988950D01*
X3729028D01*
X3695706Y2013942D02*
X3712367D01*
X4137259Y1687448D02*
X4103936D01*
Y1637464D01*
X4137259D01*
X4103936Y1662456D02*
X4120598D01*
X4248081Y2081226D02*
X4214758D01*
Y2031242D01*
X4248081D01*
X4214758Y2056234D02*
X4231420D01*
X4094967Y2234339D02*
X4061645D01*
Y2184355D01*
X4094967D01*
X4061645Y2209347D02*
X4078306D01*
X4136725Y2192581D02*
X4103403D01*
Y2142597D01*
X4136725D01*
X4103403Y2167589D02*
X4120064D01*
X4206323Y2122984D02*
X4173000D01*
Y2073000D01*
X4206323D01*
X4173000Y2097992D02*
X4189661D01*
X5821323Y2974086D02*
X5788000D01*
Y2924102D01*
X5821323D01*
X5788000Y2949094D02*
X5804661D01*
X6008323Y3032086D02*
X5975000D01*
Y2982102D01*
X6008323D01*
X5975000Y3007094D02*
X5991661D01*
X5497323Y3032535D02*
X5464000D01*
Y2982551D01*
X5497323D01*
X5464000Y3007543D02*
X5480661D01*
X5497323Y2441984D02*
X5464000D01*
Y2392000D01*
X5497323D01*
X5464000Y2416992D02*
X5480661D01*
X5938834Y1813307D02*
X5930504Y1821637D01*
X5913842D01*
X5905512Y1813307D01*
Y1779984D01*
X5913842Y1771653D01*
X5930504D01*
X5938834Y1779984D01*
Y1799527D02*
X5930504Y1807858D01*
X5913842D01*
X5905512Y1799527D01*
Y1766205D01*
X5913842Y1757874D01*
X5930504D01*
X5938834Y1766205D01*
Y1827086D02*
X5930504Y1835417D01*
X5913842D01*
X5905512Y1827086D01*
Y1793764D01*
X5913842Y1785433D01*
X5930504D01*
X5938834Y1793764D01*
Y2994409D02*
X5930504Y3002740D01*
X5913842D01*
X5905512Y2994409D01*
Y2961086D01*
X5913842Y2952756D01*
X5930504D01*
X5938834Y2961086D01*
Y2980630D02*
X5930504Y2988960D01*
X5913842D01*
X5905512Y2980630D01*
Y2947307D01*
X5913842Y2938976D01*
X5930504D01*
X5938834Y2947307D01*
Y3008189D02*
X5930504Y3016519D01*
X5913842D01*
X5905512Y3008189D01*
Y2974866D01*
X5913842Y2966535D01*
X5930504D01*
X5938834Y2974866D01*
Y2417637D02*
X5930504Y2425968D01*
X5913842D01*
X5905512Y2417637D01*
Y2384315D01*
X5913842Y2375984D01*
X5930504D01*
X5938834Y2384315D01*
Y2390078D02*
X5930504Y2398409D01*
X5913842D01*
X5905512Y2390078D01*
Y2356756D01*
X5913842Y2348425D01*
X5930504D01*
X5938834Y2356756D01*
Y2403858D02*
X5930504Y2412189D01*
X5913842D01*
X5905512Y2403858D01*
Y2370535D01*
X5913842Y2362205D01*
X5930504D01*
X5938834Y2370535D01*
X4125379Y4556213D02*
X4092056D01*
Y4506229D01*
X4125379D01*
X4092056Y4531221D02*
X4108717D01*
X4124736Y4519397D02*
X4091413D01*
Y4469413D01*
X4124736D01*
X4091413Y4494405D02*
X4108075D01*
X4010323Y4561984D02*
X3977000D01*
Y4512000D01*
X4010323D01*
X3977000Y4536992D02*
X3993661D01*
X4009323Y5017984D02*
X3976000D01*
Y4968000D01*
X4009323D01*
X3976000Y4992992D02*
X3992661D01*
X6008323Y2441535D02*
X5975000D01*
Y2391551D01*
X6008323D01*
X5975000Y2416543D02*
X5991661D01*
X5821323Y2383535D02*
X5788000D01*
Y2333551D01*
X5821323D01*
X5788000Y2358543D02*
X5804661D01*
D195*
X6059370Y5339370D02*
G03*
X6059370Y5339370I-20000J0D01*
G01*
Y4896850D02*
G03*
X6059370Y4896850I-20000J0D01*
G01*
X1260158Y5393701D02*
G03*
X1260158Y5393701I-20000J0D01*
G01*
D196*
X1252158D02*
G03*
X1252158Y5393701I-12000J0D01*
G01*
%TF.MD5,074b897d7ca7a6b6bb42e2e190a21d31*%
M02*
