%TF.GenerationSoftware,Altium Limited,Altium Designer,22.5.1 (42)*%
G04 Layer_Color=2752767*
%FSLAX26Y26*%
%MOIN*%
%TF.SameCoordinates,79F18A81-A5BF-4171-AD75-6FA3A7A6B408*%
%TF.FilePolarity,Positive*%
%TF.FileFunction,Drawing*%
%TF.Part,Single*%
G01*
G75*
%TA.AperFunction,NonConductor*%
%ADD175C,0.006667*%
%ADD176C,0.004000*%
D175*
X7821181Y11160433D02*
G03*
X7821181Y11160433I-20000J0D01*
G01*
X7209961Y8513779D02*
G03*
X7209961Y8513779I-20000J0D01*
G01*
Y8533465D02*
G03*
X7209961Y8533465I-20000J0D01*
G01*
Y8553149D02*
G03*
X7209961Y8553149I-20000J0D01*
G01*
Y8572835D02*
G03*
X7209961Y8572835I-20000J0D01*
G01*
X8660184Y7220053D02*
G03*
X8660184Y7220053I-20000J0D01*
G01*
X7754672D02*
G03*
X7754672Y7220053I-20000J0D01*
G01*
X7201595Y5688976D02*
G03*
X7201595Y5688976I-20000J0D01*
G01*
X7217343D02*
G03*
X7217343Y5688976I-20000J0D01*
G01*
X7634666D02*
G03*
X7634666Y5688976I-20000J0D01*
G01*
X7650413D02*
G03*
X7650413Y5688976I-20000J0D01*
G01*
X8107106D02*
G03*
X8107106Y5688976I-20000J0D01*
G01*
X8122854D02*
G03*
X8122854Y5688976I-20000J0D01*
G01*
X7418622Y5965551D02*
G03*
X7418622Y5965551I-20000J0D01*
G01*
X7402874D02*
G03*
X7402874Y5965551I-20000J0D01*
G01*
X7851693D02*
G03*
X7851693Y5965551I-20000J0D01*
G01*
X7835945D02*
G03*
X7835945Y5965551I-20000J0D01*
G01*
X8308386D02*
G03*
X8308386Y5965551I-20000J0D01*
G01*
X8324134D02*
G03*
X8324134Y5965551I-20000J0D01*
G01*
X8555925Y5688976D02*
G03*
X8555925Y5688976I-20000J0D01*
G01*
X8540177D02*
G03*
X8540177Y5688976I-20000J0D01*
G01*
X8757205Y5965551D02*
G03*
X8757205Y5965551I-20000J0D01*
G01*
X8741457D02*
G03*
X8741457Y5965551I-20000J0D01*
G01*
X8836929Y5395669D02*
G03*
X8836929Y5395669I-20000J0D01*
G01*
X8819016D02*
G03*
X8819016Y5395669I-20000J0D01*
G01*
X8873248D02*
G03*
X8873248Y5395669I-20000J0D01*
G01*
X8891162D02*
G03*
X8891162Y5395669I-20000J0D01*
G01*
X8403858D02*
G03*
X8403858Y5395669I-20000J0D01*
G01*
X8385945D02*
G03*
X8385945Y5395669I-20000J0D01*
G01*
X8440177D02*
G03*
X8440177Y5395669I-20000J0D01*
G01*
X8458091D02*
G03*
X8458091Y5395669I-20000J0D01*
G01*
X7931417D02*
G03*
X7931417Y5395669I-20000J0D01*
G01*
X7913504D02*
G03*
X7913504Y5395669I-20000J0D01*
G01*
X7967736D02*
G03*
X7967736Y5395669I-20000J0D01*
G01*
X7985650D02*
G03*
X7985650Y5395669I-20000J0D01*
G01*
X7552579D02*
G03*
X7552579Y5395669I-20000J0D01*
G01*
X7534665D02*
G03*
X7534665Y5395669I-20000J0D01*
G01*
X7480433D02*
G03*
X7480433Y5395669I-20000J0D01*
G01*
X7498346D02*
G03*
X7498346Y5395669I-20000J0D01*
G01*
D176*
X7813181Y11160433D02*
G03*
X7813181Y11160433I-12000J0D01*
G01*
X7201961Y8513779D02*
G03*
X7201961Y8513779I-12000J0D01*
G01*
Y8533465D02*
G03*
X7201961Y8533465I-12000J0D01*
G01*
Y8553149D02*
G03*
X7201961Y8553149I-12000J0D01*
G01*
Y8572835D02*
G03*
X7201961Y8572835I-12000J0D01*
G01*
X8652184Y7220053D02*
G03*
X8652184Y7220053I-12000J0D01*
G01*
X7746672D02*
G03*
X7746672Y7220053I-12000J0D01*
G01*
X7193595Y5688976D02*
G03*
X7193595Y5688976I-12000J0D01*
G01*
X7209343D02*
G03*
X7209343Y5688976I-12000J0D01*
G01*
X7626666D02*
G03*
X7626666Y5688976I-12000J0D01*
G01*
X7642413D02*
G03*
X7642413Y5688976I-12000J0D01*
G01*
X8099106D02*
G03*
X8099106Y5688976I-12000J0D01*
G01*
X8114854D02*
G03*
X8114854Y5688976I-12000J0D01*
G01*
X7410622Y5965551D02*
G03*
X7410622Y5965551I-12000J0D01*
G01*
X7394874D02*
G03*
X7394874Y5965551I-12000J0D01*
G01*
X7843693D02*
G03*
X7843693Y5965551I-12000J0D01*
G01*
X7827945D02*
G03*
X7827945Y5965551I-12000J0D01*
G01*
X8300386D02*
G03*
X8300386Y5965551I-12000J0D01*
G01*
X8316134D02*
G03*
X8316134Y5965551I-12000J0D01*
G01*
X8547925Y5688976D02*
G03*
X8547925Y5688976I-12000J0D01*
G01*
X8532177D02*
G03*
X8532177Y5688976I-12000J0D01*
G01*
X8749205Y5965551D02*
G03*
X8749205Y5965551I-12000J0D01*
G01*
X8733457D02*
G03*
X8733457Y5965551I-12000J0D01*
G01*
X8828929Y5395669D02*
G03*
X8828929Y5395669I-12000J0D01*
G01*
X8811016D02*
G03*
X8811016Y5395669I-12000J0D01*
G01*
X8865248D02*
G03*
X8865248Y5395669I-12000J0D01*
G01*
X8883162D02*
G03*
X8883162Y5395669I-12000J0D01*
G01*
X8395858D02*
G03*
X8395858Y5395669I-12000J0D01*
G01*
X8377945D02*
G03*
X8377945Y5395669I-12000J0D01*
G01*
X8432177D02*
G03*
X8432177Y5395669I-12000J0D01*
G01*
X8450091D02*
G03*
X8450091Y5395669I-12000J0D01*
G01*
X7923417D02*
G03*
X7923417Y5395669I-12000J0D01*
G01*
X7905504D02*
G03*
X7905504Y5395669I-12000J0D01*
G01*
X7959736D02*
G03*
X7959736Y5395669I-12000J0D01*
G01*
X7977650D02*
G03*
X7977650Y5395669I-12000J0D01*
G01*
X7544579D02*
G03*
X7544579Y5395669I-12000J0D01*
G01*
X7526665D02*
G03*
X7526665Y5395669I-12000J0D01*
G01*
X7472433D02*
G03*
X7472433Y5395669I-12000J0D01*
G01*
X7490346D02*
G03*
X7490346Y5395669I-12000J0D01*
G01*
%TF.MD5,7ba637bd07bf9c2dab5f0689654bf1ec*%
M02*
