%TF.GenerationSoftware,Altium Limited,Altium Designer,22.5.1 (42)*%
G04 Layer_Color=0*
%FSLAX26Y26*%
%MOIN*%
%TF.SameCoordinates,79F18A81-A5BF-4171-AD75-6FA3A7A6B408*%
%TF.FilePolarity,Positive*%
%TF.FileFunction,NonPlated,1,8,NPTH,Drill*%
%TF.Part,Single*%
G01*
G75*
%TA.AperFunction,ComponentDrill*%
%ADD157C,0.025984*%
%ADD158O,0.039370X0.022835*%
%ADD159C,0.029528*%
D157*
X7923228Y10866142D02*
D03*
Y10275591D02*
D03*
Y9685039D02*
D03*
Y9094488D02*
D03*
D158*
X8218504Y10866142D02*
D03*
Y10275591D02*
D03*
Y9685039D02*
D03*
Y9094488D02*
D03*
D159*
X7438189Y4913779D02*
D03*
X7364961Y4613779D02*
D03*
X8343701Y4323228D02*
D03*
X8270472Y4023228D02*
D03*
X8776772Y4913779D02*
D03*
X8703543Y4613779D02*
D03*
X8343701Y4913779D02*
D03*
X8270472Y4613779D02*
D03*
X8776772Y4323228D02*
D03*
X8703543Y4023228D02*
D03*
X7871260Y4323228D02*
D03*
X7798032Y4023228D02*
D03*
X7871260Y4913779D02*
D03*
X7798032Y4613779D02*
D03*
X7438189Y4323228D02*
D03*
X7364961Y4023228D02*
D03*
%TF.MD5,9ea54905fd3b34702a191556868d3178*%
M02*
