%TF.GenerationSoftware,Altium Limited,Altium Designer,22.5.1 (42)*%
G04 Layer_Color=128*
%FSLAX26Y26*%
%MOIN*%
%TF.SameCoordinates,79F18A81-A5BF-4171-AD75-6FA3A7A6B408*%
%TF.FilePolarity,Positive*%
%TF.FileFunction,Drillmap*%
%TF.Part,Single*%
G01*
G75*
%TA.AperFunction,NonConductor*%
%ADD174C,0.005000*%
D174*
X6962598Y4855315D02*
X6974409D01*
X6968504Y4849409D02*
Y4861221D01*
X10434055Y4441929D02*
X10437992D01*
X10436024Y4439961D02*
Y4443898D01*
X10466535Y4454646D02*
X10470472D01*
X10468504Y4452677D02*
Y4456614D01*
X8783465Y5346457D02*
X8787402D01*
X8785433Y5344488D02*
Y5348425D01*
X8350394Y5346457D02*
X8354331D01*
X8352362Y5344488D02*
Y5348425D01*
X7444882Y5346457D02*
X7448819D01*
X7446851Y5344488D02*
Y5348425D01*
X7877953Y5346457D02*
X7881890D01*
X7879921Y5344488D02*
Y5348425D01*
X9150591Y3716535D02*
X9156496D01*
X9153543Y3713583D02*
Y3719488D01*
X8796260Y3716535D02*
X8802165D01*
X8799213Y3713583D02*
Y3719488D01*
X9150591Y3787402D02*
X9156496D01*
X9153543Y3784449D02*
Y3790354D01*
X9150591Y3683071D02*
X9156496D01*
X9153543Y3680118D02*
Y3686024D01*
X9150591Y3753937D02*
X9156496D01*
X9153543Y3750984D02*
Y3756890D01*
X8796260Y3753937D02*
X8802165D01*
X8799213Y3750984D02*
Y3756890D01*
X8796260Y3683071D02*
X8802165D01*
X8799213Y3680118D02*
Y3686024D01*
X8796260Y3787402D02*
X8802165D01*
X8799213Y3784449D02*
Y3790354D01*
X8076772Y8836614D02*
X8080709D01*
X8078740Y8834646D02*
Y8838583D01*
X8061024Y8836614D02*
X8064961D01*
X8062992Y8834646D02*
Y8838583D01*
X8078740Y9061811D02*
X8082677D01*
X8080709Y9059843D02*
Y9063780D01*
X8059055Y9061811D02*
X8062992D01*
X8061024Y9059843D02*
Y9063780D01*
X8078740Y9127165D02*
X8082677D01*
X8080709Y9125197D02*
Y9129134D01*
X8059055Y9127165D02*
X8062992D01*
X8061024Y9125197D02*
Y9129134D01*
X8021653Y8398622D02*
X8025590D01*
X8023622Y8396654D02*
Y8400591D01*
X8005905Y8398622D02*
X8009842D01*
X8007874Y8396654D02*
Y8400591D01*
X8131890Y8398622D02*
X8135827D01*
X8133858Y8396654D02*
Y8400591D01*
X8116142Y8398622D02*
X8120079D01*
X8118110Y8396654D02*
Y8400591D01*
X7633858Y8555118D02*
X7637795D01*
X7635827Y8553150D02*
Y8557087D01*
X7633858Y8570866D02*
X7637795D01*
X7635827Y8568898D02*
Y8572835D01*
X7508858Y8911417D02*
X7512795D01*
X7510827Y8909449D02*
Y8913386D01*
X7508858Y8895669D02*
X7512795D01*
X7510827Y8893701D02*
Y8897638D01*
X7264764Y9969488D02*
X7268701D01*
X7266732Y9967520D02*
Y9971457D01*
X7264764Y9953740D02*
X7268701D01*
X7266732Y9951772D02*
Y9955709D01*
X7182087Y9969488D02*
X7186024D01*
X7184055Y9967520D02*
Y9971457D01*
X7182087Y9953740D02*
X7186024D01*
X7184055Y9951772D02*
Y9955709D01*
X8184055Y8868110D02*
X8187992D01*
X8186023Y8866142D02*
Y8870079D01*
X8168307Y8868110D02*
X8172244D01*
X8170275Y8866142D02*
Y8870079D01*
X8000000Y9127165D02*
X8003937D01*
X8001968Y9125197D02*
Y9129134D01*
X7980315Y9127165D02*
X7984252D01*
X7982283Y9125197D02*
Y9129134D01*
X8157480Y9127165D02*
X8161417D01*
X8159449Y9125197D02*
Y9129134D01*
X8137795Y9127165D02*
X8141732D01*
X8139764Y9125197D02*
Y9129134D01*
X7969488Y8868110D02*
X7973425D01*
X7971457Y8866142D02*
Y8870079D01*
X7953740Y8868110D02*
X7957677D01*
X7955709Y8866142D02*
Y8870079D01*
X8020669Y9307087D02*
X8024606D01*
X8022638Y9305118D02*
Y9309055D01*
X8020669Y9291339D02*
X8024606D01*
X8022638Y9289370D02*
Y9293307D01*
X7827756Y9445374D02*
X7831693D01*
X7829724Y9443406D02*
Y9447343D01*
X7827756Y9429626D02*
X7831693D01*
X7829724Y9427657D02*
Y9431594D01*
X8137795Y9717717D02*
X8141732D01*
X8139764Y9715748D02*
Y9719685D01*
X8157480Y9717717D02*
X8161417D01*
X8159449Y9715748D02*
Y9719685D01*
X7980315Y9717717D02*
X7984252D01*
X7982283Y9715748D02*
Y9719685D01*
X8000000Y9717717D02*
X8003937D01*
X8001968Y9715748D02*
Y9719685D01*
X8137795Y10898819D02*
X8141732D01*
X8139764Y10896850D02*
Y10900787D01*
X8157480Y10898819D02*
X8161417D01*
X8159449Y10896850D02*
Y10900787D01*
X7955709Y10473917D02*
X7959646D01*
X7957677Y10471949D02*
Y10475886D01*
X7955709Y10489665D02*
X7959646D01*
X7957677Y10487697D02*
Y10491634D01*
X7940945Y10644685D02*
X7944882D01*
X7942913Y10642717D02*
Y10646654D01*
X7940945Y10660433D02*
X7944882D01*
X7942913Y10658465D02*
Y10662401D01*
X7980315Y10898819D02*
X7984252D01*
X7982283Y10896850D02*
Y10900787D01*
X8000000Y10898819D02*
X8003937D01*
X8001968Y10896850D02*
Y10900787D01*
X8000000Y10308268D02*
X8003937D01*
X8001968Y10306299D02*
Y10310236D01*
X7980315Y10308268D02*
X7984252D01*
X7982283Y10306299D02*
Y10310236D01*
X7940945Y10069882D02*
X7944882D01*
X7942913Y10067913D02*
Y10071850D01*
X7940945Y10054134D02*
X7944882D01*
X7942913Y10052165D02*
Y10056102D01*
X7955709Y9899114D02*
X7959646D01*
X7957677Y9897146D02*
Y9901083D01*
X7955709Y9883366D02*
X7959646D01*
X7957677Y9881398D02*
Y9885335D01*
X8157480Y10308268D02*
X8161417D01*
X8159449Y10306299D02*
Y10310236D01*
X8137795Y10308268D02*
X8141732D01*
X8139764Y10306299D02*
Y10310236D01*
X7315453Y9370079D02*
X7319390D01*
X7317421Y9368110D02*
Y9372047D01*
X7299705Y9370079D02*
X7303642D01*
X7301673Y9368110D02*
Y9372047D01*
X7212106Y9153543D02*
X7216043D01*
X7214075Y9151575D02*
Y9155512D01*
X7196358Y9153543D02*
X7200295D01*
X7198327Y9151575D02*
Y9155512D01*
X8061024Y9496063D02*
X8064961D01*
X8062992Y9494095D02*
Y9498032D01*
X8076772Y9496063D02*
X8080709D01*
X8078740Y9494095D02*
Y9498032D01*
X8061024Y10086614D02*
X8064961D01*
X8062992Y10084646D02*
Y10088583D01*
X8076772Y10086614D02*
X8080709D01*
X8078740Y10084646D02*
Y10088583D01*
X8076772Y10677165D02*
X8080709D01*
X8078740Y10675197D02*
Y10679134D01*
X8061024Y10677165D02*
X8064961D01*
X8062992Y10675197D02*
Y10679134D01*
X963583Y4695866D02*
X967520D01*
X965551Y4693898D02*
Y4697835D01*
X8059055Y9717717D02*
X8062992D01*
X8061024Y9715748D02*
Y9719685D01*
X8078740Y9717717D02*
X8082677D01*
X8080709Y9715748D02*
Y9719685D01*
X8059055Y9652362D02*
X8062992D01*
X8061024Y9650394D02*
Y9654331D01*
X8078740Y9652362D02*
X8082677D01*
X8080709Y9650394D02*
Y9654331D01*
X8059055Y10308268D02*
X8062992D01*
X8061024Y10306299D02*
Y10310236D01*
X8078740Y10308268D02*
X8082677D01*
X8080709Y10306299D02*
Y10310236D01*
X8059055Y10242913D02*
X8062992D01*
X8061024Y10240945D02*
Y10244882D01*
X8078740Y10242913D02*
X8082677D01*
X8080709Y10240945D02*
Y10244882D01*
X7529528Y8771654D02*
X7533465D01*
X7531496Y8769685D02*
Y8773622D01*
X7545276Y8771654D02*
X7549213D01*
X7547244Y8769685D02*
Y8773622D01*
X7407480Y8770669D02*
X7411417D01*
X7409449Y8768701D02*
Y8772638D01*
X7391732Y8770669D02*
X7395669D01*
X7393701Y8768701D02*
Y8772638D01*
X8078740Y10833465D02*
X8082677D01*
X8080709Y10831496D02*
Y10835433D01*
X8059055Y10833465D02*
X8062992D01*
X8061024Y10831496D02*
Y10835433D01*
X8078740Y10898819D02*
X8082677D01*
X8080709Y10896850D02*
Y10900787D01*
X8059055Y10898819D02*
X8062992D01*
X8061024Y10896850D02*
Y10900787D01*
X7768209Y8658465D02*
X7772146D01*
X7770177Y8656496D02*
Y8660433D01*
X7752461Y8658465D02*
X7756398D01*
X7754429Y8656496D02*
Y8660433D01*
X8624296Y7233972D02*
X8628233D01*
X8626264Y7232004D02*
Y7235941D01*
X8610376Y7247891D02*
X8614313D01*
X8612345Y7245923D02*
Y7249860D01*
X8596457Y7261811D02*
X8600394D01*
X8598425Y7259842D02*
Y7263779D01*
X7718784Y7233972D02*
X7722721D01*
X7720752Y7232004D02*
Y7235941D01*
X7704864Y7247891D02*
X7708801D01*
X7706833Y7245923D02*
Y7249860D01*
X7690945Y7261811D02*
X7694882D01*
X7692913Y7259842D02*
Y7263779D01*
X14110236Y4133858D02*
X14118110D01*
X14114173Y4129921D02*
Y4137795D01*
X14377953Y3562992D02*
X14389764D01*
X14383858Y3557087D02*
Y3568898D01*
X13393701Y4389763D02*
X13405512D01*
X13399606Y4383858D02*
Y4395669D01*
X13393701Y3562992D02*
X13405512D01*
X13399606Y3557086D02*
Y3568897D01*
X12141732Y3710630D02*
X12149606D01*
X12145669Y3706693D02*
Y3714567D01*
X6563976Y4677165D02*
X6567913D01*
X6565945Y4675197D02*
Y4679134D01*
X6563976Y4564961D02*
X6567913D01*
X6565945Y4562992D02*
Y4566929D01*
X8760827Y5502854D02*
X8764764D01*
X8762795Y5500886D02*
Y5504823D01*
X8760827Y5520768D02*
X8764764D01*
X8762795Y5518799D02*
Y5522736D01*
X8912402Y5520768D02*
X8916339D01*
X8914370Y5518799D02*
Y5522736D01*
X8912402Y5502854D02*
X8916339D01*
X8914370Y5500886D02*
Y5504823D01*
X8327756Y5502854D02*
X8331693D01*
X8329724Y5500886D02*
Y5504823D01*
X8327756Y5520768D02*
X8331693D01*
X8329724Y5518799D02*
Y5522736D01*
X8479331Y5520768D02*
X8483268D01*
X8481299Y5518799D02*
Y5522736D01*
X8479331Y5502854D02*
X8483268D01*
X8481299Y5500886D02*
Y5504823D01*
X7855315Y5502854D02*
X7859252D01*
X7857283Y5500886D02*
Y5504823D01*
X7855315Y5520768D02*
X7859252D01*
X7857283Y5518799D02*
Y5522736D01*
X8006890Y5520768D02*
X8010827D01*
X8008858Y5518799D02*
Y5522736D01*
X8006890Y5502854D02*
X8010827D01*
X8008858Y5500886D02*
Y5504823D01*
X7573819Y5502854D02*
X7577756D01*
X7575787Y5500886D02*
Y5504823D01*
X7573819Y5520768D02*
X7577756D01*
X7575787Y5518799D02*
Y5522736D01*
X7422244Y5520768D02*
X7426181D01*
X7424213Y5518799D02*
Y5522736D01*
X7422244Y5502854D02*
X7426181D01*
X7424213Y5500886D02*
Y5504823D01*
X8804035Y5574803D02*
X8807972D01*
X8806004Y5572835D02*
Y5576772D01*
X8821949Y5574803D02*
X8825886D01*
X8823917Y5572835D02*
Y5576772D01*
X8857185Y5666339D02*
X8861122D01*
X8859154Y5664370D02*
Y5668307D01*
X8875099Y5666339D02*
X8879036D01*
X8877067Y5664370D02*
Y5668307D01*
X8370965Y5574803D02*
X8374901D01*
X8372933Y5572835D02*
Y5576772D01*
X8388878Y5574803D02*
X8392815D01*
X8390846Y5572835D02*
Y5576772D01*
X8424114Y5666339D02*
X8428051D01*
X8426083Y5664370D02*
Y5668307D01*
X8442028Y5666339D02*
X8445965D01*
X8443996Y5664370D02*
Y5668307D01*
X7898523Y5574803D02*
X7902460D01*
X7900492Y5572835D02*
Y5576772D01*
X7916437Y5574803D02*
X7920374D01*
X7918405Y5572835D02*
Y5576772D01*
X7951673Y5666339D02*
X7955610D01*
X7953642Y5664370D02*
Y5668307D01*
X7969587Y5666339D02*
X7973524D01*
X7971555Y5664370D02*
Y5668307D01*
X7536516Y5666339D02*
X7540453D01*
X7538484Y5664370D02*
Y5668307D01*
X7518602Y5666339D02*
X7522539D01*
X7520571Y5664370D02*
Y5668307D01*
X7483366Y5574803D02*
X7487303D01*
X7485335Y5572835D02*
Y5576772D01*
X7465453Y5574803D02*
X7469390D01*
X7467421Y5572835D02*
Y5576772D01*
%TF.MD5,52314efc62a1a8187ceb1e7d851de06f*%
M02*
