%TF.GenerationSoftware,Altium Limited,Altium Designer,22.5.1 (42)*%
G04 Layer_Color=0*
%FSLAX26Y26*%
%MOIN*%
%TF.SameCoordinates,79F18A81-A5BF-4171-AD75-6FA3A7A6B408*%
%TF.FilePolarity,Positive*%
%TF.FileFunction,Plated,3,8,Blind,Drill*%
%TF.Part,Single*%
G01*
G75*
%TA.AperFunction,ViaDrill,NotFilled*%
%ADD167C,0.003937*%
%ADD169C,0.007874*%
%ADD171C,0.005906*%
D167*
X9542323Y4173228D02*
D03*
X9500984D02*
D03*
X9521654D02*
D03*
X9480315D02*
D03*
X8703740Y4734252D02*
D03*
X8270669D02*
D03*
X7798228D02*
D03*
X7365158D02*
D03*
X8215551Y8500984D02*
D03*
X8199803D02*
D03*
X8041339Y8280512D02*
D03*
X8021654D02*
D03*
X8001969D02*
D03*
X8776575Y4104331D02*
D03*
Y4084646D02*
D03*
Y4261811D02*
D03*
Y4242126D02*
D03*
X8850394Y4281848D02*
D03*
Y4299761D02*
D03*
X8916339Y4281848D02*
D03*
Y4299761D02*
D03*
X8343504Y4104331D02*
D03*
Y4084646D02*
D03*
Y4261811D02*
D03*
Y4242126D02*
D03*
X8417323Y4281848D02*
D03*
Y4299761D02*
D03*
X8483268Y4281848D02*
D03*
Y4299761D02*
D03*
X7871063Y4104331D02*
D03*
Y4084646D02*
D03*
Y4261811D02*
D03*
Y4242126D02*
D03*
X7944882Y4281848D02*
D03*
Y4299761D02*
D03*
X8010827Y4281848D02*
D03*
Y4299761D02*
D03*
X7577756D02*
D03*
Y4281848D02*
D03*
X7511811Y4299761D02*
D03*
Y4281848D02*
D03*
X7437992Y4242126D02*
D03*
Y4261811D02*
D03*
Y4084646D02*
D03*
Y4104331D02*
D03*
X8703740Y4832677D02*
D03*
Y4852362D02*
D03*
Y4675197D02*
D03*
Y4694882D02*
D03*
X8589469Y5395669D02*
D03*
X8607382D02*
D03*
X8643701D02*
D03*
X8661614D02*
D03*
X8270669Y4832677D02*
D03*
Y4852362D02*
D03*
Y4675197D02*
D03*
Y4694882D02*
D03*
X8156398Y5395669D02*
D03*
X8174311D02*
D03*
X8210630D02*
D03*
X8228543D02*
D03*
X7798228Y4832677D02*
D03*
Y4852362D02*
D03*
Y4675197D02*
D03*
Y4694882D02*
D03*
X7683957Y5395669D02*
D03*
X7701870D02*
D03*
X7738189D02*
D03*
X7756103D02*
D03*
X7323032D02*
D03*
X7305118D02*
D03*
X7268799D02*
D03*
X7250886D02*
D03*
X7365158Y4694882D02*
D03*
Y4675197D02*
D03*
Y4852362D02*
D03*
Y4832677D02*
D03*
D169*
X7635827Y8314961D02*
D03*
D171*
X7757874Y4714567D02*
D03*
Y4812992D02*
D03*
X7324803Y4714567D02*
D03*
Y4812992D02*
D03*
X8230315Y4714567D02*
D03*
Y4812992D02*
D03*
X8663386D02*
D03*
Y4714567D02*
D03*
%TF.MD5,fb47a58f26e6de15b0ae5e9e4b11e342*%
M02*
