%TF.GenerationSoftware,Altium Limited,Altium Designer,22.5.1 (42)*%
G04 Layer_Color=0*
%FSLAX26Y26*%
%MOIN*%
%TF.SameCoordinates,3C46EB80-FEDE-48F7-A63F-DE7BBD85CC47*%
%TF.FilePolarity,Positive*%
%TF.FileFunction,Plated,1,8,PTH,Drill*%
%TF.Part,Single*%
G01*
G75*
%TA.AperFunction,ComponentDrill*%
%ADD159C,0.051181*%
%ADD160C,0.051181*%
%ADD161C,0.145669*%
%ADD162C,0.027559*%
%ADD163R,0.019685X0.031496*%
%ADD164R,0.019685X0.070866*%
%ADD165R,0.019685X0.055118*%
%TA.AperFunction,ViaDrill,NotFilled*%
%ADD166C,0.003937*%
%ADD167C,0.019685*%
%ADD168C,0.007874*%
%ADD169C,0.059055*%
%ADD170C,0.005906*%
%ADD171C,0.011811*%
D159*
X5288543Y3830000D02*
D03*
X5188543D02*
D03*
X5088543D02*
D03*
X943307Y4851575D02*
D03*
X1143307D02*
D03*
X1043307D02*
D03*
X843307Y4951575D02*
D03*
X943307D02*
D03*
X1043307D02*
D03*
X1143307D02*
D03*
X1243307D02*
D03*
Y4851575D02*
D03*
X843307D02*
D03*
X14898425Y4951575D02*
D03*
X14998425D02*
D03*
X15098425D02*
D03*
X15198425D02*
D03*
X15298425D02*
D03*
Y4851575D02*
D03*
X15198425D02*
D03*
X15098425D02*
D03*
X14998425D02*
D03*
X14898425D02*
D03*
X6188543Y3830000D02*
D03*
Y3730000D02*
D03*
X6088543Y3830000D02*
D03*
Y3730000D02*
D03*
X5988543Y3830000D02*
D03*
Y3730000D02*
D03*
X5888543Y3830000D02*
D03*
Y3730000D02*
D03*
X5788543Y3830000D02*
D03*
Y3730000D02*
D03*
X5688543Y3830000D02*
D03*
Y3730000D02*
D03*
X5588543Y3830000D02*
D03*
Y3730000D02*
D03*
X5488543Y3830000D02*
D03*
Y3730000D02*
D03*
X5388543Y3830000D02*
D03*
Y3730000D02*
D03*
X5288543D02*
D03*
X5188543D02*
D03*
X5088543D02*
D03*
X4988543Y3830000D02*
D03*
Y3730000D02*
D03*
X4888543Y3830000D02*
D03*
Y3730000D02*
D03*
X4788543Y3830000D02*
D03*
Y3730000D02*
D03*
X4688543Y3830000D02*
D03*
Y3730000D02*
D03*
X4588543Y3830000D02*
D03*
Y3730000D02*
D03*
X4488543Y3830000D02*
D03*
Y3730000D02*
D03*
X4388543Y3830000D02*
D03*
Y3730000D02*
D03*
X4288543Y3830000D02*
D03*
Y3730000D02*
D03*
D160*
X7225591Y11538583D02*
D03*
Y11438583D02*
D03*
Y11338583D02*
D03*
Y11238583D02*
D03*
Y11138583D02*
D03*
X7325591D02*
D03*
Y11238583D02*
D03*
Y11338583D02*
D03*
Y11438583D02*
D03*
Y11538583D02*
D03*
X8916142Y11138583D02*
D03*
Y11238583D02*
D03*
Y11338583D02*
D03*
Y11438583D02*
D03*
Y11538583D02*
D03*
X8816142D02*
D03*
Y11438583D02*
D03*
Y11338583D02*
D03*
Y11238583D02*
D03*
Y11138583D02*
D03*
D161*
X6377953Y3779528D02*
D03*
X6377953Y4685039D02*
D03*
X4094488D02*
D03*
Y3779528D02*
D03*
D162*
X8165354Y10781496D02*
D03*
X7976378D02*
D03*
Y10950787D02*
D03*
X8165354D02*
D03*
Y10190945D02*
D03*
X7976378D02*
D03*
Y10360236D02*
D03*
X8165354D02*
D03*
Y9600394D02*
D03*
X7976378D02*
D03*
Y9769685D02*
D03*
X8165354D02*
D03*
Y9009843D02*
D03*
X7976378D02*
D03*
Y9179134D02*
D03*
X8165354D02*
D03*
D163*
X7401575Y4605905D02*
D03*
Y4921653D02*
D03*
X8307087Y4015354D02*
D03*
Y4331102D02*
D03*
X8740157Y4605905D02*
D03*
Y4921653D02*
D03*
X8307087Y4605905D02*
D03*
Y4921653D02*
D03*
X8740157Y4015354D02*
D03*
Y4331102D02*
D03*
X7834646Y4015354D02*
D03*
Y4331102D02*
D03*
Y4605905D02*
D03*
Y4921653D02*
D03*
X7401575Y4015354D02*
D03*
Y4331102D02*
D03*
D164*
X7511811Y4763779D02*
D03*
X8417323Y4173228D02*
D03*
X8850394Y4763779D02*
D03*
X8417323D02*
D03*
X8850394Y4173228D02*
D03*
X7944882D02*
D03*
Y4763779D02*
D03*
X7511811Y4173228D02*
D03*
D165*
X7291339Y4694882D02*
D03*
Y4832677D02*
D03*
X8196850Y4104331D02*
D03*
Y4242126D02*
D03*
X8629921Y4694882D02*
D03*
Y4832677D02*
D03*
X8196850Y4694882D02*
D03*
Y4832677D02*
D03*
X8629921Y4104331D02*
D03*
Y4242126D02*
D03*
X7724409Y4104331D02*
D03*
Y4242126D02*
D03*
Y4694882D02*
D03*
Y4832677D02*
D03*
X7291339Y4104331D02*
D03*
Y4242126D02*
D03*
D166*
X7615158Y7928147D02*
D03*
Y7912399D02*
D03*
X9115157Y3942913D02*
D03*
Y4021653D02*
D03*
X12624016Y4848425D02*
D03*
X11948819Y4389764D02*
D03*
X11641732Y4503937D02*
D03*
X11582677D02*
D03*
X9115157Y4001968D02*
D03*
Y3982284D02*
D03*
Y3962598D02*
D03*
X11582677Y3827756D02*
D03*
X11031496D02*
D03*
X10480315D02*
D03*
X9929134D02*
D03*
X11299213Y4606299D02*
D03*
Y4685039D02*
D03*
X10748031Y4606299D02*
D03*
Y4685039D02*
D03*
X10196850Y4606299D02*
D03*
Y4685039D02*
D03*
X11582677Y4833661D02*
D03*
X11031496D02*
D03*
X10480315D02*
D03*
X9929134D02*
D03*
X9645669Y4685039D02*
D03*
Y4606299D02*
D03*
X11440945Y4612205D02*
D03*
X10889764D02*
D03*
X10338583D02*
D03*
X9787402D02*
D03*
X9803149Y4030512D02*
D03*
X10354331D02*
D03*
X10905512D02*
D03*
X11456693D02*
D03*
X9889764Y4442303D02*
D03*
X9904528Y4454646D02*
D03*
X9919291Y4466988D02*
D03*
X11676181Y3897106D02*
D03*
X11125000D02*
D03*
X10573819D02*
D03*
X10022638D02*
D03*
X11679134Y4779528D02*
D03*
X11127953D02*
D03*
X10576772D02*
D03*
X10025591D02*
D03*
X7230315Y4173228D02*
D03*
X9448819Y4606299D02*
D03*
X9389764Y4645669D02*
D03*
X9330709Y4685039D02*
D03*
X9929134Y4582677D02*
D03*
X9988189D02*
D03*
X11582677D02*
D03*
X11641732D02*
D03*
X11031496D02*
D03*
X11090551D02*
D03*
X10539370D02*
D03*
X10480315D02*
D03*
X7643701Y4281496D02*
D03*
X8076772D02*
D03*
X8549213D02*
D03*
X8982283D02*
D03*
X11783465Y4228346D02*
D03*
X9913386Y4074803D02*
D03*
X9976378Y4074803D02*
D03*
X10464567Y4074803D02*
D03*
X10527559Y4074803D02*
D03*
X11015748D02*
D03*
X11078740Y4074803D02*
D03*
X11629922Y4074803D02*
D03*
X11566929Y4074803D02*
D03*
X11468504Y4618110D02*
D03*
X11492126D02*
D03*
X10917323D02*
D03*
X10940945D02*
D03*
X10366142D02*
D03*
X10389764D02*
D03*
X9838583D02*
D03*
X9814960D02*
D03*
X9944882Y4830709D02*
D03*
X9972441D02*
D03*
X10496063D02*
D03*
X10523622D02*
D03*
X11598425D02*
D03*
X11625984D02*
D03*
X11074803D02*
D03*
X11047244D02*
D03*
X10389764Y4043307D02*
D03*
X10366142D02*
D03*
X10496063Y3830709D02*
D03*
X10523622D02*
D03*
X9972441D02*
D03*
X9944882D02*
D03*
X11625984D02*
D03*
X11598425D02*
D03*
X11047244D02*
D03*
X11074803D02*
D03*
X9814960Y4043307D02*
D03*
X9838583D02*
D03*
X10917323D02*
D03*
X10940945D02*
D03*
X11492126D02*
D03*
X11468504D02*
D03*
X8023622Y8398622D02*
D03*
X8007874D02*
D03*
X8133858D02*
D03*
X8118110D02*
D03*
X8070866Y8976378D02*
D03*
Y9566929D02*
D03*
Y10157480D02*
D03*
Y10748031D02*
D03*
X7470472Y8750984D02*
D03*
X7268701Y8307087D02*
D03*
X7332677Y8750000D02*
D03*
X7273622D02*
D03*
X7194882Y8671260D02*
D03*
X7312992Y8336614D02*
D03*
X7411417D02*
D03*
X7529528D02*
D03*
X7608268Y8474409D02*
D03*
Y8533465D02*
D03*
Y8631890D02*
D03*
Y8690945D02*
D03*
X8279557Y8201570D02*
D03*
X8231297Y8061026D02*
D03*
X7792320Y8198817D02*
D03*
Y8139761D02*
D03*
Y8001966D02*
D03*
X7923228Y7851378D02*
D03*
X8021654D02*
D03*
X8080709D02*
D03*
X8231297Y7942916D02*
D03*
Y8159451D02*
D03*
X7883853Y8290354D02*
D03*
X7864173Y7851378D02*
D03*
X8569882Y6756890D02*
D03*
X8263920Y6983128D02*
D03*
X8305678Y6941370D02*
D03*
X8375275Y6871773D02*
D03*
X8568053Y6885967D02*
D03*
X8665489Y6983403D02*
D03*
X8707248Y7025161D02*
D03*
X8392717Y7365158D02*
D03*
X8273622Y7262795D02*
D03*
X8708662Y7149606D02*
D03*
X8464567Y6808226D02*
D03*
X8375000Y7301181D02*
D03*
X8221887Y7148068D02*
D03*
X7368110Y7263779D02*
D03*
X7487205Y7365158D02*
D03*
X7801736Y7025161D02*
D03*
X7759977Y6983403D02*
D03*
X7662541Y6885967D02*
D03*
X7469763Y6871773D02*
D03*
X7400166Y6941370D02*
D03*
X7358408Y6983128D02*
D03*
X8221886Y7148067D02*
D03*
X7316374D02*
D03*
X8375000Y7301181D02*
D03*
X7469488D02*
D03*
X8708661Y7149606D02*
D03*
X8464567Y6808226D02*
D03*
X7559055D02*
D03*
X7803150Y7149606D02*
D03*
X14734252Y4133858D02*
D03*
X13856299Y4011811D02*
D03*
X14840551D02*
D03*
X13750000Y4133858D02*
D03*
Y4960630D02*
D03*
X13856299Y4838583D02*
D03*
X7615155Y7964567D02*
D03*
Y7980315D02*
D03*
Y8023622D02*
D03*
Y8039370D02*
D03*
X7885824Y7674213D02*
D03*
X7901572D02*
D03*
X7944880D02*
D03*
X7960627D02*
D03*
X7984250D02*
D03*
X7999998D02*
D03*
X8141730D02*
D03*
X8157478D02*
D03*
X8102360D02*
D03*
X8118108D02*
D03*
X8059053D02*
D03*
X8043305D02*
D03*
X7224410Y6901575D02*
D03*
X7240158D02*
D03*
X7220472Y6603347D02*
D03*
X7236221D02*
D03*
X7669291D02*
D03*
X7653543D02*
D03*
X7648622Y6756890D02*
D03*
X7664370D02*
D03*
X8554134D02*
D03*
X8559055Y6603347D02*
D03*
X8574803D02*
D03*
X8141732D02*
D03*
X8125984D02*
D03*
X8145669Y6901575D02*
D03*
X8129921D02*
D03*
X8602362Y4763779D02*
D03*
X8169291D02*
D03*
X7696850D02*
D03*
X8568898Y4173228D02*
D03*
X8135827D02*
D03*
X7663386D02*
D03*
X7263779Y4763779D02*
D03*
D167*
X8641732Y3543307D02*
D03*
X9173228Y3582677D02*
D03*
D168*
X11968504Y3547244D02*
D03*
X8527559Y3484252D02*
D03*
X8401575D02*
D03*
X8527559Y3602362D02*
D03*
X8401575D02*
D03*
X9748031Y4330709D02*
D03*
X10850394D02*
D03*
X9748031D02*
D03*
X10299213D02*
D03*
X11401575D02*
D03*
X9708661Y4238189D02*
D03*
X10259843D02*
D03*
X10811024D02*
D03*
X11362205D02*
D03*
X11131891Y4937008D02*
D03*
X9478347D02*
D03*
X10029528D02*
D03*
X10580709D02*
D03*
X9625984Y3746063D02*
D03*
X9448819Y3704724D02*
D03*
X10177165Y3746063D02*
D03*
X10000000Y3704724D02*
D03*
X10728346Y3746063D02*
D03*
X10551181Y3704724D02*
D03*
X11102362D02*
D03*
X11279528Y3746063D02*
D03*
X10371654Y3894685D02*
D03*
Y3979331D02*
D03*
Y3937008D02*
D03*
X10471063Y3894685D02*
D03*
Y3979331D02*
D03*
X10427362Y3937008D02*
D03*
X10514764D02*
D03*
X10471063D02*
D03*
X9820472Y3894685D02*
D03*
Y3979331D02*
D03*
Y3937008D02*
D03*
X9919882Y3894685D02*
D03*
Y3979331D02*
D03*
X9876181Y3937008D02*
D03*
X9963583D02*
D03*
X9919882D02*
D03*
X10922835Y3894685D02*
D03*
Y3979331D02*
D03*
Y3937008D02*
D03*
X11022244Y3894685D02*
D03*
Y3979331D02*
D03*
X10978543Y3937008D02*
D03*
X11065945D02*
D03*
X11022244D02*
D03*
X11474016Y3894685D02*
D03*
Y3979331D02*
D03*
Y3937008D02*
D03*
X11573425Y3894685D02*
D03*
Y3979331D02*
D03*
X11529725Y3937008D02*
D03*
X11617126D02*
D03*
X11573425D02*
D03*
X9820472Y4766732D02*
D03*
Y4682087D02*
D03*
Y4724409D02*
D03*
X9919882Y4766732D02*
D03*
Y4682087D02*
D03*
X9876181Y4724409D02*
D03*
X9963583D02*
D03*
X9919882D02*
D03*
X10371654Y4766732D02*
D03*
Y4682087D02*
D03*
Y4724409D02*
D03*
X10471063Y4766732D02*
D03*
Y4682087D02*
D03*
X10427362Y4724409D02*
D03*
X10514764D02*
D03*
X10471063D02*
D03*
X10922835Y4766732D02*
D03*
Y4682087D02*
D03*
Y4724409D02*
D03*
X11022244Y4766732D02*
D03*
Y4682087D02*
D03*
X10978543Y4724409D02*
D03*
X11065945D02*
D03*
X11022244D02*
D03*
X11474016Y4766732D02*
D03*
Y4682087D02*
D03*
Y4724409D02*
D03*
X11573425Y4766732D02*
D03*
Y4682087D02*
D03*
X11529724Y4724409D02*
D03*
X11617126D02*
D03*
X11573425D02*
D03*
X8070866Y8643701D02*
D03*
Y8679134D02*
D03*
X7283465Y10257874D02*
D03*
Y10293307D02*
D03*
Y9667323D02*
D03*
Y9702756D02*
D03*
X7480315Y9076772D02*
D03*
Y9112205D02*
D03*
X7642717Y7435039D02*
D03*
X8530512Y8214567D02*
D03*
Y8295276D02*
D03*
X8188976Y5494095D02*
D03*
Y5529528D02*
D03*
X8622047Y5494095D02*
D03*
Y5529528D02*
D03*
X7716535D02*
D03*
Y5494095D02*
D03*
X7283465D02*
D03*
Y5529528D02*
D03*
X8838583Y5494095D02*
D03*
Y5529528D02*
D03*
X8405512Y5494095D02*
D03*
Y5529528D02*
D03*
X7933071Y5494095D02*
D03*
Y5529528D02*
D03*
X7500000D02*
D03*
Y5494095D02*
D03*
D169*
X8267717Y3543307D02*
D03*
X8070866D02*
D03*
X7874016D02*
D03*
X7677165D02*
D03*
X7480315D02*
D03*
D170*
X7757874Y4714567D02*
D03*
Y4812992D02*
D03*
X8840551Y4114173D02*
D03*
Y4232283D02*
D03*
X8407480Y4114173D02*
D03*
Y4232283D02*
D03*
X7935039Y4114173D02*
D03*
Y4232283D02*
D03*
X7501968D02*
D03*
Y4114173D02*
D03*
X7324803Y4714567D02*
D03*
Y4812992D02*
D03*
X8230315Y4714567D02*
D03*
Y4812992D02*
D03*
X8663386D02*
D03*
Y4714567D02*
D03*
D171*
X8031494Y8090551D02*
D03*
Y8129921D02*
D03*
Y8169291D02*
D03*
X7992124Y8090551D02*
D03*
Y8129921D02*
D03*
Y8169291D02*
D03*
X7952753Y8090551D02*
D03*
Y8129921D02*
D03*
Y8169291D02*
D03*
X7913383Y8090551D02*
D03*
Y8129921D02*
D03*
Y8169291D02*
D03*
X8070864Y8090551D02*
D03*
Y8129921D02*
D03*
Y8169291D02*
D03*
X8110234D02*
D03*
Y8129921D02*
D03*
Y8090551D02*
D03*
X7992124Y8051181D02*
D03*
Y8011811D02*
D03*
Y7972441D02*
D03*
X8031494Y8051181D02*
D03*
Y8011811D02*
D03*
Y7972441D02*
D03*
X8070864Y8051181D02*
D03*
Y8011811D02*
D03*
Y7972441D02*
D03*
X8110234Y8051181D02*
D03*
Y8011811D02*
D03*
Y7972441D02*
D03*
X7952753Y8051181D02*
D03*
Y8011811D02*
D03*
Y7972441D02*
D03*
X7913383D02*
D03*
Y8011811D02*
D03*
Y8051181D02*
D03*
X7421260Y8641732D02*
D03*
X7460630D02*
D03*
X7500000D02*
D03*
Y8602362D02*
D03*
X7460630D02*
D03*
X7421260D02*
D03*
X7500000Y8444882D02*
D03*
X7460630D02*
D03*
X7421260D02*
D03*
X7500000Y8484252D02*
D03*
X7460630D02*
D03*
X7421260D02*
D03*
X7500000Y8523622D02*
D03*
X7460630D02*
D03*
X7421260D02*
D03*
X7500000Y8562992D02*
D03*
X7460630D02*
D03*
X7421260D02*
D03*
X7381890Y8444882D02*
D03*
X7342520D02*
D03*
X7303150D02*
D03*
Y8484252D02*
D03*
X7342520D02*
D03*
X7381890D02*
D03*
X7303150Y8641732D02*
D03*
X7342520D02*
D03*
X7381890D02*
D03*
X7303150Y8602362D02*
D03*
X7342520D02*
D03*
X7381890D02*
D03*
X7303150Y8562992D02*
D03*
X7342520D02*
D03*
X7381890D02*
D03*
X7303150Y8523622D02*
D03*
X7342520D02*
D03*
X7381890D02*
D03*
X8520245Y7003098D02*
D03*
X8492406Y6975259D02*
D03*
X8464567Y6947420D02*
D03*
X8436728Y6975259D02*
D03*
X8464567Y7003098D02*
D03*
X8492406Y7030936D02*
D03*
X8325373Y7086614D02*
D03*
X8353211Y7114453D02*
D03*
X8381050Y7142292D02*
D03*
X8353211Y7058775D02*
D03*
X8381050Y7086614D02*
D03*
X8408889Y7114453D02*
D03*
X8381050Y7030936D02*
D03*
X8408889Y7058775D02*
D03*
X8436728Y7086614D02*
D03*
X8408889Y7003098D02*
D03*
X8436728Y7030936D02*
D03*
X8464567Y7058775D02*
D03*
X8408889Y7170131D02*
D03*
X8436728Y7197970D02*
D03*
X8464567Y7225809D02*
D03*
X8492406Y7197970D02*
D03*
X8464567Y7170131D02*
D03*
X8436728Y7142292D02*
D03*
X8603761Y7086614D02*
D03*
X8575922Y7058775D02*
D03*
X8548083Y7030936D02*
D03*
X8575922Y7114453D02*
D03*
X8548083Y7086614D02*
D03*
X8520245Y7058775D02*
D03*
X8548083Y7142292D02*
D03*
X8520245Y7114453D02*
D03*
X8492406Y7086614D02*
D03*
X8520245Y7170131D02*
D03*
X8492406Y7142292D02*
D03*
X8464567Y7114453D02*
D03*
X7614733Y7003098D02*
D03*
X7586894Y6975259D02*
D03*
X7559055Y6947420D02*
D03*
X7531216Y6975259D02*
D03*
X7559055Y7003098D02*
D03*
X7586894Y7030936D02*
D03*
X7419861Y7086614D02*
D03*
X7447700Y7114453D02*
D03*
X7475539Y7142292D02*
D03*
X7447700Y7058775D02*
D03*
X7475539Y7086614D02*
D03*
X7503377Y7114453D02*
D03*
X7475539Y7030936D02*
D03*
X7503377Y7058775D02*
D03*
X7531216Y7086614D02*
D03*
X7503377Y7003098D02*
D03*
X7531216Y7030936D02*
D03*
X7559055Y7058775D02*
D03*
X7503377Y7170131D02*
D03*
X7531216Y7197970D02*
D03*
X7559055Y7225809D02*
D03*
X7586894Y7197970D02*
D03*
X7559055Y7170131D02*
D03*
X7531216Y7142292D02*
D03*
X7698249Y7086614D02*
D03*
X7670410Y7058775D02*
D03*
X7642572Y7030936D02*
D03*
X7670410Y7114453D02*
D03*
X7642572Y7086614D02*
D03*
X7614733Y7058775D02*
D03*
X7642572Y7142292D02*
D03*
X7614733Y7114453D02*
D03*
X7586894Y7086614D02*
D03*
X7614733Y7170131D02*
D03*
X7586894Y7142292D02*
D03*
X7559055Y7114453D02*
D03*
%TF.MD5,8ad622a4b31fe54e9b5ca91d56df56be*%
M02*
