%TF.GenerationSoftware,Altium Limited,Altium Designer,22.5.1 (42)*%
G04 Layer_Color=32896*
%FSLAX26Y26*%
%MOIN*%
%TF.SameCoordinates,79F18A81-A5BF-4171-AD75-6FA3A7A6B408*%
%TF.FilePolarity,Positive*%
%TF.FileFunction,Legend,Bot*%
%TF.Part,Single*%
G01*
G75*
%TA.AperFunction,NonConductor*%
%ADD88C,0.001000*%
%ADD89C,0.003937*%
%ADD90C,0.001968*%
%ADD91C,0.000984*%
%ADD92C,0.003000*%
%ADD93R,0.007874X0.007874*%
%ADD94R,0.007874X0.007874*%
%ADD95R,0.007874X0.007874*%
%ADD96R,0.007874X0.007874*%
%ADD97R,0.002953X0.002953*%
%ADD98R,0.019685X0.019685*%
%ADD99R,0.019685X0.019685*%
%ADD100R,0.019685X0.019685*%
%ADD101R,0.019685X0.019685*%
D88*
X8265748Y8088520D02*
X8332677D01*
X8265748Y8062520D02*
Y8088520D01*
Y8062520D02*
X8332677D01*
Y8088520D01*
X10423228Y3794087D02*
X10490157D01*
Y3820087D01*
X10423228D02*
X10490157D01*
X10423228Y3794087D02*
Y3820087D01*
X9872047Y3794087D02*
X9938976D01*
Y3820087D01*
X9872047D02*
X9938976D01*
X9872047Y3794087D02*
Y3820087D01*
X10974409Y3794087D02*
X11041339D01*
Y3820087D01*
X10974409D02*
X11041339D01*
X10974409Y3794087D02*
Y3820087D01*
X11525591Y3794087D02*
X11592520D01*
Y3820087D01*
X11525591D02*
X11592520D01*
X11525591Y3794087D02*
Y3820087D01*
X8332677Y8092520D02*
Y8118520D01*
X8265748Y8092520D02*
X8332677D01*
X8265748D02*
Y8118520D01*
X8332677D01*
X7770669Y7974205D02*
Y8000205D01*
X7703740Y7974205D02*
X7770669D01*
X7703740D02*
Y8000205D01*
X7770669D01*
Y7944205D02*
Y7970205D01*
X7703740Y7944205D02*
X7770669D01*
X7703740D02*
Y7970205D01*
X7770669D01*
X8138243Y7754921D02*
Y7821850D01*
X8112243D02*
X8138243D01*
X8112243Y7754921D02*
Y7821850D01*
Y7754921D02*
X8138243D01*
X8108243D02*
Y7821850D01*
X8082243D02*
X8108243D01*
X8082243Y7754921D02*
Y7821850D01*
Y7754921D02*
X8108243D01*
X7980992D02*
Y7821850D01*
X7954992D02*
X7980992D01*
X7954992Y7754921D02*
Y7821850D01*
Y7754921D02*
X7980992D01*
X7950992D02*
Y7821850D01*
X7924992D02*
X7950992D01*
X7924992Y7754921D02*
Y7821850D01*
Y7754921D02*
X7950992D01*
X7254622Y8760827D02*
X7292622D01*
X7254622D02*
Y8855315D01*
X7292622D01*
Y8760827D02*
Y8855315D01*
X7313677Y8760827D02*
X7351677D01*
X7313677D02*
Y8855315D01*
X7351677D01*
Y8760827D02*
Y8855315D01*
X7451472Y8760827D02*
X7489472D01*
X7451472D02*
Y8855315D01*
X7489472D01*
Y8760827D02*
Y8855315D01*
X7392417Y8317913D02*
X7430417D01*
Y8223425D02*
Y8317913D01*
X7392417Y8223425D02*
X7430417D01*
X7392417D02*
Y8317913D01*
X7249701Y8288386D02*
X7287701D01*
Y8193898D02*
Y8288386D01*
X7249701Y8193898D02*
X7287701D01*
X7249701D02*
Y8288386D01*
X7618110Y8612890D02*
Y8650890D01*
X7712598D01*
Y8612890D02*
Y8650890D01*
X7618110Y8612890D02*
X7712598D01*
X7617126Y8514465D02*
Y8552465D01*
X7711614D01*
Y8514465D02*
Y8552465D01*
X7617126Y8514465D02*
X7711614D01*
X7617126Y8455409D02*
Y8493409D01*
X7711614D01*
Y8455409D02*
Y8493409D01*
X7617126Y8455409D02*
X7711614D01*
X7510528Y8318898D02*
X7548528D01*
Y8224409D02*
Y8318898D01*
X7510528Y8224409D02*
X7548528D01*
X7510528D02*
Y8318898D01*
X7293992Y8317913D02*
X7331992D01*
Y8223425D02*
Y8317913D01*
X7293992Y8223425D02*
X7331992D01*
X7293992D02*
Y8317913D01*
X7186024Y8652260D02*
Y8690260D01*
X7091535Y8652260D02*
X7186024D01*
X7091535D02*
Y8690260D01*
X7186024D01*
X7618110Y8671945D02*
Y8709945D01*
X7712598D01*
Y8671945D02*
Y8709945D01*
X7618110Y8671945D02*
X7712598D01*
X8719891Y6984538D02*
X8786704Y6917725D01*
X8813574Y6944595D01*
X8746761Y7011409D02*
X8813574Y6944595D01*
X8719891Y6984538D02*
X8746761Y7011409D01*
X8202469Y7361802D02*
X8269283Y7294989D01*
X8175599Y7334932D02*
X8202469Y7361802D01*
X8175599Y7334932D02*
X8242413Y7268119D01*
X8269283Y7294989D01*
X8317627Y7464164D02*
X8384440Y7397351D01*
X8290757Y7437294D02*
X8317627Y7464164D01*
X8290757Y7437294D02*
X8357570Y7370481D01*
X8384440Y7397351D01*
X8208080Y6870776D02*
X8274893Y6937590D01*
X8208080Y6870776D02*
X8234950Y6843906D01*
X8301763Y6910720D01*
X8274893Y6937590D02*
X8301763Y6910720D01*
X8166741Y6913099D02*
X8233554Y6979913D01*
X8166741Y6913099D02*
X8193611Y6886229D01*
X8260424Y6953042D01*
X8233554Y6979913D02*
X8260424Y6953042D01*
X8678552Y6943200D02*
X8745365Y6876387D01*
X8772235Y6903257D01*
X8705422Y6970070D02*
X8772235Y6903257D01*
X8678552Y6943200D02*
X8705422Y6970070D01*
X8581111Y6845759D02*
X8647924Y6778946D01*
X8674794Y6805816D01*
X8607981Y6872629D02*
X8674794Y6805816D01*
X8581111Y6845759D02*
X8607981Y6872629D01*
X8279930Y6802863D02*
X8346743Y6869676D01*
X8279930Y6802863D02*
X8306800Y6775993D01*
X8373613Y6842806D01*
X8346743Y6869676D02*
X8373613Y6842806D01*
X7293020Y7365739D02*
X7359834Y7298926D01*
X7266150Y7338869D02*
X7293020Y7365739D01*
X7266150Y7338869D02*
X7332964Y7272056D01*
X7359834Y7298926D01*
X7675599Y6845759D02*
X7742413Y6778946D01*
X7769283Y6805816D01*
X7702469Y6872629D02*
X7769283Y6805816D01*
X7675599Y6845759D02*
X7702469Y6872629D01*
X7301583Y6869792D02*
X7368397Y6936606D01*
X7301583Y6869792D02*
X7328454Y6842922D01*
X7395267Y6909735D01*
X7368397Y6936606D02*
X7395267Y6909735D01*
X7372450Y6801879D02*
X7439263Y6868692D01*
X7372450Y6801879D02*
X7399320Y6775009D01*
X7466133Y6841822D01*
X7439263Y6868692D02*
X7466133Y6841822D01*
X7260245Y6913099D02*
X7327058Y6979913D01*
X7260245Y6913099D02*
X7287115Y6886229D01*
X7353928Y6953042D01*
X7327058Y6979913D02*
X7353928Y6953042D01*
X7773040Y6943200D02*
X7839854Y6876387D01*
X7866724Y6903257D01*
X7799910Y6970070D02*
X7866724Y6903257D01*
X7773040Y6943200D02*
X7799910Y6970070D01*
X7816347Y6986507D02*
X7883161Y6919694D01*
X7910031Y6946564D01*
X7843217Y7013377D02*
X7910031Y6946564D01*
X7816347Y6986507D02*
X7843217Y7013377D01*
X7411131Y7467117D02*
X7477944Y7400304D01*
X7384261Y7440247D02*
X7411131Y7467117D01*
X7384261Y7440247D02*
X7451074Y7373434D01*
X7477944Y7400304D01*
X8445567Y6685039D02*
Y6779528D01*
Y6685039D02*
X8483567D01*
Y6779528D01*
X8445567D02*
X8483567D01*
X8298926Y7405109D02*
X8365739Y7338296D01*
X8272056Y7378239D02*
X8298926Y7405109D01*
X8272056Y7378239D02*
X8338869Y7311426D01*
X8365739Y7338296D01*
X8735934Y7153946D02*
X8802747Y7220759D01*
X8775877Y7247629D02*
X8802747Y7220759D01*
X8709064Y7180816D02*
X8775877Y7247629D01*
X8709064Y7180816D02*
X8735934Y7153946D01*
X8141446Y7259440D02*
X8208259Y7192627D01*
X8114576Y7232570D02*
X8141446Y7259440D01*
X8114576Y7232570D02*
X8181389Y7165757D01*
X8208259Y7192627D01*
X7393414Y7405109D02*
X7460228Y7338296D01*
X7366544Y7378239D02*
X7393414Y7405109D01*
X7366544Y7378239D02*
X7433358Y7311426D01*
X7460228Y7338296D01*
X7235934Y7259440D02*
X7302747Y7192627D01*
X7209064Y7232570D02*
X7235934Y7259440D01*
X7209064Y7232570D02*
X7275877Y7165757D01*
X7302747Y7192627D01*
X7830422Y7153946D02*
X7897235Y7220759D01*
X7870365Y7247629D02*
X7897235Y7220759D01*
X7803552Y7180816D02*
X7870365Y7247629D01*
X7803552Y7180816D02*
X7830422Y7153946D01*
X7540055Y6685039D02*
Y6779528D01*
Y6685039D02*
X7578055D01*
Y6779528D01*
X7540055D02*
X7578055D01*
D89*
X8379567Y3641732D02*
X8549567D01*
Y3562992D02*
Y3641732D01*
X8379567Y3562992D02*
X8549567D01*
X8379567D02*
Y3641732D01*
Y3523622D02*
X8549567D01*
Y3444882D02*
Y3523622D01*
X8379567Y3444882D02*
X8549567D01*
X8379567D02*
Y3523622D01*
D90*
X9584646Y3936598D02*
X9706693D01*
X9584646D02*
Y3988598D01*
X9706693Y3936598D02*
Y3988598D01*
X9584646D02*
X9706693D01*
X9584646Y3995653D02*
X9706693D01*
X9584646D02*
Y4047653D01*
X9706693Y3995653D02*
Y4047653D01*
X9584646D02*
X9706693D01*
X9584646Y4054709D02*
X9706693D01*
X9584646D02*
Y4106709D01*
X9706693Y4054709D02*
Y4106709D01*
X9584646D02*
X9706693D01*
X9584646Y4113764D02*
X9706693D01*
X9584646D02*
Y4165764D01*
X9706693Y4113764D02*
Y4165764D01*
X9584646D02*
X9706693D01*
X9887386Y4053150D02*
Y4175197D01*
X9939386D01*
X9887386Y4053150D02*
X9939386D01*
Y4175197D01*
X9950378Y4053150D02*
Y4175197D01*
X10002378D01*
X9950378Y4053150D02*
X10002378D01*
Y4175197D01*
X9558732Y4287402D02*
X9732283D01*
X9558732Y4188976D02*
Y4287402D01*
Y4188976D02*
X9732283D01*
Y4287402D01*
X10135827Y3936598D02*
X10257874D01*
X10135827D02*
Y3988598D01*
X10257874Y3936598D02*
Y3988598D01*
X10135827D02*
X10257874D01*
X10135827Y4113764D02*
X10257874D01*
X10135827D02*
Y4165764D01*
X10257874Y4113764D02*
Y4165764D01*
X10135827D02*
X10257874D01*
X10135827Y4054709D02*
X10257874D01*
X10135827D02*
Y4106709D01*
X10257874Y4054709D02*
Y4106709D01*
X10135827D02*
X10257874D01*
X10135827Y3995653D02*
X10257874D01*
X10135827D02*
Y4047653D01*
X10257874Y3995653D02*
Y4047653D01*
X10135827D02*
X10257874D01*
X10438567Y4053150D02*
Y4175197D01*
X10490567D01*
X10438567Y4053150D02*
X10490567D01*
Y4175197D01*
X10588583Y3923638D02*
X10710630D01*
Y3871638D02*
Y3923638D01*
X10588583Y3871638D02*
Y3923638D01*
Y3871638D02*
X10710630D01*
X10623606Y3954724D02*
Y4076772D01*
X10675606D01*
X10623606Y3954724D02*
X10675606D01*
Y4076772D01*
X10501559Y4053150D02*
Y4175197D01*
X10553559D01*
X10501559Y4053150D02*
X10553559D01*
Y4175197D01*
X10109913Y4287402D02*
X10283465D01*
X10109913Y4188976D02*
Y4287402D01*
Y4188976D02*
X10283465D01*
Y4287402D01*
X10687008Y3995653D02*
X10809055D01*
X10687008D02*
Y4047653D01*
X10809055Y3995653D02*
Y4047653D01*
X10687008D02*
X10809055D01*
X10687008Y3936598D02*
X10809055D01*
X10687008D02*
Y3988598D01*
X10809055Y3936598D02*
Y3988598D01*
X10687008D02*
X10809055D01*
X10687008Y4113764D02*
X10809055D01*
X10687008D02*
Y4165764D01*
X10809055Y4113764D02*
Y4165764D01*
X10687008D02*
X10809055D01*
X10687008Y4054709D02*
X10809055D01*
X10687008D02*
Y4106709D01*
X10809055Y4054709D02*
Y4106709D01*
X10687008D02*
X10809055D01*
X10661094Y4287402D02*
X10834646D01*
X10661094Y4188976D02*
Y4287402D01*
Y4188976D02*
X10834646D01*
Y4287402D01*
X11052740Y4053150D02*
Y4175197D01*
X11104740D01*
X11052740Y4053150D02*
X11104740D01*
Y4175197D01*
X10989748Y4053150D02*
Y4175197D01*
X11041748D01*
X10989748Y4053150D02*
X11041748D01*
Y4175197D01*
X10072425Y3954724D02*
Y4076772D01*
X10124425D01*
X10072425Y3954724D02*
X10124425D01*
Y4076772D01*
X10037402Y3923638D02*
X10159449D01*
Y3871638D02*
Y3923638D01*
X10037402Y3871638D02*
Y3923638D01*
Y3871638D02*
X10159449D01*
X11139764Y3923638D02*
X11261811D01*
Y3871638D02*
Y3923638D01*
X11139764Y3871638D02*
Y3923638D01*
Y3871638D02*
X11261811D01*
X11174787Y3954724D02*
Y4076772D01*
X11226787D01*
X11174787Y3954724D02*
X11226787D01*
Y4076772D01*
X11540929Y4053150D02*
Y4175197D01*
X11592929D01*
X11540929Y4053150D02*
X11592929D01*
Y4175197D01*
X11238189Y3995654D02*
X11360236D01*
X11238189D02*
Y4047654D01*
X11360236Y3995654D02*
Y4047654D01*
X11238189D02*
X11360236D01*
X11238189Y3936598D02*
X11360236D01*
X11238189D02*
Y3988598D01*
X11360236Y3936598D02*
Y3988598D01*
X11238189D02*
X11360236D01*
X11603921Y4053150D02*
Y4175197D01*
X11655921D01*
X11603921Y4053150D02*
X11655921D01*
Y4175197D01*
X11238189Y4113764D02*
X11360236D01*
X11238189D02*
Y4165764D01*
X11360236Y4113764D02*
Y4165764D01*
X11238189D02*
X11360236D01*
X11238189Y4054709D02*
X11360236D01*
X11238189D02*
Y4106709D01*
X11360236Y4054709D02*
Y4106709D01*
X11238189D02*
X11360236D01*
X11212276Y4287402D02*
X11385827D01*
X11212276Y4188976D02*
Y4287402D01*
Y4188976D02*
X11385827D01*
Y4287402D01*
X11725969Y3954724D02*
Y4076772D01*
X11777969D01*
X11725969Y3954724D02*
X11777969D01*
Y4076772D01*
X11690945Y3923638D02*
X11812992D01*
Y3871638D02*
Y3923638D01*
X11690945Y3871638D02*
Y3923638D01*
Y3871638D02*
X11812992D01*
X7595945Y8774447D02*
X7682246Y8860748D01*
X7719015Y8823978D01*
X7595945Y8774447D02*
X7632715Y8737678D01*
X7719015Y8823978D01*
X8490567Y7379921D02*
Y7501968D01*
X8438567Y7379921D02*
X8490567D01*
X8438567Y7501968D02*
X8490567D01*
X8438567Y7379921D02*
Y7501968D01*
X7585055Y7379921D02*
Y7501968D01*
X7533055Y7379921D02*
X7585055D01*
X7533055Y7501968D02*
X7585055D01*
X7533055Y7379921D02*
Y7501968D01*
D91*
X10314960Y3858268D02*
X10551181D01*
X10314960Y4015749D02*
X10551181D01*
X10314960Y3858268D02*
Y4015749D01*
X10551181Y3858268D02*
Y4015749D01*
X9763778Y3858268D02*
X10000000D01*
X9763778Y4015749D02*
X10000000D01*
X9763778Y3858268D02*
Y4015749D01*
X10000000Y3858268D02*
Y4015749D01*
X10866141Y3858268D02*
X11102362D01*
X10866141Y4015749D02*
X11102362D01*
X10866141Y3858268D02*
Y4015749D01*
X11102362Y3858268D02*
Y4015749D01*
X11417322Y3858268D02*
X11653543D01*
X11417322Y4015749D02*
X11653543D01*
X11417322Y3858268D02*
Y4015749D01*
X11653543Y3858268D02*
Y4015749D01*
X7814958Y7874016D02*
Y8267719D01*
X8208661Y7874016D02*
Y8267719D01*
X7814958D02*
X8208661D01*
X7814958Y7874016D02*
X8208661D01*
X8673228Y5688976D02*
Y5728348D01*
X8570865Y5688976D02*
Y5728348D01*
X8673228D01*
X8570865Y5688976D02*
X8673228D01*
X7334646D02*
Y5728348D01*
X7232282Y5688976D02*
Y5728348D01*
X7334646D01*
X7232282Y5688976D02*
X7334646D01*
X8240157D02*
Y5728348D01*
X8137794Y5688976D02*
Y5728348D01*
X8240157D01*
X8137794Y5688976D02*
X8240157D01*
X7767717D02*
Y5728348D01*
X7665353Y5688976D02*
Y5728348D01*
X7767717D01*
X7665353Y5688976D02*
X7767717D01*
X7240156Y4787402D02*
X7287402D01*
X7240156Y4740156D02*
X7287402D01*
X7240156D02*
Y4787402D01*
X7287402Y4740156D02*
Y4787402D01*
X8145667Y4196850D02*
X8192913D01*
X8145667Y4149604D02*
X8192913D01*
X8145667D02*
Y4196850D01*
X8192913Y4149604D02*
Y4196850D01*
X8145667Y4787402D02*
X8192913D01*
X8145667Y4740156D02*
X8192913D01*
X8145667D02*
Y4787402D01*
X8192913Y4740156D02*
Y4787402D01*
X7673227D02*
X7720472D01*
X7673227Y4740156D02*
X7720472D01*
X7673227D02*
Y4787402D01*
X7720472Y4740156D02*
Y4787402D01*
X8578738Y4196850D02*
X8625984D01*
X8578738Y4149604D02*
X8625984D01*
X8578738D02*
Y4196850D01*
X8625984Y4149604D02*
Y4196850D01*
X7673227D02*
X7720472D01*
X7673227Y4149604D02*
X7720472D01*
X7673227D02*
Y4196850D01*
X7720472Y4149604D02*
Y4196850D01*
X8578738Y4787402D02*
X8625984D01*
X8578738Y4740156D02*
X8625984D01*
X8578738D02*
Y4787402D01*
X8625984Y4740156D02*
Y4787402D01*
X7240156Y4196850D02*
X7287402D01*
X7240156Y4149604D02*
X7287402D01*
X7240156D02*
Y4196850D01*
X7287402Y4149604D02*
Y4196850D01*
X8145668Y5460630D02*
X8232283D01*
X8145668Y5562992D02*
X8232283D01*
X8145668Y5460630D02*
Y5562992D01*
X8232283Y5460630D02*
Y5562992D01*
X8578739Y5460630D02*
X8665354D01*
X8578739Y5562992D02*
X8665354D01*
X8578739Y5460630D02*
Y5562992D01*
X8665354Y5460630D02*
Y5562992D01*
X7759843Y5460630D02*
Y5562992D01*
X7673227Y5460630D02*
Y5562992D01*
X7759843D01*
X7673227Y5460630D02*
X7759843D01*
X7240156D02*
X7326772D01*
X7240156Y5562992D02*
X7326772D01*
X7240156Y5460630D02*
Y5562992D01*
X7326772Y5460630D02*
Y5562992D01*
X7342519Y4940945D02*
X7460630D01*
X7342519Y4586613D02*
X7460630D01*
X7342519D02*
Y4940945D01*
X7460630Y4586613D02*
Y4940945D01*
X8248031Y4350394D02*
X8366142D01*
X8248031Y3996062D02*
X8366142D01*
X8248031D02*
Y4350394D01*
X8366142Y3996062D02*
Y4350394D01*
X8681102Y4940945D02*
X8799213D01*
X8681102Y4586613D02*
X8799213D01*
X8681102D02*
Y4940945D01*
X8799213Y4586613D02*
Y4940945D01*
X8248031D02*
X8366142D01*
X8248031Y4586613D02*
X8366142D01*
X8248031D02*
Y4940945D01*
X8366142Y4586613D02*
Y4940945D01*
X8681102Y4350394D02*
X8799213D01*
X8681102Y3996062D02*
X8799213D01*
X8681102D02*
Y4350394D01*
X8799213Y3996062D02*
Y4350394D01*
X7775590D02*
X7893701D01*
X7775590Y3996062D02*
X7893701D01*
X7775590D02*
Y4350394D01*
X7893701Y3996062D02*
Y4350394D01*
X7775590Y4940945D02*
X7893701D01*
X7775590Y4586613D02*
X7893701D01*
X7775590D02*
Y4940945D01*
X7893701Y4586613D02*
Y4940945D01*
X7342519Y4350394D02*
X7460630D01*
X7342519Y3996062D02*
X7460630D01*
X7342519D02*
Y4350394D01*
X7460630Y3996062D02*
Y4350394D01*
D92*
X8589062Y3573859D02*
Y3563862D01*
X8581565D01*
Y3568860D01*
Y3563862D01*
X8574067D01*
Y3588854D02*
Y3578857D01*
X8584064Y3588854D01*
X8586563D01*
X8589062Y3586355D01*
Y3581356D01*
X8586563Y3578857D01*
X8589062Y3455749D02*
Y3445752D01*
X8581565D01*
Y3450750D01*
Y3445752D01*
X8574067D01*
Y3460747D02*
Y3465745D01*
Y3463246D01*
X8589062D01*
X8586563Y3460747D01*
X9875012Y3770587D02*
Y3755591D01*
X9882509D01*
X9885009Y3758091D01*
Y3763089D01*
X9882509Y3765588D01*
X9875012D01*
X9880010D02*
X9885009Y3770587D01*
X9900004D02*
X9890007D01*
X9900004Y3760590D01*
Y3758091D01*
X9897505Y3755591D01*
X9892506D01*
X9890007Y3758091D01*
X9912500Y3770587D02*
Y3755591D01*
X9905002Y3763089D01*
X9914999D01*
X10977374Y3770587D02*
Y3755591D01*
X10984872D01*
X10987371Y3758091D01*
Y3763089D01*
X10984872Y3765588D01*
X10977374D01*
X10982372D02*
X10987371Y3770587D01*
X11002366D02*
X10992369D01*
X11002366Y3760590D01*
Y3758091D01*
X10999867Y3755591D01*
X10994868D01*
X10992369Y3758091D01*
X11017361Y3770587D02*
X11007364D01*
X11017361Y3760590D01*
Y3758091D01*
X11014862Y3755591D01*
X11009864D01*
X11007364Y3758091D01*
X10426193Y3770587D02*
Y3755591D01*
X10433690D01*
X10436190Y3758091D01*
Y3763089D01*
X10433690Y3765588D01*
X10426193D01*
X10431191D02*
X10436190Y3770587D01*
X10451185D02*
X10441188D01*
X10451185Y3760590D01*
Y3758091D01*
X10448685Y3755591D01*
X10443687D01*
X10441188Y3758091D01*
X10456183D02*
X10458682Y3755591D01*
X10463681D01*
X10466180Y3758091D01*
Y3768087D01*
X10463681Y3770587D01*
X10458682D01*
X10456183Y3768087D01*
Y3758091D01*
X11528555Y3770587D02*
Y3755591D01*
X11536052D01*
X11538552Y3758091D01*
Y3763089D01*
X11536052Y3765588D01*
X11528555D01*
X11533553D02*
X11538552Y3770587D01*
X11543550D02*
X11548549D01*
X11546049D01*
Y3755591D01*
X11543550Y3758091D01*
X11556046Y3755591D02*
X11566043D01*
Y3758091D01*
X11556046Y3768087D01*
Y3770587D01*
X9714394Y4024508D02*
Y4019510D01*
Y4022009D01*
X9729389D01*
Y4024508D01*
Y4019510D01*
X9716894Y4002015D02*
X9714394Y4004514D01*
Y4009513D01*
X9716894Y4012012D01*
X9726890D01*
X9729389Y4009513D01*
Y4004514D01*
X9726890Y4002015D01*
X9729389Y3997017D02*
Y3992018D01*
Y3994517D01*
X9714394D01*
X9716894Y3997017D01*
Y3984521D02*
X9714394Y3982021D01*
Y3977023D01*
X9716894Y3974524D01*
X9719393D01*
X9721892Y3977023D01*
Y3979522D01*
Y3977023D01*
X9724391Y3974524D01*
X9726890D01*
X9729389Y3977023D01*
Y3982021D01*
X9726890Y3984521D01*
X10816757Y4024508D02*
Y4019510D01*
Y4022009D01*
X10831752D01*
Y4024508D01*
Y4019510D01*
X10819256Y4002015D02*
X10816757Y4004514D01*
Y4009513D01*
X10819256Y4012012D01*
X10829253D01*
X10831752Y4009513D01*
Y4004514D01*
X10829253Y4002015D01*
X10831752Y3997017D02*
Y3992018D01*
Y3994518D01*
X10816757D01*
X10819256Y3997017D01*
X10831752Y3984521D02*
Y3979522D01*
Y3982022D01*
X10816757D01*
X10819256Y3984521D01*
X10265576Y4024508D02*
Y4019510D01*
Y4022009D01*
X10280571D01*
Y4024508D01*
Y4019510D01*
X10268075Y4002015D02*
X10265576Y4004514D01*
Y4009513D01*
X10268075Y4012012D01*
X10278072D01*
X10280571Y4009513D01*
Y4004514D01*
X10278072Y4002015D01*
Y3997017D02*
X10280571Y3994518D01*
Y3989519D01*
X10278072Y3987020D01*
X10268075D01*
X10265576Y3989519D01*
Y3994518D01*
X10268075Y3997017D01*
X10270574D01*
X10273073Y3994518D01*
Y3987020D01*
X11367938Y4024508D02*
Y4019510D01*
Y4022009D01*
X11382933D01*
Y4024508D01*
Y4019510D01*
X11370437Y4002015D02*
X11367938Y4004514D01*
Y4009513D01*
X11370437Y4012012D01*
X11380434D01*
X11382933Y4009513D01*
Y4004514D01*
X11380434Y4002015D01*
X11367938Y3987020D02*
X11370437Y3992018D01*
X11375435Y3997017D01*
X11380434D01*
X11382933Y3994518D01*
Y3989519D01*
X11380434Y3987020D01*
X11377935D01*
X11375435Y3989519D01*
Y3997017D01*
X9547673Y3976102D02*
X9545174Y3978601D01*
Y3983599D01*
X9547673Y3986098D01*
X9557670D01*
X9560169Y3983599D01*
Y3978601D01*
X9557670Y3976102D01*
X9560169Y3971103D02*
Y3966105D01*
Y3968604D01*
X9545174D01*
X9547673Y3971103D01*
X9560169Y3951110D02*
X9545174D01*
X9552672Y3958607D01*
Y3948610D01*
X9545174Y3933615D02*
Y3943612D01*
X9552672D01*
X9550172Y3938613D01*
Y3936114D01*
X9552672Y3933615D01*
X9557670D01*
X9560169Y3936114D01*
Y3941113D01*
X9557670Y3943612D01*
X9547673Y4035157D02*
X9545174Y4037656D01*
Y4042654D01*
X9547673Y4045153D01*
X9557670D01*
X9560169Y4042654D01*
Y4037656D01*
X9557670Y4035157D01*
X9560169Y4030158D02*
Y4025160D01*
Y4027659D01*
X9545174D01*
X9547673Y4030158D01*
X9560169Y4010165D02*
X9545174D01*
X9552672Y4017662D01*
Y4007666D01*
X9560169Y3995169D02*
X9545174D01*
X9552672Y4002667D01*
Y3992670D01*
X9547673Y4094212D02*
X9545174Y4096711D01*
Y4101709D01*
X9547673Y4104209D01*
X9557670D01*
X9560169Y4101709D01*
Y4096711D01*
X9557670Y4094212D01*
X9560169Y4089213D02*
Y4084215D01*
Y4086714D01*
X9545174D01*
X9547673Y4089213D01*
X9560169Y4069220D02*
X9545174D01*
X9552672Y4076718D01*
Y4066721D01*
X9547673Y4061722D02*
X9545174Y4059223D01*
Y4054225D01*
X9547673Y4051726D01*
X9550172D01*
X9552672Y4054225D01*
Y4056724D01*
Y4054225D01*
X9555171Y4051726D01*
X9557670D01*
X9560169Y4054225D01*
Y4059223D01*
X9557670Y4061722D01*
X9547673Y4153267D02*
X9545174Y4155766D01*
Y4160765D01*
X9547673Y4163264D01*
X9557670D01*
X9560169Y4160765D01*
Y4155766D01*
X9557670Y4153267D01*
X9560169Y4148269D02*
Y4143270D01*
Y4145769D01*
X9545174D01*
X9547673Y4148269D01*
X9560169Y4128275D02*
X9545174D01*
X9552672Y4135773D01*
Y4125776D01*
X9560169Y4110780D02*
Y4120777D01*
X9550172Y4110780D01*
X9547673D01*
X9545174Y4113280D01*
Y4118278D01*
X9547673Y4120777D01*
X9522673Y4275692D02*
X9520174Y4278191D01*
Y4283190D01*
X9522673Y4285689D01*
X9532670D01*
X9535169Y4283190D01*
Y4278191D01*
X9532670Y4275692D01*
X9535169Y4270694D02*
Y4265695D01*
Y4268194D01*
X9520174D01*
X9522673Y4270694D01*
X9535169Y4250700D02*
X9520174D01*
X9527672Y4258198D01*
Y4248201D01*
X9535169Y4243203D02*
Y4238204D01*
Y4240703D01*
X9520174D01*
X9522673Y4243203D01*
X9926889Y4212169D02*
X9929388Y4214668D01*
X9934387D01*
X9936886Y4212169D01*
Y4202172D01*
X9934387Y4199673D01*
X9929388D01*
X9926889Y4202172D01*
X9921891Y4199673D02*
X9916892D01*
X9919391D01*
Y4214668D01*
X9921891Y4212169D01*
X9901897Y4199673D02*
Y4214668D01*
X9909395Y4207171D01*
X9899398D01*
X9894399Y4212169D02*
X9891900Y4214668D01*
X9886902D01*
X9884403Y4212169D01*
Y4202172D01*
X9886902Y4199673D01*
X9891900D01*
X9894399Y4202172D01*
Y4212169D01*
X10196421Y3884135D02*
X10198920Y3881635D01*
Y3876637D01*
X10196421Y3874138D01*
X10186424D01*
X10183925Y3876637D01*
Y3881635D01*
X10186424Y3884135D01*
X10183925Y3889133D02*
Y3894131D01*
Y3891632D01*
X10198920D01*
X10196421Y3889133D01*
Y3901629D02*
X10198920Y3904128D01*
Y3909127D01*
X10196421Y3911626D01*
X10193922D01*
X10191423Y3909127D01*
Y3906627D01*
Y3909127D01*
X10188924Y3911626D01*
X10186424D01*
X10183925Y3909127D01*
Y3904128D01*
X10186424Y3901629D01*
Y3916624D02*
X10183925Y3919123D01*
Y3924122D01*
X10186424Y3926621D01*
X10196421D01*
X10198920Y3924122D01*
Y3919123D01*
X10196421Y3916624D01*
X10193922D01*
X10191423Y3919123D01*
Y3926621D01*
X10111928Y4113744D02*
X10114428Y4116243D01*
X10119426D01*
X10121925Y4113744D01*
Y4103747D01*
X10119426Y4101248D01*
X10114428D01*
X10111928Y4103747D01*
X10106930Y4101248D02*
X10101932D01*
X10104431D01*
Y4116243D01*
X10106930Y4113744D01*
X10094434D02*
X10091935Y4116243D01*
X10086936D01*
X10084437Y4113744D01*
Y4111245D01*
X10086936Y4108746D01*
X10089436D01*
X10086936D01*
X10084437Y4106246D01*
Y4103747D01*
X10086936Y4101248D01*
X10091935D01*
X10094434Y4103747D01*
X10079439Y4113744D02*
X10076940Y4116243D01*
X10071941D01*
X10069442Y4113744D01*
Y4111245D01*
X10071941Y4108746D01*
X10069442Y4106246D01*
Y4103747D01*
X10071941Y4101248D01*
X10076940D01*
X10079439Y4103747D01*
Y4106246D01*
X10076940Y4108746D01*
X10079439Y4111245D01*
Y4113744D01*
X10076940Y4108746D02*
X10071941D01*
X9989881Y4212169D02*
X9992380Y4214668D01*
X9997379D01*
X9999878Y4212169D01*
Y4202172D01*
X9997379Y4199673D01*
X9992380D01*
X9989881Y4202172D01*
X9984883Y4199673D02*
X9979884D01*
X9982384D01*
Y4214668D01*
X9984883Y4212169D01*
X9972387D02*
X9969888Y4214668D01*
X9964889D01*
X9962390Y4212169D01*
Y4209670D01*
X9964889Y4207171D01*
X9967388D01*
X9964889D01*
X9962390Y4204672D01*
Y4202172D01*
X9964889Y4199673D01*
X9969888D01*
X9972387Y4202172D01*
X9957392Y4214668D02*
X9947395D01*
Y4212169D01*
X9957392Y4202172D01*
Y4199673D01*
X10650035Y3976102D02*
X10647536Y3978601D01*
Y3983599D01*
X10650035Y3986098D01*
X10660032D01*
X10662531Y3983599D01*
Y3978601D01*
X10660032Y3976102D01*
X10662531Y3971103D02*
Y3966105D01*
Y3968604D01*
X10647536D01*
X10650035Y3971103D01*
X10662531Y3948610D02*
Y3958607D01*
X10652535Y3948610D01*
X10650035D01*
X10647536Y3951110D01*
Y3956108D01*
X10650035Y3958607D01*
X10647536Y3943612D02*
Y3933615D01*
X10650035D01*
X10660032Y3943612D01*
X10662531D01*
X10650035Y4035157D02*
X10647536Y4037656D01*
Y4042654D01*
X10650035Y4045153D01*
X10660032D01*
X10662531Y4042654D01*
Y4037656D01*
X10660032Y4035157D01*
X10662531Y4030158D02*
Y4025160D01*
Y4027659D01*
X10647536D01*
X10650035Y4030158D01*
X10662531Y4007666D02*
Y4017662D01*
X10652534Y4007666D01*
X10650035D01*
X10647536Y4010165D01*
Y4015163D01*
X10650035Y4017662D01*
X10647536Y3992670D02*
X10650035Y3997669D01*
X10655034Y4002667D01*
X10660032D01*
X10662531Y4000168D01*
Y3995169D01*
X10660032Y3992670D01*
X10657533D01*
X10655034Y3995169D01*
Y4002667D01*
X10650035Y4094212D02*
X10647536Y4096711D01*
Y4101709D01*
X10650035Y4104209D01*
X10660032D01*
X10662531Y4101709D01*
Y4096711D01*
X10660032Y4094212D01*
X10662531Y4089213D02*
Y4084215D01*
Y4086714D01*
X10647536D01*
X10650035Y4089213D01*
X10662531Y4066721D02*
Y4076718D01*
X10652534Y4066721D01*
X10650035D01*
X10647536Y4069220D01*
Y4074218D01*
X10650035Y4076718D01*
X10647536Y4051726D02*
Y4061722D01*
X10655034D01*
X10652534Y4056724D01*
Y4054225D01*
X10655034Y4051726D01*
X10660032D01*
X10662531Y4054225D01*
Y4059223D01*
X10660032Y4061722D01*
X10650035Y4153267D02*
X10647536Y4155766D01*
Y4160765D01*
X10650035Y4163264D01*
X10660032D01*
X10662531Y4160765D01*
Y4155766D01*
X10660032Y4153267D01*
X10662531Y4148269D02*
Y4143270D01*
Y4145769D01*
X10647536D01*
X10650035Y4148269D01*
X10662531Y4125776D02*
Y4135773D01*
X10652535Y4125776D01*
X10650035D01*
X10647536Y4128275D01*
Y4133273D01*
X10650035Y4135773D01*
X10662531Y4113280D02*
X10647536D01*
X10655034Y4120777D01*
Y4110780D01*
X10625035Y4275692D02*
X10622536Y4278191D01*
Y4283190D01*
X10625035Y4285689D01*
X10635032D01*
X10637531Y4283190D01*
Y4278191D01*
X10635032Y4275692D01*
X10637531Y4270694D02*
Y4265695D01*
Y4268194D01*
X10622536D01*
X10625035Y4270694D01*
X10637531Y4248201D02*
Y4258198D01*
X10627535Y4248201D01*
X10625035D01*
X10622536Y4250700D01*
Y4255699D01*
X10625035Y4258198D01*
Y4243203D02*
X10622536Y4240703D01*
Y4235705D01*
X10625035Y4233206D01*
X10627535D01*
X10630034Y4235705D01*
Y4238204D01*
Y4235705D01*
X10632533Y4233206D01*
X10635032D01*
X10637531Y4235705D01*
Y4240703D01*
X10635032Y4243203D01*
X11029251Y4212169D02*
X11031750Y4214668D01*
X11036749D01*
X11039248Y4212169D01*
Y4202172D01*
X11036749Y4199673D01*
X11031750D01*
X11029251Y4202172D01*
X11024253Y4199673D02*
X11019254D01*
X11021754D01*
Y4214668D01*
X11024253Y4212169D01*
X11001760Y4199673D02*
X11011757D01*
X11001760Y4209670D01*
Y4212169D01*
X11004259Y4214668D01*
X11009258D01*
X11011757Y4212169D01*
X10986765Y4199673D02*
X10996762D01*
X10986765Y4209670D01*
Y4212169D01*
X10989264Y4214668D01*
X10994262D01*
X10996762Y4212169D01*
X11298783Y3884135D02*
X11301283Y3881635D01*
Y3876637D01*
X11298783Y3874138D01*
X11288787D01*
X11286287Y3876637D01*
Y3881635D01*
X11288787Y3884135D01*
X11286287Y3889133D02*
Y3894131D01*
Y3891632D01*
X11301283D01*
X11298783Y3889133D01*
X11286287Y3911626D02*
Y3901629D01*
X11296284Y3911626D01*
X11298783D01*
X11301283Y3909126D01*
Y3904128D01*
X11298783Y3901629D01*
X11286287Y3916624D02*
Y3921622D01*
Y3919123D01*
X11301283D01*
X11298783Y3916624D01*
X11214291Y4113744D02*
X11216790Y4116243D01*
X11221788D01*
X11224287Y4113744D01*
Y4103747D01*
X11221788Y4101248D01*
X11216790D01*
X11214291Y4103747D01*
X11209292Y4101248D02*
X11204294D01*
X11206793D01*
Y4116243D01*
X11209292Y4113744D01*
X11186799Y4101248D02*
X11196796D01*
X11186799Y4111245D01*
Y4113744D01*
X11189299Y4116243D01*
X11194297D01*
X11196796Y4113744D01*
X11181801D02*
X11179302Y4116243D01*
X11174303D01*
X11171804Y4113744D01*
Y4103747D01*
X11174303Y4101248D01*
X11179302D01*
X11181801Y4103747D01*
Y4113744D01*
X11092243Y4212169D02*
X11094743Y4214668D01*
X11099741D01*
X11102240Y4212169D01*
Y4202172D01*
X11099741Y4199673D01*
X11094743D01*
X11092243Y4202172D01*
X11087245Y4199673D02*
X11082247D01*
X11084746D01*
Y4214668D01*
X11087245Y4212169D01*
X11074749Y4199673D02*
X11069751D01*
X11072250D01*
Y4214668D01*
X11074749Y4212169D01*
X11062253Y4202172D02*
X11059754Y4199673D01*
X11054755D01*
X11052256Y4202172D01*
Y4212169D01*
X11054755Y4214668D01*
X11059754D01*
X11062253Y4212169D01*
Y4209670D01*
X11059754Y4207171D01*
X11052256D01*
X10098854Y3976102D02*
X10096355Y3978601D01*
Y3983599D01*
X10098854Y3986098D01*
X10108851D01*
X10111350Y3983599D01*
Y3978601D01*
X10108851Y3976102D01*
X10111350Y3971103D02*
Y3966105D01*
Y3968604D01*
X10096355D01*
X10098854Y3971103D01*
Y3958607D02*
X10096355Y3956108D01*
Y3951110D01*
X10098854Y3948610D01*
X10108851D01*
X10111350Y3951110D01*
Y3956108D01*
X10108851Y3958607D01*
X10098854D01*
X10111350Y3943612D02*
Y3938614D01*
Y3941113D01*
X10096355D01*
X10098854Y3943612D01*
X10098854Y4035157D02*
X10096355Y4037656D01*
Y4042654D01*
X10098854Y4045154D01*
X10108851D01*
X10111350Y4042654D01*
Y4037656D01*
X10108851Y4035157D01*
X10111350Y4030158D02*
Y4025160D01*
Y4027659D01*
X10096355D01*
X10098854Y4030158D01*
Y4017662D02*
X10096355Y4015163D01*
Y4010165D01*
X10098854Y4007666D01*
X10108851D01*
X10111350Y4010165D01*
Y4015163D01*
X10108851Y4017662D01*
X10098854D01*
Y4002667D02*
X10096355Y4000168D01*
Y3995170D01*
X10098854Y3992670D01*
X10108851D01*
X10111350Y3995170D01*
Y4000168D01*
X10108851Y4002667D01*
X10098854D01*
Y4094212D02*
X10096355Y4096711D01*
Y4101710D01*
X10098854Y4104209D01*
X10108851D01*
X10111350Y4101710D01*
Y4096711D01*
X10108851Y4094212D01*
Y4089214D02*
X10111350Y4086714D01*
Y4081716D01*
X10108851Y4079217D01*
X10098854D01*
X10096355Y4081716D01*
Y4086714D01*
X10098854Y4089214D01*
X10101353D01*
X10103853Y4086714D01*
Y4079217D01*
X10108851Y4074218D02*
X10111350Y4071719D01*
Y4066721D01*
X10108851Y4064222D01*
X10098854D01*
X10096355Y4066721D01*
Y4071719D01*
X10098854Y4074218D01*
X10101353D01*
X10103853Y4071719D01*
Y4064222D01*
X10098854Y4153267D02*
X10096355Y4155766D01*
Y4160765D01*
X10098854Y4163264D01*
X10108851D01*
X10111350Y4160765D01*
Y4155766D01*
X10108851Y4153267D01*
Y4148269D02*
X10111350Y4145769D01*
Y4140771D01*
X10108851Y4138272D01*
X10098854D01*
X10096355Y4140771D01*
Y4145769D01*
X10098854Y4148269D01*
X10101354D01*
X10103853Y4145769D01*
Y4138272D01*
X10098854Y4133273D02*
X10096355Y4130774D01*
Y4125776D01*
X10098854Y4123277D01*
X10101354D01*
X10103853Y4125776D01*
X10106352Y4123277D01*
X10108851D01*
X10111350Y4125776D01*
Y4130774D01*
X10108851Y4133273D01*
X10106352D01*
X10103853Y4130774D01*
X10101354Y4133273D01*
X10098854D01*
X10103853Y4130774D02*
Y4125776D01*
X10073854Y4275692D02*
X10071355Y4278191D01*
Y4283190D01*
X10073854Y4285689D01*
X10083851D01*
X10086350Y4283190D01*
Y4278191D01*
X10083851Y4275692D01*
Y4270694D02*
X10086350Y4268195D01*
Y4263196D01*
X10083851Y4260697D01*
X10073854D01*
X10071355Y4263196D01*
Y4268195D01*
X10073854Y4270694D01*
X10076354D01*
X10078853Y4268195D01*
Y4260697D01*
X10071355Y4255699D02*
Y4245702D01*
X10073854D01*
X10083851Y4255699D01*
X10086350D01*
X10478070Y4212169D02*
X10480569Y4214668D01*
X10485568D01*
X10488067Y4212169D01*
Y4202172D01*
X10485568Y4199673D01*
X10480569D01*
X10478070Y4202172D01*
X10473072D02*
X10470573Y4199673D01*
X10465574D01*
X10463075Y4202172D01*
Y4212169D01*
X10465574Y4214668D01*
X10470573D01*
X10473072Y4212169D01*
Y4209670D01*
X10470573Y4207171D01*
X10463075D01*
X10448080Y4214668D02*
X10453078Y4212169D01*
X10458076Y4207171D01*
Y4202172D01*
X10455577Y4199673D01*
X10450579D01*
X10448080Y4202172D01*
Y4204672D01*
X10450579Y4207171D01*
X10458076D01*
X10747602Y3884135D02*
X10750102Y3881635D01*
Y3876637D01*
X10747602Y3874138D01*
X10737606D01*
X10735106Y3876637D01*
Y3881635D01*
X10737606Y3884135D01*
Y3889133D02*
X10735106Y3891632D01*
Y3896631D01*
X10737606Y3899130D01*
X10747602D01*
X10750102Y3896631D01*
Y3891632D01*
X10747602Y3889133D01*
X10745103D01*
X10742604Y3891632D01*
Y3899130D01*
X10750102Y3914125D02*
Y3904128D01*
X10742604D01*
X10745103Y3909126D01*
Y3911626D01*
X10742604Y3914125D01*
X10737606D01*
X10735106Y3911626D01*
Y3906627D01*
X10737606Y3904128D01*
X10663110Y4113744D02*
X10665609Y4116243D01*
X10670607D01*
X10673106Y4113744D01*
Y4103747D01*
X10670607Y4101248D01*
X10665609D01*
X10663110Y4103747D01*
X10658111D02*
X10655612Y4101248D01*
X10650613D01*
X10648114Y4103747D01*
Y4113744D01*
X10650613Y4116243D01*
X10655612D01*
X10658111Y4113744D01*
Y4111245D01*
X10655612Y4108746D01*
X10648114D01*
X10635618Y4101248D02*
Y4116243D01*
X10643116Y4108746D01*
X10633119D01*
X10541062Y4212169D02*
X10543561Y4214668D01*
X10548560D01*
X10551059Y4212169D01*
Y4202172D01*
X10548560Y4199673D01*
X10543561D01*
X10541062Y4202172D01*
X10536064D02*
X10533565Y4199673D01*
X10528566D01*
X10526067Y4202172D01*
Y4212169D01*
X10528566Y4214668D01*
X10533565D01*
X10536064Y4212169D01*
Y4209670D01*
X10533565Y4207171D01*
X10526067D01*
X10521069Y4212169D02*
X10518569Y4214668D01*
X10513571D01*
X10511072Y4212169D01*
Y4209670D01*
X10513571Y4207171D01*
X10516070D01*
X10513571D01*
X10511072Y4204672D01*
Y4202172D01*
X10513571Y4199673D01*
X10518569D01*
X10521069Y4202172D01*
X11201217Y3976102D02*
X11198717Y3978601D01*
Y3983599D01*
X11201217Y3986098D01*
X11211213D01*
X11213713Y3983599D01*
Y3978601D01*
X11211213Y3976102D01*
X11198717Y3971103D02*
Y3961106D01*
X11201217D01*
X11211213Y3971103D01*
X11213713D01*
Y3948610D02*
X11198717D01*
X11206215Y3956108D01*
Y3946111D01*
X11201217Y4035157D02*
X11198717Y4037656D01*
Y4042654D01*
X11201217Y4045154D01*
X11211213D01*
X11213713Y4042654D01*
Y4037656D01*
X11211213Y4035157D01*
X11198717Y4030158D02*
Y4020162D01*
X11201217D01*
X11211213Y4030158D01*
X11213713D01*
X11201217Y4015163D02*
X11198717Y4012664D01*
Y4007666D01*
X11201217Y4005166D01*
X11203716D01*
X11206215Y4007666D01*
Y4010165D01*
Y4007666D01*
X11208714Y4005166D01*
X11211213D01*
X11213713Y4007666D01*
Y4012664D01*
X11211213Y4015163D01*
X11201217Y4094212D02*
X11198717Y4096711D01*
Y4101710D01*
X11201217Y4104209D01*
X11211213D01*
X11213712Y4101710D01*
Y4096711D01*
X11211213Y4094212D01*
X11198717Y4089214D02*
Y4079217D01*
X11201217D01*
X11211213Y4089214D01*
X11213712D01*
Y4064222D02*
Y4074218D01*
X11203716Y4064222D01*
X11201217D01*
X11198717Y4066721D01*
Y4071719D01*
X11201217Y4074218D01*
X11201217Y4153267D02*
X11198717Y4155766D01*
Y4160765D01*
X11201217Y4163264D01*
X11211213D01*
X11213713Y4160765D01*
Y4155766D01*
X11211213Y4153267D01*
X11198717Y4148269D02*
Y4138272D01*
X11201217D01*
X11211213Y4148269D01*
X11213713D01*
Y4133273D02*
Y4128275D01*
Y4130774D01*
X11198717D01*
X11201217Y4133273D01*
X11176217Y4275692D02*
X11173717Y4278191D01*
Y4283190D01*
X11176217Y4285689D01*
X11186213D01*
X11188713Y4283190D01*
Y4278191D01*
X11186213Y4275692D01*
X11173717Y4270694D02*
Y4260697D01*
X11176217D01*
X11186213Y4270694D01*
X11188713D01*
X11176217Y4255699D02*
X11173717Y4253199D01*
Y4248201D01*
X11176217Y4245702D01*
X11186213D01*
X11188713Y4248201D01*
Y4253199D01*
X11186213Y4255699D01*
X11176217D01*
X11580432Y4212169D02*
X11582932Y4214668D01*
X11587930D01*
X11590429Y4212169D01*
Y4202172D01*
X11587930Y4199673D01*
X11582932D01*
X11580432Y4202172D01*
X11565437Y4214668D02*
X11570436Y4212169D01*
X11575434Y4207171D01*
Y4202172D01*
X11572935Y4199673D01*
X11567936D01*
X11565437Y4202172D01*
Y4204672D01*
X11567936Y4207171D01*
X11575434D01*
X11560439Y4202172D02*
X11557940Y4199673D01*
X11552941D01*
X11550442Y4202172D01*
Y4212169D01*
X11552941Y4214668D01*
X11557940D01*
X11560439Y4212169D01*
Y4209670D01*
X11557940Y4207171D01*
X11550442D01*
X11849965Y3884135D02*
X11852464Y3881635D01*
Y3876637D01*
X11849965Y3874138D01*
X11839968D01*
X11837469Y3876637D01*
Y3881635D01*
X11839968Y3884135D01*
X11852464Y3899130D02*
X11849965Y3894131D01*
X11844966Y3889133D01*
X11839968D01*
X11837469Y3891632D01*
Y3896631D01*
X11839968Y3899130D01*
X11842467D01*
X11844966Y3896631D01*
Y3889133D01*
X11849965Y3904128D02*
X11852464Y3906627D01*
Y3911626D01*
X11849965Y3914125D01*
X11847465D01*
X11844966Y3911626D01*
X11842467Y3914125D01*
X11839968D01*
X11837469Y3911626D01*
Y3906627D01*
X11839968Y3904128D01*
X11842467D01*
X11844966Y3906627D01*
X11847465Y3904128D01*
X11849965D01*
X11844966Y3906627D02*
Y3911626D01*
X11765472Y4113744D02*
X11767971Y4116243D01*
X11772969D01*
X11775469Y4113744D01*
Y4103747D01*
X11772969Y4101248D01*
X11767971D01*
X11765472Y4103747D01*
X11750477Y4116243D02*
X11755475Y4113744D01*
X11760473Y4108746D01*
Y4103747D01*
X11757974Y4101248D01*
X11752976D01*
X11750477Y4103747D01*
Y4106246D01*
X11752976Y4108746D01*
X11760473D01*
X11745478Y4116243D02*
X11735481D01*
Y4113744D01*
X11745478Y4103747D01*
Y4101248D01*
X11643424Y4212169D02*
X11645924Y4214668D01*
X11650922D01*
X11653421Y4212169D01*
Y4202172D01*
X11650922Y4199673D01*
X11645924D01*
X11643424Y4202172D01*
X11628429Y4214668D02*
X11633428Y4212169D01*
X11638426Y4207171D01*
Y4202172D01*
X11635927Y4199673D01*
X11630928D01*
X11628429Y4202172D01*
Y4204672D01*
X11630928Y4207171D01*
X11638426D01*
X11613434Y4214668D02*
X11618433Y4212169D01*
X11623431Y4207171D01*
Y4202172D01*
X11620932Y4199673D01*
X11615933D01*
X11613434Y4202172D01*
Y4204672D01*
X11615933Y4207171D01*
X11623431D01*
X8334711Y8124516D02*
X8337210Y8127015D01*
X8342209D01*
X8344708Y8124516D01*
Y8114519D01*
X8342209Y8112020D01*
X8337210D01*
X8334711Y8114519D01*
X8322215Y8112020D02*
Y8127015D01*
X8329713Y8119517D01*
X8319716D01*
X8304721Y8112020D02*
X8314717D01*
X8304721Y8122016D01*
Y8124516D01*
X8307220Y8127015D01*
X8312218D01*
X8314717Y8124516D01*
X8289725Y8112020D02*
X8299722D01*
X8289725Y8122016D01*
Y8124516D01*
X8292225Y8127015D01*
X8297223D01*
X8299722Y8124516D01*
X8332212Y8154516D02*
X8334711Y8157015D01*
X8339709D01*
X8342209Y8154516D01*
Y8144519D01*
X8339709Y8142020D01*
X8334711D01*
X8332212Y8144519D01*
X8319716Y8142020D02*
Y8157015D01*
X8327213Y8149517D01*
X8317217D01*
X8302221Y8142020D02*
X8312218D01*
X8302221Y8152016D01*
Y8154516D01*
X8304721Y8157015D01*
X8309719D01*
X8312218Y8154516D01*
X8297223Y8142020D02*
X8292225D01*
X8294724D01*
Y8157015D01*
X8297223Y8154516D01*
X7757708Y8036201D02*
X7760207Y8038700D01*
X7765206D01*
X7767705Y8036201D01*
Y8026204D01*
X7765206Y8023705D01*
X7760207D01*
X7757708Y8026204D01*
X7745212Y8023705D02*
Y8038700D01*
X7752709Y8031202D01*
X7742713D01*
X7737714Y8023705D02*
X7732716D01*
X7735215D01*
Y8038700D01*
X7737714Y8036201D01*
X7725218D02*
X7722719Y8038700D01*
X7717721D01*
X7715221Y8036201D01*
Y8033702D01*
X7717721Y8031202D01*
X7715221Y8028703D01*
Y8026204D01*
X7717721Y8023705D01*
X7722719D01*
X7725218Y8026204D01*
Y8028703D01*
X7722719Y8031202D01*
X7725218Y8033702D01*
Y8036201D01*
X7722719Y8031202D02*
X7717721D01*
X7757708Y8006201D02*
X7760207Y8008700D01*
X7765206D01*
X7767705Y8006201D01*
Y7996204D01*
X7765206Y7993705D01*
X7760207D01*
X7757708Y7996204D01*
X7745212Y7993705D02*
Y8008700D01*
X7752709Y8001202D01*
X7742713D01*
X7737714Y7993705D02*
X7732716D01*
X7735215D01*
Y8008700D01*
X7737714Y8006201D01*
X7715221Y8008700D02*
X7720220Y8006201D01*
X7725218Y8001202D01*
Y7996204D01*
X7722719Y7993705D01*
X7717721D01*
X7715221Y7996204D01*
Y7998703D01*
X7717721Y8001202D01*
X7725218D01*
X7986988Y7767882D02*
X7989487Y7765383D01*
Y7760385D01*
X7986988Y7757886D01*
X7976991D01*
X7974492Y7760385D01*
Y7765383D01*
X7976991Y7767882D01*
X7974492Y7780378D02*
X7989487D01*
X7981990Y7772881D01*
Y7782878D01*
X7974492Y7797873D02*
Y7787876D01*
X7984489Y7797873D01*
X7986988D01*
X7989487Y7795374D01*
Y7790375D01*
X7986988Y7787876D01*
Y7802871D02*
X7989487Y7805370D01*
Y7810369D01*
X7986988Y7812868D01*
X7976991D01*
X7974492Y7810369D01*
Y7805370D01*
X7976991Y7802871D01*
X7986988D01*
X8016988Y7767882D02*
X8019487Y7765383D01*
Y7760385D01*
X8016988Y7757886D01*
X8006991D01*
X8004492Y7760385D01*
Y7765383D01*
X8006991Y7767882D01*
X8004492Y7780378D02*
X8019487D01*
X8011990Y7772881D01*
Y7782878D01*
X8004492Y7787876D02*
Y7792874D01*
Y7790375D01*
X8019487D01*
X8016988Y7787876D01*
X8006991Y7800372D02*
X8004492Y7802871D01*
Y7807870D01*
X8006991Y7810369D01*
X8016988D01*
X8019487Y7807870D01*
Y7802871D01*
X8016988Y7800372D01*
X8014489D01*
X8011990Y7802871D01*
Y7810369D01*
X8144239Y7767883D02*
X8146738Y7765383D01*
Y7760385D01*
X8144239Y7757886D01*
X8134242D01*
X8131743Y7760385D01*
Y7765383D01*
X8134242Y7767883D01*
X8131743Y7780379D02*
X8146738D01*
X8139241Y7772881D01*
Y7782878D01*
X8131743Y7787876D02*
Y7792875D01*
Y7790375D01*
X8146738D01*
X8144239Y7787876D01*
X8146738Y7800372D02*
Y7810369D01*
X8144239D01*
X8134242Y7800372D01*
X8131743D01*
X8174239Y7767883D02*
X8176738Y7765383D01*
Y7760385D01*
X8174239Y7757886D01*
X8164242D01*
X8161743Y7760385D01*
Y7765383D01*
X8164242Y7767883D01*
X8161743Y7780379D02*
X8176738D01*
X8169241Y7772881D01*
Y7782878D01*
X8161743Y7787876D02*
Y7792875D01*
Y7790375D01*
X8176738D01*
X8174239Y7787876D01*
X8176738Y7810369D02*
Y7800372D01*
X8169241D01*
X8171740Y7805371D01*
Y7807870D01*
X8169241Y7810369D01*
X8164242D01*
X8161743Y7807870D01*
Y7802871D01*
X8164242Y7800372D01*
X7404914Y8187673D02*
X7402415Y8185174D01*
X7397416D01*
X7394917Y8187673D01*
Y8197670D01*
X7397416Y8200169D01*
X7402415D01*
X7404914Y8197670D01*
X7409912Y8187673D02*
X7412412Y8185174D01*
X7417410D01*
X7419909Y8187673D01*
Y8190172D01*
X7417410Y8192672D01*
X7414911D01*
X7417410D01*
X7419909Y8195171D01*
Y8197670D01*
X7417410Y8200169D01*
X7412412D01*
X7409912Y8197670D01*
X7424908Y8200169D02*
X7429906D01*
X7427407D01*
Y8185174D01*
X7424908Y8187673D01*
X7444901Y8200169D02*
Y8185174D01*
X7437404Y8192672D01*
X7447400D01*
X7262198Y8158145D02*
X7259698Y8155646D01*
X7254700D01*
X7252201Y8158145D01*
Y8168142D01*
X7254700Y8170641D01*
X7259698D01*
X7262198Y8168142D01*
X7267196Y8158145D02*
X7269695Y8155646D01*
X7274694D01*
X7277193Y8158145D01*
Y8160645D01*
X7274694Y8163144D01*
X7272194D01*
X7274694D01*
X7277193Y8165643D01*
Y8168142D01*
X7274694Y8170641D01*
X7269695D01*
X7267196Y8168142D01*
X7282191Y8170641D02*
X7287190D01*
X7284690D01*
Y8155646D01*
X7282191Y8158145D01*
X7294687D02*
X7297186Y8155646D01*
X7302185D01*
X7304684Y8158145D01*
Y8160645D01*
X7302185Y8163144D01*
X7299686D01*
X7302185D01*
X7304684Y8165643D01*
Y8168142D01*
X7302185Y8170641D01*
X7297186D01*
X7294687Y8168142D01*
X7280125Y8891067D02*
X7282624Y8893566D01*
X7287623D01*
X7290122Y8891067D01*
Y8881070D01*
X7287623Y8878571D01*
X7282624D01*
X7280125Y8881070D01*
X7275127Y8891067D02*
X7272628Y8893566D01*
X7267629D01*
X7265130Y8891067D01*
Y8888568D01*
X7267629Y8886068D01*
X7270128D01*
X7267629D01*
X7265130Y8883569D01*
Y8881070D01*
X7267629Y8878571D01*
X7272628D01*
X7275127Y8881070D01*
X7260132Y8878571D02*
X7255133D01*
X7257632D01*
Y8893566D01*
X7260132Y8891067D01*
X7237639Y8878571D02*
X7247636D01*
X7237639Y8888568D01*
Y8891067D01*
X7240138Y8893566D01*
X7245136D01*
X7247636Y8891067D01*
X7339180D02*
X7341680Y8893566D01*
X7346678D01*
X7349177Y8891067D01*
Y8881070D01*
X7346678Y8878571D01*
X7341680D01*
X7339180Y8881070D01*
X7334182Y8891067D02*
X7331683Y8893566D01*
X7326684D01*
X7324185Y8891067D01*
Y8888568D01*
X7326684Y8886068D01*
X7329184D01*
X7326684D01*
X7324185Y8883569D01*
Y8881070D01*
X7326684Y8878571D01*
X7331683D01*
X7334182Y8881070D01*
X7319187Y8878571D02*
X7314188D01*
X7316688D01*
Y8893566D01*
X7319187Y8891067D01*
X7306691Y8878571D02*
X7301692D01*
X7304192D01*
Y8893566D01*
X7306691Y8891067D01*
X7476976D02*
X7479475Y8893566D01*
X7484473D01*
X7486972Y8891067D01*
Y8881070D01*
X7484473Y8878571D01*
X7479475D01*
X7476976Y8881070D01*
X7471977Y8891067D02*
X7469478Y8893566D01*
X7464480D01*
X7461980Y8891067D01*
Y8888568D01*
X7464480Y8886068D01*
X7466979D01*
X7464480D01*
X7461980Y8883569D01*
Y8881070D01*
X7464480Y8878571D01*
X7469478D01*
X7471977Y8881070D01*
X7456982Y8878571D02*
X7451984D01*
X7454483D01*
Y8893566D01*
X7456982Y8891067D01*
X7444486D02*
X7441987Y8893566D01*
X7436988D01*
X7434489Y8891067D01*
Y8881070D01*
X7436988Y8878571D01*
X7441987D01*
X7444486Y8881070D01*
Y8891067D01*
X7748350Y8625387D02*
X7750850Y8622887D01*
Y8617889D01*
X7748350Y8615390D01*
X7738354D01*
X7735854Y8617889D01*
Y8622887D01*
X7738354Y8625387D01*
X7748350Y8630385D02*
X7750850Y8632884D01*
Y8637882D01*
X7748350Y8640382D01*
X7745851D01*
X7743352Y8637882D01*
Y8635383D01*
Y8637882D01*
X7740853Y8640382D01*
X7738354D01*
X7735854Y8637882D01*
Y8632884D01*
X7738354Y8630385D01*
X7748350Y8645380D02*
X7750850Y8647879D01*
Y8652878D01*
X7748350Y8655377D01*
X7738354D01*
X7735854Y8652878D01*
Y8647879D01*
X7738354Y8645380D01*
X7748350D01*
X7738354Y8660375D02*
X7735854Y8662874D01*
Y8667873D01*
X7738354Y8670372D01*
X7748350D01*
X7750850Y8667873D01*
Y8662874D01*
X7748350Y8660375D01*
X7745851D01*
X7743352Y8662874D01*
Y8670372D01*
X7747366Y8526961D02*
X7749865Y8524462D01*
Y8519464D01*
X7747366Y8516965D01*
X7737369D01*
X7734870Y8519464D01*
Y8524462D01*
X7737369Y8526961D01*
X7747366Y8531960D02*
X7749865Y8534459D01*
Y8539457D01*
X7747366Y8541957D01*
X7744867D01*
X7742368Y8539457D01*
Y8536958D01*
Y8539457D01*
X7739869Y8541957D01*
X7737369D01*
X7734870Y8539457D01*
Y8534459D01*
X7737369Y8531960D01*
X7747366Y8546955D02*
X7749865Y8549454D01*
Y8554452D01*
X7747366Y8556952D01*
X7737369D01*
X7734870Y8554452D01*
Y8549454D01*
X7737369Y8546955D01*
X7747366D01*
Y8561950D02*
X7749865Y8564449D01*
Y8569448D01*
X7747366Y8571947D01*
X7744867D01*
X7742368Y8569448D01*
X7739869Y8571947D01*
X7737369D01*
X7734870Y8569448D01*
Y8564449D01*
X7737369Y8561950D01*
X7739869D01*
X7742368Y8564449D01*
X7744867Y8561950D01*
X7747366D01*
X7742368Y8564449D02*
Y8569448D01*
X7747366Y8467906D02*
X7749865Y8465407D01*
Y8460408D01*
X7747366Y8457909D01*
X7737369D01*
X7734870Y8460408D01*
Y8465407D01*
X7737369Y8467906D01*
X7747366Y8472905D02*
X7749865Y8475404D01*
Y8480402D01*
X7747366Y8482901D01*
X7744867D01*
X7742368Y8480402D01*
Y8477903D01*
Y8480402D01*
X7739869Y8482901D01*
X7737369D01*
X7734870Y8480402D01*
Y8475404D01*
X7737369Y8472905D01*
X7747366Y8487900D02*
X7749865Y8490399D01*
Y8495397D01*
X7747366Y8497897D01*
X7737369D01*
X7734870Y8495397D01*
Y8490399D01*
X7737369Y8487900D01*
X7747366D01*
X7749865Y8502895D02*
Y8512892D01*
X7747366D01*
X7737369Y8502895D01*
X7734870D01*
X7523024Y8188657D02*
X7520525Y8186158D01*
X7515527D01*
X7513028Y8188657D01*
Y8198654D01*
X7515527Y8201153D01*
X7520525D01*
X7523024Y8198654D01*
X7528023Y8188657D02*
X7530522Y8186158D01*
X7535520D01*
X7538020Y8188657D01*
Y8191157D01*
X7535520Y8193656D01*
X7533021D01*
X7535520D01*
X7538020Y8196155D01*
Y8198654D01*
X7535520Y8201153D01*
X7530522D01*
X7528023Y8198654D01*
X7543018Y8188657D02*
X7545517Y8186158D01*
X7550516D01*
X7553015Y8188657D01*
Y8198654D01*
X7550516Y8201153D01*
X7545517D01*
X7543018Y8198654D01*
Y8188657D01*
X7568010Y8186158D02*
X7563012Y8188657D01*
X7558013Y8193656D01*
Y8198654D01*
X7560512Y8201153D01*
X7565511D01*
X7568010Y8198654D01*
Y8196155D01*
X7565511Y8193656D01*
X7558013D01*
X7306489Y8187673D02*
X7303989Y8185174D01*
X7298991D01*
X7296492Y8187673D01*
Y8197670D01*
X7298991Y8200169D01*
X7303989D01*
X7306489Y8197670D01*
X7311487Y8187673D02*
X7313986Y8185174D01*
X7318985D01*
X7321484Y8187673D01*
Y8190172D01*
X7318985Y8192672D01*
X7316485D01*
X7318985D01*
X7321484Y8195171D01*
Y8197670D01*
X7318985Y8200169D01*
X7313986D01*
X7311487Y8197670D01*
X7326482Y8187673D02*
X7328981Y8185174D01*
X7333980D01*
X7336479Y8187673D01*
Y8197670D01*
X7333980Y8200169D01*
X7328981D01*
X7326482Y8197670D01*
Y8187673D01*
X7351474Y8185174D02*
X7341477D01*
Y8192672D01*
X7346476Y8190172D01*
X7348975D01*
X7351474Y8192672D01*
Y8197670D01*
X7348975Y8200169D01*
X7343977D01*
X7341477Y8197670D01*
X7055783Y8677763D02*
X7053284Y8680262D01*
Y8685261D01*
X7055783Y8687760D01*
X7065780D01*
X7068279Y8685261D01*
Y8680262D01*
X7065780Y8677763D01*
X7055783Y8672764D02*
X7053284Y8670265D01*
Y8665267D01*
X7055783Y8662768D01*
X7058283D01*
X7060782Y8665267D01*
Y8667766D01*
Y8665267D01*
X7063281Y8662768D01*
X7065780D01*
X7068279Y8665267D01*
Y8670265D01*
X7065780Y8672764D01*
X7055783Y8657769D02*
X7053284Y8655270D01*
Y8650272D01*
X7055783Y8647772D01*
X7065780D01*
X7068279Y8650272D01*
Y8655270D01*
X7065780Y8657769D01*
X7055783D01*
X7068279Y8635276D02*
X7053284D01*
X7060782Y8642774D01*
Y8632777D01*
X7748350Y8684442D02*
X7750850Y8681942D01*
Y8676944D01*
X7748350Y8674445D01*
X7738354D01*
X7735854Y8676944D01*
Y8681942D01*
X7738354Y8684442D01*
X7748350Y8689440D02*
X7750850Y8691939D01*
Y8696938D01*
X7748350Y8699437D01*
X7745851D01*
X7743352Y8696938D01*
Y8694438D01*
Y8696938D01*
X7740853Y8699437D01*
X7738354D01*
X7735854Y8696938D01*
Y8691939D01*
X7738354Y8689440D01*
X7748350Y8704435D02*
X7750850Y8706934D01*
Y8711933D01*
X7748350Y8714432D01*
X7738354D01*
X7735854Y8711933D01*
Y8706934D01*
X7738354Y8704435D01*
X7748350D01*
Y8719430D02*
X7750850Y8721930D01*
Y8726928D01*
X7748350Y8729427D01*
X7745851D01*
X7743352Y8726928D01*
Y8724429D01*
Y8726928D01*
X7740853Y8729427D01*
X7738354D01*
X7735854Y8726928D01*
Y8721930D01*
X7738354Y8719430D01*
X7736322Y8858958D02*
X7739857D01*
X7743391Y8855424D01*
Y8851889D01*
X7736322Y8844820D01*
X7732788D01*
X7729253Y8848355D01*
Y8851889D01*
X7732788Y8862492D02*
Y8866027D01*
X7729253Y8869561D01*
X7725719D01*
X7723952Y8867794D01*
Y8864260D01*
X7725719Y8862492D01*
X7723952Y8864260D01*
X7720417D01*
X7718650Y8862492D01*
Y8858958D01*
X7722185Y8855424D01*
X7725719D01*
X7722185Y8873095D02*
Y8876630D01*
X7718650Y8880164D01*
X7715116D01*
X7708047Y8873095D01*
Y8869561D01*
X7711581Y8866027D01*
X7715116D01*
X7722185Y8873095D01*
X7695677Y8881932D02*
X7702745Y8874863D01*
Y8889000D01*
X7704513Y8890767D01*
X7708047D01*
X7711581Y8887233D01*
Y8883699D01*
X8168352Y7378246D02*
Y7381781D01*
X8171887Y7385315D01*
X8175421D01*
X8182490Y7378246D01*
Y7374712D01*
X8178955Y7371177D01*
X8175421D01*
X8166585Y7358807D02*
X8173654Y7365876D01*
X8159516D01*
X8157749Y7367643D01*
Y7371177D01*
X8161283Y7374712D01*
X8164818D01*
X8157749Y7349971D02*
X8147146Y7360574D01*
X8157749D01*
X8150680Y7353505D01*
X8147146Y7339368D02*
X8136543Y7349971D01*
X8147146D01*
X8140077Y7342902D01*
X8283510Y7480608D02*
Y7484143D01*
X8287044Y7487677D01*
X8290579D01*
X8297647Y7480608D01*
Y7477074D01*
X8294113Y7473539D01*
X8290579D01*
X8281743Y7461169D02*
X8288811Y7468238D01*
X8274674D01*
X8272907Y7470005D01*
Y7473539D01*
X8276441Y7477074D01*
X8279975D01*
X8272907Y7452333D02*
X8262303Y7462936D01*
X8272907D01*
X8265838Y7455868D01*
X8258769D02*
X8255235D01*
X8251700Y7452333D01*
Y7448799D01*
X8253467Y7447032D01*
X8257002D01*
X8258769Y7448799D01*
X8257002Y7447032D01*
Y7443497D01*
X8258769Y7441730D01*
X8262303D01*
X8265838Y7445264D01*
Y7448799D01*
X8820821Y6901281D02*
Y6897747D01*
X8817286Y6894212D01*
X8813752D01*
X8806683Y6901281D01*
Y6904816D01*
X8810218Y6908350D01*
X8813752D01*
X8822588Y6920721D02*
X8815519Y6913652D01*
X8829657D01*
X8831424Y6911885D01*
Y6908350D01*
X8827889Y6904816D01*
X8824355D01*
X8831424Y6929556D02*
X8842027Y6918953D01*
X8831424D01*
X8838493Y6926022D01*
X8843794Y6941927D02*
X8836726Y6934858D01*
X8850863D01*
X8852630Y6933091D01*
Y6929556D01*
X8849096Y6926022D01*
X8845561D01*
X8779482Y6859943D02*
Y6856408D01*
X8775948Y6852874D01*
X8772414D01*
X8765345Y6859943D01*
Y6863477D01*
X8768879Y6867011D01*
X8772414D01*
X8781250Y6879382D02*
X8774181Y6872313D01*
X8788318D01*
X8790086Y6870546D01*
Y6867011D01*
X8786551Y6863477D01*
X8783017D01*
X8790086Y6888218D02*
X8800689Y6877615D01*
X8790086D01*
X8797154Y6884683D01*
X8795387Y6893519D02*
X8798922Y6897054D01*
X8797154Y6895287D01*
X8807758Y6884683D01*
X8804223D01*
X8682041Y6762502D02*
Y6758967D01*
X8678507Y6755433D01*
X8674972D01*
X8667904Y6762502D01*
Y6766036D01*
X8671438Y6769571D01*
X8674972D01*
X8683808Y6781941D02*
X8676740Y6774872D01*
X8690877D01*
X8692644Y6773105D01*
Y6769571D01*
X8689110Y6766036D01*
X8685576D01*
X8692644Y6790777D02*
X8703248Y6780174D01*
X8692644D01*
X8699713Y6787243D01*
X8706782D02*
X8710316D01*
X8713851Y6790777D01*
Y6794311D01*
X8706782Y6801380D01*
X8703248D01*
X8699713Y6797846D01*
Y6794311D01*
X8706782Y6787243D01*
X8263486Y6768746D02*
X8259952D01*
X8256417Y6772280D01*
Y6775815D01*
X8263486Y6782884D01*
X8267020D01*
X8270555Y6779349D01*
Y6775815D01*
X8282925Y6766979D02*
X8275856Y6774048D01*
Y6759910D01*
X8274089Y6758143D01*
X8270555D01*
X8267020Y6761677D01*
Y6765212D01*
X8277624Y6754609D02*
Y6751074D01*
X8281158Y6747540D01*
X8284692D01*
X8286460Y6749307D01*
Y6752841D01*
X8284692Y6754609D01*
X8286460Y6752841D01*
X8289994D01*
X8291761Y6754609D01*
Y6758143D01*
X8288227Y6761677D01*
X8284692D01*
X8295296Y6751074D02*
X8298830D01*
X8302364Y6747540D01*
Y6744005D01*
X8295296Y6736936D01*
X8291761D01*
X8288227Y6740471D01*
Y6744005D01*
X8289994Y6745773D01*
X8293528D01*
X8298830Y6740471D01*
X8191636Y6836659D02*
X8188101D01*
X8184567Y6840194D01*
Y6843728D01*
X8191636Y6850797D01*
X8195170D01*
X8198704Y6847262D01*
Y6843728D01*
X8211075Y6834892D02*
X8204006Y6841961D01*
Y6827823D01*
X8202239Y6826056D01*
X8198704D01*
X8195170Y6829590D01*
Y6833125D01*
X8205773Y6822522D02*
Y6818987D01*
X8209308Y6815453D01*
X8212842D01*
X8214609Y6817220D01*
Y6820754D01*
X8212842Y6822522D01*
X8214609Y6820754D01*
X8218144D01*
X8219911Y6822522D01*
Y6826056D01*
X8216377Y6829590D01*
X8212842D01*
X8216377Y6811918D02*
Y6808384D01*
X8219911Y6804850D01*
X8223445D01*
X8225212Y6806617D01*
Y6810151D01*
X8228747D01*
X8230514Y6811918D01*
Y6815453D01*
X8226980Y6818987D01*
X8223445D01*
X8221678Y6817220D01*
Y6813686D01*
X8218144D01*
X8216377Y6811918D01*
X8221678Y6813686D02*
X8225212Y6810151D01*
X8150297Y6878982D02*
X8146762D01*
X8143228Y6882517D01*
Y6886051D01*
X8150297Y6893120D01*
X8153831D01*
X8157366Y6889585D01*
Y6886051D01*
X8169736Y6877215D02*
X8162667Y6884284D01*
Y6870146D01*
X8160900Y6868379D01*
X8157366D01*
X8153831Y6871913D01*
Y6875448D01*
X8164435Y6864845D02*
Y6861310D01*
X8167969Y6857776D01*
X8171503D01*
X8173270Y6859543D01*
Y6863077D01*
X8171503Y6864845D01*
X8173270Y6863077D01*
X8176805D01*
X8178572Y6864845D01*
Y6868379D01*
X8175038Y6871913D01*
X8171503D01*
X8173270Y6852474D02*
X8180339Y6845405D01*
X8182106Y6847173D01*
Y6861310D01*
X8183874Y6863077D01*
X8107329Y7275884D02*
Y7279418D01*
X8110863Y7282953D01*
X8114397D01*
X8121466Y7275884D01*
Y7272350D01*
X8117932Y7268815D01*
X8114397D01*
X8105561Y7256445D02*
X8112630Y7263514D01*
X8098493D01*
X8096725Y7265281D01*
Y7268815D01*
X8100260Y7272350D01*
X8103794D01*
X8093191Y7261746D02*
X8089657D01*
X8086122Y7258212D01*
Y7254677D01*
X8087889Y7252910D01*
X8091424D01*
X8093191Y7254677D01*
X8091424Y7252910D01*
Y7249376D01*
X8093191Y7247609D01*
X8096725D01*
X8100260Y7251143D01*
Y7254677D01*
X8073752Y7245842D02*
X8079053Y7247609D01*
X8086122D01*
X8089657Y7244074D01*
Y7240540D01*
X8086122Y7237006D01*
X8082588D01*
X8080821Y7238773D01*
Y7242307D01*
X8086122Y7247609D01*
X8264809Y7421553D02*
Y7425088D01*
X8268343Y7428622D01*
X8271878D01*
X8278947Y7421553D01*
Y7418019D01*
X8275412Y7414484D01*
X8271878D01*
X8263042Y7402114D02*
X8270111Y7409183D01*
X8255973D01*
X8254206Y7410950D01*
Y7414484D01*
X8257740Y7418019D01*
X8261275D01*
X8250671Y7407416D02*
X8247137D01*
X8243603Y7403881D01*
Y7400347D01*
X8245370Y7398580D01*
X8248904D01*
X8250671Y7400347D01*
X8248904Y7398580D01*
Y7395045D01*
X8250671Y7393278D01*
X8254206D01*
X8257740Y7396812D01*
Y7400347D01*
X8231232Y7391511D02*
X8238301Y7398580D01*
X8243603Y7393278D01*
X8238301Y7391511D01*
X8236534Y7389744D01*
Y7386209D01*
X8240068Y7382675D01*
X8243603D01*
X8247137Y7386209D01*
Y7389744D01*
X8819191Y7254876D02*
X8822726D01*
X8826260Y7251342D01*
Y7247807D01*
X8819191Y7240738D01*
X8815657D01*
X8812122Y7244273D01*
Y7247807D01*
X8799752Y7256643D02*
X8806821Y7249574D01*
Y7263712D01*
X8808588Y7265479D01*
X8812122D01*
X8815657Y7261945D01*
Y7258410D01*
X8805053Y7269014D02*
Y7272548D01*
X8801519Y7276082D01*
X8797985D01*
X8796218Y7274315D01*
Y7270781D01*
X8797985Y7269014D01*
X8796218Y7270781D01*
X8792683D01*
X8790916Y7269014D01*
Y7265479D01*
X8794450Y7261945D01*
X8797985D01*
X8780313Y7276082D02*
X8790916Y7286686D01*
Y7276082D01*
X8783847Y7283151D01*
X8458064Y6649287D02*
X8455564Y6646788D01*
X8450566D01*
X8448067Y6649287D01*
Y6659284D01*
X8450566Y6661783D01*
X8455564D01*
X8458064Y6659284D01*
X8473059Y6661783D02*
X8463062D01*
X8473059Y6651787D01*
Y6649287D01*
X8470559Y6646788D01*
X8465561D01*
X8463062Y6649287D01*
X8478057D02*
X8480556Y6646788D01*
X8485555D01*
X8488054Y6649287D01*
Y6651787D01*
X8485555Y6654286D01*
X8483056D01*
X8485555D01*
X8488054Y6656785D01*
Y6659284D01*
X8485555Y6661783D01*
X8480556D01*
X8478057Y6659284D01*
X8493052Y6649287D02*
X8495551Y6646788D01*
X8500550D01*
X8503049Y6649287D01*
Y6651787D01*
X8500550Y6654286D01*
X8498051D01*
X8500550D01*
X8503049Y6656785D01*
Y6659284D01*
X8500550Y6661783D01*
X8495551D01*
X8493052Y6659284D01*
X8478070Y7538941D02*
X8480569Y7541440D01*
X8485568D01*
X8488067Y7538941D01*
Y7528944D01*
X8485568Y7526445D01*
X8480569D01*
X8478070Y7528944D01*
X8463075Y7526445D02*
X8473072D01*
X8463075Y7536442D01*
Y7538941D01*
X8465574Y7541440D01*
X8470573D01*
X8473072Y7538941D01*
X8458076D02*
X8455577Y7541440D01*
X8450579D01*
X8448080Y7538941D01*
Y7536442D01*
X8450579Y7533943D01*
X8453078D01*
X8450579D01*
X8448080Y7531443D01*
Y7528944D01*
X8450579Y7526445D01*
X8455577D01*
X8458076Y7528944D01*
X8433085Y7526445D02*
X8443081D01*
X8433085Y7536442D01*
Y7538941D01*
X8435584Y7541440D01*
X8440582D01*
X8443081Y7538941D01*
X7258903Y7382183D02*
Y7385718D01*
X7262438Y7389252D01*
X7265972D01*
X7273041Y7382183D01*
Y7378649D01*
X7269507Y7375114D01*
X7265972D01*
X7257136Y7362744D02*
X7264205Y7369813D01*
X7250067D01*
X7248300Y7371580D01*
Y7375114D01*
X7251835Y7378649D01*
X7255369D01*
X7253602Y7359210D02*
X7250067Y7355675D01*
X7251835Y7357442D01*
X7241231Y7368046D01*
X7244766D01*
X7239464Y7345072D02*
X7228861Y7355675D01*
X7239464D01*
X7232395Y7348606D01*
X7377014Y7483561D02*
Y7487096D01*
X7380548Y7490630D01*
X7384083D01*
X7391151Y7483561D01*
Y7480027D01*
X7387617Y7476492D01*
X7384083D01*
X7375247Y7464122D02*
X7382315Y7471191D01*
X7368178D01*
X7366410Y7472958D01*
Y7476492D01*
X7369945Y7480027D01*
X7373479D01*
X7371712Y7460588D02*
X7368178Y7457053D01*
X7369945Y7458820D01*
X7359342Y7469424D01*
X7362876D01*
X7354040Y7460588D02*
X7350506D01*
X7346971Y7457053D01*
Y7453519D01*
X7348739Y7451752D01*
X7352273D01*
X7354040Y7453519D01*
X7352273Y7451752D01*
Y7448217D01*
X7354040Y7446450D01*
X7357574D01*
X7361109Y7449984D01*
Y7453519D01*
X7917278Y6903250D02*
Y6899715D01*
X7913743Y6896181D01*
X7910209D01*
X7903140Y6903250D01*
Y6906784D01*
X7906675Y6910319D01*
X7910209D01*
X7919045Y6922689D02*
X7911976Y6915620D01*
X7926114D01*
X7927881Y6913853D01*
Y6910319D01*
X7924346Y6906784D01*
X7920812D01*
X7922579Y6926223D02*
X7926114Y6929758D01*
X7924346Y6927990D01*
X7934950Y6917387D01*
X7931415D01*
X7938484Y6942128D02*
X7931415Y6935059D01*
X7945553D01*
X7947320Y6933292D01*
Y6929758D01*
X7943786Y6926223D01*
X7940251D01*
X7873971Y6859943D02*
Y6856408D01*
X7870436Y6852874D01*
X7866902D01*
X7859833Y6859943D01*
Y6863477D01*
X7863367Y6867012D01*
X7866902D01*
X7875738Y6879382D02*
X7868669Y6872313D01*
X7882806D01*
X7884574Y6870546D01*
Y6867012D01*
X7881039Y6863477D01*
X7877505D01*
X7879272Y6882916D02*
X7882806Y6886451D01*
X7881039Y6884684D01*
X7891642Y6874080D01*
X7888108D01*
Y6891752D02*
X7891642Y6895287D01*
X7889875Y6893520D01*
X7900479Y6882916D01*
X7896944D01*
X7776529Y6762502D02*
Y6758967D01*
X7772995Y6755433D01*
X7769461D01*
X7762392Y6762502D01*
Y6766036D01*
X7765926Y6769570D01*
X7769461D01*
X7778297Y6781941D02*
X7771228Y6774872D01*
X7785365D01*
X7787133Y6773105D01*
Y6769570D01*
X7783598Y6766036D01*
X7780064D01*
X7781831Y6785475D02*
X7785365Y6789010D01*
X7783598Y6787242D01*
X7794201Y6776639D01*
X7790667D01*
X7799503Y6785475D02*
X7803037D01*
X7806572Y6789010D01*
Y6792544D01*
X7799503Y6799613D01*
X7795969D01*
X7792434Y6796078D01*
Y6792544D01*
X7799503Y6785475D01*
X7356006Y6767762D02*
X7352471D01*
X7348937Y6771296D01*
Y6774830D01*
X7356006Y6781899D01*
X7359540D01*
X7363074Y6778365D01*
Y6774830D01*
X7375445Y6765994D02*
X7368376Y6773063D01*
Y6758926D01*
X7366609Y6757158D01*
X7363074D01*
X7359540Y6760693D01*
Y6764227D01*
X7370143Y6753624D02*
Y6750090D01*
X7373678Y6746555D01*
X7377212D01*
X7384281Y6753624D01*
Y6757158D01*
X7380747Y6760693D01*
X7377212D01*
X7370143Y6753624D01*
X7387815Y6750090D02*
X7391350D01*
X7394884Y6746555D01*
Y6743021D01*
X7387815Y6735952D01*
X7384281D01*
X7380747Y6739486D01*
Y6743021D01*
X7382514Y6744788D01*
X7386048D01*
X7391350Y6739486D01*
X7285140Y6835675D02*
X7281605D01*
X7278071Y6839210D01*
Y6842744D01*
X7285140Y6849813D01*
X7288674D01*
X7292208Y6846279D01*
Y6842744D01*
X7304579Y6833908D02*
X7297510Y6840977D01*
Y6826839D01*
X7295743Y6825072D01*
X7292208D01*
X7288674Y6828606D01*
Y6832141D01*
X7299277Y6821538D02*
Y6818003D01*
X7302811Y6814469D01*
X7306346D01*
X7313415Y6821538D01*
Y6825072D01*
X7309880Y6828606D01*
X7306346D01*
X7299277Y6821538D01*
X7309880Y6810935D02*
Y6807400D01*
X7313415Y6803866D01*
X7316949D01*
X7318716Y6805633D01*
Y6809167D01*
X7322251D01*
X7324018Y6810935D01*
Y6814469D01*
X7320484Y6818003D01*
X7316949D01*
X7315182Y6816236D01*
Y6812702D01*
X7311648D01*
X7309880Y6810935D01*
X7315182Y6812702D02*
X7318716Y6809167D01*
X7243801Y6878982D02*
X7240267D01*
X7236732Y6882517D01*
Y6886051D01*
X7243801Y6893120D01*
X7247336D01*
X7250870Y6889586D01*
Y6886051D01*
X7263240Y6877215D02*
X7256172Y6884284D01*
Y6870146D01*
X7254404Y6868379D01*
X7250870D01*
X7247336Y6871913D01*
Y6875448D01*
X7257939Y6864845D02*
Y6861310D01*
X7261473Y6857776D01*
X7265007D01*
X7272076Y6864845D01*
Y6868379D01*
X7268542Y6871913D01*
X7265007D01*
X7257939Y6864845D01*
X7266775Y6852474D02*
X7273843Y6845405D01*
X7275611Y6847173D01*
Y6861310D01*
X7277378Y6863078D01*
X7359297Y7421553D02*
Y7425088D01*
X7362832Y7428622D01*
X7366366D01*
X7373435Y7421553D01*
Y7418019D01*
X7369900Y7414484D01*
X7366366D01*
X7357530Y7402114D02*
X7364599Y7409183D01*
X7350461D01*
X7348694Y7410950D01*
Y7414484D01*
X7352228Y7418019D01*
X7355763D01*
X7345160Y7407416D02*
X7341625D01*
X7338091Y7403881D01*
Y7400347D01*
X7345160Y7393278D01*
X7348694D01*
X7352228Y7396812D01*
Y7400347D01*
X7345160Y7407416D01*
X7325720Y7391511D02*
X7331022Y7393278D01*
X7338091D01*
X7341625Y7389744D01*
Y7386209D01*
X7338091Y7382675D01*
X7334556D01*
X7332789Y7384442D01*
Y7387976D01*
X7338091Y7393278D01*
X7201817Y7275884D02*
Y7279418D01*
X7205351Y7282953D01*
X7208886D01*
X7215954Y7275884D01*
Y7272350D01*
X7212420Y7268815D01*
X7208886D01*
X7200050Y7256445D02*
X7207118Y7263514D01*
X7192981D01*
X7191214Y7265281D01*
Y7268815D01*
X7194748Y7272350D01*
X7198282D01*
X7187679Y7261746D02*
X7184145D01*
X7180610Y7258212D01*
Y7254677D01*
X7187679Y7247609D01*
X7191214D01*
X7194748Y7251143D01*
Y7254677D01*
X7187679Y7261746D01*
X7168240Y7245842D02*
X7175309Y7252910D01*
X7180610Y7247609D01*
X7175309Y7245842D01*
X7173542Y7244074D01*
Y7240540D01*
X7177076Y7237006D01*
X7180610D01*
X7184145Y7240540D01*
Y7244074D01*
X7913679Y7254876D02*
X7917214D01*
X7920748Y7251342D01*
Y7247807D01*
X7913679Y7240738D01*
X7910145D01*
X7906610Y7244273D01*
Y7247807D01*
X7894240Y7256643D02*
X7901309Y7249574D01*
Y7263712D01*
X7903076Y7265479D01*
X7906610D01*
X7910145Y7261945D01*
Y7258410D01*
X7899542Y7269014D02*
Y7272548D01*
X7896007Y7276082D01*
X7892473D01*
X7885404Y7269014D01*
Y7265479D01*
X7888939Y7261945D01*
X7892473D01*
X7899542Y7269014D01*
X7874801Y7276082D02*
X7885404Y7286686D01*
Y7276082D01*
X7878335Y7283151D01*
X7552552Y6649287D02*
X7550052Y6646788D01*
X7545054D01*
X7542555Y6649287D01*
Y6659284D01*
X7545054Y6661783D01*
X7550052D01*
X7552552Y6659284D01*
X7567547Y6661783D02*
X7557550D01*
X7567547Y6651787D01*
Y6649287D01*
X7565048Y6646788D01*
X7560049D01*
X7557550Y6649287D01*
X7572545D02*
X7575044Y6646788D01*
X7580043D01*
X7582542Y6649287D01*
Y6659284D01*
X7580043Y6661783D01*
X7575044D01*
X7572545Y6659284D01*
Y6649287D01*
X7587541D02*
X7590040Y6646788D01*
X7595038D01*
X7597537Y6649287D01*
Y6651787D01*
X7595038Y6654286D01*
X7592539D01*
X7595038D01*
X7597537Y6656785D01*
Y6659284D01*
X7595038Y6661783D01*
X7590040D01*
X7587541Y6659284D01*
X7572558Y7538941D02*
X7575057Y7541440D01*
X7580056D01*
X7582555Y7538941D01*
Y7528944D01*
X7580056Y7526445D01*
X7575057D01*
X7572558Y7528944D01*
X7557563Y7526445D02*
X7567560D01*
X7557563Y7536442D01*
Y7538941D01*
X7560062Y7541440D01*
X7565061D01*
X7567560Y7538941D01*
X7552565D02*
X7550065Y7541440D01*
X7545067D01*
X7542568Y7538941D01*
Y7528944D01*
X7545067Y7526445D01*
X7550065D01*
X7552565Y7528944D01*
Y7538941D01*
X7527573Y7526445D02*
X7537569D01*
X7527573Y7536442D01*
Y7538941D01*
X7530072Y7541440D01*
X7535070D01*
X7537569Y7538941D01*
X8532552Y5738161D02*
X8547547D01*
Y5730664D01*
X8545048Y5728164D01*
X8535051D01*
X8532552Y5730664D01*
Y5738161D01*
X8547547Y5723166D02*
Y5718168D01*
Y5720667D01*
X8532552D01*
X8535051Y5723166D01*
X8547547Y5710670D02*
Y5705672D01*
Y5708171D01*
X8532552D01*
X8535051Y5710670D01*
X8532552Y5688177D02*
Y5698174D01*
X8540050D01*
X8537550Y5693176D01*
Y5690676D01*
X8540050Y5688177D01*
X8545048D01*
X8547547Y5690676D01*
Y5695675D01*
X8545048Y5698174D01*
X7193969Y5738161D02*
X7208965D01*
Y5730664D01*
X7206465Y5728165D01*
X7196469D01*
X7193969Y5730664D01*
Y5738161D01*
X7208965Y5723166D02*
Y5718168D01*
Y5720667D01*
X7193969D01*
X7196469Y5723166D01*
X7208965Y5710670D02*
Y5705672D01*
Y5708171D01*
X7193969D01*
X7196469Y5710670D01*
Y5698174D02*
X7193969Y5695675D01*
Y5690677D01*
X7196469Y5688177D01*
X7198968D01*
X7201467Y5690677D01*
Y5693176D01*
Y5690677D01*
X7203966Y5688177D01*
X7206465D01*
X7208965Y5690677D01*
Y5695675D01*
X7206465Y5698174D01*
X8099481Y5738161D02*
X8114476D01*
Y5730664D01*
X8111977Y5728165D01*
X8101980D01*
X8099481Y5730664D01*
Y5738161D01*
X8114476Y5723166D02*
Y5718168D01*
Y5720667D01*
X8099481D01*
X8101980Y5723166D01*
X8114476Y5710670D02*
Y5705672D01*
Y5708171D01*
X8099481D01*
X8101980Y5710670D01*
X8114476Y5698174D02*
Y5693176D01*
Y5695675D01*
X8099481D01*
X8101980Y5698174D01*
X7627040Y5738161D02*
X7642035D01*
Y5730664D01*
X7639536Y5728164D01*
X7629539D01*
X7627040Y5730664D01*
Y5738161D01*
X7642035Y5723166D02*
Y5718168D01*
Y5720667D01*
X7627040D01*
X7629539Y5723166D01*
X7642035Y5710670D02*
Y5705672D01*
Y5708171D01*
X7627040D01*
X7629539Y5710670D01*
Y5698174D02*
X7627040Y5695675D01*
Y5690676D01*
X7629539Y5688177D01*
X7639536D01*
X7642035Y5690676D01*
Y5695675D01*
X7639536Y5698174D01*
X7629539D01*
X8539867Y4194728D02*
X8554862D01*
Y4187231D01*
X8552363Y4184732D01*
X8542366D01*
X8539867Y4187231D01*
Y4194728D01*
X8554862Y4179733D02*
Y4174735D01*
Y4177234D01*
X8539867D01*
X8542366Y4179733D01*
Y4167237D02*
X8539867Y4164738D01*
Y4159740D01*
X8542366Y4157240D01*
X8552363D01*
X8554862Y4159740D01*
Y4164738D01*
X8552363Y4167237D01*
X8542366D01*
Y4152242D02*
X8539867Y4149743D01*
Y4144744D01*
X8542366Y4142245D01*
X8544865D01*
X8547364Y4144744D01*
X8549864Y4142245D01*
X8552363D01*
X8554862Y4144744D01*
Y4149743D01*
X8552363Y4152242D01*
X8549864D01*
X8547364Y4149743D01*
X8544865Y4152242D01*
X8542366D01*
X8547364Y4149743D02*
Y4144744D01*
X8539867Y4785280D02*
X8554862D01*
Y4777782D01*
X8552363Y4775283D01*
X8542366D01*
X8539867Y4777782D01*
Y4785280D01*
X8554862Y4770284D02*
Y4765286D01*
Y4767785D01*
X8539867D01*
X8542366Y4770284D01*
Y4757788D02*
X8539867Y4755289D01*
Y4750291D01*
X8542366Y4747792D01*
X8552363D01*
X8554862Y4750291D01*
Y4755289D01*
X8552363Y4757788D01*
X8542366D01*
X8539867Y4742793D02*
Y4732796D01*
X8542366D01*
X8552363Y4742793D01*
X8554862D01*
X7634355Y4194728D02*
X7649350D01*
Y4187231D01*
X7646851Y4184732D01*
X7636854D01*
X7634355Y4187231D01*
Y4194728D01*
X7649350Y4179733D02*
Y4174735D01*
Y4177234D01*
X7634355D01*
X7636854Y4179733D01*
Y4167237D02*
X7634355Y4164738D01*
Y4159740D01*
X7636854Y4157240D01*
X7646851D01*
X7649350Y4159740D01*
Y4164738D01*
X7646851Y4167237D01*
X7636854D01*
X7634355Y4142245D02*
X7636854Y4147244D01*
X7641853Y4152242D01*
X7646851D01*
X7649350Y4149743D01*
Y4144744D01*
X7646851Y4142245D01*
X7644352D01*
X7641853Y4144744D01*
Y4152242D01*
X7201284Y4785279D02*
X7216279D01*
Y4777782D01*
X7213780Y4775283D01*
X7203783D01*
X7201284Y4777782D01*
Y4785279D01*
X7216279Y4770284D02*
Y4765286D01*
Y4767785D01*
X7201284D01*
X7203783Y4770284D01*
Y4757788D02*
X7201284Y4755289D01*
Y4750291D01*
X7203783Y4747792D01*
X7213780D01*
X7216279Y4750291D01*
Y4755289D01*
X7213780Y4757788D01*
X7203783D01*
X7201284Y4732796D02*
Y4742793D01*
X7208782D01*
X7206283Y4737795D01*
Y4735296D01*
X7208782Y4732796D01*
X7213780D01*
X7216279Y4735296D01*
Y4740294D01*
X7213780Y4742793D01*
X8106796Y4194728D02*
X8121791D01*
Y4187231D01*
X8119292Y4184731D01*
X8109295D01*
X8106796Y4187231D01*
Y4194728D01*
X8121791Y4179733D02*
Y4174735D01*
Y4177234D01*
X8106796D01*
X8109295Y4179733D01*
Y4167237D02*
X8106796Y4164738D01*
Y4159739D01*
X8109295Y4157240D01*
X8119292D01*
X8121791Y4159739D01*
Y4164738D01*
X8119292Y4167237D01*
X8109295D01*
X8121791Y4144744D02*
X8106796D01*
X8114293Y4152242D01*
Y4142245D01*
X8106796Y4785279D02*
X8121791D01*
Y4777782D01*
X8119292Y4775283D01*
X8109295D01*
X8106796Y4777782D01*
Y4785279D01*
X8121791Y4770284D02*
Y4765286D01*
Y4767785D01*
X8106796D01*
X8109295Y4770284D01*
Y4757788D02*
X8106796Y4755289D01*
Y4750291D01*
X8109295Y4747792D01*
X8119292D01*
X8121791Y4750291D01*
Y4755289D01*
X8119292Y4757788D01*
X8109295D01*
Y4742793D02*
X8106796Y4740294D01*
Y4735296D01*
X8109295Y4732796D01*
X8111794D01*
X8114293Y4735296D01*
Y4737795D01*
Y4735296D01*
X8116793Y4732796D01*
X8119292D01*
X8121791Y4735296D01*
Y4740294D01*
X8119292Y4742793D01*
X7634355Y4785280D02*
X7649350D01*
Y4777782D01*
X7646851Y4775283D01*
X7636854D01*
X7634355Y4777782D01*
Y4785280D01*
X7649350Y4770284D02*
Y4765286D01*
Y4767785D01*
X7634355D01*
X7636854Y4770284D01*
Y4757788D02*
X7634355Y4755289D01*
Y4750291D01*
X7636854Y4747792D01*
X7646851D01*
X7649350Y4750291D01*
Y4755289D01*
X7646851Y4757788D01*
X7636854D01*
X7649350Y4732796D02*
Y4742793D01*
X7639354Y4732796D01*
X7636854D01*
X7634355Y4735296D01*
Y4740294D01*
X7636854Y4742793D01*
X7201284Y4194728D02*
X7216279D01*
Y4187231D01*
X7213780Y4184731D01*
X7203783D01*
X7201284Y4187231D01*
Y4194728D01*
X7216279Y4179733D02*
Y4174735D01*
Y4177234D01*
X7201284D01*
X7203783Y4179733D01*
Y4167237D02*
X7201284Y4164738D01*
Y4159739D01*
X7203783Y4157240D01*
X7213780D01*
X7216279Y4159739D01*
Y4164738D01*
X7213780Y4167237D01*
X7203783D01*
X7216279Y4152242D02*
Y4147243D01*
Y4149743D01*
X7201284D01*
X7203783Y4152242D01*
X8255222Y5601306D02*
X8250224D01*
X8252723D01*
Y5586311D01*
X8255222D01*
X8250224D01*
X8232729Y5598807D02*
X8235228Y5601306D01*
X8240227D01*
X8242726Y5598807D01*
Y5588810D01*
X8240227Y5586311D01*
X8235228D01*
X8232729Y5588810D01*
X8227731Y5586311D02*
X8222732D01*
X8225232D01*
Y5601306D01*
X8227731Y5598807D01*
X8215235D02*
X8212736Y5601306D01*
X8207737D01*
X8205238Y5598807D01*
Y5588810D01*
X8207737Y5586311D01*
X8212736D01*
X8215235Y5588810D01*
Y5598807D01*
X8190243Y5601306D02*
X8200240D01*
Y5593809D01*
X8195241Y5596308D01*
X8192742D01*
X8190243Y5593809D01*
Y5588810D01*
X8192742Y5586311D01*
X8197740D01*
X8200240Y5588810D01*
X7349710Y5601306D02*
X7344712D01*
X7347211D01*
Y5586311D01*
X7349710D01*
X7344712D01*
X7327217Y5598807D02*
X7329717Y5601306D01*
X7334715D01*
X7337214Y5598807D01*
Y5588810D01*
X7334715Y5586311D01*
X7329717D01*
X7327217Y5588810D01*
X7322219Y5586311D02*
X7317221D01*
X7319720D01*
Y5601306D01*
X7322219Y5598807D01*
X7309723D02*
X7307224Y5601306D01*
X7302225D01*
X7299726Y5598807D01*
Y5588810D01*
X7302225Y5586311D01*
X7307224D01*
X7309723Y5588810D01*
Y5598807D01*
X7284731Y5586311D02*
X7294728D01*
X7284731Y5596308D01*
Y5598807D01*
X7287230Y5601306D01*
X7292229D01*
X7294728Y5598807D01*
X7782781Y5601306D02*
X7777783D01*
X7780282D01*
Y5586311D01*
X7782781D01*
X7777783D01*
X7760288Y5598807D02*
X7762788Y5601306D01*
X7767786D01*
X7770285Y5598807D01*
Y5588810D01*
X7767786Y5586311D01*
X7762788D01*
X7760288Y5588810D01*
X7755290Y5586311D02*
X7750292D01*
X7752791D01*
Y5601306D01*
X7755290Y5598807D01*
X7742794D02*
X7740295Y5601306D01*
X7735296D01*
X7732797Y5598807D01*
Y5588810D01*
X7735296Y5586311D01*
X7740295D01*
X7742794Y5588810D01*
Y5598807D01*
X7727799D02*
X7725300Y5601306D01*
X7720301D01*
X7717802Y5598807D01*
Y5596308D01*
X7720301Y5593809D01*
X7722800D01*
X7720301D01*
X7717802Y5591309D01*
Y5588810D01*
X7720301Y5586311D01*
X7725300D01*
X7727799Y5588810D01*
X8688293Y5601306D02*
X8683294D01*
X8685794D01*
Y5586311D01*
X8688293D01*
X8683294D01*
X8665800Y5598807D02*
X8668299Y5601306D01*
X8673298D01*
X8675797Y5598807D01*
Y5588810D01*
X8673298Y5586311D01*
X8668299D01*
X8665800Y5588810D01*
X8660802Y5586311D02*
X8655803D01*
X8658302D01*
Y5601306D01*
X8660802Y5598807D01*
X8648306D02*
X8645807Y5601306D01*
X8640808D01*
X8638309Y5598807D01*
Y5588810D01*
X8640808Y5586311D01*
X8645807D01*
X8648306Y5588810D01*
Y5598807D01*
X8623314Y5601306D02*
X8628312Y5598807D01*
X8633310Y5593809D01*
Y5588810D01*
X8630811Y5586311D01*
X8625813D01*
X8623314Y5588810D01*
Y5591309D01*
X8625813Y5593809D01*
X8633310D01*
X8247304Y7868868D02*
Y7873867D01*
Y7871368D01*
X8232308D01*
Y7868868D01*
Y7873867D01*
X8244805Y7891361D02*
X8247304Y7888862D01*
Y7883864D01*
X8244805Y7881364D01*
X8234808D01*
X8232308Y7883864D01*
Y7888862D01*
X8234808Y7891361D01*
X8232308Y7903857D02*
X8247304D01*
X8239806Y7896360D01*
Y7906356D01*
X8244805Y7911355D02*
X8247304Y7913854D01*
Y7918852D01*
X8244805Y7921352D01*
X8234808D01*
X8232308Y7918852D01*
Y7913854D01*
X8234808Y7911355D01*
X8244805D01*
X8232308Y7926350D02*
Y7931348D01*
Y7928849D01*
X8247304D01*
X8244805Y7926350D01*
X8172838Y4540783D02*
X8170339Y4538284D01*
X8165340D01*
X8162841Y4540783D01*
Y4550780D01*
X8165340Y4553279D01*
X8170339D01*
X8172838Y4550780D01*
X8185334Y4538284D02*
X8180335D01*
X8177836Y4540783D01*
Y4550780D01*
X8180335Y4553279D01*
X8185334D01*
X8187833Y4550780D01*
Y4540783D01*
X8185334Y4538284D01*
X8192831Y4553279D02*
X8197830D01*
X8195331D01*
Y4538284D01*
X8192831Y4540783D01*
X8205327D02*
X8207827Y4538284D01*
X8212825D01*
X8215324Y4540783D01*
Y4550780D01*
X8212825Y4553279D01*
X8207827D01*
X8205327Y4550780D01*
Y4540783D01*
X8230319Y4538284D02*
X8220323D01*
Y4545782D01*
X8225321Y4543283D01*
X8227820D01*
X8230319Y4545782D01*
Y4550780D01*
X8227820Y4553279D01*
X8222822D01*
X8220323Y4550780D01*
X8172838Y3950232D02*
X8170339Y3947733D01*
X8165340D01*
X8162841Y3950232D01*
Y3960229D01*
X8165340Y3962728D01*
X8170339D01*
X8172838Y3960229D01*
X8185334Y3947733D02*
X8180335D01*
X8177836Y3950232D01*
Y3960229D01*
X8180335Y3962728D01*
X8185334D01*
X8187833Y3960229D01*
Y3950232D01*
X8185334Y3947733D01*
X8192831Y3962728D02*
X8197830D01*
X8195331D01*
Y3947733D01*
X8192831Y3950232D01*
X8205327D02*
X8207827Y3947733D01*
X8212825D01*
X8215324Y3950232D01*
Y3960229D01*
X8212825Y3962728D01*
X8207827D01*
X8205327Y3960229D01*
Y3950232D01*
X8220323Y3947733D02*
X8230319D01*
Y3950232D01*
X8220323Y3960229D01*
Y3962728D01*
X7269825Y3950232D02*
X7267326Y3947733D01*
X7262328D01*
X7259828Y3950232D01*
Y3960229D01*
X7262328Y3962728D01*
X7267326D01*
X7269825Y3960229D01*
X7282321Y3947733D02*
X7277323D01*
X7274824Y3950232D01*
Y3960229D01*
X7277323Y3962728D01*
X7282321D01*
X7284820Y3960229D01*
Y3950232D01*
X7282321Y3947733D01*
X7289819Y3962728D02*
X7294817D01*
X7292318D01*
Y3947733D01*
X7289819Y3950232D01*
X7302315D02*
X7304814Y3947733D01*
X7309812D01*
X7312312Y3950232D01*
Y3960229D01*
X7309812Y3962728D01*
X7304814D01*
X7302315Y3960229D01*
Y3950232D01*
X7317310Y3962728D02*
X7322308D01*
X7319809D01*
Y3947733D01*
X7317310Y3950232D01*
X7700397D02*
X7697898Y3947733D01*
X7692899D01*
X7690400Y3950232D01*
Y3960229D01*
X7692899Y3962728D01*
X7697898D01*
X7700397Y3960229D01*
X7712893Y3947733D02*
X7707894D01*
X7705395Y3950232D01*
Y3960229D01*
X7707894Y3962728D01*
X7712893D01*
X7715392Y3960229D01*
Y3950232D01*
X7712893Y3947733D01*
X7720390Y3962728D02*
X7725389D01*
X7722890D01*
Y3947733D01*
X7720390Y3950232D01*
X7732886D02*
X7735386Y3947733D01*
X7740384D01*
X7742883Y3950232D01*
Y3960229D01*
X7740384Y3962728D01*
X7735386D01*
X7732886Y3960229D01*
Y3950232D01*
X7755379Y3962728D02*
Y3947733D01*
X7747882Y3955231D01*
X7757878D01*
X8605908Y4540783D02*
X8603409Y4538284D01*
X8598411D01*
X8595912Y4540783D01*
Y4550780D01*
X8598411Y4553279D01*
X8603409D01*
X8605908Y4550780D01*
X8618405Y4538284D02*
X8613406D01*
X8610907Y4540783D01*
Y4550780D01*
X8613406Y4553279D01*
X8618405D01*
X8620904Y4550780D01*
Y4540783D01*
X8618405Y4538284D01*
X8625902Y4553279D02*
X8630900D01*
X8628401D01*
Y4538284D01*
X8625902Y4540783D01*
X8638398D02*
X8640897Y4538284D01*
X8645896D01*
X8648395Y4540783D01*
Y4550780D01*
X8645896Y4553279D01*
X8640897D01*
X8638398Y4550780D01*
Y4540783D01*
X8663390Y4538284D02*
X8658392Y4540783D01*
X8653393Y4545782D01*
Y4550780D01*
X8655892Y4553279D01*
X8660891D01*
X8663390Y4550780D01*
Y4548281D01*
X8660891Y4545782D01*
X8653393D01*
X7700397Y4540783D02*
X7697898Y4538284D01*
X7692899D01*
X7690400Y4540783D01*
Y4550780D01*
X7692899Y4553279D01*
X7697898D01*
X7700397Y4550780D01*
X7712893Y4538284D02*
X7707894D01*
X7705395Y4540783D01*
Y4550780D01*
X7707894Y4553279D01*
X7712893D01*
X7715392Y4550780D01*
Y4540783D01*
X7712893Y4538284D01*
X7720390Y4553279D02*
X7725389D01*
X7722890D01*
Y4538284D01*
X7720390Y4540783D01*
X7732886D02*
X7735386Y4538284D01*
X7740384D01*
X7742883Y4540783D01*
Y4550780D01*
X7740384Y4553279D01*
X7735386D01*
X7732886Y4550780D01*
Y4540783D01*
X7747882D02*
X7750381Y4538284D01*
X7755379D01*
X7757878Y4540783D01*
Y4543283D01*
X7755379Y4545782D01*
X7752880D01*
X7755379D01*
X7757878Y4548281D01*
Y4550780D01*
X7755379Y4553279D01*
X7750381D01*
X7747882Y4550780D01*
X8605908Y3950232D02*
X8603409Y3947733D01*
X8598411D01*
X8595912Y3950232D01*
Y3960229D01*
X8598411Y3962728D01*
X8603409D01*
X8605908Y3960229D01*
X8618405Y3947733D02*
X8613406D01*
X8610907Y3950232D01*
Y3960229D01*
X8613406Y3962728D01*
X8618405D01*
X8620904Y3960229D01*
Y3950232D01*
X8618405Y3947733D01*
X8625902Y3962728D02*
X8630900D01*
X8628401D01*
Y3947733D01*
X8625902Y3950232D01*
X8638398D02*
X8640897Y3947733D01*
X8645896D01*
X8648395Y3950232D01*
Y3960229D01*
X8645896Y3962728D01*
X8640897D01*
X8638398Y3960229D01*
Y3950232D01*
X8653393D02*
X8655892Y3947733D01*
X8660891D01*
X8663390Y3950232D01*
Y3952731D01*
X8660891Y3955231D01*
X8663390Y3957730D01*
Y3960229D01*
X8660891Y3962728D01*
X8655892D01*
X8653393Y3960229D01*
Y3957730D01*
X8655892Y3955231D01*
X8653393Y3952731D01*
Y3950232D01*
X8655892Y3955231D02*
X8660891D01*
X7267326Y4540783D02*
X7264827Y4538284D01*
X7259828D01*
X7257329Y4540783D01*
Y4550780D01*
X7259828Y4553279D01*
X7264827D01*
X7267326Y4550780D01*
X7279822Y4538284D02*
X7274824D01*
X7272324Y4540783D01*
Y4550780D01*
X7274824Y4553279D01*
X7279822D01*
X7282321Y4550780D01*
Y4540783D01*
X7279822Y4538284D01*
X7287320Y4553279D02*
X7292318D01*
X7289819D01*
Y4538284D01*
X7287320Y4540783D01*
X7299816D02*
X7302315Y4538284D01*
X7307313D01*
X7309812Y4540783D01*
Y4550780D01*
X7307313Y4553279D01*
X7302315D01*
X7299816Y4550780D01*
Y4540783D01*
X7324808Y4553279D02*
X7314811D01*
X7324808Y4543283D01*
Y4540783D01*
X7322308Y4538284D01*
X7317310D01*
X7314811Y4540783D01*
D93*
X10559059Y3992130D02*
D03*
X10007877Y3992129D02*
D03*
X11110240Y3992129D02*
D03*
X11661421Y3992130D02*
D03*
D94*
X10543307Y4007877D02*
D03*
X9992126Y4007880D02*
D03*
X11094488Y4007876D02*
D03*
X11645669Y4007877D02*
D03*
X8240157Y5547244D02*
D03*
X8673229D02*
D03*
X7767717D02*
D03*
X7334646D02*
D03*
D95*
X8185037Y7893701D02*
D03*
D96*
X8192911Y7885827D02*
D03*
D97*
X8675689Y5686516D02*
D03*
X7337106D02*
D03*
X8242618D02*
D03*
X7770177D02*
D03*
D98*
X7322835Y4596457D02*
D03*
X8228346D02*
D03*
D99*
Y4005905D02*
D03*
X7322835D02*
D03*
D100*
X8661417Y4596457D02*
D03*
X7755906D02*
D03*
D101*
X8661417Y4005905D02*
D03*
X7755906D02*
D03*
%TF.MD5,9cd0b97669315c64e5621d27204e846f*%
M02*
