%TF.GenerationSoftware,Altium Limited,Altium Designer,22.5.1 (42)*%
G04 Layer_Color=128*
%FSLAX26Y26*%
%MOIN*%
%TF.SameCoordinates,79F18A81-A5BF-4171-AD75-6FA3A7A6B408*%
%TF.FilePolarity,Positive*%
%TF.FileFunction,Drillmap*%
%TF.Part,Single*%
G01*
G75*
%TA.AperFunction,NonConductor*%
%ADD174C,0.005000*%
D174*
X9265748Y3867126D02*
X9269685D01*
X9267717Y3865157D02*
Y3869095D01*
X9238189Y3867126D02*
X9242126D01*
X9240157Y3865157D02*
Y3869095D01*
X9204724Y3867126D02*
X9208661D01*
X9206693Y3865157D02*
Y3869095D01*
X9174213Y3867126D02*
X9178150D01*
X9176181Y3865157D02*
Y3869095D01*
X7334646Y5346457D02*
X7338583D01*
X7336614Y5344488D02*
Y5348425D01*
X7334646Y5088583D02*
X7338583D01*
X7336614Y5086614D02*
Y5090551D01*
X7767717Y5346457D02*
X7771654D01*
X7769685Y5344488D02*
Y5348425D01*
X7767717Y5088583D02*
X7771654D01*
X7769685Y5086614D02*
Y5090551D01*
X8240157Y5346457D02*
X8244094D01*
X8242126Y5344488D02*
Y5348425D01*
X8240157Y5088583D02*
X8244094D01*
X8242126Y5086614D02*
Y5090551D01*
X8673228Y5088583D02*
X8677165D01*
X8675197Y5086614D02*
Y5090551D01*
X8673228Y5346457D02*
X8677165D01*
X8675197Y5344488D02*
Y5348425D01*
X8661417Y3772638D02*
X8665354D01*
X8663386Y3770669D02*
Y3774606D01*
X8228346Y3772638D02*
X8232283D01*
X8230315Y3770669D02*
Y3774606D01*
X7755905Y3772638D02*
X7759842D01*
X7757874Y3770669D02*
Y3774606D01*
X7322835Y3772638D02*
X7326772D01*
X7324803Y3770669D02*
Y3774606D01*
X7475394Y4202756D02*
X7479331D01*
X7477362Y4200787D02*
Y4204724D01*
X7908465Y4202756D02*
X7912402D01*
X7910433Y4200787D02*
Y4204724D01*
X8380906Y4202756D02*
X8384843D01*
X8382874Y4200787D02*
Y4204724D01*
X8813976Y4202756D02*
X8817913D01*
X8815945Y4200787D02*
Y4204724D01*
X9928150Y3690945D02*
X9934055D01*
X9931102Y3687992D02*
Y3693898D01*
X9376969Y3690945D02*
X9382874D01*
X9379921Y3687992D02*
Y3693898D01*
X10479331Y3690945D02*
X10485236D01*
X10482283Y3687992D02*
Y3693898D01*
X11030512Y3690945D02*
X11036417D01*
X11033465Y3687992D02*
Y3693898D01*
X9150591Y3753937D02*
X9156496D01*
X9153543Y3750984D02*
Y3756890D01*
X9150591Y3716535D02*
X9156496D01*
X9153543Y3713583D02*
Y3719488D01*
X9150591Y3683071D02*
X9156496D01*
X9153543Y3680118D02*
Y3686024D01*
X9150591Y3787402D02*
X9156496D01*
X9153543Y3784449D02*
Y3790354D01*
X8796260Y3787402D02*
X8802165D01*
X8799213Y3784449D02*
Y3790354D01*
X8796260Y3683071D02*
X8802165D01*
X8799213Y3680118D02*
Y3686024D01*
X8796260Y3716535D02*
X8802165D01*
X8799213Y3713583D02*
Y3719488D01*
X8796260Y3753937D02*
X8802165D01*
X8799213Y3750984D02*
Y3756890D01*
X7980315Y8280512D02*
X7984252D01*
X7982283Y8278543D02*
Y8282480D01*
X8774606Y4163386D02*
X8778543D01*
X8776575Y4161417D02*
Y4165354D01*
X8774606Y4183071D02*
X8778543D01*
X8776575Y4181102D02*
Y4185039D01*
X8701772Y4163386D02*
X8705709D01*
X8703740Y4161417D02*
Y4165354D01*
X8701772Y4183071D02*
X8705709D01*
X8703740Y4181102D02*
Y4185039D01*
X8341535Y4163386D02*
X8345472D01*
X8343504Y4161417D02*
Y4165354D01*
X8341535Y4183071D02*
X8345472D01*
X8343504Y4181102D02*
Y4185039D01*
X8268701Y4163386D02*
X8272638D01*
X8270669Y4161417D02*
Y4165354D01*
X8268701Y4183071D02*
X8272638D01*
X8270669Y4181102D02*
Y4185039D01*
X7869095Y4163386D02*
X7873032D01*
X7871063Y4161417D02*
Y4165354D01*
X7869095Y4183071D02*
X7873032D01*
X7871063Y4181102D02*
Y4185039D01*
X7796260Y4163386D02*
X7800197D01*
X7798228Y4161417D02*
Y4165354D01*
X7796260Y4183071D02*
X7800197D01*
X7798228Y4181102D02*
Y4185039D01*
X8701772Y4104331D02*
X8705709D01*
X8703740Y4102362D02*
Y4106299D01*
X8701772Y4084646D02*
X8705709D01*
X8703740Y4082677D02*
Y4086614D01*
X8701772Y4242126D02*
X8705709D01*
X8703740Y4240158D02*
Y4244095D01*
X8701772Y4261811D02*
X8705709D01*
X8703740Y4259842D02*
Y4263779D01*
X8268701Y4104331D02*
X8272638D01*
X8270669Y4102362D02*
Y4106299D01*
X8268701Y4084646D02*
X8272638D01*
X8270669Y4082677D02*
Y4086614D01*
X8268701Y4242126D02*
X8272638D01*
X8270669Y4240158D02*
Y4244095D01*
X8268701Y4261811D02*
X8272638D01*
X8270669Y4259842D02*
Y4263779D01*
X7796260Y4104331D02*
X7800197D01*
X7798228Y4102362D02*
Y4106299D01*
X7796260Y4084646D02*
X7800197D01*
X7798228Y4082677D02*
Y4086614D01*
X7796260Y4242126D02*
X7800197D01*
X7798228Y4240158D02*
Y4244095D01*
X7796260Y4261811D02*
X7800197D01*
X7798228Y4259842D02*
Y4263779D01*
X8492126Y5088583D02*
X8496063D01*
X8494094Y5086614D02*
Y5090551D01*
X8476378Y5088583D02*
X8480315D01*
X8478346Y5086614D02*
Y5090551D01*
X8059055Y5088583D02*
X8062992D01*
X8061024Y5086614D02*
Y5090551D01*
X8043307Y5088583D02*
X8047244D01*
X8045276Y5086614D02*
Y5090551D01*
X7153543Y5088583D02*
X7157480D01*
X7155512Y5086614D02*
Y5090551D01*
X7137795Y5088583D02*
X7141732D01*
X7139764Y5086614D02*
Y5090551D01*
X7570866Y5088583D02*
X7574803D01*
X7572835Y5086614D02*
Y5090551D01*
X7586614Y5088583D02*
X7590551D01*
X7588583Y5086614D02*
Y5090551D01*
X8701772Y4773622D02*
X8705709D01*
X8703740Y4771653D02*
Y4775590D01*
X8701772Y4753937D02*
X8705709D01*
X8703740Y4751968D02*
Y4755905D01*
X8774606Y4773622D02*
X8778543D01*
X8776575Y4771653D02*
Y4775590D01*
X8774606Y4753937D02*
X8778543D01*
X8776575Y4751968D02*
Y4755905D01*
X8543740Y5089567D02*
X8547677D01*
X8545709Y5087599D02*
Y5091535D01*
X8559488Y5089567D02*
X8563425D01*
X8561457Y5087599D02*
Y5091535D01*
X8268701Y4773622D02*
X8272638D01*
X8270669Y4771653D02*
Y4775590D01*
X8268701Y4753937D02*
X8272638D01*
X8270669Y4751968D02*
Y4755905D01*
X8341535Y4773622D02*
X8345472D01*
X8343504Y4771653D02*
Y4775590D01*
X8341535Y4753937D02*
X8345472D01*
X8343504Y4751968D02*
Y4755905D01*
X8110669Y5089567D02*
X8114606D01*
X8112638Y5087599D02*
Y5091535D01*
X8126417Y5089567D02*
X8130354D01*
X8128386Y5087599D02*
Y5091535D01*
X7796260Y4773622D02*
X7800197D01*
X7798228Y4771653D02*
Y4775590D01*
X7796260Y4753937D02*
X7800197D01*
X7798228Y4751968D02*
Y4755905D01*
X7869095Y4773622D02*
X7873032D01*
X7871063Y4771653D02*
Y4775590D01*
X7869095Y4753937D02*
X7873032D01*
X7871063Y4751968D02*
Y4755905D01*
X7638229Y5089567D02*
X7642166D01*
X7640197Y5087599D02*
Y5091535D01*
X7653976Y5089567D02*
X7657913D01*
X7655945Y5087599D02*
Y5091535D01*
X7220906Y5089567D02*
X7224843D01*
X7222874Y5087599D02*
Y5091535D01*
X7205158Y5089567D02*
X7209095D01*
X7207126Y5087599D02*
Y5091535D01*
X7363189Y4183071D02*
X7367126D01*
X7365158Y4181102D02*
Y4185039D01*
X7363189Y4163386D02*
X7367126D01*
X7365158Y4161417D02*
Y4165354D01*
X7436024Y4183071D02*
X7439961D01*
X7437992Y4181102D02*
Y4185039D01*
X7436024Y4163386D02*
X7439961D01*
X7437992Y4161417D02*
Y4165354D01*
X7363189Y4261811D02*
X7367126D01*
X7365158Y4259842D02*
Y4263779D01*
X7363189Y4242126D02*
X7367126D01*
X7365158Y4240158D02*
Y4244095D01*
X7363189Y4084646D02*
X7367126D01*
X7365158Y4082677D02*
Y4086614D01*
X7363189Y4104331D02*
X7367126D01*
X7365158Y4102362D02*
Y4106299D01*
X8774606Y4832677D02*
X8778543D01*
X8776575Y4830708D02*
Y4834645D01*
X8774606Y4852362D02*
X8778543D01*
X8776575Y4850394D02*
Y4854331D01*
X8774606Y4675197D02*
X8778543D01*
X8776575Y4673228D02*
Y4677165D01*
X8774606Y4694882D02*
X8778543D01*
X8776575Y4692913D02*
Y4696850D01*
X8690945Y5502854D02*
X8694882D01*
X8692914Y5500886D02*
Y5504823D01*
X8690945Y5520768D02*
X8694882D01*
X8692914Y5518799D02*
Y5522736D01*
X8549213Y5520768D02*
X8553150D01*
X8551181Y5518799D02*
Y5522736D01*
X8549213Y5502854D02*
X8553150D01*
X8551181Y5500886D02*
Y5504823D01*
X8341535Y4832677D02*
X8345472D01*
X8343504Y4830708D02*
Y4834645D01*
X8341535Y4852362D02*
X8345472D01*
X8343504Y4850394D02*
Y4854331D01*
X8341535Y4675197D02*
X8345472D01*
X8343504Y4673228D02*
Y4677165D01*
X8341535Y4694882D02*
X8345472D01*
X8343504Y4692913D02*
Y4696850D01*
X8257874Y5502854D02*
X8261811D01*
X8259843Y5500886D02*
Y5504823D01*
X8257874Y5520768D02*
X8261811D01*
X8259843Y5518799D02*
Y5522736D01*
X8116142Y5520768D02*
X8120079D01*
X8118110Y5518799D02*
Y5522736D01*
X8116142Y5502854D02*
X8120079D01*
X8118110Y5500886D02*
Y5504823D01*
X7869095Y4832677D02*
X7873032D01*
X7871063Y4830708D02*
Y4834645D01*
X7869095Y4852362D02*
X7873032D01*
X7871063Y4850394D02*
Y4854331D01*
X7869095Y4675197D02*
X7873032D01*
X7871063Y4673228D02*
Y4677165D01*
X7869095Y4694882D02*
X7873032D01*
X7871063Y4692913D02*
Y4696850D01*
X7785433Y5502854D02*
X7789370D01*
X7787402Y5500886D02*
Y5504823D01*
X7785433Y5520768D02*
X7789370D01*
X7787402Y5518799D02*
Y5522736D01*
X7643701Y5520768D02*
X7647638D01*
X7645669Y5518799D02*
Y5522736D01*
X7643701Y5502854D02*
X7647638D01*
X7645669Y5500886D02*
Y5504823D01*
X7210630Y5502854D02*
X7214567D01*
X7212598Y5500886D02*
Y5504823D01*
X7210630Y5520768D02*
X7214567D01*
X7212598Y5518799D02*
Y5522736D01*
X7352362Y5520768D02*
X7356299D01*
X7354331Y5518799D02*
Y5522736D01*
X7352362Y5502854D02*
X7356299D01*
X7354331Y5500886D02*
Y5504823D01*
X7436024Y4694882D02*
X7439961D01*
X7437992Y4692913D02*
Y4696850D01*
X7436024Y4675197D02*
X7439961D01*
X7437992Y4673228D02*
Y4677165D01*
X7436024Y4852362D02*
X7439961D01*
X7437992Y4850394D02*
Y4854331D01*
X7436024Y4832677D02*
X7439961D01*
X7437992Y4830708D02*
Y4834645D01*
X8634744Y5574803D02*
X8638681D01*
X8636713Y5572835D02*
Y5576772D01*
X8652658Y5574803D02*
X8656595D01*
X8654626Y5572835D02*
Y5576772D01*
X8581594Y5668307D02*
X8585531D01*
X8583563Y5666339D02*
Y5670276D01*
X8599508Y5668307D02*
X8603445D01*
X8601477Y5666339D02*
Y5670276D01*
X8201673Y5574803D02*
X8205610D01*
X8203642Y5572835D02*
Y5576772D01*
X8219587Y5574803D02*
X8223524D01*
X8221555Y5572835D02*
Y5576772D01*
X8148524Y5668307D02*
X8152461D01*
X8150492Y5666339D02*
Y5670276D01*
X8166437Y5668307D02*
X8170374D01*
X8168406Y5666339D02*
Y5670276D01*
X7729232Y5574803D02*
X7733169D01*
X7731201Y5572835D02*
Y5576772D01*
X7747146Y5574803D02*
X7751083D01*
X7749114Y5572835D02*
Y5576772D01*
X7676083Y5668307D02*
X7680020D01*
X7678051Y5666339D02*
Y5670276D01*
X7693996Y5668307D02*
X7697933D01*
X7695965Y5666339D02*
Y5670276D01*
X7260925Y5668307D02*
X7264862D01*
X7262894Y5666339D02*
Y5670276D01*
X7243012Y5668307D02*
X7246949D01*
X7244980Y5666339D02*
Y5670276D01*
X7314075Y5574803D02*
X7318012D01*
X7316043Y5572835D02*
Y5576772D01*
X7296161Y5574803D02*
X7300098D01*
X7298130Y5572835D02*
Y5576772D01*
X7436024Y4753937D02*
X7439961D01*
X7437992Y4751968D02*
Y4755905D01*
X7436024Y4773622D02*
X7439961D01*
X7437992Y4771653D02*
Y4775590D01*
X7363189Y4753937D02*
X7367126D01*
X7365158Y4751968D02*
Y4755905D01*
X7363189Y4773622D02*
X7367126D01*
X7365158Y4771653D02*
Y4775590D01*
%TF.MD5,ebd43ba4f8dd06bb7963b567d20f2031*%
M02*
