%TF.GenerationSoftware,Altium Limited,Altium Designer,22.5.1 (42)*%
G04 Layer_Color=0*
%FSLAX26Y26*%
%MOIN*%
%TF.SameCoordinates,79F18A81-A5BF-4171-AD75-6FA3A7A6B408*%
%TF.FilePolarity,Positive*%
%TF.FileFunction,Plated,1,6,Blind,Drill*%
%TF.Part,Single*%
G01*
G75*
%TA.AperFunction,ViaDrill,NotFilled*%
%ADD167C,0.003937*%
D167*
X7801181Y11160433D02*
D03*
X7189961Y8513779D02*
D03*
Y8533465D02*
D03*
Y8553149D02*
D03*
Y8572835D02*
D03*
X8640184Y7220053D02*
D03*
X7734672D02*
D03*
X7181595Y5688976D02*
D03*
X7197343D02*
D03*
X7614666D02*
D03*
X7630413D02*
D03*
X8087106D02*
D03*
X8102854D02*
D03*
X7398622Y5965551D02*
D03*
X7382874D02*
D03*
X7831693D02*
D03*
X7815945D02*
D03*
X8288386D02*
D03*
X8304134D02*
D03*
X8535925Y5688976D02*
D03*
X8520177D02*
D03*
X8737205Y5965551D02*
D03*
X8721457D02*
D03*
X8816929Y5395669D02*
D03*
X8799016D02*
D03*
X8853248D02*
D03*
X8871162D02*
D03*
X8383858D02*
D03*
X8365945D02*
D03*
X8420177D02*
D03*
X8438091D02*
D03*
X7911417D02*
D03*
X7893504D02*
D03*
X7947736D02*
D03*
X7965650D02*
D03*
X7532579D02*
D03*
X7514665D02*
D03*
X7460433D02*
D03*
X7478346D02*
D03*
%TF.MD5,303890ceb6c86659ed3ea3051662ae7d*%
M02*
