%TF.GenerationSoftware,Altium Limited,Altium Designer,22.5.1 (42)*%
G04 Layer_Color=0*
%FSLAX26Y26*%
%MOIN*%
%TF.SameCoordinates,3C46EB80-FEDE-48F7-A63F-DE7BBD85CC47*%
%TF.FilePolarity,Positive*%
%TF.FileFunction,NonPlated,1,8,NPTH,Drill*%
%TF.Part,Single*%
G01*
G75*
%TA.AperFunction,ComponentDrill*%
%ADD156C,0.025984*%
%ADD157O,0.039370X0.022835*%
%ADD158C,0.029528*%
D156*
X7923228Y10866142D02*
D03*
Y10275591D02*
D03*
Y9685039D02*
D03*
Y9094488D02*
D03*
D157*
X8218504Y10866142D02*
D03*
Y10275591D02*
D03*
Y9685039D02*
D03*
Y9094488D02*
D03*
D158*
X7438189Y4913779D02*
D03*
X7364961Y4613779D02*
D03*
X8343701Y4323228D02*
D03*
X8270472Y4023228D02*
D03*
X8776772Y4913779D02*
D03*
X8703543Y4613779D02*
D03*
X8343701Y4913779D02*
D03*
X8270472Y4613779D02*
D03*
X8776772Y4323228D02*
D03*
X8703543Y4023228D02*
D03*
X7871260Y4323228D02*
D03*
X7798032Y4023228D02*
D03*
X7871260Y4913779D02*
D03*
X7798032Y4613779D02*
D03*
X7438189Y4323228D02*
D03*
X7364961Y4023228D02*
D03*
%TF.MD5,1f126d9148cc0e24a09fd87d051aa6ef*%
M02*
