%TF.GenerationSoftware,Altium Limited,Altium Designer,22.5.1 (42)*%
G04 Layer_Color=65535*
%FSLAX26Y26*%
%MOIN*%
%TF.SameCoordinates,3C46EB80-FEDE-48F7-A63F-DE7BBD85CC47*%
%TF.FilePolarity,Positive*%
%TF.FileFunction,Legend,Top*%
%TF.Part,Single*%
G01*
G75*
%TA.AperFunction,NonConductor*%
%ADD88C,0.001000*%
%ADD89C,0.003937*%
%ADD90C,0.001968*%
%ADD91C,0.000984*%
%ADD92C,0.003000*%
%ADD93R,0.007874X0.007874*%
%ADD94R,0.007874X0.007874*%
%ADD97R,0.002953X0.002953*%
%ADD133C,0.007874*%
%ADD134R,0.010000X0.010000*%
%ADD135R,0.023622X0.023622*%
%ADD136R,0.011811X0.011811*%
%ADD137R,0.009842X0.009843*%
%ADD138R,0.007874X0.007874*%
%ADD139P,0.011136X4X90.0*%
D88*
X12420575Y4637795D02*
Y4732283D01*
X12382575Y4637795D02*
X12420575D01*
X12382575D02*
Y4732283D01*
X12420575D01*
X12388575Y4809055D02*
X12414575D01*
Y4875984D01*
X12388575D02*
X12414575D01*
X12388575Y4809055D02*
Y4875984D01*
X12112205Y4494874D02*
Y4520874D01*
Y4494874D02*
X12179134D01*
Y4520874D01*
X12112205D02*
X12179134D01*
Y4455504D02*
Y4481504D01*
X12112205D02*
X12179134D01*
X12112205Y4455504D02*
Y4481504D01*
Y4455504D02*
X12179134D01*
X12181102Y4573614D02*
Y4599614D01*
Y4573614D02*
X12248031D01*
Y4599614D01*
X12181102D02*
X12248031D01*
X12112984Y4718504D02*
X12138984D01*
X12112984Y4651575D02*
Y4718504D01*
Y4651575D02*
X12138984D01*
Y4718504D01*
X12112984Y4875984D02*
X12138984D01*
X12112984Y4809055D02*
Y4875984D01*
Y4809055D02*
X12138984D01*
Y4875984D01*
X12132669Y4600394D02*
X12158669D01*
X12132669Y4533465D02*
Y4600394D01*
Y4533465D02*
X12158669D01*
Y4600394D01*
X12248031Y4534244D02*
Y4560244D01*
X12181102D02*
X12248031D01*
X12181102Y4534244D02*
Y4560244D01*
Y4534244D02*
X12248031D01*
X10535433Y4849205D02*
Y4875205D01*
X10468504D02*
X10535433D01*
X10468504Y4849205D02*
Y4875205D01*
Y4849205D02*
X10535433D01*
X11086614D02*
Y4875205D01*
X11019685D02*
X11086614D01*
X11019685Y4849205D02*
Y4875205D01*
Y4849205D02*
X11086614D01*
X9984252D02*
Y4875205D01*
X9917323D02*
X9984252D01*
X9917323Y4849205D02*
Y4875205D01*
Y4849205D02*
X9984252D01*
X11637795D02*
Y4875205D01*
X11570866D02*
X11637795D01*
X11570866Y4849205D02*
Y4875205D01*
Y4849205D02*
X11637795D01*
X8228969Y7332008D02*
X8254969D01*
X8228969Y7265079D02*
Y7332008D01*
Y7265079D02*
X8254969D01*
Y7332008D01*
X8198969D02*
X8224969D01*
X8198969Y7265079D02*
Y7332008D01*
Y7265079D02*
X8224969D01*
Y7332008D01*
X8591331Y6749016D02*
X8617331D01*
Y6815945D01*
X8591331D02*
X8617331D01*
X8591331Y6749016D02*
Y6815945D01*
X8167118Y6906496D02*
X8193118D01*
Y6973425D01*
X8167118D02*
X8193118D01*
X8167118Y6906496D02*
Y6973425D01*
X8621331Y6749016D02*
X8647331D01*
Y6815945D01*
X8621331D02*
X8647331D01*
X8621331Y6749016D02*
Y6815945D01*
X8197118Y6906496D02*
X8223118D01*
Y6973425D01*
X8197118D02*
X8223118D01*
X8197118Y6906496D02*
Y6973425D01*
X8763346Y6911016D02*
Y6937016D01*
X8696417D02*
X8763346D01*
X8696417Y6911016D02*
Y6937016D01*
Y6911016D02*
X8763346D01*
X8322630Y6730315D02*
X8348630D01*
Y6797244D01*
X8322630D02*
X8348630D01*
X8322630Y6730315D02*
Y6797244D01*
X8763346Y6941016D02*
Y6967016D01*
X8696417D02*
X8763346D01*
X8696417Y6941016D02*
Y6967016D01*
Y6941016D02*
X8763346D01*
X8352630Y6730315D02*
X8378630D01*
Y6797244D01*
X8352630D02*
X8378630D01*
X8352630Y6730315D02*
Y6797244D01*
X7323461Y7332023D02*
X7349461D01*
X7323461Y7265094D02*
Y7332023D01*
Y7265094D02*
X7349461D01*
Y7332023D01*
X7293461D02*
X7319461D01*
X7293461Y7265094D02*
Y7332023D01*
Y7265094D02*
X7319461D01*
Y7332023D01*
X7685819Y6749016D02*
X7711819D01*
Y6815945D01*
X7685819D02*
X7711819D01*
X7685819Y6749016D02*
Y6815945D01*
X7261606Y6906496D02*
X7287606D01*
Y6973425D01*
X7261606D02*
X7287606D01*
X7261606Y6906496D02*
Y6973425D01*
X7715819Y6749016D02*
X7741819D01*
Y6815945D01*
X7715819D02*
X7741819D01*
X7715819Y6749016D02*
Y6815945D01*
X7291606Y6906496D02*
X7317606D01*
Y6973425D01*
X7291606D02*
X7317606D01*
X7291606Y6906496D02*
Y6973425D01*
X7857847Y6911025D02*
Y6937025D01*
X7790918D02*
X7857847D01*
X7790918Y6911025D02*
Y6937025D01*
Y6911025D02*
X7857847D01*
X7417118Y6730315D02*
X7443118D01*
Y6797244D01*
X7417118D02*
X7443118D01*
X7417118Y6730315D02*
Y6797244D01*
X7857847Y6941025D02*
Y6967025D01*
X7790918D02*
X7857847D01*
X7790918Y6941025D02*
Y6967025D01*
Y6941025D02*
X7857847D01*
X7447118Y6730315D02*
X7473118D01*
Y6797244D01*
X7447118D02*
X7473118D01*
X7447118Y6730315D02*
Y6797244D01*
X7259767Y8866530D02*
X7278151Y8884915D01*
X7259767Y8866530D02*
X7307093Y8819204D01*
X7325477Y8837588D01*
X7278151Y8884915D02*
X7325477Y8837588D01*
X7279767Y8886530D02*
X7298151Y8904915D01*
X7279767Y8886530D02*
X7327093Y8839204D01*
X7345477Y8857588D01*
X7298151Y8904915D02*
X7345477Y8857588D01*
X7501252Y8853346D02*
X7527252D01*
X7501252Y8786417D02*
Y8853346D01*
Y8786417D02*
X7527252D01*
Y8853346D01*
X7471252D02*
X7497252D01*
X7471252Y8786417D02*
Y8853346D01*
Y8786417D02*
X7497252D01*
Y8853346D01*
X7727362Y8574598D02*
Y8600598D01*
X7660433D02*
X7727362D01*
X7660433Y8574598D02*
Y8600598D01*
Y8574598D02*
X7727362D01*
Y8604598D02*
Y8630598D01*
X7660433D02*
X7727362D01*
X7660433Y8604598D02*
Y8630598D01*
Y8604598D02*
X7727362D01*
X7413181Y8237205D02*
X7439181D01*
Y8304134D01*
X7413181D02*
X7439181D01*
X7413181Y8237205D02*
Y8304134D01*
X7443181Y8237205D02*
X7469181D01*
Y8304134D01*
X7443181D02*
X7469181D01*
X7443181Y8237205D02*
Y8304134D01*
X7904228Y7823819D02*
X7942228D01*
X7904228Y7729331D02*
Y7823819D01*
Y7729331D02*
X7942228D01*
Y7823819D01*
X8252953Y8079039D02*
X8347441D01*
Y8041039D02*
Y8079039D01*
X8252953Y8041039D02*
X8347441D01*
X8252953D02*
Y8079039D01*
X8292323Y8233567D02*
X8386811D01*
Y8195567D02*
Y8233567D01*
X8292323Y8195567D02*
X8386811D01*
X8292323D02*
Y8233567D01*
X7678150Y8179819D02*
X7772638D01*
X7678150D02*
Y8217819D01*
X7772638D01*
Y8179819D02*
Y8217819D01*
X7678150Y8120764D02*
X7772638D01*
X7678150D02*
Y8158764D01*
X7772638D01*
Y8120764D02*
Y8158764D01*
X7678150Y7982968D02*
X7772638D01*
X7678150D02*
Y8020968D01*
X7772638D01*
Y7982968D02*
Y8020968D01*
X8040654Y7729331D02*
Y7823819D01*
X8002654Y7729331D02*
X8040654D01*
X8002654D02*
Y7823819D01*
X8040654D01*
X8099709Y7729331D02*
Y7823819D01*
X8061709Y7729331D02*
X8099709D01*
X8061709D02*
Y7823819D01*
X8099709D01*
X8251969Y7960929D02*
X8346457D01*
Y7922929D02*
Y7960929D01*
X8251969Y7922929D02*
X8346457D01*
X8251969D02*
Y7960929D01*
Y8178449D02*
X8346457D01*
Y8140449D02*
Y8178449D01*
X8251969Y8140449D02*
X8346457D01*
X8251969D02*
Y8178449D01*
X7865842Y8312992D02*
Y8407480D01*
X7903842D01*
Y8312992D02*
Y8407480D01*
X7865842Y8312992D02*
X7903842D01*
X7883173Y7740158D02*
Y7834646D01*
X7845173Y7740158D02*
X7883173D01*
X7845173D02*
Y7834646D01*
X7883173D01*
X14606984Y3761811D02*
Y3856299D01*
X14644984D01*
Y3761811D02*
Y3856299D01*
X14606984Y3761811D02*
X14644984D01*
X14612984Y3704724D02*
X14638984D01*
X14612984Y3637795D02*
Y3704724D01*
Y3637795D02*
X14638984D01*
Y3704724D01*
X14814961Y3957378D02*
X14909449D01*
X14814961D02*
Y3995378D01*
X14909449D01*
Y3957378D02*
Y3995378D01*
X14828740Y3924008D02*
Y3950008D01*
Y3924008D02*
X14895669D01*
Y3950008D01*
X14828740D02*
X14895669D01*
X14770465Y3923228D02*
X14796465D01*
Y3990157D01*
X14770465D02*
X14796465D01*
X14770465Y3923228D02*
Y3990157D01*
X14923228Y3957378D02*
X15017717D01*
X14923228D02*
Y3995378D01*
X15017717D01*
Y3957378D02*
Y3995378D01*
X14878732Y3627953D02*
X14904732D01*
Y3694882D01*
X14878732D02*
X14904732D01*
X14878732Y3627953D02*
Y3694882D01*
X14740937Y3990157D02*
X14766937D01*
X14740937Y3923228D02*
Y3990157D01*
Y3923228D02*
X14766937D01*
Y3990157D01*
X14797244Y3884638D02*
Y3910638D01*
X14730315D02*
X14797244D01*
X14730315Y3884638D02*
Y3910638D01*
Y3884638D02*
X14797244D01*
X13622732Y3761811D02*
Y3856299D01*
X13660732D01*
Y3761811D02*
Y3856299D01*
X13622732Y3761811D02*
X13660732D01*
X13628732Y3704724D02*
X13654732D01*
X13628732Y3637795D02*
Y3704724D01*
Y3637795D02*
X13654732D01*
Y3704724D01*
X13911417Y3963378D02*
Y3989378D01*
X13844488D02*
X13911417D01*
X13844488Y3963378D02*
Y3989378D01*
Y3963378D02*
X13911417D01*
X13844488Y3924008D02*
Y3950008D01*
Y3924008D02*
X13911417D01*
Y3950008D01*
X13844488D02*
X13911417D01*
X13786213Y3923228D02*
X13812213D01*
Y3990157D01*
X13786213D02*
X13812213D01*
X13786213Y3923228D02*
Y3990157D01*
X13938976Y3957378D02*
X14033465D01*
X13938976D02*
Y3995378D01*
X14033465D01*
Y3957378D02*
Y3995378D01*
X13894480Y3627953D02*
X13920480D01*
Y3694882D01*
X13894480D02*
X13920480D01*
X13894480Y3627953D02*
Y3694882D01*
X13756685Y3990157D02*
X13782685D01*
X13756685Y3923228D02*
Y3990157D01*
Y3923228D02*
X13782685D01*
Y3990157D01*
X13812992Y3884638D02*
Y3910638D01*
X13746063D02*
X13812992D01*
X13746063Y3884638D02*
Y3910638D01*
Y3884638D02*
X13812992D01*
X13622732Y4588583D02*
Y4683071D01*
X13660732D01*
Y4588583D02*
Y4683071D01*
X13622732Y4588583D02*
X13660732D01*
X13628732Y4531496D02*
X13654732D01*
X13628732Y4464567D02*
Y4531496D01*
Y4464567D02*
X13654732D01*
Y4531496D01*
X13911417Y4790150D02*
Y4816150D01*
X13844488D02*
X13911417D01*
X13844488Y4790150D02*
Y4816150D01*
Y4790150D02*
X13911417D01*
X13844488Y4750779D02*
Y4776779D01*
Y4750779D02*
X13911417D01*
Y4776779D01*
X13844488D02*
X13911417D01*
X13786213Y4750000D02*
X13812213D01*
Y4816929D01*
X13786213D02*
X13812213D01*
X13786213Y4750000D02*
Y4816929D01*
X13938976Y4784150D02*
X14033465D01*
X13938976D02*
Y4822150D01*
X14033465D01*
Y4784150D02*
Y4822150D01*
X13894480Y4454724D02*
X13920480D01*
Y4521654D01*
X13894480D02*
X13920480D01*
X13894480Y4454724D02*
Y4521654D01*
X13756685Y4816929D02*
X13782685D01*
X13756685Y4750000D02*
Y4816929D01*
Y4750000D02*
X13782685D01*
Y4816929D01*
X13812992Y4711409D02*
Y4737409D01*
X13746063D02*
X13812992D01*
X13746063Y4711409D02*
Y4737409D01*
Y4711409D02*
X13812992D01*
X6782837Y4844488D02*
X6808837D01*
Y4911417D01*
X6782837D02*
X6808837D01*
X6782837Y4844488D02*
Y4911417D01*
X6814837Y4712598D02*
Y4807087D01*
X6776837Y4712598D02*
X6814837D01*
X6776837D02*
Y4807087D01*
X6814837D01*
X6589144Y4638575D02*
Y4664575D01*
Y4638575D02*
X6656073D01*
Y4664575D01*
X6589144D02*
X6656073D01*
X6506467Y4638575D02*
Y4664575D01*
Y4638575D02*
X6573396D01*
Y4664575D01*
X6506467D02*
X6573396D01*
X6506467Y4595268D02*
Y4621268D01*
Y4595268D02*
X6573396D01*
Y4621268D01*
X6506467D02*
X6573396D01*
X6586971Y4541338D02*
X6612971D01*
X6586971Y4474409D02*
Y4541338D01*
Y4474409D02*
X6612971D01*
Y4541338D01*
X6586971Y4620079D02*
X6612971D01*
X6586971Y4553150D02*
Y4620079D01*
Y4553150D02*
X6612971D01*
Y4620079D01*
X6505278Y4929134D02*
X6531278D01*
X6505278Y4862205D02*
Y4929134D01*
Y4862205D02*
X6531278D01*
Y4929134D01*
X6551538Y4474409D02*
X6577538D01*
Y4541338D01*
X6551538D02*
X6577538D01*
X6551538Y4474409D02*
Y4541338D01*
X6015748Y3581392D02*
X6110236D01*
X6015748D02*
Y3619392D01*
X6110236D01*
Y3581392D02*
Y3619392D01*
X6173228Y3621362D02*
X6267717D01*
Y3583362D02*
Y3621362D01*
X6173228Y3583362D02*
X6267717D01*
X6173228D02*
Y3621362D01*
X6074598Y3942913D02*
X6100598D01*
Y4009843D01*
X6074598D02*
X6100598D01*
X6074598Y3942913D02*
Y4009843D01*
X5975000Y3942913D02*
X6001000D01*
Y4009843D01*
X5975000D02*
X6001000D01*
X5975000Y3942913D02*
Y4009843D01*
D89*
X6459116Y3779528D02*
G03*
X6459116Y3779528I-81163J0D01*
G01*
X4173228D02*
G03*
X4173228Y3779528I-78740J0D01*
G01*
Y4685039D02*
G03*
X4173228Y4685039I-78740J0D01*
G01*
X6456693D02*
G03*
X6456693Y4685039I-78740J0D01*
G01*
X7480315Y9527559D02*
X8661418D01*
X7480315Y9842520D02*
X8661418D01*
Y9527559D02*
Y9842520D01*
X7480315Y9527559D02*
Y9842520D01*
Y10708661D02*
X8661418D01*
X7480315Y11023622D02*
X8661418D01*
Y10708661D02*
Y11023622D01*
X7480315Y10708661D02*
Y11023622D01*
Y8937008D02*
X8661418D01*
X7480315Y9251969D02*
X8661418D01*
Y8937008D02*
Y9251969D01*
X7480315Y8937008D02*
Y9251969D01*
Y10118110D02*
X8661418D01*
X7480315Y10433071D02*
X8661418D01*
Y10118110D02*
Y10433071D01*
X7480315Y10118110D02*
Y10433071D01*
X12293307Y4606299D02*
X12549213D01*
X12293307Y4330709D02*
X12549213D01*
Y4606299D01*
X12293307Y4330709D02*
Y4606299D01*
X8379567Y3444882D02*
X8549567D01*
Y3523622D01*
X8379567D02*
X8549567D01*
X8379567Y3444882D02*
Y3523622D01*
Y3562992D02*
X8549567D01*
Y3641732D01*
X8379567D02*
X8549567D01*
X8379567Y3562992D02*
Y3641732D01*
X6667884Y4651575D02*
X6923790D01*
X6667884Y4375984D02*
X6923790D01*
Y4651575D01*
X6667884Y4375984D02*
Y4651575D01*
X14478346Y3917323D02*
X14734252D01*
X14478346Y4192913D02*
X14734252D01*
X14478346Y3917323D02*
Y4192913D01*
X14734252Y3917323D02*
Y4192913D01*
X13494094Y3917323D02*
X13750000D01*
X13494094Y4192913D02*
X13750000D01*
X13494094Y3917323D02*
Y4192913D01*
X13750000Y3917323D02*
Y4192913D01*
X13494094Y4744094D02*
X13750000D01*
X13494094Y5019685D02*
X13750000D01*
X13494094Y4744094D02*
Y5019685D01*
X13750000Y4744094D02*
Y5019685D01*
X6574803Y3771653D02*
Y3826771D01*
X6653543Y3635826D02*
X6929134D01*
Y3962598D01*
X6555039Y3912519D02*
X6575039D01*
X6565039Y3902519D02*
Y3922519D01*
X6574803Y3714566D02*
Y3771653D01*
Y3714566D02*
X6653543Y3635826D01*
X6574803Y3771653D02*
Y3826771D01*
X6653543Y3962598D02*
X6929134D01*
Y3635826D02*
Y3962598D01*
X6574803Y3826771D02*
Y3883858D01*
X6653543Y3962598D01*
X6574803Y4165354D02*
Y4220472D01*
X6653543Y4029527D02*
X6929134D01*
Y4356298D01*
X6555039Y4306220D02*
X6575039D01*
X6565039Y4296220D02*
Y4316220D01*
X6574803Y4108267D02*
Y4165354D01*
Y4108267D02*
X6653543Y4029527D01*
X6574803Y4165354D02*
Y4220472D01*
X6653543Y4356298D02*
X6929134D01*
Y4029527D02*
Y4356298D01*
X6574803Y4220472D02*
Y4277558D01*
X6653543Y4356298D01*
X3956693Y4822835D02*
X6515748D01*
X3956693Y3641732D02*
X6515748D01*
X3956693D02*
Y4822835D01*
X6515748Y3641732D02*
Y4822835D01*
X6240158Y3681102D02*
Y3877953D01*
X4232283Y3681102D02*
Y3877953D01*
Y3681102D02*
X6240158D01*
X4232283Y3877953D02*
X6240158D01*
X12283465Y3415354D02*
Y3671260D01*
X12559055Y3415354D02*
Y3671260D01*
X12283465D02*
X12559055D01*
X12283465Y3415354D02*
X12559055D01*
X12106299Y3753583D02*
X12185039D01*
X12106299D02*
Y3923583D01*
X12185039D01*
Y3753583D02*
Y3923583D01*
X12712598Y3704724D02*
Y4208662D01*
X12208661Y3704724D02*
Y4208662D01*
Y3704724D02*
X12712598D01*
X12208661Y4208662D02*
X12712598D01*
D90*
X12053559Y4289370D02*
Y4411417D01*
X12001559D02*
X12053559D01*
X12001559Y4289370D02*
X12053559D01*
X12001559D02*
Y4411417D01*
X12132299Y4289370D02*
Y4411417D01*
X12080299D02*
X12132299D01*
X12080299Y4289370D02*
X12132299D01*
X12080299D02*
Y4411417D01*
X12211039Y4289370D02*
Y4411417D01*
X12159039D02*
X12211039D01*
X12159039Y4289370D02*
X12211039D01*
X12159039D02*
Y4411417D01*
X12289780Y4289370D02*
Y4411417D01*
X12237780D02*
X12289780D01*
X12237780Y4289370D02*
X12289780D01*
X12237780D02*
Y4411417D01*
X12204315Y4919291D02*
Y5041338D01*
Y4919291D02*
X12256315D01*
X12204315Y5041338D02*
X12256315D01*
Y4919291D02*
Y5041338D01*
X12283055Y4919291D02*
Y5041338D01*
Y4919291D02*
X12335055D01*
X12283055Y5041338D02*
X12335055D01*
Y4919291D02*
Y5041338D01*
X12361795Y4919291D02*
Y5041338D01*
Y4919291D02*
X12413795D01*
X12361795Y5041338D02*
X12413795D01*
Y4919291D02*
Y5041338D01*
X12440535Y4919291D02*
Y5041338D01*
Y4919291D02*
X12492535D01*
X12440535Y5041338D02*
X12492535D01*
Y4919291D02*
Y5041338D01*
X12519276Y4919291D02*
Y5041338D01*
Y4919291D02*
X12571276D01*
X12519276Y5041338D02*
X12571276D01*
Y4919291D02*
Y5041338D01*
X12598016Y4919291D02*
Y5041338D01*
Y4919291D02*
X12650016D01*
X12598016Y5041338D02*
X12650016D01*
Y4919291D02*
Y5041338D01*
X11251646Y4281496D02*
X11425197D01*
X11251646D02*
Y4379921D01*
X11425197D01*
Y4281496D02*
Y4379921D01*
X11277559Y4632299D02*
X11399606D01*
X11277559Y4580299D02*
Y4632299D01*
X11399606Y4580299D02*
Y4632299D01*
X11277559Y4580299D02*
X11399606D01*
X11277559Y4553559D02*
X11399606D01*
X11277559Y4501559D02*
Y4553559D01*
X11399606Y4501559D02*
Y4553559D01*
X11277559Y4501559D02*
X11399606D01*
X11277559Y4474819D02*
X11399606D01*
X11277559Y4422819D02*
Y4474819D01*
X11399606Y4422819D02*
Y4474819D01*
X11277559Y4422819D02*
X11399606D01*
X11277559Y4711039D02*
X11399606D01*
X11277559Y4659039D02*
Y4711039D01*
X11399606Y4659039D02*
Y4711039D01*
X11277559Y4659039D02*
X11399606D01*
X9511810Y3803150D02*
X9740157D01*
X9511810Y3480314D02*
X9740157D01*
Y3803150D01*
X9511810Y3480314D02*
Y3803150D01*
X9399606Y3728347D02*
X9498031D01*
X9399606Y3554795D02*
Y3728347D01*
Y3554795D02*
X9498031D01*
Y3728347D01*
X9950787D02*
X10049213D01*
X9950787Y3554795D02*
Y3728347D01*
Y3554795D02*
X10049213D01*
Y3728347D01*
X10062991Y3803150D02*
X10291338D01*
X10062991Y3480314D02*
X10291338D01*
Y3803150D01*
X10062991Y3480314D02*
Y3803150D01*
X10501969Y3728347D02*
X10600394D01*
X10501969Y3554795D02*
Y3728347D01*
Y3554795D02*
X10600394D01*
Y3728347D01*
X10614173Y3803150D02*
X10842520D01*
X10614173Y3480314D02*
X10842520D01*
Y3803150D01*
X10614173Y3480314D02*
Y3803150D01*
X11053150Y3728347D02*
X11151575D01*
X11053150Y3554795D02*
Y3728347D01*
Y3554795D02*
X11151575D01*
Y3728347D01*
X11165354Y3803150D02*
X11393701D01*
X11165354Y3480314D02*
X11393701D01*
Y3803150D01*
X11165354Y3480314D02*
Y3803150D01*
X10175197Y4659039D02*
X10297244D01*
Y4711039D01*
X10175197Y4659039D02*
Y4711039D01*
X10297244D01*
X10175197Y4580299D02*
X10297244D01*
Y4632299D01*
X10175197Y4580299D02*
Y4632299D01*
X10297244D01*
X10175197Y4501559D02*
X10297244D01*
Y4553559D01*
X10175197Y4501559D02*
Y4553559D01*
X10297244D01*
X10175197Y4422819D02*
X10297244D01*
Y4474819D01*
X10175197Y4422819D02*
Y4474819D01*
X10297244D01*
X10322835Y4281496D02*
Y4379921D01*
X10149283D02*
X10322835D01*
X10149283Y4281496D02*
Y4379921D01*
Y4281496D02*
X10322835D01*
X10506315Y4482283D02*
Y4604331D01*
X10454315D02*
X10506315D01*
X10454315Y4482283D02*
X10506315D01*
X10454315D02*
Y4604331D01*
X10588583Y4758283D02*
X10710630D01*
X10588583Y4706283D02*
Y4758283D01*
X10710630Y4706283D02*
Y4758283D01*
X10588583Y4706283D02*
X10710630D01*
X10588583Y4691354D02*
X10710630D01*
X10588583Y4639354D02*
Y4691354D01*
X10710630Y4639354D02*
Y4691354D01*
X10588583Y4639354D02*
X10710630D01*
X10565370Y4482283D02*
Y4604331D01*
X10513370D02*
X10565370D01*
X10513370Y4482283D02*
X10565370D01*
X10513370D02*
Y4604331D01*
X10726378Y4659039D02*
X10848425D01*
Y4711039D01*
X10726378Y4659039D02*
Y4711039D01*
X10848425D01*
X10726378Y4580299D02*
X10848425D01*
Y4632299D01*
X10726378Y4580299D02*
Y4632299D01*
X10848425D01*
X10726378Y4501559D02*
X10848425D01*
Y4553559D01*
X10726378Y4501559D02*
Y4553559D01*
X10848425D01*
X10726378Y4422819D02*
X10848425D01*
Y4474819D01*
X10726378Y4422819D02*
Y4474819D01*
X10848425D01*
X10874016Y4281496D02*
Y4379921D01*
X10700465D02*
X10874016D01*
X10700465Y4281496D02*
Y4379921D01*
Y4281496D02*
X10874016D01*
X11057496Y4482283D02*
Y4604331D01*
X11005496D02*
X11057496D01*
X11005496Y4482283D02*
X11057496D01*
X11005496D02*
Y4604331D01*
X11139764Y4758283D02*
X11261811D01*
X11139764Y4706283D02*
Y4758283D01*
X11261811Y4706283D02*
Y4758283D01*
X11139764Y4706283D02*
X11261811D01*
X11139764Y4691354D02*
X11261811D01*
X11139764Y4639354D02*
Y4691354D01*
X11261811Y4639354D02*
Y4691354D01*
X11139764Y4639354D02*
X11261811D01*
X11116551Y4482283D02*
Y4604331D01*
X11064551D02*
X11116551D01*
X11064551Y4482283D02*
X11116551D01*
X11064551D02*
Y4604331D01*
X10092519Y4779528D02*
X10320866D01*
X10092519Y5102363D02*
X10320866D01*
X10092519Y4779528D02*
Y5102363D01*
X10320866Y4779528D02*
Y5102363D01*
X9980315Y4913386D02*
X10078740D01*
Y5086937D01*
X9980315D02*
X10078740D01*
X9980315Y4913386D02*
Y5086937D01*
X10643700Y4779528D02*
X10872047D01*
X10643700Y5102363D02*
X10872047D01*
X10643700Y4779528D02*
Y5102363D01*
X10872047Y4779528D02*
Y5102363D01*
X10531496Y4913386D02*
X10629921D01*
Y5086937D01*
X10531496D02*
X10629921D01*
X10531496Y4913386D02*
Y5086937D01*
X9624016Y4659039D02*
X9746063D01*
Y4711039D01*
X9624016Y4659039D02*
Y4711039D01*
X9746063D01*
X9624016Y4580299D02*
X9746063D01*
Y4632299D01*
X9624016Y4580299D02*
Y4632299D01*
X9746063D01*
X9624016Y4501559D02*
X9746063D01*
Y4553559D01*
X9624016Y4501559D02*
Y4553559D01*
X9746063D01*
X9624016Y4422819D02*
X9746063D01*
Y4474819D01*
X9624016Y4422819D02*
Y4474819D01*
X9746063D01*
X9771654Y4281496D02*
Y4379921D01*
X9598102D02*
X9771654D01*
X9598102Y4281496D02*
Y4379921D01*
Y4281496D02*
X9771654D01*
X9955134Y4482283D02*
Y4604331D01*
X9903134D02*
X9955134D01*
X9903134Y4482283D02*
X9955134D01*
X9903134D02*
Y4604331D01*
X10037402Y4758283D02*
X10159449D01*
X10037402Y4706283D02*
Y4758283D01*
X10159449Y4706283D02*
Y4758283D01*
X10037402Y4706283D02*
X10159449D01*
X10037402Y4691354D02*
X10159449D01*
X10037402Y4639354D02*
Y4691354D01*
X10159449Y4639354D02*
Y4691354D01*
X10037402Y4639354D02*
X10159449D01*
X10014189Y4482283D02*
Y4604331D01*
X9962189D02*
X10014189D01*
X9962189Y4482283D02*
X10014189D01*
X9962189D02*
Y4604331D01*
X11608677Y4482283D02*
Y4604331D01*
X11556677D02*
X11608677D01*
X11556677Y4482283D02*
X11608677D01*
X11556677D02*
Y4604331D01*
X11690945Y4758283D02*
X11812992D01*
X11690945Y4706283D02*
Y4758283D01*
X11812992Y4706283D02*
Y4758283D01*
X11690945Y4706283D02*
X11812992D01*
X11690945Y4691354D02*
X11812992D01*
X11690945Y4639354D02*
Y4691354D01*
X11812992Y4639354D02*
Y4691354D01*
X11690945Y4639354D02*
X11812992D01*
X11667732Y4482283D02*
Y4604331D01*
X11615732D02*
X11667732D01*
X11615732Y4482283D02*
X11667732D01*
X11615732D02*
Y4604331D01*
X9541338Y4779528D02*
X9769685D01*
X9541338Y5102363D02*
X9769685D01*
X9541338Y4779528D02*
Y5102363D01*
X9769685Y4779528D02*
Y5102363D01*
X9429134Y4913386D02*
X9527559D01*
Y5086937D01*
X9429134D02*
X9527559D01*
X9429134Y4913386D02*
Y5086937D01*
X11194881Y4779528D02*
X11423228D01*
X11194881Y5102363D02*
X11423228D01*
X11194881Y4779528D02*
Y5102363D01*
X11423228Y4779528D02*
Y5102363D01*
X11082677Y4913386D02*
X11181102D01*
Y5086937D01*
X11082677D02*
X11181102D01*
X11082677Y4913386D02*
Y5086937D01*
X8206182Y8302006D02*
X8292482Y8388307D01*
X8206182Y8302006D02*
X8242951Y8265237D01*
X8292482Y8388307D02*
X8329252Y8351537D01*
X8242951Y8265237D02*
X8329252Y8351537D01*
X14878362Y4033465D02*
Y4155512D01*
X14826362D02*
X14878362D01*
X14826362Y4033465D02*
X14878362D01*
X14826362D02*
Y4155512D01*
X14947260Y4033465D02*
Y4155512D01*
X14895260D02*
X14947260D01*
X14895260Y4033465D02*
X14947260D01*
X14895260D02*
Y4155512D01*
X15016157Y4033465D02*
Y4155512D01*
X14964157D02*
X15016157D01*
X14964157Y4033465D02*
X15016157D01*
X14964157D02*
Y4155512D01*
X14809465Y4033465D02*
Y4155512D01*
X14757465D02*
X14809465D01*
X14757465Y4033465D02*
X14809465D01*
X14757465D02*
Y4155512D01*
X14750409Y3462598D02*
Y3584646D01*
X14698409D02*
X14750409D01*
X14698409Y3462598D02*
X14750409D01*
X14698409D02*
Y3584646D01*
X14829150Y3462598D02*
Y3584646D01*
X14777150D02*
X14829150D01*
X14777150Y3462598D02*
X14829150D01*
X14777150D02*
Y3584646D01*
X14681512Y3462598D02*
Y3584646D01*
X14629512D02*
X14681512D01*
X14629512Y3462598D02*
X14681512D01*
X14629512D02*
Y3584646D01*
X14612614Y3462598D02*
Y3584646D01*
X14560614D02*
X14612614D01*
X14560614Y3462598D02*
X14612614D01*
X14560614D02*
Y3584646D01*
X14543717Y3462598D02*
Y3584646D01*
X14491717D02*
X14543717D01*
X14491717Y3462598D02*
X14543717D01*
X14491717D02*
Y3584646D01*
X14474819Y3462598D02*
Y3584646D01*
X14422819D02*
X14474819D01*
X14422819Y3462598D02*
X14474819D01*
X14422819D02*
Y3584646D01*
X14031906Y4033465D02*
Y4155512D01*
X13979906D02*
X14031906D01*
X13979906Y4033465D02*
X14031906D01*
X13979906D02*
Y4155512D01*
X13963008Y4033465D02*
Y4155512D01*
X13911008D02*
X13963008D01*
X13911008Y4033465D02*
X13963008D01*
X13911008D02*
Y4155512D01*
X13894110Y4033465D02*
Y4155512D01*
X13842110D02*
X13894110D01*
X13842110Y4033465D02*
X13894110D01*
X13842110D02*
Y4155512D01*
X13825213Y4033465D02*
Y4155512D01*
X13773213D02*
X13825213D01*
X13773213Y4033465D02*
X13825213D01*
X13773213D02*
Y4155512D01*
X13766157Y3462598D02*
Y3584646D01*
X13714157D02*
X13766157D01*
X13714157Y3462598D02*
X13766157D01*
X13714157D02*
Y3584646D01*
X13851040Y3462598D02*
Y3584646D01*
X13799040D02*
X13851040D01*
X13799040Y3462598D02*
X13851040D01*
X13799040D02*
Y3584646D01*
X13697260Y3462598D02*
Y3584646D01*
X13645260D02*
X13697260D01*
X13645260Y3462598D02*
X13697260D01*
X13645260D02*
Y3584646D01*
X13628362Y3462598D02*
Y3584646D01*
X13576362D02*
X13628362D01*
X13576362Y3462598D02*
X13628362D01*
X13576362D02*
Y3584646D01*
X13559465Y3462598D02*
Y3584646D01*
X13507465D02*
X13559465D01*
X13507465Y3462598D02*
X13559465D01*
X13507465D02*
Y3584646D01*
X13490567Y3462598D02*
Y3584646D01*
X13438567D02*
X13490567D01*
X13438567Y3462598D02*
X13490567D01*
X13438567D02*
Y3584646D01*
X14031906Y4860236D02*
Y4982283D01*
X13979906D02*
X14031906D01*
X13979906Y4860236D02*
X14031906D01*
X13979906D02*
Y4982283D01*
X13963008Y4860236D02*
Y4982283D01*
X13911008D02*
X13963008D01*
X13911008Y4860236D02*
X13963008D01*
X13911008D02*
Y4982283D01*
X13894110Y4860236D02*
Y4982283D01*
X13842110D02*
X13894110D01*
X13842110Y4860236D02*
X13894110D01*
X13842110D02*
Y4982283D01*
X13825213Y4860236D02*
Y4982283D01*
X13773213D02*
X13825213D01*
X13773213Y4860236D02*
X13825213D01*
X13773213D02*
Y4982283D01*
X13766158Y4289370D02*
Y4411417D01*
X13714158D02*
X13766158D01*
X13714158Y4289370D02*
X13766158D01*
X13714158D02*
Y4411417D01*
X13844898Y4289370D02*
Y4411417D01*
X13792898D02*
X13844898D01*
X13792898Y4289370D02*
X13844898D01*
X13792898D02*
Y4411417D01*
X13697260Y4289370D02*
Y4411417D01*
X13645260D02*
X13697260D01*
X13645260Y4289370D02*
X13697260D01*
X13645260D02*
Y4411417D01*
X13628362Y4289370D02*
Y4411417D01*
X13576362D02*
X13628362D01*
X13576362Y4289370D02*
X13628362D01*
X13576362D02*
Y4411417D01*
X13559465Y4289370D02*
Y4411417D01*
X13507465D02*
X13559465D01*
X13507465Y4289370D02*
X13559465D01*
X13507465D02*
Y4411417D01*
X13490567Y4289370D02*
Y4411417D01*
X13438567D02*
X13490567D01*
X13438567Y4289370D02*
X13490567D01*
X13438567D02*
Y4411417D01*
X6735811Y4968504D02*
Y5090551D01*
Y4968504D02*
X6787811D01*
X6735811Y5090551D02*
X6787811D01*
Y4968504D02*
Y5090551D01*
X6804709Y4968504D02*
Y5090551D01*
Y4968504D02*
X6856709D01*
X6804709Y5090551D02*
X6856709D01*
Y4968504D02*
Y5090551D01*
X6873606Y4968504D02*
Y5090551D01*
Y4968504D02*
X6925606D01*
X6873606Y5090551D02*
X6925606D01*
Y4968504D02*
Y5090551D01*
X6598016Y4968504D02*
Y5090551D01*
Y4968504D02*
X6650016D01*
X6598016Y5090551D02*
X6650016D01*
Y4968504D02*
Y5090551D01*
X6666913Y4968504D02*
Y5090551D01*
Y4968504D02*
X6718913D01*
X6666913Y5090551D02*
X6718913D01*
Y4968504D02*
Y5090551D01*
X6942504Y4968504D02*
Y5090551D01*
Y4968504D02*
X6994504D01*
X6942504Y5090551D02*
X6994504D01*
Y4968504D02*
Y5090551D01*
X6395669Y4373606D02*
X6517717D01*
Y4425606D01*
X6395669Y4373606D02*
Y4425606D01*
X6517717D01*
X6395669Y4304709D02*
X6517717D01*
Y4356709D01*
X6395669Y4304709D02*
Y4356709D01*
X6517717D01*
X6395669Y4235811D02*
X6517717D01*
Y4287811D01*
X6395669Y4235811D02*
Y4287811D01*
X6517717D01*
X6395669Y4166913D02*
X6517717D01*
Y4218913D01*
X6395669Y4166913D02*
Y4218913D01*
X6517717D01*
X6001969Y3497622D02*
X6124016D01*
Y3549622D01*
X6001969Y3497622D02*
Y3549622D01*
X6124016D01*
X6159449D02*
X6281496D01*
X6159449Y3497622D02*
Y3549622D01*
X6281496Y3497622D02*
Y3549622D01*
X6159449Y3497622D02*
X6281496D01*
X12588583Y3649606D02*
X12687008D01*
X12588583Y3476055D02*
Y3649606D01*
Y3476055D02*
X12687008D01*
Y3649606D01*
X12155512Y3570866D02*
X12253937D01*
X12155512Y3397315D02*
Y3570866D01*
Y3397315D02*
X12253937D01*
Y3570866D01*
X12037402D02*
X12135827D01*
X12037402Y3397315D02*
Y3570866D01*
Y3397315D02*
X12135827D01*
Y3570866D01*
X11919291D02*
X12017717D01*
X11919291Y3397315D02*
Y3570866D01*
Y3397315D02*
X12017717D01*
Y3570866D01*
D91*
X9763778Y4803150D02*
X10000000D01*
X9763778Y4645668D02*
X10000000D01*
X9763778D02*
Y4803150D01*
X10000000Y4645668D02*
Y4803150D01*
X10314960D02*
X10551181D01*
X10314960Y4645668D02*
X10551181D01*
X10314960D02*
Y4803150D01*
X10551181Y4645668D02*
Y4803150D01*
X10866141D02*
X11102362D01*
X10866141Y4645668D02*
X11102362D01*
X10866141D02*
Y4803150D01*
X11102362Y4645668D02*
Y4803150D01*
X11417322D02*
X11653543D01*
X11417322Y4645668D02*
X11653543D01*
X11417322D02*
Y4803150D01*
X11653543Y4645668D02*
Y4803150D01*
X793307Y4801575D02*
Y5001575D01*
X1293308Y4801575D02*
Y5001575D01*
X793307D02*
X1293308D01*
X793307Y4801575D02*
X1293308D01*
X7175591Y11588583D02*
X7375591D01*
X7175591Y11088582D02*
X7375591D01*
Y11588583D01*
X7175591Y11088582D02*
Y11588583D01*
X8114173Y8610236D02*
Y8712598D01*
X8027557Y8610236D02*
Y8712598D01*
Y8610236D02*
X8114173D01*
X8027557Y8712598D02*
X8114173D01*
X8047244Y10724409D02*
Y10771655D01*
X8094490Y10724409D02*
Y10771655D01*
X8047244D02*
X8094490D01*
X8047244Y10724409D02*
X8094490D01*
X8047244Y10133858D02*
Y10181104D01*
X8094490Y10133858D02*
Y10181104D01*
X8047244D02*
X8094490D01*
X8047244Y10133858D02*
X8094490D01*
X7334646Y10059054D02*
Y10098425D01*
X7232282Y10059054D02*
Y10098425D01*
Y10059054D02*
X7334646D01*
X7232282Y10098425D02*
X7334646D01*
Y9468503D02*
Y9507874D01*
X7232282Y9468503D02*
Y9507874D01*
Y9468503D02*
X7334646D01*
X7232282Y9507874D02*
X7334646D01*
X7326772Y10224409D02*
Y10326772D01*
X7240156Y10224409D02*
Y10326772D01*
Y10224409D02*
X7326772D01*
X7240156Y10326772D02*
X7326772D01*
Y9633858D02*
Y9736220D01*
X7240156Y9633858D02*
Y9736220D01*
Y9633858D02*
X7326772D01*
X7240156Y9736220D02*
X7326772D01*
X8047244Y9543307D02*
Y9590553D01*
X8094490Y9543307D02*
Y9590553D01*
X8047244D02*
X8094490D01*
X8047244Y9543307D02*
X8094490D01*
X8047244Y8952756D02*
Y9000002D01*
X8094490Y8952756D02*
Y9000002D01*
X8047244D02*
X8094490D01*
X8047244Y8952756D02*
X8094490D01*
X7531496Y8956692D02*
Y8996063D01*
X7429132Y8956692D02*
Y8996063D01*
Y8956692D02*
X7531496D01*
X7429132Y8996063D02*
X7531496D01*
X8122047Y8444880D02*
Y8484252D01*
X8019684Y8444880D02*
Y8484252D01*
Y8444880D02*
X8122047D01*
X8019684Y8484252D02*
X8122047D01*
X7523622Y9043307D02*
Y9145669D01*
X7437006Y9043307D02*
Y9145669D01*
Y9043307D02*
X7523622D01*
X7437006Y9145669D02*
X7523622D01*
X14848425Y4801575D02*
Y5001575D01*
X15348426Y4801575D02*
Y5001575D01*
X14848425D02*
X15348426D01*
X14848425Y4801575D02*
X15348426D01*
X8766141Y11088583D02*
X8966142D01*
X8766141Y11588583D02*
X8966142D01*
X8766141Y11088583D02*
Y11588583D01*
X8966142Y11088583D02*
Y11588583D01*
X7903541Y10925197D02*
X8238189D01*
X7903541Y10807084D02*
X8238189D01*
X7903541D02*
Y10925197D01*
X8238189Y10807084D02*
Y10925197D01*
X7962596Y10777558D02*
X8179133D01*
X7962596Y10807086D02*
X8179133D01*
Y10777558D02*
Y10807086D01*
X7962596Y10777558D02*
Y10807086D01*
X8179134Y10925193D02*
Y10954724D01*
X7962595Y10925193D02*
Y10954724D01*
Y10925193D02*
X8179134D01*
X7962595Y10954724D02*
X8179134D01*
X7903541Y10334646D02*
X8238189D01*
X7903541Y10216533D02*
X8238189D01*
X7903541D02*
Y10334646D01*
X8238189Y10216533D02*
Y10334646D01*
X7962596Y10187007D02*
X8179133D01*
X7962596Y10216535D02*
X8179133D01*
Y10187007D02*
Y10216535D01*
X7962596Y10187007D02*
Y10216535D01*
X8179134Y10334642D02*
Y10364173D01*
X7962595Y10334642D02*
Y10364173D01*
Y10334642D02*
X8179134D01*
X7962595Y10364173D02*
X8179134D01*
X7903541Y9744094D02*
X8238189D01*
X7903541Y9625982D02*
X8238189D01*
X7903541D02*
Y9744094D01*
X8238189Y9625982D02*
Y9744094D01*
X7962596Y9596456D02*
X8179133D01*
X7962596Y9625983D02*
X8179133D01*
Y9596456D02*
Y9625983D01*
X7962596Y9596456D02*
Y9625983D01*
X8179134Y9744091D02*
Y9773622D01*
X7962595Y9744091D02*
Y9773622D01*
Y9744091D02*
X8179134D01*
X7962595Y9773622D02*
X8179134D01*
X7903541Y9153543D02*
X8238189D01*
X7903541Y9035430D02*
X8238189D01*
X7903541D02*
Y9153543D01*
X8238189Y9035430D02*
Y9153543D01*
X7962596Y9005905D02*
X8179133D01*
X7962596Y9035432D02*
X8179133D01*
Y9005905D02*
Y9035432D01*
X7962596Y9005905D02*
Y9035432D01*
X8179134Y9153540D02*
Y9183071D01*
X7962595Y9153540D02*
Y9183071D01*
Y9153540D02*
X8179134D01*
X7962595Y9183071D02*
X8179134D01*
X7598425Y8346454D02*
Y8740157D01*
X7204722Y8346454D02*
Y8740157D01*
Y8346454D02*
X7598425D01*
X7204722Y8740157D02*
X7598425D01*
X8787402Y5688976D02*
Y5728348D01*
X8889765Y5688976D02*
Y5728348D01*
X8787402D02*
X8889765D01*
X8787402Y5688976D02*
X8889765D01*
X7881890D02*
Y5728348D01*
X7984253Y5688976D02*
Y5728348D01*
X7881890D02*
X7984253D01*
X7881890Y5688976D02*
X7984253D01*
X8354331D02*
Y5728348D01*
X8456694Y5688976D02*
Y5728348D01*
X8354331D02*
X8456694D01*
X8354331Y5688976D02*
X8456694D01*
X7448819D02*
Y5728348D01*
X7551183Y5688976D02*
Y5728348D01*
X7448819D02*
X7551183D01*
X7448819Y5688976D02*
X7551183D01*
X8795276Y5460630D02*
X8881891D01*
X8795276Y5562992D02*
X8881891D01*
Y5460630D02*
Y5562992D01*
X8795276Y5460630D02*
Y5562992D01*
X8362205Y5460630D02*
X8448820D01*
X8362205Y5562992D02*
X8448820D01*
Y5460630D02*
Y5562992D01*
X8362205Y5460630D02*
Y5562992D01*
X7889764Y5460630D02*
X7976379D01*
X7889764Y5562992D02*
X7976379D01*
Y5460630D02*
Y5562992D01*
X7889764Y5460630D02*
Y5562992D01*
X7456693Y5460630D02*
Y5562992D01*
X7543309Y5460630D02*
Y5562992D01*
X7456693D02*
X7543309D01*
X7456693Y5460630D02*
X7543309D01*
X8186177Y7086616D02*
X8464567Y6808226D01*
Y7365006D02*
X8742957Y7086616D01*
X8186177D02*
X8464567Y7365006D01*
Y6808226D02*
X8742957Y7086616D01*
X7280665D02*
X7559055Y6808226D01*
Y7365006D02*
X7837445Y7086616D01*
X7280665D02*
X7559055Y7365006D01*
Y6808226D02*
X7837445Y7086616D01*
D92*
X12105923Y4665046D02*
X12090928D01*
Y4672543D01*
X12093427Y4675043D01*
X12098425D01*
X12100924Y4672543D01*
Y4665046D01*
Y4670044D02*
X12105923Y4675043D01*
Y4690038D02*
Y4680041D01*
X12095926Y4690038D01*
X12093427D01*
X12090928Y4687539D01*
Y4682540D01*
X12093427Y4680041D01*
Y4695036D02*
X12090928Y4697535D01*
Y4702534D01*
X12093427Y4705033D01*
X12095926D01*
X12098425Y4702534D01*
X12100924Y4705033D01*
X12103424D01*
X12105923Y4702534D01*
Y4697535D01*
X12103424Y4695036D01*
X12100924D01*
X12098425Y4697535D01*
X12095926Y4695036D01*
X12093427D01*
X12098425Y4697535D02*
Y4702534D01*
X12196542Y4606676D02*
Y4621671D01*
X12204039D01*
X12206539Y4619172D01*
Y4614173D01*
X12204039Y4611674D01*
X12196542D01*
X12201540D02*
X12206539Y4606676D01*
X12221534D02*
X12211537D01*
X12221534Y4616672D01*
Y4619172D01*
X12219035Y4621671D01*
X12214036D01*
X12211537Y4619172D01*
X12226532Y4621671D02*
X12236529D01*
Y4619172D01*
X12226532Y4609175D01*
Y4606676D01*
X12066621Y4500376D02*
Y4515372D01*
X12074118D01*
X12076617Y4512872D01*
Y4507874D01*
X12074118Y4505375D01*
X12066621D01*
X12071619D02*
X12076617Y4500376D01*
X12091613D02*
X12081616D01*
X12091613Y4510373D01*
Y4512872D01*
X12089113Y4515372D01*
X12084115D01*
X12081616Y4512872D01*
X12106608Y4515372D02*
X12101609Y4512872D01*
X12096611Y4507874D01*
Y4502876D01*
X12099110Y4500376D01*
X12104109D01*
X12106608Y4502876D01*
Y4505375D01*
X12104109Y4507874D01*
X12096611D01*
X12440568Y4665046D02*
X12425573D01*
Y4672543D01*
X12428072Y4675042D01*
X12433071D01*
X12435570Y4672543D01*
Y4665046D01*
Y4670044D02*
X12440568Y4675042D01*
Y4690038D02*
Y4680041D01*
X12430572Y4690038D01*
X12428072D01*
X12425573Y4687538D01*
Y4682540D01*
X12428072Y4680041D01*
X12425573Y4705033D02*
Y4695036D01*
X12433071D01*
X12430572Y4700034D01*
Y4702534D01*
X12433071Y4705033D01*
X12438069D01*
X12440568Y4702534D01*
Y4697535D01*
X12438069Y4695036D01*
X12519000Y4629545D02*
Y4614550D01*
X12528997D01*
X12543992Y4629545D02*
X12538994Y4627046D01*
X12533995Y4622047D01*
Y4617049D01*
X12536495Y4614550D01*
X12541493D01*
X12543992Y4617049D01*
Y4619548D01*
X12541493Y4622047D01*
X12533995D01*
X12370455Y4742725D02*
Y4747723D01*
Y4745224D01*
X12385450D01*
Y4742725D01*
Y4747723D01*
X12372954Y4765217D02*
X12370455Y4762718D01*
Y4757720D01*
X12372954Y4755221D01*
X12382951D01*
X12385450Y4757720D01*
Y4762718D01*
X12382951Y4765217D01*
X12385450Y4770216D02*
Y4775214D01*
Y4772715D01*
X12370455D01*
X12372954Y4770216D01*
X12385450Y4790209D02*
X12370455D01*
X12377953Y4782712D01*
Y4792709D01*
X12113112Y4550684D02*
X12110612Y4548185D01*
Y4543187D01*
X12113112Y4540688D01*
X12123109D01*
X12125608Y4543187D01*
Y4548185D01*
X12123109Y4550684D01*
X12125608Y4555683D02*
Y4560681D01*
Y4558182D01*
X12110612D01*
X12113112Y4555683D01*
X12110612Y4578176D02*
X12113112Y4573177D01*
X12118110Y4568179D01*
X12123109D01*
X12125608Y4570678D01*
Y4575676D01*
X12123109Y4578176D01*
X12120609D01*
X12118110Y4575676D01*
Y4568179D01*
X12113112Y4583174D02*
X12110612Y4585673D01*
Y4590672D01*
X12113112Y4593171D01*
X12115611D01*
X12118110Y4590672D01*
X12120609Y4593171D01*
X12123109D01*
X12125608Y4590672D01*
Y4585673D01*
X12123109Y4583174D01*
X12120609D01*
X12118110Y4585673D01*
X12115611Y4583174D01*
X12113112D01*
X12118110Y4585673D02*
Y4590672D01*
X12200291Y4524683D02*
X12197791Y4527183D01*
X12192793D01*
X12190294Y4524683D01*
Y4514687D01*
X12192793Y4512187D01*
X12197791D01*
X12200291Y4514687D01*
X12205289Y4512187D02*
X12210287D01*
X12207788D01*
Y4527183D01*
X12205289Y4524683D01*
X12227782Y4527183D02*
X12222783Y4524683D01*
X12217785Y4519685D01*
Y4514687D01*
X12220284Y4512187D01*
X12225283D01*
X12227782Y4514687D01*
Y4517186D01*
X12225283Y4519685D01*
X12217785D01*
X12232780Y4527183D02*
X12242777D01*
Y4524683D01*
X12232780Y4514687D01*
Y4512187D01*
X12093427Y4826275D02*
X12090927Y4823776D01*
Y4818777D01*
X12093427Y4816278D01*
X12103424D01*
X12105923Y4818777D01*
Y4823776D01*
X12103424Y4826275D01*
X12105923Y4831273D02*
Y4836272D01*
Y4833773D01*
X12090927D01*
X12093427Y4831273D01*
X12090927Y4853766D02*
X12093427Y4848768D01*
X12098425Y4843769D01*
X12103424D01*
X12105923Y4846269D01*
Y4851267D01*
X12103424Y4853766D01*
X12100924D01*
X12098425Y4851267D01*
Y4843769D01*
X12090927Y4868761D02*
X12093427Y4863763D01*
X12098425Y4858765D01*
X12103424D01*
X12105923Y4861264D01*
Y4866262D01*
X12103424Y4868761D01*
X12100924D01*
X12098425Y4866262D01*
Y4858765D01*
X12216812Y5078311D02*
X12214313Y5080810D01*
X12209314D01*
X12206815Y5078311D01*
Y5068314D01*
X12209314Y5065815D01*
X12214313D01*
X12216812Y5068314D01*
X12221810Y5065815D02*
X12226809D01*
X12224309D01*
Y5080810D01*
X12221810Y5078311D01*
X12244303Y5080810D02*
X12239305Y5078311D01*
X12234306Y5073312D01*
Y5068314D01*
X12236805Y5065815D01*
X12241804D01*
X12244303Y5068314D01*
Y5070813D01*
X12241804Y5073312D01*
X12234306D01*
X12259298Y5080810D02*
X12249301D01*
Y5073312D01*
X12254300Y5075812D01*
X12256799D01*
X12259298Y5073312D01*
Y5068314D01*
X12256799Y5065815D01*
X12251801D01*
X12249301Y5068314D01*
X12295552Y5078311D02*
X12293053Y5080810D01*
X12288054D01*
X12285555Y5078311D01*
Y5068314D01*
X12288054Y5065815D01*
X12293053D01*
X12295552Y5068314D01*
X12300550Y5065815D02*
X12305549D01*
X12303049D01*
Y5080810D01*
X12300550Y5078311D01*
X12323043Y5080810D02*
X12318045Y5078311D01*
X12313046Y5073312D01*
Y5068314D01*
X12315546Y5065815D01*
X12320544D01*
X12323043Y5068314D01*
Y5070813D01*
X12320544Y5073312D01*
X12313046D01*
X12335539Y5065815D02*
Y5080810D01*
X12328041Y5073312D01*
X12338038D01*
X12374292Y5078311D02*
X12371793Y5080810D01*
X12366794D01*
X12364295Y5078311D01*
Y5068314D01*
X12366794Y5065815D01*
X12371793D01*
X12374292Y5068314D01*
X12379290Y5065815D02*
X12384289D01*
X12381790D01*
Y5080810D01*
X12379290Y5078311D01*
X12401783Y5080810D02*
X12396785Y5078311D01*
X12391787Y5073312D01*
Y5068314D01*
X12394286Y5065815D01*
X12399284D01*
X12401783Y5068314D01*
Y5070813D01*
X12399284Y5073312D01*
X12391787D01*
X12406782Y5078311D02*
X12409281Y5080810D01*
X12414279D01*
X12416779Y5078311D01*
Y5075812D01*
X12414279Y5073312D01*
X12411780D01*
X12414279D01*
X12416779Y5070813D01*
Y5068314D01*
X12414279Y5065815D01*
X12409281D01*
X12406782Y5068314D01*
X12453032Y5078311D02*
X12450533Y5080810D01*
X12445535D01*
X12443035Y5078311D01*
Y5068314D01*
X12445535Y5065815D01*
X12450533D01*
X12453032Y5068314D01*
X12458031Y5065815D02*
X12463029D01*
X12460530D01*
Y5080810D01*
X12458031Y5078311D01*
X12480523Y5080810D02*
X12475525Y5078311D01*
X12470527Y5073312D01*
Y5068314D01*
X12473026Y5065815D01*
X12478024D01*
X12480523Y5068314D01*
Y5070813D01*
X12478024Y5073312D01*
X12470527D01*
X12495519Y5065815D02*
X12485522D01*
X12495519Y5075812D01*
Y5078311D01*
X12493019Y5080810D01*
X12488021D01*
X12485522Y5078311D01*
X12531772D02*
X12529273Y5080810D01*
X12524275D01*
X12521776Y5078311D01*
Y5068314D01*
X12524275Y5065815D01*
X12529273D01*
X12531772Y5068314D01*
X12536771Y5065815D02*
X12541769D01*
X12539270D01*
Y5080810D01*
X12536771Y5078311D01*
X12559264Y5080810D02*
X12554265Y5078311D01*
X12549267Y5073312D01*
Y5068314D01*
X12551766Y5065815D01*
X12556764D01*
X12559264Y5068314D01*
Y5070813D01*
X12556764Y5073312D01*
X12549267D01*
X12564262Y5065815D02*
X12569260D01*
X12566761D01*
Y5080810D01*
X12564262Y5078311D01*
X12610513D02*
X12608013Y5080810D01*
X12603015D01*
X12600516Y5078311D01*
Y5068314D01*
X12603015Y5065815D01*
X12608013D01*
X12610513Y5068314D01*
X12615511Y5065815D02*
X12620509D01*
X12618010D01*
Y5080810D01*
X12615511Y5078311D01*
X12638004Y5080810D02*
X12633005Y5078311D01*
X12628007Y5073312D01*
Y5068314D01*
X12630506Y5065815D01*
X12635505D01*
X12638004Y5068314D01*
Y5070813D01*
X12635505Y5073312D01*
X12628007D01*
X12643002Y5078311D02*
X12645501Y5080810D01*
X12650500D01*
X12652999Y5078311D01*
Y5068314D01*
X12650500Y5065815D01*
X12645501D01*
X12643002Y5068314D01*
Y5078311D01*
X12062495Y4473502D02*
X12059996Y4476002D01*
X12054998D01*
X12052499Y4473502D01*
Y4463506D01*
X12054998Y4461006D01*
X12059996D01*
X12062495Y4463506D01*
X12067494Y4461006D02*
X12072492D01*
X12069993D01*
Y4476002D01*
X12067494Y4473502D01*
X12089987Y4476002D02*
X12079990D01*
Y4468504D01*
X12084988Y4471003D01*
X12087487D01*
X12089987Y4468504D01*
Y4463506D01*
X12087487Y4461006D01*
X12082489D01*
X12079990Y4463506D01*
X12094985D02*
X12097484Y4461006D01*
X12102483D01*
X12104982Y4463506D01*
Y4473502D01*
X12102483Y4476002D01*
X12097484D01*
X12094985Y4473502D01*
Y4471003D01*
X12097484Y4468504D01*
X12104982D01*
X12011314Y4430195D02*
X12008815Y4432694D01*
X12003817D01*
X12001317Y4430195D01*
Y4420199D01*
X12003817Y4417699D01*
X12008815D01*
X12011314Y4420199D01*
X12016313Y4417699D02*
X12021311D01*
X12018812D01*
Y4432694D01*
X12016313Y4430195D01*
X12038806Y4432694D02*
X12028809D01*
Y4425197D01*
X12033807Y4427696D01*
X12036306D01*
X12038806Y4425197D01*
Y4420199D01*
X12036306Y4417699D01*
X12031308D01*
X12028809Y4420199D01*
X12043804Y4430195D02*
X12046303Y4432694D01*
X12051301D01*
X12053801Y4430195D01*
Y4427696D01*
X12051301Y4425197D01*
X12053801Y4422698D01*
Y4420199D01*
X12051301Y4417699D01*
X12046303D01*
X12043804Y4420199D01*
Y4422698D01*
X12046303Y4425197D01*
X12043804Y4427696D01*
Y4430195D01*
X12046303Y4425197D02*
X12051301D01*
X12090054Y4430195D02*
X12087555Y4432694D01*
X12082557D01*
X12080058Y4430195D01*
Y4420199D01*
X12082557Y4417699D01*
X12087555D01*
X12090054Y4420199D01*
X12095053Y4417699D02*
X12100051D01*
X12097552D01*
Y4432694D01*
X12095053Y4430195D01*
X12117546Y4432694D02*
X12107549D01*
Y4425197D01*
X12112547Y4427696D01*
X12115046D01*
X12117546Y4425197D01*
Y4420199D01*
X12115046Y4417699D01*
X12110048D01*
X12107549Y4420199D01*
X12122544Y4432694D02*
X12132541D01*
Y4430195D01*
X12122544Y4420199D01*
Y4417699D01*
X12168795Y4430195D02*
X12166295Y4432694D01*
X12161297D01*
X12158798Y4430195D01*
Y4420199D01*
X12161297Y4417699D01*
X12166295D01*
X12168795Y4420199D01*
X12173793Y4417699D02*
X12178791D01*
X12176292D01*
Y4432694D01*
X12173793Y4430195D01*
X12196286Y4432694D02*
X12186289D01*
Y4425197D01*
X12191287Y4427696D01*
X12193787D01*
X12196286Y4425197D01*
Y4420199D01*
X12193787Y4417699D01*
X12188788D01*
X12186289Y4420199D01*
X12211281Y4432694D02*
X12206283Y4430195D01*
X12201284Y4425197D01*
Y4420199D01*
X12203783Y4417699D01*
X12208782D01*
X12211281Y4420199D01*
Y4422698D01*
X12208782Y4425197D01*
X12201284D01*
X12244793Y4431686D02*
X12242294Y4434185D01*
X12237296D01*
X12234796Y4431686D01*
Y4421689D01*
X12237296Y4419190D01*
X12242294D01*
X12244793Y4421689D01*
X12249791Y4419190D02*
X12254790D01*
X12252291D01*
Y4434185D01*
X12249791Y4431686D01*
X12272284Y4434185D02*
X12262288D01*
Y4426687D01*
X12267286Y4429187D01*
X12269785D01*
X12272284Y4426687D01*
Y4421689D01*
X12269785Y4419190D01*
X12264787D01*
X12262288Y4421689D01*
X12287280Y4434185D02*
X12277283D01*
Y4426687D01*
X12282281Y4429187D01*
X12284780D01*
X12287280Y4426687D01*
Y4421689D01*
X12284780Y4419190D01*
X12279782D01*
X12277283Y4421689D01*
X12424135Y4826275D02*
X12421636Y4823776D01*
Y4818777D01*
X12424135Y4816278D01*
X12434132D01*
X12436631Y4818777D01*
Y4823776D01*
X12434132Y4826275D01*
X12436631Y4831273D02*
Y4836272D01*
Y4833773D01*
X12421636D01*
X12424135Y4831273D01*
X12421636Y4853766D02*
Y4843769D01*
X12429134D01*
X12426635Y4848768D01*
Y4851267D01*
X12429134Y4853766D01*
X12434132D01*
X12436631Y4851267D01*
Y4846269D01*
X12434132Y4843769D01*
X12436631Y4866262D02*
X12421636D01*
X12429134Y4858765D01*
Y4868761D01*
X8589062Y3630865D02*
Y3640862D01*
X8581565D01*
Y3635864D01*
Y3640862D01*
X8574067D01*
Y3618369D02*
X8589062D01*
X8581565Y3625867D01*
Y3615870D01*
X8589062Y3512755D02*
Y3522752D01*
X8581565D01*
Y3517753D01*
Y3522752D01*
X8574067D01*
X8586563Y3507757D02*
X8589062Y3505258D01*
Y3500259D01*
X8586563Y3497760D01*
X8584064D01*
X8581565Y3500259D01*
Y3502758D01*
Y3500259D01*
X8579065Y3497760D01*
X8576566D01*
X8574067Y3500259D01*
Y3505258D01*
X8576566Y3507757D01*
X9981287Y4825704D02*
Y4810709D01*
X9973790D01*
X9971291Y4813208D01*
Y4818207D01*
X9973790Y4820706D01*
X9981287D01*
X9976289D02*
X9971291Y4825704D01*
X9956295D02*
X9966292D01*
X9956295Y4815708D01*
Y4813208D01*
X9958795Y4810709D01*
X9963793D01*
X9966292Y4813208D01*
X9951297D02*
X9948798Y4810709D01*
X9943799D01*
X9941300Y4813208D01*
Y4815708D01*
X9943799Y4818207D01*
X9946299D01*
X9943799D01*
X9941300Y4820706D01*
Y4823205D01*
X9943799Y4825704D01*
X9948798D01*
X9951297Y4823205D01*
X11634831Y4825704D02*
Y4810709D01*
X11627333D01*
X11624834Y4813208D01*
Y4818207D01*
X11627333Y4820706D01*
X11634831D01*
X11629832D02*
X11624834Y4825704D01*
X11609838D02*
X11619835D01*
X11609838Y4815708D01*
Y4813208D01*
X11612338Y4810709D01*
X11617336D01*
X11619835Y4813208D01*
X11604840Y4825704D02*
X11599842D01*
X11602341D01*
Y4810709D01*
X11604840Y4813208D01*
X10532468Y4825704D02*
Y4810709D01*
X10524971D01*
X10522471Y4813208D01*
Y4818207D01*
X10524971Y4820706D01*
X10532468D01*
X10527470D02*
X10522471Y4825704D01*
X10517473D02*
X10512475D01*
X10514974D01*
Y4810709D01*
X10517473Y4813208D01*
X10504977Y4823205D02*
X10502478Y4825704D01*
X10497479D01*
X10494980Y4823205D01*
Y4813208D01*
X10497479Y4810709D01*
X10502478D01*
X10504977Y4813208D01*
Y4815708D01*
X10502478Y4818207D01*
X10494980D01*
X11083650Y4825704D02*
Y4810709D01*
X11076152D01*
X11073653Y4813208D01*
Y4818207D01*
X11076152Y4820706D01*
X11083650D01*
X11078651D02*
X11073653Y4825704D01*
X11068654D02*
X11063656D01*
X11066155D01*
Y4810709D01*
X11068654Y4813208D01*
X11056158D02*
X11053659Y4810709D01*
X11048661D01*
X11046162Y4813208D01*
Y4815708D01*
X11048661Y4818207D01*
X11046162Y4820706D01*
Y4823205D01*
X11048661Y4825704D01*
X11053659D01*
X11056158Y4823205D01*
Y4820706D01*
X11053659Y4818207D01*
X11056158Y4815708D01*
Y4813208D01*
X11053659Y4818207D02*
X11048661D01*
X9714394Y4636909D02*
Y4641908D01*
Y4639408D01*
X9729390D01*
Y4636909D01*
Y4641908D01*
X9716894Y4659402D02*
X9714394Y4656903D01*
Y4651904D01*
X9716894Y4649405D01*
X9726890D01*
X9729390Y4651904D01*
Y4656903D01*
X9726890Y4659402D01*
X9729390Y4664400D02*
Y4669399D01*
Y4666900D01*
X9714394D01*
X9716894Y4664400D01*
X9729390Y4686893D02*
Y4676896D01*
X9719393Y4686893D01*
X9716894D01*
X9714394Y4684394D01*
Y4679396D01*
X9716894Y4676896D01*
X11367938Y4636909D02*
Y4641908D01*
Y4639408D01*
X11382933D01*
Y4636909D01*
Y4641908D01*
X11370437Y4659402D02*
X11367938Y4656903D01*
Y4651904D01*
X11370437Y4649405D01*
X11380434D01*
X11382933Y4651904D01*
Y4656903D01*
X11380434Y4659402D01*
X11382933Y4664400D02*
Y4669399D01*
Y4666900D01*
X11367938D01*
X11370437Y4664400D01*
Y4676896D02*
X11367938Y4679396D01*
Y4684394D01*
X11370437Y4686893D01*
X11380434D01*
X11382933Y4684394D01*
Y4679396D01*
X11380434Y4676896D01*
X11370437D01*
X10265576Y4636909D02*
Y4641908D01*
Y4639408D01*
X10280571D01*
Y4636909D01*
Y4641908D01*
X10268075Y4659402D02*
X10265576Y4656903D01*
Y4651904D01*
X10268075Y4649405D01*
X10278072D01*
X10280571Y4651904D01*
Y4656903D01*
X10278072Y4659402D01*
X10268075Y4664400D02*
X10265576Y4666900D01*
Y4671898D01*
X10268075Y4674397D01*
X10270574D01*
X10273073Y4671898D01*
X10275572Y4674397D01*
X10278072D01*
X10280571Y4671898D01*
Y4666900D01*
X10278072Y4664400D01*
X10275572D01*
X10273073Y4666900D01*
X10270574Y4664400D01*
X10268075D01*
X10273073Y4666900D02*
Y4671898D01*
X10816757Y4636909D02*
Y4641908D01*
Y4639409D01*
X10831752D01*
Y4636909D01*
Y4641908D01*
X10819256Y4659402D02*
X10816757Y4656903D01*
Y4651905D01*
X10819256Y4649405D01*
X10829253D01*
X10831752Y4651905D01*
Y4656903D01*
X10829253Y4659402D01*
X10816757Y4664401D02*
Y4674397D01*
X10819256D01*
X10829253Y4664401D01*
X10831752D01*
X9728487Y3443736D02*
X9730986Y3441237D01*
X9735984D01*
X9738483Y3443736D01*
Y3453733D01*
X9735984Y3456232D01*
X9730986D01*
X9728487Y3453733D01*
X9723488Y3456232D02*
X9718490D01*
X9720989D01*
Y3441237D01*
X9723488Y3443736D01*
X9700995Y3441237D02*
X9710992D01*
Y3448735D01*
X9705994Y3446235D01*
X9703495D01*
X9700995Y3448735D01*
Y3453733D01*
X9703495Y3456232D01*
X9708493D01*
X9710992Y3453733D01*
X9695997Y3443736D02*
X9693498Y3441237D01*
X9688499D01*
X9686000Y3443736D01*
Y3446235D01*
X9688499Y3448735D01*
X9690999D01*
X9688499D01*
X9686000Y3451234D01*
Y3453733D01*
X9688499Y3456232D01*
X9693498D01*
X9695997Y3453733D01*
X9486322Y3518736D02*
X9488821Y3516237D01*
X9493819D01*
X9496319Y3518736D01*
Y3528733D01*
X9493819Y3531232D01*
X9488821D01*
X9486322Y3528733D01*
X9481324Y3531232D02*
X9476325D01*
X9478824D01*
Y3516237D01*
X9481324Y3518736D01*
X9458831Y3516237D02*
X9468827D01*
Y3523735D01*
X9463829Y3521235D01*
X9461330D01*
X9458831Y3523735D01*
Y3528733D01*
X9461330Y3531232D01*
X9466328D01*
X9468827Y3528733D01*
X9443835Y3531232D02*
X9453832D01*
X9443835Y3521235D01*
Y3518736D01*
X9446335Y3516237D01*
X9451333D01*
X9453832Y3518736D01*
X9553009Y5138941D02*
X9550509Y5141440D01*
X9545511D01*
X9543012Y5138941D01*
Y5128944D01*
X9545511Y5126445D01*
X9550509D01*
X9553009Y5128944D01*
X9558007Y5126445D02*
X9563005D01*
X9560506D01*
Y5141440D01*
X9558007Y5138941D01*
X9580500Y5141440D02*
X9570503D01*
Y5133943D01*
X9575501Y5136442D01*
X9578001D01*
X9580500Y5133943D01*
Y5128944D01*
X9578001Y5126445D01*
X9573002D01*
X9570503Y5128944D01*
X9585498Y5126445D02*
X9590497D01*
X9587997D01*
Y5141440D01*
X9585498Y5138941D01*
X9440843Y5122996D02*
X9438344Y5125495D01*
X9433346D01*
X9430846Y5122996D01*
Y5112999D01*
X9433346Y5110500D01*
X9438344D01*
X9440843Y5112999D01*
X9445842Y5110500D02*
X9450840D01*
X9448341D01*
Y5125495D01*
X9445842Y5122996D01*
X9468335Y5125495D02*
X9458338D01*
Y5117998D01*
X9463336Y5120497D01*
X9465835D01*
X9468335Y5117998D01*
Y5112999D01*
X9465835Y5110500D01*
X9460837D01*
X9458338Y5112999D01*
X9473333Y5122996D02*
X9475832Y5125495D01*
X9480831D01*
X9483330Y5122996D01*
Y5112999D01*
X9480831Y5110500D01*
X9475832D01*
X9473333Y5112999D01*
Y5122996D01*
X10830849Y3443736D02*
X10833348Y3441237D01*
X10838346D01*
X10840846Y3443736D01*
Y3453733D01*
X10838346Y3456232D01*
X10833348D01*
X10830849Y3453733D01*
X10825851Y3456232D02*
X10820852D01*
X10823351D01*
Y3441237D01*
X10825851Y3443736D01*
X10805857Y3456232D02*
Y3441237D01*
X10813354Y3448735D01*
X10803358D01*
X10798359Y3453733D02*
X10795860Y3456232D01*
X10790862D01*
X10788362Y3453733D01*
Y3443736D01*
X10790862Y3441237D01*
X10795860D01*
X10798359Y3443736D01*
Y3446235D01*
X10795860Y3448735D01*
X10788362D01*
X10588684Y3518736D02*
X10591183Y3516237D01*
X10596182D01*
X10598681Y3518736D01*
Y3528733D01*
X10596182Y3531232D01*
X10591183D01*
X10588684Y3528733D01*
X10583686Y3531232D02*
X10578687D01*
X10581186D01*
Y3516237D01*
X10583686Y3518736D01*
X10563692Y3531232D02*
Y3516237D01*
X10571190Y3523735D01*
X10561193D01*
X10556194Y3518736D02*
X10553695Y3516237D01*
X10548697D01*
X10546198Y3518736D01*
Y3521235D01*
X10548697Y3523735D01*
X10546198Y3526234D01*
Y3528733D01*
X10548697Y3531232D01*
X10553695D01*
X10556194Y3528733D01*
Y3526234D01*
X10553695Y3523735D01*
X10556194Y3521235D01*
Y3518736D01*
X10553695Y3523735D02*
X10548697D01*
X11206552Y5138941D02*
X11204053Y5141440D01*
X11199054D01*
X11196555Y5138941D01*
Y5128944D01*
X11199054Y5126445D01*
X11204053D01*
X11206552Y5128944D01*
X11211550Y5126445D02*
X11216549D01*
X11214049D01*
Y5141440D01*
X11211550Y5138941D01*
X11231544Y5126445D02*
Y5141440D01*
X11224046Y5133943D01*
X11234043D01*
X11239041Y5141440D02*
X11249038D01*
Y5138941D01*
X11239041Y5128944D01*
Y5126445D01*
X11094387Y5122996D02*
X11091887Y5125495D01*
X11086889D01*
X11084390Y5122996D01*
Y5112999D01*
X11086889Y5110500D01*
X11091887D01*
X11094387Y5112999D01*
X11099385Y5110500D02*
X11104383D01*
X11101884D01*
Y5125495D01*
X11099385Y5122996D01*
X11119379Y5110500D02*
Y5125495D01*
X11111881Y5117998D01*
X11121878D01*
X11136873Y5125495D02*
X11131875Y5122996D01*
X11126876Y5117998D01*
Y5112999D01*
X11129375Y5110500D01*
X11134374D01*
X11136873Y5112999D01*
Y5115498D01*
X11134374Y5117998D01*
X11126876D01*
X9587043Y4671536D02*
X9584544Y4669037D01*
Y4664039D01*
X9587043Y4661539D01*
X9597040D01*
X9599539Y4664039D01*
Y4669037D01*
X9597040Y4671536D01*
X9599539Y4676535D02*
Y4681533D01*
Y4679034D01*
X9584544D01*
X9587043Y4676535D01*
Y4689031D02*
X9584544Y4691530D01*
Y4696528D01*
X9587043Y4699027D01*
X9589543D01*
X9592042Y4696528D01*
Y4694029D01*
Y4696528D01*
X9594541Y4699027D01*
X9597040D01*
X9599539Y4696528D01*
Y4691530D01*
X9597040Y4689031D01*
X9584544Y4714023D02*
X9587043Y4709024D01*
X9592042Y4704026D01*
X9597040D01*
X9599539Y4706525D01*
Y4711523D01*
X9597040Y4714023D01*
X9594541D01*
X9592042Y4711523D01*
Y4704026D01*
X9587043Y4592796D02*
X9584544Y4590297D01*
Y4585298D01*
X9587043Y4582799D01*
X9597040D01*
X9599539Y4585298D01*
Y4590297D01*
X9597040Y4592796D01*
X9599539Y4597794D02*
Y4602793D01*
Y4600294D01*
X9584544D01*
X9587043Y4597794D01*
Y4610290D02*
X9584544Y4612790D01*
Y4617788D01*
X9587043Y4620287D01*
X9589543D01*
X9592042Y4617788D01*
Y4615289D01*
Y4617788D01*
X9594541Y4620287D01*
X9597040D01*
X9599539Y4617788D01*
Y4612790D01*
X9597040Y4610290D01*
X9584544Y4635282D02*
Y4625286D01*
X9592042D01*
X9589543Y4630284D01*
Y4632783D01*
X9592042Y4635282D01*
X9597040D01*
X9599539Y4632783D01*
Y4627785D01*
X9597040Y4625286D01*
X9587043Y4514056D02*
X9584544Y4511557D01*
Y4506558D01*
X9587043Y4504059D01*
X9597040D01*
X9599539Y4506558D01*
Y4511557D01*
X9597040Y4514056D01*
X9599539Y4519054D02*
Y4524053D01*
Y4521554D01*
X9584544D01*
X9587043Y4519054D01*
Y4531550D02*
X9584544Y4534050D01*
Y4539048D01*
X9587043Y4541547D01*
X9589542D01*
X9592042Y4539048D01*
Y4536549D01*
Y4539048D01*
X9594541Y4541547D01*
X9597040D01*
X9599539Y4539048D01*
Y4534050D01*
X9597040Y4531550D01*
X9599539Y4554043D02*
X9584544D01*
X9592042Y4546546D01*
Y4556542D01*
X9587043Y4435316D02*
X9584544Y4432817D01*
Y4427818D01*
X9587043Y4425319D01*
X9597040D01*
X9599539Y4427818D01*
Y4432817D01*
X9597040Y4435316D01*
X9599539Y4440314D02*
Y4445313D01*
Y4442813D01*
X9584544D01*
X9587043Y4440314D01*
Y4452810D02*
X9584544Y4455309D01*
Y4460308D01*
X9587043Y4462807D01*
X9589542D01*
X9592042Y4460308D01*
Y4457809D01*
Y4460308D01*
X9594541Y4462807D01*
X9597040D01*
X9599539Y4460308D01*
Y4455309D01*
X9597040Y4452810D01*
X9587043Y4467805D02*
X9584544Y4470305D01*
Y4475303D01*
X9587043Y4477802D01*
X9589542D01*
X9592042Y4475303D01*
Y4472804D01*
Y4475303D01*
X9594541Y4477802D01*
X9597040D01*
X9599539Y4475303D01*
Y4470305D01*
X9597040Y4467805D01*
X9562043Y4293206D02*
X9559544Y4290706D01*
Y4285708D01*
X9562043Y4283209D01*
X9572040D01*
X9574539Y4285708D01*
Y4290706D01*
X9572040Y4293206D01*
X9574539Y4298204D02*
Y4303202D01*
Y4300703D01*
X9559544D01*
X9562043Y4298204D01*
Y4310700D02*
X9559544Y4313199D01*
Y4318198D01*
X9562043Y4320697D01*
X9564542D01*
X9567042Y4318198D01*
Y4315698D01*
Y4318198D01*
X9569541Y4320697D01*
X9572040D01*
X9574539Y4318198D01*
Y4313199D01*
X9572040Y4310700D01*
X9574539Y4335692D02*
Y4325695D01*
X9564542Y4335692D01*
X9562043D01*
X9559544Y4333193D01*
Y4328194D01*
X9562043Y4325695D01*
X9942637Y4445311D02*
X9945136Y4442812D01*
X9950135D01*
X9952634Y4445311D01*
Y4455308D01*
X9950135Y4457807D01*
X9945136D01*
X9942637Y4455308D01*
X9937639Y4457807D02*
X9932640D01*
X9935139D01*
Y4442812D01*
X9937639Y4445311D01*
X9925143D02*
X9922643Y4442812D01*
X9917645D01*
X9915146Y4445311D01*
Y4447810D01*
X9917645Y4450309D01*
X9920144D01*
X9917645D01*
X9915146Y4452809D01*
Y4455308D01*
X9917645Y4457807D01*
X9922643D01*
X9925143Y4455308D01*
X9910147Y4457807D02*
X9905149D01*
X9907648D01*
Y4442812D01*
X9910147Y4445311D01*
X10196421Y4745787D02*
X10198920Y4748286D01*
Y4753284D01*
X10196421Y4755783D01*
X10186424D01*
X10183925Y4753284D01*
Y4748286D01*
X10186424Y4745787D01*
X10183925Y4740788D02*
Y4735790D01*
Y4738289D01*
X10198920D01*
X10196421Y4740788D01*
Y4728292D02*
X10198920Y4725793D01*
Y4720795D01*
X10196421Y4718295D01*
X10193922D01*
X10191423Y4720795D01*
Y4723294D01*
Y4720795D01*
X10188924Y4718295D01*
X10186424D01*
X10183925Y4720795D01*
Y4725793D01*
X10186424Y4728292D01*
X10196421Y4713297D02*
X10198920Y4710798D01*
Y4705799D01*
X10196421Y4703300D01*
X10186424D01*
X10183925Y4705799D01*
Y4710798D01*
X10186424Y4713297D01*
X10196421D01*
Y4678857D02*
X10198920Y4681357D01*
Y4686355D01*
X10196421Y4688854D01*
X10186424D01*
X10183925Y4686355D01*
Y4681357D01*
X10186424Y4678857D01*
X10183925Y4673859D02*
Y4668861D01*
Y4671360D01*
X10198920D01*
X10196421Y4673859D01*
X10183925Y4651366D02*
Y4661363D01*
X10193922Y4651366D01*
X10196421D01*
X10198920Y4653865D01*
Y4658864D01*
X10196421Y4661363D01*
X10186424Y4646368D02*
X10183925Y4643869D01*
Y4638870D01*
X10186424Y4636371D01*
X10196421D01*
X10198920Y4638870D01*
Y4643869D01*
X10196421Y4646368D01*
X10193922D01*
X10191423Y4643869D01*
Y4636371D01*
X10001692Y4445311D02*
X10004191Y4442812D01*
X10009190D01*
X10011689Y4445311D01*
Y4455308D01*
X10009190Y4457807D01*
X10004191D01*
X10001692Y4455308D01*
X9996693Y4457807D02*
X9991695D01*
X9994194D01*
Y4442812D01*
X9996693Y4445311D01*
X9974201Y4457807D02*
X9984198D01*
X9974201Y4447810D01*
Y4445311D01*
X9976700Y4442812D01*
X9981698D01*
X9984198Y4445311D01*
X9969202D02*
X9966703Y4442812D01*
X9961705D01*
X9959206Y4445311D01*
Y4447810D01*
X9961705Y4450309D01*
X9959206Y4452809D01*
Y4455308D01*
X9961705Y4457807D01*
X9966703D01*
X9969202Y4455308D01*
Y4452809D01*
X9966703Y4450309D01*
X9969202Y4447810D01*
Y4445311D01*
X9966703Y4450309D02*
X9961705D01*
X11240586Y4671536D02*
X11238087Y4669037D01*
Y4664039D01*
X11240586Y4661540D01*
X11250583D01*
X11253083Y4664039D01*
Y4669037D01*
X11250583Y4671536D01*
X11253083Y4676535D02*
Y4681533D01*
Y4679034D01*
X11238087D01*
X11240586Y4676535D01*
X11253083Y4689031D02*
Y4694029D01*
Y4691530D01*
X11238087D01*
X11240586Y4689031D01*
Y4701527D02*
X11238087Y4704026D01*
Y4709024D01*
X11240586Y4711524D01*
X11243086D01*
X11245585Y4709024D01*
X11248084Y4711524D01*
X11250583D01*
X11253083Y4709024D01*
Y4704026D01*
X11250583Y4701527D01*
X11248084D01*
X11245585Y4704026D01*
X11243086Y4701527D01*
X11240586D01*
X11245585Y4704026D02*
Y4709024D01*
X11240586Y4592796D02*
X11238087Y4590297D01*
Y4585299D01*
X11240586Y4582799D01*
X11250583D01*
X11253083Y4585299D01*
Y4590297D01*
X11250583Y4592796D01*
X11253083Y4597795D02*
Y4602793D01*
Y4600294D01*
X11238087D01*
X11240586Y4597795D01*
X11253083Y4610291D02*
Y4615289D01*
Y4612790D01*
X11238087D01*
X11240586Y4610291D01*
X11238087Y4622787D02*
Y4632783D01*
X11240586D01*
X11250583Y4622787D01*
X11253083D01*
X11240586Y4514056D02*
X11238087Y4511557D01*
Y4506558D01*
X11240586Y4504059D01*
X11250583D01*
X11253083Y4506558D01*
Y4511557D01*
X11250583Y4514056D01*
X11253083Y4519054D02*
Y4524053D01*
Y4521553D01*
X11238087D01*
X11240586Y4519054D01*
X11253083Y4531550D02*
Y4536549D01*
Y4534050D01*
X11238087D01*
X11240586Y4531550D01*
X11238087Y4554043D02*
X11240586Y4549045D01*
X11245585Y4544046D01*
X11250583D01*
X11253083Y4546546D01*
Y4551544D01*
X11250583Y4554043D01*
X11248084D01*
X11245585Y4551544D01*
Y4544046D01*
X11240586Y4435316D02*
X11238087Y4432816D01*
Y4427818D01*
X11240586Y4425319D01*
X11250583D01*
X11253083Y4427818D01*
Y4432816D01*
X11250583Y4435316D01*
X11253083Y4440314D02*
Y4445312D01*
Y4442813D01*
X11238087D01*
X11240586Y4440314D01*
X11253083Y4452810D02*
Y4457809D01*
Y4455309D01*
X11238087D01*
X11240586Y4452810D01*
X11238087Y4475303D02*
Y4465306D01*
X11245585D01*
X11243086Y4470305D01*
Y4472804D01*
X11245585Y4475303D01*
X11250583D01*
X11253083Y4472804D01*
Y4467805D01*
X11250583Y4465306D01*
X11215586Y4293206D02*
X11213087Y4290706D01*
Y4285708D01*
X11215586Y4283209D01*
X11225583D01*
X11228083Y4285708D01*
Y4290706D01*
X11225583Y4293206D01*
X11228083Y4298204D02*
Y4303202D01*
Y4300703D01*
X11213087D01*
X11215586Y4298204D01*
X11228083Y4310700D02*
Y4315698D01*
Y4313199D01*
X11213087D01*
X11215586Y4310700D01*
X11228083Y4330694D02*
X11213087D01*
X11220585Y4323196D01*
Y4333193D01*
X11596180Y4445311D02*
X11598680Y4442812D01*
X11603678D01*
X11606177Y4445311D01*
Y4455308D01*
X11603678Y4457807D01*
X11598680D01*
X11596180Y4455308D01*
X11591182Y4457807D02*
X11586184D01*
X11588683D01*
Y4442812D01*
X11591182Y4445311D01*
X11578686Y4457807D02*
X11573688D01*
X11576187D01*
Y4442812D01*
X11578686Y4445311D01*
X11566190D02*
X11563691Y4442812D01*
X11558692D01*
X11556193Y4445311D01*
Y4447810D01*
X11558692Y4450309D01*
X11561192D01*
X11558692D01*
X11556193Y4452809D01*
Y4455308D01*
X11558692Y4457807D01*
X11563691D01*
X11566190Y4455308D01*
X11849965Y4745787D02*
X11852464Y4748286D01*
Y4753284D01*
X11849965Y4755783D01*
X11839968D01*
X11837469Y4753284D01*
Y4748286D01*
X11839968Y4745787D01*
X11837469Y4740788D02*
Y4735790D01*
Y4738289D01*
X11852464D01*
X11849965Y4740788D01*
X11837469Y4728292D02*
Y4723294D01*
Y4725793D01*
X11852464D01*
X11849965Y4728292D01*
X11837469Y4705799D02*
Y4715796D01*
X11847465Y4705799D01*
X11849965D01*
X11852464Y4708298D01*
Y4713297D01*
X11849965Y4715796D01*
Y4678857D02*
X11852464Y4681356D01*
Y4686355D01*
X11849965Y4688854D01*
X11839968D01*
X11837469Y4686355D01*
Y4681356D01*
X11839968Y4678857D01*
X11837469Y4673859D02*
Y4668860D01*
Y4671360D01*
X11852464D01*
X11849965Y4673859D01*
X11837469Y4661363D02*
Y4656364D01*
Y4658864D01*
X11852464D01*
X11849965Y4661363D01*
X11837469Y4648867D02*
Y4643868D01*
Y4646368D01*
X11852464D01*
X11849965Y4648867D01*
X11655235Y4445311D02*
X11657735Y4442812D01*
X11662733D01*
X11665232Y4445311D01*
Y4455308D01*
X11662733Y4457807D01*
X11657735D01*
X11655235Y4455308D01*
X11650237Y4457807D02*
X11645238D01*
X11647738D01*
Y4442812D01*
X11650237Y4445311D01*
X11637741Y4457807D02*
X11632743D01*
X11635242D01*
Y4442812D01*
X11637741Y4445311D01*
X11625245D02*
X11622746Y4442812D01*
X11617747D01*
X11615248Y4445311D01*
Y4455308D01*
X11617747Y4457807D01*
X11622746D01*
X11625245Y4455308D01*
Y4445311D01*
X10279668Y3443736D02*
X10282167Y3441237D01*
X10287165D01*
X10289665Y3443736D01*
Y3453733D01*
X10287165Y3456232D01*
X10282167D01*
X10279668Y3453733D01*
X10274669Y3456232D02*
X10269671D01*
X10272170D01*
Y3441237D01*
X10274669Y3443736D01*
X10262173D02*
X10259674Y3441237D01*
X10254676D01*
X10252177Y3443736D01*
Y3453733D01*
X10254676Y3456232D01*
X10259674D01*
X10262173Y3453733D01*
Y3443736D01*
X10247178Y3453733D02*
X10244679Y3456232D01*
X10239681D01*
X10237181Y3453733D01*
Y3443736D01*
X10239681Y3441237D01*
X10244679D01*
X10247178Y3443736D01*
Y3446235D01*
X10244679Y3448735D01*
X10237181D01*
X10037503Y3518736D02*
X10040002Y3516237D01*
X10045001D01*
X10047500Y3518736D01*
Y3528733D01*
X10045001Y3531232D01*
X10040002D01*
X10037503Y3528733D01*
X10032505Y3531232D02*
X10027506D01*
X10030006D01*
Y3516237D01*
X10032505Y3518736D01*
X10020009D02*
X10017510Y3516237D01*
X10012511D01*
X10010012Y3518736D01*
Y3528733D01*
X10012511Y3531232D01*
X10017510D01*
X10020009Y3528733D01*
Y3518736D01*
X10005014D02*
X10002514Y3516237D01*
X9997516D01*
X9995017Y3518736D01*
Y3521235D01*
X9997516Y3523735D01*
X9995017Y3526234D01*
Y3528733D01*
X9997516Y3531232D01*
X10002514D01*
X10005014Y3528733D01*
Y3526234D01*
X10002514Y3523735D01*
X10005014Y3521235D01*
Y3518736D01*
X10002514Y3523735D02*
X9997516D01*
X10104190Y5138941D02*
X10101691Y5141440D01*
X10096692D01*
X10094193Y5138941D01*
Y5128944D01*
X10096692Y5126445D01*
X10101691D01*
X10104190Y5128944D01*
X10109188Y5126445D02*
X10114186D01*
X10111687D01*
Y5141440D01*
X10109188Y5138941D01*
X10121684D02*
X10124183Y5141440D01*
X10129182D01*
X10131681Y5138941D01*
Y5128944D01*
X10129182Y5126445D01*
X10124183D01*
X10121684Y5128944D01*
Y5138941D01*
X10136679Y5141440D02*
X10146676D01*
Y5138941D01*
X10136679Y5128944D01*
Y5126445D01*
X9992024Y5122996D02*
X9989525Y5125495D01*
X9984527D01*
X9982028Y5122996D01*
Y5112999D01*
X9984527Y5110500D01*
X9989525D01*
X9992024Y5112999D01*
X9997023Y5110500D02*
X10002021D01*
X9999522D01*
Y5125495D01*
X9997023Y5122996D01*
X10009519D02*
X10012018Y5125495D01*
X10017016D01*
X10019516Y5122996D01*
Y5112999D01*
X10017016Y5110500D01*
X10012018D01*
X10009519Y5112999D01*
Y5122996D01*
X10034511Y5125495D02*
X10029512Y5122996D01*
X10024514Y5117998D01*
Y5112999D01*
X10027013Y5110500D01*
X10032012D01*
X10034511Y5112999D01*
Y5115498D01*
X10032012Y5117998D01*
X10024514D01*
X10655371Y5138941D02*
X10652872Y5141440D01*
X10647873D01*
X10645374Y5138941D01*
Y5128944D01*
X10647873Y5126445D01*
X10652872D01*
X10655371Y5128944D01*
X10660369Y5126445D02*
X10665368D01*
X10662869D01*
Y5141440D01*
X10660369Y5138941D01*
X10672865D02*
X10675364Y5141440D01*
X10680363D01*
X10682862Y5138941D01*
Y5128944D01*
X10680363Y5126445D01*
X10675364D01*
X10672865Y5128944D01*
Y5138941D01*
X10697857Y5141440D02*
X10687861D01*
Y5133943D01*
X10692859Y5136442D01*
X10695358D01*
X10697857Y5133943D01*
Y5128944D01*
X10695358Y5126445D01*
X10690360D01*
X10687861Y5128944D01*
X10543206Y5122996D02*
X10540706Y5125495D01*
X10535708D01*
X10533209Y5122996D01*
Y5112999D01*
X10535708Y5110500D01*
X10540706D01*
X10543206Y5112999D01*
X10548204Y5110500D02*
X10553202D01*
X10550703D01*
Y5125495D01*
X10548204Y5122996D01*
X10560700D02*
X10563199Y5125495D01*
X10568198D01*
X10570697Y5122996D01*
Y5112999D01*
X10568198Y5110500D01*
X10563199D01*
X10560700Y5112999D01*
Y5122996D01*
X10583193Y5110500D02*
Y5125495D01*
X10575695Y5117998D01*
X10585692D01*
X11382030Y3443736D02*
X11384529Y3441237D01*
X11389528D01*
X11392027Y3443736D01*
Y3453733D01*
X11389528Y3456232D01*
X11384529D01*
X11382030Y3453733D01*
X11377032Y3456232D02*
X11372033D01*
X11374532D01*
Y3441237D01*
X11377032Y3443736D01*
X11364536D02*
X11362036Y3441237D01*
X11357038D01*
X11354539Y3443736D01*
Y3453733D01*
X11357038Y3456232D01*
X11362036D01*
X11364536Y3453733D01*
Y3443736D01*
X11349540D02*
X11347041Y3441237D01*
X11342043D01*
X11339544Y3443736D01*
Y3446235D01*
X11342043Y3448735D01*
X11344542D01*
X11342043D01*
X11339544Y3451234D01*
Y3453733D01*
X11342043Y3456232D01*
X11347041D01*
X11349540Y3453733D01*
X11139865Y3518736D02*
X11142365Y3516237D01*
X11147363D01*
X11149862Y3518736D01*
Y3528733D01*
X11147363Y3531232D01*
X11142365D01*
X11139865Y3528733D01*
X11134867Y3531232D02*
X11129869D01*
X11132368D01*
Y3516237D01*
X11134867Y3518736D01*
X11122371D02*
X11119872Y3516237D01*
X11114873D01*
X11112374Y3518736D01*
Y3528733D01*
X11114873Y3531232D01*
X11119872D01*
X11122371Y3528733D01*
Y3518736D01*
X11097379Y3531232D02*
X11107376D01*
X11097379Y3521235D01*
Y3518736D01*
X11099878Y3516237D01*
X11104877D01*
X11107376Y3518736D01*
X10138224Y4671536D02*
X10135725Y4669037D01*
Y4664038D01*
X10138224Y4661539D01*
X10148221D01*
X10150720Y4664038D01*
Y4669037D01*
X10148221Y4671536D01*
Y4676534D02*
X10150720Y4679034D01*
Y4684032D01*
X10148221Y4686531D01*
X10138224D01*
X10135725Y4684032D01*
Y4679034D01*
X10138224Y4676534D01*
X10140724D01*
X10143223Y4679034D01*
Y4686531D01*
X10150720Y4701526D02*
Y4691530D01*
X10140724Y4701526D01*
X10138224D01*
X10135725Y4699027D01*
Y4694029D01*
X10138224Y4691530D01*
Y4592796D02*
X10135725Y4590297D01*
Y4585298D01*
X10138224Y4582799D01*
X10148221D01*
X10150720Y4585298D01*
Y4590297D01*
X10148221Y4592796D01*
Y4597794D02*
X10150720Y4600293D01*
Y4605292D01*
X10148221Y4607791D01*
X10138224D01*
X10135725Y4605292D01*
Y4600293D01*
X10138224Y4597794D01*
X10140724D01*
X10143223Y4600293D01*
Y4607791D01*
X10150720Y4612789D02*
Y4617788D01*
Y4615289D01*
X10135725D01*
X10138224Y4612789D01*
X10138224Y4514056D02*
X10135725Y4511557D01*
Y4506558D01*
X10138224Y4504059D01*
X10148221D01*
X10150720Y4506558D01*
Y4511557D01*
X10148221Y4514056D01*
Y4519054D02*
X10150720Y4521553D01*
Y4526552D01*
X10148221Y4529051D01*
X10138224D01*
X10135725Y4526552D01*
Y4521553D01*
X10138224Y4519054D01*
X10140724D01*
X10143223Y4521553D01*
Y4529051D01*
X10138224Y4534050D02*
X10135725Y4536549D01*
Y4541547D01*
X10138224Y4544046D01*
X10148221D01*
X10150720Y4541547D01*
Y4536549D01*
X10148221Y4534050D01*
X10138224D01*
Y4435316D02*
X10135725Y4432816D01*
Y4427818D01*
X10138224Y4425319D01*
X10148221D01*
X10150720Y4427818D01*
Y4432816D01*
X10148221Y4435316D01*
X10138224Y4440314D02*
X10135725Y4442813D01*
Y4447812D01*
X10138224Y4450311D01*
X10140724D01*
X10143223Y4447812D01*
X10145722Y4450311D01*
X10148221D01*
X10150720Y4447812D01*
Y4442813D01*
X10148221Y4440314D01*
X10145722D01*
X10143223Y4442813D01*
X10140724Y4440314D01*
X10138224D01*
X10143223Y4442813D02*
Y4447812D01*
X10148221Y4455309D02*
X10150720Y4457809D01*
Y4462807D01*
X10148221Y4465306D01*
X10138224D01*
X10135725Y4462807D01*
Y4457809D01*
X10138224Y4455309D01*
X10140724D01*
X10143223Y4457809D01*
Y4465306D01*
X10113224Y4293206D02*
X10110725Y4290706D01*
Y4285708D01*
X10113224Y4283209D01*
X10123221D01*
X10125720Y4285708D01*
Y4290706D01*
X10123221Y4293206D01*
X10113224Y4298204D02*
X10110725Y4300703D01*
Y4305702D01*
X10113224Y4308201D01*
X10115724D01*
X10118223Y4305702D01*
X10120722Y4308201D01*
X10123221D01*
X10125720Y4305702D01*
Y4300703D01*
X10123221Y4298204D01*
X10120722D01*
X10118223Y4300703D01*
X10115724Y4298204D01*
X10113224D01*
X10118223Y4300703D02*
Y4305702D01*
X10113224Y4313199D02*
X10110725Y4315698D01*
Y4320697D01*
X10113224Y4323196D01*
X10115724D01*
X10118223Y4320697D01*
X10120722Y4323196D01*
X10123221D01*
X10125720Y4320697D01*
Y4315698D01*
X10123221Y4313199D01*
X10120722D01*
X10118223Y4315698D01*
X10115724Y4313199D01*
X10113224D01*
X10118223Y4315698D02*
Y4320697D01*
X10493818Y4445311D02*
X10496317Y4442812D01*
X10501316D01*
X10503815Y4445311D01*
Y4455308D01*
X10501316Y4457807D01*
X10496317D01*
X10493818Y4455308D01*
X10488820Y4445311D02*
X10486321Y4442812D01*
X10481322D01*
X10478823Y4445311D01*
Y4447810D01*
X10481322Y4450309D01*
X10478823Y4452809D01*
Y4455308D01*
X10481322Y4457807D01*
X10486321D01*
X10488820Y4455308D01*
Y4452809D01*
X10486321Y4450309D01*
X10488820Y4447810D01*
Y4445311D01*
X10486321Y4450309D02*
X10481322D01*
X10473825Y4442812D02*
X10463828D01*
Y4445311D01*
X10473825Y4455308D01*
Y4457807D01*
X10747602Y4745787D02*
X10750102Y4748286D01*
Y4753284D01*
X10747602Y4755783D01*
X10737605D01*
X10735106Y4753284D01*
Y4748286D01*
X10737605Y4745787D01*
X10747602Y4740788D02*
X10750102Y4738289D01*
Y4733291D01*
X10747602Y4730791D01*
X10745103D01*
X10742604Y4733291D01*
X10740105Y4730791D01*
X10737605D01*
X10735106Y4733291D01*
Y4738289D01*
X10737605Y4740788D01*
X10740105D01*
X10742604Y4738289D01*
X10745103Y4740788D01*
X10747602D01*
X10742604Y4738289D02*
Y4733291D01*
X10750102Y4715796D02*
X10747602Y4720794D01*
X10742604Y4725793D01*
X10737605D01*
X10735106Y4723294D01*
Y4718295D01*
X10737605Y4715796D01*
X10740105D01*
X10742604Y4718295D01*
Y4725793D01*
X10747602Y4678857D02*
X10750102Y4681356D01*
Y4686355D01*
X10747602Y4688854D01*
X10737605D01*
X10735106Y4686355D01*
Y4681356D01*
X10737605Y4678857D01*
X10747602Y4673859D02*
X10750102Y4671360D01*
Y4666361D01*
X10747602Y4663862D01*
X10745103D01*
X10742604Y4666361D01*
X10740105Y4663862D01*
X10737605D01*
X10735106Y4666361D01*
Y4671360D01*
X10737605Y4673859D01*
X10740105D01*
X10742604Y4671360D01*
X10745103Y4673859D01*
X10747602D01*
X10742604Y4671360D02*
Y4666361D01*
X10750102Y4648867D02*
Y4658864D01*
X10742604D01*
X10745103Y4653865D01*
Y4651366D01*
X10742604Y4648867D01*
X10737605D01*
X10735106Y4651366D01*
Y4656364D01*
X10737605Y4658864D01*
X10552873Y4445311D02*
X10555372Y4442812D01*
X10560371D01*
X10562870Y4445311D01*
Y4455308D01*
X10560371Y4457807D01*
X10555372D01*
X10552873Y4455308D01*
X10547875Y4445311D02*
X10545376Y4442812D01*
X10540377D01*
X10537878Y4445311D01*
Y4447810D01*
X10540377Y4450309D01*
X10537878Y4452809D01*
Y4455308D01*
X10540377Y4457807D01*
X10545376D01*
X10547875Y4455308D01*
Y4452809D01*
X10545376Y4450309D01*
X10547875Y4447810D01*
Y4445311D01*
X10545376Y4450309D02*
X10540377D01*
X10525382Y4457807D02*
Y4442812D01*
X10532879Y4450309D01*
X10522883D01*
X10689406Y4671536D02*
X10686906Y4669037D01*
Y4664039D01*
X10689406Y4661539D01*
X10699402D01*
X10701902Y4664039D01*
Y4669037D01*
X10699402Y4671536D01*
X10689406Y4676535D02*
X10686906Y4679034D01*
Y4684032D01*
X10689406Y4686531D01*
X10691905D01*
X10694404Y4684032D01*
X10696903Y4686531D01*
X10699402D01*
X10701902Y4684032D01*
Y4679034D01*
X10699402Y4676535D01*
X10696903D01*
X10694404Y4679034D01*
X10691905Y4676535D01*
X10689406D01*
X10694404Y4679034D02*
Y4684032D01*
X10689406Y4691530D02*
X10686906Y4694029D01*
Y4699027D01*
X10689406Y4701527D01*
X10691905D01*
X10694404Y4699027D01*
Y4696528D01*
Y4699027D01*
X10696903Y4701527D01*
X10699402D01*
X10701902Y4699027D01*
Y4694029D01*
X10699402Y4691530D01*
X10689406Y4592796D02*
X10686906Y4590297D01*
Y4585298D01*
X10689406Y4582799D01*
X10699402D01*
X10701902Y4585298D01*
Y4590297D01*
X10699402Y4592796D01*
X10689406Y4597794D02*
X10686906Y4600294D01*
Y4605292D01*
X10689406Y4607791D01*
X10691905D01*
X10694404Y4605292D01*
X10696903Y4607791D01*
X10699402D01*
X10701902Y4605292D01*
Y4600294D01*
X10699402Y4597794D01*
X10696903D01*
X10694404Y4600294D01*
X10691905Y4597794D01*
X10689406D01*
X10694404Y4600294D02*
Y4605292D01*
X10701902Y4622786D02*
Y4612790D01*
X10691905Y4622786D01*
X10689406D01*
X10686906Y4620287D01*
Y4615289D01*
X10689406Y4612790D01*
X10689406Y4514056D02*
X10686906Y4511557D01*
Y4506558D01*
X10689406Y4504059D01*
X10699402D01*
X10701901Y4506558D01*
Y4511557D01*
X10699402Y4514056D01*
X10689406Y4519054D02*
X10686906Y4521554D01*
Y4526552D01*
X10689406Y4529051D01*
X10691905D01*
X10694404Y4526552D01*
X10696903Y4529051D01*
X10699402D01*
X10701901Y4526552D01*
Y4521554D01*
X10699402Y4519054D01*
X10696903D01*
X10694404Y4521554D01*
X10691905Y4519054D01*
X10689406D01*
X10694404Y4521554D02*
Y4526552D01*
X10701901Y4534050D02*
Y4539048D01*
Y4536549D01*
X10686906D01*
X10689406Y4534050D01*
Y4435316D02*
X10686906Y4432817D01*
Y4427818D01*
X10689406Y4425319D01*
X10699402D01*
X10701901Y4427818D01*
Y4432817D01*
X10699402Y4435316D01*
X10689406Y4440314D02*
X10686906Y4442813D01*
Y4447812D01*
X10689406Y4450311D01*
X10691905D01*
X10694404Y4447812D01*
X10696903Y4450311D01*
X10699402D01*
X10701901Y4447812D01*
Y4442813D01*
X10699402Y4440314D01*
X10696903D01*
X10694404Y4442813D01*
X10691905Y4440314D01*
X10689406D01*
X10694404Y4442813D02*
Y4447812D01*
X10689406Y4455309D02*
X10686906Y4457809D01*
Y4462807D01*
X10689406Y4465306D01*
X10699402D01*
X10701901Y4462807D01*
Y4457809D01*
X10699402Y4455309D01*
X10689406D01*
X10664406Y4293206D02*
X10661906Y4290706D01*
Y4285708D01*
X10664406Y4283209D01*
X10674402D01*
X10676901Y4285708D01*
Y4290706D01*
X10674402Y4293206D01*
X10661906Y4298204D02*
Y4308201D01*
X10664406D01*
X10674402Y4298204D01*
X10676901D01*
X10674402Y4313199D02*
X10676901Y4315698D01*
Y4320697D01*
X10674402Y4323196D01*
X10664406D01*
X10661906Y4320697D01*
Y4315698D01*
X10664406Y4313199D01*
X10666905D01*
X10669404Y4315698D01*
Y4323196D01*
X11044999Y4445311D02*
X11047498Y4442812D01*
X11052497D01*
X11054996Y4445311D01*
Y4455308D01*
X11052497Y4457807D01*
X11047498D01*
X11044999Y4455308D01*
X11040001Y4442812D02*
X11030004D01*
Y4445311D01*
X11040001Y4455308D01*
Y4457807D01*
X11025005Y4445311D02*
X11022506Y4442812D01*
X11017508D01*
X11015009Y4445311D01*
Y4447810D01*
X11017508Y4450309D01*
X11015009Y4452809D01*
Y4455308D01*
X11017508Y4457807D01*
X11022506D01*
X11025005Y4455308D01*
Y4452809D01*
X11022506Y4450309D01*
X11025005Y4447810D01*
Y4445311D01*
X11022506Y4450309D02*
X11017508D01*
X11298783Y4745787D02*
X11301282Y4748286D01*
Y4753284D01*
X11298783Y4755783D01*
X11288787D01*
X11286287Y4753284D01*
Y4748286D01*
X11288787Y4745787D01*
X11301282Y4740788D02*
Y4730791D01*
X11298783D01*
X11288787Y4740788D01*
X11286287D01*
X11301282Y4725793D02*
Y4715796D01*
X11298783D01*
X11288787Y4725793D01*
X11286287D01*
X11298783Y4678857D02*
X11301282Y4681357D01*
Y4686355D01*
X11298783Y4688854D01*
X11288787D01*
X11286287Y4686355D01*
Y4681357D01*
X11288787Y4678857D01*
X11301282Y4673859D02*
Y4663862D01*
X11298783D01*
X11288787Y4673859D01*
X11286287D01*
X11301282Y4648867D02*
X11298783Y4653865D01*
X11293785Y4658864D01*
X11288787D01*
X11286287Y4656365D01*
Y4651366D01*
X11288787Y4648867D01*
X11291286D01*
X11293785Y4651366D01*
Y4658864D01*
X11104054Y4445311D02*
X11106554Y4442812D01*
X11111552D01*
X11114051Y4445311D01*
Y4455308D01*
X11111552Y4457807D01*
X11106554D01*
X11104054Y4455308D01*
X11099056Y4442812D02*
X11089059D01*
Y4445311D01*
X11099056Y4455308D01*
Y4457807D01*
X11074064Y4442812D02*
X11084061D01*
Y4450309D01*
X11079062Y4447810D01*
X11076563D01*
X11074064Y4450309D01*
Y4455308D01*
X11076563Y4457807D01*
X11081562D01*
X11084061Y4455308D01*
X6899452Y4676789D02*
Y4661794D01*
X6909449D01*
X6914447D02*
X6919446D01*
X6916946D01*
Y4676789D01*
X6914447Y4674290D01*
X8710852Y6985313D02*
X8708353Y6987813D01*
X8703354D01*
X8700855Y6985313D01*
Y6975317D01*
X8703354Y6972817D01*
X8708353D01*
X8710852Y6975317D01*
X8725847Y6972817D02*
X8715851D01*
X8725847Y6982814D01*
Y6985313D01*
X8723348Y6987813D01*
X8718350D01*
X8715851Y6985313D01*
X8740843Y6987813D02*
X8730846D01*
Y6980315D01*
X8735844Y6982814D01*
X8738343D01*
X8740843Y6980315D01*
Y6975317D01*
X8738343Y6972817D01*
X8733345D01*
X8730846Y6975317D01*
X8753338Y6972817D02*
Y6987813D01*
X8745841Y6980315D01*
X8755838D01*
X8388702Y6742348D02*
X8386203Y6739849D01*
Y6734851D01*
X8388702Y6732351D01*
X8398699D01*
X8401198Y6734851D01*
Y6739849D01*
X8398699Y6742348D01*
X8401198Y6757343D02*
Y6747347D01*
X8391201Y6757343D01*
X8388702D01*
X8386203Y6754844D01*
Y6749846D01*
X8388702Y6747347D01*
X8386203Y6772339D02*
Y6762342D01*
X8393701D01*
X8391201Y6767340D01*
Y6769839D01*
X8393701Y6772339D01*
X8398699D01*
X8401198Y6769839D01*
Y6764841D01*
X8398699Y6762342D01*
X8388702Y6777337D02*
X8386203Y6779836D01*
Y6784835D01*
X8388702Y6787334D01*
X8391201D01*
X8393701Y6784835D01*
Y6782335D01*
Y6784835D01*
X8396200Y6787334D01*
X8398699D01*
X8401198Y6784835D01*
Y6779836D01*
X8398699Y6777337D01*
X8710852Y6902636D02*
X8708353Y6905135D01*
X8703354D01*
X8700855Y6902636D01*
Y6892639D01*
X8703354Y6890140D01*
X8708353D01*
X8710852Y6892639D01*
X8725847Y6890140D02*
X8715851D01*
X8725847Y6900137D01*
Y6902636D01*
X8723348Y6905135D01*
X8718350D01*
X8715851Y6902636D01*
X8740843Y6905135D02*
X8730846D01*
Y6897638D01*
X8735844Y6900137D01*
X8738343D01*
X8740843Y6897638D01*
Y6892639D01*
X8738343Y6890140D01*
X8733345D01*
X8730846Y6892639D01*
X8755838Y6890140D02*
X8745841D01*
X8755838Y6900137D01*
Y6902636D01*
X8753338Y6905135D01*
X8748340D01*
X8745841Y6902636D01*
X8306025Y6744847D02*
X8303526Y6742348D01*
Y6737350D01*
X8306025Y6734851D01*
X8316022D01*
X8318521Y6737350D01*
Y6742348D01*
X8316022Y6744847D01*
X8318521Y6759843D02*
Y6749846D01*
X8308524Y6759843D01*
X8306025D01*
X8303526Y6757343D01*
Y6752345D01*
X8306025Y6749846D01*
X8303526Y6774838D02*
Y6764841D01*
X8311023D01*
X8308524Y6769839D01*
Y6772339D01*
X8311023Y6774838D01*
X8316022D01*
X8318521Y6772339D01*
Y6767340D01*
X8316022Y6764841D01*
X8318521Y6779836D02*
Y6784835D01*
Y6782335D01*
X8303526D01*
X8306025Y6779836D01*
X8656419Y6762033D02*
X8653920Y6759534D01*
Y6754535D01*
X8656419Y6752036D01*
X8666416D01*
X8668915Y6754535D01*
Y6759534D01*
X8666416Y6762033D01*
X8668915Y6777028D02*
Y6767032D01*
X8658918Y6777028D01*
X8656419D01*
X8653920Y6774529D01*
Y6769531D01*
X8656419Y6767032D01*
X8653920Y6792024D02*
Y6782027D01*
X8661417D01*
X8658918Y6787025D01*
Y6789524D01*
X8661417Y6792024D01*
X8666416D01*
X8668915Y6789524D01*
Y6784526D01*
X8666416Y6782027D01*
X8656419Y6797022D02*
X8653920Y6799521D01*
Y6804520D01*
X8656419Y6807019D01*
X8666416D01*
X8668915Y6804520D01*
Y6799521D01*
X8666416Y6797022D01*
X8656419D01*
X8231222Y6919514D02*
X8228723Y6917014D01*
Y6912016D01*
X8231222Y6909517D01*
X8241219D01*
X8243718Y6912016D01*
Y6917014D01*
X8241219Y6919514D01*
X8243718Y6934509D02*
Y6924512D01*
X8233721Y6934509D01*
X8231222D01*
X8228723Y6932010D01*
Y6927011D01*
X8231222Y6924512D01*
X8243718Y6947005D02*
X8228723D01*
X8236220Y6939507D01*
Y6949504D01*
X8241219Y6954502D02*
X8243718Y6957002D01*
Y6962000D01*
X8241219Y6964499D01*
X8231222D01*
X8228723Y6962000D01*
Y6957002D01*
X8231222Y6954502D01*
X8233721D01*
X8236220Y6957002D01*
Y6964499D01*
X8573742Y6762033D02*
X8571243Y6759534D01*
Y6754536D01*
X8573742Y6752036D01*
X8583739D01*
X8586238Y6754536D01*
Y6759534D01*
X8583739Y6762033D01*
X8586238Y6777028D02*
Y6767032D01*
X8576241Y6777028D01*
X8573742D01*
X8571243Y6774529D01*
Y6769531D01*
X8573742Y6767032D01*
X8586238Y6789524D02*
X8571243D01*
X8578740Y6782027D01*
Y6792024D01*
X8573742Y6797022D02*
X8571243Y6799521D01*
Y6804520D01*
X8573742Y6807019D01*
X8576241D01*
X8578740Y6804520D01*
X8581239Y6807019D01*
X8583739D01*
X8586238Y6804520D01*
Y6799521D01*
X8583739Y6797022D01*
X8581239D01*
X8578740Y6799521D01*
X8576241Y6797022D01*
X8573742D01*
X8578740Y6799521D02*
Y6804520D01*
X8148545Y6919514D02*
X8146046Y6917014D01*
Y6912016D01*
X8148545Y6909517D01*
X8158542D01*
X8161041Y6912016D01*
Y6917014D01*
X8158542Y6919514D01*
X8161041Y6934509D02*
Y6924512D01*
X8151044Y6934509D01*
X8148545D01*
X8146046Y6932010D01*
Y6927011D01*
X8148545Y6924512D01*
X8161041Y6947005D02*
X8146046D01*
X8153543Y6939507D01*
Y6949504D01*
X8146046Y6954502D02*
Y6964499D01*
X8148545D01*
X8158542Y6954502D01*
X8161041D01*
X8180041Y7277781D02*
X8177542Y7275282D01*
Y7270284D01*
X8180041Y7267784D01*
X8190038D01*
X8192537Y7270284D01*
Y7275282D01*
X8190038Y7277781D01*
X8192537Y7292776D02*
Y7282780D01*
X8182540Y7292776D01*
X8180041D01*
X8177542Y7290277D01*
Y7285279D01*
X8180041Y7282780D01*
X8192537Y7305272D02*
X8177542D01*
X8185039Y7297775D01*
Y7307772D01*
X8177542Y7322767D02*
X8180041Y7317768D01*
X8185039Y7312770D01*
X8190038D01*
X8192537Y7315269D01*
Y7320268D01*
X8190038Y7322767D01*
X8187539D01*
X8185039Y7320268D01*
Y7312770D01*
X8262718Y7277781D02*
X8260219Y7275282D01*
Y7270283D01*
X8262718Y7267784D01*
X8272715D01*
X8275214Y7270283D01*
Y7275282D01*
X8272715Y7277781D01*
X8275214Y7292776D02*
Y7282779D01*
X8265217Y7292776D01*
X8262718D01*
X8260219Y7290277D01*
Y7285279D01*
X8262718Y7282779D01*
X8275214Y7305272D02*
X8260219D01*
X8267716Y7297775D01*
Y7307771D01*
X8260219Y7322767D02*
Y7312770D01*
X8267716D01*
X8265217Y7317768D01*
Y7320267D01*
X8267716Y7322767D01*
X8272715D01*
X8275214Y7320267D01*
Y7315269D01*
X8272715Y7312770D01*
X7844886Y6905029D02*
X7847385Y6902530D01*
X7852383D01*
X7854882Y6905029D01*
Y6915026D01*
X7852383Y6917525D01*
X7847385D01*
X7844886Y6915026D01*
X7829890Y6917525D02*
X7839887D01*
X7829890Y6907529D01*
Y6905029D01*
X7832390Y6902530D01*
X7837388D01*
X7839887Y6905029D01*
X7814895Y6917525D02*
X7824892D01*
X7814895Y6907529D01*
Y6905029D01*
X7817394Y6902530D01*
X7822393D01*
X7824892Y6905029D01*
X7802399Y6917525D02*
Y6902530D01*
X7809897Y6910028D01*
X7799900D01*
X7411122Y6743276D02*
X7408623Y6740777D01*
Y6735779D01*
X7411122Y6733279D01*
X7421119D01*
X7423618Y6735779D01*
Y6740777D01*
X7421119Y6743276D01*
X7423618Y6758271D02*
Y6748275D01*
X7413621Y6758271D01*
X7411122D01*
X7408623Y6755772D01*
Y6750774D01*
X7411122Y6748275D01*
X7423618Y6773267D02*
Y6763270D01*
X7413621Y6773267D01*
X7411122D01*
X7408623Y6770767D01*
Y6765769D01*
X7411122Y6763270D01*
Y6778265D02*
X7408623Y6780764D01*
Y6785763D01*
X7411122Y6788262D01*
X7413621D01*
X7416120Y6785763D01*
Y6783264D01*
Y6785763D01*
X7418619Y6788262D01*
X7421119D01*
X7423618Y6785763D01*
Y6780764D01*
X7421119Y6778265D01*
X7844886Y6875029D02*
X7847385Y6872530D01*
X7852383D01*
X7854882Y6875029D01*
Y6885026D01*
X7852383Y6887525D01*
X7847385D01*
X7844886Y6885026D01*
X7829890Y6887525D02*
X7839887D01*
X7829890Y6877529D01*
Y6875029D01*
X7832390Y6872530D01*
X7837388D01*
X7839887Y6875029D01*
X7814895Y6887525D02*
X7824892D01*
X7814895Y6877529D01*
Y6875029D01*
X7817394Y6872530D01*
X7822393D01*
X7824892Y6875029D01*
X7799900Y6887525D02*
X7809897D01*
X7799900Y6877529D01*
Y6875029D01*
X7802399Y6872530D01*
X7807398D01*
X7809897Y6875029D01*
X7381122Y6743276D02*
X7378623Y6740777D01*
Y6735779D01*
X7381122Y6733279D01*
X7391119D01*
X7393618Y6735779D01*
Y6740777D01*
X7391119Y6743276D01*
X7393618Y6758271D02*
Y6748275D01*
X7383621Y6758271D01*
X7381122D01*
X7378623Y6755772D01*
Y6750774D01*
X7381122Y6748275D01*
X7393618Y6773267D02*
Y6763270D01*
X7383621Y6773267D01*
X7381122D01*
X7378623Y6770767D01*
Y6765769D01*
X7381122Y6763270D01*
X7393618Y6778265D02*
Y6783264D01*
Y6780764D01*
X7378623D01*
X7381122Y6778265D01*
X7679823Y6761977D02*
X7677324Y6759478D01*
Y6754480D01*
X7679823Y6751980D01*
X7689819D01*
X7692319Y6754480D01*
Y6759478D01*
X7689819Y6761977D01*
X7692319Y6776972D02*
Y6766975D01*
X7682322Y6776972D01*
X7679823D01*
X7677324Y6774473D01*
Y6769475D01*
X7679823Y6766975D01*
X7692319Y6791967D02*
Y6781971D01*
X7682322Y6791967D01*
X7679823D01*
X7677324Y6789468D01*
Y6784470D01*
X7679823Y6781971D01*
Y6796966D02*
X7677324Y6799465D01*
Y6804463D01*
X7679823Y6806963D01*
X7689819D01*
X7692319Y6804463D01*
Y6799465D01*
X7689819Y6796966D01*
X7679823D01*
X7255610Y6919457D02*
X7253111Y6916958D01*
Y6911960D01*
X7255610Y6909461D01*
X7265607D01*
X7268106Y6911960D01*
Y6916958D01*
X7265607Y6919457D01*
X7268106Y6934453D02*
Y6924456D01*
X7258109Y6934453D01*
X7255610D01*
X7253111Y6931953D01*
Y6926955D01*
X7255610Y6924456D01*
X7268106Y6939451D02*
Y6944449D01*
Y6941950D01*
X7253111D01*
X7255610Y6939451D01*
X7265607Y6951947D02*
X7268106Y6954446D01*
Y6959444D01*
X7265607Y6961944D01*
X7255610D01*
X7253111Y6959444D01*
Y6954446D01*
X7255610Y6951947D01*
X7258109D01*
X7260609Y6954446D01*
Y6961944D01*
X7649823Y6761977D02*
X7647324Y6759478D01*
Y6754480D01*
X7649823Y6751980D01*
X7659819D01*
X7662319Y6754480D01*
Y6759478D01*
X7659819Y6761977D01*
X7662319Y6776972D02*
Y6766975D01*
X7652322Y6776972D01*
X7649823D01*
X7647324Y6774473D01*
Y6769475D01*
X7649823Y6766975D01*
X7662319Y6781971D02*
Y6786969D01*
Y6784470D01*
X7647324D01*
X7649823Y6781971D01*
Y6794467D02*
X7647324Y6796966D01*
Y6801964D01*
X7649823Y6804463D01*
X7652322D01*
X7654821Y6801964D01*
X7657320Y6804463D01*
X7659819D01*
X7662319Y6801964D01*
Y6796966D01*
X7659819Y6794467D01*
X7657320D01*
X7654821Y6796966D01*
X7652322Y6794467D01*
X7649823D01*
X7654821Y6796966D02*
Y6801964D01*
X7225610Y6919457D02*
X7223111Y6916958D01*
Y6911960D01*
X7225610Y6909461D01*
X7235607D01*
X7238106Y6911960D01*
Y6916958D01*
X7235607Y6919457D01*
X7238106Y6934453D02*
Y6924456D01*
X7228109Y6934453D01*
X7225610D01*
X7223111Y6931953D01*
Y6926955D01*
X7225610Y6924456D01*
X7238106Y6939451D02*
Y6944449D01*
Y6941950D01*
X7223111D01*
X7225610Y6939451D01*
X7223111Y6951947D02*
Y6961944D01*
X7225610D01*
X7235607Y6951947D01*
X7238106D01*
X7355457Y7319062D02*
X7357956Y7321561D01*
Y7326559D01*
X7355457Y7329059D01*
X7345460D01*
X7342961Y7326559D01*
Y7321561D01*
X7345460Y7319062D01*
X7342961Y7304067D02*
Y7314063D01*
X7352958Y7304067D01*
X7355457D01*
X7357956Y7306566D01*
Y7311564D01*
X7355457Y7314063D01*
X7342961Y7299068D02*
Y7294070D01*
Y7296569D01*
X7357956D01*
X7355457Y7299068D01*
X7357956Y7276575D02*
X7355457Y7281574D01*
X7350459Y7286572D01*
X7345460D01*
X7342961Y7284073D01*
Y7279075D01*
X7345460Y7276575D01*
X7347959D01*
X7350459Y7279075D01*
Y7286572D01*
X7385457Y7319062D02*
X7387956Y7321561D01*
Y7326559D01*
X7385457Y7329059D01*
X7375460D01*
X7372961Y7326559D01*
Y7321561D01*
X7375460Y7319062D01*
X7372961Y7304067D02*
Y7314063D01*
X7382958Y7304067D01*
X7385457D01*
X7387956Y7306566D01*
Y7311564D01*
X7385457Y7314063D01*
X7372961Y7299068D02*
Y7294070D01*
Y7296569D01*
X7387956D01*
X7385457Y7299068D01*
X7387956Y7276575D02*
Y7286572D01*
X7380459D01*
X7382958Y7281574D01*
Y7279075D01*
X7380459Y7276575D01*
X7375460D01*
X7372961Y7279075D01*
Y7284073D01*
X7375460Y7286572D01*
X7262818Y8850550D02*
Y8854085D01*
X7259283Y8857619D01*
X7255749D01*
X7248680Y8850550D01*
Y8847016D01*
X7252214Y8843482D01*
X7255749D01*
X7266352Y8847016D02*
X7269886D01*
X7273421Y8843482D01*
Y8839947D01*
X7271654Y8838180D01*
X7268119D01*
X7266352Y8839947D01*
X7268119Y8838180D01*
Y8834646D01*
X7266352Y8832878D01*
X7262818D01*
X7259283Y8836413D01*
Y8839947D01*
X7275188Y8820508D02*
X7268119Y8827577D01*
X7282257D01*
X7284024Y8829344D01*
Y8832878D01*
X7280489Y8836413D01*
X7276955D01*
X7284024Y8811672D02*
X7294627Y8822275D01*
X7284024D01*
X7291093Y8815206D01*
X7675419Y8650668D02*
X7672920Y8653167D01*
X7667921D01*
X7665422Y8650668D01*
Y8640671D01*
X7667921Y8638172D01*
X7672920D01*
X7675419Y8640671D01*
X7680417Y8650668D02*
X7682917Y8653167D01*
X7687915D01*
X7690414Y8650668D01*
Y8648168D01*
X7687915Y8645669D01*
X7685416D01*
X7687915D01*
X7690414Y8643170D01*
Y8640671D01*
X7687915Y8638172D01*
X7682917D01*
X7680417Y8640671D01*
X7705409Y8638172D02*
X7695413D01*
X7705409Y8648168D01*
Y8650668D01*
X7702910Y8653167D01*
X7697912D01*
X7695413Y8650668D01*
X7710408D02*
X7712907Y8653167D01*
X7717905D01*
X7720405Y8650668D01*
Y8648168D01*
X7717905Y8645669D01*
X7715406D01*
X7717905D01*
X7720405Y8643170D01*
Y8640671D01*
X7717905Y8638172D01*
X7712907D01*
X7710408Y8640671D01*
X7321873Y8909605D02*
Y8913140D01*
X7318338Y8916674D01*
X7314804D01*
X7307735Y8909605D01*
Y8906071D01*
X7311270Y8902537D01*
X7314804D01*
X7325407Y8906071D02*
X7328941D01*
X7332476Y8902537D01*
Y8899002D01*
X7330709Y8897235D01*
X7327174D01*
X7325407Y8899002D01*
X7327174Y8897235D01*
Y8893701D01*
X7325407Y8891933D01*
X7321873D01*
X7318338Y8895468D01*
Y8899002D01*
X7334243Y8879563D02*
X7327174Y8886632D01*
X7341312D01*
X7343079Y8888399D01*
Y8891933D01*
X7339545Y8895468D01*
X7336010D01*
X7344846Y8868960D02*
X7337778Y8876029D01*
X7351915D01*
X7353682Y8877796D01*
Y8881330D01*
X7350148Y8884865D01*
X7346614D01*
X7677918Y8564053D02*
X7675419Y8566553D01*
X7670421D01*
X7667921Y8564053D01*
Y8554057D01*
X7670421Y8551558D01*
X7675419D01*
X7677918Y8554057D01*
X7682917Y8564053D02*
X7685416Y8566553D01*
X7690414D01*
X7692913Y8564053D01*
Y8561554D01*
X7690414Y8559055D01*
X7687915D01*
X7690414D01*
X7692913Y8556556D01*
Y8554057D01*
X7690414Y8551558D01*
X7685416D01*
X7682917Y8554057D01*
X7707909Y8551558D02*
X7697912D01*
X7707909Y8561554D01*
Y8564053D01*
X7705409Y8566553D01*
X7700411D01*
X7697912Y8564053D01*
X7712907Y8551558D02*
X7717905D01*
X7715406D01*
Y8566553D01*
X7712907Y8564053D01*
X7451694Y8801403D02*
X7449195Y8798904D01*
Y8793906D01*
X7451694Y8791406D01*
X7461691D01*
X7464190Y8793906D01*
Y8798904D01*
X7461691Y8801403D01*
X7451694Y8806401D02*
X7449195Y8808901D01*
Y8813899D01*
X7451694Y8816398D01*
X7454194D01*
X7456693Y8813899D01*
Y8811400D01*
Y8813899D01*
X7459192Y8816398D01*
X7461691D01*
X7464190Y8813899D01*
Y8808901D01*
X7461691Y8806401D01*
X7464190Y8831394D02*
Y8821397D01*
X7454194Y8831394D01*
X7451694D01*
X7449195Y8828894D01*
Y8823896D01*
X7451694Y8821397D01*
Y8836392D02*
X7449195Y8838891D01*
Y8843889D01*
X7451694Y8846389D01*
X7461691D01*
X7464190Y8843889D01*
Y8838891D01*
X7461691Y8836392D01*
X7451694D01*
X7538309Y8802653D02*
X7535809Y8800154D01*
Y8795155D01*
X7538309Y8792656D01*
X7548305D01*
X7550805Y8795155D01*
Y8800154D01*
X7548305Y8802653D01*
X7538309Y8807651D02*
X7535809Y8810150D01*
Y8815149D01*
X7538309Y8817648D01*
X7540808D01*
X7543307Y8815149D01*
Y8812649D01*
Y8815149D01*
X7545806Y8817648D01*
X7548305D01*
X7550805Y8815149D01*
Y8810150D01*
X7548305Y8807651D01*
X7550805Y8822646D02*
Y8827645D01*
Y8825146D01*
X7535809D01*
X7538309Y8822646D01*
Y8835142D02*
X7535809Y8837641D01*
Y8842640D01*
X7538309Y8845139D01*
X7540808D01*
X7543307Y8842640D01*
X7545806Y8845139D01*
X7548305D01*
X7550805Y8842640D01*
Y8837641D01*
X7548305Y8835142D01*
X7545806D01*
X7543307Y8837641D01*
X7540808Y8835142D01*
X7538309D01*
X7543307Y8837641D02*
Y8842640D01*
X7479253Y8255409D02*
X7476754Y8252910D01*
Y8247911D01*
X7479253Y8245412D01*
X7489250D01*
X7491749Y8247911D01*
Y8252910D01*
X7489250Y8255409D01*
X7479253Y8260407D02*
X7476754Y8262906D01*
Y8267905D01*
X7479253Y8270404D01*
X7481753D01*
X7484252Y8267905D01*
Y8265406D01*
Y8267905D01*
X7486751Y8270404D01*
X7489250D01*
X7491749Y8267905D01*
Y8262906D01*
X7489250Y8260407D01*
X7491749Y8275402D02*
Y8280401D01*
Y8277902D01*
X7476754D01*
X7479253Y8275402D01*
X7476754Y8297895D02*
X7479253Y8292897D01*
X7484252Y8287898D01*
X7489250D01*
X7491749Y8290398D01*
Y8295396D01*
X7489250Y8297895D01*
X7486751D01*
X7484252Y8295396D01*
Y8287898D01*
X7387419Y8254424D02*
X7384919Y8251925D01*
Y8246927D01*
X7387419Y8244428D01*
X7397416D01*
X7399915Y8246927D01*
Y8251925D01*
X7397416Y8254424D01*
X7387419Y8259423D02*
X7384919Y8261922D01*
Y8266921D01*
X7387419Y8269420D01*
X7389918D01*
X7392417Y8266921D01*
Y8264421D01*
Y8266921D01*
X7394916Y8269420D01*
X7397416D01*
X7399915Y8266921D01*
Y8261922D01*
X7397416Y8259423D01*
X7399915Y8274418D02*
Y8279416D01*
Y8276917D01*
X7384919D01*
X7387419Y8274418D01*
X7384919Y8296911D02*
Y8286914D01*
X7392417D01*
X7389918Y8291913D01*
Y8294412D01*
X7392417Y8296911D01*
X7397416D01*
X7399915Y8294412D01*
Y8289413D01*
X7397416Y8286914D01*
X7183293Y11078364D02*
X7178295D01*
X7180794D01*
Y11065868D01*
X7178295Y11063369D01*
X7175795D01*
X7173296Y11065868D01*
X7198288Y11078364D02*
X7188291D01*
Y11070866D01*
X7193290Y11073365D01*
X7195789D01*
X7198288Y11070866D01*
Y11065868D01*
X7195789Y11063369D01*
X7190791D01*
X7188291Y11065868D01*
X7203287Y11075864D02*
X7205786Y11078364D01*
X7210784D01*
X7213283Y11075864D01*
Y11065868D01*
X7210784Y11063369D01*
X7205786D01*
X7203287Y11065868D01*
Y11075864D01*
X7228279Y11063369D02*
X7218282D01*
X7228279Y11073365D01*
Y11075864D01*
X7225779Y11078364D01*
X7220781D01*
X7218282Y11075864D01*
X799965Y4790962D02*
X794967D01*
X797466D01*
Y4778466D01*
X794967Y4775967D01*
X792468D01*
X789969Y4778466D01*
X814961Y4790962D02*
X804964D01*
Y4783465D01*
X809962Y4785964D01*
X812461D01*
X814961Y4783465D01*
Y4778466D01*
X812461Y4775967D01*
X807463D01*
X804964Y4778466D01*
X819959Y4788463D02*
X822458Y4790962D01*
X827457D01*
X829956Y4788463D01*
Y4778466D01*
X827457Y4775967D01*
X822458D01*
X819959Y4778466D01*
Y4788463D01*
X834954Y4775967D02*
X839953D01*
X837453D01*
Y4790962D01*
X834954Y4788463D01*
X7417699Y9060749D02*
Y9065747D01*
Y9063248D01*
X7432694D01*
Y9060749D01*
Y9065747D01*
X7420198Y9083242D02*
X7417699Y9080743D01*
Y9075744D01*
X7420198Y9073245D01*
X7430195D01*
X7432694Y9075744D01*
Y9080743D01*
X7430195Y9083242D01*
X7420198Y9088240D02*
X7417699Y9090739D01*
Y9095738D01*
X7420198Y9098237D01*
X7422698D01*
X7425197Y9095738D01*
Y9093238D01*
Y9095738D01*
X7427696Y9098237D01*
X7430195D01*
X7432694Y9095738D01*
Y9090739D01*
X7430195Y9088240D01*
X7417699Y9113232D02*
Y9103235D01*
X7425197D01*
X7422698Y9108234D01*
Y9110733D01*
X7425197Y9113232D01*
X7430195D01*
X7432694Y9110733D01*
Y9105735D01*
X7430195Y9103235D01*
X7432694Y9125728D02*
X7417699D01*
X7425197Y9118230D01*
Y9128227D01*
X8123366Y8571922D02*
X8118368D01*
X8120867D01*
Y8586917D01*
X8123366D01*
X8118368D01*
X8100873Y8574421D02*
X8103372Y8571922D01*
X8108371D01*
X8110870Y8574421D01*
Y8584418D01*
X8108371Y8586917D01*
X8103372D01*
X8100873Y8584418D01*
X8095875Y8574421D02*
X8093376Y8571922D01*
X8088377D01*
X8085878Y8574421D01*
Y8576920D01*
X8088377Y8579419D01*
X8090876D01*
X8088377D01*
X8085878Y8581919D01*
Y8584418D01*
X8088377Y8586917D01*
X8093376D01*
X8095875Y8584418D01*
X8070883Y8571922D02*
X8080880D01*
Y8579419D01*
X8075881Y8576920D01*
X8073382D01*
X8070883Y8579419D01*
Y8584418D01*
X8073382Y8586917D01*
X8078380D01*
X8080880Y8584418D01*
X8065884Y8574421D02*
X8063385Y8571922D01*
X8058387D01*
X8055887Y8574421D01*
Y8576920D01*
X8058387Y8579419D01*
X8060886D01*
X8058387D01*
X8055887Y8581919D01*
Y8584418D01*
X8058387Y8586917D01*
X8063385D01*
X8065884Y8584418D01*
X7335965Y10186095D02*
X7330966D01*
X7333465D01*
Y10201091D01*
X7335965D01*
X7330966D01*
X7313472Y10188595D02*
X7315971Y10186095D01*
X7320969D01*
X7323469Y10188595D01*
Y10198591D01*
X7320969Y10201091D01*
X7315971D01*
X7313472Y10198591D01*
X7308473Y10188595D02*
X7305974Y10186095D01*
X7300976D01*
X7298477Y10188595D01*
Y10191094D01*
X7300976Y10193593D01*
X7303475D01*
X7300976D01*
X7298477Y10196092D01*
Y10198591D01*
X7300976Y10201091D01*
X7305974D01*
X7308473Y10198591D01*
X7283481Y10186095D02*
X7293478D01*
Y10193593D01*
X7288480Y10191094D01*
X7285981D01*
X7283481Y10193593D01*
Y10198591D01*
X7285981Y10201091D01*
X7290979D01*
X7293478Y10198591D01*
X7268486Y10201091D02*
X7278483D01*
X7268486Y10191094D01*
Y10188595D01*
X7270985Y10186095D01*
X7275984D01*
X7278483Y10188595D01*
X7335965Y9595544D02*
X7330966D01*
X7333465D01*
Y9610539D01*
X7335965D01*
X7330966D01*
X7313472Y9598043D02*
X7315971Y9595544D01*
X7320969D01*
X7323469Y9598043D01*
Y9608040D01*
X7320969Y9610539D01*
X7315971D01*
X7313472Y9608040D01*
X7308473Y9598043D02*
X7305974Y9595544D01*
X7300976D01*
X7298477Y9598043D01*
Y9600543D01*
X7300976Y9603042D01*
X7303475D01*
X7300976D01*
X7298477Y9605541D01*
Y9608040D01*
X7300976Y9610539D01*
X7305974D01*
X7308473Y9608040D01*
X7283481Y9595544D02*
X7293478D01*
Y9603042D01*
X7288480Y9600543D01*
X7285981D01*
X7283481Y9603042D01*
Y9608040D01*
X7285981Y9610539D01*
X7290979D01*
X7293478Y9608040D01*
X7278483Y9610539D02*
X7273485D01*
X7275984D01*
Y9595544D01*
X7278483Y9598043D01*
X7405888Y8948887D02*
X7420883D01*
Y8956384D01*
X7418384Y8958884D01*
X7408387D01*
X7405888Y8956384D01*
Y8948887D01*
X7408387Y8963882D02*
X7405888Y8966381D01*
Y8971380D01*
X7408387Y8973879D01*
X7410887D01*
X7413386Y8971380D01*
Y8968880D01*
Y8971380D01*
X7415885Y8973879D01*
X7418384D01*
X7420883Y8971380D01*
Y8966381D01*
X7418384Y8963882D01*
X7405888Y8988874D02*
Y8978877D01*
X7413386D01*
X7410887Y8983876D01*
Y8986375D01*
X7413386Y8988874D01*
X7418384D01*
X7420883Y8986375D01*
Y8981376D01*
X7418384Y8978877D01*
X7408387Y8993872D02*
X7405888Y8996372D01*
Y9001370D01*
X7408387Y9003869D01*
X7410887D01*
X7413386Y9001370D01*
X7415885Y9003869D01*
X7418384D01*
X7420883Y9001370D01*
Y8996372D01*
X7418384Y8993872D01*
X7415885D01*
X7413386Y8996372D01*
X7410887Y8993872D01*
X7408387D01*
X7413386Y8996372D02*
Y9001370D01*
X7981371Y8435067D02*
X7996366D01*
Y8442565D01*
X7993867Y8445064D01*
X7983870D01*
X7981371Y8442565D01*
Y8435067D01*
X7983870Y8450062D02*
X7981371Y8452561D01*
Y8457560D01*
X7983870Y8460059D01*
X7986369D01*
X7988868Y8457560D01*
Y8455060D01*
Y8457560D01*
X7991368Y8460059D01*
X7993867D01*
X7996366Y8457560D01*
Y8452561D01*
X7993867Y8450062D01*
X7981371Y8475054D02*
Y8465057D01*
X7988868D01*
X7986369Y8470056D01*
Y8472555D01*
X7988868Y8475054D01*
X7993867D01*
X7996366Y8472555D01*
Y8467557D01*
X7993867Y8465057D01*
X7981371Y8480052D02*
Y8490049D01*
X7983870D01*
X7993867Y8480052D01*
X7996366D01*
X8049366Y9629424D02*
Y9614429D01*
X8056864D01*
X8059363Y9616928D01*
Y9626925D01*
X8056864Y9629424D01*
X8049366D01*
X8064361Y9626925D02*
X8066860Y9629424D01*
X8071859D01*
X8074358Y9626925D01*
Y9624426D01*
X8071859Y9621927D01*
X8069360D01*
X8071859D01*
X8074358Y9619428D01*
Y9616928D01*
X8071859Y9614429D01*
X8066860D01*
X8064361Y9616928D01*
X8089353Y9629424D02*
X8079356D01*
Y9621927D01*
X8084355Y9624426D01*
X8086854D01*
X8089353Y9621927D01*
Y9616928D01*
X8086854Y9614429D01*
X8081856D01*
X8079356Y9616928D01*
X8104349Y9629424D02*
X8099350Y9626925D01*
X8094352Y9621927D01*
Y9616928D01*
X8096851Y9614429D01*
X8101849D01*
X8104349Y9616928D01*
Y9619428D01*
X8101849Y9621927D01*
X8094352D01*
X7984320Y8968128D02*
Y8953132D01*
X7991817D01*
X7994317Y8955631D01*
Y8965628D01*
X7991817Y8968128D01*
X7984320D01*
X7999315Y8965628D02*
X8001814Y8968128D01*
X8006813D01*
X8009312Y8965628D01*
Y8963129D01*
X8006813Y8960630D01*
X8004313D01*
X8006813D01*
X8009312Y8958131D01*
Y8955631D01*
X8006813Y8953132D01*
X8001814D01*
X7999315Y8955631D01*
X8024307Y8968128D02*
X8014310D01*
Y8960630D01*
X8019309Y8963129D01*
X8021808D01*
X8024307Y8960630D01*
Y8955631D01*
X8021808Y8953132D01*
X8016809D01*
X8014310Y8955631D01*
X8039302Y8968128D02*
X8029305D01*
Y8960630D01*
X8034304Y8963129D01*
X8036803D01*
X8039302Y8960630D01*
Y8955631D01*
X8036803Y8953132D01*
X8031805D01*
X8029305Y8955631D01*
X7193969Y10049240D02*
X7208965D01*
Y10056738D01*
X7206465Y10059237D01*
X7196469D01*
X7193969Y10056738D01*
Y10049240D01*
X7196469Y10064235D02*
X7193969Y10066735D01*
Y10071733D01*
X7196469Y10074232D01*
X7198968D01*
X7201467Y10071733D01*
Y10069234D01*
Y10071733D01*
X7203966Y10074232D01*
X7206465D01*
X7208965Y10071733D01*
Y10066735D01*
X7206465Y10064235D01*
X7193969Y10089227D02*
Y10079231D01*
X7201467D01*
X7198968Y10084229D01*
Y10086728D01*
X7201467Y10089227D01*
X7206465D01*
X7208965Y10086728D01*
Y10081730D01*
X7206465Y10079231D01*
X7208965Y10101723D02*
X7193969D01*
X7201467Y10094226D01*
Y10104223D01*
X7193969Y9458689D02*
X7208965D01*
Y9466187D01*
X7206465Y9468686D01*
X7196469D01*
X7193969Y9466187D01*
Y9458689D01*
X7196469Y9473684D02*
X7193969Y9476183D01*
Y9481182D01*
X7196469Y9483681D01*
X7198968D01*
X7201467Y9481182D01*
Y9478683D01*
Y9481182D01*
X7203966Y9483681D01*
X7206465D01*
X7208965Y9481182D01*
Y9476183D01*
X7206465Y9473684D01*
X7193969Y9498676D02*
Y9488679D01*
X7201467D01*
X7198968Y9493678D01*
Y9496177D01*
X7201467Y9498676D01*
X7206465D01*
X7208965Y9496177D01*
Y9491179D01*
X7206465Y9488679D01*
X7196469Y9503675D02*
X7193969Y9506174D01*
Y9511172D01*
X7196469Y9513671D01*
X7198968D01*
X7201467Y9511172D01*
Y9508673D01*
Y9511172D01*
X7203966Y9513671D01*
X7206465D01*
X7208965Y9511172D01*
Y9506174D01*
X7206465Y9503675D01*
X8049366Y10810527D02*
Y10795531D01*
X8056864D01*
X8059363Y10798031D01*
Y10808028D01*
X8056864Y10810527D01*
X8049366D01*
X8064361Y10808028D02*
X8066860Y10810527D01*
X8071859D01*
X8074358Y10808028D01*
Y10805528D01*
X8071859Y10803029D01*
X8069360D01*
X8071859D01*
X8074358Y10800530D01*
Y10798031D01*
X8071859Y10795531D01*
X8066860D01*
X8064361Y10798031D01*
X8089353Y10810527D02*
X8079356D01*
Y10803029D01*
X8084355Y10805528D01*
X8086854D01*
X8089353Y10803029D01*
Y10798031D01*
X8086854Y10795531D01*
X8081856D01*
X8079356Y10798031D01*
X8104349Y10795531D02*
X8094352D01*
X8104349Y10805528D01*
Y10808028D01*
X8101849Y10810527D01*
X8096851D01*
X8094352Y10808028D01*
X8049366Y10219976D02*
Y10204980D01*
X8056864D01*
X8059363Y10207479D01*
Y10217476D01*
X8056864Y10219976D01*
X8049366D01*
X8064361Y10217476D02*
X8066860Y10219976D01*
X8071859D01*
X8074358Y10217476D01*
Y10214977D01*
X8071859Y10212478D01*
X8069360D01*
X8071859D01*
X8074358Y10209979D01*
Y10207479D01*
X8071859Y10204980D01*
X8066860D01*
X8064361Y10207479D01*
X8089353Y10219976D02*
X8079356D01*
Y10212478D01*
X8084355Y10214977D01*
X8086854D01*
X8089353Y10212478D01*
Y10207479D01*
X8086854Y10204980D01*
X8081856D01*
X8079356Y10207479D01*
X8094352Y10204980D02*
X8099350D01*
X8096851D01*
Y10219976D01*
X8094352Y10217476D01*
X8383193Y8066542D02*
X8385692Y8069042D01*
Y8074040D01*
X8383193Y8076539D01*
X8373196D01*
X8370697Y8074040D01*
Y8069042D01*
X8373196Y8066542D01*
X8370697Y8054047D02*
X8385692D01*
X8378195Y8061544D01*
Y8051547D01*
X8370697Y8046549D02*
Y8041551D01*
Y8044050D01*
X8385692D01*
X8383193Y8046549D01*
X8370697Y8026555D02*
X8385692D01*
X8378195Y8034053D01*
Y8024056D01*
X8422563Y8221070D02*
X8425062Y8223569D01*
Y8228567D01*
X8422563Y8231067D01*
X8412566D01*
X8410067Y8228567D01*
Y8223569D01*
X8412566Y8221070D01*
X8410067Y8208574D02*
X8425062D01*
X8417565Y8216072D01*
Y8206075D01*
X8410067Y8201076D02*
Y8196078D01*
Y8198577D01*
X8425062D01*
X8422563Y8201076D01*
Y8188580D02*
X8425062Y8186081D01*
Y8181083D01*
X8422563Y8178583D01*
X8420064D01*
X8417565Y8181083D01*
Y8183582D01*
Y8181083D01*
X8415065Y8178583D01*
X8412566D01*
X8410067Y8181083D01*
Y8186081D01*
X8412566Y8188580D01*
X7708165Y8237282D02*
X7705665Y8239781D01*
X7700667D01*
X7698168Y8237282D01*
Y8227285D01*
X7700667Y8224786D01*
X7705665D01*
X7708165Y8227285D01*
X7720661Y8224786D02*
Y8239781D01*
X7713163Y8232283D01*
X7723160D01*
X7728158Y8224786D02*
X7733157D01*
X7730657D01*
Y8239781D01*
X7728158Y8237282D01*
X7750651Y8224786D02*
X7740654D01*
X7750651Y8234783D01*
Y8237282D01*
X7748152Y8239781D01*
X7743153D01*
X7740654Y8237282D01*
X7710664Y8111298D02*
X7708165Y8113797D01*
X7703166D01*
X7700667Y8111298D01*
Y8101301D01*
X7703166Y8098802D01*
X7708165D01*
X7710664Y8101301D01*
X7723160Y8098802D02*
Y8113797D01*
X7715662Y8106299D01*
X7725659D01*
X7730657Y8098802D02*
X7735656D01*
X7733157D01*
Y8113797D01*
X7730657Y8111298D01*
X7743153Y8098802D02*
X7748152D01*
X7745653D01*
Y8113797D01*
X7743153Y8111298D01*
X7708165Y8040431D02*
X7705665Y8042931D01*
X7700667D01*
X7698168Y8040431D01*
Y8030435D01*
X7700667Y8027935D01*
X7705665D01*
X7708165Y8030435D01*
X7720661Y8027935D02*
Y8042931D01*
X7713163Y8035433D01*
X7723160D01*
X7728158Y8027935D02*
X7733157D01*
X7730657D01*
Y8042931D01*
X7728158Y8040431D01*
X7740654D02*
X7743153Y8042931D01*
X7748152D01*
X7750651Y8040431D01*
Y8030435D01*
X7748152Y8027935D01*
X7743153D01*
X7740654Y8030435D01*
Y8040431D01*
X7929731Y7693579D02*
X7932230Y7691080D01*
X7937229D01*
X7939728Y7693579D01*
Y7703576D01*
X7937229Y7706075D01*
X7932230D01*
X7929731Y7703576D01*
X7917235Y7706075D02*
Y7691080D01*
X7924733Y7698577D01*
X7914736D01*
X7909738Y7693579D02*
X7907239Y7691080D01*
X7902240D01*
X7899741Y7693579D01*
Y7703576D01*
X7902240Y7706075D01*
X7907239D01*
X7909738Y7703576D01*
Y7693579D01*
X7894743Y7703576D02*
X7892243Y7706075D01*
X7887245D01*
X7884746Y7703576D01*
Y7693579D01*
X7887245Y7691080D01*
X7892243D01*
X7894743Y7693579D01*
Y7696078D01*
X7892243Y7698577D01*
X7884746D01*
X8028157Y7693579D02*
X8030656Y7691080D01*
X8035654D01*
X8038153Y7693579D01*
Y7703576D01*
X8035654Y7706075D01*
X8030656D01*
X8028157Y7703576D01*
X8015660Y7706075D02*
Y7691080D01*
X8023158Y7698577D01*
X8013161D01*
X8008163Y7693579D02*
X8005664Y7691080D01*
X8000665D01*
X7998166Y7693579D01*
Y7703576D01*
X8000665Y7706075D01*
X8005664D01*
X8008163Y7703576D01*
Y7693579D01*
X7993168D02*
X7990668Y7691080D01*
X7985670D01*
X7983171Y7693579D01*
Y7696078D01*
X7985670Y7698577D01*
X7983171Y7701076D01*
Y7703576D01*
X7985670Y7706075D01*
X7990668D01*
X7993168Y7703576D01*
Y7701076D01*
X7990668Y7698577D01*
X7993168Y7696078D01*
Y7693579D01*
X7990668Y7698577D02*
X7985670D01*
X8087212Y7693579D02*
X8089711Y7691080D01*
X8094709D01*
X8097208Y7693579D01*
Y7703576D01*
X8094709Y7706075D01*
X8089711D01*
X8087212Y7703576D01*
X8074716Y7706075D02*
Y7691080D01*
X8082213Y7698577D01*
X8072217D01*
X8067218Y7693579D02*
X8064719Y7691080D01*
X8059721D01*
X8057221Y7693579D01*
Y7703576D01*
X8059721Y7706075D01*
X8064719D01*
X8067218Y7703576D01*
Y7693579D01*
X8052223Y7691080D02*
X8042226D01*
Y7693579D01*
X8052223Y7703576D01*
Y7706075D01*
X8382209Y7948432D02*
X8384708Y7950931D01*
Y7955930D01*
X8382209Y7958429D01*
X8372212D01*
X8369712Y7955930D01*
Y7950931D01*
X8372212Y7948432D01*
X8369712Y7935936D02*
X8384708D01*
X8377210Y7943434D01*
Y7933437D01*
X8382209Y7928439D02*
X8384708Y7925939D01*
Y7920941D01*
X8382209Y7918442D01*
X8372212D01*
X8369712Y7920941D01*
Y7925939D01*
X8372212Y7928439D01*
X8382209D01*
X8384708Y7903447D02*
X8382209Y7908445D01*
X8377210Y7913443D01*
X8372212D01*
X8369712Y7910944D01*
Y7905946D01*
X8372212Y7903447D01*
X8374711D01*
X8377210Y7905946D01*
Y7913443D01*
X8382209Y8165952D02*
X8384708Y8168451D01*
Y8173450D01*
X8382209Y8175949D01*
X8372212D01*
X8369713Y8173450D01*
Y8168451D01*
X8372212Y8165952D01*
X8369713Y8153456D02*
X8384708D01*
X8377210Y8160954D01*
Y8150957D01*
X8382209Y8145958D02*
X8384708Y8143459D01*
Y8138461D01*
X8382209Y8135962D01*
X8372212D01*
X8369713Y8138461D01*
Y8143459D01*
X8372212Y8145958D01*
X8382209D01*
X8384708Y8120966D02*
Y8130963D01*
X8377210D01*
X8379709Y8125965D01*
Y8123466D01*
X8377210Y8120966D01*
X8372212D01*
X8369713Y8123466D01*
Y8128464D01*
X8372212Y8130963D01*
X7878339Y8443232D02*
X7875840Y8445731D01*
X7870842D01*
X7868342Y8443232D01*
Y8433235D01*
X7870842Y8430736D01*
X7875840D01*
X7878339Y8433235D01*
X7890835Y8430736D02*
Y8445731D01*
X7883338Y8438234D01*
X7893334D01*
X7898333Y8443232D02*
X7900832Y8445731D01*
X7905831D01*
X7908330Y8443232D01*
Y8433235D01*
X7905831Y8430736D01*
X7900832D01*
X7898333Y8433235D01*
Y8443232D01*
X7920826Y8430736D02*
Y8445731D01*
X7913328Y8438234D01*
X7923325D01*
X7870676Y7704406D02*
X7873176Y7701906D01*
X7878174D01*
X7880673Y7704406D01*
Y7714402D01*
X7878174Y7716902D01*
X7873176D01*
X7870676Y7714402D01*
X7858180Y7716902D02*
Y7701906D01*
X7865678Y7709404D01*
X7855681D01*
X7850683Y7704406D02*
X7848184Y7701906D01*
X7843185D01*
X7840686Y7704406D01*
Y7714402D01*
X7843185Y7716902D01*
X7848184D01*
X7850683Y7714402D01*
Y7704406D01*
X7835688D02*
X7833188Y7701906D01*
X7828190D01*
X7825691Y7704406D01*
Y7706905D01*
X7828190Y7709404D01*
X7830689D01*
X7828190D01*
X7825691Y7711903D01*
Y7714402D01*
X7828190Y7716902D01*
X7833188D01*
X7835688Y7714402D01*
X8327462Y8405613D02*
Y8409148D01*
X8323927Y8412682D01*
X8320393D01*
X8313324Y8405613D01*
Y8402079D01*
X8316859Y8398545D01*
X8320393D01*
X8327462Y8387941D02*
X8338065Y8398545D01*
X8327462D01*
X8334531Y8391476D01*
X8341600D02*
X8345134D01*
X8348668Y8387941D01*
Y8384407D01*
X8341600Y8377338D01*
X8338065D01*
X8334531Y8380873D01*
Y8384407D01*
X8341600Y8391476D01*
X8350435Y8364968D02*
X8343367Y8372037D01*
X8357504D01*
X8359272Y8373804D01*
Y8377338D01*
X8355737Y8380873D01*
X8352203D01*
X14862205Y4787025D02*
X14857206D01*
X14859706D01*
Y4774529D01*
X14857206Y4772030D01*
X14854707D01*
X14852208Y4774529D01*
X14867203Y4772030D02*
X14872201D01*
X14869702D01*
Y4787025D01*
X14867203Y4784526D01*
X8946320Y11082301D02*
X8941321D01*
X8943820D01*
Y11069805D01*
X8941321Y11067306D01*
X8938822D01*
X8936323Y11069805D01*
X8961315Y11067306D02*
X8951318D01*
X8961315Y11077302D01*
Y11079801D01*
X8958816Y11082301D01*
X8953817D01*
X8951318Y11079801D01*
X13915720Y4786650D02*
X13900725D01*
Y4794147D01*
X13903224Y4796646D01*
X13908223D01*
X13910722Y4794147D01*
Y4786650D01*
Y4791648D02*
X13915720Y4796646D01*
Y4801645D02*
Y4806643D01*
Y4804144D01*
X13900725D01*
X13903224Y4801645D01*
X13900725Y4824137D02*
X13903224Y4819139D01*
X13908223Y4814141D01*
X13913221D01*
X13915720Y4816640D01*
Y4821638D01*
X13913221Y4824137D01*
X13910722D01*
X13908223Y4821638D01*
Y4814141D01*
X13762712Y4752965D02*
X13747717D01*
Y4760462D01*
X13750217Y4762961D01*
X13755215D01*
X13757714Y4760462D01*
Y4752965D01*
Y4757963D02*
X13762712Y4762961D01*
Y4767960D02*
Y4772958D01*
Y4770459D01*
X13747717D01*
X13750217Y4767960D01*
X13747717Y4790453D02*
Y4780456D01*
X13755215D01*
X13752716Y4785454D01*
Y4787953D01*
X13755215Y4790453D01*
X13760213D01*
X13762712Y4787953D01*
Y4782955D01*
X13760213Y4780456D01*
X13908453Y4766649D02*
Y4751654D01*
X13900955D01*
X13898456Y4754153D01*
Y4759152D01*
X13900955Y4761651D01*
X13908453D01*
X13903454D02*
X13898456Y4766649D01*
X13893458D02*
X13888459D01*
X13890958D01*
Y4751654D01*
X13893458Y4754153D01*
X13873464Y4766649D02*
Y4751654D01*
X13880962Y4759152D01*
X13870965D01*
X13625232Y4706327D02*
Y4721322D01*
X13632730D01*
X13635229Y4718823D01*
Y4713824D01*
X13632730Y4711325D01*
X13625232D01*
X13630231D02*
X13635229Y4706327D01*
X13640228D02*
X13645226D01*
X13642727D01*
Y4721322D01*
X13640228Y4718823D01*
X13652724D02*
X13655223Y4721322D01*
X13660221D01*
X13662720Y4718823D01*
Y4716324D01*
X13660221Y4713824D01*
X13657722D01*
X13660221D01*
X13662720Y4711325D01*
Y4708826D01*
X13660221Y4706327D01*
X13655223D01*
X13652724Y4708826D01*
X13915720Y3959878D02*
X13900725D01*
Y3967376D01*
X13903224Y3969875D01*
X13908223D01*
X13910722Y3967376D01*
Y3959878D01*
Y3964876D02*
X13915720Y3969875D01*
Y3974873D02*
Y3979872D01*
Y3977372D01*
X13900725D01*
X13903224Y3974873D01*
X13915720Y3997366D02*
Y3987369D01*
X13905724Y3997366D01*
X13903224D01*
X13900725Y3994867D01*
Y3989868D01*
X13903224Y3987369D01*
X13762712Y3926193D02*
X13747717D01*
Y3933691D01*
X13750217Y3936190D01*
X13755215D01*
X13757714Y3933691D01*
Y3926193D01*
Y3931191D02*
X13762712Y3936190D01*
Y3941188D02*
Y3946187D01*
Y3943687D01*
X13747717D01*
X13750217Y3941188D01*
X13762712Y3953684D02*
Y3958683D01*
Y3956183D01*
X13747717D01*
X13750217Y3953684D01*
X13908453Y3939878D02*
Y3924883D01*
X13900955D01*
X13898456Y3927382D01*
Y3932380D01*
X13900955Y3934879D01*
X13908453D01*
X13903454D02*
X13898456Y3939878D01*
X13893458D02*
X13888459D01*
X13890958D01*
Y3924883D01*
X13893458Y3927382D01*
X13880962D02*
X13878462Y3924883D01*
X13873464D01*
X13870965Y3927382D01*
Y3937378D01*
X13873464Y3939878D01*
X13878462D01*
X13880962Y3937378D01*
Y3927382D01*
X13625232Y3879555D02*
Y3894550D01*
X13632730D01*
X13635229Y3892051D01*
Y3887053D01*
X13632730Y3884553D01*
X13625232D01*
X13630231D02*
X13635229Y3879555D01*
X13640228Y3882054D02*
X13642727Y3879555D01*
X13647725D01*
X13650224Y3882054D01*
Y3892051D01*
X13647725Y3894550D01*
X13642727D01*
X13640228Y3892051D01*
Y3889552D01*
X13642727Y3887053D01*
X13650224D01*
X14899972Y3959878D02*
X14884977D01*
Y3967376D01*
X14887476Y3969875D01*
X14892475D01*
X14894974Y3967376D01*
Y3959878D01*
Y3964876D02*
X14899972Y3969875D01*
X14887476Y3974873D02*
X14884977Y3977372D01*
Y3982371D01*
X14887476Y3984870D01*
X14889976D01*
X14892475Y3982371D01*
X14894974Y3984870D01*
X14897473D01*
X14899972Y3982371D01*
Y3977372D01*
X14897473Y3974873D01*
X14894974D01*
X14892475Y3977372D01*
X14889976Y3974873D01*
X14887476D01*
X14892475Y3977372D02*
Y3982371D01*
X14746964Y3926193D02*
X14731969D01*
Y3933691D01*
X14734468Y3936190D01*
X14739467D01*
X14741966Y3933691D01*
Y3926193D01*
Y3931191D02*
X14746964Y3936190D01*
X14731969Y3941188D02*
Y3951185D01*
X14734468D01*
X14744465Y3941188D01*
X14746964D01*
X14791704Y3959878D02*
X14776709D01*
Y3967376D01*
X14779209Y3969875D01*
X14784207D01*
X14786706Y3967376D01*
Y3959878D01*
Y3964876D02*
X14791704Y3969875D01*
X14776709Y3984870D02*
X14779209Y3979872D01*
X14784207Y3974873D01*
X14789205D01*
X14791704Y3977372D01*
Y3982371D01*
X14789205Y3984870D01*
X14786706D01*
X14784207Y3982371D01*
Y3974873D01*
X14609484Y3879555D02*
Y3894550D01*
X14616982D01*
X14619481Y3892051D01*
Y3887053D01*
X14616982Y3884553D01*
X14609484D01*
X14614483D02*
X14619481Y3879555D01*
X14634476Y3894550D02*
X14624479D01*
Y3887053D01*
X14629478Y3889552D01*
X14631977D01*
X14634476Y3887053D01*
Y3882054D01*
X14631977Y3879555D01*
X14626979D01*
X14624479Y3882054D01*
X13454552Y4745390D02*
X13469547D01*
Y4755386D01*
X13454552Y4770382D02*
Y4760385D01*
X13462049D01*
X13459550Y4765383D01*
Y4767882D01*
X13462049Y4770382D01*
X13467048D01*
X13469547Y4767882D01*
Y4762884D01*
X13467048Y4760385D01*
X13454552Y3918618D02*
X13469547D01*
Y3928615D01*
Y3941111D02*
X13454552D01*
X13462049Y3933613D01*
Y3943610D01*
X14438804Y3918618D02*
X14453799D01*
Y3928615D01*
X14441303Y3933613D02*
X14438804Y3936113D01*
Y3941111D01*
X14441303Y3943610D01*
X14443802D01*
X14446301Y3941111D01*
Y3938612D01*
Y3941111D01*
X14448801Y3943610D01*
X14451300D01*
X14453799Y3941111D01*
Y3936113D01*
X14451300Y3933613D01*
X13666028Y4736424D02*
X13671026D01*
X13668527D01*
Y4721429D01*
X13666028D01*
X13671026D01*
X13688520Y4733925D02*
X13686021Y4736424D01*
X13681023D01*
X13678524Y4733925D01*
Y4723928D01*
X13681023Y4721429D01*
X13686021D01*
X13688520Y4723928D01*
X13703516Y4736424D02*
X13693519D01*
Y4728927D01*
X13698517Y4731426D01*
X13701016D01*
X13703516Y4728927D01*
Y4723928D01*
X13701016Y4721429D01*
X13696018D01*
X13693519Y4723928D01*
X13666028Y3909653D02*
X13671026D01*
X13668527D01*
Y3894657D01*
X13666028D01*
X13671026D01*
X13688520Y3907153D02*
X13686021Y3909653D01*
X13681023D01*
X13678524Y3907153D01*
Y3897157D01*
X13681023Y3894657D01*
X13686021D01*
X13688520Y3897157D01*
X13701016Y3894657D02*
Y3909653D01*
X13693519Y3902155D01*
X13703516D01*
X14650280Y3909653D02*
X14655278D01*
X14652779D01*
Y3894657D01*
X14650280D01*
X14655278D01*
X14672772Y3907153D02*
X14670273Y3909653D01*
X14665275D01*
X14662775Y3907153D01*
Y3897157D01*
X14665275Y3894657D01*
X14670273D01*
X14672772Y3897157D01*
X14677771Y3907153D02*
X14680270Y3909653D01*
X14685268D01*
X14687767Y3907153D01*
Y3904654D01*
X14685268Y3902155D01*
X14682769D01*
X14685268D01*
X14687767Y3899656D01*
Y3897157D01*
X14685268Y3894657D01*
X14680270D01*
X14677771Y3897157D01*
X13818681Y4803967D02*
X13821180Y4806467D01*
Y4811465D01*
X13818681Y4813964D01*
X13808684D01*
X13806185Y4811465D01*
Y4806467D01*
X13808684Y4803967D01*
X13821180Y4788972D02*
X13818681Y4793971D01*
X13813683Y4798969D01*
X13808684D01*
X13806185Y4796470D01*
Y4791471D01*
X13808684Y4788972D01*
X13811183D01*
X13813683Y4791471D01*
Y4798969D01*
X13821180Y4773977D02*
Y4783974D01*
X13813683D01*
X13816182Y4778975D01*
Y4776476D01*
X13813683Y4773977D01*
X13808684D01*
X13806185Y4776476D01*
Y4781475D01*
X13808684Y4783974D01*
X13800031Y4675413D02*
X13802530Y4672914D01*
X13807528D01*
X13810028Y4675413D01*
Y4685410D01*
X13807528Y4687909D01*
X13802530D01*
X13800031Y4685410D01*
X13785036Y4672914D02*
X13790034Y4675413D01*
X13795032Y4680412D01*
Y4685410D01*
X13792533Y4687909D01*
X13787535D01*
X13785036Y4685410D01*
Y4682911D01*
X13787535Y4680412D01*
X13795032D01*
X13772540Y4687909D02*
Y4672914D01*
X13780037Y4680412D01*
X13770040D01*
X13858484Y4467686D02*
X13855985Y4465187D01*
Y4460188D01*
X13858484Y4457689D01*
X13868481D01*
X13870980Y4460188D01*
Y4465187D01*
X13868481Y4467686D01*
X13855985Y4482681D02*
X13858484Y4477683D01*
X13863483Y4472684D01*
X13868481D01*
X13870980Y4475183D01*
Y4480182D01*
X13868481Y4482681D01*
X13865982D01*
X13863483Y4480182D01*
Y4472684D01*
X13858484Y4487679D02*
X13855985Y4490179D01*
Y4495177D01*
X13858484Y4497676D01*
X13860984D01*
X13863483Y4495177D01*
Y4492678D01*
Y4495177D01*
X13865982Y4497676D01*
X13868481D01*
X13870980Y4495177D01*
Y4490179D01*
X13868481Y4487679D01*
X13753661Y4252398D02*
X13756160Y4249898D01*
X13761158D01*
X13763658Y4252398D01*
Y4262394D01*
X13761158Y4264894D01*
X13756160D01*
X13753661Y4262394D01*
X13738666Y4249898D02*
X13743664Y4252398D01*
X13748662Y4257396D01*
Y4262394D01*
X13746163Y4264894D01*
X13741165D01*
X13738666Y4262394D01*
Y4259895D01*
X13741165Y4257396D01*
X13748662D01*
X13723670Y4264894D02*
X13733667D01*
X13723670Y4254897D01*
Y4252398D01*
X13726170Y4249898D01*
X13731168D01*
X13733667Y4252398D01*
X13832401D02*
X13834900Y4249898D01*
X13839898D01*
X13842397Y4252398D01*
Y4262394D01*
X13839898Y4264894D01*
X13834900D01*
X13832401Y4262394D01*
X13817406Y4249898D02*
X13822404Y4252398D01*
X13827402Y4257396D01*
Y4262394D01*
X13824903Y4264894D01*
X13819905D01*
X13817406Y4262394D01*
Y4259895D01*
X13819905Y4257396D01*
X13827402D01*
X13812407Y4264894D02*
X13807409D01*
X13809908D01*
Y4249898D01*
X13812407Y4252398D01*
X13684763Y4252398D02*
X13687262Y4249898D01*
X13692261D01*
X13694760Y4252398D01*
Y4262394D01*
X13692261Y4264894D01*
X13687262D01*
X13684763Y4262394D01*
X13669768Y4249898D02*
X13674766Y4252398D01*
X13679765Y4257396D01*
Y4262394D01*
X13677265Y4264894D01*
X13672267D01*
X13669768Y4262394D01*
Y4259895D01*
X13672267Y4257396D01*
X13679765D01*
X13664769Y4252398D02*
X13662270Y4249898D01*
X13657272D01*
X13654773Y4252398D01*
Y4262394D01*
X13657272Y4264894D01*
X13662270D01*
X13664769Y4262394D01*
Y4252398D01*
X13615865D02*
X13618365Y4249898D01*
X13623363D01*
X13625862Y4252398D01*
Y4262394D01*
X13623363Y4264894D01*
X13618365D01*
X13615865Y4262394D01*
X13600870Y4249898D02*
X13610867D01*
Y4257396D01*
X13605869Y4254897D01*
X13603369D01*
X13600870Y4257396D01*
Y4262394D01*
X13603369Y4264894D01*
X13608368D01*
X13610867Y4262394D01*
X13595872D02*
X13593373Y4264894D01*
X13588374D01*
X13585875Y4262394D01*
Y4252398D01*
X13588374Y4249898D01*
X13593373D01*
X13595872Y4252398D01*
Y4254897D01*
X13593373Y4257396D01*
X13585875D01*
X13546968Y4252398D02*
X13549467Y4249898D01*
X13554465D01*
X13556965Y4252398D01*
Y4262394D01*
X13554465Y4264894D01*
X13549467D01*
X13546968Y4262394D01*
X13531973Y4249898D02*
X13541969D01*
Y4257396D01*
X13536971Y4254897D01*
X13534472D01*
X13531973Y4257396D01*
Y4262394D01*
X13534472Y4264894D01*
X13539470D01*
X13541969Y4262394D01*
X13526974Y4252398D02*
X13524475Y4249898D01*
X13519477D01*
X13516977Y4252398D01*
Y4254897D01*
X13519477Y4257396D01*
X13516977Y4259895D01*
Y4262394D01*
X13519477Y4264894D01*
X13524475D01*
X13526974Y4262394D01*
Y4259895D01*
X13524475Y4257396D01*
X13526974Y4254897D01*
Y4252398D01*
X13524475Y4257396D02*
X13519477D01*
X13478070Y4252398D02*
X13480569Y4249898D01*
X13485567D01*
X13488067Y4252398D01*
Y4262394D01*
X13485567Y4264894D01*
X13480569D01*
X13478070Y4262394D01*
X13463075Y4249898D02*
X13473072D01*
Y4257396D01*
X13468073Y4254897D01*
X13465574D01*
X13463075Y4257396D01*
Y4262394D01*
X13465574Y4264894D01*
X13470572D01*
X13473072Y4262394D01*
X13458076Y4249898D02*
X13448079D01*
Y4252398D01*
X13458076Y4262394D01*
Y4264894D01*
X13857450Y4812775D02*
X13854950Y4815275D01*
X13849952D01*
X13847453Y4812775D01*
Y4802779D01*
X13849952Y4800279D01*
X13854950D01*
X13857450Y4802779D01*
X13872445Y4815275D02*
X13862448D01*
Y4807777D01*
X13867446Y4810276D01*
X13869946D01*
X13872445Y4807777D01*
Y4802779D01*
X13869946Y4800279D01*
X13864947D01*
X13862448Y4802779D01*
X13887440Y4815275D02*
X13882442Y4812775D01*
X13877443Y4807777D01*
Y4802779D01*
X13879942Y4800279D01*
X13884941D01*
X13887440Y4802779D01*
Y4805278D01*
X13884941Y4807777D01*
X13877443D01*
X14019409Y4823264D02*
X14021908Y4820765D01*
X14026906D01*
X14029406Y4823264D01*
Y4833261D01*
X14026906Y4835760D01*
X14021908D01*
X14019409Y4833261D01*
X14004414Y4820765D02*
X14014410D01*
Y4828262D01*
X14009412Y4825763D01*
X14006913D01*
X14004414Y4828262D01*
Y4833261D01*
X14006913Y4835760D01*
X14011911D01*
X14014410Y4833261D01*
X13989418Y4820765D02*
X13999415D01*
Y4828262D01*
X13994417Y4825763D01*
X13991918D01*
X13989418Y4828262D01*
Y4833261D01*
X13991918Y4835760D01*
X13996916D01*
X13999415Y4833261D01*
X13950511Y4823264D02*
X13953010Y4820765D01*
X13958008D01*
X13960508Y4823264D01*
Y4833261D01*
X13958008Y4835760D01*
X13953010D01*
X13950511Y4833261D01*
X13935516Y4820765D02*
X13945513D01*
Y4828262D01*
X13940514Y4825763D01*
X13938015D01*
X13935516Y4828262D01*
Y4833261D01*
X13938015Y4835760D01*
X13943013D01*
X13945513Y4833261D01*
X13923020Y4835760D02*
Y4820765D01*
X13930517Y4828262D01*
X13920521D01*
X13881613Y4823264D02*
X13884112Y4820765D01*
X13889111D01*
X13891610Y4823264D01*
Y4833261D01*
X13889111Y4835760D01*
X13884112D01*
X13881613Y4833261D01*
X13866618Y4820765D02*
X13876615D01*
Y4828262D01*
X13871617Y4825763D01*
X13869117D01*
X13866618Y4828262D01*
Y4833261D01*
X13869117Y4835760D01*
X13874116D01*
X13876615Y4833261D01*
X13861620Y4823264D02*
X13859121Y4820765D01*
X13854122D01*
X13851623Y4823264D01*
Y4825763D01*
X13854122Y4828262D01*
X13856621D01*
X13854122D01*
X13851623Y4830761D01*
Y4833261D01*
X13854122Y4835760D01*
X13859121D01*
X13861620Y4833261D01*
X13812716Y4823264D02*
X13815215Y4820765D01*
X13820213D01*
X13822712Y4823264D01*
Y4833261D01*
X13820213Y4835760D01*
X13815215D01*
X13812716Y4833261D01*
X13797720Y4820765D02*
X13807717D01*
Y4828262D01*
X13802719Y4825763D01*
X13800220D01*
X13797720Y4828262D01*
Y4833261D01*
X13800220Y4835760D01*
X13805218D01*
X13807717Y4833261D01*
X13782725Y4835760D02*
X13792722D01*
X13782725Y4825763D01*
Y4823264D01*
X13785225Y4820765D01*
X13790223D01*
X13792722Y4823264D01*
X13690728Y4518535D02*
X13693228Y4521034D01*
Y4526032D01*
X13690728Y4528531D01*
X13680732D01*
X13678232Y4526032D01*
Y4521034D01*
X13680732Y4518535D01*
X13693228Y4503539D02*
Y4513536D01*
X13685730D01*
X13688229Y4508538D01*
Y4506039D01*
X13685730Y4503539D01*
X13680732D01*
X13678232Y4506039D01*
Y4511037D01*
X13680732Y4513536D01*
X13678232Y4498541D02*
Y4493543D01*
Y4496042D01*
X13693228D01*
X13690728Y4498541D01*
X13818681Y3977196D02*
X13821180Y3979695D01*
Y3984694D01*
X13818681Y3987193D01*
X13808684D01*
X13806185Y3984694D01*
Y3979695D01*
X13808684Y3977196D01*
X13821180Y3962201D02*
Y3972198D01*
X13813683D01*
X13816182Y3967199D01*
Y3964700D01*
X13813683Y3962201D01*
X13808684D01*
X13806185Y3964700D01*
Y3969698D01*
X13808684Y3972198D01*
X13818681Y3957202D02*
X13821180Y3954703D01*
Y3949705D01*
X13818681Y3947206D01*
X13808684D01*
X13806185Y3949705D01*
Y3954703D01*
X13808684Y3957202D01*
X13818681D01*
X13800031Y3848642D02*
X13802530Y3846143D01*
X13807528D01*
X13810028Y3848642D01*
Y3858639D01*
X13807528Y3861138D01*
X13802530D01*
X13800031Y3858639D01*
X13787535Y3861138D02*
Y3846143D01*
X13795032Y3853640D01*
X13785036D01*
X13780037Y3858639D02*
X13777538Y3861138D01*
X13772540D01*
X13770040Y3858639D01*
Y3848642D01*
X13772540Y3846143D01*
X13777538D01*
X13780037Y3848642D01*
Y3851141D01*
X13777538Y3853640D01*
X13770040D01*
X13858484Y3640914D02*
X13855985Y3638415D01*
Y3633417D01*
X13858484Y3630917D01*
X13868481D01*
X13870980Y3633417D01*
Y3638415D01*
X13868481Y3640914D01*
X13870980Y3653410D02*
X13855985D01*
X13863483Y3645913D01*
Y3655909D01*
X13858484Y3660908D02*
X13855985Y3663407D01*
Y3668405D01*
X13858484Y3670905D01*
X13860984D01*
X13863483Y3668405D01*
X13865982Y3670905D01*
X13868481D01*
X13870980Y3668405D01*
Y3663407D01*
X13868481Y3660908D01*
X13865982D01*
X13863483Y3663407D01*
X13860984Y3660908D01*
X13858484D01*
X13863483Y3663407D02*
Y3668405D01*
X13753660Y3425626D02*
X13756160Y3423127D01*
X13761158D01*
X13763657Y3425626D01*
Y3435623D01*
X13761158Y3438122D01*
X13756160D01*
X13753660Y3435623D01*
X13741165Y3438122D02*
Y3423127D01*
X13748662Y3430624D01*
X13738665D01*
X13733667Y3423127D02*
X13723670D01*
Y3425626D01*
X13733667Y3435623D01*
Y3438122D01*
X13838543Y3425626D02*
X13841042Y3423127D01*
X13846041D01*
X13848540Y3425626D01*
Y3435623D01*
X13846041Y3438122D01*
X13841042D01*
X13838543Y3435623D01*
X13826047Y3438122D02*
Y3423127D01*
X13833545Y3430624D01*
X13823548D01*
X13808553Y3423127D02*
X13813551Y3425626D01*
X13818550Y3430624D01*
Y3435623D01*
X13816050Y3438122D01*
X13811052D01*
X13808553Y3435623D01*
Y3433124D01*
X13811052Y3430624D01*
X13818550D01*
X13684763Y3425626D02*
X13687262Y3423127D01*
X13692261D01*
X13694760Y3425626D01*
Y3435623D01*
X13692261Y3438122D01*
X13687262D01*
X13684763Y3435623D01*
X13672267Y3438122D02*
Y3423127D01*
X13679765Y3430624D01*
X13669768D01*
X13654773Y3423127D02*
X13664769D01*
Y3430624D01*
X13659771Y3428125D01*
X13657272D01*
X13654773Y3430624D01*
Y3435623D01*
X13657272Y3438122D01*
X13662270D01*
X13664769Y3435623D01*
X13615865Y3425626D02*
X13618365Y3423127D01*
X13623363D01*
X13625862Y3425626D01*
Y3435623D01*
X13623363Y3438122D01*
X13618365D01*
X13615865Y3435623D01*
X13603369Y3438122D02*
Y3423127D01*
X13610867Y3430624D01*
X13600870D01*
X13588374Y3438122D02*
Y3423127D01*
X13595872Y3430624D01*
X13585875D01*
X13546968Y3425626D02*
X13549467Y3423127D01*
X13554465D01*
X13556965Y3425626D01*
Y3435623D01*
X13554465Y3438122D01*
X13549467D01*
X13546968Y3435623D01*
X13534472Y3438122D02*
Y3423127D01*
X13541969Y3430624D01*
X13531973D01*
X13526974Y3425626D02*
X13524475Y3423127D01*
X13519477D01*
X13516977Y3425626D01*
Y3428125D01*
X13519477Y3430624D01*
X13521976D01*
X13519477D01*
X13516977Y3433124D01*
Y3435623D01*
X13519477Y3438122D01*
X13524475D01*
X13526974Y3435623D01*
X13478070Y3425626D02*
X13480569Y3423127D01*
X13485567D01*
X13488067Y3425626D01*
Y3435623D01*
X13485567Y3438122D01*
X13480569D01*
X13478070Y3435623D01*
X13465574Y3438122D02*
Y3423127D01*
X13473072Y3430624D01*
X13463075D01*
X13448079Y3438122D02*
X13458076D01*
X13448079Y3428125D01*
Y3425626D01*
X13450579Y3423127D01*
X13455577D01*
X13458076Y3425626D01*
X13857450Y3986004D02*
X13854950Y3988503D01*
X13849952D01*
X13847453Y3986004D01*
Y3976007D01*
X13849952Y3973508D01*
X13854950D01*
X13857450Y3976007D01*
X13869946Y3973508D02*
Y3988503D01*
X13862448Y3981005D01*
X13872445D01*
X13877443Y3973508D02*
X13882442D01*
X13879942D01*
Y3988503D01*
X13877443Y3986004D01*
X14019408Y3996492D02*
X14021908Y3993993D01*
X14026906D01*
X14029405Y3996492D01*
Y4006489D01*
X14026906Y4008988D01*
X14021908D01*
X14019408Y4006489D01*
X14006913Y4008988D02*
Y3993993D01*
X14014410Y4001491D01*
X14004413D01*
X13999415Y3996492D02*
X13996916Y3993993D01*
X13991917D01*
X13989418Y3996492D01*
Y4006489D01*
X13991917Y4008988D01*
X13996916D01*
X13999415Y4006489D01*
Y3996492D01*
X13950511D02*
X13953010Y3993993D01*
X13958008D01*
X13960508Y3996492D01*
Y4006489D01*
X13958008Y4008988D01*
X13953010D01*
X13950511Y4006489D01*
X13945513Y3996492D02*
X13943013Y3993993D01*
X13938015D01*
X13935516Y3996492D01*
Y3998991D01*
X13938015Y4001491D01*
X13940514D01*
X13938015D01*
X13935516Y4003990D01*
Y4006489D01*
X13938015Y4008988D01*
X13943013D01*
X13945513Y4006489D01*
X13930517D02*
X13928018Y4008988D01*
X13923020D01*
X13920521Y4006489D01*
Y3996492D01*
X13923020Y3993993D01*
X13928018D01*
X13930517Y3996492D01*
Y3998991D01*
X13928018Y4001491D01*
X13920521D01*
X13881613Y3996492D02*
X13884113Y3993993D01*
X13889111D01*
X13891610Y3996492D01*
Y4006489D01*
X13889111Y4008988D01*
X13884113D01*
X13881613Y4006489D01*
X13876615Y3996492D02*
X13874116Y3993993D01*
X13869117D01*
X13866618Y3996492D01*
Y3998991D01*
X13869117Y4001491D01*
X13871617D01*
X13869117D01*
X13866618Y4003990D01*
Y4006489D01*
X13869117Y4008988D01*
X13874116D01*
X13876615Y4006489D01*
X13861620Y3996492D02*
X13859121Y3993993D01*
X13854122D01*
X13851623Y3996492D01*
Y3998991D01*
X13854122Y4001491D01*
X13851623Y4003990D01*
Y4006489D01*
X13854122Y4008988D01*
X13859121D01*
X13861620Y4006489D01*
Y4003990D01*
X13859121Y4001491D01*
X13861620Y3998991D01*
Y3996492D01*
X13859121Y4001491D02*
X13854122D01*
X13812716Y3996492D02*
X13815215Y3993993D01*
X13820213D01*
X13822713Y3996492D01*
Y4006489D01*
X13820213Y4008988D01*
X13815215D01*
X13812716Y4006489D01*
X13807717Y3996492D02*
X13805218Y3993993D01*
X13800220D01*
X13797721Y3996492D01*
Y3998991D01*
X13800220Y4001491D01*
X13802719D01*
X13800220D01*
X13797721Y4003990D01*
Y4006489D01*
X13800220Y4008988D01*
X13805218D01*
X13807717Y4006489D01*
X13792722Y3993993D02*
X13782725D01*
Y3996492D01*
X13792722Y4006489D01*
Y4008988D01*
X13690728Y3691763D02*
X13693228Y3694262D01*
Y3699260D01*
X13690728Y3701760D01*
X13680732D01*
X13678232Y3699260D01*
Y3694262D01*
X13680732Y3691763D01*
X13690728Y3686765D02*
X13693228Y3684265D01*
Y3679267D01*
X13690728Y3676768D01*
X13688229D01*
X13685730Y3679267D01*
Y3681766D01*
Y3679267D01*
X13683231Y3676768D01*
X13680732D01*
X13678232Y3679267D01*
Y3684265D01*
X13680732Y3686765D01*
X13693228Y3661773D02*
X13690728Y3666771D01*
X13685730Y3671769D01*
X13680732D01*
X13678232Y3669270D01*
Y3664272D01*
X13680732Y3661773D01*
X13683231D01*
X13685730Y3664272D01*
Y3671769D01*
X14802933Y3977196D02*
X14805432Y3979695D01*
Y3984694D01*
X14802933Y3987193D01*
X14792936D01*
X14790437Y3984694D01*
Y3979695D01*
X14792936Y3977196D01*
X14802933Y3972198D02*
X14805432Y3969698D01*
Y3964700D01*
X14802933Y3962201D01*
X14800434D01*
X14797934Y3964700D01*
Y3967199D01*
Y3964700D01*
X14795435Y3962201D01*
X14792936D01*
X14790437Y3964700D01*
Y3969698D01*
X14792936Y3972198D01*
X14805432Y3947206D02*
Y3957202D01*
X14797934D01*
X14800434Y3952204D01*
Y3949705D01*
X14797934Y3947206D01*
X14792936D01*
X14790437Y3949705D01*
Y3954703D01*
X14792936Y3957202D01*
X14784282Y3848642D02*
X14786782Y3846143D01*
X14791780D01*
X14794279Y3848642D01*
Y3858639D01*
X14791780Y3861138D01*
X14786782D01*
X14784282Y3858639D01*
X14779284Y3848642D02*
X14776785Y3846143D01*
X14771787D01*
X14769287Y3848642D01*
Y3851141D01*
X14771787Y3853640D01*
X14774286D01*
X14771787D01*
X14769287Y3856139D01*
Y3858639D01*
X14771787Y3861138D01*
X14776785D01*
X14779284Y3858639D01*
X14756791Y3861138D02*
Y3846143D01*
X14764289Y3853640D01*
X14754292D01*
X14842736Y3640914D02*
X14840237Y3638415D01*
Y3633416D01*
X14842736Y3630917D01*
X14852733D01*
X14855232Y3633416D01*
Y3638415D01*
X14852733Y3640914D01*
X14842736Y3645912D02*
X14840237Y3648412D01*
Y3653410D01*
X14842736Y3655909D01*
X14845235D01*
X14847735Y3653410D01*
Y3650911D01*
Y3653410D01*
X14850234Y3655909D01*
X14852733D01*
X14855232Y3653410D01*
Y3648412D01*
X14852733Y3645912D01*
X14842736Y3660908D02*
X14840237Y3663407D01*
Y3668405D01*
X14842736Y3670905D01*
X14845235D01*
X14847735Y3668405D01*
Y3665906D01*
Y3668405D01*
X14850234Y3670905D01*
X14852733D01*
X14855232Y3668405D01*
Y3663407D01*
X14852733Y3660908D01*
X14737913Y3425626D02*
X14740412Y3423127D01*
X14745410D01*
X14747909Y3425626D01*
Y3435623D01*
X14745410Y3438122D01*
X14740412D01*
X14737913Y3435623D01*
X14732914Y3425626D02*
X14730415Y3423127D01*
X14725416D01*
X14722917Y3425626D01*
Y3428125D01*
X14725416Y3430624D01*
X14727916D01*
X14725416D01*
X14722917Y3433124D01*
Y3435623D01*
X14725416Y3438122D01*
X14730415D01*
X14732914Y3435623D01*
X14707922Y3438122D02*
X14717919D01*
X14707922Y3428125D01*
Y3425626D01*
X14710421Y3423127D01*
X14715420D01*
X14717919Y3425626D01*
X14816653D02*
X14819152Y3423127D01*
X14824150D01*
X14826650Y3425626D01*
Y3435623D01*
X14824150Y3438122D01*
X14819152D01*
X14816653Y3435623D01*
X14811654Y3425626D02*
X14809155Y3423127D01*
X14804157D01*
X14801658Y3425626D01*
Y3428125D01*
X14804157Y3430624D01*
X14806656D01*
X14804157D01*
X14801658Y3433124D01*
Y3435623D01*
X14804157Y3438122D01*
X14809155D01*
X14811654Y3435623D01*
X14796659Y3438122D02*
X14791661D01*
X14794160D01*
Y3423127D01*
X14796659Y3425626D01*
X14669015D02*
X14671514Y3423127D01*
X14676513D01*
X14679012Y3425626D01*
Y3435623D01*
X14676513Y3438122D01*
X14671514D01*
X14669015Y3435623D01*
X14664017Y3425626D02*
X14661517Y3423127D01*
X14656519D01*
X14654020Y3425626D01*
Y3428125D01*
X14656519Y3430624D01*
X14659018D01*
X14656519D01*
X14654020Y3433124D01*
Y3435623D01*
X14656519Y3438122D01*
X14661517D01*
X14664017Y3435623D01*
X14649021Y3425626D02*
X14646522Y3423127D01*
X14641524D01*
X14639025Y3425626D01*
Y3435623D01*
X14641524Y3438122D01*
X14646522D01*
X14649021Y3435623D01*
Y3425626D01*
X14600117D02*
X14602617Y3423127D01*
X14607615D01*
X14610114Y3425626D01*
Y3435623D01*
X14607615Y3438122D01*
X14602617D01*
X14600117Y3435623D01*
X14585122Y3438122D02*
X14595119D01*
X14585122Y3428125D01*
Y3425626D01*
X14587621Y3423127D01*
X14592620D01*
X14595119Y3425626D01*
X14580124Y3435623D02*
X14577625Y3438122D01*
X14572626D01*
X14570127Y3435623D01*
Y3425626D01*
X14572626Y3423127D01*
X14577625D01*
X14580124Y3425626D01*
Y3428125D01*
X14577625Y3430624D01*
X14570127D01*
X14531219Y3425626D02*
X14533719Y3423127D01*
X14538717D01*
X14541216Y3425626D01*
Y3435623D01*
X14538717Y3438122D01*
X14533719D01*
X14531219Y3435623D01*
X14516224Y3438122D02*
X14526221D01*
X14516224Y3428125D01*
Y3425626D01*
X14518724Y3423127D01*
X14523722D01*
X14526221Y3425626D01*
X14511226D02*
X14508727Y3423127D01*
X14503728D01*
X14501229Y3425626D01*
Y3428125D01*
X14503728Y3430624D01*
X14501229Y3433124D01*
Y3435623D01*
X14503728Y3438122D01*
X14508727D01*
X14511226Y3435623D01*
Y3433124D01*
X14508727Y3430624D01*
X14511226Y3428125D01*
Y3425626D01*
X14508727Y3430624D02*
X14503728D01*
X14462322Y3425626D02*
X14464821Y3423127D01*
X14469819D01*
X14472319Y3425626D01*
Y3435623D01*
X14469819Y3438122D01*
X14464821D01*
X14462322Y3435623D01*
X14447327Y3438122D02*
X14457324D01*
X14447327Y3428125D01*
Y3425626D01*
X14449826Y3423127D01*
X14454824D01*
X14457324Y3425626D01*
X14442328Y3423127D02*
X14432332D01*
Y3425626D01*
X14442328Y3435623D01*
Y3438122D01*
X14841701Y3986004D02*
X14839202Y3988503D01*
X14834204D01*
X14831705Y3986004D01*
Y3976007D01*
X14834204Y3973508D01*
X14839202D01*
X14841701Y3976007D01*
X14856697Y3973508D02*
X14846700D01*
X14856697Y3983505D01*
Y3986004D01*
X14854198Y3988503D01*
X14849199D01*
X14846700Y3986004D01*
X14871692Y3988503D02*
X14866693Y3986004D01*
X14861695Y3981006D01*
Y3976007D01*
X14864194Y3973508D01*
X14869193D01*
X14871692Y3976007D01*
Y3978506D01*
X14869193Y3981006D01*
X14861695D01*
X14865865Y3996492D02*
X14868365Y3993993D01*
X14873363D01*
X14875862Y3996492D01*
Y4006489D01*
X14873363Y4008988D01*
X14868365D01*
X14865865Y4006489D01*
X14850870Y4008988D02*
X14860867D01*
X14850870Y3998991D01*
Y3996492D01*
X14853369Y3993993D01*
X14858368D01*
X14860867Y3996492D01*
X14835875Y3993993D02*
X14845872D01*
Y4001491D01*
X14840873Y3998991D01*
X14838374D01*
X14835875Y4001491D01*
Y4006489D01*
X14838374Y4008988D01*
X14843373D01*
X14845872Y4006489D01*
X14934763Y3996492D02*
X14937262Y3993993D01*
X14942261D01*
X14944760Y3996492D01*
Y4006489D01*
X14942261Y4008988D01*
X14937262D01*
X14934763Y4006489D01*
X14919768Y4008988D02*
X14929765D01*
X14919768Y3998991D01*
Y3996492D01*
X14922267Y3993993D01*
X14927265D01*
X14929765Y3996492D01*
X14907272Y4008988D02*
Y3993993D01*
X14914769Y4001491D01*
X14904773D01*
X15003661Y3996492D02*
X15006160Y3993993D01*
X15011158D01*
X15013657Y3996492D01*
Y4006489D01*
X15011158Y4008988D01*
X15006160D01*
X15003661Y4006489D01*
X14988665Y4008988D02*
X14998662D01*
X14988665Y3998991D01*
Y3996492D01*
X14991165Y3993993D01*
X14996163D01*
X14998662Y3996492D01*
X14983667D02*
X14981168Y3993993D01*
X14976169D01*
X14973670Y3996492D01*
Y3998991D01*
X14976169Y4001491D01*
X14978669D01*
X14976169D01*
X14973670Y4003990D01*
Y4006489D01*
X14976169Y4008988D01*
X14981168D01*
X14983667Y4006489D01*
X14796968Y3996492D02*
X14799467Y3993993D01*
X14804465D01*
X14806964Y3996492D01*
Y4006489D01*
X14804465Y4008988D01*
X14799467D01*
X14796968Y4006489D01*
X14781972Y4008988D02*
X14791969D01*
X14781972Y3998991D01*
Y3996492D01*
X14784471Y3993993D01*
X14789470D01*
X14791969Y3996492D01*
X14766977Y4008988D02*
X14776974D01*
X14766977Y3998991D01*
Y3996492D01*
X14769476Y3993993D01*
X14774475D01*
X14776974Y3996492D01*
X14674980Y3691763D02*
X14677479Y3694262D01*
Y3699261D01*
X14674980Y3701760D01*
X14664983D01*
X14662484Y3699261D01*
Y3694262D01*
X14664983Y3691763D01*
X14662484Y3676768D02*
Y3686765D01*
X14672481Y3676768D01*
X14674980D01*
X14677479Y3679267D01*
Y3684265D01*
X14674980Y3686765D01*
X14662484Y3671769D02*
Y3666771D01*
Y3669270D01*
X14677479D01*
X14674980Y3671769D01*
X6633482Y4574118D02*
X6618487D01*
Y4581616D01*
X6620986Y4584115D01*
X6625984D01*
X6628483Y4581616D01*
Y4574118D01*
Y4579117D02*
X6633482Y4584115D01*
Y4596611D02*
X6618487D01*
X6625984Y4589113D01*
Y4599110D01*
X6526874Y4669668D02*
Y4684663D01*
X6534372D01*
X6536871Y4682164D01*
Y4677165D01*
X6534372Y4674666D01*
X6526874D01*
X6531873D02*
X6536871Y4669668D01*
X6541869Y4682164D02*
X6544368Y4684663D01*
X6549367D01*
X6551866Y4682164D01*
Y4679665D01*
X6549367Y4677165D01*
X6546868D01*
X6549367D01*
X6551866Y4674666D01*
Y4672167D01*
X6549367Y4669668D01*
X6544368D01*
X6541869Y4672167D01*
X6633482Y4491441D02*
X6618487D01*
Y4498939D01*
X6620986Y4501438D01*
X6625984D01*
X6628483Y4498939D01*
Y4491441D01*
Y4496439D02*
X6633482Y4501438D01*
Y4516433D02*
Y4506436D01*
X6623485Y4516433D01*
X6620986D01*
X6618487Y4513934D01*
Y4508935D01*
X6620986Y4506436D01*
X6785840Y4814845D02*
Y4829840D01*
X6793338D01*
X6795837Y4827341D01*
Y4822342D01*
X6793338Y4819843D01*
X6785840D01*
X6790838D02*
X6795837Y4814845D01*
X6800835D02*
X6805834D01*
X6803334D01*
Y4829840D01*
X6800835Y4827341D01*
X6756282Y4806590D02*
Y4811588D01*
Y4809089D01*
X6771277D01*
Y4806590D01*
Y4811588D01*
X6758781Y4829083D02*
X6756282Y4826583D01*
Y4821585D01*
X6758781Y4819086D01*
X6768778D01*
X6771277Y4821585D01*
Y4826583D01*
X6768778Y4829083D01*
X6771277Y4834081D02*
Y4839079D01*
Y4836580D01*
X6756282D01*
X6758781Y4834081D01*
X6533310Y4587676D02*
X6530811Y4590175D01*
X6525813D01*
X6523314Y4587676D01*
Y4577679D01*
X6525813Y4575180D01*
X6530811D01*
X6533310Y4577679D01*
X6548306Y4575180D02*
X6538309D01*
X6548306Y4585176D01*
Y4587676D01*
X6545806Y4590175D01*
X6540808D01*
X6538309Y4587676D01*
X6553304D02*
X6555803Y4590175D01*
X6560801D01*
X6563301Y4587676D01*
Y4577679D01*
X6560801Y4575180D01*
X6555803D01*
X6553304Y4577679D01*
Y4587676D01*
X6613300Y4682164D02*
X6610801Y4684663D01*
X6605802D01*
X6603303Y4682164D01*
Y4672167D01*
X6605802Y4669668D01*
X6610801D01*
X6613300Y4672167D01*
X6618298Y4669668D02*
X6623297D01*
X6620798D01*
Y4684663D01*
X6618298Y4682164D01*
X6630794Y4672167D02*
X6633294Y4669668D01*
X6638292D01*
X6640791Y4672167D01*
Y4682164D01*
X6638292Y4684663D01*
X6633294D01*
X6630794Y4682164D01*
Y4679665D01*
X6633294Y4677165D01*
X6640791D01*
X6487128Y4888891D02*
X6484628Y4886391D01*
Y4881393D01*
X6487128Y4878894D01*
X6497124D01*
X6499624Y4881393D01*
Y4886391D01*
X6497124Y4888891D01*
X6499624Y4893889D02*
Y4898887D01*
Y4896388D01*
X6484628D01*
X6487128Y4893889D01*
Y4906385D02*
X6484628Y4908884D01*
Y4913883D01*
X6487128Y4916382D01*
X6489627D01*
X6492126Y4913883D01*
X6494625Y4916382D01*
X6497124D01*
X6499624Y4913883D01*
Y4908884D01*
X6497124Y4906385D01*
X6494625D01*
X6492126Y4908884D01*
X6489627Y4906385D01*
X6487128D01*
X6492126Y4908884D02*
Y4913883D01*
X6614449Y5107839D02*
X6611950Y5110338D01*
X6606952D01*
X6604453Y5107839D01*
Y5097842D01*
X6606952Y5095343D01*
X6611950D01*
X6614449Y5097842D01*
X6619448Y5095343D02*
X6624446D01*
X6621947D01*
Y5110338D01*
X6619448Y5107839D01*
X6631944Y5110338D02*
X6641941D01*
Y5107839D01*
X6631944Y5097842D01*
Y5095343D01*
X6683347Y5107839D02*
X6680848Y5110338D01*
X6675850D01*
X6673350Y5107839D01*
Y5097842D01*
X6675850Y5095343D01*
X6680848D01*
X6683347Y5097842D01*
X6688346Y5095343D02*
X6693344D01*
X6690845D01*
Y5110338D01*
X6688346Y5107839D01*
X6710838Y5110338D02*
X6705840Y5107839D01*
X6700842Y5102840D01*
Y5097842D01*
X6703341Y5095343D01*
X6708339D01*
X6710838Y5097842D01*
Y5100341D01*
X6708339Y5102840D01*
X6700842D01*
X6752245Y5107839D02*
X6749745Y5110338D01*
X6744747D01*
X6742248Y5107839D01*
Y5097842D01*
X6744747Y5095343D01*
X6749745D01*
X6752245Y5097842D01*
X6757243Y5095343D02*
X6762242D01*
X6759742D01*
Y5110338D01*
X6757243Y5107839D01*
X6779736Y5110338D02*
X6769739D01*
Y5102840D01*
X6774738Y5105339D01*
X6777237D01*
X6779736Y5102840D01*
Y5097842D01*
X6777237Y5095343D01*
X6772238D01*
X6769739Y5097842D01*
X6821142Y5107839D02*
X6818643Y5110338D01*
X6813645D01*
X6811146Y5107839D01*
Y5097842D01*
X6813645Y5095343D01*
X6818643D01*
X6821142Y5097842D01*
X6826141Y5095343D02*
X6831139D01*
X6828640D01*
Y5110338D01*
X6826141Y5107839D01*
X6846134Y5095343D02*
Y5110338D01*
X6838637Y5102840D01*
X6848634D01*
X6890040Y5107839D02*
X6887541Y5110338D01*
X6882542D01*
X6880043Y5107839D01*
Y5097842D01*
X6882542Y5095343D01*
X6887541D01*
X6890040Y5097842D01*
X6895038Y5095343D02*
X6900037D01*
X6897538D01*
Y5110338D01*
X6895038Y5107839D01*
X6907534D02*
X6910034Y5110338D01*
X6915032D01*
X6917531Y5107839D01*
Y5105339D01*
X6915032Y5102840D01*
X6912533D01*
X6915032D01*
X6917531Y5100341D01*
Y5097842D01*
X6915032Y5095343D01*
X6910034D01*
X6907534Y5097842D01*
X6958938Y5107839D02*
X6956438Y5110338D01*
X6951440D01*
X6948941Y5107839D01*
Y5097842D01*
X6951440Y5095343D01*
X6956438D01*
X6958938Y5097842D01*
X6963936Y5095343D02*
X6968934D01*
X6966435D01*
Y5110338D01*
X6963936Y5107839D01*
X6986429Y5095343D02*
X6976432D01*
X6986429Y5105339D01*
Y5107839D01*
X6983930Y5110338D01*
X6978931D01*
X6976432Y5107839D01*
X6534372Y4505375D02*
X6531872Y4502876D01*
Y4497877D01*
X6534372Y4495378D01*
X6544368D01*
X6546868Y4497877D01*
Y4502876D01*
X6544368Y4505375D01*
X6531872Y4520370D02*
X6534372Y4515372D01*
X6539370Y4510373D01*
X6544368D01*
X6546868Y4512872D01*
Y4517871D01*
X6544368Y4520370D01*
X6541869D01*
X6539370Y4517871D01*
Y4510373D01*
X6374445Y4189595D02*
X6371946Y4187096D01*
Y4182097D01*
X6374445Y4179598D01*
X6384442D01*
X6386941Y4182097D01*
Y4187096D01*
X6384442Y4189595D01*
X6371946Y4204590D02*
Y4194593D01*
X6379443D01*
X6376944Y4199592D01*
Y4202091D01*
X6379443Y4204590D01*
X6384442D01*
X6386941Y4202091D01*
Y4197093D01*
X6384442Y4194593D01*
X6374445Y4252245D02*
X6371946Y4249745D01*
Y4244747D01*
X6374445Y4242248D01*
X6384442D01*
X6386941Y4244747D01*
Y4249745D01*
X6384442Y4252245D01*
X6386941Y4264741D02*
X6371946D01*
X6379443Y4257243D01*
Y4267240D01*
X6374445Y4321142D02*
X6371946Y4318643D01*
Y4313645D01*
X6374445Y4311145D01*
X6384442D01*
X6386941Y4313645D01*
Y4318643D01*
X6384442Y4321142D01*
X6374445Y4326141D02*
X6371946Y4328640D01*
Y4333638D01*
X6374445Y4336137D01*
X6376944D01*
X6379443Y4333638D01*
Y4331139D01*
Y4333638D01*
X6381943Y4336137D01*
X6384442D01*
X6386941Y4333638D01*
Y4328640D01*
X6384442Y4326141D01*
X6374445Y4390040D02*
X6371946Y4387541D01*
Y4382542D01*
X6374445Y4380043D01*
X6384442D01*
X6386941Y4382542D01*
Y4387541D01*
X6384442Y4390040D01*
X6386941Y4405035D02*
Y4395038D01*
X6376944Y4405035D01*
X6374445D01*
X6371946Y4402536D01*
Y4397538D01*
X6374445Y4395038D01*
X6795276Y4930195D02*
X6792776Y4932694D01*
X6787778D01*
X6785279Y4930195D01*
Y4920199D01*
X6787778Y4917699D01*
X6792776D01*
X6795276Y4920199D01*
X6800274Y4917699D02*
X6805272D01*
X6802773D01*
Y4932694D01*
X6800274Y4930195D01*
X5967248Y3953067D02*
X5952253D01*
Y3960565D01*
X5954752Y3963064D01*
X5959750D01*
X5962250Y3960565D01*
Y3953067D01*
Y3958065D02*
X5967248Y3963064D01*
X5952253Y3978059D02*
Y3968062D01*
X5959750D01*
X5957251Y3973061D01*
Y3975560D01*
X5959750Y3978059D01*
X5964749D01*
X5967248Y3975560D01*
Y3970561D01*
X5964749Y3968062D01*
X5954752Y3983057D02*
X5952253Y3985557D01*
Y3990555D01*
X5954752Y3993054D01*
X5964749D01*
X5967248Y3990555D01*
Y3985557D01*
X5964749Y3983057D01*
X5954752D01*
X5967248Y3998053D02*
Y4003051D01*
Y4000552D01*
X5952253D01*
X5954752Y3998053D01*
X6066846Y3950568D02*
X6051851D01*
Y3958065D01*
X6054350Y3960565D01*
X6059349D01*
X6061848Y3958065D01*
Y3950568D01*
Y3955566D02*
X6066846Y3960565D01*
X6051851Y3975560D02*
Y3965563D01*
X6059349D01*
X6056850Y3970561D01*
Y3973061D01*
X6059349Y3975560D01*
X6064347D01*
X6066846Y3973061D01*
Y3968062D01*
X6064347Y3965563D01*
X6054350Y3980558D02*
X6051851Y3983057D01*
Y3988056D01*
X6054350Y3990555D01*
X6064347D01*
X6066846Y3988056D01*
Y3983057D01*
X6064347Y3980558D01*
X6054350D01*
X6066846Y4005550D02*
Y3995553D01*
X6056850Y4005550D01*
X6054350D01*
X6051851Y4003051D01*
Y3998053D01*
X6054350Y3995553D01*
X6342964Y4527935D02*
Y4542931D01*
X6347962Y4537932D01*
X6352961Y4542931D01*
Y4527935D01*
X6365457Y4542931D02*
X6360458D01*
X6357959Y4540431D01*
Y4530435D01*
X6360458Y4527935D01*
X6365457D01*
X6367956Y4530435D01*
Y4540431D01*
X6365457Y4542931D01*
X6382951D02*
X6372954D01*
Y4535433D01*
X6377953Y4537932D01*
X6380452D01*
X6382951Y4535433D01*
Y4530435D01*
X6380452Y4527935D01*
X6375454D01*
X6372954Y4530435D01*
X6387950Y4540431D02*
X6390449Y4542931D01*
X6395447D01*
X6397946Y4540431D01*
Y4530435D01*
X6395447Y4527935D01*
X6390449D01*
X6387950Y4530435D01*
Y4540431D01*
X6412942Y4527935D02*
X6402945D01*
X6412942Y4537932D01*
Y4540431D01*
X6410442Y4542931D01*
X6405444D01*
X6402945Y4540431D01*
X4239164Y3886203D02*
Y3901198D01*
X4244162Y3896200D01*
X4249161Y3901198D01*
Y3886203D01*
X4261657Y3901198D02*
X4256658D01*
X4254159Y3898699D01*
Y3888702D01*
X4256658Y3886203D01*
X4261657D01*
X4264156Y3888702D01*
Y3898699D01*
X4261657Y3901198D01*
X4279151D02*
X4269154D01*
Y3893701D01*
X4274153Y3896200D01*
X4276652D01*
X4279151Y3893701D01*
Y3888702D01*
X4276652Y3886203D01*
X4271654D01*
X4269154Y3888702D01*
X4284150Y3898699D02*
X4286649Y3901198D01*
X4291647D01*
X4294146Y3898699D01*
Y3888702D01*
X4291647Y3886203D01*
X4286649D01*
X4284150Y3888702D01*
Y3898699D01*
X4299145Y3886203D02*
X4304143D01*
X4301644D01*
Y3901198D01*
X4299145Y3898699D01*
X6342964Y3921636D02*
Y3936631D01*
X6347962Y3931633D01*
X6352961Y3936631D01*
Y3921636D01*
X6365457Y3936631D02*
X6360458D01*
X6357959Y3934132D01*
Y3924135D01*
X6360458Y3921636D01*
X6365457D01*
X6367956Y3924135D01*
Y3934132D01*
X6365457Y3936631D01*
X6382951D02*
X6372954D01*
Y3929134D01*
X6377953Y3931633D01*
X6380452D01*
X6382951Y3929134D01*
Y3924135D01*
X6380452Y3921636D01*
X6375454D01*
X6372954Y3924135D01*
X6387950Y3934132D02*
X6390449Y3936631D01*
X6395447D01*
X6397946Y3934132D01*
Y3924135D01*
X6395447Y3921636D01*
X6390449D01*
X6387950Y3924135D01*
Y3934132D01*
X6402945D02*
X6405444Y3936631D01*
X6410442D01*
X6412942Y3934132D01*
Y3931633D01*
X6410442Y3929134D01*
X6407943D01*
X6410442D01*
X6412942Y3926635D01*
Y3924135D01*
X6410442Y3921636D01*
X6405444D01*
X6402945Y3924135D01*
X4055562Y4527935D02*
Y4542931D01*
X4060561Y4537932D01*
X4065559Y4542931D01*
Y4527935D01*
X4078055Y4542931D02*
X4073057D01*
X4070558Y4540431D01*
Y4530435D01*
X4073057Y4527935D01*
X4078055D01*
X4080554Y4530435D01*
Y4540431D01*
X4078055Y4542931D01*
X4095550D02*
X4085553D01*
Y4535433D01*
X4090551Y4537932D01*
X4093050D01*
X4095550Y4535433D01*
Y4530435D01*
X4093050Y4527935D01*
X4088052D01*
X4085553Y4530435D01*
X4100548Y4540431D02*
X4103047Y4542931D01*
X4108046D01*
X4110545Y4540431D01*
Y4530435D01*
X4108046Y4527935D01*
X4103047D01*
X4100548Y4530435D01*
Y4540431D01*
X4125540Y4542931D02*
X4115543D01*
Y4535433D01*
X4120542Y4537932D01*
X4123041D01*
X4125540Y4535433D01*
Y4530435D01*
X4123041Y4527935D01*
X4118042D01*
X4115543Y4530435D01*
X3940568Y3650050D02*
X3925573D01*
X3930572Y3655049D01*
X3925573Y3660047D01*
X3940568D01*
X3925573Y3672543D02*
Y3667545D01*
X3928072Y3665046D01*
X3938069D01*
X3940568Y3667545D01*
Y3672543D01*
X3938069Y3675043D01*
X3928072D01*
X3925573Y3672543D01*
Y3690038D02*
Y3680041D01*
X3933071D01*
X3930572Y3685039D01*
Y3687539D01*
X3933071Y3690038D01*
X3938069D01*
X3940568Y3687539D01*
Y3682540D01*
X3938069Y3680041D01*
X3928072Y3695036D02*
X3925573Y3697535D01*
Y3702534D01*
X3928072Y3705033D01*
X3938069D01*
X3940568Y3702534D01*
Y3697535D01*
X3938069Y3695036D01*
X3928072D01*
X3925573Y3720028D02*
X3928072Y3715030D01*
X3933071Y3710031D01*
X3938069D01*
X3940568Y3712530D01*
Y3717529D01*
X3938069Y3720028D01*
X3935570D01*
X3933071Y3717529D01*
Y3710031D01*
X4059499Y3925573D02*
Y3940568D01*
X4064498Y3935570D01*
X4069496Y3940568D01*
Y3925573D01*
X4081992Y3940568D02*
X4076994D01*
X4074495Y3938069D01*
Y3928073D01*
X4076994Y3925573D01*
X4081992D01*
X4084491Y3928073D01*
Y3938069D01*
X4081992Y3940568D01*
X4099487D02*
X4089490D01*
Y3933071D01*
X4094488Y3935570D01*
X4096987D01*
X4099487Y3933071D01*
Y3928073D01*
X4096987Y3925573D01*
X4091989D01*
X4089490Y3928073D01*
X4104485Y3938069D02*
X4106984Y3940568D01*
X4111983D01*
X4114482Y3938069D01*
Y3928073D01*
X4111983Y3925573D01*
X4106984D01*
X4104485Y3928073D01*
Y3938069D01*
X4126978Y3925573D02*
Y3940568D01*
X4119480Y3933071D01*
X4129477D01*
X6202978Y3485313D02*
X6200479Y3487813D01*
X6195480D01*
X6192981Y3485313D01*
Y3475317D01*
X6195480Y3472817D01*
X6200479D01*
X6202978Y3475317D01*
X6217973Y3487813D02*
X6207976D01*
Y3480315D01*
X6212975Y3482814D01*
X6215474D01*
X6217973Y3480315D01*
Y3475317D01*
X6215474Y3472817D01*
X6210476D01*
X6207976Y3475317D01*
X6222972Y3485313D02*
X6225471Y3487813D01*
X6230469D01*
X6232968Y3485313D01*
Y3475317D01*
X6230469Y3472817D01*
X6225471D01*
X6222972Y3475317D01*
Y3485313D01*
X6237967D02*
X6240466Y3487813D01*
X6245464D01*
X6247964Y3485313D01*
Y3482814D01*
X6245464Y3480315D01*
X6242965D01*
X6245464D01*
X6247964Y3477816D01*
Y3475317D01*
X6245464Y3472817D01*
X6240466D01*
X6237967Y3475317D01*
X6987965Y4357912D02*
X6990464Y4360411D01*
Y4365409D01*
X6987965Y4367909D01*
X6977968D01*
X6975468Y4365409D01*
Y4360411D01*
X6977968Y4357912D01*
X6990464Y4342917D02*
Y4352913D01*
X6982966D01*
X6985465Y4347915D01*
Y4345416D01*
X6982966Y4342917D01*
X6977968D01*
X6975468Y4345416D01*
Y4350414D01*
X6977968Y4352913D01*
X6987965Y4337918D02*
X6990464Y4335419D01*
Y4330421D01*
X6987965Y4327921D01*
X6977968D01*
X6975468Y4330421D01*
Y4335419D01*
X6977968Y4337918D01*
X6987965D01*
X6975468Y4322923D02*
Y4317925D01*
Y4320424D01*
X6990464D01*
X6987965Y4322923D01*
X6045498Y3571927D02*
X6042998Y3574427D01*
X6038000D01*
X6035501Y3571927D01*
Y3561931D01*
X6038000Y3559432D01*
X6042998D01*
X6045498Y3561931D01*
X6060493Y3574427D02*
X6050496D01*
Y3566929D01*
X6055494Y3569428D01*
X6057994D01*
X6060493Y3566929D01*
Y3561931D01*
X6057994Y3559432D01*
X6052995D01*
X6050496Y3561931D01*
X6065491Y3571927D02*
X6067990Y3574427D01*
X6072989D01*
X6075488Y3571927D01*
Y3561931D01*
X6072989Y3559432D01*
X6067990D01*
X6065491Y3561931D01*
Y3571927D01*
X6090483Y3574427D02*
X6085485Y3571927D01*
X6080486Y3566929D01*
Y3561931D01*
X6082986Y3559432D01*
X6087984D01*
X6090483Y3561931D01*
Y3564430D01*
X6087984Y3566929D01*
X6080486D01*
X6199041Y3571927D02*
X6196542Y3574427D01*
X6191543D01*
X6189044Y3571927D01*
Y3561931D01*
X6191543Y3559432D01*
X6196542D01*
X6199041Y3561931D01*
X6214036Y3574427D02*
X6204039D01*
Y3566929D01*
X6209038Y3569428D01*
X6211537D01*
X6214036Y3566929D01*
Y3561931D01*
X6211537Y3559432D01*
X6206539D01*
X6204039Y3561931D01*
X6219035Y3571927D02*
X6221534Y3574427D01*
X6226532D01*
X6229031Y3571927D01*
Y3561931D01*
X6226532Y3559432D01*
X6221534D01*
X6219035Y3561931D01*
Y3571927D01*
X6244027Y3574427D02*
X6234030D01*
Y3566929D01*
X6239028Y3569428D01*
X6241527D01*
X6244027Y3566929D01*
Y3561931D01*
X6241527Y3559432D01*
X6236529D01*
X6234030Y3561931D01*
X6987965Y3966710D02*
X6990464Y3969209D01*
Y3974208D01*
X6987965Y3976707D01*
X6977968D01*
X6975468Y3974208D01*
Y3969209D01*
X6977968Y3966710D01*
X6990464Y3951715D02*
Y3961712D01*
X6982966D01*
X6985465Y3956713D01*
Y3954214D01*
X6982966Y3951715D01*
X6977968D01*
X6975468Y3954214D01*
Y3959213D01*
X6977968Y3961712D01*
X6987965Y3946717D02*
X6990464Y3944217D01*
Y3939219D01*
X6987965Y3936720D01*
X6977968D01*
X6975468Y3939219D01*
Y3944217D01*
X6977968Y3946717D01*
X6987965D01*
X6975468Y3921725D02*
Y3931721D01*
X6985465Y3921725D01*
X6987965D01*
X6990464Y3924224D01*
Y3929222D01*
X6987965Y3931721D01*
X6045498Y3485313D02*
X6042998Y3487813D01*
X6038000D01*
X6035501Y3485313D01*
Y3475317D01*
X6038000Y3472817D01*
X6042998D01*
X6045498Y3475317D01*
X6060493Y3487813D02*
X6050496D01*
Y3480315D01*
X6055494Y3482814D01*
X6057994D01*
X6060493Y3480315D01*
Y3475317D01*
X6057994Y3472817D01*
X6052995D01*
X6050496Y3475317D01*
X6065491Y3485313D02*
X6067990Y3487813D01*
X6072989D01*
X6075488Y3485313D01*
Y3475317D01*
X6072989Y3472817D01*
X6067990D01*
X6065491Y3475317D01*
Y3485313D01*
X6087984Y3472817D02*
Y3487813D01*
X6080486Y3480315D01*
X6090483D01*
X12282261Y3710802D02*
Y3695807D01*
X12292257D01*
X12307253D02*
X12297256D01*
X12307253Y3705804D01*
Y3708303D01*
X12304754Y3710802D01*
X12299755D01*
X12297256Y3708303D01*
X12727629Y3651198D02*
X12722630D01*
X12725130D01*
Y3666193D01*
X12727629D01*
X12722630D01*
X12705136Y3653697D02*
X12707635Y3651198D01*
X12712634D01*
X12715133Y3653697D01*
Y3663694D01*
X12712634Y3666193D01*
X12707635D01*
X12705136Y3663694D01*
X12690141Y3666193D02*
X12700138D01*
X12690141Y3656196D01*
Y3653697D01*
X12692640Y3651198D01*
X12697638D01*
X12700138Y3653697D01*
X12113417Y3960579D02*
X12110918Y3963078D01*
X12105920D01*
X12103421Y3960579D01*
Y3950582D01*
X12105920Y3948083D01*
X12110918D01*
X12113417Y3950582D01*
X12118416Y3948083D02*
X12123414D01*
X12120915D01*
Y3963078D01*
X12118416Y3960579D01*
X12130912Y3948083D02*
X12135910D01*
X12133411D01*
Y3963078D01*
X12130912Y3960579D01*
X12681546Y3439996D02*
X12684046Y3437497D01*
X12689044D01*
X12691543Y3439996D01*
Y3449993D01*
X12689044Y3452492D01*
X12684046D01*
X12681546Y3449993D01*
X12676548Y3452492D02*
X12671549D01*
X12674049D01*
Y3437497D01*
X12676548Y3439996D01*
X12664052D02*
X12661553Y3437497D01*
X12656554D01*
X12654055Y3439996D01*
Y3449993D01*
X12656554Y3452492D01*
X12661553D01*
X12664052Y3449993D01*
Y3439996D01*
X12242228Y3361256D02*
X12244727Y3358757D01*
X12249725D01*
X12252224Y3361256D01*
Y3371253D01*
X12249725Y3373752D01*
X12244727D01*
X12242228Y3371253D01*
X12237229D02*
X12234730Y3373752D01*
X12229732D01*
X12227232Y3371253D01*
Y3361256D01*
X12229732Y3358757D01*
X12234730D01*
X12237229Y3361256D01*
Y3363755D01*
X12234730Y3366254D01*
X12227232D01*
X12124117Y3361256D02*
X12126617Y3358757D01*
X12131615D01*
X12134114Y3361256D01*
Y3371253D01*
X12131615Y3373752D01*
X12126617D01*
X12124117Y3371253D01*
X12119119Y3361256D02*
X12116620Y3358757D01*
X12111621D01*
X12109122Y3361256D01*
Y3363755D01*
X12111621Y3366254D01*
X12109122Y3368754D01*
Y3371253D01*
X12111621Y3373752D01*
X12116620D01*
X12119119Y3371253D01*
Y3368754D01*
X12116620Y3366254D01*
X12119119Y3363755D01*
Y3361256D01*
X12116620Y3366254D02*
X12111621D01*
X12008506Y3361256D02*
X12011006Y3358757D01*
X12016004D01*
X12018503Y3361256D01*
Y3371253D01*
X12016004Y3373752D01*
X12011006D01*
X12008506Y3371253D01*
X12003508Y3358757D02*
X11993511D01*
Y3361256D01*
X12003508Y3371253D01*
Y3373752D01*
X7531752Y8338206D02*
X7536751D01*
X7534251D01*
Y8323211D01*
X7531752D01*
X7536751D01*
X7554245Y8335707D02*
X7551746Y8338206D01*
X7546747D01*
X7544248Y8335707D01*
Y8325710D01*
X7546747Y8323211D01*
X7551746D01*
X7554245Y8325710D01*
X7559243Y8335707D02*
X7561743Y8338206D01*
X7566741D01*
X7569240Y8335707D01*
Y8333208D01*
X7566741Y8330709D01*
X7564242D01*
X7566741D01*
X7569240Y8328210D01*
Y8325710D01*
X7566741Y8323211D01*
X7561743D01*
X7559243Y8325710D01*
X7574239Y8335707D02*
X7576738Y8338206D01*
X7581736D01*
X7584235Y8335707D01*
Y8325710D01*
X7581736Y8323211D01*
X7576738D01*
X7574239Y8325710D01*
Y8335707D01*
X7589234Y8323211D02*
X7594232D01*
X7591733D01*
Y8338206D01*
X7589234Y8335707D01*
X7854870Y9587536D02*
X7852371Y9585037D01*
Y9580039D01*
X7854870Y9577539D01*
X7864867D01*
X7867366Y9580039D01*
Y9585037D01*
X7864867Y9587536D01*
X7852371Y9600032D02*
Y9595034D01*
X7854870Y9592534D01*
X7864867D01*
X7867366Y9595034D01*
Y9600032D01*
X7864867Y9602531D01*
X7854870D01*
X7852371Y9600032D01*
X7854870Y9607530D02*
X7852371Y9610029D01*
Y9615027D01*
X7854870Y9617526D01*
X7857369D01*
X7859868Y9615027D01*
Y9612528D01*
Y9615027D01*
X7862368Y9617526D01*
X7864867D01*
X7867366Y9615027D01*
Y9610029D01*
X7864867Y9607530D01*
X7852371Y9632522D02*
Y9622525D01*
X7859868D01*
X7857369Y9627523D01*
Y9630022D01*
X7859868Y9632522D01*
X7864867D01*
X7867366Y9630022D01*
Y9625024D01*
X7864867Y9622525D01*
X7867366Y9645018D02*
X7852371D01*
X7859868Y9637520D01*
Y9647517D01*
X7880828Y9069496D02*
X7878329Y9066997D01*
Y9061999D01*
X7880828Y9059499D01*
X7890825D01*
X7893324Y9061999D01*
Y9066997D01*
X7890825Y9069496D01*
X7878329Y9081992D02*
Y9076994D01*
X7880828Y9074495D01*
X7890825D01*
X7893324Y9076994D01*
Y9081992D01*
X7890825Y9084491D01*
X7880828D01*
X7878329Y9081992D01*
X7880828Y9089490D02*
X7878329Y9091989D01*
Y9096987D01*
X7880828Y9099487D01*
X7883328D01*
X7885827Y9096987D01*
Y9094488D01*
Y9096987D01*
X7888326Y9099487D01*
X7890825D01*
X7893324Y9096987D01*
Y9091989D01*
X7890825Y9089490D01*
X7878329Y9114482D02*
Y9104485D01*
X7885827D01*
X7883328Y9109483D01*
Y9111983D01*
X7885827Y9114482D01*
X7890825D01*
X7893324Y9111983D01*
Y9106984D01*
X7890825Y9104485D01*
X7880828Y9119480D02*
X7878329Y9121979D01*
Y9126978D01*
X7880828Y9129477D01*
X7883328D01*
X7885827Y9126978D01*
Y9124479D01*
Y9126978D01*
X7888326Y9129477D01*
X7890825D01*
X7893324Y9126978D01*
Y9121979D01*
X7890825Y9119480D01*
X7854870Y10768638D02*
X7852371Y10766139D01*
Y10761141D01*
X7854870Y10758642D01*
X7864867D01*
X7867366Y10761141D01*
Y10766139D01*
X7864867Y10768638D01*
X7852371Y10781135D02*
Y10776136D01*
X7854870Y10773637D01*
X7864867D01*
X7867366Y10776136D01*
Y10781135D01*
X7864867Y10783634D01*
X7854870D01*
X7852371Y10781135D01*
X7854870Y10788632D02*
X7852371Y10791131D01*
Y10796130D01*
X7854870Y10798629D01*
X7857369D01*
X7859868Y10796130D01*
Y10793630D01*
Y10796130D01*
X7862368Y10798629D01*
X7864867D01*
X7867366Y10796130D01*
Y10791131D01*
X7864867Y10788632D01*
X7852371Y10813624D02*
Y10803627D01*
X7859868D01*
X7857369Y10808626D01*
Y10811125D01*
X7859868Y10813624D01*
X7864867D01*
X7867366Y10811125D01*
Y10806127D01*
X7864867Y10803627D01*
X7867366Y10828619D02*
Y10818622D01*
X7857369Y10828619D01*
X7854870D01*
X7852371Y10826120D01*
Y10821122D01*
X7854870Y10818622D01*
X7854870Y10178087D02*
X7852371Y10175588D01*
Y10170590D01*
X7854870Y10168091D01*
X7864867D01*
X7867366Y10170590D01*
Y10175588D01*
X7864867Y10178087D01*
X7852371Y10190583D02*
Y10185585D01*
X7854870Y10183086D01*
X7864867D01*
X7867366Y10185585D01*
Y10190583D01*
X7864867Y10193083D01*
X7854870D01*
X7852371Y10190583D01*
X7854870Y10198081D02*
X7852371Y10200580D01*
Y10205578D01*
X7854870Y10208078D01*
X7857369D01*
X7859868Y10205578D01*
Y10203079D01*
Y10205578D01*
X7862368Y10208078D01*
X7864867D01*
X7867366Y10205578D01*
Y10200580D01*
X7864867Y10198081D01*
X7852371Y10223073D02*
Y10213076D01*
X7859868D01*
X7857369Y10218075D01*
Y10220574D01*
X7859868Y10223073D01*
X7864867D01*
X7867366Y10220574D01*
Y10215575D01*
X7864867Y10213076D01*
X7867366Y10228071D02*
Y10233070D01*
Y10230570D01*
X7852371D01*
X7854870Y10228071D01*
X8763477Y5684240D02*
X8778472D01*
Y5691738D01*
X8775973Y5694237D01*
X8765976D01*
X8763477Y5691738D01*
Y5684240D01*
X8778472Y5699236D02*
Y5704234D01*
Y5701735D01*
X8763477D01*
X8765976Y5699236D01*
X8778472Y5711732D02*
Y5716730D01*
Y5714231D01*
X8763477D01*
X8765976Y5711732D01*
X8763477Y5734224D02*
X8765976Y5729226D01*
X8770974Y5724228D01*
X8775973D01*
X8778472Y5726727D01*
Y5731725D01*
X8775973Y5734224D01*
X8773473D01*
X8770974Y5731725D01*
Y5724228D01*
X7857965Y5684240D02*
X7872960D01*
Y5691738D01*
X7870461Y5694237D01*
X7860464D01*
X7857965Y5691738D01*
Y5684240D01*
X7872960Y5699236D02*
Y5704234D01*
Y5701735D01*
X7857965D01*
X7860464Y5699236D01*
X7872960Y5711732D02*
Y5716730D01*
Y5714231D01*
X7857965D01*
X7860464Y5711732D01*
X7872960Y5731725D02*
X7857965D01*
X7865462Y5724228D01*
Y5734224D01*
X8330406Y5684240D02*
X8345401D01*
Y5691738D01*
X8342902Y5694237D01*
X8332905D01*
X8330406Y5691738D01*
Y5684240D01*
X8345401Y5699235D02*
Y5704234D01*
Y5701735D01*
X8330406D01*
X8332905Y5699235D01*
X8345401Y5711731D02*
Y5716730D01*
Y5714231D01*
X8330406D01*
X8332905Y5711731D01*
X8345401Y5734224D02*
Y5724227D01*
X8335404Y5734224D01*
X8332905D01*
X8330406Y5731725D01*
Y5726727D01*
X8332905Y5724227D01*
X7424894Y5681741D02*
X7439889D01*
Y5689239D01*
X7437390Y5691738D01*
X7427393D01*
X7424894Y5689239D01*
Y5681741D01*
X7439889Y5696736D02*
Y5701735D01*
Y5699235D01*
X7424894D01*
X7427393Y5696736D01*
Y5709232D02*
X7424894Y5711731D01*
Y5716730D01*
X7427393Y5719229D01*
X7437390D01*
X7439889Y5716730D01*
Y5711731D01*
X7437390Y5709232D01*
X7427393D01*
X7437390Y5724227D02*
X7439889Y5726727D01*
Y5731725D01*
X7437390Y5734224D01*
X7427393D01*
X7424894Y5731725D01*
Y5726727D01*
X7427393Y5724227D01*
X7429892D01*
X7432391Y5726727D01*
Y5734224D01*
X8372029Y5455215D02*
X8377027D01*
X8374528D01*
Y5440219D01*
X8372029D01*
X8377027D01*
X8394522Y5452715D02*
X8392022Y5455215D01*
X8387024D01*
X8384525Y5452715D01*
Y5442719D01*
X8387024Y5440219D01*
X8392022D01*
X8394522Y5442719D01*
X8399520Y5440219D02*
X8404518D01*
X8402019D01*
Y5455215D01*
X8399520Y5452715D01*
X8412016D02*
X8414515Y5455215D01*
X8419513D01*
X8422013Y5452715D01*
Y5442719D01*
X8419513Y5440219D01*
X8414515D01*
X8412016Y5442719D01*
Y5452715D01*
X8427011Y5455215D02*
X8437008D01*
Y5452715D01*
X8427011Y5442719D01*
Y5440219D01*
X8805100Y5455215D02*
X8810098D01*
X8807599D01*
Y5440219D01*
X8805100D01*
X8810098D01*
X8827592Y5452715D02*
X8825093Y5455215D01*
X8820095D01*
X8817596Y5452715D01*
Y5442719D01*
X8820095Y5440219D01*
X8825093D01*
X8827592Y5442719D01*
X8832591Y5440219D02*
X8837589D01*
X8835090D01*
Y5455215D01*
X8832591Y5452715D01*
X8845087D02*
X8847586Y5455215D01*
X8852584D01*
X8855084Y5452715D01*
Y5442719D01*
X8852584Y5440219D01*
X8847586D01*
X8845087Y5442719D01*
Y5452715D01*
X8860082D02*
X8862581Y5455215D01*
X8867580D01*
X8870079Y5452715D01*
Y5450216D01*
X8867580Y5447717D01*
X8870079Y5445218D01*
Y5442719D01*
X8867580Y5440219D01*
X8862581D01*
X8860082Y5442719D01*
Y5445218D01*
X8862581Y5447717D01*
X8860082Y5450216D01*
Y5452715D01*
X8862581Y5447717D02*
X8867580D01*
X7899588Y5455215D02*
X7904586D01*
X7902087D01*
Y5440219D01*
X7899588D01*
X7904586D01*
X7922080Y5452715D02*
X7919581Y5455215D01*
X7914583D01*
X7912084Y5452715D01*
Y5442719D01*
X7914583Y5440219D01*
X7919581D01*
X7922080Y5442719D01*
X7927079Y5440219D02*
X7932077D01*
X7929578D01*
Y5455215D01*
X7927079Y5452715D01*
X7939575D02*
X7942074Y5455215D01*
X7947072D01*
X7949572Y5452715D01*
Y5442719D01*
X7947072Y5440219D01*
X7942074D01*
X7939575Y5442719D01*
Y5452715D01*
X7962068Y5440219D02*
Y5455215D01*
X7954570Y5447717D01*
X7964567D01*
X7469016Y5455215D02*
X7474015D01*
X7471515D01*
Y5440219D01*
X7469016D01*
X7474015D01*
X7491509Y5452715D02*
X7489010Y5455215D01*
X7484011D01*
X7481512Y5452715D01*
Y5442719D01*
X7484011Y5440219D01*
X7489010D01*
X7491509Y5442719D01*
X7496507Y5440219D02*
X7501506D01*
X7499007D01*
Y5455215D01*
X7496507Y5452715D01*
X7509003D02*
X7511502Y5455215D01*
X7516501D01*
X7519000Y5452715D01*
Y5442719D01*
X7516501Y5440219D01*
X7511502D01*
X7509003Y5442719D01*
Y5452715D01*
X7523998Y5440219D02*
X7528997D01*
X7526498D01*
Y5455215D01*
X7523998Y5452715D01*
X8173396Y7101322D02*
X8176930Y7104856D01*
X8175163Y7103089D01*
X8185766Y7092486D01*
X8183999Y7090719D01*
X8187533Y7094253D01*
X8191068Y7115459D02*
X8187533D01*
X8183999Y7111925D01*
Y7108391D01*
X8191068Y7101322D01*
X8194602D01*
X8198137Y7104856D01*
Y7108391D01*
X8210507Y7117227D02*
X8203438Y7110158D01*
Y7124296D01*
X8201671Y7126063D01*
X8198137D01*
X8194602Y7122528D01*
Y7118994D01*
X8205205Y7129597D02*
Y7133132D01*
X8208740Y7136666D01*
X8212274D01*
X8214041Y7134899D01*
Y7131364D01*
X8212274Y7129597D01*
X8214041Y7131364D01*
X8217576D01*
X8219343Y7129597D01*
Y7126063D01*
X8215809Y7122528D01*
X8212274D01*
X8224645Y7131364D02*
X8228179Y7134899D01*
X8226412Y7133132D01*
X8215809Y7143735D01*
Y7140200D01*
X7267884Y7101322D02*
X7271418Y7104856D01*
X7269651Y7103089D01*
X7280254Y7092486D01*
X7278487Y7090719D01*
X7282022Y7094253D01*
X7285556Y7115459D02*
X7282022D01*
X7278487Y7111925D01*
Y7108391D01*
X7285556Y7101322D01*
X7289090D01*
X7292625Y7104856D01*
Y7108391D01*
X7304995Y7117227D02*
X7297926Y7110158D01*
Y7124296D01*
X7296159Y7126063D01*
X7292625D01*
X7289090Y7122528D01*
Y7118994D01*
X7299694Y7129597D02*
Y7133132D01*
X7303228Y7136666D01*
X7306762D01*
X7313831Y7129597D01*
Y7126063D01*
X7310297Y7122528D01*
X7306762D01*
X7299694Y7129597D01*
X7319133Y7131364D02*
X7322667Y7134899D01*
X7320900Y7133132D01*
X7310297Y7143735D01*
Y7140200D01*
D93*
X10007877Y4669288D02*
D03*
X10559059Y4669287D02*
D03*
X11110240D02*
D03*
X11661421Y4669288D02*
D03*
D94*
X9992126Y4653542D02*
D03*
X10543307Y4653541D02*
D03*
X11094488Y4653540D02*
D03*
X11645669Y4653537D02*
D03*
X8122047Y8625984D02*
D03*
X7334646Y10240158D02*
D03*
X7334646Y9649606D02*
D03*
X7531496Y9059055D02*
D03*
X8787402Y5547244D02*
D03*
X8354331D02*
D03*
X7881890D02*
D03*
X7448819D02*
D03*
D97*
X7337106Y10100886D02*
D03*
Y9510335D02*
D03*
X7533957Y8998524D02*
D03*
X8124508Y8486713D02*
D03*
X8784941Y5686516D02*
D03*
X7879429D02*
D03*
X8351870D02*
D03*
X7446358D02*
D03*
D133*
X12167323Y4820866D02*
X12360236D01*
X12167323Y4706693D02*
X12360236D01*
X12167323D02*
Y4820866D01*
X12360236Y4706693D02*
Y4820866D01*
X12372780Y4828779D02*
X12376780D01*
X12372780D02*
Y4832779D01*
X12376780D01*
Y4829779D02*
Y4832779D01*
X14667323Y3683071D02*
X14860236D01*
X14667323Y3797244D02*
X14860236D01*
Y3683071D02*
Y3797244D01*
X14667323Y3683071D02*
Y3797244D01*
X14650780Y3675157D02*
X14654780D01*
Y3671157D02*
Y3675157D01*
X14650780Y3671157D02*
X14654780D01*
X14650780D02*
Y3674157D01*
X13683071Y3683071D02*
X13875984D01*
X13683071Y3797244D02*
X13875984D01*
Y3683071D02*
Y3797244D01*
X13683071Y3683071D02*
Y3797244D01*
X13666528Y3675157D02*
X13670528D01*
Y3671157D02*
Y3675157D01*
X13666528Y3671157D02*
X13670528D01*
X13666528D02*
Y3674157D01*
X13683071Y4509842D02*
X13875984D01*
X13683071Y4624016D02*
X13875984D01*
Y4509842D02*
Y4624016D01*
X13683071Y4509842D02*
Y4624016D01*
X13666528Y4501929D02*
X13670528D01*
Y4497929D02*
Y4501929D01*
X13666528Y4497929D02*
X13670528D01*
X13666528D02*
Y4500929D01*
X6551742Y4875984D02*
X6744656D01*
X6551742Y4761811D02*
X6744656D01*
X6551742D02*
Y4875984D01*
X6744656Y4761811D02*
Y4875984D01*
X6757199Y4883898D02*
X6761199D01*
X6757199D02*
Y4887898D01*
X6761199D01*
Y4884898D02*
Y4887898D01*
D134*
X803307Y4991575D02*
D03*
X7185598Y11578573D02*
D03*
X14858425Y4991575D02*
D03*
X8956142Y11098571D02*
D03*
D135*
X6259843Y3897638D02*
D03*
D136*
X12687008Y3730315D02*
D03*
X12722441Y3694882D02*
D03*
D137*
X8203743Y10792320D02*
D03*
Y10201769D02*
D03*
Y9611218D02*
D03*
Y9020666D02*
D03*
D138*
X7586614Y8362205D02*
D03*
X7578740Y8370079D02*
D03*
D139*
X8205666Y7083830D02*
D03*
X8216801Y7083830D02*
D03*
X7300154Y7083830D02*
D03*
X7311289Y7083830D02*
D03*
%TF.MD5,e5c8ca81e69c24e99bf657538cb82e6f*%
M02*
