%TF.GenerationSoftware,Altium Limited,Altium Designer,22.5.1 (42)*%
G04 Layer_Color=0*
%FSLAX26Y26*%
%MOIN*%
%TF.SameCoordinates,79F18A81-A5BF-4171-AD75-6FA3A7A6B408*%
%TF.FilePolarity,Positive*%
%TF.FileFunction,Plated,6,8,Blind,Drill*%
%TF.Part,Single*%
G01*
G75*
%TA.AperFunction,ViaDrill,NotFilled*%
%ADD167C,0.003937*%
%ADD171C,0.005906*%
D167*
X9267717Y3867126D02*
D03*
X9240157D02*
D03*
X9206693D02*
D03*
X9176181D02*
D03*
X7336614Y5346457D02*
D03*
X7336614Y5088583D02*
D03*
X7769685Y5346457D02*
D03*
X7769685Y5088583D02*
D03*
X8242126Y5346457D02*
D03*
X8242126Y5088583D02*
D03*
X8675197D02*
D03*
X8675197Y5346457D02*
D03*
X8663386Y3772638D02*
D03*
X8230315D02*
D03*
X7757874D02*
D03*
X7324803D02*
D03*
X7477362Y4202756D02*
D03*
X7910433D02*
D03*
X8382874D02*
D03*
X8815945D02*
D03*
X7982283Y8280512D02*
D03*
X8776575Y4163386D02*
D03*
Y4183071D02*
D03*
X8703740Y4163386D02*
D03*
Y4183071D02*
D03*
X8343504Y4163386D02*
D03*
Y4183071D02*
D03*
X8270669Y4163386D02*
D03*
Y4183071D02*
D03*
X7871063Y4163386D02*
D03*
Y4183071D02*
D03*
X7798228Y4163386D02*
D03*
Y4183071D02*
D03*
X8703740Y4104331D02*
D03*
Y4084646D02*
D03*
Y4242126D02*
D03*
Y4261811D02*
D03*
X8270669Y4104331D02*
D03*
Y4084646D02*
D03*
Y4242126D02*
D03*
Y4261811D02*
D03*
X7798228Y4104331D02*
D03*
Y4084646D02*
D03*
Y4242126D02*
D03*
Y4261811D02*
D03*
X8494094Y5088583D02*
D03*
X8478346D02*
D03*
X8061024D02*
D03*
X8045276D02*
D03*
X7155512D02*
D03*
X7139764D02*
D03*
X7572835D02*
D03*
X7588583D02*
D03*
X8703740Y4773622D02*
D03*
Y4753937D02*
D03*
X8776575Y4773622D02*
D03*
Y4753937D02*
D03*
X8545709Y5089567D02*
D03*
X8561457D02*
D03*
X8270669Y4773622D02*
D03*
Y4753937D02*
D03*
X8343504Y4773622D02*
D03*
Y4753937D02*
D03*
X8112638Y5089567D02*
D03*
X8128386D02*
D03*
X7798228Y4773622D02*
D03*
Y4753937D02*
D03*
X7871063Y4773622D02*
D03*
Y4753937D02*
D03*
X7640197Y5089567D02*
D03*
X7655945D02*
D03*
X7222874D02*
D03*
X7207126D02*
D03*
X7365158Y4183071D02*
D03*
Y4163386D02*
D03*
X7437992Y4183071D02*
D03*
Y4163386D02*
D03*
X7365158Y4261811D02*
D03*
Y4242126D02*
D03*
Y4084646D02*
D03*
Y4104331D02*
D03*
X8776575Y4832677D02*
D03*
Y4852362D02*
D03*
Y4675197D02*
D03*
Y4694882D02*
D03*
X8692914Y5502854D02*
D03*
Y5520768D02*
D03*
X8551181D02*
D03*
Y5502854D02*
D03*
X8343504Y4832677D02*
D03*
Y4852362D02*
D03*
Y4675197D02*
D03*
Y4694882D02*
D03*
X8259843Y5502854D02*
D03*
Y5520768D02*
D03*
X8118110D02*
D03*
Y5502854D02*
D03*
X7871063Y4832677D02*
D03*
Y4852362D02*
D03*
Y4675197D02*
D03*
Y4694882D02*
D03*
X7787402Y5502854D02*
D03*
Y5520768D02*
D03*
X7645669D02*
D03*
Y5502854D02*
D03*
X7212598D02*
D03*
Y5520768D02*
D03*
X7354331D02*
D03*
Y5502854D02*
D03*
X7437992Y4694882D02*
D03*
Y4675197D02*
D03*
Y4852362D02*
D03*
Y4832677D02*
D03*
X8636713Y5574803D02*
D03*
X8654626D02*
D03*
X8583563Y5668307D02*
D03*
X8601477D02*
D03*
X8203642Y5574803D02*
D03*
X8221555D02*
D03*
X8150492Y5668307D02*
D03*
X8168406D02*
D03*
X7731201Y5574803D02*
D03*
X7749114D02*
D03*
X7678051Y5668307D02*
D03*
X7695965D02*
D03*
X7262894D02*
D03*
X7244980D02*
D03*
X7316043Y5574803D02*
D03*
X7298130D02*
D03*
X7437992Y4753937D02*
D03*
Y4773622D02*
D03*
X7365158Y4753937D02*
D03*
Y4773622D02*
D03*
D171*
X9931102Y3690945D02*
D03*
X9379921D02*
D03*
X10482283D02*
D03*
X11033465D02*
D03*
X9153543Y3753937D02*
D03*
Y3716535D02*
D03*
Y3683071D02*
D03*
Y3787402D02*
D03*
X8799213D02*
D03*
Y3683071D02*
D03*
Y3716535D02*
D03*
Y3753937D02*
D03*
%TF.MD5,81e34ca27604b87efbf00466935e1a9e*%
M02*
