%TF.GenerationSoftware,Altium Limited,Altium Designer,22.5.1 (42)*%
G04 Layer_Color=128*
%FSLAX26Y26*%
%MOIN*%
%TF.SameCoordinates,79F18A81-A5BF-4171-AD75-6FA3A7A6B408*%
%TF.FilePolarity,Positive*%
%TF.FileFunction,Drillmap*%
%TF.Part,Single*%
G01*
G75*
%TA.AperFunction,NonConductor*%
%ADD174C,0.005000*%
D174*
X7799213Y11160433D02*
X7803150D01*
X7801181Y11158465D02*
Y11162402D01*
X7187992Y8513779D02*
X7191929D01*
X7189961Y8511811D02*
Y8515748D01*
X7187992Y8533465D02*
X7191929D01*
X7189961Y8531496D02*
Y8535433D01*
X7187992Y8553149D02*
X7191929D01*
X7189961Y8551181D02*
Y8555118D01*
X7187992Y8572835D02*
X7191929D01*
X7189961Y8570866D02*
Y8574803D01*
X8638215Y7220053D02*
X8642152D01*
X8640184Y7218084D02*
Y7222021D01*
X7732703Y7220053D02*
X7736640D01*
X7734672Y7218084D02*
Y7222021D01*
X7179626Y5688976D02*
X7183563D01*
X7181595Y5687008D02*
Y5690945D01*
X7195374Y5688976D02*
X7199311D01*
X7197343Y5687008D02*
Y5690945D01*
X7612697Y5688976D02*
X7616634D01*
X7614666Y5687008D02*
Y5690945D01*
X7628445Y5688976D02*
X7632382D01*
X7630413Y5687008D02*
Y5690945D01*
X8085138Y5688976D02*
X8089075D01*
X8087106Y5687008D02*
Y5690945D01*
X8100886Y5688976D02*
X8104823D01*
X8102854Y5687008D02*
Y5690945D01*
X7396654Y5965551D02*
X7400591D01*
X7398622Y5963583D02*
Y5967520D01*
X7380905Y5965551D02*
X7384842D01*
X7382874Y5963583D02*
Y5967520D01*
X7829724Y5965551D02*
X7833661D01*
X7831693Y5963583D02*
Y5967520D01*
X7813976Y5965551D02*
X7817913D01*
X7815945Y5963583D02*
Y5967520D01*
X8286417Y5965551D02*
X8290354D01*
X8288386Y5963583D02*
Y5967520D01*
X8302165Y5965551D02*
X8306102D01*
X8304134Y5963583D02*
Y5967520D01*
X8533957Y5688976D02*
X8537894D01*
X8535925Y5687008D02*
Y5690945D01*
X8518209Y5688976D02*
X8522146D01*
X8520177Y5687008D02*
Y5690945D01*
X8735236Y5965551D02*
X8739173D01*
X8737205Y5963583D02*
Y5967520D01*
X8719488Y5965551D02*
X8723425D01*
X8721457Y5963583D02*
Y5967520D01*
X8814961Y5395669D02*
X8818898D01*
X8816929Y5393701D02*
Y5397638D01*
X8797047Y5395669D02*
X8800984D01*
X8799016Y5393701D02*
Y5397638D01*
X8851280Y5395669D02*
X8855217D01*
X8853248Y5393701D02*
Y5397638D01*
X8869193Y5395669D02*
X8873130D01*
X8871162Y5393701D02*
Y5397638D01*
X8381890Y5395669D02*
X8385827D01*
X8383858Y5393701D02*
Y5397638D01*
X8363976Y5395669D02*
X8367913D01*
X8365945Y5393701D02*
Y5397638D01*
X8418209Y5395669D02*
X8422146D01*
X8420177Y5393701D02*
Y5397638D01*
X8436122Y5395669D02*
X8440059D01*
X8438091Y5393701D02*
Y5397638D01*
X7909449Y5395669D02*
X7913386D01*
X7911417Y5393701D02*
Y5397638D01*
X7891535Y5395669D02*
X7895472D01*
X7893504Y5393701D02*
Y5397638D01*
X7945768Y5395669D02*
X7949705D01*
X7947736Y5393701D02*
Y5397638D01*
X7963681Y5395669D02*
X7967618D01*
X7965650Y5393701D02*
Y5397638D01*
X7530610Y5395669D02*
X7534547D01*
X7532579Y5393701D02*
Y5397638D01*
X7512697Y5395669D02*
X7516634D01*
X7514665Y5393701D02*
Y5397638D01*
X7458464Y5395669D02*
X7462401D01*
X7460433Y5393701D02*
Y5397638D01*
X7476378Y5395669D02*
X7480315D01*
X7478346Y5393701D02*
Y5397638D01*
%TF.MD5,9ecb2ae5c791ab7073012126b613395a*%
M02*
