%TF.GenerationSoftware,Altium Limited,Altium Designer,22.5.1 (42)*%
G04 Layer_Color=0*
%FSLAX26Y26*%
%MOIN*%
%TF.SameCoordinates,79F18A81-A5BF-4171-AD75-6FA3A7A6B408*%
%TF.FilePolarity,Positive*%
%TF.FileFunction,Plated,1,3,Blind,Drill*%
%TF.Part,Single*%
G01*
G75*
%TA.AperFunction,ViaDrill,NotFilled*%
%ADD167C,0.003937*%
%ADD169C,0.007874*%
%ADD171C,0.005906*%
%ADD172C,0.011811*%
D167*
X10436024Y4441929D02*
D03*
X10468504Y4454646D02*
D03*
X8785433Y5346457D02*
D03*
X8352362D02*
D03*
X7446851D02*
D03*
X7879921D02*
D03*
X8078740Y8836614D02*
D03*
X8062992D02*
D03*
X8080709Y9061811D02*
D03*
X8061024D02*
D03*
X8080709Y9127165D02*
D03*
X8061024D02*
D03*
X8023622Y8398622D02*
D03*
X8007874D02*
D03*
X8133858D02*
D03*
X8118110D02*
D03*
X7635827Y8555118D02*
D03*
Y8570866D02*
D03*
X7510827Y8911417D02*
D03*
Y8895669D02*
D03*
X7266732Y9969488D02*
D03*
Y9953740D02*
D03*
X7184055Y9969488D02*
D03*
Y9953740D02*
D03*
X8186023Y8868110D02*
D03*
X8170275D02*
D03*
X8001968Y9127165D02*
D03*
X7982283D02*
D03*
X8159449D02*
D03*
X8139764D02*
D03*
X7971457Y8868110D02*
D03*
X7955709D02*
D03*
X8022638Y9307087D02*
D03*
Y9291339D02*
D03*
X7829724Y9445374D02*
D03*
Y9429626D02*
D03*
X8139764Y9717717D02*
D03*
X8159449D02*
D03*
X7982283D02*
D03*
X8001968D02*
D03*
X8139764Y10898819D02*
D03*
X8159449D02*
D03*
X7957677Y10473917D02*
D03*
Y10489665D02*
D03*
X7942913Y10644685D02*
D03*
Y10660433D02*
D03*
X7982283Y10898819D02*
D03*
X8001968D02*
D03*
Y10308268D02*
D03*
X7982283D02*
D03*
X7942913Y10069882D02*
D03*
Y10054134D02*
D03*
X7957677Y9899114D02*
D03*
Y9883366D02*
D03*
X8159449Y10308268D02*
D03*
X8139764D02*
D03*
X7317421Y9370079D02*
D03*
X7301673D02*
D03*
X7214075Y9153543D02*
D03*
X7198327D02*
D03*
X8062992Y9496063D02*
D03*
X8078740D02*
D03*
X8062992Y10086614D02*
D03*
X8078740D02*
D03*
Y10677165D02*
D03*
X8062992D02*
D03*
X965551Y4695866D02*
D03*
X8061024Y9717717D02*
D03*
X8080709D02*
D03*
X8061024Y9652362D02*
D03*
X8080709D02*
D03*
X8061024Y10308268D02*
D03*
X8080709D02*
D03*
X8061024Y10242913D02*
D03*
X8080709D02*
D03*
X7531496Y8771654D02*
D03*
X7547244D02*
D03*
X7409449Y8770669D02*
D03*
X7393701D02*
D03*
X8080709Y10833465D02*
D03*
X8061024D02*
D03*
X8080709Y10898819D02*
D03*
X8061024D02*
D03*
X7770177Y8658465D02*
D03*
X7754429D02*
D03*
X8626264Y7233972D02*
D03*
X8612345Y7247891D02*
D03*
X8598425Y7261811D02*
D03*
X7720752Y7233972D02*
D03*
X7706833Y7247891D02*
D03*
X7692913Y7261811D02*
D03*
X6565945Y4677165D02*
D03*
Y4564961D02*
D03*
X8762795Y5502854D02*
D03*
Y5520768D02*
D03*
X8914370D02*
D03*
Y5502854D02*
D03*
X8329724D02*
D03*
Y5520768D02*
D03*
X8481299D02*
D03*
Y5502854D02*
D03*
X7857283D02*
D03*
Y5520768D02*
D03*
X8008858D02*
D03*
Y5502854D02*
D03*
X7575787D02*
D03*
Y5520768D02*
D03*
X7424213D02*
D03*
Y5502854D02*
D03*
X8806004Y5574803D02*
D03*
X8823917D02*
D03*
X8859154Y5666339D02*
D03*
X8877067D02*
D03*
X8372933Y5574803D02*
D03*
X8390846D02*
D03*
X8426083Y5666339D02*
D03*
X8443996D02*
D03*
X7900492Y5574803D02*
D03*
X7918405D02*
D03*
X7953642Y5666339D02*
D03*
X7971555D02*
D03*
X7538484D02*
D03*
X7520571D02*
D03*
X7485335Y5574803D02*
D03*
X7467421D02*
D03*
D169*
X14114173Y4133858D02*
D03*
X12145669Y3710630D02*
D03*
D171*
X9153543Y3716535D02*
D03*
X8799213D02*
D03*
X9153543Y3787402D02*
D03*
Y3683071D02*
D03*
Y3753937D02*
D03*
X8799213D02*
D03*
Y3683071D02*
D03*
Y3787402D02*
D03*
D172*
X6968504Y4855315D02*
D03*
X14383858Y3562992D02*
D03*
X13399606Y4389763D02*
D03*
Y3562992D02*
D03*
%TF.MD5,d6ada0008f833219aa411fb47ddcdb1f*%
M02*
