%TF.GenerationSoftware,Altium Limited,Altium Designer,22.5.1 (42)*%
G04 Layer_Color=8388736*
%FSLAX26Y26*%
%MOIN*%
%TF.SameCoordinates,3C46EB80-FEDE-48F7-A63F-DE7BBD85CC47*%
%TF.FilePolarity,Negative*%
%TF.FileFunction,Soldermask,Top*%
%TF.Part,Single*%
G01*
G75*
%TA.AperFunction,SMDPad,CuDef*%
%ADD13R,0.035433X0.033465*%
%ADD14R,0.023622X0.023622*%
%ADD15R,0.049213X0.039370*%
%ADD16R,0.023622X0.023622*%
%ADD19R,0.039370X0.070866*%
%ADD20R,0.043307X0.094488*%
%ADD21R,0.039370X0.049213*%
%ADD22R,0.220472X0.106299*%
%ADD23R,0.094488X0.043307*%
%ADD29P,0.033407X4X360.0*%
%ADD35R,0.033465X0.035433*%
G04:AMPARAMS|DCode=36|XSize=39.37mil|YSize=49.213mil|CornerRadius=0mil|HoleSize=0mil|Usage=FLASHONLY|Rotation=45.000|XOffset=0mil|YOffset=0mil|HoleType=Round|Shape=Rectangle|*
%AMROTATEDRECTD36*
4,1,4,0.003480,-0.031319,-0.031319,0.003480,-0.003480,0.031319,0.031319,-0.003480,0.003480,-0.031319,0.0*
%
%ADD36ROTATEDRECTD36*%

%ADD39R,0.070866X0.039370*%
%ADD102R,0.015874X0.031622*%
%ADD103R,0.068236X0.115087*%
%ADD104R,0.115087X0.115087*%
%ADD105R,0.031622X0.017843*%
%ADD106R,0.031622X0.015874*%
%ADD107R,0.035165X0.019024*%
%ADD108R,0.019024X0.035165*%
%ADD110R,0.015874X0.026701*%
G04:AMPARAMS|DCode=112|XSize=15.874mil|YSize=19.811mil|CornerRadius=4.984mil|HoleSize=0mil|Usage=FLASHONLY|Rotation=90.000|XOffset=0mil|YOffset=0mil|HoleType=Round|Shape=RoundedRectangle|*
%AMROUNDEDRECTD112*
21,1,0.015874,0.009843,0,0,90.0*
21,1,0.005906,0.019811,0,0,90.0*
1,1,0.009968,0.004921,0.002953*
1,1,0.009968,0.004921,-0.002953*
1,1,0.009968,-0.004921,-0.002953*
1,1,0.009968,-0.004921,0.002953*
%
%ADD112ROUNDEDRECTD112*%
G04:AMPARAMS|DCode=113|XSize=15.874mil|YSize=19.811mil|CornerRadius=4.984mil|HoleSize=0mil|Usage=FLASHONLY|Rotation=0.000|XOffset=0mil|YOffset=0mil|HoleType=Round|Shape=RoundedRectangle|*
%AMROUNDEDRECTD113*
21,1,0.015874,0.009843,0,0,0.0*
21,1,0.005906,0.019811,0,0,0.0*
1,1,0.009968,0.002953,-0.004921*
1,1,0.009968,-0.002953,-0.004921*
1,1,0.009968,-0.002953,0.004921*
1,1,0.009968,0.002953,0.004921*
%
%ADD113ROUNDEDRECTD113*%
G04:AMPARAMS|DCode=114|XSize=47.37mil|YSize=63.118mil|CornerRadius=4.984mil|HoleSize=0mil|Usage=FLASHONLY|Rotation=180.000|XOffset=0mil|YOffset=0mil|HoleType=Round|Shape=RoundedRectangle|*
%AMROUNDEDRECTD114*
21,1,0.047370,0.053150,0,0,180.0*
21,1,0.037402,0.063118,0,0,180.0*
1,1,0.009968,-0.018701,0.026575*
1,1,0.009968,0.018701,0.026575*
1,1,0.009968,0.018701,-0.026575*
1,1,0.009968,-0.018701,-0.026575*
%
%ADD114ROUNDEDRECTD114*%
%TA.AperFunction,Conductor*%
%ADD116R,0.031622X0.018827*%
%ADD117R,0.018827X0.053276*%
%TA.AperFunction,ComponentPad*%
%ADD118C,0.086740*%
%ADD119R,0.086740X0.086740*%
%ADD120C,0.244220*%
%ADD121C,0.051307*%
G04:AMPARAMS|DCode=122|XSize=59.181mil|YSize=47.37mil|CornerRadius=13.842mil|HoleSize=0mil|Usage=FLASHONLY|Rotation=90.000|XOffset=0mil|YOffset=0mil|HoleType=Round|Shape=RoundedRectangle|*
%AMROUNDEDRECTD122*
21,1,0.059181,0.019685,0,0,90.0*
21,1,0.031496,0.047370,0,0,90.0*
1,1,0.027685,0.009843,0.015748*
1,1,0.027685,0.009843,-0.015748*
1,1,0.027685,-0.009843,-0.015748*
1,1,0.027685,-0.009843,0.015748*
%
%ADD122ROUNDEDRECTD122*%
G04:AMPARAMS|DCode=123|XSize=98.551mil|YSize=47.37mil|CornerRadius=13.842mil|HoleSize=0mil|Usage=FLASHONLY|Rotation=90.000|XOffset=0mil|YOffset=0mil|HoleType=Round|Shape=RoundedRectangle|*
%AMROUNDEDRECTD123*
21,1,0.098551,0.019685,0,0,90.0*
21,1,0.070866,0.047370,0,0,90.0*
1,1,0.027685,0.009843,0.035433*
1,1,0.027685,0.009843,-0.035433*
1,1,0.027685,-0.009843,-0.035433*
1,1,0.027685,-0.009843,0.035433*
%
%ADD123ROUNDEDRECTD123*%
G04:AMPARAMS|DCode=124|XSize=82.803mil|YSize=47.37mil|CornerRadius=13.842mil|HoleSize=0mil|Usage=FLASHONLY|Rotation=270.000|XOffset=0mil|YOffset=0mil|HoleType=Round|Shape=RoundedRectangle|*
%AMROUNDEDRECTD124*
21,1,0.082803,0.019685,0,0,270.0*
21,1,0.055118,0.047370,0,0,270.0*
1,1,0.027685,-0.009843,-0.027559*
1,1,0.027685,-0.009843,0.027559*
1,1,0.027685,0.009843,0.027559*
1,1,0.027685,0.009843,-0.027559*
%
%ADD124ROUNDEDRECTD124*%
%TA.AperFunction,ViaPad*%
%ADD125C,0.019811*%
%ADD126C,0.126110*%
%ADD127C,0.035559*%
%ADD128C,0.027685*%
%ADD129C,0.047370*%
%ADD130C,0.165480*%
%ADD131C,0.025716*%
%ADD132C,0.021779*%
%TA.AperFunction,SMDPad,CuDef*%
%ADD140R,0.208787X0.100520*%
%ADD141R,0.039496X0.067055*%
%ADD142R,0.145795X0.110362*%
%ADD143R,0.015748X0.015748*%
%ADD144R,0.141858X0.055244*%
%ADD145R,0.100520X0.208787*%
%TA.AperFunction,BGAPad,CuDef*%
%ADD146R,0.049732X0.049732*%
%TA.AperFunction,SMDPad,CuDef*%
G04:AMPARAMS|DCode=147|XSize=27.685mil|YSize=48.551mil|CornerRadius=0mil|HoleSize=0mil|Usage=FLASHONLY|Rotation=230.000|XOffset=0mil|YOffset=0mil|HoleType=Round|Shape=Rectangle|*
%AMROTATEDRECTD147*
4,1,4,-0.009698,0.026208,0.027494,-0.005000,0.009698,-0.026208,-0.027494,0.005000,-0.009698,0.026208,0.0*
%
%ADD147ROTATEDRECTD147*%

G04:AMPARAMS|DCode=148|XSize=27.685mil|YSize=48.551mil|CornerRadius=0mil|HoleSize=0mil|Usage=FLASHONLY|Rotation=130.000|XOffset=0mil|YOffset=0mil|HoleType=Round|Shape=Rectangle|*
%AMROTATEDRECTD148*
4,1,4,0.027494,0.005000,-0.009698,-0.026208,-0.027494,-0.005000,0.009698,0.026208,0.027494,0.005000,0.0*
%
%ADD148ROTATEDRECTD148*%

%ADD149R,0.019811X0.041465*%
%ADD150R,0.244220X0.244220*%
%ADD151P,0.345380X4X90.0*%
G04:AMPARAMS|DCode=152|XSize=19.024mil|YSize=35.165mil|CornerRadius=0mil|HoleSize=0mil|Usage=FLASHONLY|Rotation=135.000|XOffset=0mil|YOffset=0mil|HoleType=Round|Shape=Rectangle|*
%AMROTATEDRECTD152*
4,1,4,0.019159,0.005707,-0.005707,-0.019159,-0.019159,-0.005707,0.005707,0.019159,0.019159,0.005707,0.0*
%
%ADD152ROTATEDRECTD152*%

G04:AMPARAMS|DCode=153|XSize=19.024mil|YSize=35.165mil|CornerRadius=0mil|HoleSize=0mil|Usage=FLASHONLY|Rotation=225.000|XOffset=0mil|YOffset=0mil|HoleType=Round|Shape=Rectangle|*
%AMROTATEDRECTD153*
4,1,4,-0.005707,0.019159,0.019159,-0.005707,0.005707,-0.019159,-0.019159,0.005707,-0.005707,0.019159,0.0*
%
%ADD153ROTATEDRECTD153*%

%TA.AperFunction,ViaPad*%
%ADD154C,0.055244*%
D13*
X12401575Y4713583D02*
D03*
Y4656496D02*
D03*
X7923228Y7748032D02*
D03*
Y7805118D02*
D03*
X8021654D02*
D03*
Y7748032D02*
D03*
X8080709Y7805118D02*
D03*
Y7748032D02*
D03*
X7884842Y8331693D02*
D03*
Y8388780D02*
D03*
X7864173Y7815945D02*
D03*
Y7758858D02*
D03*
X14625984Y3780512D02*
D03*
Y3837598D02*
D03*
X13641732Y3780512D02*
D03*
Y3837598D02*
D03*
X13641732Y4607283D02*
D03*
Y4664370D02*
D03*
X6795837Y4788386D02*
D03*
Y4731299D02*
D03*
D14*
X12401575Y4820866D02*
D03*
Y4864173D02*
D03*
X12125984Y4706693D02*
D03*
Y4663386D02*
D03*
Y4864173D02*
D03*
Y4820866D02*
D03*
X12145669Y4588583D02*
D03*
Y4545276D02*
D03*
X8241969Y7320197D02*
D03*
Y7276890D02*
D03*
X8211969Y7320197D02*
D03*
Y7276890D02*
D03*
X8604331Y6760827D02*
D03*
Y6804134D02*
D03*
X8180118Y6918307D02*
D03*
Y6961614D02*
D03*
X8634331Y6760827D02*
D03*
Y6804134D02*
D03*
X8210118Y6918307D02*
D03*
Y6961614D02*
D03*
X8335630Y6742126D02*
D03*
Y6785433D02*
D03*
X8365630Y6742126D02*
D03*
Y6785433D02*
D03*
X7336461Y7320212D02*
D03*
Y7276905D02*
D03*
X7306461Y7320212D02*
D03*
Y7276905D02*
D03*
X7698819Y6760827D02*
D03*
Y6804134D02*
D03*
X7274606Y6918307D02*
D03*
Y6961614D02*
D03*
X7728819Y6760827D02*
D03*
Y6804134D02*
D03*
X7304606Y6918307D02*
D03*
Y6961614D02*
D03*
X7430118Y6742126D02*
D03*
Y6785433D02*
D03*
X7460118Y6742126D02*
D03*
Y6785433D02*
D03*
X7514252Y8841535D02*
D03*
Y8798228D02*
D03*
X7484252Y8841535D02*
D03*
Y8798228D02*
D03*
X7426181Y8249016D02*
D03*
Y8292323D02*
D03*
X7456181Y8249016D02*
D03*
Y8292323D02*
D03*
X14625984Y3692913D02*
D03*
Y3649606D02*
D03*
X14783465Y3935039D02*
D03*
Y3978346D02*
D03*
X14891732Y3639764D02*
D03*
Y3683071D02*
D03*
X14753937Y3978346D02*
D03*
Y3935039D02*
D03*
X13641732Y3692913D02*
D03*
Y3649606D02*
D03*
X13799213Y3935039D02*
D03*
Y3978346D02*
D03*
X13907480Y3639764D02*
D03*
Y3683071D02*
D03*
X13769685Y3978346D02*
D03*
Y3935039D02*
D03*
X13641732Y4519685D02*
D03*
Y4476378D02*
D03*
X13799213Y4761811D02*
D03*
Y4805118D02*
D03*
X13907480Y4466535D02*
D03*
Y4509842D02*
D03*
X13769685Y4805118D02*
D03*
Y4761811D02*
D03*
X6795837Y4856299D02*
D03*
Y4899606D02*
D03*
X6599971Y4529527D02*
D03*
Y4486220D02*
D03*
Y4608268D02*
D03*
Y4564961D02*
D03*
X6518278Y4917323D02*
D03*
Y4874016D02*
D03*
X6564538Y4486220D02*
D03*
Y4529527D02*
D03*
X6087598Y3954724D02*
D03*
Y3998032D02*
D03*
X5988000Y3954724D02*
D03*
Y3998032D02*
D03*
D15*
X12027559Y4389764D02*
D03*
Y4311024D02*
D03*
X12106299Y4389764D02*
D03*
Y4311024D02*
D03*
X12185039Y4389764D02*
D03*
Y4311024D02*
D03*
X12263780Y4389764D02*
D03*
Y4311024D02*
D03*
X12230315Y4940945D02*
D03*
Y5019685D02*
D03*
X12309055Y4940945D02*
D03*
Y5019685D02*
D03*
X12387795Y4940945D02*
D03*
Y5019685D02*
D03*
X12466535Y4940945D02*
D03*
Y5019685D02*
D03*
X12545276Y4940945D02*
D03*
Y5019685D02*
D03*
X12624016Y4940945D02*
D03*
Y5019685D02*
D03*
X10480315Y4582677D02*
D03*
Y4503937D02*
D03*
X10539370Y4582677D02*
D03*
Y4503937D02*
D03*
X11031496Y4582677D02*
D03*
Y4503937D02*
D03*
X11090551Y4582677D02*
D03*
Y4503937D02*
D03*
X9929134Y4582677D02*
D03*
Y4503937D02*
D03*
X9988189Y4582677D02*
D03*
Y4503937D02*
D03*
X11582677Y4582677D02*
D03*
Y4503937D02*
D03*
X11641732Y4582677D02*
D03*
Y4503937D02*
D03*
X14852362Y4133858D02*
D03*
Y4055118D02*
D03*
X14921260Y4133858D02*
D03*
Y4055118D02*
D03*
X14990157Y4133858D02*
D03*
Y4055118D02*
D03*
X14783465Y4133858D02*
D03*
Y4055118D02*
D03*
X14724409Y3562992D02*
D03*
Y3484252D02*
D03*
X14803150Y3562992D02*
D03*
Y3484252D02*
D03*
X14655512Y3562992D02*
D03*
Y3484252D02*
D03*
X14586614Y3562992D02*
D03*
Y3484252D02*
D03*
X14517717Y3562992D02*
D03*
Y3484252D02*
D03*
X14448819Y3562992D02*
D03*
Y3484252D02*
D03*
X14005906Y4133858D02*
D03*
Y4055118D02*
D03*
X13937008Y4133858D02*
D03*
Y4055118D02*
D03*
X13868110Y4133858D02*
D03*
Y4055118D02*
D03*
X13799213Y4133858D02*
D03*
Y4055118D02*
D03*
X13740157Y3562992D02*
D03*
Y3484252D02*
D03*
X13825040Y3562992D02*
D03*
Y3484252D02*
D03*
X13671260Y3562992D02*
D03*
Y3484252D02*
D03*
X13602362Y3562992D02*
D03*
Y3484252D02*
D03*
X13533465Y3562992D02*
D03*
Y3484252D02*
D03*
X13464567Y3562992D02*
D03*
Y3484252D02*
D03*
X14005906Y4960630D02*
D03*
Y4881890D02*
D03*
X13937008Y4960630D02*
D03*
Y4881890D02*
D03*
X13868110Y4960630D02*
D03*
Y4881890D02*
D03*
X13799213Y4960630D02*
D03*
Y4881890D02*
D03*
X13740158Y4389764D02*
D03*
Y4311024D02*
D03*
X13818898Y4389764D02*
D03*
Y4311024D02*
D03*
X13671260Y4389764D02*
D03*
Y4311024D02*
D03*
X13602362Y4389764D02*
D03*
Y4311024D02*
D03*
X13533465Y4389764D02*
D03*
Y4311024D02*
D03*
X13464567Y4389764D02*
D03*
Y4311024D02*
D03*
X6761811Y4990158D02*
D03*
Y5068898D02*
D03*
X6830709Y4990158D02*
D03*
Y5068898D02*
D03*
X6899606Y4990158D02*
D03*
Y5068898D02*
D03*
X6624016Y4990158D02*
D03*
Y5068898D02*
D03*
X6692913Y4990158D02*
D03*
Y5068898D02*
D03*
X6968504Y4990158D02*
D03*
Y5068898D02*
D03*
D16*
X12124016Y4507874D02*
D03*
X12167323D02*
D03*
Y4468504D02*
D03*
X12124016D02*
D03*
X12192913Y4586614D02*
D03*
X12236220D02*
D03*
Y4547244D02*
D03*
X12192913D02*
D03*
X10523622Y4862205D02*
D03*
X10480315D02*
D03*
X11074803D02*
D03*
X11031496D02*
D03*
X9972441D02*
D03*
X9929134D02*
D03*
X11625984D02*
D03*
X11582677D02*
D03*
X8751535Y6924016D02*
D03*
X8708228D02*
D03*
X8751535Y6954016D02*
D03*
X8708228D02*
D03*
X7846036Y6924025D02*
D03*
X7802729D02*
D03*
X7846036Y6954025D02*
D03*
X7802729D02*
D03*
X7715551Y8587598D02*
D03*
X7672244D02*
D03*
X7715551Y8617598D02*
D03*
X7672244D02*
D03*
X14840551Y3937008D02*
D03*
X14883858D02*
D03*
X14785433Y3897638D02*
D03*
X14742126D02*
D03*
X13899606Y3976378D02*
D03*
X13856299D02*
D03*
Y3937008D02*
D03*
X13899606D02*
D03*
X13801181Y3897638D02*
D03*
X13757874D02*
D03*
X13899606Y4803150D02*
D03*
X13856299D02*
D03*
Y4763779D02*
D03*
X13899606D02*
D03*
X13801181Y4724409D02*
D03*
X13757874D02*
D03*
X6600955Y4651575D02*
D03*
X6644262D02*
D03*
X6518278D02*
D03*
X6561585D02*
D03*
X6518278Y4608268D02*
D03*
X6561585D02*
D03*
D19*
X8527559Y3484252D02*
D03*
X8401575D02*
D03*
X8527559Y3602362D02*
D03*
X8401575D02*
D03*
D20*
X11401575Y4330709D02*
D03*
X11275591D02*
D03*
X10173228D02*
D03*
X10299213D02*
D03*
X10724409D02*
D03*
X10850394D02*
D03*
X9622047D02*
D03*
X9748031D02*
D03*
D21*
X11299213Y4606299D02*
D03*
X11377953D02*
D03*
X11299213Y4527559D02*
D03*
X11377953D02*
D03*
X11299213Y4448819D02*
D03*
X11377953D02*
D03*
X11299213Y4685039D02*
D03*
X11377953D02*
D03*
X10275591D02*
D03*
X10196850D02*
D03*
X10275591Y4606299D02*
D03*
X10196850D02*
D03*
X10275591Y4527559D02*
D03*
X10196850D02*
D03*
X10275591Y4448819D02*
D03*
X10196850D02*
D03*
X10610236Y4732283D02*
D03*
X10688976D02*
D03*
X10610236Y4665354D02*
D03*
X10688976D02*
D03*
X10826772Y4685039D02*
D03*
X10748031D02*
D03*
X10826772Y4606299D02*
D03*
X10748031D02*
D03*
X10826772Y4527559D02*
D03*
X10748031D02*
D03*
X10826772Y4448819D02*
D03*
X10748031D02*
D03*
X11161417Y4732283D02*
D03*
X11240157D02*
D03*
X11161417Y4665354D02*
D03*
X11240157D02*
D03*
X9724409Y4685039D02*
D03*
X9645669D02*
D03*
X9724409Y4606299D02*
D03*
X9645669D02*
D03*
X9724409Y4527559D02*
D03*
X9645669D02*
D03*
X9724409Y4448819D02*
D03*
X9645669D02*
D03*
X10059055Y4732283D02*
D03*
X10137795D02*
D03*
X10059055Y4665354D02*
D03*
X10137795D02*
D03*
X11712598Y4732283D02*
D03*
X11791339D02*
D03*
X11712598Y4665354D02*
D03*
X11791339D02*
D03*
X6496063Y4399606D02*
D03*
X6417323D02*
D03*
X6496063Y4330709D02*
D03*
X6417323D02*
D03*
X6496063Y4261811D02*
D03*
X6417323D02*
D03*
X6496063Y4192913D02*
D03*
X6417323D02*
D03*
X6102362Y3523622D02*
D03*
X6023622D02*
D03*
X6181102D02*
D03*
X6259842D02*
D03*
D22*
X9625983Y3746063D02*
D03*
Y3537402D02*
D03*
X10177165Y3746063D02*
D03*
Y3537402D02*
D03*
X10728346Y3746063D02*
D03*
Y3537402D02*
D03*
X11279527Y3746063D02*
D03*
Y3537402D02*
D03*
X10206693Y4836614D02*
D03*
Y5045276D02*
D03*
X10757874Y4836614D02*
D03*
Y5045276D02*
D03*
X9655512Y4836614D02*
D03*
Y5045276D02*
D03*
X11309055Y4836614D02*
D03*
Y5045276D02*
D03*
D23*
X9448819Y3578740D02*
D03*
Y3704724D02*
D03*
X10000000Y3578740D02*
D03*
Y3704724D02*
D03*
X10551181Y3578740D02*
D03*
Y3704724D02*
D03*
X11102362Y3578740D02*
D03*
Y3704724D02*
D03*
X10029528Y5062992D02*
D03*
Y4937008D02*
D03*
X10580709Y5062992D02*
D03*
Y4937008D02*
D03*
X9478346Y5062992D02*
D03*
Y4937008D02*
D03*
X11131890Y5062992D02*
D03*
Y4937008D02*
D03*
X12637795Y3500000D02*
D03*
Y3625984D02*
D03*
X12204724Y3421260D02*
D03*
Y3547244D02*
D03*
X12086614Y3421260D02*
D03*
Y3547244D02*
D03*
X11968504Y3421260D02*
D03*
Y3547244D02*
D03*
D29*
X7277311Y8867371D02*
D03*
X7307933Y8836748D02*
D03*
X7297311Y8887371D02*
D03*
X7327933Y8856748D02*
D03*
D35*
X8271654Y8060039D02*
D03*
X8328740D02*
D03*
X8311024Y8214567D02*
D03*
X8368110D02*
D03*
X7753937Y8198819D02*
D03*
X7696850D02*
D03*
X7753937Y8139764D02*
D03*
X7696850D02*
D03*
X7753937Y8001968D02*
D03*
X7696850D02*
D03*
X8270669Y7941929D02*
D03*
X8327756D02*
D03*
X8270669Y8159449D02*
D03*
X8327756D02*
D03*
X14890748Y3976378D02*
D03*
X14833661D02*
D03*
X14999016D02*
D03*
X14941929D02*
D03*
X14014764D02*
D03*
X13957677D02*
D03*
X14014764Y4803150D02*
D03*
X13957677D02*
D03*
X6091535Y3600392D02*
D03*
X6034449D02*
D03*
X6191929Y3602362D02*
D03*
X6249016D02*
D03*
D36*
X8239878Y8298933D02*
D03*
X8295555Y8354611D02*
D03*
D39*
X12145669Y3775591D02*
D03*
Y3901575D02*
D03*
D102*
X9897638Y4799212D02*
D03*
X9976378Y4649606D02*
D03*
X9960630D02*
D03*
X9929134D02*
D03*
X9913386D02*
D03*
X9897638D02*
D03*
X9881890D02*
D03*
X9866142D02*
D03*
X9850394D02*
D03*
X9834646D02*
D03*
X9818898D02*
D03*
X9803149D02*
D03*
X9787401D02*
D03*
Y4799212D02*
D03*
X9803149D02*
D03*
X9818898D02*
D03*
X9834646D02*
D03*
X9850394D02*
D03*
X9866142D02*
D03*
X9881890D02*
D03*
X9913386D02*
D03*
X9929134D02*
D03*
X9944882D02*
D03*
X9960630D02*
D03*
X9976378D02*
D03*
X9944882Y4649606D02*
D03*
X10448819Y4799212D02*
D03*
X10527559Y4649606D02*
D03*
X10511811D02*
D03*
X10480315D02*
D03*
X10464567D02*
D03*
X10448819D02*
D03*
X10433071D02*
D03*
X10417323D02*
D03*
X10401575D02*
D03*
X10385827D02*
D03*
X10370079D02*
D03*
X10354331D02*
D03*
X10338583D02*
D03*
Y4799212D02*
D03*
X10354331D02*
D03*
X10370079D02*
D03*
X10385827D02*
D03*
X10401575D02*
D03*
X10417323D02*
D03*
X10433071D02*
D03*
X10464567D02*
D03*
X10480315D02*
D03*
X10496063D02*
D03*
X10511811D02*
D03*
X10527559D02*
D03*
X10496063Y4649606D02*
D03*
X11000000Y4799212D02*
D03*
X11078740Y4649606D02*
D03*
X11062992D02*
D03*
X11031496D02*
D03*
X11015748D02*
D03*
X11000000D02*
D03*
X10984252D02*
D03*
X10968504D02*
D03*
X10952756D02*
D03*
X10937008D02*
D03*
X10921260D02*
D03*
X10905512D02*
D03*
X10889764D02*
D03*
Y4799212D02*
D03*
X10905512D02*
D03*
X10921260D02*
D03*
X10937008D02*
D03*
X10952756D02*
D03*
X10968504D02*
D03*
X10984252D02*
D03*
X11015748D02*
D03*
X11031496D02*
D03*
X11047244D02*
D03*
X11062992D02*
D03*
X11078740D02*
D03*
X11047244Y4649606D02*
D03*
X11551181Y4799212D02*
D03*
X11629921Y4649606D02*
D03*
X11614173D02*
D03*
X11582677D02*
D03*
X11566929D02*
D03*
X11551181D02*
D03*
X11535433D02*
D03*
X11519685D02*
D03*
X11503937D02*
D03*
X11488189D02*
D03*
X11472441D02*
D03*
X11456693D02*
D03*
X11440945D02*
D03*
Y4799212D02*
D03*
X11456693D02*
D03*
X11472441D02*
D03*
X11488189D02*
D03*
X11503937D02*
D03*
X11519685D02*
D03*
X11535433D02*
D03*
X11566929D02*
D03*
X11582677D02*
D03*
X11598425D02*
D03*
X11614173D02*
D03*
X11629921D02*
D03*
X11598425Y4649606D02*
D03*
D103*
X9820472Y4724409D02*
D03*
X10371654D02*
D03*
X10922835D02*
D03*
X11474016D02*
D03*
D104*
X9919882D02*
D03*
X10471063D02*
D03*
X11022244D02*
D03*
X11573425D02*
D03*
D105*
X9767717Y4680118D02*
D03*
Y4768701D02*
D03*
X10318898Y4680118D02*
D03*
Y4768701D02*
D03*
X10870079Y4680118D02*
D03*
Y4768701D02*
D03*
X11421260Y4680118D02*
D03*
Y4768701D02*
D03*
D106*
X9767717Y4698819D02*
D03*
Y4716535D02*
D03*
Y4732283D02*
D03*
Y4750000D02*
D03*
X9996063Y4763779D02*
D03*
Y4748031D02*
D03*
Y4732283D02*
D03*
Y4716535D02*
D03*
Y4700787D02*
D03*
Y4685039D02*
D03*
X10318898Y4698819D02*
D03*
Y4716535D02*
D03*
Y4732283D02*
D03*
Y4750000D02*
D03*
X10547244Y4763779D02*
D03*
Y4748031D02*
D03*
Y4732283D02*
D03*
Y4716535D02*
D03*
Y4700787D02*
D03*
Y4685039D02*
D03*
X10870079Y4698819D02*
D03*
Y4716535D02*
D03*
Y4732283D02*
D03*
Y4750000D02*
D03*
X11098425Y4763779D02*
D03*
Y4748031D02*
D03*
Y4732283D02*
D03*
Y4716535D02*
D03*
Y4700787D02*
D03*
Y4685039D02*
D03*
X11421260Y4698819D02*
D03*
Y4716535D02*
D03*
Y4732283D02*
D03*
Y4750000D02*
D03*
X11649606Y4763779D02*
D03*
Y4748031D02*
D03*
Y4732283D02*
D03*
Y4716535D02*
D03*
Y4700787D02*
D03*
Y4685039D02*
D03*
D107*
X7579724Y8533465D02*
D03*
Y8513780D02*
D03*
Y8494094D02*
D03*
Y8474409D02*
D03*
Y8454724D02*
D03*
Y8435039D02*
D03*
Y8415354D02*
D03*
Y8395669D02*
D03*
Y8553150D02*
D03*
Y8572835D02*
D03*
Y8592520D02*
D03*
Y8612205D02*
D03*
Y8631890D02*
D03*
Y8651575D02*
D03*
Y8671260D02*
D03*
Y8690945D02*
D03*
X7223425Y8553150D02*
D03*
Y8572835D02*
D03*
Y8592520D02*
D03*
Y8612205D02*
D03*
Y8631890D02*
D03*
Y8651575D02*
D03*
Y8671260D02*
D03*
Y8690945D02*
D03*
Y8533465D02*
D03*
Y8513780D02*
D03*
Y8494094D02*
D03*
Y8474409D02*
D03*
Y8454724D02*
D03*
Y8435039D02*
D03*
Y8415354D02*
D03*
Y8395669D02*
D03*
D108*
X7411417Y8721457D02*
D03*
X7431102D02*
D03*
X7450787D02*
D03*
X7470472D02*
D03*
X7490158D02*
D03*
X7509842D02*
D03*
X7529528D02*
D03*
X7549213D02*
D03*
X7391732D02*
D03*
X7372047D02*
D03*
X7352362D02*
D03*
X7332677D02*
D03*
X7312992D02*
D03*
X7293307D02*
D03*
X7273622D02*
D03*
X7253937D02*
D03*
X7391732Y8365157D02*
D03*
X7372047D02*
D03*
X7352362D02*
D03*
X7332677D02*
D03*
X7312992D02*
D03*
X7293307D02*
D03*
X7273622D02*
D03*
X7253937D02*
D03*
X7411417D02*
D03*
X7431102D02*
D03*
X7450787D02*
D03*
X7470472D02*
D03*
X7490158D02*
D03*
X7509842D02*
D03*
X7529528D02*
D03*
X7549213D02*
D03*
D110*
X7322835Y10097441D02*
D03*
X7303150D02*
D03*
X7283465D02*
D03*
X7263780D02*
D03*
X7244095D02*
D03*
Y10060039D02*
D03*
X7263779D02*
D03*
X7283465D02*
D03*
X7303150D02*
D03*
X7322835D02*
D03*
Y9506890D02*
D03*
X7303150D02*
D03*
X7283465D02*
D03*
X7263780D02*
D03*
X7244095D02*
D03*
Y9469488D02*
D03*
X7263779D02*
D03*
X7283465D02*
D03*
X7303150D02*
D03*
X7322835D02*
D03*
X7519685Y8995079D02*
D03*
X7500000D02*
D03*
X7480315D02*
D03*
X7460630D02*
D03*
X7440945D02*
D03*
Y8957677D02*
D03*
X7460630D02*
D03*
X7480315D02*
D03*
X7500000D02*
D03*
X7519685D02*
D03*
X8110236Y8483268D02*
D03*
X8090551D02*
D03*
X8070866D02*
D03*
X8051181D02*
D03*
X8031496D02*
D03*
Y8445866D02*
D03*
X8051181D02*
D03*
X8070866D02*
D03*
X8090551D02*
D03*
X8110236D02*
D03*
X8799213Y5689961D02*
D03*
X8818898D02*
D03*
X8838583D02*
D03*
X8858268D02*
D03*
X8877953D02*
D03*
Y5727362D02*
D03*
X8858268D02*
D03*
X8838583D02*
D03*
X8818898D02*
D03*
X8799213D02*
D03*
X7893701Y5689961D02*
D03*
X7913386D02*
D03*
X7933071D02*
D03*
X7952756D02*
D03*
X7972441D02*
D03*
Y5727362D02*
D03*
X7952756D02*
D03*
X7933071D02*
D03*
X7913386D02*
D03*
X7893701D02*
D03*
X8366142Y5689961D02*
D03*
X8385827D02*
D03*
X8405512D02*
D03*
X8425197D02*
D03*
X8444882D02*
D03*
Y5727362D02*
D03*
X8425197D02*
D03*
X8405512D02*
D03*
X8385827D02*
D03*
X8366142D02*
D03*
X7460630Y5689961D02*
D03*
X7480315D02*
D03*
X7500000D02*
D03*
X7519685D02*
D03*
X7539370D02*
D03*
Y5727362D02*
D03*
X7519685D02*
D03*
X7500000D02*
D03*
X7480315D02*
D03*
X7460630D02*
D03*
D112*
X8037401Y8637795D02*
D03*
Y8653543D02*
D03*
Y8669291D02*
D03*
Y8685039D02*
D03*
X8104331D02*
D03*
Y8669291D02*
D03*
Y8653543D02*
D03*
Y8637795D02*
D03*
X7250000Y10251969D02*
D03*
Y10267717D02*
D03*
Y10283465D02*
D03*
Y10299213D02*
D03*
X7316929D02*
D03*
Y10283465D02*
D03*
Y10267717D02*
D03*
Y10251969D02*
D03*
X7250000Y9661417D02*
D03*
Y9677165D02*
D03*
Y9692913D02*
D03*
Y9708661D02*
D03*
X7316929D02*
D03*
Y9692913D02*
D03*
Y9677165D02*
D03*
Y9661417D02*
D03*
X7446850Y9070866D02*
D03*
Y9086614D02*
D03*
Y9102362D02*
D03*
Y9118110D02*
D03*
X7513780D02*
D03*
Y9102362D02*
D03*
Y9086614D02*
D03*
Y9070866D02*
D03*
X8805118Y5535433D02*
D03*
Y5519685D02*
D03*
Y5503937D02*
D03*
Y5488189D02*
D03*
X8872047D02*
D03*
Y5503937D02*
D03*
Y5519685D02*
D03*
Y5535433D02*
D03*
X8372047D02*
D03*
Y5519685D02*
D03*
Y5503937D02*
D03*
Y5488189D02*
D03*
X8438976D02*
D03*
Y5503937D02*
D03*
Y5519685D02*
D03*
Y5535433D02*
D03*
X7899606D02*
D03*
Y5519685D02*
D03*
Y5503937D02*
D03*
Y5488189D02*
D03*
X7966535D02*
D03*
Y5503937D02*
D03*
Y5519685D02*
D03*
Y5535433D02*
D03*
X7533465D02*
D03*
Y5519685D02*
D03*
Y5503937D02*
D03*
Y5488189D02*
D03*
X7466535D02*
D03*
Y5503937D02*
D03*
Y5519685D02*
D03*
Y5535433D02*
D03*
D113*
X8102362Y8620079D02*
D03*
X8086614D02*
D03*
X8070866D02*
D03*
X8055118D02*
D03*
X8039370D02*
D03*
Y8702756D02*
D03*
X8055118D02*
D03*
X8070866D02*
D03*
X8086614D02*
D03*
X8102362D02*
D03*
X7314961Y10234252D02*
D03*
X7299213D02*
D03*
X7283465D02*
D03*
X7267717D02*
D03*
X7251968D02*
D03*
Y10316929D02*
D03*
X7267717D02*
D03*
X7283465D02*
D03*
X7299213D02*
D03*
X7314961D02*
D03*
Y9643701D02*
D03*
X7299213D02*
D03*
X7283465D02*
D03*
X7267717D02*
D03*
X7251968D02*
D03*
Y9726378D02*
D03*
X7267717D02*
D03*
X7283465D02*
D03*
X7299213D02*
D03*
X7314961D02*
D03*
X7511811Y9053150D02*
D03*
X7496063D02*
D03*
X7480315D02*
D03*
X7464567D02*
D03*
X7448819D02*
D03*
Y9135827D02*
D03*
X7464567D02*
D03*
X7480315D02*
D03*
X7496063D02*
D03*
X7511811D02*
D03*
X8807087Y5470472D02*
D03*
X8822835D02*
D03*
X8838583D02*
D03*
X8854331D02*
D03*
X8870079D02*
D03*
Y5553150D02*
D03*
X8854331D02*
D03*
X8838583D02*
D03*
X8822835D02*
D03*
X8807087D02*
D03*
X8374016Y5470472D02*
D03*
X8389764D02*
D03*
X8405512D02*
D03*
X8421260D02*
D03*
X8437008D02*
D03*
Y5553150D02*
D03*
X8421260D02*
D03*
X8405512D02*
D03*
X8389764D02*
D03*
X8374016D02*
D03*
X7901575Y5470472D02*
D03*
X7917323D02*
D03*
X7933071D02*
D03*
X7948819D02*
D03*
X7964567D02*
D03*
Y5553150D02*
D03*
X7948819D02*
D03*
X7933071D02*
D03*
X7917323D02*
D03*
X7901575D02*
D03*
X7468504D02*
D03*
X7484252D02*
D03*
X7500000D02*
D03*
X7515748D02*
D03*
X7531496D02*
D03*
Y5470472D02*
D03*
X7515748D02*
D03*
X7500000D02*
D03*
X7484252D02*
D03*
X7468504D02*
D03*
D114*
X8070866Y8661417D02*
D03*
X7283465Y10275591D02*
D03*
Y9685039D02*
D03*
X7480315Y9094488D02*
D03*
X8838583Y5511811D02*
D03*
X8405512D02*
D03*
X7933071D02*
D03*
X7500000D02*
D03*
D116*
X9889773Y4656004D02*
D03*
X9921260Y4655995D02*
D03*
X10440952Y4656004D02*
D03*
X10472441Y4655997D02*
D03*
X10992134Y4656004D02*
D03*
X11023622Y4655996D02*
D03*
X11543308Y4656004D02*
D03*
X11574803Y4656003D02*
D03*
D117*
X9774113Y4750984D02*
D03*
Y4697834D02*
D03*
X10325292Y4750984D02*
D03*
Y4697835D02*
D03*
X10876473Y4750984D02*
D03*
Y4697835D02*
D03*
X11427651Y4750984D02*
D03*
Y4697834D02*
D03*
D118*
X5288543Y3830000D02*
D03*
X5188543D02*
D03*
X5088543D02*
D03*
X943307Y4851575D02*
D03*
X1143307D02*
D03*
X1043307D02*
D03*
X843307Y4951575D02*
D03*
X943307D02*
D03*
X1043307D02*
D03*
X1143307D02*
D03*
X1243307D02*
D03*
Y4851575D02*
D03*
X843307D02*
D03*
X7225591Y11538583D02*
D03*
Y11438583D02*
D03*
Y11338583D02*
D03*
Y11238583D02*
D03*
Y11138583D02*
D03*
X7325591D02*
D03*
Y11238583D02*
D03*
Y11338583D02*
D03*
Y11438583D02*
D03*
Y11538583D02*
D03*
X14898425Y4951575D02*
D03*
X14998425D02*
D03*
X15098425D02*
D03*
X15198425D02*
D03*
X15298425D02*
D03*
Y4851575D02*
D03*
X15198425D02*
D03*
X15098425D02*
D03*
X14998425D02*
D03*
X14898425D02*
D03*
X8916142Y11138583D02*
D03*
Y11238583D02*
D03*
Y11338583D02*
D03*
Y11438583D02*
D03*
Y11538583D02*
D03*
X8816142D02*
D03*
Y11438583D02*
D03*
Y11338583D02*
D03*
Y11238583D02*
D03*
Y11138583D02*
D03*
X6188543Y3730000D02*
D03*
X6088543Y3830000D02*
D03*
Y3730000D02*
D03*
X5988543Y3830000D02*
D03*
Y3730000D02*
D03*
X5888543Y3830000D02*
D03*
Y3730000D02*
D03*
X5788543Y3830000D02*
D03*
Y3730000D02*
D03*
X5688543Y3830000D02*
D03*
Y3730000D02*
D03*
X5588543Y3830000D02*
D03*
Y3730000D02*
D03*
X5488543Y3830000D02*
D03*
Y3730000D02*
D03*
X5388543Y3830000D02*
D03*
Y3730000D02*
D03*
X5288543D02*
D03*
X5188543D02*
D03*
X5088543D02*
D03*
X4988543Y3830000D02*
D03*
Y3730000D02*
D03*
X4888543Y3830000D02*
D03*
Y3730000D02*
D03*
X4788543Y3830000D02*
D03*
Y3730000D02*
D03*
X4688543Y3830000D02*
D03*
Y3730000D02*
D03*
X4588543Y3830000D02*
D03*
Y3730000D02*
D03*
X4488543Y3830000D02*
D03*
Y3730000D02*
D03*
X4388543Y3830000D02*
D03*
Y3730000D02*
D03*
X4288543Y3830000D02*
D03*
Y3730000D02*
D03*
D119*
X6188543Y3830000D02*
D03*
D120*
X6377953Y3779528D02*
D03*
X6377953Y4685039D02*
D03*
X4094488D02*
D03*
Y3779528D02*
D03*
D121*
X8165354Y10781496D02*
D03*
X7976378D02*
D03*
Y10950787D02*
D03*
X8165354D02*
D03*
Y10190945D02*
D03*
X7976378D02*
D03*
Y10360236D02*
D03*
X8165354D02*
D03*
Y9600394D02*
D03*
X7976378D02*
D03*
Y9769685D02*
D03*
X8165354D02*
D03*
Y9009843D02*
D03*
X7976378D02*
D03*
Y9179134D02*
D03*
X8165354D02*
D03*
D122*
X7401575Y4605905D02*
D03*
Y4921653D02*
D03*
X8307087Y4015354D02*
D03*
Y4331102D02*
D03*
X8740157Y4605905D02*
D03*
Y4921653D02*
D03*
X8307087Y4605905D02*
D03*
Y4921653D02*
D03*
X8740157Y4015354D02*
D03*
Y4331102D02*
D03*
X7834646Y4015354D02*
D03*
Y4331102D02*
D03*
Y4605905D02*
D03*
Y4921653D02*
D03*
X7401575Y4015354D02*
D03*
Y4331102D02*
D03*
D123*
X7511811Y4763779D02*
D03*
X8417323Y4173228D02*
D03*
X8850394Y4763779D02*
D03*
X8417323D02*
D03*
X8850394Y4173228D02*
D03*
X7944882D02*
D03*
Y4763779D02*
D03*
X7511811Y4173228D02*
D03*
D124*
X7291339Y4694882D02*
D03*
Y4832677D02*
D03*
X8196850Y4104331D02*
D03*
Y4242126D02*
D03*
X8629921Y4694882D02*
D03*
Y4832677D02*
D03*
X8196850Y4694882D02*
D03*
Y4832677D02*
D03*
X8629921Y4104331D02*
D03*
Y4242126D02*
D03*
X7724409Y4104331D02*
D03*
Y4242126D02*
D03*
Y4694882D02*
D03*
Y4832677D02*
D03*
X7291339Y4104331D02*
D03*
Y4242126D02*
D03*
D125*
X7615158Y7928147D02*
D03*
Y7912399D02*
D03*
X9115157Y3942913D02*
D03*
Y4021653D02*
D03*
X11641732Y4503937D02*
D03*
X11582677D02*
D03*
X9115157Y4001968D02*
D03*
Y3982284D02*
D03*
Y3962598D02*
D03*
X11582677Y3827756D02*
D03*
X11031496D02*
D03*
X10480315D02*
D03*
X9929134D02*
D03*
X11582677Y4833661D02*
D03*
X11031496D02*
D03*
X10480315D02*
D03*
X9929134D02*
D03*
X11440945Y4612205D02*
D03*
X10889764D02*
D03*
X10338583D02*
D03*
X9787402D02*
D03*
X9803149Y4030512D02*
D03*
X10354331D02*
D03*
X10905512D02*
D03*
X11456693D02*
D03*
X10436024Y4441929D02*
D03*
X10468504Y4454646D02*
D03*
X9889764Y4442303D02*
D03*
X9904528Y4454646D02*
D03*
X9919291Y4466988D02*
D03*
X11676181Y3897106D02*
D03*
X11125000D02*
D03*
X10573819D02*
D03*
X10022638D02*
D03*
X8785433Y5346457D02*
D03*
X8352362D02*
D03*
X7446851D02*
D03*
X7879921D02*
D03*
X11679134Y4779528D02*
D03*
X11127953D02*
D03*
X10576772D02*
D03*
X10025591D02*
D03*
X7230315Y4173228D02*
D03*
X7643701Y4281496D02*
D03*
X8076772D02*
D03*
X8549213D02*
D03*
X8982283D02*
D03*
X11468504Y4618110D02*
D03*
X11492126D02*
D03*
X10917323D02*
D03*
X10940945D02*
D03*
X10366142D02*
D03*
X10389764D02*
D03*
X9838583D02*
D03*
X9814960D02*
D03*
X9944882Y4830709D02*
D03*
X9972441D02*
D03*
X10496063D02*
D03*
X10523622D02*
D03*
X11598425D02*
D03*
X11625984D02*
D03*
X11074803D02*
D03*
X11047244D02*
D03*
X10389764Y4043307D02*
D03*
X10366142D02*
D03*
X10496063Y3830709D02*
D03*
X10523622D02*
D03*
X9972441D02*
D03*
X9944882D02*
D03*
X11625984D02*
D03*
X11598425D02*
D03*
X11047244D02*
D03*
X11074803D02*
D03*
X9814960Y4043307D02*
D03*
X9838583D02*
D03*
X10917323D02*
D03*
X10940945D02*
D03*
X11492126D02*
D03*
X11468504D02*
D03*
X8078740Y8836614D02*
D03*
X8062992D02*
D03*
X8080709Y9061811D02*
D03*
X8061024D02*
D03*
X8080709Y9127165D02*
D03*
X8061024D02*
D03*
X8023622Y8398622D02*
D03*
D03*
X8007874D02*
D03*
D03*
X8133858D02*
D03*
D03*
X8118110D02*
D03*
D03*
X7635827Y8555118D02*
D03*
Y8570866D02*
D03*
X7510827Y8911417D02*
D03*
Y8895669D02*
D03*
X7266732Y9969488D02*
D03*
Y9953740D02*
D03*
X7184055Y9969488D02*
D03*
Y9953740D02*
D03*
X8186023Y8868110D02*
D03*
X8170275D02*
D03*
X8001968Y9127165D02*
D03*
X7982283D02*
D03*
X8159449D02*
D03*
X8139764D02*
D03*
X7971457Y8868110D02*
D03*
X7955709D02*
D03*
X8022638Y9307087D02*
D03*
Y9291339D02*
D03*
X7829724Y9445374D02*
D03*
Y9429626D02*
D03*
X8139764Y9717717D02*
D03*
X8159449D02*
D03*
X7982283D02*
D03*
X8001968D02*
D03*
X8139764Y10898819D02*
D03*
X8159449D02*
D03*
X7957677Y10473917D02*
D03*
Y10489665D02*
D03*
X7942913Y10644685D02*
D03*
Y10660433D02*
D03*
X7982283Y10898819D02*
D03*
X8001968D02*
D03*
Y10308268D02*
D03*
X7982283D02*
D03*
X7942913Y10069882D02*
D03*
Y10054134D02*
D03*
X7957677Y9899114D02*
D03*
Y9883366D02*
D03*
X8159449Y10308268D02*
D03*
X8139764D02*
D03*
X7317421Y9370079D02*
D03*
X7301673D02*
D03*
X7214075Y9153543D02*
D03*
X7198327D02*
D03*
X8070866Y8976378D02*
D03*
Y9566929D02*
D03*
X8062992Y9496063D02*
D03*
X8078740D02*
D03*
X8070866Y10157480D02*
D03*
X8062992Y10086614D02*
D03*
X8078740D02*
D03*
Y10677165D02*
D03*
X8062992D02*
D03*
X8070866Y10748031D02*
D03*
X7801181Y11160433D02*
D03*
X965551Y4695866D02*
D03*
X8061024Y9717717D02*
D03*
X8080709D02*
D03*
X8061024Y9652362D02*
D03*
X8080709D02*
D03*
X8061024Y10308268D02*
D03*
X8080709D02*
D03*
X8061024Y10242913D02*
D03*
X8080709D02*
D03*
X7531496Y8771654D02*
D03*
X7547244D02*
D03*
X7409449Y8770669D02*
D03*
X7393701D02*
D03*
X8080709Y10833465D02*
D03*
X8061024D02*
D03*
X8080709Y10898819D02*
D03*
X8061024D02*
D03*
X7770177Y8658465D02*
D03*
X7754429D02*
D03*
X7189961Y8513779D02*
D03*
Y8533465D02*
D03*
Y8553149D02*
D03*
Y8572835D02*
D03*
X8640184Y7220053D02*
D03*
X8626264Y7233972D02*
D03*
X8612345Y7247891D02*
D03*
X8598425Y7261811D02*
D03*
X7734672Y7220053D02*
D03*
X7720752Y7233972D02*
D03*
X7706833Y7247891D02*
D03*
X7692913Y7261811D02*
D03*
X7470472Y8750984D02*
D03*
X7268701Y8307087D02*
D03*
X7332677Y8750000D02*
D03*
X7273622D02*
D03*
X7194882Y8671260D02*
D03*
X7312992Y8336614D02*
D03*
X7411417D02*
D03*
X7529528D02*
D03*
X7608268Y8474409D02*
D03*
Y8533465D02*
D03*
Y8631890D02*
D03*
Y8690945D02*
D03*
X8279557Y8201570D02*
D03*
X8231297Y8061026D02*
D03*
X7792320Y8198817D02*
D03*
Y8139761D02*
D03*
Y8001966D02*
D03*
X7923228Y7851378D02*
D03*
X8021654D02*
D03*
X8080709D02*
D03*
X8231297Y7942916D02*
D03*
Y8159451D02*
D03*
X7883853Y8290354D02*
D03*
X7864173Y7851378D02*
D03*
X8569882Y6756890D02*
D03*
X8263920Y6983128D02*
D03*
X8305678Y6941370D02*
D03*
X8375275Y6871773D02*
D03*
X8568053Y6885967D02*
D03*
X8665489Y6983403D02*
D03*
X8707248Y7025161D02*
D03*
X8392717Y7365158D02*
D03*
X8273622Y7262795D02*
D03*
X8708662Y7149606D02*
D03*
X8464567Y6808226D02*
D03*
X8375000Y7301181D02*
D03*
X8221887Y7148068D02*
D03*
X7368110Y7263779D02*
D03*
X7487205Y7365158D02*
D03*
X7801736Y7025161D02*
D03*
X7759977Y6983403D02*
D03*
X7662541Y6885967D02*
D03*
X7469763Y6871773D02*
D03*
X7400166Y6941370D02*
D03*
X7358408Y6983128D02*
D03*
X8221886Y7148067D02*
D03*
X7316374D02*
D03*
X8375000Y7301181D02*
D03*
X7469488D02*
D03*
X8708661Y7149606D02*
D03*
X8464567Y6808226D02*
D03*
X7559055D02*
D03*
X7803150Y7149606D02*
D03*
X6565945Y4677165D02*
D03*
Y4564961D02*
D03*
X7615155Y7964567D02*
D03*
Y7980315D02*
D03*
Y8023622D02*
D03*
Y8039370D02*
D03*
X7885824Y7674213D02*
D03*
X7901572D02*
D03*
X7944880D02*
D03*
X7960627D02*
D03*
X7984250D02*
D03*
X7999998D02*
D03*
X8141730D02*
D03*
X8157478D02*
D03*
X8102360D02*
D03*
X8118108D02*
D03*
X8059053D02*
D03*
X8043305D02*
D03*
X7224410Y6901575D02*
D03*
X7240158D02*
D03*
X7220472Y6603347D02*
D03*
X7236221D02*
D03*
X7669291D02*
D03*
X7653543D02*
D03*
X7648622Y6756890D02*
D03*
X7664370D02*
D03*
X8554134D02*
D03*
X8559055Y6603347D02*
D03*
X8574803D02*
D03*
X8141732D02*
D03*
X8125984D02*
D03*
X8145669Y6901575D02*
D03*
X8129921D02*
D03*
X7181595Y5688976D02*
D03*
X7197343D02*
D03*
X7614666D02*
D03*
X7630413D02*
D03*
X8087106D02*
D03*
X8102854D02*
D03*
X7398622Y5965551D02*
D03*
X7382874D02*
D03*
X7831693D02*
D03*
X7815945D02*
D03*
X8288386D02*
D03*
X8304134D02*
D03*
X8535925Y5688976D02*
D03*
X8520177D02*
D03*
X8737205Y5965551D02*
D03*
X8721457D02*
D03*
X8602362Y4763779D02*
D03*
X8169291D02*
D03*
X7696850D02*
D03*
X8568898Y4173228D02*
D03*
X8135827D02*
D03*
X7663386D02*
D03*
X7263779Y4763779D02*
D03*
D126*
X8641732Y3543307D02*
D03*
X9173228Y3582677D02*
D03*
D127*
X12624016Y4848425D02*
D03*
X8527559Y3484252D02*
D03*
X8401575D02*
D03*
X8527559Y3602362D02*
D03*
X8401575D02*
D03*
X11131891Y4937008D02*
D03*
X9478347D02*
D03*
X10029528D02*
D03*
X10580709D02*
D03*
X9448819Y3704724D02*
D03*
X10000000D02*
D03*
X10551181D02*
D03*
X11102362D02*
D03*
X7642717Y7435039D02*
D03*
X8530512Y8214567D02*
D03*
Y8295276D02*
D03*
X14114173Y4133858D02*
D03*
X8031494Y8090551D02*
D03*
Y8129921D02*
D03*
Y8169291D02*
D03*
X7992124Y8090551D02*
D03*
Y8129921D02*
D03*
Y8169291D02*
D03*
X7952753Y8090551D02*
D03*
Y8129921D02*
D03*
Y8169291D02*
D03*
X7913383Y8090551D02*
D03*
Y8129921D02*
D03*
Y8169291D02*
D03*
X8070864Y8090551D02*
D03*
Y8129921D02*
D03*
Y8169291D02*
D03*
X8110234D02*
D03*
Y8129921D02*
D03*
Y8090551D02*
D03*
X7992124Y8051181D02*
D03*
Y8011811D02*
D03*
Y7972441D02*
D03*
X8031494Y8051181D02*
D03*
Y8011811D02*
D03*
Y7972441D02*
D03*
X8070864Y8051181D02*
D03*
Y8011811D02*
D03*
Y7972441D02*
D03*
X8110234Y8051181D02*
D03*
Y8011811D02*
D03*
Y7972441D02*
D03*
X7952753Y8051181D02*
D03*
Y8011811D02*
D03*
Y7972441D02*
D03*
X7913383D02*
D03*
Y8011811D02*
D03*
Y8051181D02*
D03*
X7421260Y8641732D02*
D03*
X7460630D02*
D03*
X7500000D02*
D03*
Y8602362D02*
D03*
X7460630D02*
D03*
X7421260D02*
D03*
X7500000Y8444882D02*
D03*
X7460630D02*
D03*
X7421260D02*
D03*
X7500000Y8484252D02*
D03*
X7460630D02*
D03*
X7421260D02*
D03*
X7500000Y8523622D02*
D03*
X7460630D02*
D03*
X7421260D02*
D03*
X7500000Y8562992D02*
D03*
X7460630D02*
D03*
X7421260D02*
D03*
X7381890Y8444882D02*
D03*
X7342520D02*
D03*
X7303150D02*
D03*
Y8484252D02*
D03*
X7342520D02*
D03*
X7381890D02*
D03*
X7303150Y8641732D02*
D03*
X7342520D02*
D03*
X7381890D02*
D03*
X7303150Y8602362D02*
D03*
X7342520D02*
D03*
X7381890D02*
D03*
X7303150Y8562992D02*
D03*
X7342520D02*
D03*
X7381890D02*
D03*
X7303150Y8523622D02*
D03*
X7342520D02*
D03*
X7381890D02*
D03*
X8520245Y7003098D02*
D03*
X8492406Y6975259D02*
D03*
X8464567Y6947420D02*
D03*
X8436728Y6975259D02*
D03*
X8464567Y7003098D02*
D03*
X8492406Y7030936D02*
D03*
X8325373Y7086614D02*
D03*
X8353211Y7114453D02*
D03*
X8381050Y7142292D02*
D03*
X8353211Y7058775D02*
D03*
X8381050Y7086614D02*
D03*
X8408889Y7114453D02*
D03*
X8381050Y7030936D02*
D03*
X8408889Y7058775D02*
D03*
X8436728Y7086614D02*
D03*
X8408889Y7003098D02*
D03*
X8436728Y7030936D02*
D03*
X8464567Y7058775D02*
D03*
X8408889Y7170131D02*
D03*
X8436728Y7197970D02*
D03*
X8464567Y7225809D02*
D03*
X8492406Y7197970D02*
D03*
X8464567Y7170131D02*
D03*
X8436728Y7142292D02*
D03*
X8603761Y7086614D02*
D03*
X8575922Y7058775D02*
D03*
X8548083Y7030936D02*
D03*
X8575922Y7114453D02*
D03*
X8548083Y7086614D02*
D03*
X8520245Y7058775D02*
D03*
X8548083Y7142292D02*
D03*
X8520245Y7114453D02*
D03*
X8492406Y7086614D02*
D03*
X8520245Y7170131D02*
D03*
X8492406Y7142292D02*
D03*
X8464567Y7114453D02*
D03*
X7614733Y7003098D02*
D03*
X7586894Y6975259D02*
D03*
X7559055Y6947420D02*
D03*
X7531216Y6975259D02*
D03*
X7559055Y7003098D02*
D03*
X7586894Y7030936D02*
D03*
X7419861Y7086614D02*
D03*
X7447700Y7114453D02*
D03*
X7475539Y7142292D02*
D03*
X7447700Y7058775D02*
D03*
X7475539Y7086614D02*
D03*
X7503377Y7114453D02*
D03*
X7475539Y7030936D02*
D03*
X7503377Y7058775D02*
D03*
X7531216Y7086614D02*
D03*
X7503377Y7003098D02*
D03*
X7531216Y7030936D02*
D03*
X7559055Y7058775D02*
D03*
X7503377Y7170131D02*
D03*
X7531216Y7197970D02*
D03*
X7559055Y7225809D02*
D03*
X7586894Y7197970D02*
D03*
X7559055Y7170131D02*
D03*
X7531216Y7142292D02*
D03*
X7698249Y7086614D02*
D03*
X7670410Y7058775D02*
D03*
X7642572Y7030936D02*
D03*
X7670410Y7114453D02*
D03*
X7642572Y7086614D02*
D03*
X7614733Y7058775D02*
D03*
X7642572Y7142292D02*
D03*
X7614733Y7114453D02*
D03*
X7586894Y7086614D02*
D03*
X7614733Y7170131D02*
D03*
X7586894Y7142292D02*
D03*
X7559055Y7114453D02*
D03*
D128*
X11948819Y4389764D02*
D03*
X11299213Y4606299D02*
D03*
Y4685039D02*
D03*
X10748031Y4606299D02*
D03*
Y4685039D02*
D03*
X10196850Y4606299D02*
D03*
Y4685039D02*
D03*
X9645669D02*
D03*
Y4606299D02*
D03*
X9448819D02*
D03*
X9389764Y4645669D02*
D03*
X9330709Y4685039D02*
D03*
X9929134Y4582677D02*
D03*
X9988189D02*
D03*
X11582677D02*
D03*
X11641732D02*
D03*
X11031496D02*
D03*
X11090551D02*
D03*
X10539370D02*
D03*
X10480315D02*
D03*
X11783465Y4228346D02*
D03*
X9913386Y4074803D02*
D03*
X9976378Y4074803D02*
D03*
X10464567Y4074803D02*
D03*
X10527559Y4074803D02*
D03*
X11015748D02*
D03*
X11078740Y4074803D02*
D03*
X11629922Y4074803D02*
D03*
X11566929Y4074803D02*
D03*
X9153543Y3716535D02*
D03*
X7757874Y4714567D02*
D03*
Y4812992D02*
D03*
X8799213Y3716535D02*
D03*
X8840551Y4114173D02*
D03*
Y4232283D02*
D03*
X8407480Y4114173D02*
D03*
Y4232283D02*
D03*
X7935039Y4114173D02*
D03*
Y4232283D02*
D03*
X7501968D02*
D03*
Y4114173D02*
D03*
X9153543Y3787402D02*
D03*
Y3683071D02*
D03*
Y3753937D02*
D03*
X7324803Y4714567D02*
D03*
Y4812992D02*
D03*
X8230315Y4714567D02*
D03*
Y4812992D02*
D03*
X8663386D02*
D03*
Y4714567D02*
D03*
X8799213Y3753937D02*
D03*
Y3683071D02*
D03*
Y3787402D02*
D03*
D129*
X11968504Y3547244D02*
D03*
X9748031Y4330709D02*
D03*
X10850394D02*
D03*
X9748031D02*
D03*
X10299213D02*
D03*
X11401575D02*
D03*
X9708661Y4238189D02*
D03*
X10259843D02*
D03*
X10811024D02*
D03*
X11362205D02*
D03*
X9625984Y3746063D02*
D03*
X10177165D02*
D03*
X10728346D02*
D03*
X11279528D02*
D03*
X12145669Y3710630D02*
D03*
D130*
X8267717Y3543307D02*
D03*
X8070866D02*
D03*
X7874016D02*
D03*
X7677165D02*
D03*
X7480315D02*
D03*
D131*
X10371654Y3894685D02*
D03*
Y3979331D02*
D03*
Y3937008D02*
D03*
X10471063Y3894685D02*
D03*
Y3979331D02*
D03*
X10427362Y3937008D02*
D03*
X10514764D02*
D03*
X10471063D02*
D03*
X9820472Y3894685D02*
D03*
Y3979331D02*
D03*
Y3937008D02*
D03*
X9919882Y3894685D02*
D03*
Y3979331D02*
D03*
X9876181Y3937008D02*
D03*
X9963583D02*
D03*
X9919882D02*
D03*
X10922835Y3894685D02*
D03*
Y3979331D02*
D03*
Y3937008D02*
D03*
X11022244Y3894685D02*
D03*
Y3979331D02*
D03*
X10978543Y3937008D02*
D03*
X11065945D02*
D03*
X11022244D02*
D03*
X11474016Y3894685D02*
D03*
Y3979331D02*
D03*
Y3937008D02*
D03*
X11573425Y3894685D02*
D03*
Y3979331D02*
D03*
X11529725Y3937008D02*
D03*
X11617126D02*
D03*
X11573425D02*
D03*
X9820472Y4766732D02*
D03*
Y4682087D02*
D03*
Y4724409D02*
D03*
X9919882Y4766732D02*
D03*
Y4682087D02*
D03*
X9876181Y4724409D02*
D03*
X9963583D02*
D03*
X9919882D02*
D03*
X10371654Y4766732D02*
D03*
Y4682087D02*
D03*
Y4724409D02*
D03*
X10471063Y4766732D02*
D03*
Y4682087D02*
D03*
X10427362Y4724409D02*
D03*
X10514764D02*
D03*
X10471063D02*
D03*
X10922835Y4766732D02*
D03*
Y4682087D02*
D03*
Y4724409D02*
D03*
X11022244Y4766732D02*
D03*
Y4682087D02*
D03*
X10978543Y4724409D02*
D03*
X11065945D02*
D03*
X11022244D02*
D03*
X11474016Y4766732D02*
D03*
Y4682087D02*
D03*
Y4724409D02*
D03*
X11573425Y4766732D02*
D03*
Y4682087D02*
D03*
X11529724Y4724409D02*
D03*
X11617126D02*
D03*
X11573425D02*
D03*
X8070866Y8643701D02*
D03*
Y8679134D02*
D03*
X7283465Y10257874D02*
D03*
Y10293307D02*
D03*
Y9667323D02*
D03*
Y9702756D02*
D03*
X7480315Y9076772D02*
D03*
Y9112205D02*
D03*
X8188976Y5494095D02*
D03*
Y5529528D02*
D03*
X8622047Y5494095D02*
D03*
Y5529528D02*
D03*
X7716535D02*
D03*
Y5494095D02*
D03*
X7283465D02*
D03*
Y5529528D02*
D03*
X8838583Y5494095D02*
D03*
Y5529528D02*
D03*
X8405512Y5494095D02*
D03*
Y5529528D02*
D03*
X7933071Y5494095D02*
D03*
Y5529528D02*
D03*
X7500000D02*
D03*
Y5494095D02*
D03*
D132*
X14734252Y4133858D02*
D03*
X13856299Y4011811D02*
D03*
X14840551D02*
D03*
X13750000Y4133858D02*
D03*
Y4960630D02*
D03*
X13856299Y4838583D02*
D03*
X8762795Y5502854D02*
D03*
Y5520768D02*
D03*
X8914370D02*
D03*
Y5502854D02*
D03*
X8816929Y5395669D02*
D03*
X8799016D02*
D03*
X8853248D02*
D03*
X8871162D02*
D03*
X8329724Y5502854D02*
D03*
Y5520768D02*
D03*
X8481299D02*
D03*
Y5502854D02*
D03*
X8383858Y5395669D02*
D03*
X8365945D02*
D03*
X8420177D02*
D03*
X8438091D02*
D03*
X7857283Y5502854D02*
D03*
Y5520768D02*
D03*
X8008858D02*
D03*
Y5502854D02*
D03*
X7911417Y5395669D02*
D03*
X7893504D02*
D03*
X7947736D02*
D03*
X7965650D02*
D03*
X7532579D02*
D03*
X7514665D02*
D03*
X7460433D02*
D03*
X7478346D02*
D03*
X7575787Y5502854D02*
D03*
Y5520768D02*
D03*
X7424213D02*
D03*
Y5502854D02*
D03*
X8806004Y5574803D02*
D03*
X8823917D02*
D03*
X8859154Y5666339D02*
D03*
X8877067D02*
D03*
X8372933Y5574803D02*
D03*
X8390846D02*
D03*
X8426083Y5666339D02*
D03*
X8443996D02*
D03*
X7900492Y5574803D02*
D03*
X7918405D02*
D03*
X7953642Y5666339D02*
D03*
X7971555D02*
D03*
X7538484D02*
D03*
X7520571D02*
D03*
X7485335Y5574803D02*
D03*
X7467421D02*
D03*
D140*
X12421260Y4386811D02*
D03*
Y4550197D02*
D03*
X6795837Y4432087D02*
D03*
Y4595472D02*
D03*
X14606299Y4136811D02*
D03*
Y3973425D02*
D03*
X13622047Y4136811D02*
D03*
Y3973425D02*
D03*
Y4963583D02*
D03*
Y4800197D02*
D03*
D141*
X12338780Y4665354D02*
D03*
X12288780D02*
D03*
X12188780D02*
D03*
X12238780D02*
D03*
Y4862205D02*
D03*
X12188780D02*
D03*
X12288780D02*
D03*
X12338780D02*
D03*
X14688780Y3838583D02*
D03*
X14738780D02*
D03*
X14838780D02*
D03*
X14788780D02*
D03*
Y3641732D02*
D03*
X14838780D02*
D03*
X14738780D02*
D03*
X14688780D02*
D03*
X13704528Y3838583D02*
D03*
X13754528D02*
D03*
X13854528D02*
D03*
X13804528D02*
D03*
Y3641732D02*
D03*
X13854528D02*
D03*
X13754528D02*
D03*
X13704528D02*
D03*
Y4665354D02*
D03*
X13754528D02*
D03*
X13854528D02*
D03*
X13804528D02*
D03*
Y4468504D02*
D03*
X13854528D02*
D03*
X13754528D02*
D03*
X13704528D02*
D03*
X6723199Y4720472D02*
D03*
X6673199D02*
D03*
X6573199D02*
D03*
X6623199D02*
D03*
Y4917323D02*
D03*
X6573199D02*
D03*
X6673199D02*
D03*
X6723199D02*
D03*
D142*
X12263780Y4763779D02*
D03*
X14763780Y3740157D02*
D03*
X13779528D02*
D03*
Y4566929D02*
D03*
X6648199Y4818898D02*
D03*
D143*
X8057087Y10731299D02*
D03*
X8084646D02*
D03*
X8070866Y10764764D02*
D03*
X8057087Y10140748D02*
D03*
X8084646D02*
D03*
X8070866Y10174213D02*
D03*
X8057087Y9550197D02*
D03*
X8084646D02*
D03*
X8070866Y9583662D02*
D03*
X8057087Y8959646D02*
D03*
X8084646D02*
D03*
X8070866Y8993110D02*
D03*
D144*
X6622047Y3799212D02*
D03*
X6881890D02*
D03*
X6622047Y4192913D02*
D03*
X6881890D02*
D03*
D145*
X12502953Y3543307D02*
D03*
X12339567D02*
D03*
D146*
X12370472Y4137008D02*
D03*
X12280315D02*
D03*
X12640945D02*
D03*
X12550787D02*
D03*
X12460630D02*
D03*
X12370472Y4046851D02*
D03*
X12280315D02*
D03*
X12640945D02*
D03*
X12550787D02*
D03*
X12460630D02*
D03*
Y3956693D02*
D03*
X12550787D02*
D03*
X12640945D02*
D03*
X12280315D02*
D03*
X12370472D02*
D03*
X12460630Y3866535D02*
D03*
X12550787D02*
D03*
X12640945D02*
D03*
X12280315D02*
D03*
X12370472D02*
D03*
X12460630Y3776378D02*
D03*
X12550787D02*
D03*
X12640945D02*
D03*
X12280315D02*
D03*
X12370472D02*
D03*
D147*
X8223622Y10910827D02*
D03*
X7918110Y10821457D02*
D03*
X8223622Y10320276D02*
D03*
X7918110Y10230906D02*
D03*
X8223622Y9729724D02*
D03*
X7918110Y9640354D02*
D03*
X8223622Y9139173D02*
D03*
X7918110Y9049803D02*
D03*
D148*
X8223622Y10821457D02*
D03*
X7918110Y10910827D02*
D03*
X8223622Y10230906D02*
D03*
X7918110Y10320276D02*
D03*
X8223622Y9640354D02*
D03*
X7918110Y9729724D02*
D03*
X8223622Y9049803D02*
D03*
X7918110Y9139173D02*
D03*
D149*
X8179134Y10898819D02*
D03*
X8159449D02*
D03*
X8139764D02*
D03*
X8120079D02*
D03*
X8100394D02*
D03*
X8080709D02*
D03*
X8061024D02*
D03*
X8041338D02*
D03*
X8021654D02*
D03*
X8001968D02*
D03*
X7982283D02*
D03*
X7962598D02*
D03*
Y10833465D02*
D03*
X7982283D02*
D03*
X8001968D02*
D03*
X8021654D02*
D03*
X8041338D02*
D03*
X8061024D02*
D03*
X8080709D02*
D03*
X8100394D02*
D03*
X8120079D02*
D03*
X8139764D02*
D03*
X8159449D02*
D03*
X8179134D02*
D03*
Y10308268D02*
D03*
X8159449D02*
D03*
X8139764D02*
D03*
X8120079D02*
D03*
X8100394D02*
D03*
X8080709D02*
D03*
X8061024D02*
D03*
X8041338D02*
D03*
X8021654D02*
D03*
X8001968D02*
D03*
X7982283D02*
D03*
X7962598D02*
D03*
Y10242913D02*
D03*
X7982283D02*
D03*
X8001968D02*
D03*
X8021654D02*
D03*
X8041338D02*
D03*
X8061024D02*
D03*
X8080709D02*
D03*
X8100394D02*
D03*
X8120079D02*
D03*
X8139764D02*
D03*
X8159449D02*
D03*
X8179134D02*
D03*
Y9717717D02*
D03*
X8159449D02*
D03*
X8139764D02*
D03*
X8120079D02*
D03*
X8100394D02*
D03*
X8080709D02*
D03*
X8061024D02*
D03*
X8041338D02*
D03*
X8021654D02*
D03*
X8001968D02*
D03*
X7982283D02*
D03*
X7962598D02*
D03*
Y9652362D02*
D03*
X7982283D02*
D03*
X8001968D02*
D03*
X8021654D02*
D03*
X8041338D02*
D03*
X8061024D02*
D03*
X8080709D02*
D03*
X8100394D02*
D03*
X8120079D02*
D03*
X8139764D02*
D03*
X8159449D02*
D03*
X8179134D02*
D03*
Y9127165D02*
D03*
X8159449D02*
D03*
X8139764D02*
D03*
X8120079D02*
D03*
X8100394D02*
D03*
X8080709D02*
D03*
X8061024D02*
D03*
X8041338D02*
D03*
X8021654D02*
D03*
X8001968D02*
D03*
X7982283D02*
D03*
X7962598D02*
D03*
Y9061811D02*
D03*
X7982283D02*
D03*
X8001968D02*
D03*
X8021654D02*
D03*
X8041338D02*
D03*
X8061024D02*
D03*
X8080709D02*
D03*
X8100394D02*
D03*
X8120079D02*
D03*
X8139764D02*
D03*
X8159449D02*
D03*
X8179134D02*
D03*
D150*
X7401575Y8543307D02*
D03*
D151*
X8464567Y7086614D02*
D03*
X7559055D02*
D03*
D152*
X8331636Y6967603D02*
D03*
X8317717Y6981523D02*
D03*
X8303798Y6995442D02*
D03*
X8289878Y7009361D02*
D03*
X8275959Y7023281D02*
D03*
X8262039Y7037200D02*
D03*
X8248120Y7051120D02*
D03*
X8234200Y7065039D02*
D03*
X8345556Y6953684D02*
D03*
X8359475Y6939764D02*
D03*
X8373395Y6925845D02*
D03*
X8387314Y6911925D02*
D03*
X8401234Y6898006D02*
D03*
X8415153Y6884087D02*
D03*
X8429072Y6870167D02*
D03*
X8442992Y6856248D02*
D03*
X8597497Y7205625D02*
D03*
X8611417Y7191706D02*
D03*
X8625336Y7177786D02*
D03*
X8639256Y7163867D02*
D03*
X8653175Y7149948D02*
D03*
X8667094Y7136028D02*
D03*
X8681014Y7122109D02*
D03*
X8694933Y7108189D02*
D03*
X8583578Y7219545D02*
D03*
X8569658Y7233464D02*
D03*
X8555739Y7247384D02*
D03*
X8541820Y7261303D02*
D03*
X8527900Y7275222D02*
D03*
X8513981Y7289142D02*
D03*
X8500061Y7303061D02*
D03*
X8486142Y7316981D02*
D03*
X7426125Y6967603D02*
D03*
X7412205Y6981523D02*
D03*
X7398286Y6995442D02*
D03*
X7384366Y7009361D02*
D03*
X7370447Y7023281D02*
D03*
X7356528Y7037200D02*
D03*
X7342608Y7051120D02*
D03*
X7328689Y7065039D02*
D03*
X7440044Y6953684D02*
D03*
X7453963Y6939764D02*
D03*
X7467883Y6925845D02*
D03*
X7481802Y6911925D02*
D03*
X7495722Y6898006D02*
D03*
X7509641Y6884087D02*
D03*
X7523561Y6870167D02*
D03*
X7537480Y6856248D02*
D03*
X7691986Y7205625D02*
D03*
X7705905Y7191706D02*
D03*
X7719824Y7177786D02*
D03*
X7733744Y7163867D02*
D03*
X7747663Y7149948D02*
D03*
X7761583Y7136028D02*
D03*
X7775502Y7122109D02*
D03*
X7789422Y7108189D02*
D03*
X7678066Y7219545D02*
D03*
X7664147Y7233464D02*
D03*
X7650227Y7247384D02*
D03*
X7636308Y7261303D02*
D03*
X7622389Y7275222D02*
D03*
X7608469Y7289142D02*
D03*
X7594550Y7303061D02*
D03*
X7580630Y7316981D02*
D03*
D153*
X8583578Y6953684D02*
D03*
X8569658Y6939764D02*
D03*
X8555739Y6925845D02*
D03*
X8541820Y6911925D02*
D03*
X8527900Y6898006D02*
D03*
X8513981Y6884087D02*
D03*
X8500061Y6870167D02*
D03*
X8486142Y6856248D02*
D03*
X8597497Y6967603D02*
D03*
X8611417Y6981523D02*
D03*
X8625336Y6995442D02*
D03*
X8639256Y7009361D02*
D03*
X8653175Y7023281D02*
D03*
X8667094Y7037200D02*
D03*
X8681014Y7051120D02*
D03*
X8694933Y7065039D02*
D03*
X8345556Y7219545D02*
D03*
X8359475Y7233464D02*
D03*
X8373395Y7247384D02*
D03*
X8387314Y7261303D02*
D03*
X8401234Y7275222D02*
D03*
X8415153Y7289142D02*
D03*
X8429072Y7303061D02*
D03*
X8442992Y7316981D02*
D03*
X8331636Y7205625D02*
D03*
X8317717Y7191706D02*
D03*
X8303798Y7177786D02*
D03*
X8289878Y7163867D02*
D03*
X8275959Y7149948D02*
D03*
X8262039Y7136028D02*
D03*
X8248120Y7122109D02*
D03*
X8234200Y7108189D02*
D03*
X7678066Y6953684D02*
D03*
X7664147Y6939764D02*
D03*
X7650227Y6925845D02*
D03*
X7636308Y6911925D02*
D03*
X7622389Y6898006D02*
D03*
X7608469Y6884087D02*
D03*
X7594550Y6870167D02*
D03*
X7580630Y6856248D02*
D03*
X7691986Y6967603D02*
D03*
X7705905Y6981523D02*
D03*
X7719824Y6995442D02*
D03*
X7733744Y7009361D02*
D03*
X7747663Y7023281D02*
D03*
X7761583Y7037200D02*
D03*
X7775502Y7051120D02*
D03*
X7789422Y7065039D02*
D03*
X7440044Y7219545D02*
D03*
X7453963Y7233464D02*
D03*
X7467883Y7247384D02*
D03*
X7481802Y7261303D02*
D03*
X7495722Y7275222D02*
D03*
X7509641Y7289142D02*
D03*
X7523561Y7303061D02*
D03*
X7537480Y7316981D02*
D03*
X7426125Y7205625D02*
D03*
X7412205Y7191706D02*
D03*
X7398286Y7177786D02*
D03*
X7384366Y7163867D02*
D03*
X7370447Y7149948D02*
D03*
X7356528Y7136028D02*
D03*
X7342608Y7122109D02*
D03*
X7328689Y7108189D02*
D03*
D154*
X6968504Y4855315D02*
D03*
X14383858Y3562992D02*
D03*
X13399606Y4389763D02*
D03*
Y3562992D02*
D03*
%TF.MD5,404174e7ad085fc18d8856048be713c0*%
M02*
