%TF.GenerationSoftware,Altium Limited,Altium Designer,22.5.1 (42)*%
G04 Layer_Color=16711935*
%FSLAX26Y26*%
%MOIN*%
%TF.SameCoordinates,3C46EB80-FEDE-48F7-A63F-DE7BBD85CC47*%
%TF.FilePolarity,Negative*%
%TF.FileFunction,Soldermask,Bot*%
%TF.Part,Single*%
G01*
G75*
%TA.AperFunction,SMDPad,CuDef*%
%ADD13R,0.035433X0.033465*%
%ADD14R,0.023622X0.023622*%
%ADD15R,0.049213X0.039370*%
%ADD16R,0.023622X0.023622*%
%ADD19R,0.039370X0.070866*%
%ADD20R,0.043307X0.094488*%
%ADD21R,0.039370X0.049213*%
%ADD35R,0.033465X0.035433*%
G04:AMPARAMS|DCode=36|XSize=39.37mil|YSize=49.213mil|CornerRadius=0mil|HoleSize=0mil|Usage=FLASHONLY|Rotation=45.000|XOffset=0mil|YOffset=0mil|HoleType=Round|Shape=Rectangle|*
%AMROTATEDRECTD36*
4,1,4,0.003480,-0.031319,-0.031319,0.003480,-0.003480,0.031319,0.031319,-0.003480,0.003480,-0.031319,0.0*
%
%ADD36ROTATEDRECTD36*%

G04:AMPARAMS|DCode=83|XSize=33.465mil|YSize=35.433mil|CornerRadius=0mil|HoleSize=0mil|Usage=FLASHONLY|Rotation=315.000|XOffset=0mil|YOffset=0mil|HoleType=Round|Shape=Rectangle|*
%AMROTATEDRECTD83*
4,1,4,-0.024359,-0.000696,0.000696,0.024359,0.024359,0.000696,-0.000696,-0.024359,-0.024359,-0.000696,0.0*
%
%ADD83ROTATEDRECTD83*%

G04:AMPARAMS|DCode=84|XSize=33.465mil|YSize=35.433mil|CornerRadius=0mil|HoleSize=0mil|Usage=FLASHONLY|Rotation=225.000|XOffset=0mil|YOffset=0mil|HoleType=Round|Shape=Rectangle|*
%AMROTATEDRECTD84*
4,1,4,-0.000696,0.024359,0.024359,-0.000696,0.000696,-0.024359,-0.024359,0.000696,-0.000696,0.024359,0.0*
%
%ADD84ROTATEDRECTD84*%

%ADD102R,0.015874X0.031622*%
%ADD103R,0.068236X0.115087*%
%ADD104R,0.115087X0.115087*%
%ADD105R,0.031622X0.017843*%
%ADD106R,0.031622X0.015874*%
%ADD107R,0.035165X0.019024*%
%ADD108R,0.019024X0.035165*%
%ADD109R,0.244220X0.244220*%
%ADD110R,0.015874X0.026701*%
%ADD111R,0.015748X0.015748*%
G04:AMPARAMS|DCode=112|XSize=15.874mil|YSize=19.811mil|CornerRadius=4.984mil|HoleSize=0mil|Usage=FLASHONLY|Rotation=90.000|XOffset=0mil|YOffset=0mil|HoleType=Round|Shape=RoundedRectangle|*
%AMROUNDEDRECTD112*
21,1,0.015874,0.009843,0,0,90.0*
21,1,0.005906,0.019811,0,0,90.0*
1,1,0.009968,0.004921,0.002953*
1,1,0.009968,0.004921,-0.002953*
1,1,0.009968,-0.004921,-0.002953*
1,1,0.009968,-0.004921,0.002953*
%
%ADD112ROUNDEDRECTD112*%
G04:AMPARAMS|DCode=113|XSize=15.874mil|YSize=19.811mil|CornerRadius=4.984mil|HoleSize=0mil|Usage=FLASHONLY|Rotation=0.000|XOffset=0mil|YOffset=0mil|HoleType=Round|Shape=RoundedRectangle|*
%AMROUNDEDRECTD113*
21,1,0.015874,0.009843,0,0,0.0*
21,1,0.005906,0.019811,0,0,0.0*
1,1,0.009968,0.002953,-0.004921*
1,1,0.009968,-0.002953,-0.004921*
1,1,0.009968,-0.002953,0.004921*
1,1,0.009968,0.002953,0.004921*
%
%ADD113ROUNDEDRECTD113*%
G04:AMPARAMS|DCode=114|XSize=47.37mil|YSize=63.118mil|CornerRadius=4.984mil|HoleSize=0mil|Usage=FLASHONLY|Rotation=180.000|XOffset=0mil|YOffset=0mil|HoleType=Round|Shape=RoundedRectangle|*
%AMROUNDEDRECTD114*
21,1,0.047370,0.053150,0,0,180.0*
21,1,0.037402,0.063118,0,0,180.0*
1,1,0.009968,-0.018701,0.026575*
1,1,0.009968,0.018701,0.026575*
1,1,0.009968,0.018701,-0.026575*
1,1,0.009968,-0.018701,-0.026575*
%
%ADD114ROUNDEDRECTD114*%
%ADD115R,0.053276X0.019024*%
%TA.AperFunction,Conductor*%
%ADD116R,0.031622X0.018827*%
%ADD117R,0.018827X0.053276*%
%TA.AperFunction,ComponentPad*%
%ADD118C,0.086740*%
%ADD119R,0.086740X0.086740*%
%ADD120C,0.244220*%
%ADD121C,0.051307*%
G04:AMPARAMS|DCode=122|XSize=59.181mil|YSize=47.37mil|CornerRadius=13.842mil|HoleSize=0mil|Usage=FLASHONLY|Rotation=90.000|XOffset=0mil|YOffset=0mil|HoleType=Round|Shape=RoundedRectangle|*
%AMROUNDEDRECTD122*
21,1,0.059181,0.019685,0,0,90.0*
21,1,0.031496,0.047370,0,0,90.0*
1,1,0.027685,0.009843,0.015748*
1,1,0.027685,0.009843,-0.015748*
1,1,0.027685,-0.009843,-0.015748*
1,1,0.027685,-0.009843,0.015748*
%
%ADD122ROUNDEDRECTD122*%
G04:AMPARAMS|DCode=123|XSize=98.551mil|YSize=47.37mil|CornerRadius=13.842mil|HoleSize=0mil|Usage=FLASHONLY|Rotation=90.000|XOffset=0mil|YOffset=0mil|HoleType=Round|Shape=RoundedRectangle|*
%AMROUNDEDRECTD123*
21,1,0.098551,0.019685,0,0,90.0*
21,1,0.070866,0.047370,0,0,90.0*
1,1,0.027685,0.009843,0.035433*
1,1,0.027685,0.009843,-0.035433*
1,1,0.027685,-0.009843,-0.035433*
1,1,0.027685,-0.009843,0.035433*
%
%ADD123ROUNDEDRECTD123*%
G04:AMPARAMS|DCode=124|XSize=82.803mil|YSize=47.37mil|CornerRadius=13.842mil|HoleSize=0mil|Usage=FLASHONLY|Rotation=270.000|XOffset=0mil|YOffset=0mil|HoleType=Round|Shape=RoundedRectangle|*
%AMROUNDEDRECTD124*
21,1,0.082803,0.019685,0,0,270.0*
21,1,0.055118,0.047370,0,0,270.0*
1,1,0.027685,-0.009843,-0.027559*
1,1,0.027685,-0.009843,0.027559*
1,1,0.027685,0.009843,0.027559*
1,1,0.027685,0.009843,-0.027559*
%
%ADD124ROUNDEDRECTD124*%
%TA.AperFunction,ViaPad*%
%ADD125C,0.019811*%
%ADD126C,0.126110*%
%ADD127C,0.035559*%
%ADD128C,0.027685*%
%ADD129C,0.047370*%
%ADD130C,0.165480*%
%ADD131C,0.025716*%
%ADD132C,0.021779*%
D13*
X7273622Y8836614D02*
D03*
Y8779528D02*
D03*
X7332677Y8836614D02*
D03*
Y8779528D02*
D03*
X7470472Y8836614D02*
D03*
Y8779528D02*
D03*
X7411417Y8242126D02*
D03*
Y8299213D02*
D03*
X7268701Y8212598D02*
D03*
Y8269685D02*
D03*
X7529528Y8243110D02*
D03*
Y8300197D02*
D03*
X7312992Y8242126D02*
D03*
Y8299213D02*
D03*
X8464567Y6760827D02*
D03*
Y6703740D02*
D03*
X7559055Y6760827D02*
D03*
Y6703740D02*
D03*
D14*
X8125243Y7810039D02*
D03*
Y7766732D02*
D03*
X8095243Y7810039D02*
D03*
Y7766732D02*
D03*
X7967992Y7810039D02*
D03*
Y7766732D02*
D03*
X7937992Y7810039D02*
D03*
Y7766732D02*
D03*
D15*
X9913386Y4153543D02*
D03*
Y4074803D02*
D03*
X9976378Y4153543D02*
D03*
Y4074803D02*
D03*
X10464567Y4153543D02*
D03*
Y4074803D02*
D03*
X10649606Y4055118D02*
D03*
Y3976378D02*
D03*
X10527559Y4153543D02*
D03*
Y4074803D02*
D03*
X11078740Y4153543D02*
D03*
Y4074803D02*
D03*
X11015748Y4153543D02*
D03*
Y4074803D02*
D03*
X10098425Y4055118D02*
D03*
Y3976378D02*
D03*
X11200787Y4055118D02*
D03*
Y3976378D02*
D03*
X11566929Y4153543D02*
D03*
Y4074803D02*
D03*
X11629921Y4153543D02*
D03*
Y4074803D02*
D03*
X11751969Y4055118D02*
D03*
Y3976378D02*
D03*
X8464567Y7401575D02*
D03*
Y7480315D02*
D03*
X7559055Y7401575D02*
D03*
Y7480315D02*
D03*
D16*
X8277559Y8075520D02*
D03*
X8320866D02*
D03*
X10478346Y3807087D02*
D03*
X10435039D02*
D03*
X9927165D02*
D03*
X9883858D02*
D03*
X11029528D02*
D03*
X10986220D02*
D03*
X11580709D02*
D03*
X11537402D02*
D03*
X8320866Y8105520D02*
D03*
X8277559D02*
D03*
X7758858Y7987205D02*
D03*
X7715551D02*
D03*
X7758858Y7957205D02*
D03*
X7715551D02*
D03*
D19*
X8527559Y3602362D02*
D03*
X8401575D02*
D03*
X8527559Y3484252D02*
D03*
X8401575D02*
D03*
D20*
X9708661Y4238189D02*
D03*
X9582677D02*
D03*
X10259843D02*
D03*
X10133858D02*
D03*
X10811024D02*
D03*
X10685039D02*
D03*
X11362205D02*
D03*
X11236220D02*
D03*
D21*
X9606299Y3962598D02*
D03*
X9685039D02*
D03*
X9606299Y4021653D02*
D03*
X9685039D02*
D03*
X9606299Y4080709D02*
D03*
X9685039D02*
D03*
X9606299Y4139764D02*
D03*
X9685039D02*
D03*
X10157480Y3962598D02*
D03*
X10236220D02*
D03*
X10157480Y4139764D02*
D03*
X10236220D02*
D03*
X10157480Y4080709D02*
D03*
X10236220D02*
D03*
X10157480Y4021653D02*
D03*
X10236220D02*
D03*
X10688976Y3897638D02*
D03*
X10610236D02*
D03*
X10708661Y4021653D02*
D03*
X10787402D02*
D03*
X10708661Y3962598D02*
D03*
X10787402D02*
D03*
X10708661Y4139764D02*
D03*
X10787402D02*
D03*
X10708661Y4080709D02*
D03*
X10787402D02*
D03*
X10137795Y3897638D02*
D03*
X10059055D02*
D03*
X11240157D02*
D03*
X11161417D02*
D03*
X11259843Y4021654D02*
D03*
X11338583D02*
D03*
X11259843Y3962598D02*
D03*
X11338583D02*
D03*
X11259843Y4139764D02*
D03*
X11338583D02*
D03*
X11259843Y4080709D02*
D03*
X11338583D02*
D03*
X11791339Y3897638D02*
D03*
X11712598D02*
D03*
D35*
X7693898Y8631890D02*
D03*
X7636811D02*
D03*
X7692913Y8533465D02*
D03*
X7635827D02*
D03*
X7692913Y8474409D02*
D03*
X7635827D02*
D03*
X7110236Y8671260D02*
D03*
X7167323D02*
D03*
X7693898Y8690945D02*
D03*
X7636811D02*
D03*
D36*
X7685319Y8827051D02*
D03*
X7629641Y8771374D02*
D03*
D83*
X8746549Y6984750D02*
D03*
X8786915Y6944384D02*
D03*
X8242624Y7294777D02*
D03*
X8202258Y7335144D02*
D03*
X8357782Y7397140D02*
D03*
X8317415Y7437506D02*
D03*
X8705210Y6943412D02*
D03*
X8745577Y6903045D02*
D03*
X8607770Y6845971D02*
D03*
X8648136Y6805604D02*
D03*
X7333175Y7298714D02*
D03*
X7292809Y7339081D02*
D03*
X7702258Y6845971D02*
D03*
X7742624Y6805604D02*
D03*
X7799699Y6943412D02*
D03*
X7840065Y6903045D02*
D03*
X7843006Y6986719D02*
D03*
X7883372Y6946352D02*
D03*
X7451286Y7400092D02*
D03*
X7410919Y7440459D02*
D03*
X8339081Y7338084D02*
D03*
X8298714Y7378451D02*
D03*
X8181600Y7192415D02*
D03*
X8141234Y7232782D02*
D03*
X7433569Y7338084D02*
D03*
X7393203Y7378451D02*
D03*
X7276089Y7192415D02*
D03*
X7235722Y7232782D02*
D03*
D84*
X8275104Y6910931D02*
D03*
X8234738Y6870565D02*
D03*
X8233766Y6953254D02*
D03*
X8193399Y6912888D02*
D03*
X8346955Y6843018D02*
D03*
X8306588Y6802651D02*
D03*
X7368608Y6909947D02*
D03*
X7328242Y6869581D02*
D03*
X7439475Y6842034D02*
D03*
X7399108Y6801667D02*
D03*
X7327270Y6953254D02*
D03*
X7286903Y6912888D02*
D03*
X8735722Y7180604D02*
D03*
X8776089Y7220971D02*
D03*
X7830211Y7180604D02*
D03*
X7870577Y7220971D02*
D03*
D102*
X10448819Y3862205D02*
D03*
X10527559Y4011811D02*
D03*
X10511811D02*
D03*
X10480315D02*
D03*
X10464567D02*
D03*
X10448819D02*
D03*
X10433071D02*
D03*
X10417323D02*
D03*
X10401575D02*
D03*
X10385827D02*
D03*
X10370079D02*
D03*
X10354331D02*
D03*
X10338583D02*
D03*
Y3862205D02*
D03*
X10354331D02*
D03*
X10370079D02*
D03*
X10385827D02*
D03*
X10401575D02*
D03*
X10417323D02*
D03*
X10433071D02*
D03*
X10464567D02*
D03*
X10480315D02*
D03*
X10496063D02*
D03*
X10511811D02*
D03*
X10527559D02*
D03*
X10496063Y4011811D02*
D03*
X9897638Y3862205D02*
D03*
X9976378Y4011811D02*
D03*
X9960630D02*
D03*
X9929134D02*
D03*
X9913386D02*
D03*
X9897638D02*
D03*
X9881890D02*
D03*
X9866142D02*
D03*
X9850394D02*
D03*
X9834646D02*
D03*
X9818898D02*
D03*
X9803149D02*
D03*
X9787401D02*
D03*
Y3862205D02*
D03*
X9803149D02*
D03*
X9818898D02*
D03*
X9834646D02*
D03*
X9850394D02*
D03*
X9866142D02*
D03*
X9881890D02*
D03*
X9913386D02*
D03*
X9929134D02*
D03*
X9944882D02*
D03*
X9960630D02*
D03*
X9976378D02*
D03*
X9944882Y4011811D02*
D03*
X11000000Y3862205D02*
D03*
X11078740Y4011811D02*
D03*
X11062992D02*
D03*
X11031496D02*
D03*
X11015748D02*
D03*
X11000000D02*
D03*
X10984252D02*
D03*
X10968504D02*
D03*
X10952756D02*
D03*
X10937008D02*
D03*
X10921260D02*
D03*
X10905512D02*
D03*
X10889764D02*
D03*
Y3862205D02*
D03*
X10905512D02*
D03*
X10921260D02*
D03*
X10937008D02*
D03*
X10952756D02*
D03*
X10968504D02*
D03*
X10984252D02*
D03*
X11015748D02*
D03*
X11031496D02*
D03*
X11047244D02*
D03*
X11062992D02*
D03*
X11078740D02*
D03*
X11047244Y4011811D02*
D03*
X11551181Y3862205D02*
D03*
X11629921Y4011811D02*
D03*
X11614173D02*
D03*
X11582677D02*
D03*
X11566929D02*
D03*
X11551181D02*
D03*
X11535433D02*
D03*
X11519685D02*
D03*
X11503937D02*
D03*
X11488189D02*
D03*
X11472441D02*
D03*
X11456693D02*
D03*
X11440945D02*
D03*
Y3862205D02*
D03*
X11456693D02*
D03*
X11472441D02*
D03*
X11488189D02*
D03*
X11503937D02*
D03*
X11519685D02*
D03*
X11535433D02*
D03*
X11566929D02*
D03*
X11582677D02*
D03*
X11598425D02*
D03*
X11614173D02*
D03*
X11629921D02*
D03*
X11598425Y4011811D02*
D03*
D103*
X10371654Y3937008D02*
D03*
X9820472D02*
D03*
X10922835D02*
D03*
X11474016D02*
D03*
D104*
X10471063D02*
D03*
X9919882D02*
D03*
X11022244D02*
D03*
X11573425D02*
D03*
D105*
X10318898Y3981299D02*
D03*
Y3892717D02*
D03*
X9767717Y3981299D02*
D03*
Y3892717D02*
D03*
X10870079Y3981299D02*
D03*
Y3892717D02*
D03*
X11421260Y3981299D02*
D03*
Y3892717D02*
D03*
D106*
X10318898Y3962599D02*
D03*
Y3944882D02*
D03*
Y3929134D02*
D03*
Y3911417D02*
D03*
X10547244Y3897638D02*
D03*
Y3913386D02*
D03*
Y3929134D02*
D03*
Y3944882D02*
D03*
Y3960630D02*
D03*
Y3976378D02*
D03*
X9767717Y3962599D02*
D03*
Y3944882D02*
D03*
Y3929134D02*
D03*
Y3911417D02*
D03*
X9996063Y3897638D02*
D03*
Y3913386D02*
D03*
Y3929134D02*
D03*
Y3944882D02*
D03*
Y3960630D02*
D03*
Y3976378D02*
D03*
X10870079Y3962599D02*
D03*
Y3944882D02*
D03*
Y3929134D02*
D03*
Y3911417D02*
D03*
X11098425Y3897638D02*
D03*
Y3913386D02*
D03*
Y3929134D02*
D03*
Y3944882D02*
D03*
Y3960630D02*
D03*
Y3976378D02*
D03*
X11421260Y3962599D02*
D03*
Y3944882D02*
D03*
Y3929134D02*
D03*
Y3911417D02*
D03*
X11649606Y3897638D02*
D03*
Y3913386D02*
D03*
Y3929134D02*
D03*
Y3944882D02*
D03*
Y3960630D02*
D03*
Y3976378D02*
D03*
D107*
X8189958Y7923228D02*
D03*
Y7942913D02*
D03*
Y7962598D02*
D03*
Y7982283D02*
D03*
Y8001968D02*
D03*
Y8021654D02*
D03*
Y8041338D02*
D03*
Y8061024D02*
D03*
Y8218504D02*
D03*
Y8198819D02*
D03*
Y8179134D02*
D03*
Y8159449D02*
D03*
Y8139764D02*
D03*
Y8120079D02*
D03*
Y8100394D02*
D03*
Y8080709D02*
D03*
X7833659Y8218504D02*
D03*
Y8198819D02*
D03*
Y8179134D02*
D03*
Y8159449D02*
D03*
Y8139764D02*
D03*
Y8120079D02*
D03*
Y8100394D02*
D03*
Y8080709D02*
D03*
Y7923228D02*
D03*
Y7942913D02*
D03*
Y7962598D02*
D03*
Y7982283D02*
D03*
Y8001968D02*
D03*
Y8021654D02*
D03*
Y8041338D02*
D03*
Y8061024D02*
D03*
D108*
X8159446Y8249016D02*
D03*
X8139761D02*
D03*
X8120076D02*
D03*
X8100391D02*
D03*
X8080706D02*
D03*
X8061021D02*
D03*
X8041336D02*
D03*
X8021651D02*
D03*
X7864171D02*
D03*
X7883856D02*
D03*
X7903541D02*
D03*
X7923226D02*
D03*
X7942911D02*
D03*
X7962596D02*
D03*
X7982281D02*
D03*
X8001966D02*
D03*
X7864171Y7892717D02*
D03*
X7883856D02*
D03*
X7903541D02*
D03*
X7923226D02*
D03*
X7942911D02*
D03*
X7962596D02*
D03*
X7982281D02*
D03*
X8001966D02*
D03*
X8159446D02*
D03*
X8139761D02*
D03*
X8120076D02*
D03*
X8100391D02*
D03*
X8080706D02*
D03*
X8061021D02*
D03*
X8041336D02*
D03*
X8021651D02*
D03*
D109*
X8011809Y8070866D02*
D03*
D110*
X8661417Y5689961D02*
D03*
X8641732D02*
D03*
X8622047D02*
D03*
X8602362D02*
D03*
X8582677D02*
D03*
Y5727362D02*
D03*
X8602362D02*
D03*
X8622047D02*
D03*
X8641732D02*
D03*
X8661417D02*
D03*
X7322835Y5689961D02*
D03*
X7303150D02*
D03*
X7283465D02*
D03*
X7263780D02*
D03*
X7244095D02*
D03*
Y5727362D02*
D03*
X7263779D02*
D03*
X7283465D02*
D03*
X7303150D02*
D03*
X7322835D02*
D03*
X8228346Y5689961D02*
D03*
X8208662D02*
D03*
X8188976D02*
D03*
X8169291D02*
D03*
X8149606D02*
D03*
Y5727362D02*
D03*
X8169291D02*
D03*
X8188976D02*
D03*
X8208661D02*
D03*
X8228346D02*
D03*
X7755906Y5689961D02*
D03*
X7736221D02*
D03*
X7716535D02*
D03*
X7696850D02*
D03*
X7677165D02*
D03*
Y5727362D02*
D03*
X7696850D02*
D03*
X7716535D02*
D03*
X7736221D02*
D03*
X7755906D02*
D03*
D111*
X7280512Y4777559D02*
D03*
Y4750000D02*
D03*
X7247047Y4763779D02*
D03*
X8186024Y4187008D02*
D03*
Y4159449D02*
D03*
X8152559Y4173228D02*
D03*
X8186024Y4777559D02*
D03*
Y4750000D02*
D03*
X8152559Y4763779D02*
D03*
X7713583Y4777559D02*
D03*
Y4750000D02*
D03*
X7680118Y4763779D02*
D03*
X8619094Y4187008D02*
D03*
Y4159449D02*
D03*
X8585630Y4173228D02*
D03*
X7713583Y4187008D02*
D03*
Y4159449D02*
D03*
X7680118Y4173228D02*
D03*
X8619094Y4777559D02*
D03*
Y4750000D02*
D03*
X8585630Y4763779D02*
D03*
X7280512Y4187008D02*
D03*
Y4159449D02*
D03*
X7247047Y4173228D02*
D03*
D112*
X8222441Y5535433D02*
D03*
Y5519685D02*
D03*
Y5503937D02*
D03*
Y5488189D02*
D03*
X8155512D02*
D03*
Y5503937D02*
D03*
Y5519685D02*
D03*
Y5535433D02*
D03*
X8655512D02*
D03*
Y5519685D02*
D03*
Y5503937D02*
D03*
Y5488189D02*
D03*
X8588583D02*
D03*
Y5503937D02*
D03*
Y5519685D02*
D03*
Y5535433D02*
D03*
X7683071D02*
D03*
Y5519685D02*
D03*
Y5503937D02*
D03*
Y5488189D02*
D03*
X7750000D02*
D03*
Y5503937D02*
D03*
Y5519685D02*
D03*
Y5535433D02*
D03*
X7316929D02*
D03*
Y5519685D02*
D03*
Y5503937D02*
D03*
Y5488189D02*
D03*
X7250000D02*
D03*
Y5503937D02*
D03*
Y5519685D02*
D03*
Y5535433D02*
D03*
D113*
X8220472Y5470472D02*
D03*
X8204724D02*
D03*
X8188976D02*
D03*
X8173228D02*
D03*
X8157480D02*
D03*
Y5553150D02*
D03*
X8173228D02*
D03*
X8188976D02*
D03*
X8204724D02*
D03*
X8220472D02*
D03*
X8653543Y5470472D02*
D03*
X8637795D02*
D03*
X8622047D02*
D03*
X8606299D02*
D03*
X8590551D02*
D03*
Y5553150D02*
D03*
X8606299D02*
D03*
X8622047D02*
D03*
X8637795D02*
D03*
X8653543D02*
D03*
X7748032D02*
D03*
X7732283D02*
D03*
X7716535D02*
D03*
X7700788D02*
D03*
X7685039D02*
D03*
Y5470472D02*
D03*
X7700788D02*
D03*
X7716535D02*
D03*
X7732283D02*
D03*
X7748032D02*
D03*
X7314961D02*
D03*
X7299213D02*
D03*
X7283465D02*
D03*
X7267717D02*
D03*
X7251968D02*
D03*
Y5553150D02*
D03*
X7267717D02*
D03*
X7283465D02*
D03*
X7299213D02*
D03*
X7314961D02*
D03*
D114*
X8188976Y5511811D02*
D03*
X8622047D02*
D03*
X7716535D02*
D03*
X7283465D02*
D03*
D115*
X7437992Y4655512D02*
D03*
Y4675197D02*
D03*
Y4694882D02*
D03*
Y4714567D02*
D03*
Y4734252D02*
D03*
Y4753937D02*
D03*
Y4773622D02*
D03*
Y4793307D02*
D03*
Y4812992D02*
D03*
Y4832677D02*
D03*
Y4852362D02*
D03*
Y4872047D02*
D03*
X7365158D02*
D03*
Y4852362D02*
D03*
Y4832677D02*
D03*
Y4812992D02*
D03*
Y4793307D02*
D03*
Y4773622D02*
D03*
Y4753937D02*
D03*
Y4734252D02*
D03*
Y4714567D02*
D03*
Y4694882D02*
D03*
Y4675197D02*
D03*
Y4655512D02*
D03*
X8343504Y4064961D02*
D03*
Y4084646D02*
D03*
Y4104331D02*
D03*
Y4124016D02*
D03*
Y4143701D02*
D03*
Y4163386D02*
D03*
Y4183071D02*
D03*
Y4202756D02*
D03*
Y4222441D02*
D03*
Y4242126D02*
D03*
Y4261811D02*
D03*
Y4281496D02*
D03*
X8270669D02*
D03*
Y4261811D02*
D03*
Y4242126D02*
D03*
Y4222441D02*
D03*
Y4202756D02*
D03*
Y4183071D02*
D03*
Y4163386D02*
D03*
Y4143701D02*
D03*
Y4124016D02*
D03*
Y4104331D02*
D03*
Y4084646D02*
D03*
Y4064961D02*
D03*
X8776575Y4655512D02*
D03*
Y4675197D02*
D03*
Y4694882D02*
D03*
Y4714567D02*
D03*
Y4734252D02*
D03*
Y4753937D02*
D03*
Y4773622D02*
D03*
Y4793307D02*
D03*
Y4812992D02*
D03*
Y4832677D02*
D03*
Y4852362D02*
D03*
Y4872047D02*
D03*
X8703740D02*
D03*
Y4852362D02*
D03*
Y4832677D02*
D03*
Y4812992D02*
D03*
Y4793307D02*
D03*
Y4773622D02*
D03*
Y4753937D02*
D03*
Y4734252D02*
D03*
Y4714567D02*
D03*
Y4694882D02*
D03*
Y4675197D02*
D03*
Y4655512D02*
D03*
X8343504D02*
D03*
Y4675197D02*
D03*
Y4694882D02*
D03*
Y4714567D02*
D03*
Y4734252D02*
D03*
Y4753937D02*
D03*
Y4773622D02*
D03*
Y4793307D02*
D03*
Y4812992D02*
D03*
Y4832677D02*
D03*
Y4852362D02*
D03*
Y4872047D02*
D03*
X8270669D02*
D03*
Y4852362D02*
D03*
Y4832677D02*
D03*
Y4812992D02*
D03*
Y4793307D02*
D03*
Y4773622D02*
D03*
Y4753937D02*
D03*
Y4734252D02*
D03*
Y4714567D02*
D03*
Y4694882D02*
D03*
Y4675197D02*
D03*
Y4655512D02*
D03*
X8776575Y4064961D02*
D03*
Y4084646D02*
D03*
Y4104331D02*
D03*
Y4124016D02*
D03*
Y4143701D02*
D03*
Y4163386D02*
D03*
Y4183071D02*
D03*
Y4202756D02*
D03*
Y4222441D02*
D03*
Y4242126D02*
D03*
Y4261811D02*
D03*
Y4281496D02*
D03*
X8703740D02*
D03*
Y4261811D02*
D03*
Y4242126D02*
D03*
Y4222441D02*
D03*
Y4202756D02*
D03*
Y4183071D02*
D03*
Y4163386D02*
D03*
Y4143701D02*
D03*
Y4124016D02*
D03*
Y4104331D02*
D03*
Y4084646D02*
D03*
Y4064961D02*
D03*
X7871063D02*
D03*
Y4084646D02*
D03*
Y4104331D02*
D03*
Y4124016D02*
D03*
Y4143701D02*
D03*
Y4163386D02*
D03*
Y4183071D02*
D03*
Y4202756D02*
D03*
Y4222441D02*
D03*
Y4242126D02*
D03*
Y4261811D02*
D03*
Y4281496D02*
D03*
X7798228D02*
D03*
Y4261811D02*
D03*
Y4242126D02*
D03*
Y4222441D02*
D03*
Y4202756D02*
D03*
Y4183071D02*
D03*
Y4163386D02*
D03*
Y4143701D02*
D03*
Y4124016D02*
D03*
Y4104331D02*
D03*
Y4084646D02*
D03*
Y4064961D02*
D03*
X7871063Y4655512D02*
D03*
Y4675197D02*
D03*
Y4694882D02*
D03*
Y4714567D02*
D03*
Y4734252D02*
D03*
Y4753937D02*
D03*
Y4773622D02*
D03*
Y4793307D02*
D03*
Y4812992D02*
D03*
Y4832677D02*
D03*
Y4852362D02*
D03*
Y4872047D02*
D03*
X7798228D02*
D03*
Y4852362D02*
D03*
Y4832677D02*
D03*
Y4812992D02*
D03*
Y4793307D02*
D03*
Y4773622D02*
D03*
Y4753937D02*
D03*
Y4734252D02*
D03*
Y4714567D02*
D03*
Y4694882D02*
D03*
Y4675197D02*
D03*
Y4655512D02*
D03*
X7437992Y4064961D02*
D03*
Y4084646D02*
D03*
Y4104331D02*
D03*
Y4124016D02*
D03*
Y4143701D02*
D03*
Y4163386D02*
D03*
Y4183071D02*
D03*
Y4202756D02*
D03*
Y4222441D02*
D03*
Y4242126D02*
D03*
Y4261811D02*
D03*
Y4281496D02*
D03*
X7365158D02*
D03*
Y4261811D02*
D03*
Y4242126D02*
D03*
Y4222441D02*
D03*
Y4202756D02*
D03*
Y4183071D02*
D03*
Y4163386D02*
D03*
Y4143701D02*
D03*
Y4124016D02*
D03*
Y4104331D02*
D03*
Y4084646D02*
D03*
Y4064961D02*
D03*
D116*
X10440952Y4005413D02*
D03*
X10472441Y4005420D02*
D03*
X9889765Y4005413D02*
D03*
X9921260Y4005415D02*
D03*
X10992134Y4005413D02*
D03*
X11023622Y4005421D02*
D03*
X11543315Y4005413D02*
D03*
X11574803Y4005420D02*
D03*
D117*
X10325292Y3910433D02*
D03*
Y3963583D02*
D03*
X9774108Y3910433D02*
D03*
Y3963583D02*
D03*
X10876474Y3910433D02*
D03*
Y3963583D02*
D03*
X11427655Y3910433D02*
D03*
Y3963583D02*
D03*
D118*
X5288543Y3830000D02*
D03*
X5188543D02*
D03*
X5088543D02*
D03*
X943307Y4851575D02*
D03*
X1143307D02*
D03*
X1043307D02*
D03*
X843307Y4951575D02*
D03*
X943307D02*
D03*
X1043307D02*
D03*
X1143307D02*
D03*
X1243307D02*
D03*
Y4851575D02*
D03*
X843307D02*
D03*
X7225591Y11538583D02*
D03*
Y11438583D02*
D03*
Y11338583D02*
D03*
Y11238583D02*
D03*
Y11138583D02*
D03*
X7325591D02*
D03*
Y11238583D02*
D03*
Y11338583D02*
D03*
Y11438583D02*
D03*
Y11538583D02*
D03*
X14898425Y4951575D02*
D03*
X14998425D02*
D03*
X15098425D02*
D03*
X15198425D02*
D03*
X15298425D02*
D03*
Y4851575D02*
D03*
X15198425D02*
D03*
X15098425D02*
D03*
X14998425D02*
D03*
X14898425D02*
D03*
X8916142Y11138583D02*
D03*
Y11238583D02*
D03*
Y11338583D02*
D03*
Y11438583D02*
D03*
Y11538583D02*
D03*
X8816142D02*
D03*
Y11438583D02*
D03*
Y11338583D02*
D03*
Y11238583D02*
D03*
Y11138583D02*
D03*
X6188543Y3730000D02*
D03*
X6088543Y3830000D02*
D03*
Y3730000D02*
D03*
X5988543Y3830000D02*
D03*
Y3730000D02*
D03*
X5888543Y3830000D02*
D03*
Y3730000D02*
D03*
X5788543Y3830000D02*
D03*
Y3730000D02*
D03*
X5688543Y3830000D02*
D03*
Y3730000D02*
D03*
X5588543Y3830000D02*
D03*
Y3730000D02*
D03*
X5488543Y3830000D02*
D03*
Y3730000D02*
D03*
X5388543Y3830000D02*
D03*
Y3730000D02*
D03*
X5288543D02*
D03*
X5188543D02*
D03*
X5088543D02*
D03*
X4988543Y3830000D02*
D03*
Y3730000D02*
D03*
X4888543Y3830000D02*
D03*
Y3730000D02*
D03*
X4788543Y3830000D02*
D03*
Y3730000D02*
D03*
X4688543Y3830000D02*
D03*
Y3730000D02*
D03*
X4588543Y3830000D02*
D03*
Y3730000D02*
D03*
X4488543Y3830000D02*
D03*
Y3730000D02*
D03*
X4388543Y3830000D02*
D03*
Y3730000D02*
D03*
X4288543Y3830000D02*
D03*
Y3730000D02*
D03*
D119*
X6188543Y3830000D02*
D03*
D120*
X6377953Y3779528D02*
D03*
X6377953Y4685039D02*
D03*
X4094488D02*
D03*
Y3779528D02*
D03*
D121*
X8165354Y10781496D02*
D03*
X7976378D02*
D03*
Y10950787D02*
D03*
X8165354D02*
D03*
Y10190945D02*
D03*
X7976378D02*
D03*
Y10360236D02*
D03*
X8165354D02*
D03*
Y9600394D02*
D03*
X7976378D02*
D03*
Y9769685D02*
D03*
X8165354D02*
D03*
Y9009843D02*
D03*
X7976378D02*
D03*
Y9179134D02*
D03*
X8165354D02*
D03*
D122*
X7401575Y4605905D02*
D03*
Y4921653D02*
D03*
X8307087Y4015354D02*
D03*
Y4331102D02*
D03*
X8740157Y4605905D02*
D03*
Y4921653D02*
D03*
X8307087Y4605905D02*
D03*
Y4921653D02*
D03*
X8740157Y4015354D02*
D03*
Y4331102D02*
D03*
X7834646Y4015354D02*
D03*
Y4331102D02*
D03*
Y4605905D02*
D03*
Y4921653D02*
D03*
X7401575Y4015354D02*
D03*
Y4331102D02*
D03*
D123*
X7511811Y4763779D02*
D03*
X8417323Y4173228D02*
D03*
X8850394Y4763779D02*
D03*
X8417323D02*
D03*
X8850394Y4173228D02*
D03*
X7944882D02*
D03*
Y4763779D02*
D03*
X7511811Y4173228D02*
D03*
D124*
X7291339Y4694882D02*
D03*
Y4832677D02*
D03*
X8196850Y4104331D02*
D03*
Y4242126D02*
D03*
X8629921Y4694882D02*
D03*
Y4832677D02*
D03*
X8196850Y4694882D02*
D03*
Y4832677D02*
D03*
X8629921Y4104331D02*
D03*
Y4242126D02*
D03*
X7724409Y4104331D02*
D03*
Y4242126D02*
D03*
Y4694882D02*
D03*
Y4832677D02*
D03*
X7291339Y4104331D02*
D03*
Y4242126D02*
D03*
D125*
X7615158Y7928147D02*
D03*
Y7912399D02*
D03*
X9115157Y3942913D02*
D03*
Y4021653D02*
D03*
X11641732Y4503937D02*
D03*
X11582677D02*
D03*
X9115157Y4001968D02*
D03*
Y3982284D02*
D03*
Y3962598D02*
D03*
X11582677Y3827756D02*
D03*
X11031496D02*
D03*
X10480315D02*
D03*
X9929134D02*
D03*
X11582677Y4833661D02*
D03*
X11031496D02*
D03*
X10480315D02*
D03*
X9929134D02*
D03*
X11440945Y4612205D02*
D03*
X10889764D02*
D03*
X10338583D02*
D03*
X9787402D02*
D03*
X9803149Y4030512D02*
D03*
X10354331D02*
D03*
X10905512D02*
D03*
X11456693D02*
D03*
X9889764Y4442303D02*
D03*
X9904528Y4454646D02*
D03*
X9919291Y4466988D02*
D03*
X11676181Y3897106D02*
D03*
X11125000D02*
D03*
X10573819D02*
D03*
X10022638D02*
D03*
X9267717Y3867126D02*
D03*
X9240157D02*
D03*
X9206693D02*
D03*
X9542323Y4173228D02*
D03*
X9500984D02*
D03*
X9521654D02*
D03*
X9480315D02*
D03*
X11679134Y4779528D02*
D03*
X11127953D02*
D03*
X10576772D02*
D03*
X9176181Y3867126D02*
D03*
X10025591Y4779528D02*
D03*
X7230315Y4173228D02*
D03*
X7336614Y5346457D02*
D03*
X7336614Y5088583D02*
D03*
X7769685Y5346457D02*
D03*
X7769685Y5088583D02*
D03*
X8242126Y5346457D02*
D03*
X8242126Y5088583D02*
D03*
X8675197D02*
D03*
X8675197Y5346457D02*
D03*
X8703740Y4734252D02*
D03*
X8270669D02*
D03*
X7798228D02*
D03*
X7365158D02*
D03*
X7643701Y4281496D02*
D03*
X8076772D02*
D03*
X8549213D02*
D03*
X8982283D02*
D03*
X11468504Y4618110D02*
D03*
X11492126D02*
D03*
X10917323D02*
D03*
X10940945D02*
D03*
X10366142D02*
D03*
X10389764D02*
D03*
X9838583D02*
D03*
X9814960D02*
D03*
X9944882Y4830709D02*
D03*
X9972441D02*
D03*
X10496063D02*
D03*
X10523622D02*
D03*
X11598425D02*
D03*
X11625984D02*
D03*
X11074803D02*
D03*
X11047244D02*
D03*
X8663386Y3772638D02*
D03*
X8230315D02*
D03*
X7757874D02*
D03*
X7324803D02*
D03*
X7477362Y4202756D02*
D03*
X7910433D02*
D03*
X8382874D02*
D03*
X8815945D02*
D03*
X10389764Y4043307D02*
D03*
X10366142D02*
D03*
X10496063Y3830709D02*
D03*
X10523622D02*
D03*
X9972441D02*
D03*
X9944882D02*
D03*
X11625984D02*
D03*
X11598425D02*
D03*
X11047244D02*
D03*
X11074803D02*
D03*
X9814960Y4043307D02*
D03*
X9838583D02*
D03*
X10917323D02*
D03*
X10940945D02*
D03*
X11492126D02*
D03*
X11468504D02*
D03*
X8215551Y8500984D02*
D03*
X8199803D02*
D03*
X8023622Y8398622D02*
D03*
X8007874D02*
D03*
X8133858D02*
D03*
X8118110D02*
D03*
X8070866Y8976378D02*
D03*
Y9566929D02*
D03*
Y10157480D02*
D03*
Y10748031D02*
D03*
X8041339Y8280512D02*
D03*
X8021654D02*
D03*
X8001969D02*
D03*
X7982283D02*
D03*
X7470472Y8750984D02*
D03*
X7268701Y8307087D02*
D03*
X7332677Y8750000D02*
D03*
X7273622D02*
D03*
X7194882Y8671260D02*
D03*
X7312992Y8336614D02*
D03*
X7411417D02*
D03*
X7529528D02*
D03*
X7608268Y8474409D02*
D03*
Y8533465D02*
D03*
Y8631890D02*
D03*
Y8690945D02*
D03*
X8279557Y8201570D02*
D03*
X8231297Y8061026D02*
D03*
X7792320Y8198817D02*
D03*
Y8139761D02*
D03*
Y8001966D02*
D03*
X7923228Y7851378D02*
D03*
X8021654D02*
D03*
X8080709D02*
D03*
X8231297Y7942916D02*
D03*
Y8159451D02*
D03*
X7883853Y8290354D02*
D03*
X7864173Y7851378D02*
D03*
X8776575Y4163386D02*
D03*
Y4183071D02*
D03*
X8703740Y4163386D02*
D03*
Y4183071D02*
D03*
X8343504Y4163386D02*
D03*
Y4183071D02*
D03*
X8270669Y4163386D02*
D03*
Y4183071D02*
D03*
X7871063Y4163386D02*
D03*
Y4183071D02*
D03*
X7798228Y4163386D02*
D03*
Y4183071D02*
D03*
X8569882Y6756890D02*
D03*
X8263920Y6983128D02*
D03*
X8305678Y6941370D02*
D03*
X8375275Y6871773D02*
D03*
X8568053Y6885967D02*
D03*
X8665489Y6983403D02*
D03*
X8707248Y7025161D02*
D03*
X8392717Y7365158D02*
D03*
X8273622Y7262795D02*
D03*
X8708662Y7149606D02*
D03*
X8464567Y6808226D02*
D03*
X8375000Y7301181D02*
D03*
X8221887Y7148068D02*
D03*
X7368110Y7263779D02*
D03*
X7487205Y7365158D02*
D03*
X7801736Y7025161D02*
D03*
X7759977Y6983403D02*
D03*
X7662541Y6885967D02*
D03*
X7469763Y6871773D02*
D03*
X7400166Y6941370D02*
D03*
X7358408Y6983128D02*
D03*
X8221886Y7148067D02*
D03*
X7316374D02*
D03*
X8375000Y7301181D02*
D03*
X7469488D02*
D03*
X8708661Y7149606D02*
D03*
X8464567Y6808226D02*
D03*
X7559055D02*
D03*
X7803150Y7149606D02*
D03*
X7615155Y7964567D02*
D03*
Y7980315D02*
D03*
Y8023622D02*
D03*
Y8039370D02*
D03*
X7885824Y7674213D02*
D03*
X7901572D02*
D03*
X7944880D02*
D03*
X7960627D02*
D03*
X7984250D02*
D03*
X7999998D02*
D03*
X8141730D02*
D03*
X8157478D02*
D03*
X8102360D02*
D03*
X8118108D02*
D03*
X8059053D02*
D03*
X8043305D02*
D03*
X7224410Y6901575D02*
D03*
X7240158D02*
D03*
X7220472Y6603347D02*
D03*
X7236221D02*
D03*
X7669291D02*
D03*
X7653543D02*
D03*
X7648622Y6756890D02*
D03*
X7664370D02*
D03*
X8554134D02*
D03*
X8559055Y6603347D02*
D03*
X8574803D02*
D03*
X8141732D02*
D03*
X8125984D02*
D03*
X8145669Y6901575D02*
D03*
X8129921D02*
D03*
X8776575Y4104331D02*
D03*
Y4084646D02*
D03*
Y4261811D02*
D03*
Y4242126D02*
D03*
X8703740Y4104331D02*
D03*
Y4084646D02*
D03*
Y4242126D02*
D03*
Y4261811D02*
D03*
X8343504Y4104331D02*
D03*
Y4084646D02*
D03*
Y4261811D02*
D03*
Y4242126D02*
D03*
X8270669Y4104331D02*
D03*
Y4084646D02*
D03*
Y4242126D02*
D03*
Y4261811D02*
D03*
X7871063Y4104331D02*
D03*
Y4084646D02*
D03*
Y4261811D02*
D03*
Y4242126D02*
D03*
X7798228Y4104331D02*
D03*
Y4084646D02*
D03*
Y4242126D02*
D03*
Y4261811D02*
D03*
X8494094Y5088583D02*
D03*
X8478346D02*
D03*
X8061024D02*
D03*
X8045276D02*
D03*
X7155512D02*
D03*
X7139764D02*
D03*
X7572835D02*
D03*
X7588583D02*
D03*
X8703740Y4773622D02*
D03*
Y4753937D02*
D03*
X8776575Y4773622D02*
D03*
Y4753937D02*
D03*
X8545709Y5089567D02*
D03*
X8561457D02*
D03*
X8270669Y4773622D02*
D03*
Y4753937D02*
D03*
X8343504Y4773622D02*
D03*
Y4753937D02*
D03*
X8112638Y5089567D02*
D03*
X8128386D02*
D03*
X7798228Y4773622D02*
D03*
Y4753937D02*
D03*
X7871063Y4773622D02*
D03*
Y4753937D02*
D03*
X7640197Y5089567D02*
D03*
X7655945D02*
D03*
X7222874D02*
D03*
X7207126D02*
D03*
X8602362Y4763779D02*
D03*
X8169291D02*
D03*
X7696850D02*
D03*
X8568898Y4173228D02*
D03*
X8135827D02*
D03*
X7663386D02*
D03*
X7263779Y4763779D02*
D03*
X7365158Y4183071D02*
D03*
Y4163386D02*
D03*
X7437992Y4183071D02*
D03*
Y4163386D02*
D03*
X7365158Y4261811D02*
D03*
Y4242126D02*
D03*
Y4084646D02*
D03*
Y4104331D02*
D03*
X7437992Y4242126D02*
D03*
Y4261811D02*
D03*
Y4084646D02*
D03*
Y4104331D02*
D03*
X8703740Y4832677D02*
D03*
Y4852362D02*
D03*
X8776575Y4832677D02*
D03*
Y4852362D02*
D03*
X8703740Y4675197D02*
D03*
Y4694882D02*
D03*
X8776575Y4675197D02*
D03*
Y4694882D02*
D03*
X8270669Y4832677D02*
D03*
Y4852362D02*
D03*
X8343504Y4832677D02*
D03*
Y4852362D02*
D03*
X8270669Y4675197D02*
D03*
Y4694882D02*
D03*
X8343504Y4675197D02*
D03*
Y4694882D02*
D03*
X7798228Y4832677D02*
D03*
Y4852362D02*
D03*
X7871063Y4832677D02*
D03*
Y4852362D02*
D03*
X7798228Y4675197D02*
D03*
Y4694882D02*
D03*
X7871063Y4675197D02*
D03*
Y4694882D02*
D03*
X7437992D02*
D03*
Y4675197D02*
D03*
X7365158Y4694882D02*
D03*
Y4675197D02*
D03*
X7437992Y4852362D02*
D03*
Y4832677D02*
D03*
X7365158Y4852362D02*
D03*
Y4832677D02*
D03*
X7437992Y4753937D02*
D03*
Y4773622D02*
D03*
X7365158Y4753937D02*
D03*
Y4773622D02*
D03*
D126*
X8641732Y3543307D02*
D03*
X9173228Y3582677D02*
D03*
D127*
X12624016Y4848425D02*
D03*
X8527559Y3484252D02*
D03*
X8401575D02*
D03*
X8527559Y3602362D02*
D03*
X8401575D02*
D03*
X11131891Y4937008D02*
D03*
X9478347D02*
D03*
X10029528D02*
D03*
X10580709D02*
D03*
X9448819Y3704724D02*
D03*
X10000000D02*
D03*
X10551181D02*
D03*
X11102362D02*
D03*
X7635827Y8314961D02*
D03*
X7642717Y7435039D02*
D03*
X8530512Y8214567D02*
D03*
Y8295276D02*
D03*
X8031494Y8090551D02*
D03*
Y8129921D02*
D03*
Y8169291D02*
D03*
X7992124Y8090551D02*
D03*
Y8129921D02*
D03*
Y8169291D02*
D03*
X7952753Y8090551D02*
D03*
Y8129921D02*
D03*
Y8169291D02*
D03*
X7913383Y8090551D02*
D03*
Y8129921D02*
D03*
Y8169291D02*
D03*
X8070864Y8090551D02*
D03*
Y8129921D02*
D03*
Y8169291D02*
D03*
X8110234D02*
D03*
Y8129921D02*
D03*
Y8090551D02*
D03*
X7992124Y8051181D02*
D03*
Y8011811D02*
D03*
Y7972441D02*
D03*
X8031494Y8051181D02*
D03*
Y8011811D02*
D03*
Y7972441D02*
D03*
X8070864Y8051181D02*
D03*
Y8011811D02*
D03*
Y7972441D02*
D03*
X8110234Y8051181D02*
D03*
Y8011811D02*
D03*
Y7972441D02*
D03*
X7952753Y8051181D02*
D03*
Y8011811D02*
D03*
Y7972441D02*
D03*
X7913383D02*
D03*
Y8011811D02*
D03*
Y8051181D02*
D03*
X7421260Y8641732D02*
D03*
X7460630D02*
D03*
X7500000D02*
D03*
Y8602362D02*
D03*
X7460630D02*
D03*
X7421260D02*
D03*
X7500000Y8444882D02*
D03*
X7460630D02*
D03*
X7421260D02*
D03*
X7500000Y8484252D02*
D03*
X7460630D02*
D03*
X7421260D02*
D03*
X7500000Y8523622D02*
D03*
X7460630D02*
D03*
X7421260D02*
D03*
X7500000Y8562992D02*
D03*
X7460630D02*
D03*
X7421260D02*
D03*
X7381890Y8444882D02*
D03*
X7342520D02*
D03*
X7303150D02*
D03*
Y8484252D02*
D03*
X7342520D02*
D03*
X7381890D02*
D03*
X7303150Y8641732D02*
D03*
X7342520D02*
D03*
X7381890D02*
D03*
X7303150Y8602362D02*
D03*
X7342520D02*
D03*
X7381890D02*
D03*
X7303150Y8562992D02*
D03*
X7342520D02*
D03*
X7381890D02*
D03*
X7303150Y8523622D02*
D03*
X7342520D02*
D03*
X7381890D02*
D03*
X8520245Y7003098D02*
D03*
X8492406Y6975259D02*
D03*
X8464567Y6947420D02*
D03*
X8436728Y6975259D02*
D03*
X8464567Y7003098D02*
D03*
X8492406Y7030936D02*
D03*
X8325373Y7086614D02*
D03*
X8353211Y7114453D02*
D03*
X8381050Y7142292D02*
D03*
X8353211Y7058775D02*
D03*
X8381050Y7086614D02*
D03*
X8408889Y7114453D02*
D03*
X8381050Y7030936D02*
D03*
X8408889Y7058775D02*
D03*
X8436728Y7086614D02*
D03*
X8408889Y7003098D02*
D03*
X8436728Y7030936D02*
D03*
X8464567Y7058775D02*
D03*
X8408889Y7170131D02*
D03*
X8436728Y7197970D02*
D03*
X8464567Y7225809D02*
D03*
X8492406Y7197970D02*
D03*
X8464567Y7170131D02*
D03*
X8436728Y7142292D02*
D03*
X8603761Y7086614D02*
D03*
X8575922Y7058775D02*
D03*
X8548083Y7030936D02*
D03*
X8575922Y7114453D02*
D03*
X8548083Y7086614D02*
D03*
X8520245Y7058775D02*
D03*
X8548083Y7142292D02*
D03*
X8520245Y7114453D02*
D03*
X8492406Y7086614D02*
D03*
X8520245Y7170131D02*
D03*
X8492406Y7142292D02*
D03*
X8464567Y7114453D02*
D03*
X7614733Y7003098D02*
D03*
X7586894Y6975259D02*
D03*
X7559055Y6947420D02*
D03*
X7531216Y6975259D02*
D03*
X7559055Y7003098D02*
D03*
X7586894Y7030936D02*
D03*
X7419861Y7086614D02*
D03*
X7447700Y7114453D02*
D03*
X7475539Y7142292D02*
D03*
X7447700Y7058775D02*
D03*
X7475539Y7086614D02*
D03*
X7503377Y7114453D02*
D03*
X7475539Y7030936D02*
D03*
X7503377Y7058775D02*
D03*
X7531216Y7086614D02*
D03*
X7503377Y7003098D02*
D03*
X7531216Y7030936D02*
D03*
X7559055Y7058775D02*
D03*
X7503377Y7170131D02*
D03*
X7531216Y7197970D02*
D03*
X7559055Y7225809D02*
D03*
X7586894Y7197970D02*
D03*
X7559055Y7170131D02*
D03*
X7531216Y7142292D02*
D03*
X7698249Y7086614D02*
D03*
X7670410Y7058775D02*
D03*
X7642572Y7030936D02*
D03*
X7670410Y7114453D02*
D03*
X7642572Y7086614D02*
D03*
X7614733Y7058775D02*
D03*
X7642572Y7142292D02*
D03*
X7614733Y7114453D02*
D03*
X7586894Y7086614D02*
D03*
X7614733Y7170131D02*
D03*
X7586894Y7142292D02*
D03*
X7559055Y7114453D02*
D03*
D128*
X11948819Y4389764D02*
D03*
X11299213Y4606299D02*
D03*
Y4685039D02*
D03*
X10748031Y4606299D02*
D03*
Y4685039D02*
D03*
X10196850Y4606299D02*
D03*
Y4685039D02*
D03*
X9645669D02*
D03*
Y4606299D02*
D03*
X9448819D02*
D03*
X9389764Y4645669D02*
D03*
X9330709Y4685039D02*
D03*
X9929134Y4582677D02*
D03*
X9988189D02*
D03*
X11582677D02*
D03*
X11641732D02*
D03*
X11031496D02*
D03*
X11090551D02*
D03*
X10539370D02*
D03*
X10480315D02*
D03*
X11783465Y4228346D02*
D03*
X9913386Y4074803D02*
D03*
X9976378Y4074803D02*
D03*
X10464567Y4074803D02*
D03*
X10527559Y4074803D02*
D03*
X11015748D02*
D03*
X11078740Y4074803D02*
D03*
X11629922Y4074803D02*
D03*
X11566929Y4074803D02*
D03*
X7757874Y4714567D02*
D03*
D03*
Y4812992D02*
D03*
D03*
X9931102Y3690945D02*
D03*
X9379921D02*
D03*
X10482283D02*
D03*
X11033465D02*
D03*
X8840551Y4114173D02*
D03*
Y4232283D02*
D03*
X8407480Y4114173D02*
D03*
Y4232283D02*
D03*
X7935039Y4114173D02*
D03*
Y4232283D02*
D03*
X7501968D02*
D03*
Y4114173D02*
D03*
X9153543Y3753937D02*
D03*
Y3716535D02*
D03*
Y3683071D02*
D03*
Y3787402D02*
D03*
X7324803Y4714567D02*
D03*
D03*
Y4812992D02*
D03*
D03*
X8230315Y4714567D02*
D03*
D03*
Y4812992D02*
D03*
D03*
X8663386D02*
D03*
D03*
Y4714567D02*
D03*
D03*
X8799213Y3787402D02*
D03*
Y3683071D02*
D03*
Y3716535D02*
D03*
Y3753937D02*
D03*
D129*
X11968504Y3547244D02*
D03*
X9748031Y4330709D02*
D03*
X10850394D02*
D03*
X9748031D02*
D03*
X10299213D02*
D03*
X11401575D02*
D03*
X9708661Y4238189D02*
D03*
X10259843D02*
D03*
X10811024D02*
D03*
X11362205D02*
D03*
X9625984Y3746063D02*
D03*
X10177165D02*
D03*
X10728346D02*
D03*
X11279528D02*
D03*
D130*
X8267717Y3543307D02*
D03*
X8070866D02*
D03*
X7874016D02*
D03*
X7677165D02*
D03*
X7480315D02*
D03*
D131*
X10371654Y3894685D02*
D03*
Y3979331D02*
D03*
Y3937008D02*
D03*
X10471063Y3894685D02*
D03*
Y3979331D02*
D03*
X10427362Y3937008D02*
D03*
X10514764D02*
D03*
X10471063D02*
D03*
X9820472Y3894685D02*
D03*
Y3979331D02*
D03*
Y3937008D02*
D03*
X9919882Y3894685D02*
D03*
Y3979331D02*
D03*
X9876181Y3937008D02*
D03*
X9963583D02*
D03*
X9919882D02*
D03*
X10922835Y3894685D02*
D03*
Y3979331D02*
D03*
Y3937008D02*
D03*
X11022244Y3894685D02*
D03*
Y3979331D02*
D03*
X10978543Y3937008D02*
D03*
X11065945D02*
D03*
X11022244D02*
D03*
X11474016Y3894685D02*
D03*
Y3979331D02*
D03*
Y3937008D02*
D03*
X11573425Y3894685D02*
D03*
Y3979331D02*
D03*
X11529725Y3937008D02*
D03*
X11617126D02*
D03*
X11573425D02*
D03*
X9820472Y4766732D02*
D03*
Y4682087D02*
D03*
Y4724409D02*
D03*
X9919882Y4766732D02*
D03*
Y4682087D02*
D03*
X9876181Y4724409D02*
D03*
X9963583D02*
D03*
X9919882D02*
D03*
X10371654Y4766732D02*
D03*
Y4682087D02*
D03*
Y4724409D02*
D03*
X10471063Y4766732D02*
D03*
Y4682087D02*
D03*
X10427362Y4724409D02*
D03*
X10514764D02*
D03*
X10471063D02*
D03*
X10922835Y4766732D02*
D03*
Y4682087D02*
D03*
Y4724409D02*
D03*
X11022244Y4766732D02*
D03*
Y4682087D02*
D03*
X10978543Y4724409D02*
D03*
X11065945D02*
D03*
X11022244D02*
D03*
X11474016Y4766732D02*
D03*
Y4682087D02*
D03*
Y4724409D02*
D03*
X11573425Y4766732D02*
D03*
Y4682087D02*
D03*
X11529724Y4724409D02*
D03*
X11617126D02*
D03*
X11573425D02*
D03*
X8070866Y8643701D02*
D03*
Y8679134D02*
D03*
X7283465Y10257874D02*
D03*
Y10293307D02*
D03*
Y9667323D02*
D03*
Y9702756D02*
D03*
X7480315Y9076772D02*
D03*
Y9112205D02*
D03*
X8188976Y5494095D02*
D03*
Y5529528D02*
D03*
X8622047Y5494095D02*
D03*
Y5529528D02*
D03*
X7716535D02*
D03*
Y5494095D02*
D03*
X7283465D02*
D03*
Y5529528D02*
D03*
X8838583Y5494095D02*
D03*
Y5529528D02*
D03*
X8405512Y5494095D02*
D03*
Y5529528D02*
D03*
X7933071Y5494095D02*
D03*
Y5529528D02*
D03*
X7500000D02*
D03*
Y5494095D02*
D03*
D132*
X14734252Y4133858D02*
D03*
X13856299Y4011811D02*
D03*
X14840551D02*
D03*
X13750000Y4133858D02*
D03*
Y4960630D02*
D03*
X13856299Y4838583D02*
D03*
X8850394Y4281848D02*
D03*
Y4299761D02*
D03*
X8916339Y4281848D02*
D03*
Y4299761D02*
D03*
X8417323Y4281848D02*
D03*
Y4299761D02*
D03*
X8483268Y4281848D02*
D03*
Y4299761D02*
D03*
X7944882Y4281848D02*
D03*
Y4299761D02*
D03*
X8010827Y4281848D02*
D03*
Y4299761D02*
D03*
X7577756D02*
D03*
Y4281848D02*
D03*
X7511811Y4299761D02*
D03*
Y4281848D02*
D03*
X8692914Y5502854D02*
D03*
Y5520768D02*
D03*
X8551181D02*
D03*
Y5502854D02*
D03*
X8589469Y5395669D02*
D03*
X8607382D02*
D03*
X8643701D02*
D03*
X8661614D02*
D03*
X8259843Y5502854D02*
D03*
Y5520768D02*
D03*
X8118110D02*
D03*
Y5502854D02*
D03*
X8156398Y5395669D02*
D03*
X8174311D02*
D03*
X8210630D02*
D03*
X8228543D02*
D03*
X7787402Y5502854D02*
D03*
Y5520768D02*
D03*
X7645669D02*
D03*
Y5502854D02*
D03*
X7683957Y5395669D02*
D03*
X7701870D02*
D03*
X7738189D02*
D03*
X7756103D02*
D03*
X7323032D02*
D03*
X7305118D02*
D03*
X7268799D02*
D03*
X7250886D02*
D03*
X7212598Y5502854D02*
D03*
Y5520768D02*
D03*
X7354331D02*
D03*
Y5502854D02*
D03*
X8636713Y5574803D02*
D03*
X8654626D02*
D03*
X8583563Y5668307D02*
D03*
X8601477D02*
D03*
X8203642Y5574803D02*
D03*
X8221555D02*
D03*
X8150492Y5668307D02*
D03*
X8168406D02*
D03*
X7731201Y5574803D02*
D03*
X7749114D02*
D03*
X7678051Y5668307D02*
D03*
X7695965D02*
D03*
X7262894D02*
D03*
X7244980D02*
D03*
X7316043Y5574803D02*
D03*
X7298130D02*
D03*
%TF.MD5,f0e07661d92c9f2c3260d331f287227a*%
M02*
