%TF.GenerationSoftware,Altium Limited,Altium Designer,22.5.1 (42)*%
G04 Layer_Color=2752767*
%FSLAX26Y26*%
%MOIN*%
%TF.SameCoordinates,79F18A81-A5BF-4171-AD75-6FA3A7A6B408*%
%TF.FilePolarity,Positive*%
%TF.FileFunction,Drawing*%
%TF.Part,Single*%
G01*
G75*
%TA.AperFunction,NonConductor*%
%ADD174C,0.005000*%
%ADD175C,0.006667*%
%ADD176C,0.004000*%
D174*
X9911102Y3670945D02*
X9921102Y3690945D01*
X9911102Y3710945D01*
X9931102Y3700945D01*
X9951102Y3710945D01*
X9941102Y3690945D01*
X9951102Y3670945D01*
X9931102Y3680945D01*
X9911102Y3670945D01*
X9919102Y3678945D02*
X9925102Y3690945D01*
X9919102Y3702945D01*
X9931102Y3696945D01*
X9943102Y3702945D01*
X9937102Y3690945D01*
X9943102Y3678945D01*
X9931102Y3684945D01*
X9919102Y3678945D01*
X9359921Y3670945D02*
X9369921Y3690945D01*
X9359921Y3710945D01*
X9379921Y3700945D01*
X9399921Y3710945D01*
X9389921Y3690945D01*
X9399921Y3670945D01*
X9379921Y3680945D01*
X9359921Y3670945D01*
X9367921Y3678945D02*
X9373921Y3690945D01*
X9367921Y3702945D01*
X9379921Y3696945D01*
X9391921Y3702945D01*
X9385921Y3690945D01*
X9391921Y3678945D01*
X9379921Y3684945D01*
X9367921Y3678945D01*
X10462283Y3670945D02*
X10472283Y3690945D01*
X10462283Y3710945D01*
X10482283Y3700945D01*
X10502283Y3710945D01*
X10492283Y3690945D01*
X10502283Y3670945D01*
X10482283Y3680945D01*
X10462283Y3670945D01*
X10470283Y3678945D02*
X10476283Y3690945D01*
X10470283Y3702945D01*
X10482283Y3696945D01*
X10494283Y3702945D01*
X10488283Y3690945D01*
X10494283Y3678945D01*
X10482283Y3684945D01*
X10470283Y3678945D01*
X11013465Y3670945D02*
X11023465Y3690945D01*
X11013465Y3710945D01*
X11033465Y3700945D01*
X11053465Y3710945D01*
X11043465Y3690945D01*
X11053465Y3670945D01*
X11033465Y3680945D01*
X11013465Y3670945D01*
X11021465Y3678945D02*
X11027465Y3690945D01*
X11021465Y3702945D01*
X11033465Y3696945D01*
X11045465Y3702945D01*
X11039465Y3690945D01*
X11045465Y3678945D01*
X11033465Y3684945D01*
X11021465Y3678945D01*
X9133543Y3733937D02*
X9143543Y3753937D01*
X9133543Y3773937D01*
X9153543Y3763937D01*
X9173543Y3773937D01*
X9163543Y3753937D01*
X9173543Y3733937D01*
X9153543Y3743937D01*
X9133543Y3733937D01*
X9141543Y3741937D02*
X9147543Y3753937D01*
X9141543Y3765937D01*
X9153543Y3759937D01*
X9165543Y3765937D01*
X9159543Y3753937D01*
X9165543Y3741937D01*
X9153543Y3747937D01*
X9141543Y3741937D01*
X9133543Y3696535D02*
X9143543Y3716535D01*
X9133543Y3736535D01*
X9153543Y3726535D01*
X9173543Y3736535D01*
X9163543Y3716535D01*
X9173543Y3696535D01*
X9153543Y3706535D01*
X9133543Y3696535D01*
X9141543Y3704535D02*
X9147543Y3716535D01*
X9141543Y3728535D01*
X9153543Y3722535D01*
X9165543Y3728535D01*
X9159543Y3716535D01*
X9165543Y3704535D01*
X9153543Y3710535D01*
X9141543Y3704535D01*
X9133543Y3663071D02*
X9143543Y3683071D01*
X9133543Y3703071D01*
X9153543Y3693071D01*
X9173543Y3703071D01*
X9163543Y3683071D01*
X9173543Y3663071D01*
X9153543Y3673071D01*
X9133543Y3663071D01*
X9141543Y3671071D02*
X9147543Y3683071D01*
X9141543Y3695071D01*
X9153543Y3689071D01*
X9165543Y3695071D01*
X9159543Y3683071D01*
X9165543Y3671071D01*
X9153543Y3677071D01*
X9141543Y3671071D01*
X9133543Y3767402D02*
X9143543Y3787402D01*
X9133543Y3807402D01*
X9153543Y3797402D01*
X9173543Y3807402D01*
X9163543Y3787402D01*
X9173543Y3767402D01*
X9153543Y3777402D01*
X9133543Y3767402D01*
X9141543Y3775402D02*
X9147543Y3787402D01*
X9141543Y3799402D01*
X9153543Y3793402D01*
X9165543Y3799402D01*
X9159543Y3787402D01*
X9165543Y3775402D01*
X9153543Y3781402D01*
X9141543Y3775402D01*
X8779213Y3767402D02*
X8789213Y3787402D01*
X8779213Y3807402D01*
X8799213Y3797402D01*
X8819213Y3807402D01*
X8809213Y3787402D01*
X8819213Y3767402D01*
X8799213Y3777402D01*
X8779213Y3767402D01*
X8787213Y3775402D02*
X8793213Y3787402D01*
X8787213Y3799402D01*
X8799213Y3793402D01*
X8811213Y3799402D01*
X8805213Y3787402D01*
X8811213Y3775402D01*
X8799213Y3781402D01*
X8787213Y3775402D01*
X8779213Y3663071D02*
X8789213Y3683071D01*
X8779213Y3703071D01*
X8799213Y3693071D01*
X8819213Y3703071D01*
X8809213Y3683071D01*
X8819213Y3663071D01*
X8799213Y3673071D01*
X8779213Y3663071D01*
X8787213Y3671071D02*
X8793213Y3683071D01*
X8787213Y3695071D01*
X8799213Y3689071D01*
X8811213Y3695071D01*
X8805213Y3683071D01*
X8811213Y3671071D01*
X8799213Y3677071D01*
X8787213Y3671071D01*
X8779213Y3696535D02*
X8789213Y3716535D01*
X8779213Y3736535D01*
X8799213Y3726535D01*
X8819213Y3736535D01*
X8809213Y3716535D01*
X8819213Y3696535D01*
X8799213Y3706535D01*
X8779213Y3696535D01*
X8787213Y3704535D02*
X8793213Y3716535D01*
X8787213Y3728535D01*
X8799213Y3722535D01*
X8811213Y3728535D01*
X8805213Y3716535D01*
X8811213Y3704535D01*
X8799213Y3710535D01*
X8787213Y3704535D01*
X8779213Y3733937D02*
X8789213Y3753937D01*
X8779213Y3773937D01*
X8799213Y3763937D01*
X8819213Y3773937D01*
X8809213Y3753937D01*
X8819213Y3733937D01*
X8799213Y3743937D01*
X8779213Y3733937D01*
X8787213Y3741937D02*
X8793213Y3753937D01*
X8787213Y3765937D01*
X8799213Y3759937D01*
X8811213Y3765937D01*
X8805213Y3753937D01*
X8811213Y3741937D01*
X8799213Y3747937D01*
X8787213Y3741937D01*
D175*
X9287717Y3867126D02*
G03*
X9287717Y3867126I-20000J0D01*
G01*
X9260157D02*
G03*
X9260157Y3867126I-20000J0D01*
G01*
X9226693D02*
G03*
X9226693Y3867126I-20000J0D01*
G01*
X9196181D02*
G03*
X9196181Y3867126I-20000J0D01*
G01*
X7356614Y5346457D02*
G03*
X7356614Y5346457I-20000J0D01*
G01*
X7356614Y5088583D02*
G03*
X7356614Y5088583I-20000J0D01*
G01*
X7789685Y5346457D02*
G03*
X7789685Y5346457I-20000J0D01*
G01*
X7789685Y5088583D02*
G03*
X7789685Y5088583I-20000J0D01*
G01*
X8262126Y5346457D02*
G03*
X8262126Y5346457I-20000J0D01*
G01*
X8262126Y5088583D02*
G03*
X8262126Y5088583I-20000J0D01*
G01*
X8695197D02*
G03*
X8695197Y5088583I-20000J0D01*
G01*
X8695197Y5346457D02*
G03*
X8695197Y5346457I-20000J0D01*
G01*
X8683386Y3772638D02*
G03*
X8683386Y3772638I-20000J0D01*
G01*
X8250315D02*
G03*
X8250315Y3772638I-20000J0D01*
G01*
X7777874D02*
G03*
X7777874Y3772638I-20000J0D01*
G01*
X7344803D02*
G03*
X7344803Y3772638I-20000J0D01*
G01*
X7497362Y4202756D02*
G03*
X7497362Y4202756I-20000J0D01*
G01*
X7930433D02*
G03*
X7930433Y4202756I-20000J0D01*
G01*
X8402874D02*
G03*
X8402874Y4202756I-20000J0D01*
G01*
X8835945D02*
G03*
X8835945Y4202756I-20000J0D01*
G01*
X8002283Y8280512D02*
G03*
X8002283Y8280512I-20000J0D01*
G01*
X8796575Y4163386D02*
G03*
X8796575Y4163386I-20000J0D01*
G01*
Y4183071D02*
G03*
X8796575Y4183071I-20000J0D01*
G01*
X8723740Y4163386D02*
G03*
X8723740Y4163386I-20000J0D01*
G01*
Y4183071D02*
G03*
X8723740Y4183071I-20000J0D01*
G01*
X8363504Y4163386D02*
G03*
X8363504Y4163386I-20000J0D01*
G01*
Y4183071D02*
G03*
X8363504Y4183071I-20000J0D01*
G01*
X8290669Y4163386D02*
G03*
X8290669Y4163386I-20000J0D01*
G01*
Y4183071D02*
G03*
X8290669Y4183071I-20000J0D01*
G01*
X7891063Y4163386D02*
G03*
X7891063Y4163386I-20000J0D01*
G01*
Y4183071D02*
G03*
X7891063Y4183071I-20000J0D01*
G01*
X7818228Y4163386D02*
G03*
X7818228Y4163386I-20000J0D01*
G01*
Y4183071D02*
G03*
X7818228Y4183071I-20000J0D01*
G01*
X8723740Y4104331D02*
G03*
X8723740Y4104331I-20000J0D01*
G01*
Y4084646D02*
G03*
X8723740Y4084646I-20000J0D01*
G01*
Y4242126D02*
G03*
X8723740Y4242126I-20000J0D01*
G01*
Y4261811D02*
G03*
X8723740Y4261811I-20000J0D01*
G01*
X8290669Y4104331D02*
G03*
X8290669Y4104331I-20000J0D01*
G01*
Y4084646D02*
G03*
X8290669Y4084646I-20000J0D01*
G01*
Y4242126D02*
G03*
X8290669Y4242126I-20000J0D01*
G01*
Y4261811D02*
G03*
X8290669Y4261811I-20000J0D01*
G01*
X7818228Y4104331D02*
G03*
X7818228Y4104331I-20000J0D01*
G01*
Y4084646D02*
G03*
X7818228Y4084646I-20000J0D01*
G01*
Y4242126D02*
G03*
X7818228Y4242126I-20000J0D01*
G01*
Y4261811D02*
G03*
X7818228Y4261811I-20000J0D01*
G01*
X8514094Y5088583D02*
G03*
X8514094Y5088583I-20000J0D01*
G01*
X8498346D02*
G03*
X8498346Y5088583I-20000J0D01*
G01*
X8081024D02*
G03*
X8081024Y5088583I-20000J0D01*
G01*
X8065276D02*
G03*
X8065276Y5088583I-20000J0D01*
G01*
X7175512D02*
G03*
X7175512Y5088583I-20000J0D01*
G01*
X7159764D02*
G03*
X7159764Y5088583I-20000J0D01*
G01*
X7592835D02*
G03*
X7592835Y5088583I-20000J0D01*
G01*
X7608583D02*
G03*
X7608583Y5088583I-20000J0D01*
G01*
X8723740Y4773622D02*
G03*
X8723740Y4773622I-20000J0D01*
G01*
Y4753937D02*
G03*
X8723740Y4753937I-20000J0D01*
G01*
X8796575Y4773622D02*
G03*
X8796575Y4773622I-20000J0D01*
G01*
Y4753937D02*
G03*
X8796575Y4753937I-20000J0D01*
G01*
X8565709Y5089567D02*
G03*
X8565709Y5089567I-20000J0D01*
G01*
X8581457D02*
G03*
X8581457Y5089567I-20000J0D01*
G01*
X8290669Y4773622D02*
G03*
X8290669Y4773622I-20000J0D01*
G01*
Y4753937D02*
G03*
X8290669Y4753937I-20000J0D01*
G01*
X8363504Y4773622D02*
G03*
X8363504Y4773622I-20000J0D01*
G01*
Y4753937D02*
G03*
X8363504Y4753937I-20000J0D01*
G01*
X8132638Y5089567D02*
G03*
X8132638Y5089567I-20000J0D01*
G01*
X8148386D02*
G03*
X8148386Y5089567I-20000J0D01*
G01*
X7818228Y4773622D02*
G03*
X7818228Y4773622I-20000J0D01*
G01*
Y4753937D02*
G03*
X7818228Y4753937I-20000J0D01*
G01*
X7891063Y4773622D02*
G03*
X7891063Y4773622I-20000J0D01*
G01*
Y4753937D02*
G03*
X7891063Y4753937I-20000J0D01*
G01*
X7660197Y5089567D02*
G03*
X7660197Y5089567I-20000J0D01*
G01*
X7675945D02*
G03*
X7675945Y5089567I-20000J0D01*
G01*
X7242874D02*
G03*
X7242874Y5089567I-20000J0D01*
G01*
X7227126D02*
G03*
X7227126Y5089567I-20000J0D01*
G01*
X7385158Y4183071D02*
G03*
X7385158Y4183071I-20000J0D01*
G01*
Y4163386D02*
G03*
X7385158Y4163386I-20000J0D01*
G01*
X7457992Y4183071D02*
G03*
X7457992Y4183071I-20000J0D01*
G01*
Y4163386D02*
G03*
X7457992Y4163386I-20000J0D01*
G01*
X7385158Y4261811D02*
G03*
X7385158Y4261811I-20000J0D01*
G01*
Y4242126D02*
G03*
X7385158Y4242126I-20000J0D01*
G01*
Y4084646D02*
G03*
X7385158Y4084646I-20000J0D01*
G01*
Y4104331D02*
G03*
X7385158Y4104331I-20000J0D01*
G01*
X8796575Y4832677D02*
G03*
X8796575Y4832677I-20000J0D01*
G01*
Y4852362D02*
G03*
X8796575Y4852362I-20000J0D01*
G01*
Y4675197D02*
G03*
X8796575Y4675197I-20000J0D01*
G01*
Y4694882D02*
G03*
X8796575Y4694882I-20000J0D01*
G01*
X8712914Y5502854D02*
G03*
X8712914Y5502854I-20000J0D01*
G01*
Y5520768D02*
G03*
X8712914Y5520768I-20000J0D01*
G01*
X8571181D02*
G03*
X8571181Y5520768I-20000J0D01*
G01*
Y5502854D02*
G03*
X8571181Y5502854I-20000J0D01*
G01*
X8363504Y4832677D02*
G03*
X8363504Y4832677I-20000J0D01*
G01*
Y4852362D02*
G03*
X8363504Y4852362I-20000J0D01*
G01*
Y4675197D02*
G03*
X8363504Y4675197I-20000J0D01*
G01*
Y4694882D02*
G03*
X8363504Y4694882I-20000J0D01*
G01*
X8279843Y5502854D02*
G03*
X8279843Y5502854I-20000J0D01*
G01*
Y5520768D02*
G03*
X8279843Y5520768I-20000J0D01*
G01*
X8138110D02*
G03*
X8138110Y5520768I-20000J0D01*
G01*
Y5502854D02*
G03*
X8138110Y5502854I-20000J0D01*
G01*
X7891063Y4832677D02*
G03*
X7891063Y4832677I-20000J0D01*
G01*
Y4852362D02*
G03*
X7891063Y4852362I-20000J0D01*
G01*
Y4675197D02*
G03*
X7891063Y4675197I-20000J0D01*
G01*
Y4694882D02*
G03*
X7891063Y4694882I-20000J0D01*
G01*
X7807402Y5502854D02*
G03*
X7807402Y5502854I-20000J0D01*
G01*
Y5520768D02*
G03*
X7807402Y5520768I-20000J0D01*
G01*
X7665669D02*
G03*
X7665669Y5520768I-20000J0D01*
G01*
Y5502854D02*
G03*
X7665669Y5502854I-20000J0D01*
G01*
X7232598D02*
G03*
X7232598Y5502854I-20000J0D01*
G01*
Y5520768D02*
G03*
X7232598Y5520768I-20000J0D01*
G01*
X7374331D02*
G03*
X7374331Y5520768I-20000J0D01*
G01*
Y5502854D02*
G03*
X7374331Y5502854I-20000J0D01*
G01*
X7457992Y4694882D02*
G03*
X7457992Y4694882I-20000J0D01*
G01*
Y4675197D02*
G03*
X7457992Y4675197I-20000J0D01*
G01*
Y4852362D02*
G03*
X7457992Y4852362I-20000J0D01*
G01*
Y4832677D02*
G03*
X7457992Y4832677I-20000J0D01*
G01*
X8656713Y5574803D02*
G03*
X8656713Y5574803I-20000J0D01*
G01*
X8674626D02*
G03*
X8674626Y5574803I-20000J0D01*
G01*
X8603563Y5668307D02*
G03*
X8603563Y5668307I-20000J0D01*
G01*
X8621477D02*
G03*
X8621477Y5668307I-20000J0D01*
G01*
X8223642Y5574803D02*
G03*
X8223642Y5574803I-20000J0D01*
G01*
X8241555D02*
G03*
X8241555Y5574803I-20000J0D01*
G01*
X8170492Y5668307D02*
G03*
X8170492Y5668307I-20000J0D01*
G01*
X8188406D02*
G03*
X8188406Y5668307I-20000J0D01*
G01*
X7751201Y5574803D02*
G03*
X7751201Y5574803I-20000J0D01*
G01*
X7769114D02*
G03*
X7769114Y5574803I-20000J0D01*
G01*
X7698051Y5668307D02*
G03*
X7698051Y5668307I-20000J0D01*
G01*
X7715965D02*
G03*
X7715965Y5668307I-20000J0D01*
G01*
X7282894D02*
G03*
X7282894Y5668307I-20000J0D01*
G01*
X7264980D02*
G03*
X7264980Y5668307I-20000J0D01*
G01*
X7336043Y5574803D02*
G03*
X7336043Y5574803I-20000J0D01*
G01*
X7318130D02*
G03*
X7318130Y5574803I-20000J0D01*
G01*
X7457992Y4753937D02*
G03*
X7457992Y4753937I-20000J0D01*
G01*
Y4773622D02*
G03*
X7457992Y4773622I-20000J0D01*
G01*
X7385158Y4753937D02*
G03*
X7385158Y4753937I-20000J0D01*
G01*
Y4773622D02*
G03*
X7385158Y4773622I-20000J0D01*
G01*
D176*
X9279717Y3867126D02*
G03*
X9279717Y3867126I-12000J0D01*
G01*
X9252157D02*
G03*
X9252157Y3867126I-12000J0D01*
G01*
X9218693D02*
G03*
X9218693Y3867126I-12000J0D01*
G01*
X9188181D02*
G03*
X9188181Y3867126I-12000J0D01*
G01*
X7348614Y5346457D02*
G03*
X7348614Y5346457I-12000J0D01*
G01*
X7348614Y5088583D02*
G03*
X7348614Y5088583I-12000J0D01*
G01*
X7781685Y5346457D02*
G03*
X7781685Y5346457I-12000J0D01*
G01*
X7781685Y5088583D02*
G03*
X7781685Y5088583I-12000J0D01*
G01*
X8254126Y5346457D02*
G03*
X8254126Y5346457I-12000J0D01*
G01*
X8254126Y5088583D02*
G03*
X8254126Y5088583I-12000J0D01*
G01*
X8687197D02*
G03*
X8687197Y5088583I-12000J0D01*
G01*
X8687197Y5346457D02*
G03*
X8687197Y5346457I-12000J0D01*
G01*
X8675386Y3772638D02*
G03*
X8675386Y3772638I-12000J0D01*
G01*
X8242315D02*
G03*
X8242315Y3772638I-12000J0D01*
G01*
X7769874D02*
G03*
X7769874Y3772638I-12000J0D01*
G01*
X7336803D02*
G03*
X7336803Y3772638I-12000J0D01*
G01*
X7489362Y4202756D02*
G03*
X7489362Y4202756I-12000J0D01*
G01*
X7922433D02*
G03*
X7922433Y4202756I-12000J0D01*
G01*
X8394874D02*
G03*
X8394874Y4202756I-12000J0D01*
G01*
X8827945D02*
G03*
X8827945Y4202756I-12000J0D01*
G01*
X7994283Y8280512D02*
G03*
X7994283Y8280512I-12000J0D01*
G01*
X8788575Y4163386D02*
G03*
X8788575Y4163386I-12000J0D01*
G01*
Y4183071D02*
G03*
X8788575Y4183071I-12000J0D01*
G01*
X8715740Y4163386D02*
G03*
X8715740Y4163386I-12000J0D01*
G01*
Y4183071D02*
G03*
X8715740Y4183071I-12000J0D01*
G01*
X8355504Y4163386D02*
G03*
X8355504Y4163386I-12000J0D01*
G01*
Y4183071D02*
G03*
X8355504Y4183071I-12000J0D01*
G01*
X8282669Y4163386D02*
G03*
X8282669Y4163386I-12000J0D01*
G01*
Y4183071D02*
G03*
X8282669Y4183071I-12000J0D01*
G01*
X7883063Y4163386D02*
G03*
X7883063Y4163386I-12000J0D01*
G01*
Y4183071D02*
G03*
X7883063Y4183071I-12000J0D01*
G01*
X7810228Y4163386D02*
G03*
X7810228Y4163386I-12000J0D01*
G01*
Y4183071D02*
G03*
X7810228Y4183071I-12000J0D01*
G01*
X8715740Y4104331D02*
G03*
X8715740Y4104331I-12000J0D01*
G01*
Y4084646D02*
G03*
X8715740Y4084646I-12000J0D01*
G01*
Y4242126D02*
G03*
X8715740Y4242126I-12000J0D01*
G01*
Y4261811D02*
G03*
X8715740Y4261811I-12000J0D01*
G01*
X8282669Y4104331D02*
G03*
X8282669Y4104331I-12000J0D01*
G01*
Y4084646D02*
G03*
X8282669Y4084646I-12000J0D01*
G01*
Y4242126D02*
G03*
X8282669Y4242126I-12000J0D01*
G01*
Y4261811D02*
G03*
X8282669Y4261811I-12000J0D01*
G01*
X7810228Y4104331D02*
G03*
X7810228Y4104331I-12000J0D01*
G01*
Y4084646D02*
G03*
X7810228Y4084646I-12000J0D01*
G01*
Y4242126D02*
G03*
X7810228Y4242126I-12000J0D01*
G01*
Y4261811D02*
G03*
X7810228Y4261811I-12000J0D01*
G01*
X8506094Y5088583D02*
G03*
X8506094Y5088583I-12000J0D01*
G01*
X8490346D02*
G03*
X8490346Y5088583I-12000J0D01*
G01*
X8073024D02*
G03*
X8073024Y5088583I-12000J0D01*
G01*
X8057276D02*
G03*
X8057276Y5088583I-12000J0D01*
G01*
X7167512D02*
G03*
X7167512Y5088583I-12000J0D01*
G01*
X7151764D02*
G03*
X7151764Y5088583I-12000J0D01*
G01*
X7584835D02*
G03*
X7584835Y5088583I-12000J0D01*
G01*
X7600583D02*
G03*
X7600583Y5088583I-12000J0D01*
G01*
X8715740Y4773622D02*
G03*
X8715740Y4773622I-12000J0D01*
G01*
Y4753937D02*
G03*
X8715740Y4753937I-12000J0D01*
G01*
X8788575Y4773622D02*
G03*
X8788575Y4773622I-12000J0D01*
G01*
Y4753937D02*
G03*
X8788575Y4753937I-12000J0D01*
G01*
X8557709Y5089567D02*
G03*
X8557709Y5089567I-12000J0D01*
G01*
X8573457D02*
G03*
X8573457Y5089567I-12000J0D01*
G01*
X8282669Y4773622D02*
G03*
X8282669Y4773622I-12000J0D01*
G01*
Y4753937D02*
G03*
X8282669Y4753937I-12000J0D01*
G01*
X8355504Y4773622D02*
G03*
X8355504Y4773622I-12000J0D01*
G01*
Y4753937D02*
G03*
X8355504Y4753937I-12000J0D01*
G01*
X8124638Y5089567D02*
G03*
X8124638Y5089567I-12000J0D01*
G01*
X8140386D02*
G03*
X8140386Y5089567I-12000J0D01*
G01*
X7810228Y4773622D02*
G03*
X7810228Y4773622I-12000J0D01*
G01*
Y4753937D02*
G03*
X7810228Y4753937I-12000J0D01*
G01*
X7883063Y4773622D02*
G03*
X7883063Y4773622I-12000J0D01*
G01*
Y4753937D02*
G03*
X7883063Y4753937I-12000J0D01*
G01*
X7652197Y5089567D02*
G03*
X7652197Y5089567I-12000J0D01*
G01*
X7667945D02*
G03*
X7667945Y5089567I-12000J0D01*
G01*
X7234874D02*
G03*
X7234874Y5089567I-12000J0D01*
G01*
X7219126D02*
G03*
X7219126Y5089567I-12000J0D01*
G01*
X7377158Y4183071D02*
G03*
X7377158Y4183071I-12000J0D01*
G01*
Y4163386D02*
G03*
X7377158Y4163386I-12000J0D01*
G01*
X7449992Y4183071D02*
G03*
X7449992Y4183071I-12000J0D01*
G01*
Y4163386D02*
G03*
X7449992Y4163386I-12000J0D01*
G01*
X7377158Y4261811D02*
G03*
X7377158Y4261811I-12000J0D01*
G01*
Y4242126D02*
G03*
X7377158Y4242126I-12000J0D01*
G01*
Y4084646D02*
G03*
X7377158Y4084646I-12000J0D01*
G01*
Y4104331D02*
G03*
X7377158Y4104331I-12000J0D01*
G01*
X8788575Y4832677D02*
G03*
X8788575Y4832677I-12000J0D01*
G01*
Y4852362D02*
G03*
X8788575Y4852362I-12000J0D01*
G01*
Y4675197D02*
G03*
X8788575Y4675197I-12000J0D01*
G01*
Y4694882D02*
G03*
X8788575Y4694882I-12000J0D01*
G01*
X8704914Y5502854D02*
G03*
X8704914Y5502854I-12000J0D01*
G01*
Y5520768D02*
G03*
X8704914Y5520768I-12000J0D01*
G01*
X8563181D02*
G03*
X8563181Y5520768I-12000J0D01*
G01*
Y5502854D02*
G03*
X8563181Y5502854I-12000J0D01*
G01*
X8355504Y4832677D02*
G03*
X8355504Y4832677I-12000J0D01*
G01*
Y4852362D02*
G03*
X8355504Y4852362I-12000J0D01*
G01*
Y4675197D02*
G03*
X8355504Y4675197I-12000J0D01*
G01*
Y4694882D02*
G03*
X8355504Y4694882I-12000J0D01*
G01*
X8271843Y5502854D02*
G03*
X8271843Y5502854I-12000J0D01*
G01*
Y5520768D02*
G03*
X8271843Y5520768I-12000J0D01*
G01*
X8130110D02*
G03*
X8130110Y5520768I-12000J0D01*
G01*
Y5502854D02*
G03*
X8130110Y5502854I-12000J0D01*
G01*
X7883063Y4832677D02*
G03*
X7883063Y4832677I-12000J0D01*
G01*
Y4852362D02*
G03*
X7883063Y4852362I-12000J0D01*
G01*
Y4675197D02*
G03*
X7883063Y4675197I-12000J0D01*
G01*
Y4694882D02*
G03*
X7883063Y4694882I-12000J0D01*
G01*
X7799402Y5502854D02*
G03*
X7799402Y5502854I-12000J0D01*
G01*
Y5520768D02*
G03*
X7799402Y5520768I-12000J0D01*
G01*
X7657669D02*
G03*
X7657669Y5520768I-12000J0D01*
G01*
Y5502854D02*
G03*
X7657669Y5502854I-12000J0D01*
G01*
X7224598D02*
G03*
X7224598Y5502854I-12000J0D01*
G01*
Y5520768D02*
G03*
X7224598Y5520768I-12000J0D01*
G01*
X7366331D02*
G03*
X7366331Y5520768I-12000J0D01*
G01*
Y5502854D02*
G03*
X7366331Y5502854I-12000J0D01*
G01*
X7449992Y4694882D02*
G03*
X7449992Y4694882I-12000J0D01*
G01*
Y4675197D02*
G03*
X7449992Y4675197I-12000J0D01*
G01*
Y4852362D02*
G03*
X7449992Y4852362I-12000J0D01*
G01*
Y4832677D02*
G03*
X7449992Y4832677I-12000J0D01*
G01*
X8648713Y5574803D02*
G03*
X8648713Y5574803I-12000J0D01*
G01*
X8666626D02*
G03*
X8666626Y5574803I-12000J0D01*
G01*
X8595563Y5668307D02*
G03*
X8595563Y5668307I-12000J0D01*
G01*
X8613477D02*
G03*
X8613477Y5668307I-12000J0D01*
G01*
X8215642Y5574803D02*
G03*
X8215642Y5574803I-12000J0D01*
G01*
X8233555D02*
G03*
X8233555Y5574803I-12000J0D01*
G01*
X8162492Y5668307D02*
G03*
X8162492Y5668307I-12000J0D01*
G01*
X8180406D02*
G03*
X8180406Y5668307I-12000J0D01*
G01*
X7743201Y5574803D02*
G03*
X7743201Y5574803I-12000J0D01*
G01*
X7761114D02*
G03*
X7761114Y5574803I-12000J0D01*
G01*
X7690051Y5668307D02*
G03*
X7690051Y5668307I-12000J0D01*
G01*
X7707965D02*
G03*
X7707965Y5668307I-12000J0D01*
G01*
X7274894D02*
G03*
X7274894Y5668307I-12000J0D01*
G01*
X7256980D02*
G03*
X7256980Y5668307I-12000J0D01*
G01*
X7328043Y5574803D02*
G03*
X7328043Y5574803I-12000J0D01*
G01*
X7310130D02*
G03*
X7310130Y5574803I-12000J0D01*
G01*
X7449992Y4753937D02*
G03*
X7449992Y4753937I-12000J0D01*
G01*
Y4773622D02*
G03*
X7449992Y4773622I-12000J0D01*
G01*
X7377158Y4753937D02*
G03*
X7377158Y4753937I-12000J0D01*
G01*
Y4773622D02*
G03*
X7377158Y4773622I-12000J0D01*
G01*
%TF.MD5,3b6b3a0e24468f6b42156aa04f073e32*%
M02*
