%TF.GenerationSoftware,Altium Limited,Altium Designer,22.5.1 (42)*%
G04 Layer_Color=7674933*
%FSLAX26Y26*%
%MOIN*%
%TF.SameCoordinates,79F18A81-A5BF-4171-AD75-6FA3A7A6B408*%
%TF.FilePolarity,Positive*%
%TF.FileFunction,Other,Fab_Notes*%
%TF.Part,Single*%
G01*
G75*
%TA.AperFunction,NonConductor*%
%ADD89C,0.003937*%
%ADD155C,0.010000*%
D89*
X7125984Y5118110D02*
X9015834D01*
X7125984Y5315046D02*
X9015834D01*
Y5118110D02*
Y5315046D01*
X7125984Y5118110D02*
Y5315046D01*
X7086614Y5314960D02*
X9055203D01*
X7086614Y11614258D02*
X9055203D01*
Y5314960D02*
Y11614258D01*
X7086614Y5314960D02*
Y11614258D01*
X7283379Y3937093D02*
X7283465Y3937008D01*
X7047244Y3937093D02*
X7283379D01*
X7047244Y3503937D02*
X7283465D01*
X8858268D02*
X9094488D01*
X9094403Y3937008D02*
X9094488Y3937093D01*
X8858268Y3937008D02*
X9094403D01*
X9251968Y3346457D02*
Y3503937D01*
X9094488D02*
X9251968D01*
X9094488D02*
Y3937093D01*
Y5118110D01*
X9094403Y5118196D02*
X9094488Y5118110D01*
X9094403Y5118196D02*
X15551181D01*
Y3346457D02*
Y5118196D01*
X9251969Y3346457D02*
X15551181D01*
X9251968Y3346457D02*
X9251969Y3346457D01*
X6889763D02*
X6889764Y3346457D01*
X590551Y3346457D02*
X6889763D01*
X590551D02*
Y5118196D01*
X7047329D01*
X7047244Y5118110D02*
X7047329Y5118196D01*
X7047244Y3937093D02*
Y5118110D01*
Y3503937D02*
Y3937093D01*
X6889764Y3503937D02*
X7047244D01*
X6889764Y3346457D02*
Y3503937D01*
X9015748Y5118110D02*
X9015748Y5118111D01*
X9055119D01*
X9055118Y5118110D02*
X9055119Y5118111D01*
X9055118Y3976378D02*
Y5118110D01*
X8858267Y3976378D02*
X9055118D01*
X8858267D02*
X8858268Y3976377D01*
Y3464567D02*
Y3976377D01*
Y3464567D02*
X9055119D01*
Y3346456D02*
Y3464567D01*
X7086614Y3346456D02*
X9055119D01*
X7086614D02*
Y3464567D01*
X7283464D01*
Y3976378D01*
X7283464Y3976378D02*
X7283464Y3976378D01*
X7086614Y3976378D02*
X7283464D01*
X7086614Y3976378D02*
X7086614Y3976378D01*
X7086614Y3976378D02*
Y5118110D01*
X7086614Y5118110D01*
X7125984D01*
D155*
X7715634Y7657659D02*
Y7775731D01*
X7774670D01*
X7794349Y7756052D01*
Y7716695D01*
X7774670Y7697016D01*
X7715634D01*
X7754991D02*
X7794349Y7657659D01*
X7833706Y7775731D02*
X7873063D01*
X7853385D01*
Y7657659D01*
X7833706D01*
X7873063D01*
X8010814Y7756052D02*
X7991135Y7775731D01*
X7951778D01*
X7932099Y7756052D01*
Y7677338D01*
X7951778Y7657659D01*
X7991135D01*
X8010814Y7677338D01*
Y7716695D01*
X7971457D01*
X8050171Y7775731D02*
X8089529D01*
X8069850D01*
Y7657659D01*
X8050171D01*
X8089529D01*
X8148565Y7775731D02*
Y7657659D01*
X8207601D01*
X8227280Y7677338D01*
Y7756052D01*
X8207601Y7775731D01*
X8148565D01*
X7518847Y7590366D02*
X7538526Y7610045D01*
X7577883D01*
X7597562Y7590366D01*
Y7570687D01*
X7577883Y7551009D01*
X7597562Y7531330D01*
Y7511651D01*
X7577883Y7491973D01*
X7538526D01*
X7518847Y7511651D01*
Y7531330D01*
X7538526Y7551009D01*
X7518847Y7570687D01*
Y7590366D01*
X7538526Y7551009D02*
X7577883D01*
X7636919D02*
X7715634D01*
X7754991Y7610045D02*
Y7491973D01*
X7833706D01*
X7892742Y7570687D02*
X7932099D01*
X7951778Y7551009D01*
Y7491973D01*
X7892742D01*
X7873063Y7511651D01*
X7892742Y7531330D01*
X7951778D01*
X7991135Y7570687D02*
Y7511651D01*
X8010814Y7491973D01*
X8069850D01*
Y7472294D01*
X8050171Y7452615D01*
X8030493D01*
X8069850Y7491973D02*
Y7570687D01*
X8168243Y7491973D02*
X8128886D01*
X8109207Y7511651D01*
Y7551009D01*
X8128886Y7570687D01*
X8168243D01*
X8187922Y7551009D01*
Y7531330D01*
X8109207D01*
X8227279Y7570687D02*
Y7491973D01*
Y7531330D01*
X8246958Y7551009D01*
X8266637Y7570687D01*
X8286315D01*
X8345351Y7491973D02*
X8404387D01*
X8424066Y7511651D01*
X8404387Y7531330D01*
X8365030D01*
X8345351Y7551009D01*
X8365030Y7570687D01*
X8424066D01*
X7108036Y3688826D02*
Y3662588D01*
X7127715D01*
Y3675707D01*
Y3662588D01*
X7147394D01*
X7108036Y3701945D02*
X7147394D01*
Y3728183D01*
X7108036Y3767541D02*
Y3741302D01*
X7147394D01*
Y3767541D01*
X7127715Y3741302D02*
Y3754422D01*
X7108036Y3780660D02*
X7147394Y3806898D01*
X7108036D02*
X7147394Y3780660D01*
X7179265Y3610111D02*
X7185825Y3596992D01*
X7198944Y3583873D01*
X7212063D01*
X7218622Y3590432D01*
Y3603552D01*
X7212063Y3610111D01*
X7205503D01*
X7198944Y3603552D01*
Y3583873D01*
Y3623230D02*
Y3649468D01*
X7179265Y3662588D02*
X7218622D01*
Y3688826D01*
X7192384Y3708505D02*
Y3721624D01*
X7198944Y3728183D01*
X7218622D01*
Y3708505D01*
X7212063Y3701945D01*
X7205503Y3708505D01*
Y3728183D01*
X7192384Y3741302D02*
X7212063D01*
X7218622Y3747862D01*
Y3767541D01*
X7225182D01*
X7231742Y3760981D01*
Y3754422D01*
X7218622Y3767541D02*
X7192384D01*
X7218622Y3800339D02*
Y3787220D01*
X7212063Y3780660D01*
X7198944D01*
X7192384Y3787220D01*
Y3800339D01*
X7198944Y3806898D01*
X7205503D01*
Y3780660D01*
X7192384Y3820017D02*
X7218622D01*
X7205503D01*
X7198944Y3826577D01*
X7192384Y3833136D01*
Y3839696D01*
X7218622Y3859375D02*
Y3879053D01*
X7212063Y3885613D01*
X7205503Y3879053D01*
Y3865934D01*
X7198944Y3859375D01*
X7192384Y3865934D01*
Y3885613D01*
X12526658Y4321045D02*
Y4439117D01*
X12585694D01*
X12605372Y4419438D01*
Y4380081D01*
X12585694Y4360402D01*
X12526658D01*
X12566015D02*
X12605372Y4321045D01*
X12644730Y4439117D02*
X12684087D01*
X12664408D01*
Y4321045D01*
X12644730D01*
X12684087D01*
X12821838Y4419438D02*
X12802159Y4439117D01*
X12762802D01*
X12743123Y4419438D01*
Y4340724D01*
X12762802Y4321045D01*
X12802159D01*
X12821838Y4340724D01*
Y4380081D01*
X12782480D01*
X12861195Y4439117D02*
X12900552D01*
X12880874D01*
Y4321045D01*
X12861195D01*
X12900552D01*
X12959588Y4439117D02*
Y4321045D01*
X13018624D01*
X13038303Y4340724D01*
Y4419438D01*
X13018624Y4439117D01*
X12959588D01*
X12329871Y4253752D02*
X12349550Y4273431D01*
X12388907D01*
X12408586Y4253752D01*
Y4234073D01*
X12388907Y4214395D01*
X12408586Y4194716D01*
Y4175037D01*
X12388907Y4155359D01*
X12349550D01*
X12329871Y4175037D01*
Y4194716D01*
X12349550Y4214395D01*
X12329871Y4234073D01*
Y4253752D01*
X12349550Y4214395D02*
X12388907D01*
X12447943D02*
X12526658D01*
X12566015Y4273431D02*
Y4155359D01*
X12644730D01*
X12703766Y4234073D02*
X12743123D01*
X12762802Y4214395D01*
Y4155359D01*
X12703766D01*
X12684087Y4175037D01*
X12703766Y4194716D01*
X12762802D01*
X12802159Y4234073D02*
Y4175037D01*
X12821838Y4155359D01*
X12880874D01*
Y4135680D01*
X12861195Y4116001D01*
X12841516D01*
X12880874Y4155359D02*
Y4234073D01*
X12979267Y4155359D02*
X12939910D01*
X12920231Y4175037D01*
Y4214395D01*
X12939910Y4234073D01*
X12979267D01*
X12998946Y4214395D01*
Y4194716D01*
X12920231D01*
X13038303Y4234073D02*
Y4155359D01*
Y4194716D01*
X13057982Y4214395D01*
X13077660Y4234073D01*
X13097339D01*
X13156375Y4155359D02*
X13215411D01*
X13235090Y4175037D01*
X13215411Y4194716D01*
X13176054D01*
X13156375Y4214395D01*
X13176054Y4234073D01*
X13235090D01*
X3761894Y4315140D02*
Y4433212D01*
X3820930D01*
X3840609Y4413533D01*
Y4374176D01*
X3820930Y4354497D01*
X3761894D01*
X3801251D02*
X3840609Y4315140D01*
X3879966Y4433212D02*
X3919323D01*
X3899645D01*
Y4315140D01*
X3879966D01*
X3919323D01*
X4057074Y4413533D02*
X4037395Y4433212D01*
X3998038D01*
X3978359Y4413533D01*
Y4334818D01*
X3998038Y4315140D01*
X4037395D01*
X4057074Y4334818D01*
Y4374176D01*
X4017717D01*
X4096431Y4433212D02*
X4135789D01*
X4116110D01*
Y4315140D01*
X4096431D01*
X4135789D01*
X4194825Y4433212D02*
Y4315140D01*
X4253861D01*
X4273539Y4334818D01*
Y4413533D01*
X4253861Y4433212D01*
X4194825D01*
X3565107Y4247846D02*
X3584786Y4267525D01*
X3624143D01*
X3643822Y4247846D01*
Y4228168D01*
X3624143Y4208489D01*
X3643822Y4188810D01*
Y4169132D01*
X3624143Y4149453D01*
X3584786D01*
X3565107Y4169132D01*
Y4188810D01*
X3584786Y4208489D01*
X3565107Y4228168D01*
Y4247846D01*
X3584786Y4208489D02*
X3624143D01*
X3683179D02*
X3761894D01*
X3801251Y4267525D02*
Y4149453D01*
X3879966D01*
X3939002Y4228168D02*
X3978359D01*
X3998038Y4208489D01*
Y4149453D01*
X3939002D01*
X3919323Y4169132D01*
X3939002Y4188810D01*
X3998038D01*
X4037395Y4228168D02*
Y4169132D01*
X4057074Y4149453D01*
X4116110D01*
Y4129774D01*
X4096431Y4110096D01*
X4076753D01*
X4116110Y4149453D02*
Y4228168D01*
X4214503Y4149453D02*
X4175146D01*
X4155467Y4169132D01*
Y4208489D01*
X4175146Y4228168D01*
X4214503D01*
X4234182Y4208489D01*
Y4188810D01*
X4155467D01*
X4273539Y4228168D02*
Y4149453D01*
Y4188810D01*
X4293218Y4208489D01*
X4312897Y4228168D01*
X4332575D01*
X4391611Y4149453D02*
X4450647D01*
X4470326Y4169132D01*
X4450647Y4188810D01*
X4411290D01*
X4391611Y4208489D01*
X4411290Y4228168D01*
X4470326D01*
X7877051Y4549391D02*
Y4667463D01*
X7936087D01*
X7955766Y4647785D01*
Y4608427D01*
X7936087Y4588749D01*
X7877051D01*
X7916409D02*
X7955766Y4549391D01*
X7995123Y4667463D02*
X8034481D01*
X8014802D01*
Y4549391D01*
X7995123D01*
X8034481D01*
X8172231Y4647785D02*
X8152553Y4667463D01*
X8113195D01*
X8093517Y4647785D01*
Y4569070D01*
X8113195Y4549391D01*
X8152553D01*
X8172231Y4569070D01*
Y4608427D01*
X8132874D01*
X8211589Y4667463D02*
X8250946D01*
X8231267D01*
Y4549391D01*
X8211589D01*
X8250946D01*
X8309982Y4667463D02*
Y4549391D01*
X8369018D01*
X8388697Y4569070D01*
Y4647785D01*
X8369018Y4667463D01*
X8309982D01*
X7680265Y4482098D02*
X7699943Y4501777D01*
X7739301D01*
X7758979Y4482098D01*
Y4462420D01*
X7739301Y4442741D01*
X7758979Y4423062D01*
Y4403384D01*
X7739301Y4383705D01*
X7699943D01*
X7680265Y4403384D01*
Y4423062D01*
X7699943Y4442741D01*
X7680265Y4462420D01*
Y4482098D01*
X7699943Y4442741D02*
X7739301D01*
X7798337D02*
X7877051D01*
X7916409Y4501777D02*
Y4383705D01*
X7995123D01*
X8054159Y4462420D02*
X8093517D01*
X8113195Y4442741D01*
Y4383705D01*
X8054159D01*
X8034481Y4403384D01*
X8054159Y4423062D01*
X8113195D01*
X8152553Y4462420D02*
Y4403384D01*
X8172231Y4383705D01*
X8231267D01*
Y4364026D01*
X8211589Y4344348D01*
X8191910D01*
X8231267Y4383705D02*
Y4462420D01*
X8329661Y4383705D02*
X8290303D01*
X8270625Y4403384D01*
Y4442741D01*
X8290303Y4462420D01*
X8329661D01*
X8349339Y4442741D01*
Y4423062D01*
X8270625D01*
X8388697Y4462420D02*
Y4383705D01*
Y4423062D01*
X8408375Y4442741D01*
X8428054Y4462420D01*
X8447733D01*
X8506769Y4383705D02*
X8565805D01*
X8585483Y4403384D01*
X8565805Y4423062D01*
X8526447D01*
X8506769Y4442741D01*
X8526447Y4462420D01*
X8585483D01*
X8891501Y3685873D02*
Y3659635D01*
X8911179D01*
Y3672754D01*
Y3659635D01*
X8930858D01*
X8891501Y3698992D02*
X8930858D01*
Y3725231D01*
X8891501Y3764588D02*
Y3738350D01*
X8930858D01*
Y3764588D01*
X8911179Y3738350D02*
Y3751469D01*
X8891501Y3777707D02*
X8930858Y3803945D01*
X8891501D02*
X8930858Y3777707D01*
X8962729Y3607158D02*
X8969289Y3594039D01*
X8982408Y3580920D01*
X8995527D01*
X9002087Y3587480D01*
Y3600599D01*
X8995527Y3607158D01*
X8988968D01*
X8982408Y3600599D01*
Y3580920D01*
Y3620278D02*
Y3646516D01*
X8962729Y3659635D02*
X9002087D01*
Y3685873D01*
X8975849Y3705552D02*
Y3718671D01*
X8982408Y3725231D01*
X9002087D01*
Y3705552D01*
X8995527Y3698992D01*
X8988968Y3705552D01*
Y3725231D01*
X8975849Y3738350D02*
X8995527D01*
X9002087Y3744909D01*
Y3764588D01*
X9008647D01*
X9015206Y3758028D01*
Y3751469D01*
X9002087Y3764588D02*
X8975849D01*
X9002087Y3797386D02*
Y3784267D01*
X8995527Y3777707D01*
X8982408D01*
X8975849Y3784267D01*
Y3797386D01*
X8982408Y3803945D01*
X8988968D01*
Y3777707D01*
X8975849Y3817065D02*
X9002087D01*
X8988968D01*
X8982408Y3823624D01*
X8975849Y3830184D01*
Y3836743D01*
X9002087Y3856422D02*
Y3876101D01*
X8995527Y3882660D01*
X8988968Y3876101D01*
Y3862982D01*
X8982408Y3856422D01*
X8975849Y3862982D01*
Y3882660D01*
X8032331Y5264994D02*
X8006093D01*
Y5245315D01*
X8019212D01*
X8006093D01*
Y5225637D01*
X8045450Y5264994D02*
Y5225637D01*
X8071689D01*
X8111046Y5264994D02*
X8084808D01*
Y5225637D01*
X8111046D01*
X8084808Y5245315D02*
X8097927D01*
X8124165Y5264994D02*
X8150404Y5225637D01*
Y5264994D02*
X8124165Y5225637D01*
X7953617Y5193765D02*
X7940497Y5187206D01*
X7927378Y5174087D01*
Y5160967D01*
X7933938Y5154408D01*
X7947057D01*
X7953617Y5160967D01*
Y5167527D01*
X7947057Y5174087D01*
X7927378D01*
X7966736D02*
X7992974D01*
X8006093Y5193765D02*
Y5154408D01*
X8032331D01*
X8052010Y5180646D02*
X8065129D01*
X8071689Y5174087D01*
Y5154408D01*
X8052010D01*
X8045450Y5160967D01*
X8052010Y5167527D01*
X8071689D01*
X8084808Y5180646D02*
Y5160967D01*
X8091368Y5154408D01*
X8111046D01*
Y5147848D01*
X8104487Y5141289D01*
X8097927D01*
X8111046Y5154408D02*
Y5180646D01*
X8143844Y5154408D02*
X8130725D01*
X8124165Y5160967D01*
Y5174087D01*
X8130725Y5180646D01*
X8143844D01*
X8150404Y5174087D01*
Y5167527D01*
X8124165D01*
X8163523Y5180646D02*
Y5154408D01*
Y5167527D01*
X8170082Y5174087D01*
X8176642Y5180646D01*
X8183201D01*
X8202880Y5154408D02*
X8222559D01*
X8229118Y5160967D01*
X8222559Y5167527D01*
X8209440D01*
X8202880Y5174087D01*
X8209440Y5180646D01*
X8229118D01*
%TF.MD5,808e79b315ca928d87b2c8c98c5c03ad*%
M02*
