%TF.GenerationSoftware,Altium Limited,Altium Designer,22.4.2 (48)*%
G04 Layer_Color=8388736*
%FSLAX26Y26*%
%MOIN*%
%TF.SameCoordinates,8C98EB32-1E12-42CD-A60B-9DA89663A72C*%
%TF.FilePolarity,Negative*%
%TF.FileFunction,Soldermask,Top*%
%TF.Part,Single*%
G01*
G75*
%TA.AperFunction,SMDPad,CuDef*%
%ADD22R,0.033465X0.035433*%
%ADD23R,0.023622X0.023622*%
%ADD33R,0.035433X0.055118*%
%ADD36R,0.106299X0.220472*%
%ADD37R,0.049213X0.039370*%
%ADD48P,0.033407X4X180.0*%
%ADD49R,0.043307X0.094488*%
%ADD51R,0.023622X0.023622*%
%ADD52R,0.039370X0.049213*%
%ADD53R,0.035433X0.033465*%
%ADD54R,0.094488X0.043307*%
%ADD55P,0.033407X4X90.0*%
%ADD56R,0.055118X0.035433*%
G04:AMPARAMS|DCode=60|XSize=43.307mil|YSize=94.488mil|CornerRadius=0mil|HoleSize=0mil|Usage=FLASHONLY|Rotation=45.000|XOffset=0mil|YOffset=0mil|HoleType=Round|Shape=Rectangle|*
%AMROTATEDRECTD60*
4,1,4,0.018095,-0.048718,-0.048718,0.018095,-0.018095,0.048718,0.048718,-0.018095,0.018095,-0.048718,0.0*
%
%ADD60ROTATEDRECTD60*%

G04:AMPARAMS|DCode=61|XSize=39.37mil|YSize=49.213mil|CornerRadius=0mil|HoleSize=0mil|Usage=FLASHONLY|Rotation=45.000|XOffset=0mil|YOffset=0mil|HoleType=Round|Shape=Rectangle|*
%AMROTATEDRECTD61*
4,1,4,0.003480,-0.031319,-0.031319,0.003480,-0.003480,0.031319,0.031319,-0.003480,0.003480,-0.031319,0.0*
%
%ADD61ROTATEDRECTD61*%

%ADD119R,0.015748X0.015748*%
%ADD120R,0.026701X0.015874*%
%ADD121R,0.039496X0.067055*%
%TA.AperFunction,FiducialPad,Global*%
%ADD123R,0.047370X0.047370*%
%ADD124C,0.047370*%
%TA.AperFunction,ComponentPad*%
%ADD128C,0.086740*%
%ADD129O,0.094614X0.047370*%
%ADD130O,0.078866X0.047370*%
%ADD131C,0.008000*%
G04:AMPARAMS|DCode=132|XSize=82.803mil|YSize=47.37mil|CornerRadius=13.842mil|HoleSize=0mil|Usage=FLASHONLY|Rotation=180.000|XOffset=0mil|YOffset=0mil|HoleType=Round|Shape=RoundedRectangle|*
%AMROUNDEDRECTD132*
21,1,0.082803,0.019685,0,0,180.0*
21,1,0.055118,0.047370,0,0,180.0*
1,1,0.027685,-0.027559,0.009843*
1,1,0.027685,0.027559,0.009843*
1,1,0.027685,0.027559,-0.009843*
1,1,0.027685,-0.027559,-0.009843*
%
%ADD132ROUNDEDRECTD132*%
G04:AMPARAMS|DCode=133|XSize=98.551mil|YSize=47.37mil|CornerRadius=13.842mil|HoleSize=0mil|Usage=FLASHONLY|Rotation=180.000|XOffset=0mil|YOffset=0mil|HoleType=Round|Shape=RoundedRectangle|*
%AMROUNDEDRECTD133*
21,1,0.098551,0.019685,0,0,180.0*
21,1,0.070866,0.047370,0,0,180.0*
1,1,0.027685,-0.035433,0.009843*
1,1,0.027685,0.035433,0.009843*
1,1,0.027685,0.035433,-0.009843*
1,1,0.027685,-0.035433,-0.009843*
%
%ADD133ROUNDEDRECTD133*%
G04:AMPARAMS|DCode=134|XSize=59.181mil|YSize=47.37mil|CornerRadius=13.842mil|HoleSize=0mil|Usage=FLASHONLY|Rotation=0.000|XOffset=0mil|YOffset=0mil|HoleType=Round|Shape=RoundedRectangle|*
%AMROUNDEDRECTD134*
21,1,0.059181,0.019685,0,0,0.0*
21,1,0.031496,0.047370,0,0,0.0*
1,1,0.027685,0.015748,-0.009843*
1,1,0.027685,-0.015748,-0.009843*
1,1,0.027685,-0.015748,0.009843*
1,1,0.027685,0.015748,0.009843*
%
%ADD134ROUNDEDRECTD134*%
%ADD135C,0.051307*%
%ADD136C,0.063118*%
%ADD137C,0.090677*%
%ADD138C,0.204850*%
%ADD139C,0.074929*%
%ADD140C,0.244220*%
%ADD141C,0.068000*%
%ADD142O,0.047370X0.094614*%
%ADD143O,0.047370X0.078866*%
%TA.AperFunction,ViaPad*%
%ADD144C,0.025716*%
%ADD145C,0.021779*%
%ADD146C,0.019811*%
%ADD147C,0.035559*%
%ADD149C,0.047370*%
%ADD150C,0.058000*%
%ADD151C,0.031622*%
%TA.AperFunction,SMDPad,CuDef*%
%ADD163R,0.051307X0.031622*%
%ADD164R,0.051307X0.019811*%
%ADD165R,0.041465X0.019811*%
G04:AMPARAMS|DCode=166|XSize=27.685mil|YSize=48.551mil|CornerRadius=0mil|HoleSize=0mil|Usage=FLASHONLY|Rotation=40.000|XOffset=0mil|YOffset=0mil|HoleType=Round|Shape=Rectangle|*
%AMROTATEDRECTD166*
4,1,4,0.005000,-0.027494,-0.026208,0.009698,-0.005000,0.027494,0.026208,-0.009698,0.005000,-0.027494,0.0*
%
%ADD166ROTATEDRECTD166*%

G04:AMPARAMS|DCode=167|XSize=27.685mil|YSize=48.551mil|CornerRadius=0mil|HoleSize=0mil|Usage=FLASHONLY|Rotation=140.000|XOffset=0mil|YOffset=0mil|HoleType=Round|Shape=Rectangle|*
%AMROTATEDRECTD167*
4,1,4,0.026208,0.009698,-0.005000,-0.027494,-0.026208,-0.009698,0.005000,0.027494,0.026208,0.009698,0.0*
%
%ADD167ROTATEDRECTD167*%

%TA.AperFunction,BGAPad,CuDef*%
%ADD168C,0.015874*%
%TA.AperFunction,SMDPad,CuDef*%
%ADD169R,0.100520X0.208787*%
%ADD170R,0.043433X0.039496*%
%ADD171R,0.145795X0.110362*%
%ADD172R,0.031622X0.015874*%
%ADD173R,0.115087X0.068236*%
%ADD174R,0.115087X0.115087*%
%ADD175R,0.017843X0.031622*%
%ADD176R,0.015874X0.031622*%
G04:AMPARAMS|DCode=177|XSize=19.024mil|YSize=35.165mil|CornerRadius=0mil|HoleSize=0mil|Usage=FLASHONLY|Rotation=315.000|XOffset=0mil|YOffset=0mil|HoleType=Round|Shape=Rectangle|*
%AMROTATEDRECTD177*
4,1,4,-0.019159,-0.005707,0.005707,0.019159,0.019159,0.005707,-0.005707,-0.019159,-0.019159,-0.005707,0.0*
%
%ADD177ROTATEDRECTD177*%

G04:AMPARAMS|DCode=178|XSize=19.024mil|YSize=35.165mil|CornerRadius=0mil|HoleSize=0mil|Usage=FLASHONLY|Rotation=45.000|XOffset=0mil|YOffset=0mil|HoleType=Round|Shape=Rectangle|*
%AMROTATEDRECTD178*
4,1,4,0.005707,-0.019159,-0.019159,0.005707,-0.005707,0.019159,0.019159,-0.005707,0.005707,-0.019159,0.0*
%
%ADD178ROTATEDRECTD178*%

%ADD179P,0.373219X4X180.0*%
%ADD180R,0.032016X0.058000*%
%ADD181R,0.019811X0.082803*%
%ADD182R,0.011811X0.060236*%
%ADD183R,0.141858X0.051307*%
%ADD184R,0.047370X0.041465*%
%ADD185R,0.052488X0.063118*%
%ADD186R,0.043433X0.074929*%
%ADD187R,0.033591X0.047370*%
G04:AMPARAMS|DCode=188|XSize=59.181mil|YSize=51.307mil|CornerRadius=0mil|HoleSize=0mil|Usage=FLASHONLY|Rotation=225.000|XOffset=0mil|YOffset=0mil|HoleType=Round|Shape=Rectangle|*
%AMROTATEDRECTD188*
4,1,4,0.002784,0.039063,0.039063,0.002784,-0.002784,-0.039063,-0.039063,-0.002784,0.002784,0.039063,0.0*
%
%ADD188ROTATEDRECTD188*%

%ADD189R,0.031622X0.051307*%
%ADD190R,0.019811X0.051307*%
%ADD191R,0.208787X0.100520*%
%ADD192R,0.015748X0.015748*%
%TA.AperFunction,Conductor*%
%ADD193R,0.018827X0.031622*%
%ADD194R,0.053276X0.018827*%
%ADD195R,0.161937X0.155638*%
D22*
X6270669Y2874016D02*
D03*
X6327756D02*
D03*
X3863189Y2733268D02*
D03*
X3806102D02*
D03*
X3975394Y2630905D02*
D03*
X4032480D02*
D03*
X2953746Y2858268D02*
D03*
X2896659D02*
D03*
X2721457Y3023622D02*
D03*
X2664370D02*
D03*
X5987205Y3669291D02*
D03*
X6044291D02*
D03*
X6331693Y3381890D02*
D03*
X6274606D02*
D03*
X2664370Y3102362D02*
D03*
X2721457D02*
D03*
X6587598Y3775591D02*
D03*
X6530512D02*
D03*
X2664370Y3181102D02*
D03*
X2721457D02*
D03*
X6270669Y3110236D02*
D03*
X6327756D02*
D03*
X6270669Y3031496D02*
D03*
X6327756D02*
D03*
X6270669Y2952756D02*
D03*
X6327756D02*
D03*
D23*
X3761811Y3688976D02*
D03*
X3718504D02*
D03*
X5344488Y3582677D02*
D03*
X5301181D02*
D03*
X4738189Y2661417D02*
D03*
X4694882D02*
D03*
X4738189Y2480315D02*
D03*
X4694882D02*
D03*
X5742126Y3276575D02*
D03*
X5698819D02*
D03*
X5742126Y3241142D02*
D03*
X5698819D02*
D03*
X5612205Y3125984D02*
D03*
X5568898D02*
D03*
Y3090551D02*
D03*
X5612205D02*
D03*
X5301181Y3543307D02*
D03*
X5344488D02*
D03*
X2974415Y3078740D02*
D03*
X2931108D02*
D03*
X6320866Y3149606D02*
D03*
X6277559D02*
D03*
X6320866Y3070866D02*
D03*
X6277559D02*
D03*
X6320866Y2992126D02*
D03*
X6277559D02*
D03*
X6320866Y2913386D02*
D03*
X6277559D02*
D03*
X5958661Y3236220D02*
D03*
X5915354D02*
D03*
X9139764Y3374016D02*
D03*
X9096457D02*
D03*
X4431102Y3688976D02*
D03*
X4387795D02*
D03*
D33*
X7753937Y2519685D02*
D03*
X7836614D02*
D03*
X2584646Y3023622D02*
D03*
X2501968D02*
D03*
X2584646Y3102362D02*
D03*
X2501968D02*
D03*
X6533465Y3854331D02*
D03*
X6616142D02*
D03*
X2584646Y3181102D02*
D03*
X2501968D02*
D03*
X7753937Y2755905D02*
D03*
X7836614D02*
D03*
X7753937Y2677165D02*
D03*
X7836614D02*
D03*
X7753937Y2598425D02*
D03*
X7836614D02*
D03*
D36*
X3702756Y3346457D02*
D03*
X3911417D02*
D03*
X4372047D02*
D03*
X4580709D02*
D03*
D37*
X8661417Y2727362D02*
D03*
Y2806102D02*
D03*
X3811024Y2863189D02*
D03*
Y2941929D02*
D03*
X3881890Y2863189D02*
D03*
Y2941929D02*
D03*
X4224495Y2246938D02*
D03*
Y2325678D02*
D03*
X4121143Y2246938D02*
D03*
Y2325678D02*
D03*
X4016808Y2246938D02*
D03*
Y2325678D02*
D03*
X3912472Y2246938D02*
D03*
Y2325678D02*
D03*
X3809120Y2246938D02*
D03*
Y2325678D02*
D03*
X5358268Y3850394D02*
D03*
Y3771653D02*
D03*
X5507874Y3850394D02*
D03*
Y3771653D02*
D03*
X5433071Y3850394D02*
D03*
Y3771653D02*
D03*
X5582677Y3850394D02*
D03*
Y3771653D02*
D03*
X5590551Y3385827D02*
D03*
Y3307087D02*
D03*
X5511811Y3385827D02*
D03*
Y3307087D02*
D03*
X5433071Y3385827D02*
D03*
Y3307087D02*
D03*
X5358290Y3385827D02*
D03*
Y3307087D02*
D03*
X5251991Y3185044D02*
D03*
Y3263784D02*
D03*
X5149629Y3185044D02*
D03*
Y3263784D02*
D03*
X3997047Y3895669D02*
D03*
Y3816929D02*
D03*
X4666339Y3895669D02*
D03*
Y3816929D02*
D03*
X4751968Y3834646D02*
D03*
Y3755905D02*
D03*
X4145669Y3779528D02*
D03*
Y3700787D02*
D03*
X4814961Y3779528D02*
D03*
Y3700787D02*
D03*
X4082677Y3834646D02*
D03*
Y3755905D02*
D03*
D48*
X6071303Y2743658D02*
D03*
X6101925Y2713035D02*
D03*
X6094925Y2767280D02*
D03*
X6125547Y2736657D02*
D03*
X9074366Y3484689D02*
D03*
X9043744Y3515311D02*
D03*
D49*
X8913386Y2588583D02*
D03*
X9039370D02*
D03*
X8013780Y2647638D02*
D03*
X8139764D02*
D03*
X9437008Y3649606D02*
D03*
X9311024D02*
D03*
D51*
X3590551Y2506890D02*
D03*
Y2550197D02*
D03*
X3866142Y2475394D02*
D03*
Y2432087D02*
D03*
X3976378Y2841535D02*
D03*
Y2798228D02*
D03*
X9165354Y3403543D02*
D03*
Y3446850D02*
D03*
X5031496Y3360236D02*
D03*
Y3403543D02*
D03*
X5507874Y3541339D02*
D03*
Y3584646D02*
D03*
X5299213Y3403543D02*
D03*
Y3360236D02*
D03*
X5381890Y3584646D02*
D03*
Y3541339D02*
D03*
X9212598Y3683071D02*
D03*
Y3639764D02*
D03*
X5460630Y3584646D02*
D03*
Y3541339D02*
D03*
X5299213Y3505905D02*
D03*
Y3462598D02*
D03*
X6314961Y3486220D02*
D03*
Y3442913D02*
D03*
X6283465Y3486220D02*
D03*
Y3442913D02*
D03*
X9040354Y3712599D02*
D03*
Y3755905D02*
D03*
X9071850Y3712599D02*
D03*
Y3755905D02*
D03*
D52*
X3627843Y2327696D02*
D03*
X3706584D02*
D03*
X8118110Y3240157D02*
D03*
X8039370D02*
D03*
X8661417Y2194882D02*
D03*
X8740157D02*
D03*
X8818898Y2588583D02*
D03*
X8740157D02*
D03*
D53*
X3755905Y2793307D02*
D03*
Y2736220D02*
D03*
X3913386Y2793307D02*
D03*
Y2736220D02*
D03*
X9251968Y3396654D02*
D03*
Y3453740D02*
D03*
X9204724Y3396654D02*
D03*
Y3453740D02*
D03*
X2858273Y2967520D02*
D03*
Y3024606D02*
D03*
X6200787Y3827756D02*
D03*
Y3770669D02*
D03*
X6259842Y3827756D02*
D03*
Y3770669D02*
D03*
X5031496Y3560039D02*
D03*
Y3502953D02*
D03*
X3415354Y2405512D02*
D03*
Y2348425D02*
D03*
D54*
X7998032Y2553150D02*
D03*
Y2427165D02*
D03*
X9141732Y3779528D02*
D03*
Y3653543D02*
D03*
X9330709Y3354331D02*
D03*
Y3480315D02*
D03*
X9555118Y3413386D02*
D03*
Y3539370D02*
D03*
X9440945Y3413386D02*
D03*
Y3539370D02*
D03*
X6102362Y3901575D02*
D03*
Y3775591D02*
D03*
X5866142Y3901575D02*
D03*
Y3775591D02*
D03*
X5984252Y3901575D02*
D03*
Y3775591D02*
D03*
D55*
X5649170Y2893264D02*
D03*
X5618547Y2862642D02*
D03*
X5680666Y2861768D02*
D03*
X5650043Y2831145D02*
D03*
X5744642Y2789918D02*
D03*
X5714019Y2759295D02*
D03*
X5776138Y2758421D02*
D03*
X5745516Y2727799D02*
D03*
X6038933Y3286965D02*
D03*
X6008311Y3256342D02*
D03*
X6149169Y3176729D02*
D03*
X6118547Y3146106D02*
D03*
D56*
X3415354Y2485236D02*
D03*
Y2567913D02*
D03*
D60*
X4865891Y3403293D02*
D03*
X4954975Y3492377D02*
D03*
D61*
X4852642Y3526855D02*
D03*
X4796964Y3471177D02*
D03*
D119*
X6897638Y2431102D02*
D03*
X6911417Y2397638D02*
D03*
X6883858D02*
D03*
D120*
X4664370Y2992126D02*
D03*
Y2972441D02*
D03*
Y2952756D02*
D03*
Y2933071D02*
D03*
Y2913386D02*
D03*
X4626968D02*
D03*
Y2933071D02*
D03*
Y2952756D02*
D03*
Y2972441D02*
D03*
Y2992126D02*
D03*
X5333661D02*
D03*
Y2972441D02*
D03*
Y2952756D02*
D03*
Y2933071D02*
D03*
Y2913386D02*
D03*
X5296260D02*
D03*
Y2933071D02*
D03*
Y2952756D02*
D03*
Y2972441D02*
D03*
Y2992126D02*
D03*
X8701772Y3187008D02*
D03*
Y3206693D02*
D03*
Y3226378D02*
D03*
Y3246063D02*
D03*
Y3265748D02*
D03*
X8739173D02*
D03*
Y3246063D02*
D03*
Y3226378D02*
D03*
Y3206693D02*
D03*
Y3187008D02*
D03*
D121*
X5098228Y3362205D02*
D03*
X5148228D02*
D03*
X5248228D02*
D03*
X5198228D02*
D03*
Y3559055D02*
D03*
X5248228D02*
D03*
X5148228D02*
D03*
X5098228D02*
D03*
X3657284Y2430118D02*
D03*
X3707284D02*
D03*
X3807284D02*
D03*
X3757284D02*
D03*
Y2626968D02*
D03*
X3807284D02*
D03*
X3707284D02*
D03*
X3657284D02*
D03*
D123*
X8503937Y3779528D02*
D03*
X7952756Y2125984D02*
D03*
D124*
X9960630D02*
D03*
X2401575Y3897638D02*
D03*
D128*
X8897638Y2412992D02*
D03*
Y2312992D02*
D03*
Y2212992D02*
D03*
X9488189Y2627953D02*
D03*
Y2332677D02*
D03*
D129*
X9946850Y2731496D02*
D03*
Y3174016D02*
D03*
D130*
X9789370Y2731496D02*
D03*
Y3174016D02*
D03*
D131*
X9891732Y2952756D02*
D03*
X3464567Y2086614D02*
D03*
D132*
X9173228Y2832677D02*
D03*
X9311024D02*
D03*
D133*
X9242126Y3053150D02*
D03*
D134*
X9084252Y2942913D02*
D03*
X9400000D02*
D03*
D135*
X4836614Y3047244D02*
D03*
Y2858268D02*
D03*
X5005905D02*
D03*
Y3047244D02*
D03*
X4167323D02*
D03*
Y2858268D02*
D03*
X4336614D02*
D03*
Y3047244D02*
D03*
D136*
X8135827Y2862599D02*
D03*
Y2962599D02*
D03*
Y3062599D02*
D03*
X5539370Y2066929D02*
D03*
X5460630D02*
D03*
X5381890D02*
D03*
D137*
X5299213D02*
D03*
X5622047D02*
D03*
D138*
X9862205Y3681102D02*
D03*
X8129921Y2224409D02*
D03*
X2500000Y2106299D02*
D03*
Y3799213D02*
D03*
X9862205Y2224409D02*
D03*
D139*
X4533465Y2114173D02*
D03*
X4557087Y2307087D02*
D03*
X5151575Y2114173D02*
D03*
X5127953Y2307087D02*
D03*
D140*
X5669291Y3602362D02*
D03*
X7559055Y2303150D02*
D03*
Y3602362D02*
D03*
X5669291Y2303150D02*
D03*
D141*
X8067717Y3646850D02*
D03*
Y3746850D02*
D03*
X7767717D02*
D03*
Y3646850D02*
D03*
X7867717D02*
D03*
Y3746850D02*
D03*
X7967717Y3646850D02*
D03*
Y3746850D02*
D03*
D142*
X3243307Y2031496D02*
D03*
X3685827D02*
D03*
D143*
X3243307Y2188976D02*
D03*
X3685827D02*
D03*
D144*
X4563976Y3600000D02*
D03*
X4648622D02*
D03*
X4606299D02*
D03*
X4563976Y3699409D02*
D03*
X4648622D02*
D03*
X4606299Y3655709D02*
D03*
Y3743110D02*
D03*
Y3699409D02*
D03*
X3894685Y3600000D02*
D03*
X3979331D02*
D03*
X3937008D02*
D03*
X3894685Y3699409D02*
D03*
X3979331D02*
D03*
X3937008Y3655709D02*
D03*
Y3743110D02*
D03*
Y3699409D02*
D03*
X5472441Y3692913D02*
D03*
X4732283Y2708661D02*
D03*
D145*
X8739173Y2638780D02*
D03*
X9212598Y3559055D02*
D03*
X8764764Y2990157D02*
D03*
X8709646Y2811024D02*
D03*
X3929134Y3811024D02*
D03*
X3904528D02*
D03*
X4573819D02*
D03*
X4598425D02*
D03*
X4501968Y3706693D02*
D03*
X4887795Y3740157D02*
D03*
X4218504D02*
D03*
X3832677Y3742126D02*
D03*
X3832677Y3724409D02*
D03*
X3832677Y3706693D02*
D03*
X4501968Y3724409D02*
D03*
X4501968Y3742126D02*
D03*
X4730315Y3598425D02*
D03*
X4986220Y2982284D02*
D03*
X4716535Y3614173D02*
D03*
X4047244D02*
D03*
X4316929Y2982284D02*
D03*
X4061024Y3598425D02*
D03*
X4851378Y2952756D02*
D03*
X4182087D02*
D03*
X4370079D02*
D03*
X5039370D02*
D03*
X5042322Y3002953D02*
D03*
Y3020669D02*
D03*
X4790353Y2999410D02*
D03*
Y3017126D02*
D03*
X5049802Y2845472D02*
D03*
X5067519D02*
D03*
X4915353Y2747441D02*
D03*
Y2765157D02*
D03*
X4246063D02*
D03*
Y2747441D02*
D03*
X4398229Y2845472D02*
D03*
X4380512D02*
D03*
X4121063Y3017126D02*
D03*
Y2999410D02*
D03*
X4373032Y3020669D02*
D03*
Y3002953D02*
D03*
X5267275Y2973258D02*
D03*
Y2991308D02*
D03*
Y2914203D02*
D03*
Y2932253D02*
D03*
X4597984D02*
D03*
Y2914203D02*
D03*
Y2991308D02*
D03*
Y2973258D02*
D03*
X6511811Y2380905D02*
D03*
X9606299Y3001968D02*
D03*
X9694882Y2982284D02*
D03*
X9606299Y2903543D02*
D03*
X9577756Y2923228D02*
D03*
X5905512Y2726378D02*
D03*
X5679134Y2952756D02*
D03*
X5834414Y2748263D02*
D03*
X6007874Y2530905D02*
D03*
Y2513189D02*
D03*
X9259843Y3606299D02*
D03*
X8795276Y3222060D02*
D03*
Y3240761D02*
D03*
X9161417Y3574803D02*
D03*
X6574803Y3531201D02*
D03*
X6590551Y3506890D02*
D03*
X6484252Y3719488D02*
D03*
X8590551Y3685039D02*
D03*
X8811024D02*
D03*
X9041339D02*
D03*
X9113189Y3737205D02*
D03*
X6007874Y2625394D02*
D03*
Y2607677D02*
D03*
X6684055Y2977362D02*
D03*
X6161417Y3728347D02*
D03*
X7303150Y2901575D02*
D03*
X7397638Y2826772D02*
D03*
X6031496Y3106299D02*
D03*
X6970000Y2830000D02*
D03*
X7260000Y3000000D02*
D03*
X7040000Y2900000D02*
D03*
X6622047Y2760827D02*
D03*
X6572047D02*
D03*
X6522441D02*
D03*
X6572047Y2898622D02*
D03*
X6522441D02*
D03*
X6472441Y2898622D02*
D03*
X6173228Y2866142D02*
D03*
X6200787Y2893701D02*
D03*
X6214567Y2907480D02*
D03*
X6187008Y2879921D02*
D03*
X9338583Y3543307D02*
D03*
X9090551Y3197835D02*
D03*
X9065945Y3178150D02*
D03*
X9654528Y2952756D02*
D03*
X9242126Y2834646D02*
D03*
X6897638Y2414370D02*
D03*
X5374016Y2610236D02*
D03*
Y2574803D02*
D03*
X6527559Y2175197D02*
D03*
Y2279528D02*
D03*
X9284449Y3562992D02*
D03*
Y3586614D02*
D03*
X6353346Y3149606D02*
D03*
Y3070866D02*
D03*
Y2992126D02*
D03*
Y2913386D02*
D03*
X6294291Y2829724D02*
D03*
X6941929Y2236220D02*
D03*
X9192913Y2868110D02*
D03*
X2858268Y3067913D02*
D03*
X6120079Y3622047D02*
D03*
X2791339Y3181102D02*
D03*
Y3102362D02*
D03*
X6149606Y3498032D02*
D03*
X6763779Y3784449D02*
D03*
X2429134Y3023622D02*
D03*
X6248032Y3417323D02*
D03*
X9090551Y3342520D02*
D03*
X9212599Y2979331D02*
D03*
X9066929Y3342520D02*
D03*
X9271654Y2906496D02*
D03*
X6448819Y3523622D02*
D03*
X3003937Y2760236D02*
D03*
X2968504D02*
D03*
X2933071D02*
D03*
X2862205D02*
D03*
X2791339D02*
D03*
X2755906D02*
D03*
X3114173Y3078740D02*
D03*
X6346457Y3720472D02*
D03*
X6448819D02*
D03*
X6425197D02*
D03*
X6401575D02*
D03*
X6377953D02*
D03*
X6468504Y3885827D02*
D03*
Y3464567D02*
D03*
X6182395Y3728347D02*
D03*
X6196850Y3523622D02*
D03*
X6204724Y3728347D02*
D03*
X6228346D02*
D03*
X6212598Y3500000D02*
D03*
X6228346Y3480315D02*
D03*
X6098425Y3669291D02*
D03*
X6017618Y2186024D02*
D03*
X5998917D02*
D03*
X3473819Y2304134D02*
D03*
X3455118D02*
D03*
X6009785Y2781438D02*
D03*
X5734194Y2848483D02*
D03*
X5976610Y3157249D02*
D03*
X6010016Y3123842D02*
D03*
X6110004Y2881658D02*
D03*
X6076598Y2848251D02*
D03*
X6043191Y2814845D02*
D03*
X5801007Y2781670D02*
D03*
X5767601Y2815077D02*
D03*
X5700787Y2881890D02*
D03*
X5701019Y3023854D02*
D03*
X5734426Y3057260D02*
D03*
X5767832Y3090667D02*
D03*
X5801239Y3124074D02*
D03*
X5834646Y3157480D02*
D03*
X6310482Y3523622D02*
D03*
X6287402D02*
D03*
X6311024Y3811024D02*
D03*
X6511811Y2096004D02*
D03*
X6061024Y2329724D02*
D03*
X6057087Y2236220D02*
D03*
X9285710Y3521930D02*
D03*
X9244094Y3496063D02*
D03*
X9165354Y3492126D02*
D03*
X9204724D02*
D03*
X9161417Y3594488D02*
D03*
X9196850Y3574803D02*
D03*
X4286417Y2942913D02*
D03*
X4229214Y2962598D02*
D03*
X4286417D02*
D03*
X4229138Y2942913D02*
D03*
X5607677Y2582677D02*
D03*
X5625394D02*
D03*
X9251083Y2912204D02*
D03*
X9233366D02*
D03*
X6007874Y2578150D02*
D03*
Y2560433D02*
D03*
X8622047Y3146260D02*
D03*
Y3163977D02*
D03*
Y3289370D02*
D03*
Y3307087D02*
D03*
X5442323Y2582677D02*
D03*
X5460039D02*
D03*
X5546654D02*
D03*
X5528937D02*
D03*
X4955709Y2962598D02*
D03*
Y2942913D02*
D03*
X4898505Y2962598D02*
D03*
X4898429Y2942913D02*
D03*
D146*
X9228346Y3606299D02*
D03*
Y3590551D02*
D03*
X9212598D02*
D03*
X9228346Y3574803D02*
D03*
X9259843Y3559055D02*
D03*
X9228346Y3527559D02*
D03*
X9259843Y3543307D02*
D03*
X9244094Y3559055D02*
D03*
X9228346Y3543307D02*
D03*
X9244094D02*
D03*
D147*
X5078740Y3263780D02*
D03*
X3963583Y3502953D02*
D03*
X4632874D02*
D03*
X3911417Y3189961D02*
D03*
Y3502953D02*
D03*
X4580709D02*
D03*
Y3189961D02*
D03*
X4150422Y2952756D02*
D03*
X4819713D02*
D03*
X8563976Y3431102D02*
D03*
X9329724D02*
D03*
X9047244Y3562992D02*
D03*
X7972441Y3240157D02*
D03*
X4303150Y2325787D02*
D03*
D149*
X8725787Y3793307D02*
D03*
X8509843Y2368110D02*
D03*
X8946260Y3793307D02*
D03*
X8896260D02*
D03*
X8775787D02*
D03*
X8995472Y3375000D02*
D03*
X8945472D02*
D03*
X8895472D02*
D03*
X8845472D02*
D03*
X8509843D02*
D03*
X8625000D02*
D03*
X8675000D02*
D03*
X8775000D02*
D03*
X8725000D02*
D03*
X3960630Y2941929D02*
D03*
X8145669Y2367126D02*
D03*
X5770669Y3372047D02*
D03*
D150*
X9173228Y3149606D02*
D03*
X9665354Y3539370D02*
D03*
X9314961Y3149606D02*
D03*
X9448819D02*
D03*
D151*
X5866142Y2874016D02*
D03*
X5826772Y2913386D02*
D03*
X5866142D02*
D03*
X5826772Y2992126D02*
D03*
X5866142Y3031496D02*
D03*
Y2992126D02*
D03*
X5984252D02*
D03*
X5944882Y3031496D02*
D03*
Y2992126D02*
D03*
X5984252Y2913386D02*
D03*
X5944882Y2874016D02*
D03*
Y2913386D02*
D03*
X6023622Y2952756D02*
D03*
X5905512Y2834646D02*
D03*
X5788810Y2951348D02*
D03*
X5905512Y3070866D02*
D03*
X5984252Y2952756D02*
D03*
X5905512Y2874016D02*
D03*
X5826772Y2952756D02*
D03*
X5905512Y3031496D02*
D03*
X5944882Y2952756D02*
D03*
X5905512Y2913386D02*
D03*
X5867109Y2951788D02*
D03*
X5905512Y2992126D02*
D03*
Y2952756D02*
D03*
D163*
X9744094Y3047244D02*
D03*
Y3078740D02*
D03*
Y2858268D02*
D03*
Y2826772D02*
D03*
X6362205Y3848425D02*
D03*
X6464567Y3773622D02*
D03*
Y3848425D02*
D03*
X6362205Y3811024D02*
D03*
Y3773622D02*
D03*
D164*
X9744094Y2883858D02*
D03*
Y2903543D02*
D03*
Y2923228D02*
D03*
Y2942913D02*
D03*
Y2962598D02*
D03*
Y2982284D02*
D03*
Y3001968D02*
D03*
Y3021653D02*
D03*
D165*
X4953937Y3061024D02*
D03*
Y3041339D02*
D03*
Y3021653D02*
D03*
Y3001968D02*
D03*
Y2982284D02*
D03*
Y2962598D02*
D03*
Y2942913D02*
D03*
Y2923228D02*
D03*
Y2903543D02*
D03*
Y2883858D02*
D03*
Y2864173D02*
D03*
Y2844488D02*
D03*
X4888583D02*
D03*
Y2864173D02*
D03*
Y2883858D02*
D03*
Y2903543D02*
D03*
Y2923228D02*
D03*
Y2942913D02*
D03*
Y2962598D02*
D03*
Y2982284D02*
D03*
Y3001968D02*
D03*
Y3021653D02*
D03*
Y3041339D02*
D03*
Y3061024D02*
D03*
X4284646D02*
D03*
Y3041339D02*
D03*
Y3021653D02*
D03*
Y3001968D02*
D03*
Y2982284D02*
D03*
Y2962598D02*
D03*
Y2942913D02*
D03*
Y2923228D02*
D03*
Y2903543D02*
D03*
Y2883858D02*
D03*
Y2864173D02*
D03*
Y2844488D02*
D03*
X4219291D02*
D03*
Y2864173D02*
D03*
Y2883858D02*
D03*
Y2903543D02*
D03*
Y2923228D02*
D03*
Y2942913D02*
D03*
Y2962598D02*
D03*
Y2982284D02*
D03*
Y3001968D02*
D03*
Y3021653D02*
D03*
Y3041339D02*
D03*
Y3061024D02*
D03*
D166*
X4876575Y2800000D02*
D03*
X4965945Y3105512D02*
D03*
X4207283Y2800000D02*
D03*
X4296654Y3105512D02*
D03*
D167*
X4965945Y2800000D02*
D03*
X4876575Y3105512D02*
D03*
X4296654Y2800000D02*
D03*
X4207283Y3105512D02*
D03*
D168*
X9181102Y3527559D02*
D03*
Y3543307D02*
D03*
Y3559055D02*
D03*
Y3574803D02*
D03*
Y3590551D02*
D03*
Y3606299D02*
D03*
X9196850Y3527559D02*
D03*
Y3543307D02*
D03*
Y3559055D02*
D03*
Y3574803D02*
D03*
Y3590551D02*
D03*
Y3606299D02*
D03*
X9212598Y3527559D02*
D03*
Y3543307D02*
D03*
Y3559055D02*
D03*
Y3574803D02*
D03*
Y3590551D02*
D03*
Y3606299D02*
D03*
X9228346Y3527559D02*
D03*
Y3543307D02*
D03*
Y3559055D02*
D03*
Y3574803D02*
D03*
Y3590551D02*
D03*
Y3606299D02*
D03*
X9244094Y3527559D02*
D03*
Y3543307D02*
D03*
Y3559055D02*
D03*
Y3574803D02*
D03*
Y3590551D02*
D03*
Y3606299D02*
D03*
X9259843Y3527559D02*
D03*
Y3543307D02*
D03*
Y3559055D02*
D03*
Y3574803D02*
D03*
Y3590551D02*
D03*
Y3606299D02*
D03*
D169*
X5099409Y3771653D02*
D03*
X5262795D02*
D03*
D170*
X4775591Y2570868D02*
D03*
X4696850Y2533467D02*
D03*
Y2608270D02*
D03*
D171*
X5173228Y3460630D02*
D03*
X3732284Y2528543D02*
D03*
D172*
X4531496Y3677165D02*
D03*
X4681102Y3755905D02*
D03*
Y3740157D02*
D03*
Y3708661D02*
D03*
Y3692913D02*
D03*
Y3677165D02*
D03*
Y3661417D02*
D03*
Y3645669D02*
D03*
Y3629921D02*
D03*
Y3614173D02*
D03*
Y3598425D02*
D03*
Y3582677D02*
D03*
Y3566929D02*
D03*
X4531496D02*
D03*
Y3582677D02*
D03*
Y3598425D02*
D03*
Y3614173D02*
D03*
Y3629921D02*
D03*
Y3645669D02*
D03*
Y3661417D02*
D03*
Y3692913D02*
D03*
Y3708661D02*
D03*
Y3724409D02*
D03*
Y3740157D02*
D03*
Y3755905D02*
D03*
X4681102Y3724409D02*
D03*
X3862205Y3677165D02*
D03*
X4011811Y3755905D02*
D03*
Y3740157D02*
D03*
Y3708661D02*
D03*
Y3692913D02*
D03*
Y3677165D02*
D03*
Y3661417D02*
D03*
Y3645669D02*
D03*
Y3629921D02*
D03*
Y3614173D02*
D03*
Y3598425D02*
D03*
Y3582677D02*
D03*
Y3566929D02*
D03*
X3862205D02*
D03*
Y3582677D02*
D03*
Y3598425D02*
D03*
Y3614173D02*
D03*
Y3629921D02*
D03*
Y3645669D02*
D03*
Y3661417D02*
D03*
Y3692913D02*
D03*
Y3708661D02*
D03*
Y3724409D02*
D03*
Y3740157D02*
D03*
Y3755905D02*
D03*
X4011811Y3724409D02*
D03*
D173*
X4606299Y3600000D02*
D03*
X3937008D02*
D03*
D174*
X4606299Y3699409D02*
D03*
X3937008D02*
D03*
D175*
X4650591Y3547244D02*
D03*
X4562008D02*
D03*
X3981299D02*
D03*
X3892717D02*
D03*
D176*
X4631890D02*
D03*
X4614173D02*
D03*
X4598425D02*
D03*
X4580709D02*
D03*
X4566929Y3775590D02*
D03*
X4582677D02*
D03*
X4598425D02*
D03*
X4614173D02*
D03*
X4629921D02*
D03*
X4645669D02*
D03*
X3962599Y3547244D02*
D03*
X3944882D02*
D03*
X3929134D02*
D03*
X3911417D02*
D03*
X3897638Y3775590D02*
D03*
X3913386D02*
D03*
X3929134D02*
D03*
X3944882D02*
D03*
X3960630D02*
D03*
X3976378D02*
D03*
D177*
X5883241Y2752316D02*
D03*
X5872105Y2763452D02*
D03*
X5860970Y2774587D02*
D03*
X5849834Y2785723D02*
D03*
X5838699Y2796858D02*
D03*
X5827563Y2807994D02*
D03*
X5816427Y2819129D02*
D03*
X5805292Y2830265D02*
D03*
X5794156Y2841401D02*
D03*
X5783021Y2852536D02*
D03*
X5771885Y2863672D02*
D03*
X5760750Y2874807D02*
D03*
X5705072Y2930485D02*
D03*
X5716208Y2919349D02*
D03*
X5727343Y2908214D02*
D03*
X5738479Y2897078D02*
D03*
X5749614Y2885943D02*
D03*
X5938918Y3142060D02*
D03*
X5927783Y3153196D02*
D03*
X5950054Y3130925D02*
D03*
X5961190Y3119789D02*
D03*
X5972325Y3108653D02*
D03*
X5983461Y3097518D02*
D03*
X5994596Y3086382D02*
D03*
X6005732Y3075247D02*
D03*
X6016867Y3064111D02*
D03*
X6028003Y3052976D02*
D03*
X6105952Y2975027D02*
D03*
X6094816Y2986162D02*
D03*
X6083680Y2997298D02*
D03*
X6072545Y3008434D02*
D03*
X6061409Y3019569D02*
D03*
X6050274Y3030705D02*
D03*
X6039138Y3041840D02*
D03*
D178*
X5727343Y2997298D02*
D03*
X5716208Y2986162D02*
D03*
X5705072Y2975027D02*
D03*
X5738479Y3008434D02*
D03*
X5749614Y3019569D02*
D03*
X5760750Y3030705D02*
D03*
X5771885Y3041840D02*
D03*
X5783021Y3052976D02*
D03*
X5794156Y3064111D02*
D03*
X5805292Y3075247D02*
D03*
X5816427Y3086382D02*
D03*
X5883241Y3153196D02*
D03*
X5872105Y3142060D02*
D03*
X5860970Y3130925D02*
D03*
X5849834Y3119789D02*
D03*
X5838699Y3108653D02*
D03*
X5827563Y3097518D02*
D03*
X6105952Y2930485D02*
D03*
X6094816Y2919349D02*
D03*
X6083680Y2908214D02*
D03*
X6072545Y2897078D02*
D03*
X6061409Y2885943D02*
D03*
X6050274Y2874807D02*
D03*
X6039138Y2863672D02*
D03*
X6028003Y2852536D02*
D03*
X6016867Y2841401D02*
D03*
X5927783Y2752316D02*
D03*
X5938918Y2763452D02*
D03*
X5950054Y2774587D02*
D03*
X5961190Y2785723D02*
D03*
X5972325Y2796858D02*
D03*
X5983461Y2807994D02*
D03*
X5994596Y2819129D02*
D03*
X6005732Y2830265D02*
D03*
D179*
X5905512Y2952756D02*
D03*
D180*
X8996260Y3735039D02*
D03*
X8946260D02*
D03*
X8896260D02*
D03*
X8846260D02*
D03*
Y3524803D02*
D03*
X8896260D02*
D03*
X8946260D02*
D03*
X8996260D02*
D03*
X8775787Y3735039D02*
D03*
X8725787D02*
D03*
X8675787D02*
D03*
X8625787D02*
D03*
Y3524803D02*
D03*
X8675787D02*
D03*
X8725787D02*
D03*
X8775787D02*
D03*
D181*
X5029528Y2346457D02*
D03*
X5009842D02*
D03*
X4990158D02*
D03*
X4950787D02*
D03*
X4911417D02*
D03*
X4970472D02*
D03*
X4931102D02*
D03*
X4891732D02*
D03*
X4872047D02*
D03*
X4852362D02*
D03*
X4675197D02*
D03*
X4694882D02*
D03*
X4734252D02*
D03*
X4773622D02*
D03*
X4714567D02*
D03*
X4753937D02*
D03*
X4793307D02*
D03*
X4812992D02*
D03*
X4832677D02*
D03*
D182*
X6543307Y2236614D02*
D03*
X6559055D02*
D03*
X6574803D02*
D03*
X6590551D02*
D03*
X6606299D02*
D03*
X6622047D02*
D03*
X6637795D02*
D03*
X6653543D02*
D03*
X6669291D02*
D03*
X6685039D02*
D03*
X6700787D02*
D03*
X6716535D02*
D03*
X6732283D02*
D03*
X6748031D02*
D03*
X6763779D02*
D03*
X6779528D02*
D03*
X6795276D02*
D03*
X6811024D02*
D03*
X6826772D02*
D03*
X6842520D02*
D03*
X6858268D02*
D03*
X6874016D02*
D03*
X6889764D02*
D03*
X6905512D02*
D03*
X6921260D02*
D03*
X6149606D02*
D03*
X6165354D02*
D03*
X6181102D02*
D03*
X6196850D02*
D03*
X6212598D02*
D03*
X6228346D02*
D03*
X6244094D02*
D03*
X6259842D02*
D03*
X6275590D02*
D03*
X6291338D02*
D03*
X6307087D02*
D03*
X6322834D02*
D03*
X6338583D02*
D03*
X6354331D02*
D03*
X6370079D02*
D03*
X6385827D02*
D03*
X6401575D02*
D03*
X6417323D02*
D03*
X6433071D02*
D03*
X6448819D02*
D03*
X6464567D02*
D03*
X6480315D02*
D03*
X6496063D02*
D03*
X6511811D02*
D03*
X6527559D02*
D03*
X6543307Y2330315D02*
D03*
X6559055D02*
D03*
X6574803D02*
D03*
X6590551D02*
D03*
X6606299D02*
D03*
X6622047D02*
D03*
X6637795D02*
D03*
X6653543D02*
D03*
X6669291D02*
D03*
X6685039D02*
D03*
X6700787D02*
D03*
X6716535D02*
D03*
X6732283D02*
D03*
X6748031D02*
D03*
X6763779D02*
D03*
X6779528D02*
D03*
X6795276D02*
D03*
X6811024D02*
D03*
X6826772D02*
D03*
X6842520D02*
D03*
X6858268D02*
D03*
X6874016D02*
D03*
X6889764D02*
D03*
X6905512D02*
D03*
X6921260D02*
D03*
X6149606D02*
D03*
X6165354D02*
D03*
X6181102D02*
D03*
X6196850D02*
D03*
X6212598D02*
D03*
X6228346D02*
D03*
X6244094D02*
D03*
X6259842D02*
D03*
X6275590D02*
D03*
X6291338D02*
D03*
X6307087D02*
D03*
X6322834D02*
D03*
X6338583D02*
D03*
X6354331D02*
D03*
X6370079D02*
D03*
X6385827D02*
D03*
X6401575D02*
D03*
X6417323D02*
D03*
X6433071D02*
D03*
X6448819D02*
D03*
X6464567D02*
D03*
X6480315D02*
D03*
X6496063D02*
D03*
X6511811D02*
D03*
X6527559D02*
D03*
X6543307Y3575197D02*
D03*
X6559055D02*
D03*
X6574803D02*
D03*
X6590551D02*
D03*
X6606299D02*
D03*
X6622047D02*
D03*
X6637795D02*
D03*
X6653543D02*
D03*
X6669291D02*
D03*
X6685039D02*
D03*
X6700787D02*
D03*
X6716535D02*
D03*
X6732283D02*
D03*
X6748031D02*
D03*
X6763779D02*
D03*
X6779528D02*
D03*
X6795276D02*
D03*
X6811024D02*
D03*
X6826772D02*
D03*
X6842520D02*
D03*
X6858268D02*
D03*
X6874016D02*
D03*
X6889764D02*
D03*
X6905512D02*
D03*
X6921260D02*
D03*
X6149606D02*
D03*
X6165354D02*
D03*
X6181102D02*
D03*
X6196850D02*
D03*
X6212598D02*
D03*
X6228346D02*
D03*
X6244094D02*
D03*
X6259842D02*
D03*
X6275590D02*
D03*
X6291338D02*
D03*
X6307087D02*
D03*
X6322834D02*
D03*
X6338583D02*
D03*
X6354331D02*
D03*
X6370079D02*
D03*
X6385827D02*
D03*
X6401575D02*
D03*
X6417323D02*
D03*
X6433071D02*
D03*
X6448819D02*
D03*
X6464567D02*
D03*
X6480315D02*
D03*
X6496063D02*
D03*
X6511811D02*
D03*
X6527559D02*
D03*
X6543307Y3668898D02*
D03*
X6559055D02*
D03*
X6574803D02*
D03*
X6590551D02*
D03*
X6606299D02*
D03*
X6622047D02*
D03*
X6637795D02*
D03*
X6653543D02*
D03*
X6669291D02*
D03*
X6685039D02*
D03*
X6700787D02*
D03*
X6716535D02*
D03*
X6732283D02*
D03*
X6748031D02*
D03*
X6763779D02*
D03*
X6779528D02*
D03*
X6795276D02*
D03*
X6811024D02*
D03*
X6826772D02*
D03*
X6842520D02*
D03*
X6858268D02*
D03*
X6874016D02*
D03*
X6889764D02*
D03*
X6905512D02*
D03*
X6921260D02*
D03*
X6149606D02*
D03*
X6165354D02*
D03*
X6181102D02*
D03*
X6196850D02*
D03*
X6212598D02*
D03*
X6228346D02*
D03*
X6244094D02*
D03*
X6259842D02*
D03*
X6275590D02*
D03*
X6291338D02*
D03*
X6307087D02*
D03*
X6322834D02*
D03*
X6338583D02*
D03*
X6354331D02*
D03*
X6370079D02*
D03*
X6385827D02*
D03*
X6401575D02*
D03*
X6417323D02*
D03*
X6433071D02*
D03*
X6448819D02*
D03*
X6464567D02*
D03*
X6480315D02*
D03*
X6496063D02*
D03*
X6511811D02*
D03*
X6527559D02*
D03*
D183*
X8155512Y2549213D02*
D03*
Y2431102D02*
D03*
D184*
X3188976Y2241929D02*
D03*
X2637795D02*
D03*
Y2317913D02*
D03*
D185*
X2635827Y2434055D02*
D03*
X3179134Y2540354D02*
D03*
Y2325787D02*
D03*
D186*
X2631890Y2693898D02*
D03*
X3194882D02*
D03*
X2632978Y2154528D02*
D03*
X3195984Y2154169D02*
D03*
D187*
X2692126Y2708661D02*
D03*
X2791339D02*
D03*
X2826772D02*
D03*
X2862205D02*
D03*
X2897638D02*
D03*
X2933071D02*
D03*
X2968504D02*
D03*
X3003937D02*
D03*
X2755905D02*
D03*
D188*
X6131634Y3224887D02*
D03*
X6070389Y3163642D02*
D03*
X6025846Y3208184D02*
D03*
X6087092Y3269429D02*
D03*
D189*
X3559055Y2234252D02*
D03*
X3590551D02*
D03*
X3370079D02*
D03*
X3338583D02*
D03*
X2915354Y2921260D02*
D03*
X2990157Y3023622D02*
D03*
X2915354D02*
D03*
X2952756Y2921260D02*
D03*
X2990157D02*
D03*
D190*
X3395669Y2234252D02*
D03*
X3415354D02*
D03*
X3435039D02*
D03*
X3454724D02*
D03*
X3474409D02*
D03*
X3494095D02*
D03*
X3513780D02*
D03*
X3533465D02*
D03*
D191*
X8700787Y2310039D02*
D03*
Y2473425D02*
D03*
X3582677Y2750000D02*
D03*
Y2913386D02*
D03*
D192*
X4353346Y2952756D02*
D03*
X4386811Y2966535D02*
D03*
Y2938976D02*
D03*
X5022638Y2952756D02*
D03*
X5056102Y2966535D02*
D03*
Y2938976D02*
D03*
X9671260Y2952756D02*
D03*
X9637795Y2938976D02*
D03*
Y2966535D02*
D03*
D193*
X4674705Y3669296D02*
D03*
X4674709Y3700787D02*
D03*
X4005396Y3669292D02*
D03*
X4005413Y3700805D02*
D03*
D194*
X4579731Y3553643D02*
D03*
X4632881D02*
D03*
X3910428Y3553641D02*
D03*
X3963578D02*
D03*
D195*
X8921260Y3604331D02*
D03*
X8700787D02*
D03*
%TF.MD5,7752af08f9b6c8aa22e763b12134ed8b*%
M02*
