%TF.GenerationSoftware,Altium Limited,Altium Designer,22.4.2 (48)*%
G04 Layer_Color=255*
%FSLAX26Y26*%
%MOIN*%
%TF.SameCoordinates,8C98EB32-1E12-42CD-A60B-9DA89663A72C*%
%TF.FilePolarity,Positive*%
%TF.FileFunction,Pads,Top*%
%TF.Part,Single*%
G01*
G75*
%TA.AperFunction,SMDPad,CuDef*%
%ADD12R,0.043307X0.023622*%
%ADD13R,0.043307X0.011811*%
%ADD14R,0.033465X0.011811*%
G04:AMPARAMS|DCode=15|XSize=19.685mil|YSize=40.551mil|CornerRadius=0mil|HoleSize=0mil|Usage=FLASHONLY|Rotation=40.000|XOffset=0mil|YOffset=0mil|HoleType=Round|Shape=Rectangle|*
%AMROTATEDRECTD15*
4,1,4,0.005493,-0.021859,-0.020573,0.009205,-0.005493,0.021859,0.020573,-0.009205,0.005493,-0.021859,0.0*
%
%ADD15ROTATEDRECTD15*%

G04:AMPARAMS|DCode=16|XSize=19.685mil|YSize=40.551mil|CornerRadius=0mil|HoleSize=0mil|Usage=FLASHONLY|Rotation=140.000|XOffset=0mil|YOffset=0mil|HoleType=Round|Shape=Rectangle|*
%AMROTATEDRECTD16*
4,1,4,0.020573,0.009205,-0.005493,-0.021859,-0.020573,-0.009205,0.005493,0.021859,0.020573,0.009205,0.0*
%
%ADD16ROTATEDRECTD16*%

%TA.AperFunction,BGAPad,CuDef*%
%ADD17C,0.007874*%
%TA.AperFunction,SMDPad,CuDef*%
%ADD18R,0.092520X0.200787*%
%ADD19R,0.035433X0.031496*%
%ADD20R,0.137795X0.102362*%
%ADD21R,0.031496X0.059055*%
%ADD22R,0.033465X0.035433*%
%ADD23R,0.023622X0.023622*%
%ADD24R,0.023622X0.007874*%
%ADD25R,0.107087X0.060236*%
%ADD26R,0.107087X0.107087*%
%ADD27R,0.009842X0.023622*%
%ADD28R,0.007874X0.023622*%
G04:AMPARAMS|DCode=29|XSize=11.024mil|YSize=27.165mil|CornerRadius=0mil|HoleSize=0mil|Usage=FLASHONLY|Rotation=315.000|XOffset=0mil|YOffset=0mil|HoleType=Round|Shape=Rectangle|*
%AMROTATEDRECTD29*
4,1,4,-0.013502,-0.005707,0.005707,0.013502,0.013502,0.005707,-0.005707,-0.013502,-0.013502,-0.005707,0.0*
%
%ADD29ROTATEDRECTD29*%

G04:AMPARAMS|DCode=30|XSize=11.024mil|YSize=27.165mil|CornerRadius=0mil|HoleSize=0mil|Usage=FLASHONLY|Rotation=45.000|XOffset=0mil|YOffset=0mil|HoleType=Round|Shape=Rectangle|*
%AMROTATEDRECTD30*
4,1,4,0.005707,-0.013502,-0.013502,0.005707,-0.005707,0.013502,0.013502,-0.005707,0.005707,-0.013502,0.0*
%
%ADD30ROTATEDRECTD30*%

%ADD31P,0.361905X4X180.0*%
%ADD32R,0.024016X0.050000*%
%ADD33R,0.035433X0.055118*%
%ADD34R,0.011811X0.074803*%
%ADD35R,0.007874X0.056299*%
%ADD36R,0.106299X0.220472*%
%ADD37R,0.049213X0.039370*%
%ADD38R,0.133858X0.043307*%
%ADD39R,0.039370X0.033465*%
%ADD40R,0.044488X0.055118*%
%ADD41R,0.035433X0.066929*%
%ADD42R,0.025591X0.039370*%
G04:AMPARAMS|DCode=43|XSize=51.181mil|YSize=43.307mil|CornerRadius=0mil|HoleSize=0mil|Usage=FLASHONLY|Rotation=225.000|XOffset=0mil|YOffset=0mil|HoleType=Round|Shape=Rectangle|*
%AMROTATEDRECTD43*
4,1,4,0.002784,0.033407,0.033407,0.002784,-0.002784,-0.033407,-0.033407,-0.002784,0.002784,0.033407,0.0*
%
%ADD43ROTATEDRECTD43*%

%ADD44R,0.023622X0.043307*%
%ADD45R,0.011811X0.043307*%
%TA.AperFunction,FiducialPad,Global*%
%ADD46C,0.039370*%
%ADD47R,0.039370X0.039370*%
%TA.AperFunction,SMDPad,CuDef*%
%ADD48P,0.033407X4X180.0*%
%ADD49R,0.043307X0.094488*%
%ADD50R,0.200787X0.092520*%
%ADD51R,0.023622X0.023622*%
%ADD52R,0.039370X0.049213*%
%ADD53R,0.035433X0.033465*%
%ADD54R,0.094488X0.043307*%
%ADD55P,0.033407X4X90.0*%
%ADD56R,0.055118X0.035433*%
%ADD57R,0.011811X0.011811*%
%ADD58R,0.011811X0.011811*%
%ADD59R,0.018701X0.007874*%
G04:AMPARAMS|DCode=60|XSize=43.307mil|YSize=94.488mil|CornerRadius=0mil|HoleSize=0mil|Usage=FLASHONLY|Rotation=45.000|XOffset=0mil|YOffset=0mil|HoleType=Round|Shape=Rectangle|*
%AMROTATEDRECTD60*
4,1,4,0.018095,-0.048718,-0.048718,0.018095,-0.018095,0.048718,0.048718,-0.018095,0.018095,-0.048718,0.0*
%
%ADD60ROTATEDRECTD60*%

G04:AMPARAMS|DCode=61|XSize=39.37mil|YSize=49.213mil|CornerRadius=0mil|HoleSize=0mil|Usage=FLASHONLY|Rotation=45.000|XOffset=0mil|YOffset=0mil|HoleType=Round|Shape=Rectangle|*
%AMROTATEDRECTD61*
4,1,4,0.003480,-0.031319,-0.031319,0.003480,-0.003480,0.031319,0.031319,-0.003480,0.003480,-0.031319,0.0*
%
%ADD61ROTATEDRECTD61*%

%TA.AperFunction,ComponentPad*%
%ADD76C,0.078740*%
%ADD77O,0.086614X0.039370*%
%ADD78O,0.070866X0.039370*%
G04:AMPARAMS|DCode=79|XSize=74.803mil|YSize=39.37mil|CornerRadius=9.842mil|HoleSize=0mil|Usage=FLASHONLY|Rotation=180.000|XOffset=0mil|YOffset=0mil|HoleType=Round|Shape=RoundedRectangle|*
%AMROUNDEDRECTD79*
21,1,0.074803,0.019685,0,0,180.0*
21,1,0.055118,0.039370,0,0,180.0*
1,1,0.019685,-0.027559,0.009843*
1,1,0.019685,0.027559,0.009843*
1,1,0.019685,0.027559,-0.009843*
1,1,0.019685,-0.027559,-0.009843*
%
%ADD79ROUNDEDRECTD79*%
G04:AMPARAMS|DCode=80|XSize=90.551mil|YSize=39.37mil|CornerRadius=9.842mil|HoleSize=0mil|Usage=FLASHONLY|Rotation=180.000|XOffset=0mil|YOffset=0mil|HoleType=Round|Shape=RoundedRectangle|*
%AMROUNDEDRECTD80*
21,1,0.090551,0.019685,0,0,180.0*
21,1,0.070866,0.039370,0,0,180.0*
1,1,0.019685,-0.035433,0.009843*
1,1,0.019685,0.035433,0.009843*
1,1,0.019685,0.035433,-0.009843*
1,1,0.019685,-0.035433,-0.009843*
%
%ADD80ROUNDEDRECTD80*%
G04:AMPARAMS|DCode=81|XSize=51.181mil|YSize=39.37mil|CornerRadius=9.842mil|HoleSize=0mil|Usage=FLASHONLY|Rotation=0.000|XOffset=0mil|YOffset=0mil|HoleType=Round|Shape=RoundedRectangle|*
%AMROUNDEDRECTD81*
21,1,0.051181,0.019685,0,0,0.0*
21,1,0.031496,0.039370,0,0,0.0*
1,1,0.019685,0.015748,-0.009843*
1,1,0.019685,-0.015748,-0.009843*
1,1,0.019685,-0.015748,0.009843*
1,1,0.019685,0.015748,0.009843*
%
%ADD81ROUNDEDRECTD81*%
%ADD82C,0.043307*%
%ADD83C,0.055118*%
%ADD84C,0.082677*%
%ADD85C,0.196850*%
%ADD86C,0.066929*%
%ADD87C,0.236220*%
%ADD88C,0.060000*%
%ADD89O,0.039370X0.086614*%
%ADD90O,0.039370X0.070866*%
D12*
X9744094Y3047244D02*
D03*
Y3078740D02*
D03*
Y2858268D02*
D03*
Y2826772D02*
D03*
X6362205Y3848425D02*
D03*
X6464567Y3773622D02*
D03*
Y3848425D02*
D03*
X6362205Y3811024D02*
D03*
Y3773622D02*
D03*
D13*
X9744094Y2883858D02*
D03*
Y2903543D02*
D03*
Y2923228D02*
D03*
Y2942913D02*
D03*
Y2962598D02*
D03*
Y2982284D02*
D03*
Y3001968D02*
D03*
Y3021653D02*
D03*
D14*
X4953937Y3061024D02*
D03*
Y3041339D02*
D03*
Y3021653D02*
D03*
Y3001968D02*
D03*
Y2982284D02*
D03*
Y2962598D02*
D03*
Y2942913D02*
D03*
Y2923228D02*
D03*
Y2903543D02*
D03*
Y2883858D02*
D03*
Y2864173D02*
D03*
Y2844488D02*
D03*
X4888583D02*
D03*
Y2864173D02*
D03*
Y2883858D02*
D03*
Y2903543D02*
D03*
Y2923228D02*
D03*
Y2942913D02*
D03*
Y2962598D02*
D03*
Y2982284D02*
D03*
Y3001968D02*
D03*
Y3021653D02*
D03*
Y3041339D02*
D03*
Y3061024D02*
D03*
X4284646D02*
D03*
Y3041339D02*
D03*
Y3021653D02*
D03*
Y3001968D02*
D03*
Y2982284D02*
D03*
Y2962598D02*
D03*
Y2942913D02*
D03*
Y2923228D02*
D03*
Y2903543D02*
D03*
Y2883858D02*
D03*
Y2864173D02*
D03*
Y2844488D02*
D03*
X4219291D02*
D03*
Y2864173D02*
D03*
Y2883858D02*
D03*
Y2903543D02*
D03*
Y2923228D02*
D03*
Y2942913D02*
D03*
Y2962598D02*
D03*
Y2982284D02*
D03*
Y3001968D02*
D03*
Y3021653D02*
D03*
Y3041339D02*
D03*
Y3061024D02*
D03*
D15*
X4876575Y2800000D02*
D03*
X4965945Y3105512D02*
D03*
X4207283Y2800000D02*
D03*
X4296654Y3105512D02*
D03*
D16*
X4965945Y2800000D02*
D03*
X4876575Y3105512D02*
D03*
X4296654Y2800000D02*
D03*
X4207283Y3105512D02*
D03*
D17*
X9181102Y3527559D02*
D03*
Y3543307D02*
D03*
Y3559055D02*
D03*
Y3574803D02*
D03*
Y3590551D02*
D03*
Y3606299D02*
D03*
X9196850Y3527559D02*
D03*
Y3543307D02*
D03*
Y3559055D02*
D03*
Y3574803D02*
D03*
Y3590551D02*
D03*
Y3606299D02*
D03*
X9212598Y3527559D02*
D03*
Y3543307D02*
D03*
Y3559055D02*
D03*
Y3574803D02*
D03*
Y3590551D02*
D03*
Y3606299D02*
D03*
X9228346Y3527559D02*
D03*
Y3543307D02*
D03*
Y3559055D02*
D03*
Y3574803D02*
D03*
Y3590551D02*
D03*
Y3606299D02*
D03*
X9244094Y3527559D02*
D03*
Y3543307D02*
D03*
Y3559055D02*
D03*
Y3574803D02*
D03*
Y3590551D02*
D03*
Y3606299D02*
D03*
X9259843Y3527559D02*
D03*
Y3543307D02*
D03*
Y3559055D02*
D03*
Y3574803D02*
D03*
Y3590551D02*
D03*
Y3606299D02*
D03*
D18*
X5099409Y3771653D02*
D03*
X5262795D02*
D03*
D19*
X4775591Y2570868D02*
D03*
X4696850Y2533467D02*
D03*
Y2608270D02*
D03*
D20*
X5173228Y3460630D02*
D03*
X3732284Y2528543D02*
D03*
D21*
X5098228Y3362205D02*
D03*
X5148228D02*
D03*
X5248228D02*
D03*
X5198228D02*
D03*
Y3559055D02*
D03*
X5248228D02*
D03*
X5148228D02*
D03*
X5098228D02*
D03*
X3657284Y2430118D02*
D03*
X3707284D02*
D03*
X3807284D02*
D03*
X3757284D02*
D03*
Y2626968D02*
D03*
X3807284D02*
D03*
X3707284D02*
D03*
X3657284D02*
D03*
D22*
X6270669Y2874016D02*
D03*
X6327756D02*
D03*
X3863189Y2733268D02*
D03*
X3806102D02*
D03*
X3975394Y2630905D02*
D03*
X4032480D02*
D03*
X2953746Y2858268D02*
D03*
X2896659D02*
D03*
X2721457Y3023622D02*
D03*
X2664370D02*
D03*
X5987205Y3669291D02*
D03*
X6044291D02*
D03*
X6331693Y3381890D02*
D03*
X6274606D02*
D03*
X2664370Y3102362D02*
D03*
X2721457D02*
D03*
X6587598Y3775591D02*
D03*
X6530512D02*
D03*
X2664370Y3181102D02*
D03*
X2721457D02*
D03*
X6270669Y3110236D02*
D03*
X6327756D02*
D03*
X6270669Y3031496D02*
D03*
X6327756D02*
D03*
X6270669Y2952756D02*
D03*
X6327756D02*
D03*
D23*
X3761811Y3688976D02*
D03*
X3718504D02*
D03*
X5344488Y3582677D02*
D03*
X5301181D02*
D03*
X4738189Y2661417D02*
D03*
X4694882D02*
D03*
X4738189Y2480315D02*
D03*
X4694882D02*
D03*
X5742126Y3276575D02*
D03*
X5698819D02*
D03*
X5742126Y3241142D02*
D03*
X5698819D02*
D03*
X5612205Y3125984D02*
D03*
X5568898D02*
D03*
Y3090551D02*
D03*
X5612205D02*
D03*
X5301181Y3543307D02*
D03*
X5344488D02*
D03*
X2974415Y3078740D02*
D03*
X2931108D02*
D03*
X6320866Y3149606D02*
D03*
X6277559D02*
D03*
X6320866Y3070866D02*
D03*
X6277559D02*
D03*
X6320866Y2992126D02*
D03*
X6277559D02*
D03*
X6320866Y2913386D02*
D03*
X6277559D02*
D03*
X5958661Y3236220D02*
D03*
X5915354D02*
D03*
X9139764Y3374016D02*
D03*
X9096457D02*
D03*
X4431102Y3688976D02*
D03*
X4387795D02*
D03*
D24*
X4531496Y3677165D02*
D03*
X4681102Y3755905D02*
D03*
Y3740157D02*
D03*
Y3708661D02*
D03*
Y3692913D02*
D03*
Y3677165D02*
D03*
Y3661417D02*
D03*
Y3645669D02*
D03*
Y3629921D02*
D03*
Y3614173D02*
D03*
Y3598425D02*
D03*
Y3582677D02*
D03*
Y3566929D02*
D03*
X4531496D02*
D03*
Y3582677D02*
D03*
Y3598425D02*
D03*
Y3614173D02*
D03*
Y3629921D02*
D03*
Y3645669D02*
D03*
Y3661417D02*
D03*
Y3692913D02*
D03*
Y3708661D02*
D03*
Y3724409D02*
D03*
Y3740157D02*
D03*
Y3755905D02*
D03*
X4681102Y3724409D02*
D03*
X3862205Y3677165D02*
D03*
X4011811Y3755905D02*
D03*
Y3740157D02*
D03*
Y3708661D02*
D03*
Y3692913D02*
D03*
Y3677165D02*
D03*
Y3661417D02*
D03*
Y3645669D02*
D03*
Y3629921D02*
D03*
Y3614173D02*
D03*
Y3598425D02*
D03*
Y3582677D02*
D03*
Y3566929D02*
D03*
X3862205D02*
D03*
Y3582677D02*
D03*
Y3598425D02*
D03*
Y3614173D02*
D03*
Y3629921D02*
D03*
Y3645669D02*
D03*
Y3661417D02*
D03*
Y3692913D02*
D03*
Y3708661D02*
D03*
Y3724409D02*
D03*
Y3740157D02*
D03*
Y3755905D02*
D03*
X4011811Y3724409D02*
D03*
D25*
X4606299Y3600000D02*
D03*
X3937008D02*
D03*
D26*
X4606299Y3699409D02*
D03*
X3937008D02*
D03*
D27*
X4650591Y3547244D02*
D03*
X4562008D02*
D03*
X3981299D02*
D03*
X3892717D02*
D03*
D28*
X4631890D02*
D03*
X4614173D02*
D03*
X4598425D02*
D03*
X4580709D02*
D03*
X4566929Y3775590D02*
D03*
X4582677D02*
D03*
X4598425D02*
D03*
X4614173D02*
D03*
X4629921D02*
D03*
X4645669D02*
D03*
X3962599Y3547244D02*
D03*
X3944882D02*
D03*
X3929134D02*
D03*
X3911417D02*
D03*
X3897638Y3775590D02*
D03*
X3913386D02*
D03*
X3929134D02*
D03*
X3944882D02*
D03*
X3960630D02*
D03*
X3976378D02*
D03*
D29*
X5883241Y2752316D02*
D03*
X5872105Y2763452D02*
D03*
X5860970Y2774587D02*
D03*
X5849834Y2785723D02*
D03*
X5838699Y2796858D02*
D03*
X5827563Y2807994D02*
D03*
X5816427Y2819129D02*
D03*
X5805292Y2830265D02*
D03*
X5794156Y2841401D02*
D03*
X5783021Y2852536D02*
D03*
X5771885Y2863672D02*
D03*
X5760750Y2874807D02*
D03*
X5705072Y2930485D02*
D03*
X5716208Y2919349D02*
D03*
X5727343Y2908214D02*
D03*
X5738479Y2897078D02*
D03*
X5749614Y2885943D02*
D03*
X5938918Y3142060D02*
D03*
X5927783Y3153196D02*
D03*
X5950054Y3130925D02*
D03*
X5961190Y3119789D02*
D03*
X5972325Y3108653D02*
D03*
X5983461Y3097518D02*
D03*
X5994596Y3086382D02*
D03*
X6005732Y3075247D02*
D03*
X6016867Y3064111D02*
D03*
X6028003Y3052976D02*
D03*
X6105952Y2975027D02*
D03*
X6094816Y2986162D02*
D03*
X6083680Y2997298D02*
D03*
X6072545Y3008434D02*
D03*
X6061409Y3019569D02*
D03*
X6050274Y3030705D02*
D03*
X6039138Y3041840D02*
D03*
D30*
X5727343Y2997298D02*
D03*
X5716208Y2986162D02*
D03*
X5705072Y2975027D02*
D03*
X5738479Y3008434D02*
D03*
X5749614Y3019569D02*
D03*
X5760750Y3030705D02*
D03*
X5771885Y3041840D02*
D03*
X5783021Y3052976D02*
D03*
X5794156Y3064111D02*
D03*
X5805292Y3075247D02*
D03*
X5816427Y3086382D02*
D03*
X5883241Y3153196D02*
D03*
X5872105Y3142060D02*
D03*
X5860970Y3130925D02*
D03*
X5849834Y3119789D02*
D03*
X5838699Y3108653D02*
D03*
X5827563Y3097518D02*
D03*
X6105952Y2930485D02*
D03*
X6094816Y2919349D02*
D03*
X6083680Y2908214D02*
D03*
X6072545Y2897078D02*
D03*
X6061409Y2885943D02*
D03*
X6050274Y2874807D02*
D03*
X6039138Y2863672D02*
D03*
X6028003Y2852536D02*
D03*
X6016867Y2841401D02*
D03*
X5927783Y2752316D02*
D03*
X5938918Y2763452D02*
D03*
X5950054Y2774587D02*
D03*
X5961190Y2785723D02*
D03*
X5972325Y2796858D02*
D03*
X5983461Y2807994D02*
D03*
X5994596Y2819129D02*
D03*
X6005732Y2830265D02*
D03*
D31*
X5905512Y2952756D02*
D03*
D32*
X8996260Y3735039D02*
D03*
X8946260D02*
D03*
X8896260D02*
D03*
X8846260D02*
D03*
Y3524803D02*
D03*
X8896260D02*
D03*
X8946260D02*
D03*
X8996260D02*
D03*
X8775787Y3735039D02*
D03*
X8725787D02*
D03*
X8675787D02*
D03*
X8625787D02*
D03*
Y3524803D02*
D03*
X8675787D02*
D03*
X8725787D02*
D03*
X8775787D02*
D03*
D33*
X7753937Y2519685D02*
D03*
X7836614D02*
D03*
X2584646Y3023622D02*
D03*
X2501968D02*
D03*
X2584646Y3102362D02*
D03*
X2501968D02*
D03*
X6533465Y3854331D02*
D03*
X6616142D02*
D03*
X2584646Y3181102D02*
D03*
X2501968D02*
D03*
X7753937Y2755905D02*
D03*
X7836614D02*
D03*
X7753937Y2677165D02*
D03*
X7836614D02*
D03*
X7753937Y2598425D02*
D03*
X7836614D02*
D03*
D34*
X5029528Y2346457D02*
D03*
X5009842D02*
D03*
X4990158D02*
D03*
X4950787D02*
D03*
X4911417D02*
D03*
X4970472D02*
D03*
X4931102D02*
D03*
X4891732D02*
D03*
X4872047D02*
D03*
X4852362D02*
D03*
X4675197D02*
D03*
X4694882D02*
D03*
X4734252D02*
D03*
X4773622D02*
D03*
X4714567D02*
D03*
X4753937D02*
D03*
X4793307D02*
D03*
X4812992D02*
D03*
X4832677D02*
D03*
D35*
X6543307Y2236614D02*
D03*
X6559055D02*
D03*
X6574803D02*
D03*
X6590551D02*
D03*
X6606299D02*
D03*
X6622047D02*
D03*
X6637795D02*
D03*
X6653543D02*
D03*
X6669291D02*
D03*
X6685039D02*
D03*
X6700787D02*
D03*
X6716535D02*
D03*
X6732283D02*
D03*
X6748031D02*
D03*
X6763779D02*
D03*
X6779528D02*
D03*
X6795276D02*
D03*
X6811024D02*
D03*
X6826772D02*
D03*
X6842520D02*
D03*
X6858268D02*
D03*
X6874016D02*
D03*
X6889764D02*
D03*
X6905512D02*
D03*
X6921260D02*
D03*
X6149606D02*
D03*
X6165354D02*
D03*
X6181102D02*
D03*
X6196850D02*
D03*
X6212598D02*
D03*
X6228346D02*
D03*
X6244094D02*
D03*
X6259842D02*
D03*
X6275590D02*
D03*
X6291338D02*
D03*
X6307087D02*
D03*
X6322834D02*
D03*
X6338583D02*
D03*
X6354331D02*
D03*
X6370079D02*
D03*
X6385827D02*
D03*
X6401575D02*
D03*
X6417323D02*
D03*
X6433071D02*
D03*
X6448819D02*
D03*
X6464567D02*
D03*
X6480315D02*
D03*
X6496063D02*
D03*
X6511811D02*
D03*
X6527559D02*
D03*
X6543307Y2330315D02*
D03*
X6559055D02*
D03*
X6574803D02*
D03*
X6590551D02*
D03*
X6606299D02*
D03*
X6622047D02*
D03*
X6637795D02*
D03*
X6653543D02*
D03*
X6669291D02*
D03*
X6685039D02*
D03*
X6700787D02*
D03*
X6716535D02*
D03*
X6732283D02*
D03*
X6748031D02*
D03*
X6763779D02*
D03*
X6779528D02*
D03*
X6795276D02*
D03*
X6811024D02*
D03*
X6826772D02*
D03*
X6842520D02*
D03*
X6858268D02*
D03*
X6874016D02*
D03*
X6889764D02*
D03*
X6905512D02*
D03*
X6921260D02*
D03*
X6149606D02*
D03*
X6165354D02*
D03*
X6181102D02*
D03*
X6196850D02*
D03*
X6212598D02*
D03*
X6228346D02*
D03*
X6244094D02*
D03*
X6259842D02*
D03*
X6275590D02*
D03*
X6291338D02*
D03*
X6307087D02*
D03*
X6322834D02*
D03*
X6338583D02*
D03*
X6354331D02*
D03*
X6370079D02*
D03*
X6385827D02*
D03*
X6401575D02*
D03*
X6417323D02*
D03*
X6433071D02*
D03*
X6448819D02*
D03*
X6464567D02*
D03*
X6480315D02*
D03*
X6496063D02*
D03*
X6511811D02*
D03*
X6527559D02*
D03*
X6543307Y3575197D02*
D03*
X6559055D02*
D03*
X6574803D02*
D03*
X6590551D02*
D03*
X6606299D02*
D03*
X6622047D02*
D03*
X6637795D02*
D03*
X6653543D02*
D03*
X6669291D02*
D03*
X6685039D02*
D03*
X6700787D02*
D03*
X6716535D02*
D03*
X6732283D02*
D03*
X6748031D02*
D03*
X6763779D02*
D03*
X6779528D02*
D03*
X6795276D02*
D03*
X6811024D02*
D03*
X6826772D02*
D03*
X6842520D02*
D03*
X6858268D02*
D03*
X6874016D02*
D03*
X6889764D02*
D03*
X6905512D02*
D03*
X6921260D02*
D03*
X6149606D02*
D03*
X6165354D02*
D03*
X6181102D02*
D03*
X6196850D02*
D03*
X6212598D02*
D03*
X6228346D02*
D03*
X6244094D02*
D03*
X6259842D02*
D03*
X6275590D02*
D03*
X6291338D02*
D03*
X6307087D02*
D03*
X6322834D02*
D03*
X6338583D02*
D03*
X6354331D02*
D03*
X6370079D02*
D03*
X6385827D02*
D03*
X6401575D02*
D03*
X6417323D02*
D03*
X6433071D02*
D03*
X6448819D02*
D03*
X6464567D02*
D03*
X6480315D02*
D03*
X6496063D02*
D03*
X6511811D02*
D03*
X6527559D02*
D03*
X6543307Y3668898D02*
D03*
X6559055D02*
D03*
X6574803D02*
D03*
X6590551D02*
D03*
X6606299D02*
D03*
X6622047D02*
D03*
X6637795D02*
D03*
X6653543D02*
D03*
X6669291D02*
D03*
X6685039D02*
D03*
X6700787D02*
D03*
X6716535D02*
D03*
X6732283D02*
D03*
X6748031D02*
D03*
X6763779D02*
D03*
X6779528D02*
D03*
X6795276D02*
D03*
X6811024D02*
D03*
X6826772D02*
D03*
X6842520D02*
D03*
X6858268D02*
D03*
X6874016D02*
D03*
X6889764D02*
D03*
X6905512D02*
D03*
X6921260D02*
D03*
X6149606D02*
D03*
X6165354D02*
D03*
X6181102D02*
D03*
X6196850D02*
D03*
X6212598D02*
D03*
X6228346D02*
D03*
X6244094D02*
D03*
X6259842D02*
D03*
X6275590D02*
D03*
X6291338D02*
D03*
X6307087D02*
D03*
X6322834D02*
D03*
X6338583D02*
D03*
X6354331D02*
D03*
X6370079D02*
D03*
X6385827D02*
D03*
X6401575D02*
D03*
X6417323D02*
D03*
X6433071D02*
D03*
X6448819D02*
D03*
X6464567D02*
D03*
X6480315D02*
D03*
X6496063D02*
D03*
X6511811D02*
D03*
X6527559D02*
D03*
D36*
X3702756Y3346457D02*
D03*
X3911417D02*
D03*
X4372047D02*
D03*
X4580709D02*
D03*
D37*
X8661417Y2727362D02*
D03*
Y2806102D02*
D03*
X3811024Y2863189D02*
D03*
Y2941929D02*
D03*
X3881890Y2863189D02*
D03*
Y2941929D02*
D03*
X4224495Y2246938D02*
D03*
Y2325678D02*
D03*
X4121143Y2246938D02*
D03*
Y2325678D02*
D03*
X4016808Y2246938D02*
D03*
Y2325678D02*
D03*
X3912472Y2246938D02*
D03*
Y2325678D02*
D03*
X3809120Y2246938D02*
D03*
Y2325678D02*
D03*
X5358268Y3850394D02*
D03*
Y3771653D02*
D03*
X5507874Y3850394D02*
D03*
Y3771653D02*
D03*
X5433071Y3850394D02*
D03*
Y3771653D02*
D03*
X5582677Y3850394D02*
D03*
Y3771653D02*
D03*
X5590551Y3385827D02*
D03*
Y3307087D02*
D03*
X5511811Y3385827D02*
D03*
Y3307087D02*
D03*
X5433071Y3385827D02*
D03*
Y3307087D02*
D03*
X5358290Y3385827D02*
D03*
Y3307087D02*
D03*
X5251991Y3185044D02*
D03*
Y3263784D02*
D03*
X5149629Y3185044D02*
D03*
Y3263784D02*
D03*
X3997047Y3895669D02*
D03*
Y3816929D02*
D03*
X4666339Y3895669D02*
D03*
Y3816929D02*
D03*
X4751968Y3834646D02*
D03*
Y3755905D02*
D03*
X4145669Y3779528D02*
D03*
Y3700787D02*
D03*
X4814961Y3779528D02*
D03*
Y3700787D02*
D03*
X4082677Y3834646D02*
D03*
Y3755905D02*
D03*
D38*
X8155512Y2549213D02*
D03*
Y2431102D02*
D03*
D39*
X3188976Y2241929D02*
D03*
X2637795D02*
D03*
Y2317913D02*
D03*
D40*
X2635827Y2434055D02*
D03*
X3179134Y2540354D02*
D03*
Y2325787D02*
D03*
D41*
X2631890Y2693898D02*
D03*
X3194882D02*
D03*
X2632978Y2154528D02*
D03*
X3195984Y2154169D02*
D03*
D42*
X2692126Y2708661D02*
D03*
X2791339D02*
D03*
X2826772D02*
D03*
X2862205D02*
D03*
X2897638D02*
D03*
X2933071D02*
D03*
X2968504D02*
D03*
X3003937D02*
D03*
X2755905D02*
D03*
D43*
X6131634Y3224887D02*
D03*
X6070389Y3163642D02*
D03*
X6025846Y3208184D02*
D03*
X6087092Y3269429D02*
D03*
D44*
X3559055Y2234252D02*
D03*
X3590551D02*
D03*
X3370079D02*
D03*
X3338583D02*
D03*
X2915354Y2921260D02*
D03*
X2990157Y3023622D02*
D03*
X2915354D02*
D03*
X2952756Y2921260D02*
D03*
X2990157D02*
D03*
D45*
X3395669Y2234252D02*
D03*
X3415354D02*
D03*
X3435039D02*
D03*
X3454724D02*
D03*
X3474409D02*
D03*
X3494095D02*
D03*
X3513780D02*
D03*
X3533465D02*
D03*
D46*
X9960630Y2125984D02*
D03*
X2401575Y3897638D02*
D03*
D47*
X8503937Y3779528D02*
D03*
X7952756Y2125984D02*
D03*
D48*
X6071303Y2743658D02*
D03*
X6101925Y2713035D02*
D03*
X6094925Y2767280D02*
D03*
X6125547Y2736657D02*
D03*
X9074366Y3484689D02*
D03*
X9043744Y3515311D02*
D03*
D49*
X8913386Y2588583D02*
D03*
X9039370D02*
D03*
X8013780Y2647638D02*
D03*
X8139764D02*
D03*
X9437008Y3649606D02*
D03*
X9311024D02*
D03*
D50*
X8700787Y2310039D02*
D03*
Y2473425D02*
D03*
X3582677Y2750000D02*
D03*
Y2913386D02*
D03*
D51*
X3590551Y2506890D02*
D03*
Y2550197D02*
D03*
X3866142Y2475394D02*
D03*
Y2432087D02*
D03*
X3976378Y2841535D02*
D03*
Y2798228D02*
D03*
X9165354Y3403543D02*
D03*
Y3446850D02*
D03*
X5031496Y3360236D02*
D03*
Y3403543D02*
D03*
X5507874Y3541339D02*
D03*
Y3584646D02*
D03*
X5299213Y3403543D02*
D03*
Y3360236D02*
D03*
X5381890Y3584646D02*
D03*
Y3541339D02*
D03*
X9212598Y3683071D02*
D03*
Y3639764D02*
D03*
X5460630Y3584646D02*
D03*
Y3541339D02*
D03*
X5299213Y3505905D02*
D03*
Y3462598D02*
D03*
X6314961Y3486220D02*
D03*
Y3442913D02*
D03*
X6283465Y3486220D02*
D03*
Y3442913D02*
D03*
X9040354Y3712599D02*
D03*
Y3755905D02*
D03*
X9071850Y3712599D02*
D03*
Y3755905D02*
D03*
D52*
X3627843Y2327696D02*
D03*
X3706584D02*
D03*
X8118110Y3240157D02*
D03*
X8039370D02*
D03*
X8661417Y2194882D02*
D03*
X8740157D02*
D03*
X8818898Y2588583D02*
D03*
X8740157D02*
D03*
D53*
X3755905Y2793307D02*
D03*
Y2736220D02*
D03*
X3913386Y2793307D02*
D03*
Y2736220D02*
D03*
X9251968Y3396654D02*
D03*
Y3453740D02*
D03*
X9204724Y3396654D02*
D03*
Y3453740D02*
D03*
X2858273Y2967520D02*
D03*
Y3024606D02*
D03*
X6200787Y3827756D02*
D03*
Y3770669D02*
D03*
X6259842Y3827756D02*
D03*
Y3770669D02*
D03*
X5031496Y3560039D02*
D03*
Y3502953D02*
D03*
X3415354Y2405512D02*
D03*
Y2348425D02*
D03*
D54*
X7998032Y2553150D02*
D03*
Y2427165D02*
D03*
X9141732Y3779528D02*
D03*
Y3653543D02*
D03*
X9330709Y3354331D02*
D03*
Y3480315D02*
D03*
X9555118Y3413386D02*
D03*
Y3539370D02*
D03*
X9440945Y3413386D02*
D03*
Y3539370D02*
D03*
X6102362Y3901575D02*
D03*
Y3775591D02*
D03*
X5866142Y3901575D02*
D03*
Y3775591D02*
D03*
X5984252Y3901575D02*
D03*
Y3775591D02*
D03*
D55*
X5649170Y2893264D02*
D03*
X5618547Y2862642D02*
D03*
X5680666Y2861768D02*
D03*
X5650043Y2831145D02*
D03*
X5744642Y2789918D02*
D03*
X5714019Y2759295D02*
D03*
X5776138Y2758421D02*
D03*
X5745516Y2727799D02*
D03*
X6038933Y3286965D02*
D03*
X6008311Y3256342D02*
D03*
X6149169Y3176729D02*
D03*
X6118547Y3146106D02*
D03*
D56*
X3415354Y2485236D02*
D03*
Y2567913D02*
D03*
D57*
X6897638Y2431102D02*
D03*
X6911417Y2397638D02*
D03*
X6883858D02*
D03*
D58*
X4353346Y2952756D02*
D03*
X4386811Y2966535D02*
D03*
Y2938976D02*
D03*
X5022638Y2952756D02*
D03*
X5056102Y2966535D02*
D03*
Y2938976D02*
D03*
X9671260Y2952756D02*
D03*
X9637795Y2938976D02*
D03*
Y2966535D02*
D03*
D59*
X4664370Y2992126D02*
D03*
Y2972441D02*
D03*
Y2952756D02*
D03*
Y2933071D02*
D03*
Y2913386D02*
D03*
X4626968D02*
D03*
Y2933071D02*
D03*
Y2952756D02*
D03*
Y2972441D02*
D03*
Y2992126D02*
D03*
X5333661D02*
D03*
Y2972441D02*
D03*
Y2952756D02*
D03*
Y2933071D02*
D03*
Y2913386D02*
D03*
X5296260D02*
D03*
Y2933071D02*
D03*
Y2952756D02*
D03*
Y2972441D02*
D03*
Y2992126D02*
D03*
X8701772Y3187008D02*
D03*
Y3206693D02*
D03*
Y3226378D02*
D03*
Y3246063D02*
D03*
Y3265748D02*
D03*
X8739173D02*
D03*
Y3246063D02*
D03*
Y3226378D02*
D03*
Y3206693D02*
D03*
Y3187008D02*
D03*
D60*
X4865891Y3403293D02*
D03*
X4954975Y3492377D02*
D03*
D61*
X4852642Y3526855D02*
D03*
X4796964Y3471177D02*
D03*
D76*
X8897638Y2412992D02*
D03*
Y2312992D02*
D03*
Y2212992D02*
D03*
X9488189Y2627953D02*
D03*
Y2332677D02*
D03*
D77*
X9946850Y2731496D02*
D03*
Y3174016D02*
D03*
D78*
X9789370Y2731496D02*
D03*
Y3174016D02*
D03*
D79*
X9173228Y2832677D02*
D03*
X9311024D02*
D03*
D80*
X9242126Y3053150D02*
D03*
D81*
X9084252Y2942913D02*
D03*
X9400000D02*
D03*
D82*
X4836614Y3047244D02*
D03*
Y2858268D02*
D03*
X5005905D02*
D03*
Y3047244D02*
D03*
X4167323D02*
D03*
Y2858268D02*
D03*
X4336614D02*
D03*
Y3047244D02*
D03*
D83*
X8135827Y2862599D02*
D03*
Y2962599D02*
D03*
Y3062599D02*
D03*
X5539370Y2066929D02*
D03*
X5460630D02*
D03*
X5381890D02*
D03*
D84*
X5299213D02*
D03*
X5622047D02*
D03*
D85*
X9862205Y3681102D02*
D03*
X8129921Y2224409D02*
D03*
X2500000Y2106299D02*
D03*
Y3799213D02*
D03*
X9862205Y2224409D02*
D03*
D86*
X4533465Y2114173D02*
D03*
X4557087Y2307087D02*
D03*
X5151575Y2114173D02*
D03*
X5127953Y2307087D02*
D03*
D87*
X5669291Y3602362D02*
D03*
X7559055Y2303150D02*
D03*
Y3602362D02*
D03*
X5669291Y2303150D02*
D03*
D88*
X8067717Y3646850D02*
D03*
Y3746850D02*
D03*
X7767717D02*
D03*
Y3646850D02*
D03*
X7867717D02*
D03*
Y3746850D02*
D03*
X7967717Y3646850D02*
D03*
Y3746850D02*
D03*
D89*
X3243307Y2031496D02*
D03*
X3685827D02*
D03*
D90*
X3243307Y2188976D02*
D03*
X3685827D02*
D03*
%TF.MD5,5a83c125d34716e502d6c6cf2a0c081c*%
M02*
