%TF.GenerationSoftware,Altium Limited,Altium Designer,22.4.2 (48)*%
G04 Layer_Color=7674933*
%FSLAX26Y26*%
%MOIN*%
%TF.SameCoordinates,8C98EB32-1E12-42CD-A60B-9DA89663A72C*%
%TF.FilePolarity,Positive*%
%TF.FileFunction,Other,Fab_Notes*%
%TF.Part,Single*%
G01*
G75*
%TA.AperFunction,NonConductor*%
%ADD109C,0.000984*%
%ADD153C,0.010000*%
D109*
X8464567Y2086614D02*
X10000004D01*
X8464567Y3818901D02*
X10000004D01*
Y2086614D02*
Y3818901D01*
X8464567Y2086614D02*
Y3818901D01*
X8267717Y2125984D02*
X8464574D01*
X8267717Y3779531D02*
X8464574D01*
Y2125984D02*
Y3779531D01*
X8267717Y2125984D02*
Y3779531D01*
X2362205Y1968504D02*
X8267720D01*
X2362205Y3937011D02*
X8267720D01*
Y1968504D02*
Y3937011D01*
X2362205Y1968504D02*
Y3937011D01*
D153*
X8123355Y2673974D02*
X8083998D01*
Y2693653D01*
X8090557Y2700213D01*
X8103677D01*
X8110236Y2693653D01*
Y2673974D01*
Y2687093D02*
X8123355Y2700213D01*
X8083998Y2713332D02*
Y2726451D01*
Y2719891D01*
X8123355D01*
Y2713332D01*
Y2726451D01*
X8090557Y2772368D02*
X8083998Y2765808D01*
Y2752689D01*
X8090557Y2746130D01*
X8116796D01*
X8123355Y2752689D01*
Y2765808D01*
X8116796Y2772368D01*
X8103677D01*
Y2759249D01*
X8083998Y2785487D02*
Y2798606D01*
Y2792047D01*
X8123355D01*
Y2785487D01*
Y2798606D01*
X8083998Y2818285D02*
X8123355D01*
Y2837963D01*
X8116796Y2844523D01*
X8090557D01*
X8083998Y2837963D01*
Y2818285D01*
X8103677Y2897000D02*
Y2923238D01*
X8090557Y2975714D02*
X8083998Y2982274D01*
Y2995393D01*
X8090557Y3001953D01*
X8097117D01*
X8103677Y2995393D01*
X8110236Y3001953D01*
X8116796D01*
X8123355Y2995393D01*
Y2982274D01*
X8116796Y2975714D01*
X8110236D01*
X8103677Y2982274D01*
X8097117Y2975714D01*
X8090557D01*
X8103677Y2982274D02*
Y2995393D01*
X8083998Y3054429D02*
X8123355D01*
Y3080667D01*
X8097117Y3100346D02*
Y3113465D01*
X8103677Y3120025D01*
X8123355D01*
Y3100346D01*
X8116796Y3093787D01*
X8110236Y3100346D01*
Y3120025D01*
X8097117Y3133144D02*
X8116796D01*
X8123355Y3139704D01*
Y3159382D01*
X8129915D01*
X8136474Y3152823D01*
Y3146263D01*
X8123355Y3159382D02*
X8097117D01*
X8123355Y3192180D02*
Y3179061D01*
X8116796Y3172501D01*
X8103677D01*
X8097117Y3179061D01*
Y3192180D01*
X8103677Y3198740D01*
X8110236D01*
Y3172501D01*
X8097117Y3211859D02*
X8123355D01*
X8110236D01*
X8103677Y3218418D01*
X8097117Y3224978D01*
Y3231537D01*
X8359588Y2713332D02*
Y2687093D01*
X8379267D01*
Y2700213D01*
Y2687093D01*
X8398946D01*
X8359588Y2726451D02*
X8398946D01*
Y2752689D01*
X8359588Y2792046D02*
Y2765808D01*
X8398946D01*
Y2792046D01*
X8379267Y2765808D02*
Y2778927D01*
X8359588Y2805166D02*
X8398946Y2831404D01*
X8359588D02*
X8398946Y2805166D01*
X8379267Y2883881D02*
Y2910119D01*
X8359588Y2988834D02*
X8366148Y2975714D01*
X8379267Y2962595D01*
X8392386D01*
X8398946Y2969155D01*
Y2982274D01*
X8392386Y2988834D01*
X8385827D01*
X8379267Y2982274D01*
Y2962595D01*
X8359588Y3041310D02*
X8398946D01*
Y3067548D01*
X8372708Y3087227D02*
Y3100346D01*
X8379267Y3106906D01*
X8398946D01*
Y3087227D01*
X8392386Y3080668D01*
X8385827Y3087227D01*
Y3106906D01*
X8372708Y3120025D02*
X8392386D01*
X8398946Y3126584D01*
Y3146263D01*
X8405505D01*
X8412065Y3139704D01*
Y3133144D01*
X8398946Y3146263D02*
X8372708D01*
X8398946Y3179061D02*
Y3165942D01*
X8392386Y3159382D01*
X8379267D01*
X8372708Y3165942D01*
Y3179061D01*
X8379267Y3185620D01*
X8385827D01*
Y3159382D01*
X8372708Y3198740D02*
X8398946D01*
X8385827D01*
X8379267Y3205299D01*
X8372708Y3211859D01*
Y3218418D01*
X8674536Y2673974D02*
X8635179D01*
Y2693653D01*
X8641739Y2700213D01*
X8654858D01*
X8661417Y2693653D01*
Y2673974D01*
Y2687093D02*
X8674536Y2700213D01*
X8635179Y2713332D02*
Y2726451D01*
Y2719891D01*
X8674536D01*
Y2713332D01*
Y2726451D01*
X8641739Y2772368D02*
X8635179Y2765808D01*
Y2752689D01*
X8641739Y2746130D01*
X8667977D01*
X8674536Y2752689D01*
Y2765808D01*
X8667977Y2772368D01*
X8654858D01*
Y2759249D01*
X8635179Y2785487D02*
Y2798606D01*
Y2792047D01*
X8674536D01*
Y2785487D01*
Y2798606D01*
X8635179Y2818285D02*
X8674536D01*
Y2837963D01*
X8667977Y2844523D01*
X8641739D01*
X8635179Y2837963D01*
Y2818285D01*
X8654858Y2897000D02*
Y2923238D01*
X8641739Y2975714D02*
X8635179Y2982274D01*
Y2995393D01*
X8641739Y3001953D01*
X8648298D01*
X8654858Y2995393D01*
X8661417Y3001953D01*
X8667977D01*
X8674536Y2995393D01*
Y2982274D01*
X8667977Y2975714D01*
X8661417D01*
X8654858Y2982274D01*
X8648298Y2975714D01*
X8641739D01*
X8654858Y2982274D02*
Y2995393D01*
X8635179Y3054429D02*
X8674536D01*
Y3080667D01*
X8648298Y3100346D02*
Y3113465D01*
X8654858Y3120025D01*
X8674536D01*
Y3100346D01*
X8667977Y3093787D01*
X8661417Y3100346D01*
Y3120025D01*
X8648298Y3133144D02*
X8667977D01*
X8674536Y3139704D01*
Y3159382D01*
X8681096D01*
X8687656Y3152823D01*
Y3146263D01*
X8674536Y3159382D02*
X8648298D01*
X8674536Y3192180D02*
Y3179061D01*
X8667977Y3172501D01*
X8654858D01*
X8648298Y3179061D01*
Y3192180D01*
X8654858Y3198740D01*
X8661417D01*
Y3172501D01*
X8648298Y3211859D02*
X8674536D01*
X8661417D01*
X8654858Y3218418D01*
X8648298Y3224978D01*
Y3231537D01*
%TF.MD5,1f558150df9faec046e7130bec2db9f5*%
M02*
