%TF.GenerationSoftware,Altium Limited,Altium Designer,22.4.2 (48)*%
G04 Layer_Color=128*
%FSLAX26Y26*%
%MOIN*%
%TF.SameCoordinates,8C98EB32-1E12-42CD-A60B-9DA89663A72C*%
%TF.FilePolarity,Positive*%
%TF.FileFunction,Drillmap*%
%TF.Part,Single*%
G01*
G75*
%TA.AperFunction,NonConductor*%
%ADD228C,0.005000*%
D228*
X4885827Y3740157D02*
X4889764D01*
X4887795Y3738189D02*
Y3742126D01*
X4216535Y3740157D02*
X4220472D01*
X4218504Y3738189D02*
Y3742126D01*
X4728346Y3598425D02*
X4732283D01*
X4730315Y3596457D02*
Y3600394D01*
X4984252Y2982284D02*
X4988189D01*
X4986220Y2980315D02*
Y2984252D01*
X4714567Y3614173D02*
X4718504D01*
X4716535Y3612205D02*
Y3616142D01*
X4045276Y3614173D02*
X4049213D01*
X4047244Y3612205D02*
Y3616142D01*
X4314961Y2982284D02*
X4318898D01*
X4316929Y2980315D02*
Y2984252D01*
X4059055Y3598425D02*
X4062992D01*
X4061024Y3596457D02*
Y3600394D01*
X4849409Y2952756D02*
X4853346D01*
X4851378Y2950787D02*
Y2954724D01*
X4180118Y2952756D02*
X4184055D01*
X4182087Y2950787D02*
Y2954724D01*
X6005905Y2530905D02*
X6009842D01*
X6007874Y2528937D02*
Y2532874D01*
X6005905Y2513189D02*
X6009842D01*
X6007874Y2511220D02*
Y2515157D01*
X3001969Y2760236D02*
X3005906D01*
X3003937Y2758268D02*
Y2762205D01*
X2966535Y2760236D02*
X2970472D01*
X2968504Y2758268D02*
Y2762205D01*
X2931102Y2760236D02*
X2935039D01*
X2933071Y2758268D02*
Y2762205D01*
X2860236Y2760236D02*
X2864173D01*
X2862205Y2758268D02*
Y2762205D01*
X2789370Y2760236D02*
X2793307D01*
X2791339Y2758268D02*
Y2762205D01*
X2753937Y2760236D02*
X2757874D01*
X2755906Y2758268D02*
Y2762205D01*
X6005905Y2578150D02*
X6009842D01*
X6007874Y2576181D02*
Y2580118D01*
X6005905Y2560433D02*
X6009842D01*
X6007874Y2558465D02*
Y2562402D01*
X8620079Y3146260D02*
X8624016D01*
X8622047Y3144291D02*
Y3148229D01*
X8620079Y3163977D02*
X8624016D01*
X8622047Y3162008D02*
Y3165945D01*
X8620079Y3289370D02*
X8624016D01*
X8622047Y3287401D02*
Y3291338D01*
X8620079Y3307087D02*
X8624016D01*
X8622047Y3305118D02*
Y3309055D01*
X5440354Y2582677D02*
X5444291D01*
X5442323Y2580709D02*
Y2584646D01*
X5458071Y2582677D02*
X5462008D01*
X5460039Y2580709D02*
Y2584646D01*
X5544685Y2582677D02*
X5548622D01*
X5546654Y2580709D02*
Y2584646D01*
X5526968Y2582677D02*
X5530905D01*
X5528937Y2580709D02*
Y2584646D01*
%TF.MD5,6a9ac5882b3986a0c773fd6239c84f82*%
M02*
