%TF.GenerationSoftware,Altium Limited,Altium Designer,22.4.2 (48)*%
G04 Layer_Color=128*
%FSLAX26Y26*%
%MOIN*%
%TF.SameCoordinates,8C98EB32-1E12-42CD-A60B-9DA89663A72C*%
%TF.FilePolarity,Positive*%
%TF.FileFunction,Paste,Bot*%
%TF.Part,Single*%
G01*
G75*
%TA.AperFunction,SMDPad,CuDef*%
%ADD21R,0.031496X0.059055*%
%ADD23R,0.023622X0.023622*%
%ADD37R,0.049213X0.039370*%
%TA.AperFunction,FiducialPad,Global*%
%ADD46C,0.039370*%
%ADD47R,0.039370X0.039370*%
%TA.AperFunction,SMDPad,CuDef*%
%ADD51R,0.023622X0.023622*%
%ADD52R,0.039370X0.049213*%
%ADD54R,0.094488X0.043307*%
%ADD57R,0.011811X0.011811*%
%ADD59R,0.018701X0.007874*%
G04:AMPARAMS|DCode=61|XSize=39.37mil|YSize=49.213mil|CornerRadius=0mil|HoleSize=0mil|Usage=FLASHONLY|Rotation=45.000|XOffset=0mil|YOffset=0mil|HoleType=Round|Shape=Rectangle|*
%AMROTATEDRECTD61*
4,1,4,0.003480,-0.031319,-0.031319,0.003480,-0.003480,0.031319,0.031319,-0.003480,0.003480,-0.031319,0.0*
%
%ADD61ROTATEDRECTD61*%

%ADD100R,0.011024X0.045276*%
%ADD101C,0.078740*%
%ADD102R,0.011417X0.039370*%
%ADD103R,0.039370X0.011417*%
%ADD104R,0.035433X0.114173*%
G04:AMPARAMS|DCode=105|XSize=33.465mil|YSize=35.433mil|CornerRadius=0mil|HoleSize=0mil|Usage=FLASHONLY|Rotation=45.000|XOffset=0mil|YOffset=0mil|HoleType=Round|Shape=Rectangle|*
%AMROTATEDRECTD105*
4,1,4,0.000696,-0.024359,-0.024359,0.000696,-0.000696,0.024359,0.024359,-0.000696,0.000696,-0.024359,0.0*
%
%ADD105ROTATEDRECTD105*%

G04:AMPARAMS|DCode=106|XSize=33.465mil|YSize=35.433mil|CornerRadius=0mil|HoleSize=0mil|Usage=FLASHONLY|Rotation=135.000|XOffset=0mil|YOffset=0mil|HoleType=Round|Shape=Rectangle|*
%AMROTATEDRECTD106*
4,1,4,0.024359,0.000696,-0.000696,-0.024359,-0.024359,-0.000696,0.000696,0.024359,0.024359,0.000696,0.0*
%
%ADD106ROTATEDRECTD106*%

G04:AMPARAMS|DCode=107|XSize=43.307mil|YSize=94.488mil|CornerRadius=0mil|HoleSize=0mil|Usage=FLASHONLY|Rotation=315.000|XOffset=0mil|YOffset=0mil|HoleType=Round|Shape=Rectangle|*
%AMROTATEDRECTD107*
4,1,4,-0.048718,-0.018095,0.018095,0.048718,0.048718,0.018095,-0.018095,-0.048718,-0.048718,-0.018095,0.0*
%
%ADD107ROTATEDRECTD107*%

D21*
X6622047Y2947835D02*
D03*
X6572047D02*
D03*
X6472441D02*
D03*
X6522441D02*
D03*
Y2711614D02*
D03*
X6472441D02*
D03*
X6572047D02*
D03*
X6622047D02*
D03*
D23*
X6521654Y3040000D02*
D03*
X6478346D02*
D03*
D37*
X4173228Y3630905D02*
D03*
Y3552165D02*
D03*
X4653543Y3031496D02*
D03*
Y2952756D02*
D03*
X5322835Y3031496D02*
D03*
Y2952756D02*
D03*
X4232283Y3630905D02*
D03*
Y3552165D02*
D03*
X4055118Y3630905D02*
D03*
Y3552165D02*
D03*
X4114173Y3630905D02*
D03*
Y3552165D02*
D03*
D46*
X7952756Y2125984D02*
D03*
X8503937Y3779528D02*
D03*
D47*
X2401575Y3897638D02*
D03*
X9960630Y2125984D02*
D03*
D51*
X6684055Y2904528D02*
D03*
Y2947835D02*
D03*
X9145669Y3702756D02*
D03*
Y3659449D02*
D03*
X9234252D02*
D03*
Y3702756D02*
D03*
X9263780D02*
D03*
Y3659449D02*
D03*
X9175197D02*
D03*
Y3702756D02*
D03*
X9204724D02*
D03*
Y3659449D02*
D03*
D52*
X4438976Y2795276D02*
D03*
X4517717D02*
D03*
X5108268D02*
D03*
X5187008D02*
D03*
X5108268Y3110236D02*
D03*
X5187008D02*
D03*
X4438976D02*
D03*
X4517717D02*
D03*
X3850394Y3868110D02*
D03*
X3929134D02*
D03*
X4519685D02*
D03*
X4598425D02*
D03*
X8887795Y2637795D02*
D03*
X8809055D02*
D03*
X8730315Y2952756D02*
D03*
X8809055D02*
D03*
D54*
X4330709Y3553150D02*
D03*
Y3679134D02*
D03*
X5905512Y3370079D02*
D03*
Y3244095D02*
D03*
Y2496063D02*
D03*
Y2622047D02*
D03*
X6145669Y3420276D02*
D03*
Y3294291D02*
D03*
X4735236Y2955709D02*
D03*
Y2829724D02*
D03*
X4065945Y2955709D02*
D03*
Y2829724D02*
D03*
D57*
X9242126Y2817913D02*
D03*
X9255906Y2851378D02*
D03*
X9228346D02*
D03*
D59*
X8680118Y2756890D02*
D03*
Y2776575D02*
D03*
Y2796260D02*
D03*
Y2815945D02*
D03*
Y2835630D02*
D03*
X8642717D02*
D03*
Y2815945D02*
D03*
Y2796260D02*
D03*
Y2776575D02*
D03*
Y2756890D02*
D03*
D61*
X4952051Y3428430D02*
D03*
X4896374Y3372752D02*
D03*
X5011107Y3369374D02*
D03*
X4955429Y3313697D02*
D03*
X4892996Y3487485D02*
D03*
X4837319Y3431807D02*
D03*
D100*
X9350394Y2906496D02*
D03*
X9330709D02*
D03*
X9311024D02*
D03*
X9291339D02*
D03*
X9271654D02*
D03*
X9251969D02*
D03*
X9232283D02*
D03*
X9212598D02*
D03*
X9192913D02*
D03*
X9173228D02*
D03*
X9153543D02*
D03*
X9133858D02*
D03*
Y2979331D02*
D03*
X9153543D02*
D03*
X9173228D02*
D03*
X9192913D02*
D03*
X9212599D02*
D03*
X9232283D02*
D03*
X9251969D02*
D03*
X9271654D02*
D03*
X9291339D02*
D03*
X9311024D02*
D03*
X9330709D02*
D03*
X9350394D02*
D03*
D101*
X7200000Y2700000D02*
D03*
X7100000Y2800000D02*
D03*
X7200000Y3000000D02*
D03*
X7100000D02*
D03*
Y2900000D02*
D03*
X7200000Y2800000D02*
D03*
Y2900000D02*
D03*
X7100000Y2700000D02*
D03*
D102*
X8809055Y2701772D02*
D03*
Y2890748D02*
D03*
X8828740D02*
D03*
Y2701772D02*
D03*
X5187007Y3047244D02*
D03*
Y2858268D02*
D03*
X5167322D02*
D03*
Y3047244D02*
D03*
X4517717D02*
D03*
Y2858268D02*
D03*
X4498032D02*
D03*
Y3047244D02*
D03*
D103*
X8769685Y2727362D02*
D03*
Y2747047D02*
D03*
Y2766732D02*
D03*
Y2786417D02*
D03*
Y2806102D02*
D03*
Y2825787D02*
D03*
Y2845472D02*
D03*
Y2865157D02*
D03*
X8868110D02*
D03*
Y2845472D02*
D03*
Y2825787D02*
D03*
Y2806102D02*
D03*
Y2786417D02*
D03*
Y2766732D02*
D03*
Y2747047D02*
D03*
Y2727362D02*
D03*
X5226377Y3021653D02*
D03*
Y3001968D02*
D03*
Y2982284D02*
D03*
Y2962598D02*
D03*
Y2942913D02*
D03*
Y2923228D02*
D03*
Y2903543D02*
D03*
Y2883858D02*
D03*
X5127952D02*
D03*
Y2903543D02*
D03*
Y2923228D02*
D03*
Y2942913D02*
D03*
Y2962598D02*
D03*
Y2982284D02*
D03*
Y3001968D02*
D03*
Y3021653D02*
D03*
X4557087D02*
D03*
Y3001968D02*
D03*
Y2982284D02*
D03*
Y2962598D02*
D03*
Y2942913D02*
D03*
Y2923228D02*
D03*
Y2903543D02*
D03*
Y2883858D02*
D03*
X4458661D02*
D03*
Y2903543D02*
D03*
Y2923228D02*
D03*
Y2942913D02*
D03*
Y2962598D02*
D03*
Y2982284D02*
D03*
Y3001968D02*
D03*
Y3021653D02*
D03*
D104*
X8818898Y2796260D02*
D03*
X5177164Y2952756D02*
D03*
X4507874D02*
D03*
D105*
X6130917Y3178162D02*
D03*
X6090551Y3137795D02*
D03*
X5649108Y2764266D02*
D03*
X5689475Y2804632D02*
D03*
X5748518Y2665840D02*
D03*
X5788884Y2706207D02*
D03*
X6062506Y3244593D02*
D03*
X6022140Y3204226D02*
D03*
X6097939Y3209160D02*
D03*
X6057573Y3168793D02*
D03*
X5596943Y2778045D02*
D03*
X5637309Y2818412D02*
D03*
X5661903Y2711116D02*
D03*
X5702270Y2751482D02*
D03*
X5698321Y2677651D02*
D03*
X5738687Y2718018D02*
D03*
D106*
X5725880Y3200301D02*
D03*
X5766246Y3159935D02*
D03*
X5617612Y3105813D02*
D03*
X5657979Y3065447D02*
D03*
X6102860Y2687494D02*
D03*
X6062494Y2727860D02*
D03*
X6201286Y2789856D02*
D03*
X6160919Y2830223D02*
D03*
X5738675Y3256404D02*
D03*
X5779042Y3216037D02*
D03*
X5673714Y3188490D02*
D03*
X5714081Y3148124D02*
D03*
X5638281Y3153057D02*
D03*
X5678648Y3112691D02*
D03*
X6156994Y2698321D02*
D03*
X6116628Y2738687D02*
D03*
X6194396Y2733754D02*
D03*
X6154029Y2774120D02*
D03*
D107*
X5842770Y2407229D02*
D03*
X5753686Y2496314D02*
D03*
%TF.MD5,f86ed47ff20ffd22a724e99b97d42719*%
M02*
