%TF.GenerationSoftware,Altium Limited,Altium Designer,22.4.2 (48)*%
G04 Layer_Color=32768*
%FSLAX26Y26*%
%MOIN*%
%TF.SameCoordinates,8C98EB32-1E12-42CD-A60B-9DA89663A72C*%
%TF.FilePolarity,Positive*%
%TF.FileFunction,Other,Top_Value*%
%TF.Part,Single*%
G01*
G75*
%TA.AperFunction,NonConductor*%
%ADD112C,0.001000*%
D112*
X8907477Y2332677D02*
Y2329397D01*
Y2331037D01*
X8897638D01*
Y2332677D01*
Y2329397D01*
X8905837Y2317918D02*
X8907477Y2319558D01*
Y2322838D01*
X8905837Y2324478D01*
X8899278D01*
X8897638Y2322838D01*
Y2319558D01*
X8899278Y2317918D01*
X8907477Y2308079D02*
Y2314638D01*
X8902558D01*
X8904197Y2311359D01*
Y2309719D01*
X8902558Y2308079D01*
X8899278D01*
X8897638Y2309719D01*
Y2312999D01*
X8899278Y2314638D01*
X9864747Y2867172D02*
X9861467Y2863893D01*
Y2857333D01*
X9864747Y2854053D01*
X9877866D01*
X9881146Y2857333D01*
Y2863893D01*
X9877866Y2867172D01*
X9861467Y2883571D02*
Y2877012D01*
X9864747Y2873732D01*
X9877866D01*
X9881146Y2877012D01*
Y2883571D01*
X9877866Y2886851D01*
X9864747D01*
X9861467Y2883571D01*
X9881146Y2893410D02*
Y2899970D01*
Y2896690D01*
X9861467D01*
X9864747Y2893410D01*
X4933722Y3038062D02*
X4937001Y3041342D01*
Y3047901D01*
X4933722Y3051181D01*
X4920603D01*
X4917323Y3047901D01*
Y3041342D01*
X4920603Y3038062D01*
X4937001Y3021663D02*
Y3028223D01*
X4933722Y3031503D01*
X4920603D01*
X4917323Y3028223D01*
Y3021663D01*
X4920603Y3018383D01*
X4933722D01*
X4937001Y3021663D01*
X4933722Y3011824D02*
X4937001Y3008544D01*
Y3001985D01*
X4933722Y2998705D01*
X4930442D01*
X4927162Y3001985D01*
Y3005264D01*
Y3001985D01*
X4923882Y2998705D01*
X4920603D01*
X4917323Y3001985D01*
Y3008544D01*
X4920603Y3011824D01*
X4933722Y2992145D02*
X4937001Y2988865D01*
Y2982306D01*
X4933722Y2979026D01*
X4920603D01*
X4917323Y2982306D01*
Y2988865D01*
X4920603Y2992145D01*
X4933722D01*
X4917323Y2959348D02*
Y2972467D01*
X4930442Y2959348D01*
X4933722D01*
X4937001Y2962627D01*
Y2969187D01*
X4933722Y2972467D01*
X9210633Y3547244D02*
Y3550524D01*
Y3548884D01*
X9220472D01*
Y3547244D01*
Y3550524D01*
X9212273Y3562003D02*
X9210633Y3560363D01*
Y3557084D01*
X9212273Y3555444D01*
X9218833D01*
X9220472Y3557084D01*
Y3560363D01*
X9218833Y3562003D01*
X9220472Y3565283D02*
Y3568563D01*
Y3566923D01*
X9210633D01*
X9212273Y3565283D01*
X5161417Y3781493D02*
Y3771653D01*
X5167977D01*
X5177816D02*
X5171257D01*
X5177816Y3778213D01*
Y3779853D01*
X5176176Y3781493D01*
X5172896D01*
X5171257Y3779853D01*
X6418384Y3836614D02*
Y3834948D01*
Y3835781D01*
X6413386D01*
Y3836614D01*
Y3834948D01*
X6417551Y3829117D02*
X6418384Y3829950D01*
Y3831616D01*
X6417551Y3832449D01*
X6414219D01*
X6413386Y3831616D01*
Y3829950D01*
X6414219Y3829117D01*
X6413386Y3827450D02*
Y3825784D01*
Y3826617D01*
X6418384D01*
X6417551Y3827450D01*
Y3823285D02*
X6418384Y3822452D01*
Y3820786D01*
X6417551Y3819953D01*
X6414219D01*
X6413386Y3820786D01*
Y3822452D01*
X6414219Y3823285D01*
X6417551D01*
X6413386Y3814954D02*
Y3818287D01*
X6416718Y3814954D01*
X6417551D01*
X6418384Y3815788D01*
Y3817454D01*
X6417551Y3818287D01*
X4731222Y2545278D02*
Y2546944D01*
Y2546111D01*
X4736220D01*
Y2545278D01*
Y2546944D01*
X4732055Y2552775D02*
X4731222Y2551942D01*
Y2550276D01*
X4732055Y2549443D01*
X4735387D01*
X4736220Y2550276D01*
Y2551942D01*
X4735387Y2552775D01*
X4736220Y2554441D02*
Y2556108D01*
Y2555275D01*
X4731222D01*
X4732055Y2554441D01*
Y2558607D02*
X4731222Y2559440D01*
Y2561106D01*
X4732055Y2561939D01*
X4735387D01*
X4736220Y2561106D01*
Y2559440D01*
X4735387Y2558607D01*
X4732055D01*
Y2563605D02*
X4731222Y2564438D01*
Y2566104D01*
X4732055Y2566938D01*
X4732888D01*
X4733721Y2566104D01*
Y2565271D01*
Y2566104D01*
X4734554Y2566938D01*
X4735387D01*
X4736220Y2566104D01*
Y2564438D01*
X4735387Y2563605D01*
X5066929Y3470781D02*
X5073594D01*
X5070261D01*
Y3450787D01*
X5066929D01*
X5073594D01*
X5096919Y3467449D02*
X5093587Y3470781D01*
X5086923D01*
X5083590Y3467449D01*
Y3454120D01*
X5086923Y3450787D01*
X5093587D01*
X5096919Y3454120D01*
X5116913Y3450787D02*
X5103584D01*
X5116913Y3464116D01*
Y3467449D01*
X5113581Y3470781D01*
X5106916D01*
X5103584Y3467449D01*
X8027572Y2755906D02*
Y2769025D01*
Y2762465D01*
X8066929D01*
Y2755906D01*
Y2769025D01*
X8034131Y2814942D02*
X8027572Y2808382D01*
Y2795263D01*
X8034131Y2788703D01*
X8060370D01*
X8066929Y2795263D01*
Y2808382D01*
X8060370Y2814942D01*
X8066929Y2847740D02*
X8027572D01*
X8047251Y2828061D01*
Y2854299D01*
X9496388Y2493441D02*
X9498028Y2495080D01*
Y2498360D01*
X9496388Y2500000D01*
X9489829D01*
X9488189Y2498360D01*
Y2495080D01*
X9489829Y2493441D01*
X9496388Y2490161D02*
X9498028Y2488521D01*
Y2485241D01*
X9496388Y2483601D01*
X9494748D01*
X9493109Y2485241D01*
Y2486881D01*
Y2485241D01*
X9491469Y2483601D01*
X9489829D01*
X9488189Y2485241D01*
Y2488521D01*
X9489829Y2490161D01*
X9498028Y2473762D02*
X9496388Y2477042D01*
X9493109Y2480321D01*
X9489829D01*
X9488189Y2478682D01*
Y2475402D01*
X9489829Y2473762D01*
X9491469D01*
X9493109Y2475402D01*
Y2480321D01*
X6318898Y2874016D02*
Y2869017D01*
X6316398D01*
X6315565Y2869850D01*
Y2871517D01*
X6316398Y2872350D01*
X6318898D01*
X6317231D02*
X6315565Y2874016D01*
X6310567D02*
X6313899D01*
X6310567Y2870683D01*
Y2869850D01*
X6311400Y2869017D01*
X6313066D01*
X6313899Y2869850D01*
X6308901D02*
X6308068Y2869017D01*
X6306402D01*
X6305569Y2869850D01*
Y2873183D01*
X6306402Y2874016D01*
X6308068D01*
X6308901Y2873183D01*
Y2869850D01*
X6303902D02*
X6303069Y2869017D01*
X6301403D01*
X6300570Y2869850D01*
Y2870683D01*
X6301403Y2871517D01*
X6300570Y2872350D01*
Y2873183D01*
X6301403Y2874016D01*
X6303069D01*
X6303902Y2873183D01*
Y2872350D01*
X6303069Y2871517D01*
X6303902Y2870683D01*
Y2869850D01*
X6303069Y2871517D02*
X6301403D01*
X3716535Y3688976D02*
Y3693975D01*
X3719035D01*
X3719868Y3693142D01*
Y3691476D01*
X3719035Y3690642D01*
X3716535D01*
X3718202D02*
X3719868Y3688976D01*
X3724866D02*
X3721534D01*
X3724866Y3692309D01*
Y3693142D01*
X3724033Y3693975D01*
X3722367D01*
X3721534Y3693142D01*
X3726532D02*
X3727365Y3693975D01*
X3729032D01*
X3729865Y3693142D01*
Y3689809D01*
X3729032Y3688976D01*
X3727365D01*
X3726532Y3689809D01*
Y3693142D01*
X3731531Y3689809D02*
X3732364Y3688976D01*
X3734030D01*
X3734863Y3689809D01*
Y3693142D01*
X3734030Y3693975D01*
X3732364D01*
X3731531Y3693142D01*
Y3692309D01*
X3732364Y3691476D01*
X3734863D01*
X4616139Y3681102D02*
Y3677823D01*
Y3679462D01*
X4606299D01*
Y3681102D01*
Y3677823D01*
X4614499Y3666343D02*
X4616139Y3667983D01*
Y3671263D01*
X4614499Y3672903D01*
X4607939D01*
X4606299Y3671263D01*
Y3667983D01*
X4607939Y3666343D01*
X4606299Y3656504D02*
Y3663064D01*
X4612859Y3656504D01*
X4614499D01*
X4616139Y3658144D01*
Y3661424D01*
X4614499Y3663064D01*
Y3653224D02*
X4616139Y3651584D01*
Y3648305D01*
X4614499Y3646665D01*
X4607939D01*
X4606299Y3648305D01*
Y3651584D01*
X4607939Y3653224D01*
X4614499D01*
Y3643385D02*
X4616139Y3641745D01*
Y3638465D01*
X4614499Y3636825D01*
X4612859D01*
X4611219Y3638465D01*
Y3640105D01*
Y3638465D01*
X4609579Y3636825D01*
X4607939D01*
X4606299Y3638465D01*
Y3641745D01*
X4607939Y3643385D01*
X5961194Y2874812D02*
X5956556Y2879450D01*
X5958875Y2877131D01*
X5972790Y2891046D01*
X5975109Y2888727D01*
X5970471Y2893365D01*
X5942641Y2898003D02*
X5942641Y2893365D01*
X5947279Y2888727D01*
X5951917Y2888727D01*
X5961194Y2898003D01*
Y2902641D01*
X5956556Y2907280D01*
X5951917D01*
X5940322Y2923514D02*
X5949598Y2914237D01*
X5931045D01*
X5928726Y2911918D01*
Y2907280D01*
X5933364Y2902641D01*
X5938002D01*
X5924088Y2916556D02*
X5919449Y2916556D01*
X5914811Y2921195D01*
X5914811Y2925833D01*
X5924088Y2935110D01*
X5928726D01*
X5933364Y2930471D01*
Y2925833D01*
X5924088Y2916556D01*
X5921769Y2942067D02*
X5917130Y2946705D01*
X5919449Y2944386D01*
X5905534Y2930471D01*
X5910173Y2930471D01*
X8940945Y3620082D02*
X8934385D01*
X8937665D01*
Y3629921D01*
X8931105D02*
Y3620082D01*
X8926186D01*
X8924546Y3621722D01*
Y3625002D01*
X8926186Y3626642D01*
X8931105D01*
X8927826D02*
X8924546Y3629921D01*
X8914707D02*
X8921266D01*
X8914707Y3623362D01*
Y3621722D01*
X8916346Y3620082D01*
X8919626D01*
X8921266Y3621722D01*
X5473755Y2058730D02*
X5475395Y2057090D01*
X5478675D01*
X5480315Y2058730D01*
Y2060370D01*
X5478675Y2062009D01*
X5475395D01*
X5473755Y2063649D01*
Y2065289D01*
X5475395Y2066929D01*
X5478675D01*
X5480315Y2065289D01*
X5470476Y2057090D02*
Y2066929D01*
X5467196Y2063649D01*
X5463916Y2066929D01*
Y2057090D01*
X5460636Y2066929D02*
X5457356D01*
X5458996D01*
Y2057090D01*
X5460636Y2058730D01*
X5452437D02*
X5450797Y2057090D01*
X5447517D01*
X5445877Y2058730D01*
Y2065289D01*
X5447517Y2066929D01*
X5450797D01*
X5452437Y2065289D01*
Y2058730D01*
X5442598Y2066929D02*
X5439318D01*
X5440958D01*
Y2057090D01*
X5442598Y2058730D01*
X7769685Y2524683D02*
Y2519685D01*
X7772184D01*
X7773017Y2520518D01*
Y2523850D01*
X7772184Y2524683D01*
X7769685D01*
X7778016Y2519685D02*
X7774683D01*
X7778016Y2523017D01*
Y2523850D01*
X7777183Y2524683D01*
X7775516D01*
X7774683Y2523850D01*
X7779682D02*
X7780515Y2524683D01*
X7782181D01*
X7783014Y2523850D01*
Y2520518D01*
X7782181Y2519685D01*
X7780515D01*
X7779682Y2520518D01*
Y2523850D01*
X7787179Y2519685D02*
Y2524683D01*
X7784680Y2522184D01*
X7788012D01*
X9814961Y3781493D02*
Y3771654D01*
Y3776573D01*
X9821520D01*
Y3781493D01*
Y3771654D01*
X9831359Y3781493D02*
X9824800D01*
Y3776573D01*
X9828080Y3778213D01*
X9829720D01*
X9831359Y3776573D01*
Y3773294D01*
X9829720Y3771654D01*
X9826440D01*
X9824800Y3773294D01*
X4765088Y2240808D02*
X4761808Y2244088D01*
X4755248D01*
X4751968Y2240808D01*
Y2227689D01*
X4755248Y2224410D01*
X4761808D01*
X4765088Y2227689D01*
X4781486Y2244088D02*
X4774927D01*
X4771647Y2240808D01*
Y2227689D01*
X4774927Y2224410D01*
X4781486D01*
X4784766Y2227689D01*
Y2240808D01*
X4781486Y2244088D01*
X4791326Y2224410D02*
X4797885D01*
X4794605D01*
Y2244088D01*
X4791326Y2240808D01*
X4807725D02*
X4811004Y2244088D01*
X4817564D01*
X4820844Y2240808D01*
Y2227689D01*
X4817564Y2224410D01*
X4811004D01*
X4807725Y2227689D01*
Y2240808D01*
X4827403D02*
X4830683Y2244088D01*
X4837243D01*
X4840522Y2240808D01*
Y2237529D01*
X4837243Y2234249D01*
X4833963D01*
X4837243D01*
X4840522Y2230969D01*
Y2227689D01*
X4837243Y2224410D01*
X4830683D01*
X4827403Y2227689D01*
X5688976Y3602362D02*
Y3592523D01*
X5685697Y3595803D01*
X5682417Y3592523D01*
Y3602362D01*
X5674217Y3592523D02*
X5677497D01*
X5679137Y3594163D01*
Y3600722D01*
X5677497Y3602362D01*
X5674217D01*
X5672578Y3600722D01*
Y3594163D01*
X5674217Y3592523D01*
X5669298Y3602362D02*
X5666018D01*
X5667658D01*
Y3592523D01*
X5669298Y3594163D01*
X5661098D02*
X5659458Y3592523D01*
X5656179D01*
X5654539Y3594163D01*
Y3600722D01*
X5656179Y3602362D01*
X5659458D01*
X5661098Y3600722D01*
Y3594163D01*
X5646339Y3602362D02*
Y3592523D01*
X5651259Y3597443D01*
X5644699D01*
X6129921Y2255905D02*
Y2334620D01*
X6156159Y2308382D01*
X6182398Y2334620D01*
Y2255905D01*
X6247993Y2334620D02*
X6221755D01*
X6208636Y2321501D01*
Y2269025D01*
X6221755Y2255905D01*
X6247993D01*
X6261113Y2269025D01*
Y2321501D01*
X6247993Y2334620D01*
X6287351Y2255905D02*
X6313589D01*
X6300470D01*
Y2334620D01*
X6287351Y2321501D01*
X6352946D02*
X6366065Y2334620D01*
X6392304D01*
X6405423Y2321501D01*
Y2269025D01*
X6392304Y2255905D01*
X6366065D01*
X6352946Y2269025D01*
Y2321501D01*
X6484138Y2255905D02*
X6431661D01*
X6484138Y2308382D01*
Y2321501D01*
X6471019Y2334620D01*
X6444780D01*
X6431661Y2321501D01*
X6129921Y3594488D02*
Y3673203D01*
X6156159Y3646965D01*
X6182398Y3673203D01*
Y3594488D01*
X6247993Y3673203D02*
X6221755D01*
X6208636Y3660084D01*
Y3607607D01*
X6221755Y3594488D01*
X6247993D01*
X6261113Y3607607D01*
Y3660084D01*
X6247993Y3673203D01*
X6287351Y3594488D02*
X6313589D01*
X6300470D01*
Y3673203D01*
X6287351Y3660084D01*
X6352946D02*
X6366065Y3673203D01*
X6392304D01*
X6405423Y3660084D01*
Y3607607D01*
X6392304Y3594488D01*
X6366065D01*
X6352946Y3607607D01*
Y3660084D01*
X6431661Y3594488D02*
X6457899D01*
X6444780D01*
Y3673203D01*
X6431661Y3660084D01*
X3845146Y3339897D02*
X3846458Y3338585D01*
X3849082D01*
X3850394Y3339897D01*
Y3345145D01*
X3849082Y3346457D01*
X3846458D01*
X3845146Y3345145D01*
X3837275Y3346457D02*
X3842522D01*
X3837275Y3341209D01*
Y3339897D01*
X3838586Y3338585D01*
X3841210D01*
X3842522Y3339897D01*
X3829403Y3338585D02*
X3832027Y3339897D01*
X3834651Y3342521D01*
Y3345145D01*
X3833339Y3346457D01*
X3830715D01*
X3829403Y3345145D01*
Y3343833D01*
X3830715Y3342521D01*
X3834651D01*
X3826779Y3339897D02*
X3825467Y3338585D01*
X3822843D01*
X3821532Y3339897D01*
Y3345145D01*
X3822843Y3346457D01*
X3825467D01*
X3826779Y3345145D01*
Y3339897D01*
X8665583Y2787022D02*
X8666416Y2787855D01*
Y2789521D01*
X8665583Y2790354D01*
X8662250D01*
X8661417Y2789521D01*
Y2787855D01*
X8662250Y2787022D01*
X8661417Y2782857D02*
X8666416D01*
X8663916Y2785356D01*
Y2782024D01*
X8666416Y2777025D02*
Y2780358D01*
X8663916D01*
X8664750Y2778691D01*
Y2777858D01*
X8663916Y2777025D01*
X8662250D01*
X8661417Y2777858D01*
Y2779524D01*
X8662250Y2780358D01*
X8145672Y2470472D02*
X8155512D01*
Y2477032D01*
Y2485231D02*
X8145672D01*
X8150592Y2480312D01*
Y2486871D01*
X2900260Y2449144D02*
X2898620Y2450784D01*
X2895341D01*
X2893701Y2449144D01*
Y2442585D01*
X2895341Y2440945D01*
X2898620D01*
X2900260Y2442585D01*
X2908460Y2450784D02*
X2905180D01*
X2903540Y2449144D01*
Y2442585D01*
X2905180Y2440945D01*
X2908460D01*
X2910100Y2442585D01*
Y2449144D01*
X2908460Y2450784D01*
X2913379Y2440945D02*
X2916659D01*
X2915019D01*
Y2450784D01*
X2913379Y2449144D01*
X2921579D02*
X2923219Y2450784D01*
X2926499D01*
X2928138Y2449144D01*
Y2442585D01*
X2926499Y2440945D01*
X2923219D01*
X2921579Y2442585D01*
Y2449144D01*
X2931418Y2440945D02*
X2934698D01*
X2933058D01*
Y2450784D01*
X2931418Y2449144D01*
X6159468Y3275002D02*
X6136277Y3279640D01*
X6150192Y3265725D02*
X6145553Y3288916D01*
X6122362Y3265725D02*
X6131638Y3275002D01*
Y3256448D01*
X6133958Y3254129D01*
X6138596D01*
X6143234Y3258768D01*
X6143234Y3263406D01*
X6129319Y3249491D02*
Y3244853D01*
X6124681Y3240214D01*
X6120043D01*
X6110766Y3249491D01*
Y3254129D01*
X6115404Y3258768D01*
X6120043D01*
X6129319Y3249491D01*
X6103809Y3247172D02*
X6099170Y3242534D01*
X6101489Y3244853D01*
X6115404Y3230938D01*
X6115404Y3235576D01*
X8034249Y3743441D02*
Y3746720D01*
Y3745080D01*
X8026049D01*
X8024409Y3746720D01*
Y3748360D01*
X8026049Y3750000D01*
X8024409Y3740161D02*
Y3736881D01*
Y3738521D01*
X8034249D01*
X8032609Y3740161D01*
Y3731961D02*
X8034249Y3730321D01*
Y3727042D01*
X8032609Y3725402D01*
X8026049D01*
X8024409Y3727042D01*
Y3730321D01*
X8026049Y3731961D01*
X8032609D01*
X8024409Y3717202D02*
X8034249D01*
X8029329Y3722122D01*
Y3715562D01*
X3378983Y2113600D02*
X3375704Y2116879D01*
X3369144D01*
X3365864Y2113600D01*
Y2100481D01*
X3369144Y2097201D01*
X3375704D01*
X3378983Y2100481D01*
X3395382Y2116879D02*
X3388823D01*
X3385543Y2113600D01*
Y2100481D01*
X3388823Y2097201D01*
X3395382D01*
X3398662Y2100481D01*
Y2113600D01*
X3395382Y2116879D01*
X3405222Y2097201D02*
X3411781D01*
X3408501D01*
Y2116879D01*
X3405222Y2113600D01*
X3421620D02*
X3424900Y2116879D01*
X3431460D01*
X3434740Y2113600D01*
Y2100481D01*
X3431460Y2097201D01*
X3424900D01*
X3421620Y2100481D01*
Y2113600D01*
X3454418Y2097201D02*
X3441299D01*
X3454418Y2110320D01*
Y2113600D01*
X3451138Y2116879D01*
X3444579D01*
X3441299Y2113600D01*
X7578740Y2303150D02*
Y2293310D01*
X7575460Y2296590D01*
X7572181Y2293310D01*
Y2303150D01*
X7563981Y2293310D02*
X7567261D01*
X7568901Y2294950D01*
Y2301510D01*
X7567261Y2303150D01*
X7563981D01*
X7562341Y2301510D01*
Y2294950D01*
X7563981Y2293310D01*
X7559061Y2303150D02*
X7555782D01*
X7557422D01*
Y2293310D01*
X7559061Y2294950D01*
X7550862D02*
X7549222Y2293310D01*
X7545942D01*
X7544303Y2294950D01*
Y2301510D01*
X7545942Y2303150D01*
X7549222D01*
X7550862Y2301510D01*
Y2294950D01*
X7534463Y2293310D02*
X7537743Y2294950D01*
X7541023Y2298230D01*
Y2301510D01*
X7539383Y2303150D01*
X7536103D01*
X7534463Y2301510D01*
Y2299870D01*
X7536103Y2298230D01*
X7541023D01*
X7578740Y3602362D02*
Y3592523D01*
X7575460Y3595803D01*
X7572181Y3592523D01*
Y3602362D01*
X7563981Y3592523D02*
X7567261D01*
X7568901Y3594163D01*
Y3600722D01*
X7567261Y3602362D01*
X7563981D01*
X7562341Y3600722D01*
Y3594163D01*
X7563981Y3592523D01*
X7559061Y3602362D02*
X7555782D01*
X7557422D01*
Y3592523D01*
X7559061Y3594163D01*
X7550862D02*
X7549222Y3592523D01*
X7545942D01*
X7544303Y3594163D01*
Y3600722D01*
X7545942Y3602362D01*
X7549222D01*
X7550862Y3600722D01*
Y3594163D01*
X7534463Y3592523D02*
X7541023D01*
Y3597443D01*
X7537743Y3595803D01*
X7536103D01*
X7534463Y3597443D01*
Y3600722D01*
X7536103Y3602362D01*
X7539383D01*
X7541023Y3600722D01*
X6216535Y3078740D02*
Y3157455D01*
X6242774Y3131217D01*
X6269012Y3157455D01*
Y3078740D01*
X6334608Y3157455D02*
X6308369D01*
X6295250Y3144336D01*
Y3091859D01*
X6308369Y3078740D01*
X6334608D01*
X6347727Y3091859D01*
Y3144336D01*
X6334608Y3157455D01*
X6373965Y3078740D02*
X6400203D01*
X6387084D01*
Y3157455D01*
X6373965Y3144336D01*
X6439561D02*
X6452680Y3157455D01*
X6478918D01*
X6492037Y3144336D01*
Y3091859D01*
X6478918Y3078740D01*
X6452680D01*
X6439561Y3091859D01*
Y3144336D01*
X6518275Y3157455D02*
X6570752D01*
Y3144336D01*
X6518275Y3091859D01*
Y3078740D01*
X5688976Y2303150D02*
Y2293310D01*
X5685697Y2296590D01*
X5682417Y2293310D01*
Y2303150D01*
X5674217Y2293310D02*
X5677497D01*
X5679137Y2294950D01*
Y2301510D01*
X5677497Y2303150D01*
X5674217D01*
X5672578Y2301510D01*
Y2294950D01*
X5674217Y2293310D01*
X5669298Y2303150D02*
X5666018D01*
X5667658D01*
Y2293310D01*
X5669298Y2294950D01*
X5661098D02*
X5659458Y2293310D01*
X5656179D01*
X5654539Y2294950D01*
Y2301510D01*
X5656179Y2303150D01*
X5659458D01*
X5661098Y2301510D01*
Y2294950D01*
X5651259D02*
X5649619Y2293310D01*
X5646339D01*
X5644699Y2294950D01*
Y2296590D01*
X5646339Y2298230D01*
X5647979D01*
X5646339D01*
X5644699Y2299870D01*
Y2301510D01*
X5646339Y2303150D01*
X5649619D01*
X5651259Y2301510D01*
X8082677Y2324800D02*
Y2314961D01*
Y2319880D01*
X8089237D01*
Y2324800D01*
Y2314961D01*
X8092516D02*
X8095796D01*
X8094156D01*
Y2324800D01*
X8092516Y2323160D01*
X2452756Y2206690D02*
Y2196850D01*
Y2201770D01*
X2459315D01*
Y2206690D01*
Y2196850D01*
X2469155D02*
X2462595D01*
X2469155Y2203410D01*
Y2205050D01*
X2467515Y2206690D01*
X2464235D01*
X2462595Y2205050D01*
X2452756Y3899603D02*
Y3889764D01*
Y3894684D01*
X2459315D01*
Y3899603D01*
Y3889764D01*
X2462595Y3897963D02*
X2464235Y3899603D01*
X2467515D01*
X2469155Y3897963D01*
Y3896323D01*
X2467515Y3894684D01*
X2465875D01*
X2467515D01*
X2469155Y3893044D01*
Y3891404D01*
X2467515Y3889764D01*
X2464235D01*
X2462595Y3891404D01*
X9814961Y2324800D02*
Y2314961D01*
Y2319880D01*
X9821520D01*
Y2324800D01*
Y2314961D01*
X9829720D02*
Y2324800D01*
X9824800Y2319880D01*
X9831359D01*
X6098016Y2711054D02*
Y2709876D01*
X6099194Y2708698D01*
X6100372D01*
X6102728Y2711054D01*
Y2712232D01*
X6101550Y2713410D01*
X6100372D01*
X6097427Y2717534D02*
X6099783Y2715178D01*
X6095070D01*
X6094481Y2714589D01*
Y2713410D01*
X6095659Y2712232D01*
X6096838D01*
X6093892Y2721068D02*
X6096249Y2718712D01*
X6091536D01*
X6090947Y2718123D01*
Y2716945D01*
X6092125Y2715767D01*
X6093303D01*
X6089769Y2719301D02*
X6088591D01*
X6087413Y2720479D01*
Y2721657D01*
X6088002Y2722246D01*
X6089180D01*
Y2723425D01*
X6089769Y2724014D01*
X6090947D01*
X6092125Y2722836D01*
Y2721657D01*
X6091536Y2721068D01*
X6090358D01*
Y2719890D01*
X6089769Y2719301D01*
X6090358Y2721068D02*
X6089180Y2722246D01*
X9014437Y2582023D02*
X9015749Y2580711D01*
X9018373D01*
X9019685Y2582023D01*
Y2587271D01*
X9018373Y2588583D01*
X9015749D01*
X9014437Y2587271D01*
X9011814Y2582023D02*
X9010502Y2580711D01*
X9007878D01*
X9006566Y2582023D01*
Y2583335D01*
X9007878Y2584647D01*
X9009190D01*
X9007878D01*
X9006566Y2585959D01*
Y2587271D01*
X9007878Y2588583D01*
X9010502D01*
X9011814Y2587271D01*
X9003942Y2580711D02*
X8998694D01*
Y2582023D01*
X9003942Y2587271D01*
Y2588583D01*
X8690948Y2372047D02*
X8700787D01*
Y2378607D01*
X8692588Y2381887D02*
X8690948Y2383526D01*
Y2386806D01*
X8692588Y2388446D01*
X8694228D01*
X8695868Y2386806D01*
Y2385166D01*
Y2386806D01*
X8697508Y2388446D01*
X8699147D01*
X8700787Y2386806D01*
Y2383526D01*
X8699147Y2381887D01*
X3594716Y2548833D02*
X3595550Y2549666D01*
Y2551332D01*
X3594716Y2552165D01*
X3591384D01*
X3590551Y2551332D01*
Y2549666D01*
X3591384Y2548833D01*
X3590551Y2547167D02*
Y2545501D01*
Y2546334D01*
X3595550D01*
X3594716Y2547167D01*
Y2543002D02*
X3595550Y2542169D01*
Y2540502D01*
X3594716Y2539669D01*
X3591384D01*
X3590551Y2540502D01*
Y2542169D01*
X3591384Y2543002D01*
X3594716D01*
X3815189Y2922849D02*
X3816022Y2923682D01*
Y2925348D01*
X3815189Y2926181D01*
X3811857D01*
X3811024Y2925348D01*
Y2923682D01*
X3811857Y2922849D01*
X3811024Y2921183D02*
Y2919517D01*
Y2920350D01*
X3816022D01*
X3815189Y2921183D01*
X3811024Y2917017D02*
Y2915351D01*
Y2916184D01*
X3816022D01*
X3815189Y2917017D01*
X3886055Y2922849D02*
X3886888Y2923682D01*
Y2925348D01*
X3886055Y2926181D01*
X3882723D01*
X3881890Y2925348D01*
Y2923682D01*
X3882723Y2922849D01*
X3881890Y2921183D02*
Y2919517D01*
Y2920350D01*
X3886888D01*
X3886055Y2921183D01*
X3881890Y2913685D02*
Y2917017D01*
X3885222Y2913685D01*
X3886055D01*
X3886888Y2914518D01*
Y2916184D01*
X3886055Y2917017D01*
X4228660Y2306598D02*
X4229493Y2307431D01*
Y2309097D01*
X4228660Y2309930D01*
X4225328D01*
X4224495Y2309097D01*
Y2307431D01*
X4225328Y2306598D01*
X4224495Y2301599D02*
Y2304932D01*
X4227827Y2301599D01*
X4228660D01*
X4229493Y2302432D01*
Y2304098D01*
X4228660Y2304932D01*
X4229493Y2296601D02*
Y2299933D01*
X4226994D01*
X4227827Y2298267D01*
Y2297434D01*
X4226994Y2296601D01*
X4225328D01*
X4224495Y2297434D01*
Y2299100D01*
X4225328Y2299933D01*
X4125309Y2306598D02*
X4126142Y2307431D01*
Y2309097D01*
X4125309Y2309930D01*
X4121976D01*
X4121143Y2309097D01*
Y2307431D01*
X4121976Y2306598D01*
X4121143Y2301599D02*
Y2304932D01*
X4124476Y2301599D01*
X4125309D01*
X4126142Y2302432D01*
Y2304098D01*
X4125309Y2304932D01*
X4126142Y2296601D02*
X4125309Y2298267D01*
X4123643Y2299933D01*
X4121976D01*
X4121143Y2299100D01*
Y2297434D01*
X4121976Y2296601D01*
X4122810D01*
X4123643Y2297434D01*
Y2299933D01*
X4020973Y2306598D02*
X4021806Y2307431D01*
Y2309097D01*
X4020973Y2309930D01*
X4017641D01*
X4016808Y2309097D01*
Y2307431D01*
X4017641Y2306598D01*
X4016808Y2301599D02*
Y2304932D01*
X4020140Y2301599D01*
X4020973D01*
X4021806Y2302432D01*
Y2304098D01*
X4020973Y2304932D01*
X4021806Y2299933D02*
Y2296601D01*
X4020973D01*
X4017641Y2299933D01*
X4016808D01*
X3916637Y2306598D02*
X3917470Y2307431D01*
Y2309097D01*
X3916637Y2309930D01*
X3913305D01*
X3912472Y2309097D01*
Y2307431D01*
X3913305Y2306598D01*
X3912472Y2301599D02*
Y2304932D01*
X3915804Y2301599D01*
X3916637D01*
X3917470Y2302432D01*
Y2304098D01*
X3916637Y2304932D01*
Y2299933D02*
X3917470Y2299100D01*
Y2297434D01*
X3916637Y2296601D01*
X3915804D01*
X3914971Y2297434D01*
X3914138Y2296601D01*
X3913305D01*
X3912472Y2297434D01*
Y2299100D01*
X3913305Y2299933D01*
X3914138D01*
X3914971Y2299100D01*
X3915804Y2299933D01*
X3916637D01*
X3914971Y2299100D02*
Y2297434D01*
X3813286Y2306598D02*
X3814119Y2307431D01*
Y2309097D01*
X3813286Y2309930D01*
X3809953D01*
X3809120Y2309097D01*
Y2307431D01*
X3809953Y2306598D01*
X3809120Y2301599D02*
Y2304932D01*
X3812453Y2301599D01*
X3813286D01*
X3814119Y2302432D01*
Y2304098D01*
X3813286Y2304932D01*
X3809953Y2299933D02*
X3809120Y2299100D01*
Y2297434D01*
X3809953Y2296601D01*
X3813286D01*
X3814119Y2297434D01*
Y2299100D01*
X3813286Y2299933D01*
X3812453D01*
X3811619Y2299100D01*
Y2296601D01*
X3687503Y2323530D02*
X3688336Y2322697D01*
X3690002D01*
X3690835Y2323530D01*
Y2326863D01*
X3690002Y2327696D01*
X3688336D01*
X3687503Y2326863D01*
X3685837Y2323530D02*
X3685004Y2322697D01*
X3683338D01*
X3682505Y2323530D01*
Y2324363D01*
X3683338Y2325197D01*
X3684171D01*
X3683338D01*
X3682505Y2326030D01*
Y2326863D01*
X3683338Y2327696D01*
X3685004D01*
X3685837Y2326863D01*
X3680839Y2323530D02*
X3680006Y2322697D01*
X3678339D01*
X3677506Y2323530D01*
Y2326863D01*
X3678339Y2327696D01*
X3680006D01*
X3680839Y2326863D01*
Y2323530D01*
X3861976Y2433450D02*
X3861143Y2432617D01*
Y2430951D01*
X3861976Y2430118D01*
X3865309D01*
X3866142Y2430951D01*
Y2432617D01*
X3865309Y2433450D01*
X3861976Y2435117D02*
X3861143Y2435950D01*
Y2437616D01*
X3861976Y2438449D01*
X3862809D01*
X3863642Y2437616D01*
Y2436783D01*
Y2437616D01*
X3864476Y2438449D01*
X3865309D01*
X3866142Y2437616D01*
Y2435950D01*
X3865309Y2435117D01*
X3866142Y2440115D02*
Y2441781D01*
Y2440948D01*
X3861143D01*
X3861976Y2440115D01*
X3751740Y2748411D02*
X3750907Y2747578D01*
Y2745912D01*
X3751740Y2745079D01*
X3755072D01*
X3755905Y2745912D01*
Y2747578D01*
X3755072Y2748411D01*
X3751740Y2750077D02*
X3750907Y2750910D01*
Y2752576D01*
X3751740Y2753410D01*
X3752573D01*
X3753406Y2752576D01*
Y2751743D01*
Y2752576D01*
X3754239Y2753410D01*
X3755072D01*
X3755905Y2752576D01*
Y2750910D01*
X3755072Y2750077D01*
X3755905Y2757575D02*
X3750907D01*
X3753406Y2755076D01*
Y2758408D01*
X3909220Y2748411D02*
X3908387Y2747578D01*
Y2745912D01*
X3909220Y2745079D01*
X3912553D01*
X3913386Y2745912D01*
Y2747578D01*
X3912553Y2748411D01*
X3909220Y2750077D02*
X3908387Y2750910D01*
Y2752576D01*
X3909220Y2753410D01*
X3910053D01*
X3910887Y2752576D01*
Y2751743D01*
Y2752576D01*
X3911720Y2753410D01*
X3912553D01*
X3913386Y2752576D01*
Y2750910D01*
X3912553Y2750077D01*
X3908387Y2758408D02*
Y2755076D01*
X3910887D01*
X3910053Y2756742D01*
Y2757575D01*
X3910887Y2758408D01*
X3912553D01*
X3913386Y2757575D01*
Y2755909D01*
X3912553Y2755076D01*
X7991472Y2452098D02*
X7990160Y2450786D01*
Y2448162D01*
X7991472Y2446850D01*
X7996720D01*
X7998032Y2448162D01*
Y2450786D01*
X7996720Y2452098D01*
X7998032Y2458658D02*
X7990160D01*
X7994096Y2454722D01*
Y2459970D01*
X7991472Y2462593D02*
X7990160Y2463905D01*
Y2466529D01*
X7991472Y2467841D01*
X7996720D01*
X7998032Y2466529D01*
Y2463905D01*
X7996720Y2462593D01*
X7991472D01*
X8114831Y2641078D02*
X8116143Y2639766D01*
X8118767D01*
X8120079Y2641078D01*
Y2646326D01*
X8118767Y2647638D01*
X8116143D01*
X8114831Y2646326D01*
X8108272Y2647638D02*
Y2639766D01*
X8112207Y2643702D01*
X8106960D01*
X8104336Y2647638D02*
X8101712D01*
X8103024D01*
Y2639766D01*
X8104336Y2641078D01*
X8058450Y3244323D02*
X8057617Y3245156D01*
X8055951D01*
X8055118Y3244323D01*
Y3240991D01*
X8055951Y3240157D01*
X8057617D01*
X8058450Y3240991D01*
X8062616Y3240157D02*
Y3245156D01*
X8060117Y3242657D01*
X8063449D01*
X8068447Y3240157D02*
X8065115D01*
X8068447Y3243490D01*
Y3244323D01*
X8067614Y3245156D01*
X8065948D01*
X8065115Y3244323D01*
X3625984Y2538694D02*
X3632649D01*
X3629317D01*
Y2518701D01*
X3625984D01*
X3632649D01*
X3655975Y2535362D02*
X3652642Y2538694D01*
X3645978D01*
X3642646Y2535362D01*
Y2522033D01*
X3645978Y2518701D01*
X3652642D01*
X3655975Y2522033D01*
X3662639Y2535362D02*
X3665971Y2538694D01*
X3672636D01*
X3675968Y2535362D01*
Y2532030D01*
X3672636Y2528698D01*
X3669304D01*
X3672636D01*
X3675968Y2525365D01*
Y2522033D01*
X3672636Y2518701D01*
X3665971D01*
X3662639Y2522033D01*
X3572838Y2812008D02*
X3582677D01*
Y2818567D01*
Y2821847D02*
Y2825127D01*
Y2823487D01*
X3572838D01*
X3574478Y2821847D01*
X3976378Y2796260D02*
X3971380D01*
Y2798759D01*
X3972213Y2799592D01*
X3973879D01*
X3974712Y2798759D01*
Y2796260D01*
Y2797926D02*
X3976378Y2799592D01*
X3971380Y2801258D02*
Y2804591D01*
X3972213D01*
X3975545Y2801258D01*
X3976378D01*
X3814961Y2733268D02*
Y2738266D01*
X3817460D01*
X3818293Y2737433D01*
Y2735767D01*
X3817460Y2734934D01*
X3814961D01*
X3816627D02*
X3818293Y2733268D01*
X3819959Y2734101D02*
X3820792Y2733268D01*
X3822458D01*
X3823291Y2734101D01*
Y2737433D01*
X3822458Y2738266D01*
X3820792D01*
X3819959Y2737433D01*
Y2736600D01*
X3820792Y2735767D01*
X3823291D01*
X4023622Y2630905D02*
Y2625907D01*
X4021123D01*
X4020290Y2626740D01*
Y2628406D01*
X4021123Y2629239D01*
X4023622D01*
X4021956D02*
X4020290Y2630905D01*
X4018624D02*
X4016957D01*
X4017791D01*
Y2625907D01*
X4018624Y2626740D01*
X4014458D02*
X4013625Y2625907D01*
X4011959D01*
X4011126Y2626740D01*
Y2630072D01*
X4011959Y2630905D01*
X4013625D01*
X4014458Y2630072D01*
Y2626740D01*
X8721077Y2190717D02*
X8721910Y2189883D01*
X8723576D01*
X8724409Y2190717D01*
Y2194049D01*
X8723576Y2194882D01*
X8721910D01*
X8721077Y2194049D01*
X8719411Y2190717D02*
X8718578Y2189883D01*
X8716912D01*
X8716079Y2190717D01*
Y2191550D01*
X8716912Y2192383D01*
X8717745D01*
X8716912D01*
X8716079Y2193216D01*
Y2194049D01*
X8716912Y2194882D01*
X8718578D01*
X8719411Y2194049D01*
X8714413Y2190717D02*
X8713579Y2189883D01*
X8711913D01*
X8711080Y2190717D01*
Y2191550D01*
X8711913Y2192383D01*
X8711080Y2193216D01*
Y2194049D01*
X8711913Y2194882D01*
X8713579D01*
X8714413Y2194049D01*
Y2193216D01*
X8713579Y2192383D01*
X8714413Y2191550D01*
Y2190717D01*
X8713579Y2192383D02*
X8711913D01*
X8759238Y2592748D02*
X8758405Y2593581D01*
X8756739D01*
X8755906Y2592748D01*
Y2589416D01*
X8756739Y2588583D01*
X8758405D01*
X8759238Y2589416D01*
X8760904Y2592748D02*
X8761737Y2593581D01*
X8763403D01*
X8764236Y2592748D01*
Y2591915D01*
X8763403Y2591082D01*
X8762570D01*
X8763403D01*
X8764236Y2590249D01*
Y2589416D01*
X8763403Y2588583D01*
X8761737D01*
X8760904Y2589416D01*
X8765902D02*
X8766735Y2588583D01*
X8768401D01*
X8769235Y2589416D01*
Y2592748D01*
X8768401Y2593581D01*
X8766735D01*
X8765902Y2592748D01*
Y2591915D01*
X8766735Y2591082D01*
X8769235D01*
X9335956Y3656166D02*
X9334644Y3657478D01*
X9332021D01*
X9330709Y3656166D01*
Y3650918D01*
X9332021Y3649606D01*
X9334644D01*
X9335956Y3650918D01*
X9338580Y3649606D02*
X9341204D01*
X9339892D01*
Y3657478D01*
X9338580Y3656166D01*
X9135173Y3678476D02*
X9133861Y3677164D01*
Y3674540D01*
X9135173Y3673228D01*
X9140420D01*
X9141732Y3674540D01*
Y3677164D01*
X9140420Y3678476D01*
X9141732Y3686347D02*
Y3681100D01*
X9136485Y3686347D01*
X9135173D01*
X9133861Y3685036D01*
Y3682412D01*
X9135173Y3681100D01*
X9337268Y3455382D02*
X9338580Y3456694D01*
Y3459318D01*
X9337268Y3460630D01*
X9332021D01*
X9330709Y3459318D01*
Y3456694D01*
X9332021Y3455382D01*
X9337268Y3452758D02*
X9338580Y3451447D01*
Y3448823D01*
X9337268Y3447511D01*
X9335956D01*
X9334644Y3448823D01*
Y3450135D01*
Y3448823D01*
X9333332Y3447511D01*
X9332021D01*
X9330709Y3448823D01*
Y3451447D01*
X9332021Y3452758D01*
X9561677Y3514438D02*
X9562989Y3515749D01*
Y3518373D01*
X9561677Y3519685D01*
X9556430D01*
X9555118Y3518373D01*
Y3515749D01*
X9556430Y3514438D01*
X9555118Y3507878D02*
X9562989D01*
X9559054Y3511814D01*
Y3506566D01*
X9447504Y3514438D02*
X9448816Y3515749D01*
Y3518373D01*
X9447504Y3519685D01*
X9442257D01*
X9440945Y3518373D01*
Y3515749D01*
X9442257Y3514438D01*
X9448816Y3506566D02*
Y3511814D01*
X9444880D01*
X9446192Y3509190D01*
Y3507878D01*
X9444880Y3506566D01*
X9442257D01*
X9440945Y3507878D01*
Y3510502D01*
X9442257Y3511814D01*
X9256134Y3441550D02*
X9256967Y3442383D01*
Y3444049D01*
X9256134Y3444882D01*
X9252801D01*
X9251968Y3444049D01*
Y3442383D01*
X9252801Y3441550D01*
X9256967Y3436551D02*
X9256134Y3438217D01*
X9254468Y3439883D01*
X9252801D01*
X9251968Y3439050D01*
Y3437384D01*
X9252801Y3436551D01*
X9253635D01*
X9254468Y3437384D01*
Y3439883D01*
X9208890Y3441550D02*
X9209723Y3442383D01*
Y3444049D01*
X9208890Y3444882D01*
X9205557D01*
X9204724Y3444049D01*
Y3442383D01*
X9205557Y3441550D01*
X9209723Y3439883D02*
Y3436551D01*
X9208890D01*
X9205557Y3439883D01*
X9204724D01*
X9169520Y3445487D02*
X9170353Y3446320D01*
Y3447986D01*
X9169520Y3448819D01*
X9166187D01*
X9165354Y3447986D01*
Y3446320D01*
X9166187Y3445487D01*
X9169520Y3443820D02*
X9170353Y3442987D01*
Y3441321D01*
X9169520Y3440488D01*
X9168687D01*
X9167853Y3441321D01*
X9167020Y3440488D01*
X9166187D01*
X9165354Y3441321D01*
Y3442987D01*
X9166187Y3443820D01*
X9167020D01*
X9167853Y3442987D01*
X9168687Y3443820D01*
X9169520D01*
X9167853Y3442987D02*
Y3441321D01*
X5035661Y3402179D02*
X5036494Y3403012D01*
Y3404679D01*
X5035661Y3405512D01*
X5032329D01*
X5031496Y3404679D01*
Y3403012D01*
X5032329Y3402179D01*
Y3400513D02*
X5031496Y3399680D01*
Y3398014D01*
X5032329Y3397181D01*
X5035661D01*
X5036494Y3398014D01*
Y3399680D01*
X5035661Y3400513D01*
X5034828D01*
X5033995Y3399680D01*
Y3397181D01*
X5354102Y3790734D02*
X5353269Y3789901D01*
Y3788235D01*
X5354102Y3787402D01*
X5357435D01*
X5358268Y3788235D01*
Y3789901D01*
X5357435Y3790734D01*
X5358268Y3792400D02*
Y3794066D01*
Y3793233D01*
X5353269D01*
X5354102Y3792400D01*
Y3796565D02*
X5353269Y3797398D01*
Y3799064D01*
X5354102Y3799898D01*
X5354935D01*
X5355768Y3799064D01*
Y3798231D01*
Y3799064D01*
X5356601Y3799898D01*
X5357435D01*
X5358268Y3799064D01*
Y3797398D01*
X5357435Y3796565D01*
X5503709Y3790734D02*
X5502876Y3789901D01*
Y3788235D01*
X5503709Y3787402D01*
X5507041D01*
X5507874Y3788235D01*
Y3789901D01*
X5507041Y3790734D01*
X5507874Y3792400D02*
Y3794066D01*
Y3793233D01*
X5502876D01*
X5503709Y3792400D01*
X5507874Y3799064D02*
X5502876D01*
X5505375Y3796565D01*
Y3799898D01*
X5428905Y3790734D02*
X5428072Y3789901D01*
Y3788235D01*
X5428905Y3787402D01*
X5432238D01*
X5433071Y3788235D01*
Y3789901D01*
X5432238Y3790734D01*
X5433071Y3792400D02*
Y3794066D01*
Y3793233D01*
X5428072D01*
X5428905Y3792400D01*
X5428072Y3799898D02*
Y3796565D01*
X5430572D01*
X5429738Y3798231D01*
Y3799064D01*
X5430572Y3799898D01*
X5432238D01*
X5433071Y3799064D01*
Y3797398D01*
X5432238Y3796565D01*
X5578512Y3790734D02*
X5577679Y3789901D01*
Y3788235D01*
X5578512Y3787402D01*
X5581844D01*
X5582677Y3788235D01*
Y3789901D01*
X5581844Y3790734D01*
X5582677Y3792400D02*
Y3794066D01*
Y3793233D01*
X5577679D01*
X5578512Y3792400D01*
X5577679Y3799898D02*
X5578512Y3798231D01*
X5580178Y3796565D01*
X5581844D01*
X5582677Y3797398D01*
Y3799064D01*
X5581844Y3799898D01*
X5581011D01*
X5580178Y3799064D01*
Y3796565D01*
X5512039Y3583282D02*
X5512872Y3584115D01*
Y3585781D01*
X5512039Y3586614D01*
X5508707D01*
X5507874Y3585781D01*
Y3584115D01*
X5508707Y3583282D01*
X5507874Y3581616D02*
Y3579950D01*
Y3580783D01*
X5512872D01*
X5512039Y3581616D01*
X5512872Y3577450D02*
Y3574118D01*
X5512039D01*
X5508707Y3577450D01*
X5507874D01*
X5586386Y3326167D02*
X5585553Y3325334D01*
Y3323668D01*
X5586386Y3322835D01*
X5589718D01*
X5590551Y3323668D01*
Y3325334D01*
X5589718Y3326167D01*
X5590551Y3327833D02*
Y3329499D01*
Y3328666D01*
X5585553D01*
X5586386Y3327833D01*
Y3331998D02*
X5585553Y3332831D01*
Y3334498D01*
X5586386Y3335331D01*
X5587219D01*
X5588052Y3334498D01*
X5588885Y3335331D01*
X5589718D01*
X5590551Y3334498D01*
Y3332831D01*
X5589718Y3331998D01*
X5588885D01*
X5588052Y3332831D01*
X5587219Y3331998D01*
X5586386D01*
X5588052Y3332831D02*
Y3334498D01*
X5507646Y3326167D02*
X5506813Y3325334D01*
Y3323668D01*
X5507646Y3322835D01*
X5510978D01*
X5511811Y3323668D01*
Y3325334D01*
X5510978Y3326167D01*
X5511811Y3327833D02*
Y3329499D01*
Y3328666D01*
X5506813D01*
X5507646Y3327833D01*
X5510978Y3331998D02*
X5511811Y3332831D01*
Y3334498D01*
X5510978Y3335331D01*
X5507646D01*
X5506813Y3334498D01*
Y3332831D01*
X5507646Y3331998D01*
X5508479D01*
X5509312Y3332831D01*
Y3335331D01*
X5428906Y3326167D02*
X5428073Y3325334D01*
Y3323668D01*
X5428906Y3322835D01*
X5432238D01*
X5433071Y3323668D01*
Y3325334D01*
X5432238Y3326167D01*
X5433071Y3331165D02*
Y3327833D01*
X5429739Y3331165D01*
X5428906D01*
X5428073Y3330332D01*
Y3328666D01*
X5428906Y3327833D01*
Y3332831D02*
X5428073Y3333665D01*
Y3335331D01*
X5428906Y3336164D01*
X5432238D01*
X5433071Y3335331D01*
Y3333665D01*
X5432238Y3332831D01*
X5428906D01*
X5354125Y3326167D02*
X5353292Y3325334D01*
Y3323668D01*
X5354125Y3322835D01*
X5357457D01*
X5358290Y3323668D01*
Y3325334D01*
X5357457Y3326167D01*
X5358290Y3331165D02*
Y3327833D01*
X5354958Y3331165D01*
X5354125D01*
X5353292Y3330332D01*
Y3328666D01*
X5354125Y3327833D01*
X5358290Y3332831D02*
Y3334498D01*
Y3333665D01*
X5353292D01*
X5354125Y3332831D01*
X5256156Y3244704D02*
X5256989Y3245537D01*
Y3247203D01*
X5256156Y3248036D01*
X5252824D01*
X5251991Y3247203D01*
Y3245537D01*
X5252824Y3244704D01*
X5251991Y3239706D02*
Y3243038D01*
X5255323Y3239706D01*
X5256156D01*
X5256989Y3240539D01*
Y3242205D01*
X5256156Y3243038D01*
X5251991Y3234707D02*
Y3238039D01*
X5255323Y3234707D01*
X5256156D01*
X5256989Y3235540D01*
Y3237206D01*
X5256156Y3238039D01*
X5153794Y3244704D02*
X5154627Y3245537D01*
Y3247203D01*
X5153794Y3248036D01*
X5150462D01*
X5149629Y3247203D01*
Y3245537D01*
X5150462Y3244704D01*
X5149629Y3239706D02*
Y3243038D01*
X5152961Y3239706D01*
X5153794D01*
X5154627Y3240539D01*
Y3242205D01*
X5153794Y3243038D01*
Y3238039D02*
X5154627Y3237206D01*
Y3235540D01*
X5153794Y3234707D01*
X5152961D01*
X5152128Y3235540D01*
Y3236373D01*
Y3235540D01*
X5151295Y3234707D01*
X5150462D01*
X5149629Y3235540D01*
Y3237206D01*
X5150462Y3238039D01*
X5295047Y3361600D02*
X5294214Y3360767D01*
Y3359101D01*
X5295047Y3358268D01*
X5298380D01*
X5299213Y3359101D01*
Y3360767D01*
X5298380Y3361600D01*
X5299213Y3366598D02*
Y3363266D01*
X5295880Y3366598D01*
X5295047D01*
X5294214Y3365765D01*
Y3364099D01*
X5295047Y3363266D01*
X5299213Y3370764D02*
X5294214D01*
X5296713Y3368265D01*
Y3371597D01*
X5302545Y3586842D02*
X5301712Y3587675D01*
X5300046D01*
X5299213Y3586842D01*
Y3583510D01*
X5300046Y3582677D01*
X5301712D01*
X5302545Y3583510D01*
X5304211Y3586842D02*
X5305044Y3587675D01*
X5306710D01*
X5307543Y3586842D01*
Y3586009D01*
X5306710Y3585176D01*
X5305877D01*
X5306710D01*
X5307543Y3584343D01*
Y3583510D01*
X5306710Y3582677D01*
X5305044D01*
X5304211Y3583510D01*
X5312542Y3582677D02*
X5309209D01*
X5312542Y3586009D01*
Y3586842D01*
X5311709Y3587675D01*
X5310042D01*
X5309209Y3586842D01*
X5377724Y3542702D02*
X5376891Y3541869D01*
Y3540203D01*
X5377724Y3539370D01*
X5381057D01*
X5381890Y3540203D01*
Y3541869D01*
X5381057Y3542702D01*
X5377724Y3544369D02*
X5376891Y3545202D01*
Y3546868D01*
X5377724Y3547701D01*
X5378557D01*
X5379391Y3546868D01*
Y3546035D01*
Y3546868D01*
X5380224Y3547701D01*
X5381057D01*
X5381890Y3546868D01*
Y3545202D01*
X5381057Y3544369D01*
X5377724Y3549367D02*
X5376891Y3550200D01*
Y3551866D01*
X5377724Y3552699D01*
X5378557D01*
X5379391Y3551866D01*
Y3551033D01*
Y3551866D01*
X5380224Y3552699D01*
X5381057D01*
X5381890Y3551866D01*
Y3550200D01*
X5381057Y3549367D01*
X2862438Y3012416D02*
X2863271Y3013249D01*
Y3014915D01*
X2862438Y3015748D01*
X2859106D01*
X2858273Y3014915D01*
Y3013249D01*
X2859106Y3012416D01*
X2858273Y3010749D02*
Y3009083D01*
Y3009916D01*
X2863271D01*
X2862438Y3010749D01*
Y3006584D02*
X2863271Y3005751D01*
Y3004085D01*
X2862438Y3003252D01*
X2859106D01*
X2858273Y3004085D01*
Y3005751D01*
X2859106Y3006584D01*
X2862438D01*
X2858273Y3001586D02*
Y2999920D01*
Y3000753D01*
X2863271D01*
X2862438Y3001586D01*
X2908850Y2862433D02*
X2908017Y2863266D01*
X2906350D01*
X2905517Y2862433D01*
Y2859101D01*
X2906350Y2858268D01*
X2908017D01*
X2908850Y2859101D01*
X2910516Y2858268D02*
X2912182D01*
X2911349D01*
Y2863266D01*
X2910516Y2862433D01*
X2914681D02*
X2915514Y2863266D01*
X2917180D01*
X2918013Y2862433D01*
Y2859101D01*
X2917180Y2858268D01*
X2915514D01*
X2914681Y2859101D01*
Y2862433D01*
X2923012Y2858268D02*
X2919679D01*
X2923012Y2861600D01*
Y2862433D01*
X2922179Y2863266D01*
X2920512D01*
X2919679Y2862433D01*
X6095803Y3800523D02*
X6094491Y3799211D01*
Y3796588D01*
X6095803Y3795276D01*
X6101050D01*
X6102362Y3796588D01*
Y3799211D01*
X6101050Y3800523D01*
X6102362Y3803147D02*
Y3805771D01*
Y3804459D01*
X6094491D01*
X6095803Y3803147D01*
Y3809707D02*
X6094491Y3811019D01*
Y3813642D01*
X6095803Y3814954D01*
X6101050D01*
X6102362Y3813642D01*
Y3811019D01*
X6101050Y3809707D01*
X6095803D01*
X6094491Y3822826D02*
Y3817578D01*
X6098426D01*
X6097114Y3820202D01*
Y3821514D01*
X6098426Y3822826D01*
X6101050D01*
X6102362Y3821514D01*
Y3818890D01*
X6101050Y3817578D01*
X6196622Y3782860D02*
X6195789Y3782027D01*
Y3780361D01*
X6196622Y3779528D01*
X6199954D01*
X6200787Y3780361D01*
Y3782027D01*
X6199954Y3782860D01*
X6200787Y3784526D02*
Y3786192D01*
Y3785359D01*
X6195789D01*
X6196622Y3784526D01*
Y3788691D02*
X6195789Y3789524D01*
Y3791191D01*
X6196622Y3792024D01*
X6199954D01*
X6200787Y3791191D01*
Y3789524D01*
X6199954Y3788691D01*
X6196622D01*
X6195789Y3797022D02*
X6196622Y3795356D01*
X6198288Y3793690D01*
X6199954D01*
X6200787Y3794523D01*
Y3796189D01*
X6199954Y3797022D01*
X6199121D01*
X6198288Y3796189D01*
Y3793690D01*
X6255677Y3782860D02*
X6254844Y3782027D01*
Y3780361D01*
X6255677Y3779528D01*
X6259009D01*
X6259842Y3780361D01*
Y3782027D01*
X6259009Y3782860D01*
X6259842Y3784526D02*
Y3786192D01*
Y3785359D01*
X6254844D01*
X6255677Y3784526D01*
Y3788691D02*
X6254844Y3789524D01*
Y3791191D01*
X6255677Y3792024D01*
X6259009D01*
X6259842Y3791191D01*
Y3789524D01*
X6259009Y3788691D01*
X6255677D01*
X6254844Y3793690D02*
Y3797022D01*
X6255677D01*
X6259009Y3793690D01*
X6259842D01*
X4696246Y2665583D02*
X4695413Y2666416D01*
X4693747D01*
X4692913Y2665583D01*
Y2662251D01*
X4693747Y2661417D01*
X4695413D01*
X4696246Y2662251D01*
X4697912Y2661417D02*
X4699578D01*
X4698745D01*
Y2666416D01*
X4697912Y2665583D01*
X4702077Y2661417D02*
X4703743D01*
X4702910D01*
Y2666416D01*
X4702077Y2665583D01*
X4706242D02*
X4707075Y2666416D01*
X4708742D01*
X4709575Y2665583D01*
Y2662251D01*
X4708742Y2661417D01*
X4707075D01*
X4706242Y2662251D01*
Y2665583D01*
X4696246Y2484480D02*
X4695413Y2485313D01*
X4693747D01*
X4692913Y2484480D01*
Y2481148D01*
X4693747Y2480315D01*
X4695413D01*
X4696246Y2481148D01*
X4697912Y2480315D02*
X4699578D01*
X4698745D01*
Y2485313D01*
X4697912Y2484480D01*
X4702077Y2480315D02*
X4703743D01*
X4702910D01*
Y2485313D01*
X4702077Y2484480D01*
X4706242Y2480315D02*
X4707908D01*
X4707075D01*
Y2485313D01*
X4706242Y2484480D01*
X5700183Y3280740D02*
X5699350Y3281573D01*
X5697684D01*
X5696850Y3280740D01*
Y3277408D01*
X5697684Y3276575D01*
X5699350D01*
X5700183Y3277408D01*
X5705181Y3276575D02*
X5701849D01*
X5705181Y3279907D01*
Y3280740D01*
X5704348Y3281573D01*
X5702682D01*
X5701849Y3280740D01*
X5710180Y3276575D02*
X5706847D01*
X5710180Y3279907D01*
Y3280740D01*
X5709346Y3281573D01*
X5707680D01*
X5706847Y3280740D01*
X5715178Y3276575D02*
X5711846D01*
X5715178Y3279907D01*
Y3280740D01*
X5714345Y3281573D01*
X5712679D01*
X5711846Y3280740D01*
X5700183Y3245307D02*
X5699350Y3246140D01*
X5697684D01*
X5696850Y3245307D01*
Y3241975D01*
X5697684Y3241142D01*
X5699350D01*
X5700183Y3241975D01*
X5705181Y3241142D02*
X5701849D01*
X5705181Y3244474D01*
Y3245307D01*
X5704348Y3246140D01*
X5702682D01*
X5701849Y3245307D01*
X5710180Y3241142D02*
X5706847D01*
X5710180Y3244474D01*
Y3245307D01*
X5709346Y3246140D01*
X5707680D01*
X5706847Y3245307D01*
X5711846D02*
X5712679Y3246140D01*
X5714345D01*
X5715178Y3245307D01*
Y3244474D01*
X5714345Y3243641D01*
X5713512D01*
X5714345D01*
X5715178Y3242808D01*
Y3241975D01*
X5714345Y3241142D01*
X5712679D01*
X5711846Y3241975D01*
X5570261Y3130150D02*
X5569428Y3130983D01*
X5567762D01*
X5566929Y3130150D01*
Y3126817D01*
X5567762Y3125984D01*
X5569428D01*
X5570261Y3126817D01*
X5575260Y3125984D02*
X5571928D01*
X5575260Y3129317D01*
Y3130150D01*
X5574427Y3130983D01*
X5572761D01*
X5571928Y3130150D01*
X5580258Y3125984D02*
X5576926D01*
X5580258Y3129317D01*
Y3130150D01*
X5579425Y3130983D01*
X5577759D01*
X5576926Y3130150D01*
X5584424Y3125984D02*
Y3130983D01*
X5581924Y3128483D01*
X5585257D01*
X5570261Y3094716D02*
X5569428Y3095550D01*
X5567762D01*
X5566929Y3094716D01*
Y3091384D01*
X5567762Y3090551D01*
X5569428D01*
X5570261Y3091384D01*
X5575260Y3090551D02*
X5571928D01*
X5575260Y3093883D01*
Y3094716D01*
X5574427Y3095550D01*
X5572761D01*
X5571928Y3094716D01*
X5580258Y3090551D02*
X5576926D01*
X5580258Y3093883D01*
Y3094716D01*
X5579425Y3095550D01*
X5577759D01*
X5576926Y3094716D01*
X5585257Y3095550D02*
X5581924D01*
Y3093050D01*
X5583591Y3093883D01*
X5584424D01*
X5585257Y3093050D01*
Y3091384D01*
X5584424Y3090551D01*
X5582757D01*
X5581924Y3091384D01*
X5616566Y2866551D02*
X5615388D01*
X5614210Y2865373D01*
Y2864195D01*
X5616566Y2861839D01*
X5617744D01*
X5618922Y2863017D01*
Y2864195D01*
X5623046Y2867140D02*
X5620689Y2864784D01*
Y2869497D01*
X5620100Y2870086D01*
X5618922D01*
X5617744Y2868907D01*
Y2867729D01*
X5626580Y2870675D02*
X5624224Y2868318D01*
Y2873031D01*
X5623635Y2873620D01*
X5622457D01*
X5621279Y2872442D01*
Y2871264D01*
X5626580Y2877743D02*
X5625991Y2875976D01*
Y2873620D01*
X5627169Y2872442D01*
X5628347D01*
X5629525Y2873620D01*
Y2874798D01*
X5628936Y2875387D01*
X5627758D01*
X5625991Y2873620D01*
X5648062Y2835055D02*
X5646884D01*
X5645706Y2833877D01*
Y2832699D01*
X5648062Y2830343D01*
X5649240D01*
X5650418Y2831521D01*
Y2832699D01*
X5654542Y2835644D02*
X5652185Y2833288D01*
Y2838000D01*
X5651596Y2838589D01*
X5650418D01*
X5649240Y2837411D01*
Y2836233D01*
X5658076Y2839178D02*
X5655720Y2836822D01*
Y2841535D01*
X5655131Y2842124D01*
X5653953D01*
X5652775Y2840946D01*
Y2839767D01*
X5655720Y2843891D02*
X5658076Y2846247D01*
X5658665Y2845658D01*
X5658665Y2840946D01*
X5659254Y2840357D01*
X5712038Y2763205D02*
X5710860D01*
X5709682Y2762026D01*
Y2760848D01*
X5712038Y2758492D01*
X5713217D01*
X5714395Y2759670D01*
Y2760848D01*
X5718518Y2763794D02*
X5716162Y2761437D01*
Y2766150D01*
X5715573Y2766739D01*
X5714395D01*
X5713217Y2765561D01*
Y2764383D01*
X5722052Y2767328D02*
X5719696Y2764972D01*
Y2769684D01*
X5719107Y2770273D01*
X5717929D01*
X5716751Y2769095D01*
Y2767917D01*
X5722641Y2769095D02*
X5723820D01*
X5724998Y2770273D01*
Y2771452D01*
X5722642Y2773808D01*
X5721463D01*
X5720285Y2772630D01*
Y2771452D01*
X5720874Y2770863D01*
X5722052D01*
X5723820Y2772630D01*
X5743534Y2731709D02*
X5742356D01*
X5741178Y2730530D01*
Y2729352D01*
X5743534Y2726996D01*
X5744713D01*
X5745891Y2728174D01*
Y2729352D01*
X5750014Y2732298D02*
X5747658Y2729941D01*
Y2734654D01*
X5747069Y2735243D01*
X5745891D01*
X5744713Y2734065D01*
Y2732887D01*
X5748247Y2736421D02*
Y2737599D01*
X5749425Y2738777D01*
X5750603D01*
X5751192Y2738188D01*
Y2737010D01*
X5750603Y2736421D01*
X5751192Y2737010D01*
X5752370D01*
X5752959Y2736421D01*
Y2735243D01*
X5751781Y2734065D01*
X5750603D01*
X5754727Y2737010D02*
X5755905Y2738188D01*
X5755316Y2737599D01*
X5751781Y2741134D01*
Y2739955D01*
X6006330Y3260252D02*
X6005151D01*
X6003973Y3259074D01*
Y3257896D01*
X6006330Y3255539D01*
X6007508D01*
X6008686Y3256717D01*
Y3257896D01*
X6012809Y3260841D02*
X6010453Y3258485D01*
Y3263197D01*
X6009864Y3263786D01*
X6008686D01*
X6007508Y3262608D01*
Y3261430D01*
X6011042Y3264964D02*
Y3266142D01*
X6012220Y3267321D01*
X6013399D01*
X6013988Y3266732D01*
Y3265553D01*
X6013398Y3264964D01*
X6013988Y3265553D01*
X6015166D01*
X6015755Y3264964D01*
Y3263786D01*
X6014577Y3262608D01*
X6013398D01*
X6019878Y3267910D02*
X6017522Y3265553D01*
Y3270266D01*
X6016933Y3270855D01*
X6015755D01*
X6014577Y3269677D01*
Y3268499D01*
X6116566Y3150016D02*
X6115388D01*
X6114210Y3148838D01*
Y3147659D01*
X6116566Y3145303D01*
X6117744D01*
X6118922Y3146481D01*
Y3147660D01*
X6123046Y3150605D02*
X6120689Y3148249D01*
Y3152961D01*
X6120100Y3153550D01*
X6118922D01*
X6117744Y3152372D01*
Y3151194D01*
X6121278Y3154728D02*
Y3155906D01*
X6122457Y3157084D01*
X6123635D01*
X6124224Y3156495D01*
Y3155317D01*
X6123635Y3154728D01*
X6124224Y3155317D01*
X6125402D01*
X6125991Y3154728D01*
Y3153550D01*
X6124813Y3152372D01*
X6123635D01*
X6124813Y3158263D02*
Y3159441D01*
X6125991Y3160619D01*
X6127169D01*
X6127758Y3160030D01*
Y3158852D01*
X6127169Y3158263D01*
X6127758Y3158852D01*
X6128936D01*
X6129525Y3158263D01*
Y3157084D01*
X6128347Y3155906D01*
X6127169D01*
X4264430Y3038062D02*
X4267710Y3041342D01*
Y3047901D01*
X4264430Y3051181D01*
X4251311D01*
X4248032Y3047901D01*
Y3041342D01*
X4251311Y3038062D01*
X4267710Y3021663D02*
Y3028223D01*
X4264430Y3031503D01*
X4251311D01*
X4248032Y3028223D01*
Y3021663D01*
X4251311Y3018383D01*
X4264430D01*
X4267710Y3021663D01*
X4264430Y3011824D02*
X4267710Y3008544D01*
Y3001985D01*
X4264430Y2998705D01*
X4261151D01*
X4257871Y3001985D01*
Y3005264D01*
Y3001985D01*
X4254591Y2998705D01*
X4251311D01*
X4248032Y3001985D01*
Y3008544D01*
X4251311Y3011824D01*
X4264430Y2992145D02*
X4267710Y2988865D01*
Y2982306D01*
X4264430Y2979026D01*
X4251311D01*
X4248032Y2982306D01*
Y2988865D01*
X4251311Y2992145D01*
X4264430D01*
X4248032Y2972467D02*
Y2965907D01*
Y2969187D01*
X4267710D01*
X4264430Y2972467D01*
X2568898Y3018624D02*
Y3023622D01*
X2566398D01*
X2565565Y3022789D01*
Y3019457D01*
X2566398Y3018624D01*
X2568898D01*
X2563899Y3023622D02*
X2562233D01*
X2563066D01*
Y3018624D01*
X2563899Y3019457D01*
X2559734D02*
X2558901Y3018624D01*
X2557235D01*
X2556402Y3019457D01*
Y3022789D01*
X2557235Y3023622D01*
X2558901D01*
X2559734Y3022789D01*
Y3019457D01*
X2554736Y3023622D02*
X2553070D01*
X2553903D01*
Y3018624D01*
X2554736Y3019457D01*
X3410356Y2500984D02*
X3415354D01*
Y2503483D01*
X3414521Y2504316D01*
X3411189D01*
X3410356Y2503483D01*
Y2500984D01*
X3415354Y2505983D02*
Y2507649D01*
Y2506816D01*
X3410356D01*
X3411189Y2505983D01*
Y2510148D02*
X3410356Y2510981D01*
Y2512647D01*
X3411189Y2513480D01*
X3414521D01*
X3415354Y2512647D01*
Y2510981D01*
X3414521Y2510148D01*
X3411189D01*
X3415354Y2518479D02*
Y2515146D01*
X3412022Y2518479D01*
X3411189D01*
X3410356Y2517646D01*
Y2515979D01*
X3411189Y2515146D01*
X6872047Y2419369D02*
Y2414370D01*
X6874546D01*
X6875380Y2415203D01*
Y2418535D01*
X6874546Y2419369D01*
X6872047D01*
X6877046Y2414370D02*
X6878712D01*
X6877879D01*
Y2419369D01*
X6877046Y2418535D01*
X6881211D02*
X6882044Y2419369D01*
X6883710D01*
X6884543Y2418535D01*
Y2415203D01*
X6883710Y2414370D01*
X6882044D01*
X6881211Y2415203D01*
Y2418535D01*
X6886209D02*
X6887042Y2419369D01*
X6888708D01*
X6889542Y2418535D01*
Y2417702D01*
X6888708Y2416869D01*
X6887875D01*
X6888708D01*
X6889542Y2416036D01*
Y2415203D01*
X6888708Y2414370D01*
X6887042D01*
X6886209Y2415203D01*
X2568898Y3097364D02*
Y3102362D01*
X2566398D01*
X2565565Y3101529D01*
Y3098197D01*
X2566398Y3097364D01*
X2568898D01*
X2563899Y3102362D02*
X2562233D01*
X2563066D01*
Y3097364D01*
X2563899Y3098197D01*
X2559734D02*
X2558901Y3097364D01*
X2557235D01*
X2556402Y3098197D01*
Y3101529D01*
X2557235Y3102362D01*
X2558901D01*
X2559734Y3101529D01*
Y3098197D01*
X2552236Y3102362D02*
Y3097364D01*
X2554736Y3099863D01*
X2551403D01*
X6549212Y3859329D02*
Y3854331D01*
X6551712D01*
X6552545Y3855164D01*
Y3858496D01*
X6551712Y3859329D01*
X6549212D01*
X6554211Y3854331D02*
X6555877D01*
X6555044D01*
Y3859329D01*
X6554211Y3858496D01*
X6558376D02*
X6559209Y3859329D01*
X6560875D01*
X6561708Y3858496D01*
Y3855164D01*
X6560875Y3854331D01*
X6559209D01*
X6558376Y3855164D01*
Y3858496D01*
X6566707Y3859329D02*
X6563375D01*
Y3856830D01*
X6565041Y3857663D01*
X6565874D01*
X6566707Y3856830D01*
Y3855164D01*
X6565874Y3854331D01*
X6564208D01*
X6563375Y3855164D01*
X2568898Y3176104D02*
Y3181102D01*
X2566398D01*
X2565565Y3180269D01*
Y3176937D01*
X2566398Y3176104D01*
X2568898D01*
X2563899Y3181102D02*
X2562233D01*
X2563066D01*
Y3176104D01*
X2563899Y3176937D01*
X2559734D02*
X2558901Y3176104D01*
X2557235D01*
X2556402Y3176937D01*
Y3180269D01*
X2557235Y3181102D01*
X2558901D01*
X2559734Y3180269D01*
Y3176937D01*
X2551403Y3176104D02*
X2553070Y3176937D01*
X2554736Y3178603D01*
Y3180269D01*
X2553903Y3181102D01*
X2552236D01*
X2551403Y3180269D01*
Y3179436D01*
X2552236Y3178603D01*
X2554736D01*
X7769685Y2760904D02*
Y2755905D01*
X7772184D01*
X7773017Y2756739D01*
Y2760071D01*
X7772184Y2760904D01*
X7769685D01*
X7778016Y2755905D02*
X7774683D01*
X7778016Y2759238D01*
Y2760071D01*
X7777183Y2760904D01*
X7775516D01*
X7774683Y2760071D01*
X7779682D02*
X7780515Y2760904D01*
X7782181D01*
X7783014Y2760071D01*
Y2756739D01*
X7782181Y2755905D01*
X7780515D01*
X7779682Y2756739D01*
Y2760071D01*
X7784680Y2755905D02*
X7786346D01*
X7785513D01*
Y2760904D01*
X7784680Y2760071D01*
X7769685Y2682164D02*
Y2677165D01*
X7772184D01*
X7773017Y2677999D01*
Y2681331D01*
X7772184Y2682164D01*
X7769685D01*
X7778016Y2677165D02*
X7774683D01*
X7778016Y2680498D01*
Y2681331D01*
X7777183Y2682164D01*
X7775516D01*
X7774683Y2681331D01*
X7779682D02*
X7780515Y2682164D01*
X7782181D01*
X7783014Y2681331D01*
Y2677999D01*
X7782181Y2677165D01*
X7780515D01*
X7779682Y2677999D01*
Y2681331D01*
X7788012Y2677165D02*
X7784680D01*
X7788012Y2680498D01*
Y2681331D01*
X7787179Y2682164D01*
X7785513D01*
X7784680Y2681331D01*
X7769685Y2603424D02*
Y2598425D01*
X7772184D01*
X7773017Y2599258D01*
Y2602590D01*
X7772184Y2603424D01*
X7769685D01*
X7778016Y2598425D02*
X7774683D01*
X7778016Y2601758D01*
Y2602590D01*
X7777183Y2603424D01*
X7775516D01*
X7774683Y2602590D01*
X7779682D02*
X7780515Y2603424D01*
X7782181D01*
X7783014Y2602590D01*
Y2599258D01*
X7782181Y2598425D01*
X7780515D01*
X7779682Y2599258D01*
Y2602590D01*
X7784680D02*
X7785513Y2603424D01*
X7787179D01*
X7788012Y2602590D01*
Y2601758D01*
X7787179Y2600924D01*
X7786346D01*
X7787179D01*
X7788012Y2600091D01*
Y2599258D01*
X7787179Y2598425D01*
X7785513D01*
X7784680Y2599258D01*
X2927165Y2977439D02*
X2928831D01*
X2927998D01*
Y2972441D01*
X2927165D01*
X2928831D01*
X2934663Y2976606D02*
X2933830Y2977439D01*
X2932164D01*
X2931331Y2976606D01*
Y2973274D01*
X2932164Y2972441D01*
X2933830D01*
X2934663Y2973274D01*
X2936329Y2972441D02*
X2937995D01*
X2937162D01*
Y2977439D01*
X2936329Y2976606D01*
X2940494D02*
X2941327Y2977439D01*
X2942994D01*
X2943827Y2976606D01*
Y2973274D01*
X2942994Y2972441D01*
X2941327D01*
X2940494Y2973274D01*
Y2976606D01*
X2945493Y2972441D02*
X2947159D01*
X2946326D01*
Y2977439D01*
X2945493Y2976606D01*
X7801184Y3650260D02*
Y3646981D01*
Y3648620D01*
X7809384D01*
X7811024Y3646981D01*
Y3645341D01*
X7809384Y3643701D01*
X7811024Y3653540D02*
Y3656820D01*
Y3655180D01*
X7801184D01*
X7802824Y3653540D01*
Y3661740D02*
X7801184Y3663379D01*
Y3666659D01*
X7802824Y3668299D01*
X7809384D01*
X7811024Y3666659D01*
Y3663379D01*
X7809384Y3661740D01*
X7802824D01*
X7811024Y3671579D02*
Y3674859D01*
Y3673219D01*
X7801184D01*
X7802824Y3671579D01*
X7834249Y3743441D02*
Y3746720D01*
Y3745080D01*
X7826049D01*
X7824409Y3746720D01*
Y3748360D01*
X7826049Y3750000D01*
X7824409Y3740161D02*
Y3736881D01*
Y3738521D01*
X7834249D01*
X7832609Y3740161D01*
Y3731961D02*
X7834249Y3730321D01*
Y3727042D01*
X7832609Y3725402D01*
X7826049D01*
X7824409Y3727042D01*
Y3730321D01*
X7826049Y3731961D01*
X7832609D01*
X7824409Y3715562D02*
Y3722122D01*
X7830969Y3715562D01*
X7832609D01*
X7834249Y3717202D01*
Y3720482D01*
X7832609Y3722122D01*
X7934249Y3743441D02*
Y3746720D01*
Y3745080D01*
X7926049D01*
X7924409Y3746720D01*
Y3748360D01*
X7926049Y3750000D01*
X7924409Y3740161D02*
Y3736881D01*
Y3738521D01*
X7934249D01*
X7932609Y3740161D01*
Y3731961D02*
X7934249Y3730321D01*
Y3727042D01*
X7932609Y3725402D01*
X7926049D01*
X7924409Y3727042D01*
Y3730321D01*
X7926049Y3731961D01*
X7932609D01*
Y3722122D02*
X7934249Y3720482D01*
Y3717202D01*
X7932609Y3715562D01*
X7930969D01*
X7929329Y3717202D01*
Y3718842D01*
Y3717202D01*
X7927689Y3715562D01*
X7926049D01*
X7924409Y3717202D01*
Y3720482D01*
X7926049Y3722122D01*
X9212598Y3637795D02*
X9207600D01*
Y3640294D01*
X9208433Y3641128D01*
X9210099D01*
X9210932Y3640294D01*
Y3637795D01*
Y3639461D02*
X9212598Y3641128D01*
X9208433Y3642794D02*
X9207600Y3643627D01*
Y3645293D01*
X9208433Y3646126D01*
X9209266D01*
X9210099Y3645293D01*
Y3644460D01*
Y3645293D01*
X9210932Y3646126D01*
X9211765D01*
X9212598Y3645293D01*
Y3643627D01*
X9211765Y3642794D01*
X5031496Y3511811D02*
X5026498D01*
Y3514310D01*
X5027331Y3515143D01*
X5028997D01*
X5029830Y3514310D01*
Y3511811D01*
Y3513477D02*
X5031496Y3515143D01*
X5026498Y3520142D02*
Y3516809D01*
X5028997D01*
X5028164Y3518476D01*
Y3519309D01*
X5028997Y3520142D01*
X5030663D01*
X5031496Y3519309D01*
Y3517642D01*
X5030663Y3516809D01*
X5460630Y3539370D02*
X5455632D01*
Y3541869D01*
X5456465Y3542702D01*
X5458131D01*
X5458964Y3541869D01*
Y3539370D01*
Y3541036D02*
X5460630Y3542702D01*
X5455632Y3547701D02*
X5456465Y3546035D01*
X5458131Y3544369D01*
X5459797D01*
X5460630Y3545202D01*
Y3546868D01*
X5459797Y3547701D01*
X5458964D01*
X5458131Y3546868D01*
Y3544369D01*
X5346457Y3543307D02*
Y3538309D01*
X5343957D01*
X5343124Y3539142D01*
Y3540808D01*
X5343957Y3541641D01*
X5346457D01*
X5344791D02*
X5343124Y3543307D01*
X5341458Y3539142D02*
X5340625Y3538309D01*
X5338959D01*
X5338126Y3539142D01*
Y3539975D01*
X5338959Y3540808D01*
X5338126Y3541641D01*
Y3542474D01*
X5338959Y3543307D01*
X5340625D01*
X5341458Y3542474D01*
Y3541641D01*
X5340625Y3540808D01*
X5341458Y3539975D01*
Y3539142D01*
X5340625Y3540808D02*
X5338959D01*
X5299213Y3460630D02*
X5294214D01*
Y3463129D01*
X5295047Y3463962D01*
X5296713D01*
X5297547Y3463129D01*
Y3460630D01*
Y3462296D02*
X5299213Y3463962D01*
Y3465628D02*
Y3467294D01*
Y3466461D01*
X5294214D01*
X5295047Y3465628D01*
X5299213Y3469794D02*
Y3471460D01*
Y3470627D01*
X5294214D01*
X5295047Y3469794D01*
X2929139Y3078740D02*
Y3083738D01*
X2931639D01*
X2932472Y3082905D01*
Y3081239D01*
X2931639Y3080406D01*
X2929139D01*
X2930805D02*
X2932472Y3078740D01*
X2934138D02*
X2935804D01*
X2934971D01*
Y3083738D01*
X2934138Y3082905D01*
X2938303D02*
X2939136Y3083738D01*
X2940802D01*
X2941635Y3082905D01*
Y3079573D01*
X2940802Y3078740D01*
X2939136D01*
X2938303Y3079573D01*
Y3082905D01*
X2943301Y3078740D02*
X2944968D01*
X2944135D01*
Y3083738D01*
X2943301Y3082905D01*
X2673228Y3023622D02*
Y3028620D01*
X2675728D01*
X2676561Y3027787D01*
Y3026121D01*
X2675728Y3025288D01*
X2673228D01*
X2674894D02*
X2676561Y3023622D01*
X2678227D02*
X2679893D01*
X2679060D01*
Y3028620D01*
X2678227Y3027787D01*
X2682392D02*
X2683225Y3028620D01*
X2684891D01*
X2685724Y3027787D01*
Y3024455D01*
X2684891Y3023622D01*
X2683225D01*
X2682392Y3024455D01*
Y3027787D01*
X2690723Y3023622D02*
X2687390D01*
X2690723Y3026954D01*
Y3027787D01*
X2689890Y3028620D01*
X2688224D01*
X2687390Y3027787D01*
X3415354Y2357284D02*
X3410356D01*
Y2359783D01*
X3411189Y2360616D01*
X3412855D01*
X3413688Y2359783D01*
Y2357284D01*
Y2358950D02*
X3415354Y2360616D01*
Y2362282D02*
Y2363948D01*
Y2363115D01*
X3410356D01*
X3411189Y2362282D01*
Y2366447D02*
X3410356Y2367280D01*
Y2368946D01*
X3411189Y2369780D01*
X3414521D01*
X3415354Y2368946D01*
Y2367280D01*
X3414521Y2366447D01*
X3411189D01*
Y2371446D02*
X3410356Y2372279D01*
Y2373945D01*
X3411189Y2374778D01*
X3412022D01*
X3412855Y2373945D01*
Y2373112D01*
Y2373945D01*
X3413688Y2374778D01*
X3414521D01*
X3415354Y2373945D01*
Y2372279D01*
X3414521Y2371446D01*
X6314961Y3440945D02*
X6309962D01*
Y3443444D01*
X6310795Y3444277D01*
X6312461D01*
X6313294Y3443444D01*
Y3440945D01*
Y3442611D02*
X6314961Y3444277D01*
Y3445943D02*
Y3447609D01*
Y3446776D01*
X6309962D01*
X6310795Y3445943D01*
Y3450109D02*
X6309962Y3450942D01*
Y3452608D01*
X6310795Y3453441D01*
X6314127D01*
X6314961Y3452608D01*
Y3450942D01*
X6314127Y3450109D01*
X6310795D01*
X6314961Y3457606D02*
X6309962D01*
X6312461Y3455107D01*
Y3458439D01*
X6283465Y3440945D02*
X6278466D01*
Y3443444D01*
X6279299Y3444277D01*
X6280965D01*
X6281798Y3443444D01*
Y3440945D01*
Y3442611D02*
X6283465Y3444277D01*
Y3445943D02*
Y3447609D01*
Y3446776D01*
X6278466D01*
X6279299Y3445943D01*
Y3450109D02*
X6278466Y3450942D01*
Y3452608D01*
X6279299Y3453441D01*
X6282632D01*
X6283465Y3452608D01*
Y3450942D01*
X6282632Y3450109D01*
X6279299D01*
X6278466Y3458439D02*
Y3455107D01*
X6280965D01*
X6280132Y3456773D01*
Y3457606D01*
X6280965Y3458439D01*
X6282632D01*
X6283465Y3457606D01*
Y3455940D01*
X6282632Y3455107D01*
X6035433Y3669291D02*
Y3664293D01*
X6032934D01*
X6032101Y3665126D01*
Y3666792D01*
X6032934Y3667625D01*
X6035433D01*
X6033767D02*
X6032101Y3669291D01*
X6030435D02*
X6028769D01*
X6029601D01*
Y3664293D01*
X6030435Y3665126D01*
X6026269D02*
X6025436Y3664293D01*
X6023770D01*
X6022937Y3665126D01*
Y3668458D01*
X6023770Y3669291D01*
X6025436D01*
X6026269Y3668458D01*
Y3665126D01*
X6017939Y3664293D02*
X6019605Y3665126D01*
X6021271Y3666792D01*
Y3668458D01*
X6020438Y3669291D01*
X6018772D01*
X6017939Y3668458D01*
Y3667625D01*
X6018772Y3666792D01*
X6021271D01*
X6283465Y3381890D02*
Y3386888D01*
X6285964D01*
X6286797Y3386055D01*
Y3384389D01*
X6285964Y3383556D01*
X6283465D01*
X6285131D02*
X6286797Y3381890D01*
X6288463D02*
X6290129D01*
X6289296D01*
Y3386888D01*
X6288463Y3386055D01*
X6292628D02*
X6293461Y3386888D01*
X6295127D01*
X6295961Y3386055D01*
Y3382723D01*
X6295127Y3381890D01*
X6293461D01*
X6292628Y3382723D01*
Y3386055D01*
X6297627Y3386888D02*
X6300959D01*
Y3386055D01*
X6297627Y3382723D01*
Y3381890D01*
X2712598Y3102362D02*
Y3097364D01*
X2710099D01*
X2709266Y3098197D01*
Y3099863D01*
X2710099Y3100696D01*
X2712598D01*
X2710932D02*
X2709266Y3102362D01*
X2707600D02*
X2705934D01*
X2706767D01*
Y3097364D01*
X2707600Y3098197D01*
X2703435D02*
X2702602Y3097364D01*
X2700936D01*
X2700102Y3098197D01*
Y3101529D01*
X2700936Y3102362D01*
X2702602D01*
X2703435Y3101529D01*
Y3098197D01*
X2698436D02*
X2697603Y3097364D01*
X2695937D01*
X2695104Y3098197D01*
Y3099030D01*
X2695937Y3099863D01*
X2695104Y3100696D01*
Y3101529D01*
X2695937Y3102362D01*
X2697603D01*
X2698436Y3101529D01*
Y3100696D01*
X2697603Y3099863D01*
X2698436Y3099030D01*
Y3098197D01*
X2697603Y3099863D02*
X2695937D01*
X6539370Y3775591D02*
Y3780589D01*
X6541869D01*
X6542702Y3779756D01*
Y3778090D01*
X6541869Y3777257D01*
X6539370D01*
X6541036D02*
X6542702Y3775591D01*
X6544368D02*
X6546035D01*
X6545202D01*
Y3780589D01*
X6544368Y3779756D01*
X6548534D02*
X6549367Y3780589D01*
X6551033D01*
X6551866Y3779756D01*
Y3776424D01*
X6551033Y3775591D01*
X6549367D01*
X6548534Y3776424D01*
Y3779756D01*
X6553532Y3776424D02*
X6554365Y3775591D01*
X6556031D01*
X6556864Y3776424D01*
Y3779756D01*
X6556031Y3780589D01*
X6554365D01*
X6553532Y3779756D01*
Y3778923D01*
X6554365Y3778090D01*
X6556864D01*
X2712598Y3181102D02*
Y3176104D01*
X2710099D01*
X2709266Y3176937D01*
Y3178603D01*
X2710099Y3179436D01*
X2712598D01*
X2710932D02*
X2709266Y3181102D01*
X2707600D02*
X2705934D01*
X2706767D01*
Y3176104D01*
X2707600Y3176937D01*
X2703435Y3181102D02*
X2701769D01*
X2702602D01*
Y3176104D01*
X2703435Y3176937D01*
X2699269D02*
X2698436Y3176104D01*
X2696770D01*
X2695937Y3176937D01*
Y3180269D01*
X2696770Y3181102D01*
X2698436D01*
X2699269Y3180269D01*
Y3176937D01*
X6275591Y3149606D02*
Y3154605D01*
X6278090D01*
X6278923Y3153772D01*
Y3152106D01*
X6278090Y3151272D01*
X6275591D01*
X6277257D02*
X6278923Y3149606D01*
X6283921D02*
X6280589D01*
X6283921Y3152939D01*
Y3153772D01*
X6283088Y3154605D01*
X6281422D01*
X6280589Y3153772D01*
X6285587D02*
X6286421Y3154605D01*
X6288087D01*
X6288920Y3153772D01*
Y3150439D01*
X6288087Y3149606D01*
X6286421D01*
X6285587Y3150439D01*
Y3153772D01*
X6290586Y3149606D02*
X6292252D01*
X6291419D01*
Y3154605D01*
X6290586Y3153772D01*
X6275591Y3070866D02*
Y3075865D01*
X6278090D01*
X6278923Y3075031D01*
Y3073365D01*
X6278090Y3072532D01*
X6275591D01*
X6277257D02*
X6278923Y3070866D01*
X6283921D02*
X6280589D01*
X6283921Y3074198D01*
Y3075031D01*
X6283088Y3075865D01*
X6281422D01*
X6280589Y3075031D01*
X6285587D02*
X6286421Y3075865D01*
X6288087D01*
X6288920Y3075031D01*
Y3071699D01*
X6288087Y3070866D01*
X6286421D01*
X6285587Y3071699D01*
Y3075031D01*
X6293918Y3070866D02*
X6290586D01*
X6293918Y3074198D01*
Y3075031D01*
X6293085Y3075865D01*
X6291419D01*
X6290586Y3075031D01*
X6275591Y2992126D02*
Y2997124D01*
X6278090D01*
X6278923Y2996291D01*
Y2994625D01*
X6278090Y2993792D01*
X6275591D01*
X6277257D02*
X6278923Y2992126D01*
X6283921D02*
X6280589D01*
X6283921Y2995458D01*
Y2996291D01*
X6283088Y2997124D01*
X6281422D01*
X6280589Y2996291D01*
X6285587D02*
X6286421Y2997124D01*
X6288087D01*
X6288920Y2996291D01*
Y2992959D01*
X6288087Y2992126D01*
X6286421D01*
X6285587Y2992959D01*
Y2996291D01*
X6290586D02*
X6291419Y2997124D01*
X6293085D01*
X6293918Y2996291D01*
Y2995458D01*
X6293085Y2994625D01*
X6292252D01*
X6293085D01*
X6293918Y2993792D01*
Y2992959D01*
X6293085Y2992126D01*
X6291419D01*
X6290586Y2992959D01*
X6275591Y2913386D02*
Y2918384D01*
X6278090D01*
X6278923Y2917551D01*
Y2915885D01*
X6278090Y2915052D01*
X6275591D01*
X6277257D02*
X6278923Y2913386D01*
X6283921D02*
X6280589D01*
X6283921Y2916718D01*
Y2917551D01*
X6283088Y2918384D01*
X6281422D01*
X6280589Y2917551D01*
X6285587D02*
X6286421Y2918384D01*
X6288087D01*
X6288920Y2917551D01*
Y2914219D01*
X6288087Y2913386D01*
X6286421D01*
X6285587Y2914219D01*
Y2917551D01*
X6293085Y2913386D02*
Y2918384D01*
X6290586Y2915885D01*
X6293918D01*
X6318898Y3110236D02*
Y3105238D01*
X6316398D01*
X6315565Y3106071D01*
Y3107737D01*
X6316398Y3108570D01*
X6318898D01*
X6317231D02*
X6315565Y3110236D01*
X6310567D02*
X6313899D01*
X6310567Y3106904D01*
Y3106071D01*
X6311400Y3105238D01*
X6313066D01*
X6313899Y3106071D01*
X6308901D02*
X6308068Y3105238D01*
X6306402D01*
X6305569Y3106071D01*
Y3109403D01*
X6306402Y3110236D01*
X6308068D01*
X6308901Y3109403D01*
Y3106071D01*
X6300570Y3105238D02*
X6303902D01*
Y3107737D01*
X6302236Y3106904D01*
X6301403D01*
X6300570Y3107737D01*
Y3109403D01*
X6301403Y3110236D01*
X6303069D01*
X6303902Y3109403D01*
X6318898Y3031496D02*
Y3026498D01*
X6316398D01*
X6315565Y3027331D01*
Y3028997D01*
X6316398Y3029830D01*
X6318898D01*
X6317231D02*
X6315565Y3031496D01*
X6310567D02*
X6313899D01*
X6310567Y3028164D01*
Y3027331D01*
X6311400Y3026498D01*
X6313066D01*
X6313899Y3027331D01*
X6308901D02*
X6308068Y3026498D01*
X6306402D01*
X6305569Y3027331D01*
Y3030663D01*
X6306402Y3031496D01*
X6308068D01*
X6308901Y3030663D01*
Y3027331D01*
X6300570Y3026498D02*
X6302236Y3027331D01*
X6303902Y3028997D01*
Y3030663D01*
X6303069Y3031496D01*
X6301403D01*
X6300570Y3030663D01*
Y3029830D01*
X6301403Y3028997D01*
X6303902D01*
X6318898Y2952756D02*
Y2947758D01*
X6316398D01*
X6315565Y2948591D01*
Y2950257D01*
X6316398Y2951090D01*
X6318898D01*
X6317231D02*
X6315565Y2952756D01*
X6310567D02*
X6313899D01*
X6310567Y2949424D01*
Y2948591D01*
X6311400Y2947758D01*
X6313066D01*
X6313899Y2948591D01*
X6308901D02*
X6308068Y2947758D01*
X6306402D01*
X6305569Y2948591D01*
Y2951923D01*
X6306402Y2952756D01*
X6308068D01*
X6308901Y2951923D01*
Y2948591D01*
X6303902Y2947758D02*
X6300570D01*
Y2948591D01*
X6303902Y2951923D01*
Y2952756D01*
X6121638Y2734676D02*
Y2733498D01*
X6122816Y2732320D01*
X6123994D01*
X6126350Y2734676D01*
Y2735854D01*
X6125172Y2737032D01*
X6123994D01*
X6121049Y2741156D02*
X6123405Y2738800D01*
X6118693D01*
X6118104Y2738211D01*
Y2737032D01*
X6119282Y2735854D01*
X6120460D01*
X6116925Y2739389D02*
X6115747D01*
X6114569Y2740567D01*
Y2741745D01*
X6115158Y2742334D01*
X6116336D01*
X6116925Y2741745D01*
X6116336Y2742334D01*
Y2743512D01*
X6116925Y2744101D01*
X6118104D01*
X6119282Y2742923D01*
Y2741745D01*
X6113391Y2742923D02*
X6112213D01*
X6111035Y2744101D01*
Y2745280D01*
X6113391Y2747636D01*
X6114569D01*
X6115747Y2746458D01*
Y2745279D01*
X6113391Y2742923D01*
X8720472Y3620082D02*
X8713913D01*
X8717193D01*
Y3629921D01*
X8710633D02*
Y3620082D01*
X8705713D01*
X8704074Y3621722D01*
Y3625002D01*
X8705713Y3626642D01*
X8710633D01*
X8707353D02*
X8704074Y3629921D01*
X8700794D02*
X8697514D01*
X8699154D01*
Y3620082D01*
X8700794Y3621722D01*
X4365080Y2927165D02*
X4370079D01*
Y2929664D01*
X4369246Y2930498D01*
X4365913D01*
X4365080Y2929664D01*
Y2927165D01*
X4365913Y2932164D02*
X4365080Y2932997D01*
Y2934663D01*
X4365913Y2935496D01*
X4366746D01*
X4367579Y2934663D01*
Y2933830D01*
Y2934663D01*
X4368413Y2935496D01*
X4369246D01*
X4370079Y2934663D01*
Y2932997D01*
X4369246Y2932164D01*
X4365913Y2937162D02*
X4365080Y2937995D01*
Y2939661D01*
X4365913Y2940494D01*
X4369246D01*
X4370079Y2939661D01*
Y2937995D01*
X4369246Y2937162D01*
X4365913D01*
X4370079Y2942160D02*
Y2943827D01*
Y2942994D01*
X4365080D01*
X4365913Y2942160D01*
X5034372Y2927165D02*
X5039370D01*
Y2929664D01*
X5038537Y2930498D01*
X5035205D01*
X5034372Y2929664D01*
Y2927165D01*
X5035205Y2932164D02*
X5034372Y2932997D01*
Y2934663D01*
X5035205Y2935496D01*
X5036038D01*
X5036871Y2934663D01*
Y2933830D01*
Y2934663D01*
X5037704Y2935496D01*
X5038537D01*
X5039370Y2934663D01*
Y2932997D01*
X5038537Y2932164D01*
X5035205Y2937162D02*
X5034372Y2937995D01*
Y2939661D01*
X5035205Y2940494D01*
X5038537D01*
X5039370Y2939661D01*
Y2937995D01*
X5038537Y2937162D01*
X5035205D01*
X5039370Y2945493D02*
Y2942160D01*
X5036038Y2945493D01*
X5035205D01*
X5034372Y2944660D01*
Y2942994D01*
X5035205Y2942160D01*
X4655509Y2972441D02*
X4645669D01*
Y2967521D01*
X4647309Y2965881D01*
X4653869D01*
X4655509Y2967521D01*
Y2972441D01*
X4653869Y2962602D02*
X4655509Y2960962D01*
Y2957682D01*
X4653869Y2956042D01*
X4652229D01*
X4650589Y2957682D01*
Y2959322D01*
Y2957682D01*
X4648949Y2956042D01*
X4647309D01*
X4645669Y2957682D01*
Y2960962D01*
X4647309Y2962602D01*
X4653869Y2952762D02*
X4655509Y2951122D01*
Y2947843D01*
X4653869Y2946203D01*
X4647309D01*
X4645669Y2947843D01*
Y2951122D01*
X4647309Y2952762D01*
X4653869D01*
Y2942923D02*
X4655509Y2941283D01*
Y2938003D01*
X4653869Y2936363D01*
X4652229D01*
X4650589Y2938003D01*
Y2939643D01*
Y2938003D01*
X4648949Y2936363D01*
X4647309D01*
X4645669Y2938003D01*
Y2941283D01*
X4647309Y2942923D01*
X5324800Y2972441D02*
X5314961D01*
Y2967521D01*
X5316600Y2965881D01*
X5323160D01*
X5324800Y2967521D01*
Y2972441D01*
X5323160Y2962602D02*
X5324800Y2960962D01*
Y2957682D01*
X5323160Y2956042D01*
X5321520D01*
X5319880Y2957682D01*
Y2959322D01*
Y2957682D01*
X5318240Y2956042D01*
X5316600D01*
X5314961Y2957682D01*
Y2960962D01*
X5316600Y2962602D01*
X5323160Y2952762D02*
X5324800Y2951122D01*
Y2947843D01*
X5323160Y2946203D01*
X5316600D01*
X5314961Y2947843D01*
Y2951122D01*
X5316600Y2952762D01*
X5323160D01*
X5314961Y2938003D02*
X5324800D01*
X5319880Y2942923D01*
Y2936363D01*
X5859582Y3800523D02*
X5858270Y3799211D01*
Y3796588D01*
X5859582Y3795276D01*
X5864830D01*
X5866142Y3796588D01*
Y3799211D01*
X5864830Y3800523D01*
X5866142Y3803147D02*
Y3805771D01*
Y3804459D01*
X5858270D01*
X5859582Y3803147D01*
Y3809707D02*
X5858270Y3811019D01*
Y3813642D01*
X5859582Y3814954D01*
X5864830D01*
X5866142Y3813642D01*
Y3811019D01*
X5864830Y3809707D01*
X5859582D01*
Y3817578D02*
X5858270Y3818890D01*
Y3821514D01*
X5859582Y3822826D01*
X5860894D01*
X5862206Y3821514D01*
Y3820202D01*
Y3821514D01*
X5863518Y3822826D01*
X5864830D01*
X5866142Y3821514D01*
Y3818890D01*
X5864830Y3817578D01*
X5977693Y3800523D02*
X5976381Y3799211D01*
Y3796588D01*
X5977693Y3795276D01*
X5982940D01*
X5984252Y3796588D01*
Y3799211D01*
X5982940Y3800523D01*
X5984252Y3803147D02*
Y3805771D01*
Y3804459D01*
X5976381D01*
X5977693Y3803147D01*
Y3809707D02*
X5976381Y3811019D01*
Y3813642D01*
X5977693Y3814954D01*
X5982940D01*
X5984252Y3813642D01*
Y3811019D01*
X5982940Y3809707D01*
X5977693D01*
X5984252Y3821514D02*
X5976381D01*
X5980316Y3817578D01*
Y3822826D01*
X9659526Y2978347D02*
X9654528D01*
Y2975847D01*
X9655361Y2975014D01*
X9658693D01*
X9659526Y2975847D01*
Y2978347D01*
X9654528Y2973348D02*
Y2971682D01*
Y2972515D01*
X9659526D01*
X9658693Y2973348D01*
X8710633Y3206693D02*
X8720472D01*
Y3211613D01*
X8718833Y3213253D01*
X8712273D01*
X8710633Y3211613D01*
Y3206693D01*
X8720472Y3223092D02*
Y3216532D01*
X8713913Y3223092D01*
X8712273D01*
X8710633Y3221452D01*
Y3218172D01*
X8712273Y3216532D01*
X5913386Y3236220D02*
Y3241219D01*
X5915885D01*
X5916718Y3240386D01*
Y3238720D01*
X5915885Y3237887D01*
X5913386D01*
X5915052D02*
X5916718Y3236220D01*
X5921717D02*
X5918384D01*
X5921717Y3239553D01*
Y3240386D01*
X5920883Y3241219D01*
X5919217D01*
X5918384Y3240386D01*
X5923383Y3236220D02*
X5925049D01*
X5924216D01*
Y3241219D01*
X5923383Y3240386D01*
X5927548D02*
X5928381Y3241219D01*
X5930047D01*
X5930880Y3240386D01*
Y3239553D01*
X5930047Y3238720D01*
X5929214D01*
X5930047D01*
X5930880Y3237887D01*
Y3237054D01*
X5930047Y3236220D01*
X5928381D01*
X5927548Y3237054D01*
X9040354Y3757874D02*
X9045353D01*
Y3755375D01*
X9044520Y3754542D01*
X9042853D01*
X9042020Y3755375D01*
Y3757874D01*
Y3756208D02*
X9040354Y3754542D01*
Y3752876D02*
Y3751209D01*
Y3752043D01*
X9045353D01*
X9044520Y3752876D01*
X9040354Y3745378D02*
Y3748710D01*
X9043687Y3745378D01*
X9044520D01*
X9045353Y3746211D01*
Y3747877D01*
X9044520Y3748710D01*
X9071850Y3757874D02*
X9076849D01*
Y3755375D01*
X9076016Y3754542D01*
X9074350D01*
X9073516Y3755375D01*
Y3757874D01*
Y3756208D02*
X9071850Y3754542D01*
Y3752876D02*
Y3751209D01*
Y3752043D01*
X9076849D01*
X9076016Y3752876D01*
Y3748710D02*
X9076849Y3747877D01*
Y3746211D01*
X9076016Y3745378D01*
X9075183D01*
X9074350Y3746211D01*
Y3747044D01*
Y3746211D01*
X9073516Y3745378D01*
X9072683D01*
X9071850Y3746211D01*
Y3747877D01*
X9072683Y3748710D01*
X9075758Y3483297D02*
X9072224Y3479762D01*
X9070457Y3481530D01*
Y3482708D01*
X9071635Y3483886D01*
X9072813D01*
X9074580Y3482119D01*
X9073402Y3483297D02*
X9073402Y3485653D01*
X9072224Y3486831D02*
X9071046Y3488009D01*
X9071635Y3487420D01*
X9068101Y3483886D01*
X9069279D01*
X9067512Y3491544D02*
X9063977Y3488009D01*
X9067512D01*
X9065155Y3490365D01*
X9094488Y3374016D02*
Y3379014D01*
X9096987D01*
X9097820Y3378181D01*
Y3376515D01*
X9096987Y3375682D01*
X9094488D01*
X9096154D02*
X9097820Y3374016D01*
X9099487D02*
X9101153D01*
X9100320D01*
Y3379014D01*
X9099487Y3378181D01*
X9106984Y3379014D02*
X9103652D01*
Y3376515D01*
X9105318Y3377348D01*
X9106151D01*
X9106984Y3376515D01*
Y3374849D01*
X9106151Y3374016D01*
X9104485D01*
X9103652Y3374849D01*
X3992882Y3836010D02*
X3992049Y3835176D01*
Y3833510D01*
X3992882Y3832677D01*
X3996214D01*
X3997047Y3833510D01*
Y3835176D01*
X3996214Y3836010D01*
X3997047Y3841008D02*
Y3837676D01*
X3993715Y3841008D01*
X3992882D01*
X3992049Y3840175D01*
Y3838509D01*
X3992882Y3837676D01*
X3997047Y3845173D02*
X3992049D01*
X3994548Y3842674D01*
Y3846006D01*
X3997047Y3847672D02*
Y3849338D01*
Y3848506D01*
X3992049D01*
X3992882Y3847672D01*
X4878883Y3425561D02*
X4877028Y3425561D01*
X4875172Y3423706D01*
Y3421850D01*
X4878883Y3418140D01*
X4880738D01*
X4882593Y3419995D01*
Y3421850D01*
X4889087Y3426489D02*
X4885377Y3422778D01*
Y3430199D01*
X4884449Y3431127D01*
X4882593D01*
X4880738Y3429272D01*
Y3427416D01*
X4893725Y3431127D02*
X4888159Y3436693D01*
Y3431127D01*
X4891870Y3434838D01*
X4899291Y3436693D02*
X4893725Y3442259D01*
X4893725Y3436693D01*
X4897436Y3440403D01*
X4662173Y3836010D02*
X4661340Y3835176D01*
Y3833510D01*
X4662173Y3832677D01*
X4665506D01*
X4666339Y3833510D01*
Y3835176D01*
X4665506Y3836010D01*
X4666339Y3841008D02*
Y3837676D01*
X4663006Y3841008D01*
X4662173D01*
X4661340Y3840175D01*
Y3838509D01*
X4662173Y3837676D01*
X4661340Y3846006D02*
Y3842674D01*
X4663839D01*
X4663006Y3844340D01*
Y3845173D01*
X4663839Y3846006D01*
X4665506D01*
X4666339Y3845173D01*
Y3843507D01*
X4665506Y3842674D01*
X4666339Y3847672D02*
Y3849338D01*
Y3848506D01*
X4661340D01*
X4662173Y3847672D01*
X4807511Y3487614D02*
X4806333D01*
X4805154Y3486436D01*
Y3485258D01*
X4807511Y3482901D01*
X4808689D01*
X4809867Y3484080D01*
Y3485258D01*
X4813990Y3488203D02*
X4811634Y3485847D01*
Y3490559D01*
X4811045Y3491148D01*
X4809867D01*
X4808689Y3489970D01*
Y3488792D01*
X4816936Y3491148D02*
X4813401Y3494683D01*
Y3491148D01*
X4815758Y3493505D01*
X4817525Y3498806D02*
X4815169Y3496450D01*
X4816936Y3494683D01*
X4817525Y3496450D01*
X4818114Y3497039D01*
X4819292D01*
X4820470Y3495861D01*
Y3494683D01*
X4819292Y3493505D01*
X4818114D01*
X4747803Y3774986D02*
X4746970Y3774153D01*
Y3772487D01*
X4747803Y3771654D01*
X4751135D01*
X4751968Y3772487D01*
Y3774153D01*
X4751135Y3774986D01*
X4751968Y3779984D02*
Y3776652D01*
X4748636Y3779984D01*
X4747803D01*
X4746970Y3779151D01*
Y3777485D01*
X4747803Y3776652D01*
X4746970Y3784983D02*
Y3781650D01*
X4749469D01*
X4748636Y3783316D01*
Y3784150D01*
X4749469Y3784983D01*
X4751135D01*
X4751968Y3784150D01*
Y3782483D01*
X4751135Y3781650D01*
X4747803Y3786649D02*
X4746970Y3787482D01*
Y3789148D01*
X4747803Y3789981D01*
X4751135D01*
X4751968Y3789148D01*
Y3787482D01*
X4751135Y3786649D01*
X4747803D01*
X4141504Y3719868D02*
X4140671Y3719035D01*
Y3717369D01*
X4141504Y3716535D01*
X4144836D01*
X4145669Y3717369D01*
Y3719035D01*
X4144836Y3719868D01*
X4145669Y3724866D02*
Y3721534D01*
X4142337Y3724866D01*
X4141504D01*
X4140671Y3724033D01*
Y3722367D01*
X4141504Y3721534D01*
X4145669Y3729032D02*
X4140671D01*
X4143170Y3726532D01*
Y3729865D01*
X4141504Y3731531D02*
X4140671Y3732364D01*
Y3734030D01*
X4141504Y3734863D01*
X4142337D01*
X4143170Y3734030D01*
Y3733197D01*
Y3734030D01*
X4144003Y3734863D01*
X4144836D01*
X4145669Y3734030D01*
Y3732364D01*
X4144836Y3731531D01*
X4514438Y3339897D02*
X4515749Y3338585D01*
X4518373D01*
X4519685Y3339897D01*
Y3345145D01*
X4518373Y3346457D01*
X4515749D01*
X4514438Y3345145D01*
X4506566Y3346457D02*
X4511814D01*
X4506566Y3341209D01*
Y3339897D01*
X4507878Y3338585D01*
X4510502D01*
X4511814Y3339897D01*
X4498694Y3338585D02*
X4501318Y3339897D01*
X4503942Y3342521D01*
Y3345145D01*
X4502630Y3346457D01*
X4500006D01*
X4498694Y3345145D01*
Y3343833D01*
X4500006Y3342521D01*
X4503942D01*
X4496071Y3339897D02*
X4494759Y3338585D01*
X4492135D01*
X4490823Y3339897D01*
Y3341209D01*
X4492135Y3342521D01*
X4493447D01*
X4492135D01*
X4490823Y3343833D01*
Y3345145D01*
X4492135Y3346457D01*
X4494759D01*
X4496071Y3345145D01*
X4810795Y3719868D02*
X4809962Y3719035D01*
Y3717369D01*
X4810795Y3716535D01*
X4814127D01*
X4814961Y3717369D01*
Y3719035D01*
X4814127Y3719868D01*
X4814961Y3724866D02*
Y3721534D01*
X4811628Y3724866D01*
X4810795D01*
X4809962Y3724033D01*
Y3722367D01*
X4810795Y3721534D01*
X4809962Y3729865D02*
Y3726532D01*
X4812461D01*
X4811628Y3728198D01*
Y3729032D01*
X4812461Y3729865D01*
X4814127D01*
X4814961Y3729032D01*
Y3727365D01*
X4814127Y3726532D01*
X4810795Y3731531D02*
X4809962Y3732364D01*
Y3734030D01*
X4810795Y3734863D01*
X4811628D01*
X4812461Y3734030D01*
Y3733197D01*
Y3734030D01*
X4813294Y3734863D01*
X4814127D01*
X4814961Y3734030D01*
Y3732364D01*
X4814127Y3731531D01*
X4078512Y3774986D02*
X4077679Y3774153D01*
Y3772487D01*
X4078512Y3771654D01*
X4081844D01*
X4082677Y3772487D01*
Y3774153D01*
X4081844Y3774986D01*
X4082677Y3779984D02*
Y3776652D01*
X4079345Y3779984D01*
X4078512D01*
X4077679Y3779151D01*
Y3777485D01*
X4078512Y3776652D01*
X4082677Y3784150D02*
X4077679D01*
X4080178Y3781650D01*
Y3784983D01*
X4078512Y3786649D02*
X4077679Y3787482D01*
Y3789148D01*
X4078512Y3789981D01*
X4081844D01*
X4082677Y3789148D01*
Y3787482D01*
X4081844Y3786649D01*
X4078512D01*
X3946847Y3681102D02*
Y3677823D01*
Y3679462D01*
X3937008D01*
Y3681102D01*
Y3677823D01*
X3945207Y3666343D02*
X3946847Y3667983D01*
Y3671263D01*
X3945207Y3672903D01*
X3938648D01*
X3937008Y3671263D01*
Y3667983D01*
X3938648Y3666343D01*
X3937008Y3656504D02*
Y3663064D01*
X3943567Y3656504D01*
X3945207D01*
X3946847Y3658144D01*
Y3661424D01*
X3945207Y3663064D01*
Y3653224D02*
X3946847Y3651584D01*
Y3648305D01*
X3945207Y3646665D01*
X3938648D01*
X3937008Y3648305D01*
Y3651584D01*
X3938648Y3653224D01*
X3945207D01*
X3937008Y3636825D02*
Y3643385D01*
X3943567Y3636825D01*
X3945207D01*
X3946847Y3638465D01*
Y3641745D01*
X3945207Y3643385D01*
X4385827Y3688976D02*
Y3693975D01*
X4388326D01*
X4389159Y3693142D01*
Y3691476D01*
X4388326Y3690642D01*
X4385827D01*
X4387493D02*
X4389159Y3688976D01*
X4394158D02*
X4390825D01*
X4394158Y3692309D01*
Y3693142D01*
X4393324Y3693975D01*
X4391658D01*
X4390825Y3693142D01*
X4395824Y3688976D02*
X4397490D01*
X4396657D01*
Y3693975D01*
X4395824Y3693142D01*
X4403321Y3688976D02*
X4399989D01*
X4403321Y3692309D01*
Y3693142D01*
X4402488Y3693975D01*
X4400822D01*
X4399989Y3693142D01*
%TF.MD5,bf42420fe655d46b5766e6dbf0e8db94*%
M02*
