%TF.GenerationSoftware,Altium Limited,Altium Designer,22.4.2 (48)*%
G04 Layer_Color=32896*
%FSLAX26Y26*%
%MOIN*%
%TF.SameCoordinates,8C98EB32-1E12-42CD-A60B-9DA89663A72C*%
%TF.FilePolarity,Positive*%
%TF.FileFunction,Legend,Bot*%
%TF.Part,Single*%
G01*
G75*
%TA.AperFunction,NonConductor*%
%ADD108C,0.003937*%
%ADD109C,0.000984*%
%ADD110C,0.007874*%
%ADD111C,0.001968*%
%ADD112C,0.001000*%
%ADD113C,0.020000*%
%ADD114C,0.003000*%
%ADD115R,0.019685X0.019685*%
%ADD116R,0.002953X0.002953*%
%ADD117R,0.007874X0.007874*%
D108*
X7247244Y2700000D02*
G03*
X7247244Y2700000I-47244J0D01*
G01*
X7147244Y2800000D02*
G03*
X7147244Y2800000I-47244J0D01*
G01*
X7247244Y3000000D02*
G03*
X7247244Y3000000I-47244J0D01*
G01*
X7147244D02*
G03*
X7147244Y3000000I-47244J0D01*
G01*
Y2900000D02*
G03*
X7147244Y2900000I-47244J0D01*
G01*
X7247244Y2800000D02*
G03*
X7247244Y2800000I-47244J0D01*
G01*
Y2900000D02*
G03*
X7247244Y2900000I-47244J0D01*
G01*
X7147244Y2700000D02*
G03*
X7147244Y2700000I-47244J0D01*
G01*
D109*
X9064961Y3001968D02*
X9419292D01*
X9064961Y2883858D02*
X9419292D01*
Y3001968D01*
X9064961Y2883858D02*
Y3001968D01*
X9218504Y2858268D02*
X9265750D01*
X9218504Y2811022D02*
X9265750D01*
Y2858268D01*
X9218504Y2811022D02*
Y2858268D01*
X8641732Y2745079D02*
Y2847442D01*
X8681104Y2745079D02*
Y2847442D01*
X8641732D02*
X8681104D01*
X8641732Y2745079D02*
X8681104D01*
X8744094Y2678150D02*
Y2914371D01*
X8893702Y2678150D02*
Y2914371D01*
X8744094D02*
X8893702D01*
X8744094Y2678150D02*
X8893702D01*
X5251967Y2834644D02*
Y3070866D01*
X5102360Y2834644D02*
Y3070866D01*
Y2834644D02*
X5251967D01*
X5102360Y3070866D02*
X5251967D01*
X4582677Y2834644D02*
Y3070866D01*
X4433070Y2834644D02*
Y3070866D01*
Y2834644D02*
X4582677D01*
X4433070Y3070866D02*
X4582677D01*
D110*
X6450787Y2772638D02*
X6643701D01*
X6450787Y2886811D02*
X6643701D01*
X6450787Y2772638D02*
Y2886811D01*
X6643701Y2772638D02*
Y2886811D01*
X6656244Y2764724D02*
X6660244D01*
X6656244Y2760724D02*
Y2764724D01*
Y2760724D02*
X6660244D01*
Y2763724D01*
D111*
X4379921Y3529528D02*
Y3703079D01*
X4281496D02*
X4379921D01*
X4281496Y3529528D02*
Y3703079D01*
Y3529528D02*
X4379921D01*
X5856299Y3220472D02*
X5954724D01*
X5856299D02*
Y3394024D01*
X5954724D01*
Y3220472D02*
Y3394024D01*
X5856299Y2645669D02*
X5954724D01*
Y2472118D02*
Y2645669D01*
X5856299Y2472118D02*
X5954724D01*
X5856299D02*
Y2645669D01*
X6096457Y3270669D02*
X6194882D01*
X6096457D02*
Y3444220D01*
X6194882D01*
Y3270669D02*
Y3444220D01*
X5702184Y2478219D02*
X5771781Y2547816D01*
X5894501Y2425097D01*
X5824904Y2355499D02*
X5894501Y2425097D01*
X5702184Y2478219D02*
X5824904Y2355499D01*
X4147228Y3530512D02*
Y3652559D01*
X4199228D01*
X4147228Y3530512D02*
X4199228D01*
Y3652559D01*
X4862678Y3375825D02*
X4948978Y3462126D01*
X4985748Y3425356D01*
X4862678Y3375825D02*
X4899447Y3339056D01*
X4985748Y3425356D01*
X4686024Y2805780D02*
Y2979331D01*
Y2805780D02*
X4784449D01*
Y2979331D01*
X4686024D02*
X4784449D01*
X4016732Y2805780D02*
Y2979331D01*
Y2805780D02*
X4115158D01*
Y2979331D01*
X4016732D02*
X4115158D01*
X4921733Y3316770D02*
X5008033Y3403070D01*
X5044803Y3366301D01*
X4921733Y3316770D02*
X4958502Y3280000D01*
X5044803Y3366301D01*
X4417323Y2769276D02*
X4539370D01*
X4417323D02*
Y2821276D01*
X4539370Y2769276D02*
Y2821276D01*
X4417323D02*
X4539370D01*
X4627543Y2931102D02*
Y3053150D01*
X4679543D01*
X4627543Y2931102D02*
X4679543D01*
Y3053150D01*
X5086614Y2769276D02*
X5208661D01*
X5086614D02*
Y2821276D01*
X5208661Y2769276D02*
Y2821276D01*
X5086614D02*
X5208661D01*
X5086614Y3084236D02*
X5208661D01*
X5086614D02*
Y3136236D01*
X5208661Y3084236D02*
Y3136236D01*
X5086614D02*
X5208661D01*
X5296835Y2931102D02*
Y3053150D01*
X5348835D01*
X5296835Y2931102D02*
X5348835D01*
Y3053150D01*
X4417323Y3084236D02*
X4539370D01*
X4417323D02*
Y3136236D01*
X4539370Y3084236D02*
Y3136236D01*
X4417323D02*
X4539370D01*
X4206283Y3530512D02*
Y3652559D01*
X4258283D01*
X4206283Y3530512D02*
X4258283D01*
Y3652559D01*
X3828740Y3842110D02*
X3950787D01*
X3828740D02*
Y3894110D01*
X3950787Y3842110D02*
Y3894110D01*
X3828740D02*
X3950787D01*
X4803623Y3434880D02*
X4889923Y3521181D01*
X4926693Y3484411D01*
X4803623Y3434880D02*
X4840392Y3398111D01*
X4926693Y3484411D01*
X4029118Y3530512D02*
Y3652559D01*
X4081118D01*
X4029118Y3530512D02*
X4081118D01*
Y3652559D01*
X4498032Y3842110D02*
X4620079D01*
X4498032D02*
Y3894110D01*
X4620079Y3842110D02*
Y3894110D01*
X4498032D02*
X4620079D01*
X4088173Y3530512D02*
Y3652559D01*
X4140173D01*
X4088173Y3530512D02*
X4140173D01*
Y3652559D01*
X8787402Y2663795D02*
X8909449D01*
Y2611795D02*
Y2663795D01*
X8787402Y2611795D02*
Y2663795D01*
Y2611795D02*
X8909449D01*
X8708661Y2926756D02*
X8830709D01*
X8708661D02*
Y2978756D01*
X8830709Y2926756D02*
Y2978756D01*
X8708661D02*
X8830709D01*
D112*
X6063892Y3138007D02*
X6090762Y3111137D01*
X6063892Y3138007D02*
X6130706Y3204820D01*
X6157576Y3177950D01*
X6090762Y3111137D02*
X6157576Y3177950D01*
X6671055Y2892716D02*
Y2959646D01*
Y2892716D02*
X6697055D01*
Y2959646D01*
X6671055D02*
X6697055D01*
X5766035Y3133276D02*
X5792905Y3160146D01*
X5699221Y3200090D02*
X5766035Y3133276D01*
X5699221Y3200090D02*
X5726091Y3226960D01*
X5792905Y3160146D01*
X5657767Y3038788D02*
X5684637Y3065658D01*
X5590954Y3105602D02*
X5657767Y3038788D01*
X5590954Y3105602D02*
X5617824Y3132472D01*
X5684637Y3065658D01*
X5689263Y2831291D02*
X5716133Y2804420D01*
X5649320Y2737607D02*
X5716133Y2804420D01*
X5622450Y2764477D02*
X5649320Y2737607D01*
X5622450Y2764477D02*
X5689263Y2831291D01*
X5788672Y2732865D02*
X5815542Y2705995D01*
X5748729Y2639182D02*
X5815542Y2705995D01*
X5721859Y2666052D02*
X5748729Y2639182D01*
X5721859Y2666052D02*
X5788672Y2732865D01*
X6035836Y2727649D02*
X6062706Y2754519D01*
X6129519Y2687706D01*
X6102649Y2660836D02*
X6129519Y2687706D01*
X6035836Y2727649D02*
X6102649Y2660836D01*
X6134261Y2830011D02*
X6161131Y2856881D01*
X6227944Y2790068D01*
X6201074Y2763198D02*
X6227944Y2790068D01*
X6134261Y2830011D02*
X6201074Y2763198D01*
X5995481Y3204438D02*
X6022351Y3177568D01*
X5995481Y3204438D02*
X6062295Y3271251D01*
X6089165Y3244381D01*
X6022351Y3177568D02*
X6089165Y3244381D01*
X6030914Y3169005D02*
X6057784Y3142135D01*
X6030914Y3169005D02*
X6097727Y3235818D01*
X6124598Y3208948D01*
X6057784Y3142135D02*
X6124598Y3208948D01*
X5778830Y3189379D02*
X5805700Y3216249D01*
X5712017Y3256192D02*
X5778830Y3189379D01*
X5712017Y3256192D02*
X5738887Y3283062D01*
X5805700Y3216249D01*
X5713869Y3121465D02*
X5740739Y3148336D01*
X5647056Y3188279D02*
X5713869Y3121465D01*
X5647056Y3188279D02*
X5673926Y3215149D01*
X5740739Y3148336D01*
X5678436Y3086032D02*
X5705306Y3112902D01*
X5611623Y3152846D02*
X5678436Y3086032D01*
X5611623Y3152846D02*
X5638493Y3179716D01*
X5705306Y3112902D01*
X5637098Y2845070D02*
X5663968Y2818200D01*
X5597154Y2751387D02*
X5663968Y2818200D01*
X5570284Y2778257D02*
X5597154Y2751387D01*
X5570284Y2778257D02*
X5637098Y2845070D01*
X5702058Y2778141D02*
X5728928Y2751271D01*
X5662115Y2684457D02*
X5728928Y2751271D01*
X5635245Y2711328D02*
X5662115Y2684457D01*
X5635245Y2711328D02*
X5702058Y2778141D01*
X5738475Y2744676D02*
X5765346Y2717806D01*
X5698532Y2650993D02*
X5765346Y2717806D01*
X5671662Y2677863D02*
X5698532Y2650993D01*
X5671662Y2677863D02*
X5738475Y2744676D01*
X6089969Y2738476D02*
X6116839Y2765346D01*
X6183653Y2698532D01*
X6156783Y2671662D02*
X6183653Y2698532D01*
X6089969Y2738476D02*
X6156783Y2671662D01*
X6127371Y2773909D02*
X6154241Y2800779D01*
X6221054Y2733965D01*
X6194184Y2707095D02*
X6221054Y2733965D01*
X6127371Y2773909D02*
X6194184Y2707095D01*
X6466535Y3027000D02*
X6533465D01*
Y3053000D01*
X6466535D02*
X6533465D01*
X6466535Y3027000D02*
Y3053000D01*
X9158669Y3647638D02*
Y3714567D01*
X9132669D02*
X9158669D01*
X9132669Y3647638D02*
Y3714567D01*
Y3647638D02*
X9158669D01*
X9221252D02*
Y3714567D01*
Y3647638D02*
X9247252D01*
Y3714567D01*
X9221252D02*
X9247252D01*
X9276780Y3647638D02*
Y3714567D01*
X9250780D02*
X9276780D01*
X9250780Y3647638D02*
Y3714567D01*
Y3647638D02*
X9276780D01*
X9162197D02*
Y3714567D01*
Y3647638D02*
X9188197D01*
Y3714567D01*
X9162197D02*
X9188197D01*
X9217724Y3647638D02*
Y3714567D01*
X9191724D02*
X9217724D01*
X9191724Y3647638D02*
Y3714567D01*
Y3647638D02*
X9217724D01*
D113*
X3785890Y3557108D02*
X3812128Y3583347D01*
X3864604D01*
X3890843Y3557108D01*
Y3452155D01*
X3864604Y3425917D01*
X3812128D01*
X3785890Y3452155D01*
Y3504632D01*
X3838366D01*
X3733413Y3530870D02*
Y3425917D01*
Y3478394D01*
X3707175Y3504632D01*
X3680937Y3530870D01*
X3654699D01*
X3497269Y3425917D02*
X3549746D01*
X3575984Y3452155D01*
Y3504632D01*
X3549746Y3530870D01*
X3497269D01*
X3471031Y3504632D01*
Y3478394D01*
X3575984D01*
X3339840Y3425917D02*
X3392316D01*
X3418555Y3452155D01*
Y3504632D01*
X3392316Y3530870D01*
X3339840D01*
X3313602Y3504632D01*
Y3478394D01*
X3418555D01*
X3261125Y3425917D02*
Y3530870D01*
X3182410D01*
X3156172Y3504632D01*
Y3425917D01*
X3077457D02*
Y3557108D01*
Y3504632D01*
X3103696D01*
X3051219D01*
X3077457D01*
Y3557108D01*
X3051219Y3583347D01*
X2972505Y3425917D02*
X2920028D01*
X2946266D01*
Y3530870D01*
X2972505D01*
X2762599Y3425917D02*
X2815075D01*
X2841313Y3452155D01*
Y3504632D01*
X2815075Y3530870D01*
X2762599D01*
X2736360Y3504632D01*
Y3478394D01*
X2841313D01*
X2683884Y3425917D02*
X2631407D01*
X2657646D01*
Y3583347D01*
X2683884D01*
X2447740D02*
Y3425917D01*
X2526454D01*
X2552693Y3452155D01*
Y3504632D01*
X2526454Y3530870D01*
X2447740D01*
X3457912Y3346431D02*
X3352959D01*
X3405435D01*
Y3189002D01*
X3221768D02*
X3274244D01*
X3300482Y3215240D01*
Y3267716D01*
X3274244Y3293955D01*
X3221768D01*
X3195530Y3267716D01*
Y3241478D01*
X3300482D01*
X3038100Y3293955D02*
X3116815D01*
X3143053Y3267716D01*
Y3215240D01*
X3116815Y3189002D01*
X3038100D01*
X2985624Y3346431D02*
Y3189002D01*
Y3267716D01*
X2959385Y3293955D01*
X2906909D01*
X2880671Y3267716D01*
Y3189002D01*
X3707175Y3083278D02*
X3733413Y3109516D01*
X3785890D01*
X3812128Y3083278D01*
Y3057039D01*
X3785890Y3030801D01*
X3733413D01*
X3707175Y3004563D01*
Y2978325D01*
X3733413Y2952086D01*
X3785890D01*
X3812128Y2978325D01*
X3628460Y2952086D02*
X3575984D01*
X3549746Y2978325D01*
Y3030801D01*
X3575984Y3057039D01*
X3628460D01*
X3654699Y3030801D01*
Y2978325D01*
X3628460Y2952086D01*
X3497269D02*
X3444793D01*
X3471031D01*
Y3109516D01*
X3497269D01*
X3366078Y3057039D02*
Y2978325D01*
X3339840Y2952086D01*
X3261125D01*
Y3057039D01*
X3182410Y3083278D02*
Y3057039D01*
X3208649D01*
X3156172D01*
X3182410D01*
Y2978325D01*
X3156172Y2952086D01*
X3077457D02*
X3024981D01*
X3051219D01*
Y3057039D01*
X3077457D01*
X2920028Y2952086D02*
X2867552D01*
X2841313Y2978325D01*
Y3030801D01*
X2867552Y3057039D01*
X2920028D01*
X2946266Y3030801D01*
Y2978325D01*
X2920028Y2952086D01*
X2788837D02*
Y3057039D01*
X2710122D01*
X2683884Y3030801D01*
Y2952086D01*
X2631407D02*
X2552693D01*
X2526454Y2978325D01*
X2552693Y3004563D01*
X2605169D01*
X2631407Y3030801D01*
X2605169Y3057039D01*
X2526454D01*
D114*
X8739781Y2784405D02*
Y2789404D01*
Y2786905D01*
X8724786D01*
Y2784405D01*
Y2789404D01*
X8737282Y2806898D02*
X8739781Y2804399D01*
Y2799401D01*
X8737282Y2796901D01*
X8727285D01*
X8724786Y2799401D01*
Y2804399D01*
X8727285Y2806898D01*
X8739781Y2821894D02*
X8737282Y2816895D01*
X8732284Y2811897D01*
X8727285D01*
X8724786Y2814396D01*
Y2819394D01*
X8727285Y2821894D01*
X8729784D01*
X8732284Y2819394D01*
Y2811897D01*
X8781650Y2997124D02*
X8784149Y2999624D01*
X8789148D01*
X8791647Y2997124D01*
Y2987128D01*
X8789148Y2984628D01*
X8784149D01*
X8781650Y2987128D01*
X8769154Y2984628D02*
Y2999624D01*
X8776652Y2992126D01*
X8766655D01*
X8754159Y2984628D02*
Y2999624D01*
X8761657Y2992126D01*
X8751660D01*
X8930195Y2627798D02*
X8932694Y2625299D01*
Y2620301D01*
X8930195Y2617802D01*
X8920199D01*
X8917699Y2620301D01*
Y2625299D01*
X8920199Y2627798D01*
X8917699Y2640294D02*
X8932694D01*
X8925197Y2632797D01*
Y2642794D01*
X8930195Y2647792D02*
X8932694Y2650291D01*
Y2655289D01*
X8930195Y2657789D01*
X8927696D01*
X8925197Y2655289D01*
Y2652790D01*
Y2655289D01*
X8922698Y2657789D01*
X8920199D01*
X8917699Y2655289D01*
Y2650291D01*
X8920199Y2647792D01*
X4426789Y2931358D02*
Y2936357D01*
Y2933858D01*
X4411794D01*
Y2931358D01*
Y2936357D01*
X4424290Y2953851D02*
X4426789Y2951352D01*
Y2946354D01*
X4424290Y2943854D01*
X4414293D01*
X4411794Y2946354D01*
Y2951352D01*
X4414293Y2953851D01*
X4424290Y2958849D02*
X4426789Y2961349D01*
Y2966347D01*
X4424290Y2968846D01*
X4421791D01*
X4419291Y2966347D01*
Y2963848D01*
Y2966347D01*
X4416792Y2968846D01*
X4414293D01*
X4411794Y2966347D01*
Y2961349D01*
X4414293Y2958849D01*
X4424290Y2973845D02*
X4426789Y2976344D01*
Y2981342D01*
X4424290Y2983841D01*
X4414293D01*
X4411794Y2981342D01*
Y2976344D01*
X4414293Y2973845D01*
X4424290D01*
X4411794Y2988840D02*
Y2993838D01*
Y2991339D01*
X4426789D01*
X4424290Y2988840D01*
X5096080Y2928859D02*
Y2933858D01*
Y2931358D01*
X5081085D01*
Y2928859D01*
Y2933858D01*
X5093581Y2951352D02*
X5096080Y2948853D01*
Y2943854D01*
X5093581Y2941355D01*
X5083584D01*
X5081085Y2943854D01*
Y2948853D01*
X5083584Y2951352D01*
X5093581Y2956350D02*
X5096080Y2958849D01*
Y2963848D01*
X5093581Y2966347D01*
X5091082D01*
X5088583Y2963848D01*
Y2961349D01*
Y2963848D01*
X5086084Y2966347D01*
X5083584D01*
X5081085Y2963848D01*
Y2958849D01*
X5083584Y2956350D01*
X5093581Y2971345D02*
X5096080Y2973845D01*
Y2978843D01*
X5093581Y2981342D01*
X5083584D01*
X5081085Y2978843D01*
Y2973845D01*
X5083584Y2971345D01*
X5093581D01*
X5081085Y2996338D02*
Y2986341D01*
X5091082Y2996338D01*
X5093581D01*
X5096080Y2993838D01*
Y2988840D01*
X5093581Y2986341D01*
X4119172Y3673450D02*
X4121671Y3670951D01*
Y3665953D01*
X4119172Y3663454D01*
X4109175D01*
X4106676Y3665953D01*
Y3670951D01*
X4109175Y3673450D01*
X4106676Y3688446D02*
Y3678449D01*
X4116672Y3688446D01*
X4119172D01*
X4121671Y3685946D01*
Y3680948D01*
X4119172Y3678449D01*
X4121671Y3703441D02*
Y3693444D01*
X4114173D01*
X4116672Y3698442D01*
Y3700942D01*
X4114173Y3703441D01*
X4109175D01*
X4106676Y3700942D01*
Y3695943D01*
X4109175Y3693444D01*
X4121671Y3708439D02*
Y3718436D01*
X4119172D01*
X4109175Y3708439D01*
X4106676D01*
X4574581Y3912479D02*
X4577080Y3914978D01*
X4582079D01*
X4584578Y3912479D01*
Y3902482D01*
X4582079Y3899983D01*
X4577080D01*
X4574581Y3902482D01*
X4559586Y3899983D02*
X4569583D01*
X4559586Y3909979D01*
Y3912479D01*
X4562085Y3914978D01*
X4567083D01*
X4569583Y3912479D01*
X4544591Y3914978D02*
X4554587D01*
Y3907480D01*
X4549589Y3909979D01*
X4547090D01*
X4544591Y3907480D01*
Y3902482D01*
X4547090Y3899983D01*
X4552088D01*
X4554587Y3902482D01*
X4529595Y3899983D02*
X4539592D01*
X4529595Y3909979D01*
Y3912479D01*
X4532095Y3914978D01*
X4537093D01*
X4539592Y3912479D01*
X4348203Y3725471D02*
X4350702Y3727970D01*
X4355701D01*
X4358200Y3725471D01*
Y3715474D01*
X4355701Y3712975D01*
X4350702D01*
X4348203Y3715474D01*
X4333208Y3712975D02*
X4343205D01*
X4333208Y3722972D01*
Y3725471D01*
X4335707Y3727970D01*
X4340706D01*
X4343205Y3725471D01*
X4318213Y3727970D02*
X4328209D01*
Y3720472D01*
X4323211Y3722972D01*
X4320712D01*
X4318213Y3720472D01*
Y3715474D01*
X4320712Y3712975D01*
X4325710D01*
X4328209Y3715474D01*
X4305717Y3712975D02*
Y3727970D01*
X4313214Y3720472D01*
X4303217D01*
X4060117Y3673450D02*
X4062616Y3670951D01*
Y3665953D01*
X4060117Y3663454D01*
X4050120D01*
X4047620Y3665953D01*
Y3670951D01*
X4050120Y3673450D01*
X4047620Y3688445D02*
Y3678449D01*
X4057617Y3688445D01*
X4060117D01*
X4062616Y3685946D01*
Y3680948D01*
X4060117Y3678449D01*
X4062616Y3703441D02*
Y3693444D01*
X4055118D01*
X4057617Y3698442D01*
Y3700941D01*
X4055118Y3703441D01*
X4050120D01*
X4047620Y3700941D01*
Y3695943D01*
X4050120Y3693444D01*
X4060117Y3708439D02*
X4062616Y3710938D01*
Y3715937D01*
X4060117Y3718436D01*
X4057617D01*
X4055118Y3715937D01*
X4052619Y3718436D01*
X4050120D01*
X4047620Y3715937D01*
Y3710938D01*
X4050120Y3708439D01*
X4052619D01*
X4055118Y3710938D01*
X4057617Y3708439D01*
X4060117D01*
X4055118Y3710938D02*
Y3715937D01*
X4937165Y3504943D02*
X4940699D01*
X4944233Y3501409D01*
Y3497875D01*
X4937165Y3490806D01*
X4933630D01*
X4930096Y3494340D01*
Y3497875D01*
X4917725Y3506711D02*
X4924794Y3499642D01*
Y3513779D01*
X4926561Y3515547D01*
X4930096D01*
X4933630Y3512012D01*
Y3508478D01*
X4908889Y3515547D02*
X4919493Y3526150D01*
Y3515547D01*
X4912424Y3522615D01*
X4905355D02*
X4901821D01*
X4898286Y3526150D01*
Y3529684D01*
X4905355Y3536753D01*
X4908889D01*
X4912424Y3533219D01*
Y3529684D01*
X4910657Y3527917D01*
X4907122D01*
X4901821Y3533219D01*
X3915132Y3912479D02*
X3917631Y3914978D01*
X3922630D01*
X3925129Y3912479D01*
Y3902482D01*
X3922630Y3899983D01*
X3917631D01*
X3915132Y3902482D01*
X3900137Y3899983D02*
X3910134D01*
X3900137Y3909979D01*
Y3912479D01*
X3902636Y3914978D01*
X3907635D01*
X3910134Y3912479D01*
X3887641Y3899983D02*
Y3914978D01*
X3895139Y3907480D01*
X3885142D01*
X3870147Y3899983D02*
X3880143D01*
X3870147Y3909979D01*
Y3912479D01*
X3872646Y3914978D01*
X3877644D01*
X3880143Y3912479D01*
X4237282Y3673450D02*
X4239781Y3670951D01*
Y3665953D01*
X4237282Y3663454D01*
X4227285D01*
X4224786Y3665953D01*
Y3670951D01*
X4227285Y3673450D01*
X4224786Y3688445D02*
Y3678449D01*
X4234783Y3688445D01*
X4237282D01*
X4239781Y3685946D01*
Y3680948D01*
X4237282Y3678449D01*
X4239781Y3703441D02*
Y3693444D01*
X4232283D01*
X4234783Y3698442D01*
Y3700941D01*
X4232283Y3703441D01*
X4227285D01*
X4224786Y3700941D01*
Y3695943D01*
X4227285Y3693444D01*
X4239781Y3718436D02*
Y3708439D01*
X4232283D01*
X4234783Y3713438D01*
Y3715937D01*
X4232283Y3718436D01*
X4227285D01*
X4224786Y3715937D01*
Y3710938D01*
X4227285Y3708439D01*
X4495841Y3154605D02*
X4498340Y3157104D01*
X4503338D01*
X4505838Y3154605D01*
Y3144608D01*
X4503338Y3142109D01*
X4498340D01*
X4495841Y3144608D01*
X4490842Y3154605D02*
X4488343Y3157104D01*
X4483345D01*
X4480846Y3154605D01*
Y3152106D01*
X4483345Y3149606D01*
X4485844D01*
X4483345D01*
X4480846Y3147107D01*
Y3144608D01*
X4483345Y3142109D01*
X4488343D01*
X4490842Y3144608D01*
X4475847Y3154605D02*
X4473348Y3157104D01*
X4468350D01*
X4465850Y3154605D01*
Y3144608D01*
X4468350Y3142109D01*
X4473348D01*
X4475847Y3144608D01*
Y3154605D01*
X4450855Y3142109D02*
X4460852D01*
X4450855Y3152106D01*
Y3154605D01*
X4453355Y3157104D01*
X4458353D01*
X4460852Y3154605D01*
X5342297Y3075865D02*
X5344797Y3078364D01*
X5349795D01*
X5352294Y3075865D01*
Y3065868D01*
X5349795Y3063369D01*
X5344797D01*
X5342297Y3065868D01*
X5337299Y3075865D02*
X5334800Y3078364D01*
X5329801D01*
X5327302Y3075865D01*
Y3073365D01*
X5329801Y3070866D01*
X5332301D01*
X5329801D01*
X5327302Y3068367D01*
Y3065868D01*
X5329801Y3063369D01*
X5334800D01*
X5337299Y3065868D01*
X5322304Y3075865D02*
X5319805Y3078364D01*
X5314806D01*
X5312307Y3075865D01*
Y3065868D01*
X5314806Y3063369D01*
X5319805D01*
X5322304Y3065868D01*
Y3075865D01*
X5297312Y3078364D02*
X5302310Y3075865D01*
X5307309Y3070866D01*
Y3065868D01*
X5304810Y3063369D01*
X5299811D01*
X5297312Y3065868D01*
Y3068367D01*
X5299811Y3070866D01*
X5307309D01*
X5165132Y3154605D02*
X5167631Y3157104D01*
X5172630D01*
X5175129Y3154605D01*
Y3144608D01*
X5172630Y3142109D01*
X5167631D01*
X5165132Y3144608D01*
X5160134Y3154605D02*
X5157635Y3157104D01*
X5152636D01*
X5150137Y3154605D01*
Y3152106D01*
X5152636Y3149606D01*
X5155135D01*
X5152636D01*
X5150137Y3147107D01*
Y3144608D01*
X5152636Y3142109D01*
X5157635D01*
X5160134Y3144608D01*
X5145139Y3154605D02*
X5142639Y3157104D01*
X5137641D01*
X5135142Y3154605D01*
Y3144608D01*
X5137641Y3142109D01*
X5142639D01*
X5145139Y3144608D01*
Y3154605D01*
X5122646Y3142109D02*
Y3157104D01*
X5130143Y3149606D01*
X5120147D01*
X5165132Y2760904D02*
X5167631Y2763403D01*
X5172630D01*
X5175129Y2760904D01*
Y2750907D01*
X5172630Y2748408D01*
X5167631D01*
X5165132Y2750907D01*
X5160134Y2760904D02*
X5157635Y2763403D01*
X5152636D01*
X5150137Y2760904D01*
Y2758405D01*
X5152636Y2755905D01*
X5155135D01*
X5152636D01*
X5150137Y2753406D01*
Y2750907D01*
X5152636Y2748408D01*
X5157635D01*
X5160134Y2750907D01*
X5145139Y2760904D02*
X5142639Y2763403D01*
X5137641D01*
X5135142Y2760904D01*
Y2750907D01*
X5137641Y2748408D01*
X5142639D01*
X5145139Y2750907D01*
Y2760904D01*
X5120147Y2763403D02*
X5130143D01*
Y2755905D01*
X5125145Y2758405D01*
X5122646D01*
X5120147Y2755905D01*
Y2750907D01*
X5122646Y2748408D01*
X5127644D01*
X5130143Y2750907D01*
X4670507Y3075865D02*
X4673006Y3078364D01*
X4678005D01*
X4680504Y3075865D01*
Y3065868D01*
X4678005Y3063369D01*
X4673006D01*
X4670507Y3065868D01*
X4665509Y3075865D02*
X4663009Y3078364D01*
X4658011D01*
X4655512Y3075865D01*
Y3073365D01*
X4658011Y3070866D01*
X4660510D01*
X4658011D01*
X4655512Y3068367D01*
Y3065868D01*
X4658011Y3063369D01*
X4663009D01*
X4665509Y3065868D01*
X4650513Y3075865D02*
X4648014Y3078364D01*
X4643016D01*
X4640517Y3075865D01*
Y3065868D01*
X4643016Y3063369D01*
X4648014D01*
X4650513Y3065868D01*
Y3075865D01*
X4635518Y3063369D02*
X4630520D01*
X4633019D01*
Y3078364D01*
X4635518Y3075865D01*
X4495841Y2760904D02*
X4498340Y2763403D01*
X4503338D01*
X4505838Y2760904D01*
Y2750907D01*
X4503338Y2748408D01*
X4498340D01*
X4495841Y2750907D01*
X4490842Y2760904D02*
X4488343Y2763403D01*
X4483345D01*
X4480846Y2760904D01*
Y2758405D01*
X4483345Y2755905D01*
X4485844D01*
X4483345D01*
X4480846Y2753406D01*
Y2750907D01*
X4483345Y2748408D01*
X4488343D01*
X4490842Y2750907D01*
X4475847Y2760904D02*
X4473348Y2763403D01*
X4468350D01*
X4465850Y2760904D01*
Y2750907D01*
X4468350Y2748408D01*
X4473348D01*
X4475847Y2750907D01*
Y2760904D01*
X4460852D02*
X4458353Y2763403D01*
X4453355D01*
X4450855Y2760904D01*
Y2758405D01*
X4453355Y2755905D01*
X4455854D01*
X4453355D01*
X4450855Y2753406D01*
Y2750907D01*
X4453355Y2748408D01*
X4458353D01*
X4460852Y2750907D01*
X5055275Y3386833D02*
X5058809D01*
X5062344Y3383299D01*
Y3379764D01*
X5055275Y3372696D01*
X5051740D01*
X5048206Y3376230D01*
Y3379764D01*
X5035836Y3388600D02*
X5042904Y3381532D01*
Y3395669D01*
X5044672Y3397436D01*
X5048206D01*
X5051740Y3393902D01*
Y3390368D01*
X5027000Y3397436D02*
X5037603Y3408040D01*
Y3397436D01*
X5030534Y3404505D01*
X5032301Y3413341D02*
X5025233Y3420410D01*
X5023465Y3418643D01*
Y3404505D01*
X5021698Y3402738D01*
X4082455Y3006967D02*
X4084954Y3009466D01*
X4089953D01*
X4092452Y3006967D01*
Y2996970D01*
X4089953Y2994471D01*
X4084954D01*
X4082455Y2996970D01*
X4067460Y2994471D02*
X4077457D01*
X4067460Y3004468D01*
Y3006967D01*
X4069959Y3009466D01*
X4074957D01*
X4077457Y3006967D01*
X4052465Y3009466D02*
X4062461D01*
Y3001968D01*
X4057463Y3004468D01*
X4054964D01*
X4052465Y3001968D01*
Y2996970D01*
X4054964Y2994471D01*
X4059962D01*
X4062461Y2996970D01*
X4047466D02*
X4044967Y2994471D01*
X4039969D01*
X4037469Y2996970D01*
Y3006967D01*
X4039969Y3009466D01*
X4044967D01*
X4047466Y3006967D01*
Y3004468D01*
X4044967Y3001968D01*
X4037469D01*
X4751746Y3006967D02*
X4754246Y3009466D01*
X4759244D01*
X4761743Y3006967D01*
Y2996970D01*
X4759244Y2994471D01*
X4754246D01*
X4751746Y2996970D01*
X4736751Y2994471D02*
X4746748D01*
X4736751Y3004468D01*
Y3006967D01*
X4739250Y3009466D01*
X4744249D01*
X4746748Y3006967D01*
X4721756Y3009466D02*
X4726754Y3006967D01*
X4731753Y3001968D01*
Y2996970D01*
X4729254Y2994471D01*
X4724255D01*
X4721756Y2996970D01*
Y2999469D01*
X4724255Y3001968D01*
X4731753D01*
X4706761Y2994471D02*
X4716758D01*
X4706761Y3004468D01*
Y3006967D01*
X4709260Y3009466D01*
X4714258D01*
X4716758Y3006967D01*
X4996220Y3445888D02*
X4999754D01*
X5003289Y3442354D01*
Y3438820D01*
X4996220Y3431751D01*
X4992685D01*
X4989151Y3435285D01*
Y3438820D01*
X4976781Y3447655D02*
X4983850Y3440587D01*
Y3454724D01*
X4985617Y3456492D01*
X4989151D01*
X4992685Y3452957D01*
Y3449423D01*
X4967945Y3456492D02*
X4978548Y3467095D01*
Y3456492D01*
X4971479Y3463560D01*
Y3470629D02*
Y3474164D01*
X4967945Y3477698D01*
X4964410D01*
X4962643Y3475931D01*
Y3472396D01*
X4959109D01*
X4957342Y3470629D01*
Y3467095D01*
X4960876Y3463560D01*
X4964410D01*
X4966177Y3465327D01*
Y3468862D01*
X4969712D01*
X4971479Y3470629D01*
X4966177Y3468862D02*
X4962643Y3472396D01*
X4178227Y3673450D02*
X4180726Y3670951D01*
Y3665953D01*
X4178227Y3663454D01*
X4168230D01*
X4165731Y3665953D01*
Y3670951D01*
X4168230Y3673450D01*
X4165731Y3688445D02*
Y3678449D01*
X4175727Y3688445D01*
X4178227D01*
X4180726Y3685946D01*
Y3680948D01*
X4178227Y3678449D01*
X4180726Y3703441D02*
Y3693444D01*
X4173228D01*
X4175727Y3698442D01*
Y3700941D01*
X4173228Y3703441D01*
X4168230D01*
X4165731Y3700941D01*
Y3695943D01*
X4168230Y3693444D01*
X4180726Y3718436D02*
X4178227Y3713438D01*
X4173228Y3708439D01*
X4168230D01*
X4165731Y3710938D01*
Y3715937D01*
X4168230Y3718436D01*
X4170729D01*
X4173228Y3715937D01*
Y3708439D01*
X9197227Y3720164D02*
X9212222D01*
Y3727661D01*
X9209723Y3730161D01*
X9204724D01*
X9202225Y3727661D01*
Y3720164D01*
Y3725162D02*
X9197227Y3730161D01*
Y3745156D02*
Y3735159D01*
X9207224Y3745156D01*
X9209723D01*
X9212222Y3742657D01*
Y3737658D01*
X9209723Y3735159D01*
Y3750154D02*
X9212222Y3752653D01*
Y3757652D01*
X9209723Y3760151D01*
X9199726D01*
X9197227Y3757652D01*
Y3752653D01*
X9199726Y3750154D01*
X9209723D01*
X9165731Y3721413D02*
X9180726D01*
Y3728911D01*
X9178227Y3731410D01*
X9173228D01*
X9170729Y3728911D01*
Y3721413D01*
Y3726412D02*
X9165731Y3731410D01*
Y3736409D02*
Y3741407D01*
Y3738908D01*
X9180726D01*
X9178227Y3736409D01*
X9168230Y3748905D02*
X9165731Y3751404D01*
Y3756402D01*
X9168230Y3758901D01*
X9178227D01*
X9180726Y3756402D01*
Y3751404D01*
X9178227Y3748905D01*
X9175728D01*
X9173228Y3751404D01*
Y3758901D01*
X9256282Y3721413D02*
X9271277D01*
Y3728911D01*
X9268778Y3731410D01*
X9263780D01*
X9261280Y3728911D01*
Y3721413D01*
Y3726412D02*
X9256282Y3731410D01*
Y3736409D02*
Y3741407D01*
Y3738908D01*
X9271277D01*
X9268778Y3736409D01*
Y3748905D02*
X9271277Y3751404D01*
Y3756402D01*
X9268778Y3758901D01*
X9266279D01*
X9263780Y3756402D01*
X9261280Y3758901D01*
X9258781D01*
X9256282Y3756402D01*
Y3751404D01*
X9258781Y3748905D01*
X9261280D01*
X9263780Y3751404D01*
X9266279Y3748905D01*
X9268778D01*
X9263780Y3751404D02*
Y3756402D01*
X9224786Y3721413D02*
X9239781D01*
Y3728911D01*
X9237282Y3731410D01*
X9232283D01*
X9229784Y3728911D01*
Y3721413D01*
Y3726412D02*
X9224786Y3731410D01*
Y3736409D02*
Y3741407D01*
Y3738908D01*
X9239781D01*
X9237282Y3736409D01*
X9239781Y3748905D02*
Y3758901D01*
X9237282D01*
X9227285Y3748905D01*
X9224786D01*
X9138172Y3721413D02*
X9153167D01*
Y3728911D01*
X9150668Y3731410D01*
X9145669D01*
X9143170Y3728911D01*
Y3721413D01*
Y3726412D02*
X9138172Y3731410D01*
Y3736409D02*
Y3741407D01*
Y3738908D01*
X9153167D01*
X9150668Y3736409D01*
X9153167Y3758901D02*
X9150668Y3753903D01*
X9145669Y3748905D01*
X9140671D01*
X9138172Y3751404D01*
Y3756402D01*
X9140671Y3758901D01*
X9143170D01*
X9145669Y3756402D01*
Y3748905D01*
X6526242Y3063369D02*
Y3078364D01*
X6518744D01*
X6516245Y3075865D01*
Y3070866D01*
X6518744Y3068367D01*
X6526242D01*
X6521243D02*
X6516245Y3063369D01*
X6501250D02*
X6511246D01*
X6501250Y3073365D01*
Y3075865D01*
X6503749Y3078364D01*
X6508747D01*
X6511246Y3075865D01*
X6496251Y3063369D02*
X6491253D01*
X6493752D01*
Y3078364D01*
X6496251Y3075865D01*
X6476258Y3063369D02*
Y3078364D01*
X6483755Y3070866D01*
X6473758D01*
X7262502Y2655011D02*
X7277498D01*
Y2662509D01*
X7274998Y2665008D01*
X7270000D01*
X7267501Y2662509D01*
Y2655011D01*
X7262502Y2670006D02*
X7277498D01*
Y2677504D01*
X7274998Y2680003D01*
X7270000D01*
X7267501Y2677504D01*
Y2670006D01*
X7262502Y2694998D02*
Y2685002D01*
X7272499Y2694998D01*
X7274998D01*
X7277498Y2692499D01*
Y2687501D01*
X7274998Y2685002D01*
Y2699997D02*
X7277498Y2702496D01*
Y2707494D01*
X7274998Y2709994D01*
X7265002D01*
X7262502Y2707494D01*
Y2702496D01*
X7265002Y2699997D01*
X7274998D01*
Y2714992D02*
X7277498Y2717491D01*
Y2722490D01*
X7274998Y2724989D01*
X7272499D01*
X7270000Y2722490D01*
X7267501Y2724989D01*
X7265002D01*
X7262502Y2722490D01*
Y2717491D01*
X7265002Y2714992D01*
X7267501D01*
X7270000Y2717491D01*
X7272499Y2714992D01*
X7274998D01*
X7270000Y2717491D02*
Y2722490D01*
X7022502Y2665011D02*
X7037498D01*
Y2672509D01*
X7034998Y2675008D01*
X7030000D01*
X7027501Y2672509D01*
Y2665011D01*
X7022502Y2680006D02*
X7037498D01*
Y2687504D01*
X7034998Y2690003D01*
X7030000D01*
X7027501Y2687504D01*
Y2680006D01*
X7022502Y2704998D02*
Y2695002D01*
X7032499Y2704998D01*
X7034998D01*
X7037498Y2702499D01*
Y2697501D01*
X7034998Y2695002D01*
Y2709997D02*
X7037498Y2712496D01*
Y2717494D01*
X7034998Y2719994D01*
X7025002D01*
X7022502Y2717494D01*
Y2712496D01*
X7025002Y2709997D01*
X7034998D01*
X7037498Y2724992D02*
Y2734989D01*
X7034998D01*
X7025002Y2724992D01*
X7022502D01*
X7262502Y2865011D02*
X7277498D01*
Y2872509D01*
X7274998Y2875008D01*
X7270000D01*
X7267501Y2872509D01*
Y2865011D01*
X7262502Y2880006D02*
X7277498D01*
Y2887504D01*
X7274998Y2890003D01*
X7270000D01*
X7267501Y2887504D01*
Y2880006D01*
X7262502Y2904998D02*
Y2895002D01*
X7272499Y2904998D01*
X7274998D01*
X7277498Y2902499D01*
Y2897501D01*
X7274998Y2895002D01*
Y2909997D02*
X7277498Y2912496D01*
Y2917494D01*
X7274998Y2919994D01*
X7265002D01*
X7262502Y2917494D01*
Y2912496D01*
X7265002Y2909997D01*
X7274998D01*
X7277498Y2934989D02*
X7274998Y2929990D01*
X7270000Y2924992D01*
X7265002D01*
X7262502Y2927491D01*
Y2932490D01*
X7265002Y2934989D01*
X7267501D01*
X7270000Y2932490D01*
Y2924992D01*
X7262502Y2765011D02*
X7277498D01*
Y2772509D01*
X7274998Y2775008D01*
X7270000D01*
X7267501Y2772509D01*
Y2765011D01*
X7262502Y2780006D02*
X7277498D01*
Y2787504D01*
X7274998Y2790003D01*
X7270000D01*
X7267501Y2787504D01*
Y2780006D01*
X7262502Y2804998D02*
Y2795002D01*
X7272499Y2804998D01*
X7274998D01*
X7277498Y2802499D01*
Y2797501D01*
X7274998Y2795002D01*
Y2809997D02*
X7277498Y2812496D01*
Y2817494D01*
X7274998Y2819994D01*
X7265002D01*
X7262502Y2817494D01*
Y2812496D01*
X7265002Y2809997D01*
X7274998D01*
X7277498Y2834989D02*
Y2824992D01*
X7270000D01*
X7272499Y2829990D01*
Y2832490D01*
X7270000Y2834989D01*
X7265002D01*
X7262502Y2832490D01*
Y2827491D01*
X7265002Y2824992D01*
X7022502Y2865011D02*
X7037498D01*
Y2872509D01*
X7034998Y2875008D01*
X7030000D01*
X7027501Y2872509D01*
Y2865011D01*
X7022502Y2880006D02*
X7037498D01*
Y2887504D01*
X7034998Y2890003D01*
X7030000D01*
X7027501Y2887504D01*
Y2880006D01*
X7022502Y2904998D02*
Y2895002D01*
X7032499Y2904998D01*
X7034998D01*
X7037498Y2902499D01*
Y2897501D01*
X7034998Y2895002D01*
Y2909997D02*
X7037498Y2912496D01*
Y2917494D01*
X7034998Y2919994D01*
X7025002D01*
X7022502Y2917494D01*
Y2912496D01*
X7025002Y2909997D01*
X7034998D01*
X7022502Y2932490D02*
X7037498D01*
X7030000Y2924992D01*
Y2934989D01*
X7022502Y2965011D02*
X7037498D01*
Y2972509D01*
X7034998Y2975008D01*
X7030000D01*
X7027501Y2972509D01*
Y2965011D01*
X7022502Y2980006D02*
X7037498D01*
Y2987504D01*
X7034998Y2990003D01*
X7030000D01*
X7027501Y2987504D01*
Y2980006D01*
X7022502Y3004998D02*
Y2995002D01*
X7032499Y3004998D01*
X7034998D01*
X7037498Y3002499D01*
Y2997501D01*
X7034998Y2995002D01*
Y3009997D02*
X7037498Y3012496D01*
Y3017494D01*
X7034998Y3019994D01*
X7025002D01*
X7022502Y3017494D01*
Y3012496D01*
X7025002Y3009997D01*
X7034998D01*
Y3024992D02*
X7037498Y3027491D01*
Y3032490D01*
X7034998Y3034989D01*
X7032499D01*
X7030000Y3032490D01*
Y3029990D01*
Y3032490D01*
X7027501Y3034989D01*
X7025002D01*
X7022502Y3032490D01*
Y3027491D01*
X7025002Y3024992D01*
X7262502Y2965011D02*
X7277498D01*
Y2972509D01*
X7274998Y2975008D01*
X7270000D01*
X7267501Y2972509D01*
Y2965011D01*
X7262502Y2980006D02*
X7277498D01*
Y2987504D01*
X7274998Y2990003D01*
X7270000D01*
X7267501Y2987504D01*
Y2980006D01*
X7262502Y3004998D02*
Y2995002D01*
X7272499Y3004998D01*
X7274998D01*
X7277498Y3002499D01*
Y2997501D01*
X7274998Y2995002D01*
Y3009997D02*
X7277498Y3012496D01*
Y3017494D01*
X7274998Y3019994D01*
X7265002D01*
X7262502Y3017494D01*
Y3012496D01*
X7265002Y3009997D01*
X7274998D01*
X7262502Y3034989D02*
Y3024992D01*
X7272499Y3034989D01*
X7274998D01*
X7277498Y3032490D01*
Y3027491D01*
X7274998Y3024992D01*
X7022502Y2767510D02*
X7037498D01*
Y2775008D01*
X7034998Y2777507D01*
X7030000D01*
X7027501Y2775008D01*
Y2767510D01*
X7022502Y2782506D02*
X7037498D01*
Y2790003D01*
X7034998Y2792502D01*
X7030000D01*
X7027501Y2790003D01*
Y2782506D01*
X7022502Y2807498D02*
Y2797501D01*
X7032499Y2807498D01*
X7034998D01*
X7037498Y2804998D01*
Y2800000D01*
X7034998Y2797501D01*
Y2812496D02*
X7037498Y2814995D01*
Y2819994D01*
X7034998Y2822493D01*
X7025002D01*
X7022502Y2819994D01*
Y2814995D01*
X7025002Y2812496D01*
X7034998D01*
X7022502Y2827491D02*
Y2832490D01*
Y2829990D01*
X7037498D01*
X7034998Y2827491D01*
X6676789Y2793032D02*
Y2798031D01*
Y2795532D01*
X6661794D01*
Y2793032D01*
Y2798031D01*
X6674290Y2815525D02*
X6676789Y2813026D01*
Y2808028D01*
X6674290Y2805528D01*
X6664293D01*
X6661794Y2808028D01*
Y2813026D01*
X6664293Y2815525D01*
X6661794Y2830520D02*
Y2820523D01*
X6671791Y2830520D01*
X6674290D01*
X6676789Y2828021D01*
Y2823023D01*
X6674290Y2820523D01*
Y2835519D02*
X6676789Y2838018D01*
Y2843016D01*
X6674290Y2845515D01*
X6664293D01*
X6661794Y2843016D01*
Y2838018D01*
X6664293Y2835519D01*
X6674290D01*
X6661794Y2858012D02*
X6676789D01*
X6669291Y2850514D01*
Y2860511D01*
X6717597Y2907702D02*
X6720096Y2905203D01*
Y2900205D01*
X6717597Y2897706D01*
X6707600D01*
X6705101Y2900205D01*
Y2905203D01*
X6707600Y2907702D01*
X6705101Y2922698D02*
Y2912701D01*
X6715097Y2922698D01*
X6717597D01*
X6720096Y2920198D01*
Y2915200D01*
X6717597Y2912701D01*
X6705101Y2935194D02*
X6720096D01*
X6712598Y2927696D01*
Y2937693D01*
X6720096Y2952688D02*
X6717597Y2947690D01*
X6712598Y2942691D01*
X6707600D01*
X6705101Y2945190D01*
Y2950189D01*
X6707600Y2952688D01*
X6710099D01*
X6712598Y2950189D01*
Y2942691D01*
X8673913Y2873639D02*
Y2858644D01*
X8666416D01*
X8663916Y2861143D01*
Y2871140D01*
X8666416Y2873639D01*
X8673913D01*
X8651421Y2858644D02*
Y2873639D01*
X8658918Y2866142D01*
X8648921D01*
X9227661Y2862581D02*
Y2877576D01*
X9235159D01*
X9237658Y2875077D01*
Y2865080D01*
X9235159Y2862581D01*
X9227661D01*
X9242656Y2865080D02*
X9245156Y2862581D01*
X9250154D01*
X9252653Y2865080D01*
Y2867579D01*
X9250154Y2870079D01*
X9247655D01*
X9250154D01*
X9252653Y2872578D01*
Y2875077D01*
X9250154Y2877576D01*
X9245156D01*
X9242656Y2875077D01*
X5729308Y2543464D02*
Y2546998D01*
X5732843Y2550533D01*
X5736377D01*
X5743446Y2543464D01*
Y2539930D01*
X5739912Y2536395D01*
X5736377D01*
X5727541Y2524025D02*
X5734610Y2531093D01*
X5720472D01*
X5718705Y2532861D01*
Y2536395D01*
X5722239Y2539930D01*
X5725774D01*
X5715171Y2529326D02*
X5711636D01*
X5708102Y2525792D01*
Y2522258D01*
X5715171Y2515189D01*
X5718705D01*
X5722239Y2518723D01*
Y2522258D01*
X5715171Y2529326D01*
X5706335Y2502818D02*
X5713404Y2509887D01*
X5699266D01*
X5697499Y2511654D01*
Y2515189D01*
X5701033Y2518723D01*
X5704568D01*
X6164601Y3465628D02*
X6167101Y3468128D01*
X6172099D01*
X6174598Y3465628D01*
Y3455631D01*
X6172099Y3453132D01*
X6167101D01*
X6164601Y3455631D01*
X6149606Y3453132D02*
X6159603D01*
X6149606Y3463129D01*
Y3465628D01*
X6152105Y3468128D01*
X6157104D01*
X6159603Y3465628D01*
X6144608D02*
X6142109Y3468128D01*
X6137110D01*
X6134611Y3465628D01*
Y3455631D01*
X6137110Y3453132D01*
X6142109D01*
X6144608Y3455631D01*
Y3465628D01*
X6129613Y3453132D02*
X6124614D01*
X6127114D01*
Y3468128D01*
X6129613Y3465628D01*
X9405743Y3022715D02*
X9408242Y3025214D01*
X9413241D01*
X9415740Y3022715D01*
Y3012718D01*
X9413241Y3010219D01*
X9408242D01*
X9405743Y3012718D01*
X9393247Y3025214D02*
X9398246D01*
X9400745Y3022715D01*
Y3012718D01*
X9398246Y3010219D01*
X9393247D01*
X9390748Y3012718D01*
Y3022715D01*
X9393247Y3025214D01*
X9375753Y3022715D02*
X9378252Y3025214D01*
X9383250D01*
X9385750Y3022715D01*
Y3012718D01*
X9383250Y3010219D01*
X9378252D01*
X9375753Y3012718D01*
Y3017716D01*
X9380751D01*
X9370754Y3010219D02*
X9365756D01*
X9368255D01*
Y3025214D01*
X9370754Y3022715D01*
X2412078Y3959133D02*
X2422075D01*
Y3951635D01*
X2417076D01*
X2422075D01*
Y3944138D01*
X2407080D02*
X2402081D01*
X2404580D01*
Y3954135D01*
X2407080D01*
X2384587Y3959133D02*
Y3944138D01*
X2392084D01*
X2394584Y3946637D01*
Y3951635D01*
X2392084Y3954135D01*
X2384587D01*
X2379588Y3956634D02*
X2377089Y3959133D01*
X2372091D01*
X2369592Y3956634D01*
Y3954135D01*
X2372091Y3951635D01*
X2369592Y3949136D01*
Y3946637D01*
X2372091Y3944138D01*
X2377089D01*
X2379588Y3946637D01*
Y3949136D01*
X2377089Y3951635D01*
X2379588Y3954135D01*
Y3956634D01*
X2377089Y3951635D02*
X2372091D01*
X9971133Y2187479D02*
X9981130D01*
Y2179982D01*
X9976131D01*
X9981130D01*
Y2172484D01*
X9966135D02*
X9961136D01*
X9963636D01*
Y2182481D01*
X9966135D01*
X9943642Y2187479D02*
Y2172484D01*
X9951139D01*
X9953639Y2174983D01*
Y2179982D01*
X9951139Y2182481D01*
X9943642D01*
X9938644Y2187479D02*
X9928647D01*
Y2184980D01*
X9938644Y2174983D01*
Y2172484D01*
X7963259Y2187479D02*
X7973256D01*
Y2179982D01*
X7968257D01*
X7973256D01*
Y2172484D01*
X7958261D02*
X7953262D01*
X7955761D01*
Y2182481D01*
X7958261D01*
X7935768Y2187479D02*
Y2172484D01*
X7943266D01*
X7945765Y2174983D01*
Y2179982D01*
X7943266Y2182481D01*
X7935768D01*
X7920773Y2187479D02*
X7925771Y2184980D01*
X7930770Y2179982D01*
Y2174983D01*
X7928270Y2172484D01*
X7923272D01*
X7920773Y2174983D01*
Y2177483D01*
X7923272Y2179982D01*
X7930770D01*
X8514440Y3841023D02*
X8524437D01*
Y3833525D01*
X8519439D01*
X8524437D01*
Y3826028D01*
X8509442D02*
X8504443D01*
X8506943D01*
Y3836024D01*
X8509442D01*
X8486949Y3841023D02*
Y3826028D01*
X8494447D01*
X8496946Y3828527D01*
Y3833525D01*
X8494447Y3836024D01*
X8486949D01*
X8471954Y3841023D02*
X8481951D01*
Y3833525D01*
X8476952Y3836024D01*
X8474453D01*
X8471954Y3833525D01*
Y3828527D01*
X8474453Y3826028D01*
X8479451D01*
X8481951Y3828527D01*
X6176360Y3230673D02*
Y3234207D01*
X6179895Y3237742D01*
X6183429D01*
X6190498Y3230673D01*
Y3227139D01*
X6186963Y3223604D01*
X6183429D01*
X6174593Y3211234D02*
X6181662Y3218303D01*
X6167524D01*
X6165757Y3220070D01*
Y3223604D01*
X6169291Y3227139D01*
X6172826D01*
X6163990Y3200631D02*
X6171059Y3207700D01*
X6156921D01*
X6155154Y3209467D01*
Y3213001D01*
X6158688Y3216535D01*
X6162222D01*
X6160455Y3197096D02*
X6156921Y3193562D01*
X6158688Y3195329D01*
X6148085Y3205932D01*
X6151619D01*
X6248188Y2684077D02*
X6251723D01*
X6255257Y2680543D01*
Y2677009D01*
X6248188Y2669940D01*
X6244654D01*
X6241120Y2673474D01*
Y2677009D01*
X6228749Y2685845D02*
X6235818Y2678776D01*
Y2692913D01*
X6237585Y2694681D01*
X6241120D01*
X6244654Y2691146D01*
Y2687612D01*
X6218146Y2696448D02*
X6225215Y2689379D01*
Y2703517D01*
X6226982Y2705284D01*
X6230516D01*
X6234051Y2701749D01*
Y2698215D01*
X6223448Y2708818D02*
Y2712353D01*
X6219913Y2715887D01*
X6216379D01*
X6209310Y2708818D01*
Y2705284D01*
X6212844Y2701749D01*
X6216379D01*
X6223448Y2708818D01*
X6211872Y2649528D02*
X6215406D01*
X6218940Y2645994D01*
Y2642459D01*
X6211872Y2635390D01*
X6208337D01*
X6204803Y2638925D01*
Y2642459D01*
X6192432Y2651295D02*
X6199501Y2644226D01*
Y2658364D01*
X6201268Y2660131D01*
X6204803D01*
X6208337Y2656597D01*
Y2653062D01*
X6188898Y2654829D02*
X6185364Y2658364D01*
X6187131Y2656597D01*
X6197734Y2667200D01*
Y2663666D01*
X6181829Y2665433D02*
X6178295D01*
X6174760Y2668967D01*
Y2672501D01*
X6181829Y2679570D01*
X6185364D01*
X6188898Y2676036D01*
Y2672501D01*
X6187131Y2670734D01*
X6183596D01*
X6178295Y2676036D01*
X5669370Y2652817D02*
Y2656351D01*
X5672904Y2659885D01*
X5676438D01*
X5683507Y2652817D01*
Y2649282D01*
X5679973Y2645748D01*
X5676438D01*
X5667602Y2633377D02*
X5674671Y2640446D01*
X5660534D01*
X5658766Y2642213D01*
Y2645748D01*
X5662301Y2649282D01*
X5665835D01*
X5664068Y2629843D02*
X5660534Y2626309D01*
X5662301Y2628076D01*
X5651698Y2638679D01*
X5655232D01*
X5646396Y2629843D02*
X5642862D01*
X5639327Y2626309D01*
Y2622774D01*
X5641094Y2621007D01*
X5644629D01*
Y2617473D01*
X5646396Y2615705D01*
X5649930D01*
X5653465Y2619240D01*
Y2622774D01*
X5651698Y2624541D01*
X5648163D01*
Y2628076D01*
X5646396Y2629843D01*
X5648163Y2624541D02*
X5644629Y2621007D01*
X5630000Y2688250D02*
Y2691784D01*
X5633534Y2695318D01*
X5637068D01*
X5644137Y2688250D01*
Y2684715D01*
X5640603Y2681181D01*
X5637068D01*
X5628232Y2668810D02*
X5635301Y2675879D01*
X5621164D01*
X5619396Y2677646D01*
Y2681181D01*
X5622931Y2684715D01*
X5626465D01*
X5624698Y2665276D02*
X5621164Y2661742D01*
X5622931Y2663509D01*
X5612328Y2674112D01*
X5615862D01*
X5605259Y2667043D02*
X5598190Y2659974D01*
X5599957Y2658207D01*
X5614095D01*
X5615862Y2656440D01*
X5563070Y2751242D02*
Y2754776D01*
X5566605Y2758311D01*
X5570139D01*
X5577208Y2751242D01*
Y2747707D01*
X5573674Y2744173D01*
X5570139D01*
X5561303Y2731803D02*
X5568372Y2738871D01*
X5554234D01*
X5552467Y2740639D01*
Y2744173D01*
X5556002Y2747707D01*
X5559536D01*
X5557769Y2728268D02*
X5554234Y2724734D01*
X5556002Y2726501D01*
X5545399Y2737104D01*
X5548933D01*
X5531261Y2722967D02*
X5536562Y2724734D01*
X5543631D01*
X5547166Y2721199D01*
Y2717665D01*
X5543631Y2714131D01*
X5540097D01*
X5538330Y2715898D01*
Y2719432D01*
X5543631Y2724734D01*
X5613447Y3184961D02*
X5616981D01*
X5620515Y3181427D01*
Y3177892D01*
X5613447Y3170823D01*
X5609912D01*
X5606378Y3174358D01*
Y3177892D01*
X5594007Y3186728D02*
X5601076Y3179659D01*
Y3193797D01*
X5602843Y3195564D01*
X5606378D01*
X5609912Y3192030D01*
Y3188495D01*
X5590473Y3190262D02*
X5586939Y3193797D01*
X5588706Y3192030D01*
X5599309Y3202633D01*
Y3199099D01*
X5585171Y3216771D02*
X5592240Y3209702D01*
X5586939Y3204400D01*
X5585171Y3209702D01*
X5583404Y3211469D01*
X5579870D01*
X5576335Y3207934D01*
Y3204400D01*
X5579870Y3200866D01*
X5583404D01*
X5648880Y3220394D02*
X5652414D01*
X5655948Y3216860D01*
Y3213325D01*
X5648880Y3206256D01*
X5645345D01*
X5641811Y3209791D01*
Y3213325D01*
X5629440Y3222161D02*
X5636509Y3215092D01*
Y3229230D01*
X5638276Y3230997D01*
X5641811D01*
X5645345Y3227463D01*
Y3223928D01*
X5625906Y3225696D02*
X5622372Y3229230D01*
X5624139Y3227463D01*
X5634742Y3238066D01*
Y3234532D01*
X5611768Y3239833D02*
X5622372Y3250436D01*
Y3239833D01*
X5615303Y3246902D01*
X5715809Y3287323D02*
X5719343D01*
X5722877Y3283789D01*
Y3280254D01*
X5715809Y3273186D01*
X5712274D01*
X5708740Y3276720D01*
Y3280254D01*
X5696369Y3289090D02*
X5703438Y3282021D01*
Y3296159D01*
X5705206Y3297926D01*
X5708740D01*
X5712274Y3294392D01*
Y3290858D01*
X5692835Y3292625D02*
X5689301Y3296159D01*
X5691068Y3294392D01*
X5701671Y3304995D01*
Y3301461D01*
X5692835Y3310297D02*
Y3313831D01*
X5689301Y3317365D01*
X5685766D01*
X5683999Y3315598D01*
Y3312064D01*
X5685766Y3310297D01*
X5683999Y3312064D01*
X5680465D01*
X5678698Y3310297D01*
Y3306762D01*
X5682232Y3303228D01*
X5685766D01*
X5921757Y2674290D02*
X5924256Y2676789D01*
X5929254D01*
X5931753Y2674290D01*
Y2664293D01*
X5929254Y2661794D01*
X5924256D01*
X5921757Y2664293D01*
X5906761Y2661794D02*
X5916758D01*
X5906761Y2671791D01*
Y2674290D01*
X5909261Y2676789D01*
X5914259D01*
X5916758Y2674290D01*
X5901763Y2661794D02*
X5896765D01*
X5899264D01*
Y2676789D01*
X5901763Y2674290D01*
X5879270Y2661794D02*
X5889267D01*
X5879270Y2671791D01*
Y2674290D01*
X5881769Y2676789D01*
X5886768D01*
X5889267Y2674290D01*
X6021933Y3143175D02*
Y3146710D01*
X6025467Y3150244D01*
X6029002D01*
X6036071Y3143175D01*
Y3139641D01*
X6032536Y3136106D01*
X6029002D01*
X6020166Y3123736D02*
X6027235Y3130805D01*
X6013097D01*
X6011330Y3132572D01*
Y3136106D01*
X6014864Y3139641D01*
X6018399D01*
X6016632Y3120202D02*
X6013097Y3116667D01*
X6014864Y3118434D01*
X6004261Y3129038D01*
X6007796D01*
Y3111366D02*
X6004261Y3107831D01*
X6006028Y3109599D01*
X5995425Y3120202D01*
X5998959D01*
X5988267Y3180376D02*
Y3183910D01*
X5991802Y3187444D01*
X5995336D01*
X6002405Y3180376D01*
Y3176841D01*
X5998870Y3173307D01*
X5995336D01*
X5986500Y3160936D02*
X5993569Y3168005D01*
X5979431D01*
X5977664Y3169772D01*
Y3173307D01*
X5981199Y3176841D01*
X5984733D01*
X5982966Y3157402D02*
X5979431Y3153868D01*
X5981199Y3155635D01*
X5970595Y3166238D01*
X5974130D01*
X5965294Y3157402D02*
X5961759D01*
X5958225Y3153868D01*
Y3150333D01*
X5965294Y3143264D01*
X5968828D01*
X5972363Y3146799D01*
Y3150333D01*
X5965294Y3157402D01*
X6256062Y2743133D02*
X6259597D01*
X6263131Y2739598D01*
Y2736064D01*
X6256062Y2728995D01*
X6252528D01*
X6248994Y2732529D01*
Y2736064D01*
X6236623Y2744900D02*
X6243692Y2737831D01*
Y2751968D01*
X6245459Y2753736D01*
X6248994D01*
X6252528Y2750201D01*
Y2746667D01*
X6241925Y2757270D02*
Y2760805D01*
X6238390Y2764339D01*
X6234856D01*
X6227787Y2757270D01*
Y2753736D01*
X6231322Y2750201D01*
X6234856D01*
X6241925Y2757270D01*
X6224253Y2760805D02*
X6220718D01*
X6217184Y2764339D01*
Y2767873D01*
X6224253Y2774942D01*
X6227787D01*
X6231322Y2771408D01*
Y2767873D01*
X6229554Y2766106D01*
X6226020D01*
X6220718Y2771408D01*
X6157637Y2636833D02*
X6161172D01*
X6164706Y2633299D01*
Y2629764D01*
X6157637Y2622696D01*
X6154103D01*
X6150568Y2626230D01*
Y2629764D01*
X6138198Y2638600D02*
X6145267Y2631532D01*
Y2645669D01*
X6147034Y2647436D01*
X6150568D01*
X6154103Y2643902D01*
Y2640368D01*
X6143499Y2650971D02*
Y2654505D01*
X6139965Y2658040D01*
X6136431D01*
X6129362Y2650971D01*
Y2647436D01*
X6132896Y2643902D01*
X6136431D01*
X6143499Y2650971D01*
X6132896Y2661574D02*
Y2665108D01*
X6129362Y2668643D01*
X6125828D01*
X6124060Y2666876D01*
Y2663341D01*
X6120526D01*
X6118759Y2661574D01*
Y2658040D01*
X6122293Y2654505D01*
X6125828D01*
X6127595Y2656272D01*
Y2659807D01*
X6131129D01*
X6132896Y2661574D01*
X6127595Y2659807D02*
X6124060Y2663341D01*
X5717497Y2637952D02*
Y2641486D01*
X5721032Y2645021D01*
X5724566D01*
X5731635Y2637952D01*
Y2634418D01*
X5728101Y2630883D01*
X5724566D01*
X5715730Y2618513D02*
X5722799Y2625582D01*
X5708661D01*
X5706894Y2627349D01*
Y2630883D01*
X5710429Y2634418D01*
X5713963D01*
X5703360Y2623814D02*
X5699825D01*
X5696291Y2620280D01*
Y2616746D01*
X5703360Y2609677D01*
X5706894D01*
X5710429Y2613211D01*
Y2616746D01*
X5703360Y2623814D01*
X5690989Y2614978D02*
X5683921Y2607910D01*
X5685688Y2606142D01*
X5699825D01*
X5701593Y2604375D01*
X5615135Y2740314D02*
Y2743849D01*
X5618669Y2747383D01*
X5622204D01*
X5629273Y2740314D01*
Y2736780D01*
X5625738Y2733245D01*
X5622204D01*
X5613368Y2720875D02*
X5620437Y2727944D01*
X5606299D01*
X5604532Y2729711D01*
Y2733245D01*
X5608066Y2736780D01*
X5611601D01*
X5600998Y2726177D02*
X5597463D01*
X5593929Y2722642D01*
Y2719108D01*
X5600998Y2712039D01*
X5604532D01*
X5608066Y2715573D01*
Y2719108D01*
X5600998Y2726177D01*
X5581558Y2710272D02*
X5586860Y2712039D01*
X5593929D01*
X5597463Y2708505D01*
Y2704970D01*
X5593929Y2701436D01*
X5590394D01*
X5588627Y2703203D01*
Y2706738D01*
X5593929Y2712039D01*
X5594645Y3136833D02*
X5598180D01*
X5601714Y3133299D01*
Y3129765D01*
X5594645Y3122696D01*
X5591111D01*
X5587576Y3126230D01*
Y3129765D01*
X5575206Y3138601D02*
X5582275Y3131532D01*
Y3145669D01*
X5584042Y3147436D01*
X5587576D01*
X5591111Y3143902D01*
Y3140368D01*
X5580507Y3150971D02*
Y3154505D01*
X5576973Y3158040D01*
X5573439D01*
X5566370Y3150971D01*
Y3147436D01*
X5569904Y3143902D01*
X5573439D01*
X5580507Y3150971D01*
X5564603Y3170410D02*
X5571672Y3163341D01*
X5566370Y3158040D01*
X5564603Y3163341D01*
X5562836Y3165108D01*
X5559301D01*
X5555767Y3161574D01*
Y3158040D01*
X5559301Y3154505D01*
X5562836D01*
X5704881Y3227384D02*
X5708416D01*
X5711950Y3223849D01*
Y3220315D01*
X5704881Y3213246D01*
X5701347D01*
X5697813Y3216781D01*
Y3220315D01*
X5685442Y3229151D02*
X5692511Y3222082D01*
Y3236220D01*
X5694278Y3237987D01*
X5697813D01*
X5701347Y3234453D01*
Y3230918D01*
X5690744Y3241521D02*
Y3245056D01*
X5687209Y3248590D01*
X5683675D01*
X5676606Y3241521D01*
Y3237987D01*
X5680141Y3234453D01*
X5683675D01*
X5690744Y3241521D01*
X5666003Y3248590D02*
X5676606Y3259193D01*
Y3248590D01*
X5669537Y3255659D01*
X5923006Y3418384D02*
X5925505Y3420883D01*
X5930504D01*
X5933003Y3418384D01*
Y3408387D01*
X5930504Y3405888D01*
X5925505D01*
X5923006Y3408387D01*
X5908011Y3405888D02*
X5918008D01*
X5908011Y3415885D01*
Y3418384D01*
X5910510Y3420883D01*
X5915509D01*
X5918008Y3418384D01*
X5903013D02*
X5900513Y3420883D01*
X5895515D01*
X5893016Y3418384D01*
Y3408387D01*
X5895515Y3405888D01*
X5900513D01*
X5903013Y3408387D01*
Y3418384D01*
X5888017D02*
X5885518Y3420883D01*
X5880520D01*
X5878021Y3418384D01*
Y3415885D01*
X5880520Y3413386D01*
X5883019D01*
X5880520D01*
X5878021Y3410887D01*
Y3408387D01*
X5880520Y3405888D01*
X5885518D01*
X5888017Y3408387D01*
D115*
X9409447Y2864175D02*
D03*
D116*
X8639273Y2742620D02*
D03*
D117*
X8751973Y2686024D02*
D03*
X5244097Y3062996D02*
D03*
X4574801Y3062992D02*
D03*
%TF.MD5,78d989a76b936699be5eccaa7d43d05c*%
M02*
