%TF.GenerationSoftware,Altium Limited,Altium Designer,22.4.2 (48)*%
G04 Layer_Color=0*
%FSLAX26Y26*%
%MOIN*%
%TF.SameCoordinates,8C98EB32-1E12-42CD-A60B-9DA89663A72C*%
%TF.FilePolarity,Positive*%
%TF.FileFunction,Plated,1,6,Blind,Drill*%
%TF.Part,Single*%
G01*
G75*
%TA.AperFunction,ViaDrill,NotFilled*%
%ADD222C,0.003937*%
D222*
X4887795Y3740157D02*
D03*
X4218504D02*
D03*
X4730315Y3598425D02*
D03*
X4986220Y2982284D02*
D03*
X4716535Y3614173D02*
D03*
X4047244D02*
D03*
X4316929Y2982284D02*
D03*
X4061024Y3598425D02*
D03*
X4851378Y2952756D02*
D03*
X4182087D02*
D03*
X6007874Y2530905D02*
D03*
Y2513189D02*
D03*
X3003937Y2760236D02*
D03*
X2968504D02*
D03*
X2933071D02*
D03*
X2862205D02*
D03*
X2791339D02*
D03*
X2755906D02*
D03*
X6007874Y2578150D02*
D03*
Y2560433D02*
D03*
X8622047Y3146260D02*
D03*
Y3163977D02*
D03*
Y3289370D02*
D03*
Y3307087D02*
D03*
X5442323Y2582677D02*
D03*
X5460039D02*
D03*
X5546654D02*
D03*
X5528937D02*
D03*
%TF.MD5,e7135f544b8f403663058e416c11a88c*%
M02*
