%TF.GenerationSoftware,Altium Limited,Altium Designer,22.4.2 (48)*%
G04 Layer_Color=128*
%FSLAX26Y26*%
%MOIN*%
%TF.SameCoordinates,8C98EB32-1E12-42CD-A60B-9DA89663A72C*%
%TF.FilePolarity,Positive*%
%TF.FileFunction,Drillmap*%
%TF.Part,Single*%
G01*
G75*
%TA.AperFunction,NonConductor*%
%ADD228C,0.005000*%
D228*
X8719488Y2897638D02*
X8723425D01*
X8721457Y2895669D02*
Y2899606D01*
X9352756Y3066929D02*
X9356693D01*
X9354725Y3064961D02*
Y3068898D01*
X9335039Y3066929D02*
X9338976D01*
X9337008Y3064961D02*
Y3068898D01*
X9002953Y2960630D02*
X9006890D01*
X9004921Y2958662D02*
Y2962599D01*
X9020669Y2960630D02*
X9024606D01*
X9022638Y2958662D02*
Y2962599D01*
X8928150Y2767716D02*
X8932087D01*
X8930118Y2765748D02*
Y2769685D01*
X8928150Y2785433D02*
X8932087D01*
X8930118Y2783465D02*
Y2787402D01*
X8928150Y2824803D02*
X8932087D01*
X8930118Y2822835D02*
Y2826772D01*
X8928150Y2807087D02*
X8932087D01*
X8930118Y2805118D02*
Y2809055D01*
X8538386Y2879331D02*
X8542323D01*
X8540354Y2877362D02*
Y2881299D01*
X8538386Y2861614D02*
X8542323D01*
X8540354Y2859646D02*
Y2863582D01*
X8538386Y2730906D02*
X8542323D01*
X8540354Y2728937D02*
Y2732874D01*
X8538386Y2713189D02*
X8542323D01*
X8540354Y2711220D02*
Y2715157D01*
X4637303Y2808563D02*
X4643209D01*
X4640256Y2805610D02*
Y2811516D01*
X5306594Y2808563D02*
X5312499D01*
X5309546Y2805610D02*
Y2811516D01*
X4514765Y3190946D02*
X4520670D01*
X4517718Y3187993D02*
Y3193899D01*
X5183071Y3190945D02*
X5190945D01*
X5187008Y3187008D02*
Y3194882D01*
%TF.MD5,52511c734e031eb525a40cd40476802b*%
M02*
