%TF.GenerationSoftware,Altium Limited,Altium Designer,22.4.2 (48)*%
G04 Layer_Color=128*
%FSLAX26Y26*%
%MOIN*%
%TF.SameCoordinates,8C98EB32-1E12-42CD-A60B-9DA89663A72C*%
%TF.FilePolarity,Positive*%
%TF.FileFunction,Drillmap*%
%TF.Part,Single*%
G01*
G75*
%TA.AperFunction,NonConductor*%
%ADD228C,0.005000*%
D228*
X8793307Y3222060D02*
X8797244D01*
X8795276Y3220091D02*
Y3224028D01*
X8793307Y3240761D02*
X8797244D01*
X8795276Y3238792D02*
Y3242729D01*
X6005905Y2625394D02*
X6009842D01*
X6007874Y2623425D02*
Y2627362D01*
X6005905Y2607677D02*
X6009842D01*
X6007874Y2605709D02*
Y2609646D01*
X4284449Y2942913D02*
X4288386D01*
X4286417Y2940945D02*
Y2944882D01*
X4227245Y2962598D02*
X4231182D01*
X4229214Y2960630D02*
Y2964567D01*
X4284449Y2962598D02*
X4288386D01*
X4286417Y2960630D02*
Y2964567D01*
X4227169Y2942913D02*
X4231106D01*
X4229138Y2940945D02*
Y2944882D01*
X5605709Y2582677D02*
X5609646D01*
X5607677Y2580709D02*
Y2584646D01*
X5623425Y2582677D02*
X5627362D01*
X5625394Y2580709D02*
Y2584646D01*
X4953740Y2962598D02*
X4957677D01*
X4955709Y2960630D02*
Y2964567D01*
X4953740Y2942913D02*
X4957677D01*
X4955709Y2940945D02*
Y2944882D01*
X4896537Y2962598D02*
X4900474D01*
X4898505Y2960630D02*
Y2964567D01*
X4896461Y2942913D02*
X4900398D01*
X4898429Y2940945D02*
Y2944882D01*
%TF.MD5,9f411731b7512e1dda1694b8dbdd6ceb*%
M02*
