%TF.GenerationSoftware,Altium Limited,Altium Designer,22.5.1 (42)*%
G04 Layer_Color=32896*
%FSLAX26Y26*%
%MOIN*%
%TF.SameCoordinates,0DA79311-8CAD-460E-879A-7D23F4F2BAF0*%
%TF.FilePolarity,Positive*%
%TF.FileFunction,Legend,Bot*%
%TF.Part,Single*%
G01*
G75*
%TA.AperFunction,NonConductor*%
%ADD21C,0.000984*%
%ADD22C,0.003000*%
%ADD23R,0.009842X0.009842*%
D21*
X1397636Y3397638D02*
X1751968D01*
X1397636Y3528545D02*
X1751968D01*
X1397636Y3397638D02*
Y3528545D01*
X1751968Y3397638D02*
Y3528545D01*
X1397638Y3397638D02*
X1751968D01*
X2381888D02*
X2736220D01*
X2381888Y3528545D02*
X2736220D01*
X2381888Y3397638D02*
Y3528545D01*
X2736220Y3397638D02*
Y3528545D01*
X2381890Y3397638D02*
X2736220D01*
X3366140D02*
X3720472D01*
X3366140Y3528545D02*
X3720472D01*
X3366140Y3397638D02*
Y3528545D01*
X3720472Y3397638D02*
Y3528545D01*
X3366142Y3397638D02*
X3720472D01*
X6515746D02*
X6870079D01*
X6515746Y3528545D02*
X6870079D01*
X6515746Y3397638D02*
Y3528545D01*
X6870079Y3397638D02*
Y3528545D01*
X6515748Y3397638D02*
X6870079D01*
X4547242D02*
X4901575D01*
X4547242Y3528545D02*
X4901575D01*
X4547242Y3397638D02*
Y3528545D01*
X4901575Y3397638D02*
Y3528545D01*
X4547244Y3397638D02*
X4901575D01*
X5531494D02*
X5885827D01*
X5531494Y3528545D02*
X5885827D01*
X5531494Y3397638D02*
Y3528545D01*
X5885827Y3397638D02*
Y3528545D01*
X5531496Y3397638D02*
X5885827D01*
D22*
X4888913Y3564634D02*
X4891412Y3567133D01*
X4896410D01*
X4898909Y3564634D01*
Y3554637D01*
X4896410Y3552138D01*
X4891412D01*
X4888913Y3554637D01*
X4876417Y3567133D02*
X4881415D01*
X4883914Y3564634D01*
Y3554637D01*
X4881415Y3552138D01*
X4876417D01*
X4873917Y3554637D01*
Y3564634D01*
X4876417Y3567133D01*
X4868919D02*
X4858922D01*
Y3564634D01*
X4868919Y3554637D01*
Y3552138D01*
X4853924Y3564634D02*
X4851425Y3567133D01*
X4846426D01*
X4843927Y3564634D01*
Y3554637D01*
X4846426Y3552138D01*
X4851425D01*
X4853924Y3554637D01*
Y3564634D01*
X4831431Y3552138D02*
Y3567133D01*
X4838929Y3559635D01*
X4828932D01*
X6857417Y3564634D02*
X6859916Y3567133D01*
X6864914D01*
X6867413Y3564634D01*
Y3554637D01*
X6864914Y3552138D01*
X6859916D01*
X6857417Y3554637D01*
X6844921Y3567133D02*
X6849919D01*
X6852418Y3564634D01*
Y3554637D01*
X6849919Y3552138D01*
X6844921D01*
X6842421Y3554637D01*
Y3564634D01*
X6844921Y3567133D01*
X6827426D02*
X6832425Y3564634D01*
X6837423Y3559635D01*
Y3554637D01*
X6834924Y3552138D01*
X6829925D01*
X6827426Y3554637D01*
Y3557136D01*
X6829925Y3559635D01*
X6837423D01*
X6822428Y3564634D02*
X6819929Y3567133D01*
X6814930D01*
X6812431Y3564634D01*
Y3554637D01*
X6814930Y3552138D01*
X6819929D01*
X6822428Y3554637D01*
Y3564634D01*
X6799935Y3552138D02*
Y3567133D01*
X6807433Y3559635D01*
X6797436D01*
X5873165Y3564634D02*
X5875664Y3567133D01*
X5880662D01*
X5883161Y3564634D01*
Y3554637D01*
X5880662Y3552138D01*
X5875664D01*
X5873165Y3554637D01*
X5860669Y3567133D02*
X5865667D01*
X5868166Y3564634D01*
Y3554637D01*
X5865667Y3552138D01*
X5860669D01*
X5858169Y3554637D01*
Y3564634D01*
X5860669Y3567133D01*
X5843174D02*
X5853171D01*
Y3559635D01*
X5848173Y3562135D01*
X5845673D01*
X5843174Y3559635D01*
Y3554637D01*
X5845673Y3552138D01*
X5850672D01*
X5853171Y3554637D01*
X5838176Y3564634D02*
X5835677Y3567133D01*
X5830678D01*
X5828179Y3564634D01*
Y3554637D01*
X5830678Y3552138D01*
X5835677D01*
X5838176Y3554637D01*
Y3564634D01*
X5815683Y3552138D02*
Y3567133D01*
X5823181Y3559635D01*
X5813184D01*
X3707810Y3564634D02*
X3710309Y3567133D01*
X3715308D01*
X3717807Y3564634D01*
Y3554637D01*
X3715308Y3552138D01*
X3710309D01*
X3707810Y3554637D01*
X3695314Y3567133D02*
X3700313D01*
X3702812Y3564634D01*
Y3554637D01*
X3700313Y3552138D01*
X3695314D01*
X3692815Y3554637D01*
Y3564634D01*
X3695314Y3567133D01*
X3680319Y3552138D02*
Y3567133D01*
X3687817Y3559635D01*
X3677820D01*
X3672822Y3564634D02*
X3670322Y3567133D01*
X3665324D01*
X3662825Y3564634D01*
Y3554637D01*
X3665324Y3552138D01*
X3670322D01*
X3672822Y3554637D01*
Y3564634D01*
X3650329Y3552138D02*
Y3567133D01*
X3657826Y3559635D01*
X3647829D01*
X2723558Y3564634D02*
X2726057Y3567133D01*
X2731056D01*
X2733555Y3564634D01*
Y3554637D01*
X2731056Y3552138D01*
X2726057D01*
X2723558Y3554637D01*
X2711062Y3567133D02*
X2716061D01*
X2718560Y3564634D01*
Y3554637D01*
X2716061Y3552138D01*
X2711062D01*
X2708563Y3554637D01*
Y3564634D01*
X2711062Y3567133D01*
X2703565Y3564634D02*
X2701066Y3567133D01*
X2696067D01*
X2693568Y3564634D01*
Y3562135D01*
X2696067Y3559635D01*
X2698566D01*
X2696067D01*
X2693568Y3557136D01*
Y3554637D01*
X2696067Y3552138D01*
X2701066D01*
X2703565Y3554637D01*
X2688570Y3564634D02*
X2686070Y3567133D01*
X2681072D01*
X2678573Y3564634D01*
Y3554637D01*
X2681072Y3552138D01*
X2686070D01*
X2688570Y3554637D01*
Y3564634D01*
X2666077Y3552138D02*
Y3567133D01*
X2673574Y3559635D01*
X2663577D01*
X1739306Y3564634D02*
X1741805Y3567133D01*
X1746804D01*
X1749303Y3564634D01*
Y3554637D01*
X1746804Y3552138D01*
X1741805D01*
X1739306Y3554637D01*
X1726810Y3567133D02*
X1731809D01*
X1734308Y3564634D01*
Y3554637D01*
X1731809Y3552138D01*
X1726810D01*
X1724311Y3554637D01*
Y3564634D01*
X1726810Y3567133D01*
X1709316Y3552138D02*
X1719313D01*
X1709316Y3562135D01*
Y3564634D01*
X1711815Y3567133D01*
X1716813D01*
X1719313Y3564634D01*
X1704318D02*
X1701818Y3567133D01*
X1696820D01*
X1694321Y3564634D01*
Y3554637D01*
X1696820Y3552138D01*
X1701818D01*
X1704318Y3554637D01*
Y3564634D01*
X1681825Y3552138D02*
Y3567133D01*
X1689322Y3559635D01*
X1679325D01*
D23*
X1459646Y3506890D02*
D03*
X2443898D02*
D03*
X3428150D02*
D03*
X6577756D02*
D03*
X4609252D02*
D03*
X5593504D02*
D03*
%TF.MD5,c56eb2cd6206f1e30070ec95e399de01*%
M02*
