%TF.GenerationSoftware,Altium Limited,Altium Designer,22.5.1 (42)*%
G04 Layer_Physical_Order=8*
G04 Layer_Color=65280*
%FSLAX26Y26*%
%MOIN*%
%TF.SameCoordinates,0DA79311-8CAD-460E-879A-7D23F4F2BAF0*%
%TF.FilePolarity,Positive*%
%TF.FileFunction,Copper,L8,Bot,Signal*%
%TF.Part,Single*%
G01*
G75*
%TA.AperFunction,Conductor*%
%ADD10C,0.005906*%
%ADD14C,0.011811*%
%TA.AperFunction,ComponentPad*%
%ADD16C,0.043307*%
%ADD17O,0.039370X0.070866*%
%TA.AperFunction,ViaPad*%
%ADD18C,0.011811*%
%TA.AperFunction,ConnectorPad*%
%ADD20R,0.011811X0.031496*%
G36*
X6982802Y3403049D02*
X6822008D01*
Y3416260D01*
X6806102D01*
Y3426260D01*
X6822008D01*
Y3441764D01*
X6827008Y3445105D01*
X6830833Y3443520D01*
X6833582Y3443158D01*
Y3488189D01*
Y3533220D01*
X6830833Y3532858D01*
X6823612Y3529867D01*
X6817411Y3525109D01*
X6812653Y3518908D01*
X6809662Y3511686D01*
X6808921Y3506063D01*
X6801260D01*
Y3480315D01*
X6791260D01*
Y3506063D01*
X6780355D01*
X6778777Y3510410D01*
Y3528543D01*
X6778777Y3528543D01*
Y3557694D01*
X6778747Y3557847D01*
X6780447Y3561952D01*
X6784553Y3563653D01*
X6784705Y3563622D01*
X6812972D01*
Y3563499D01*
X6820772Y3564526D01*
X6828042Y3567537D01*
X6834284Y3572327D01*
X6839073Y3578569D01*
X6842084Y3585838D01*
X6843111Y3593639D01*
X6842084Y3601440D01*
X6839073Y3608709D01*
X6834284Y3614951D01*
X6828042Y3619741D01*
X6820772Y3622752D01*
X6812972Y3623779D01*
Y3623656D01*
X6784191D01*
X6784038Y3623626D01*
X6780295Y3625176D01*
X6778469Y3629584D01*
X6780295Y3633991D01*
X6784038Y3635542D01*
X6784191Y3635512D01*
X6848760D01*
Y3635389D01*
X6856561Y3636416D01*
X6863830Y3639427D01*
X6870072Y3644217D01*
X6874862Y3650459D01*
X6877873Y3657728D01*
X6878900Y3665529D01*
X6877873Y3673329D01*
X6874862Y3680599D01*
X6870072Y3686841D01*
X6863830Y3691630D01*
X6856561Y3694641D01*
X6848760Y3695668D01*
Y3695546D01*
X6784705D01*
X6784553Y3695515D01*
X6780447Y3697216D01*
X6778747Y3701321D01*
X6778777Y3701474D01*
Y3709446D01*
Y3926403D01*
X6778242Y3929091D01*
X6776719Y3931370D01*
X6765883Y3942206D01*
Y4019312D01*
X6770883Y4022199D01*
X6775184Y4019716D01*
X6782402Y4017782D01*
Y4049213D01*
Y4080643D01*
X6775184Y4078709D01*
X6770883Y4076226D01*
X6765883Y4079113D01*
Y4088927D01*
X6781640Y4104685D01*
X6783163Y4106964D01*
X6783698Y4109652D01*
Y4156794D01*
X6787071Y4158191D01*
X6789840Y4160960D01*
X6791339Y4164578D01*
Y4168493D01*
X6789840Y4172111D01*
X6787071Y4174880D01*
X6783454Y4176378D01*
X6779538D01*
X6775921Y4174880D01*
X6774860Y4173818D01*
X6771654Y4172655D01*
X6768447Y4173818D01*
X6767386Y4174880D01*
X6763769Y4176378D01*
X6759853D01*
X6756236Y4174880D01*
X6753467Y4172111D01*
X6751968Y4168493D01*
Y4164578D01*
X6753467Y4160960D01*
X6756236Y4158191D01*
X6759609Y4156794D01*
Y4116720D01*
X6743852Y4100963D01*
X6742329Y4098684D01*
X6741794Y4095995D01*
Y3935138D01*
X6742329Y3932450D01*
X6743852Y3930171D01*
X6754688Y3919334D01*
Y3709446D01*
Y3701474D01*
X6754565D01*
X6755592Y3693673D01*
X6758603Y3686404D01*
X6763393Y3680162D01*
X6769635Y3675372D01*
X6776904Y3672361D01*
X6784705Y3671334D01*
Y3671457D01*
X6848760D01*
X6848912Y3671487D01*
X6852656Y3669936D01*
X6854482Y3665529D01*
X6852656Y3661121D01*
X6848912Y3659570D01*
X6848760Y3659601D01*
X6784191D01*
Y3659724D01*
X6776390Y3658697D01*
X6769121Y3655686D01*
X6762879Y3650896D01*
X6758089Y3644654D01*
X6755078Y3637385D01*
X6754051Y3629584D01*
X6755078Y3621783D01*
X6758089Y3614514D01*
X6762879Y3608272D01*
X6769121Y3603482D01*
X6776390Y3600471D01*
X6784191Y3599444D01*
Y3599567D01*
X6812972D01*
X6813124Y3599597D01*
X6816868Y3598047D01*
X6818693Y3593639D01*
X6816868Y3589232D01*
X6813124Y3587681D01*
X6812972Y3587711D01*
X6784705D01*
Y3587834D01*
X6776904Y3586807D01*
X6769635Y3583796D01*
X6763393Y3579006D01*
X6758603Y3572764D01*
X6755592Y3565495D01*
X6754565Y3557694D01*
X6754688D01*
Y3532702D01*
X6754688Y3532702D01*
Y3500000D01*
X6747244D01*
Y3500197D01*
X6707480D01*
Y3500000D01*
X6700037D01*
Y3549756D01*
X6700006Y3549909D01*
X6701630Y3553827D01*
X6705966Y3555430D01*
Y3555431D01*
X6713708Y3556971D01*
X6720271Y3561356D01*
X6724657Y3567920D01*
X6726197Y3575662D01*
Y3575662D01*
Y3575662D01*
X6726197D01*
X6724657Y3583404D01*
X6720271Y3589967D01*
X6713708Y3594353D01*
X6705966Y3595893D01*
Y3595893D01*
X6701630Y3597496D01*
X6700006Y3601415D01*
X6700037Y3601567D01*
Y3621574D01*
Y3942932D01*
X6702900Y3945796D01*
X6704423Y3948075D01*
X6704958Y3950763D01*
Y4156794D01*
X6708331Y4158191D01*
X6711100Y4160960D01*
X6712599Y4164578D01*
Y4168493D01*
X6711100Y4172111D01*
X6708331Y4174880D01*
X6704714Y4176378D01*
X6700798D01*
X6697181Y4174880D01*
X6696120Y4173818D01*
X6692913Y4172655D01*
X6689707Y4173818D01*
X6688646Y4174880D01*
X6685029Y4176378D01*
X6681113D01*
X6677496Y4174880D01*
X6674727Y4172111D01*
X6673228Y4168493D01*
Y4164578D01*
X6674727Y4160960D01*
X6677496Y4158191D01*
X6680869Y4156794D01*
Y3957831D01*
X6678005Y3954967D01*
X6676483Y3952689D01*
X6675948Y3950000D01*
Y3617098D01*
Y3601024D01*
X6675978Y3600872D01*
X6674278Y3596766D01*
X6670172Y3595066D01*
X6670020Y3595096D01*
X6661093D01*
Y3595350D01*
X6653351Y3593810D01*
X6646787Y3589424D01*
X6642402Y3582861D01*
X6640862Y3575119D01*
Y3575119D01*
Y3575118D01*
X6640862D01*
X6642402Y3567376D01*
X6646787Y3560813D01*
X6653351Y3556427D01*
X6661093Y3554887D01*
Y3555141D01*
X6670020D01*
X6670172Y3555171D01*
X6674278Y3553471D01*
X6675978Y3549365D01*
X6675948Y3549213D01*
Y3500000D01*
X6668504D01*
Y3500197D01*
X6628740D01*
Y3500000D01*
X6621297D01*
Y3536516D01*
X6621419D01*
X6620392Y3544317D01*
X6617381Y3551586D01*
X6612592Y3557828D01*
X6606350Y3562618D01*
X6599080Y3565629D01*
X6591280Y3566656D01*
Y3566533D01*
X6527224D01*
X6527072Y3566503D01*
X6522967Y3568203D01*
X6521203Y3572461D01*
X6522967Y3576719D01*
X6527072Y3578419D01*
X6527224Y3578389D01*
X6591596D01*
Y3578266D01*
X6599396Y3579293D01*
X6606665Y3582304D01*
X6612908Y3587094D01*
X6617697Y3593336D01*
X6620708Y3600605D01*
X6621735Y3608406D01*
X6620708Y3616206D01*
X6617697Y3623476D01*
X6612908Y3629718D01*
X6606665Y3634508D01*
X6599396Y3637518D01*
X6591596Y3638545D01*
Y3638423D01*
X6564853D01*
X6564701Y3638392D01*
X6560595Y3640093D01*
X6558832Y3644351D01*
X6560595Y3648608D01*
X6564701Y3650309D01*
X6564853Y3650279D01*
X6591280D01*
Y3650156D01*
X6599080Y3651183D01*
X6606350Y3654194D01*
X6612592Y3658983D01*
X6617381Y3665226D01*
X6620392Y3672495D01*
X6621419Y3680295D01*
X6621297D01*
Y3712794D01*
Y3972453D01*
X6641975Y3993132D01*
X6643498Y3995411D01*
X6644033Y3998099D01*
Y4078430D01*
X6643498Y4081118D01*
X6641975Y4083397D01*
X6626218Y4099154D01*
Y4156794D01*
X6629591Y4158191D01*
X6632360Y4160960D01*
X6633858Y4164578D01*
Y4168493D01*
X6632360Y4172111D01*
X6629591Y4174880D01*
X6625974Y4176378D01*
X6622058D01*
X6618440Y4174880D01*
X6617379Y4173818D01*
X6614173Y4172655D01*
X6610967Y4173818D01*
X6609906Y4174880D01*
X6606288Y4176378D01*
X6602373D01*
X6598755Y4174880D01*
X6595987Y4172111D01*
X6594488Y4168493D01*
Y4164578D01*
X6595987Y4160960D01*
X6598755Y4158191D01*
X6602129Y4156794D01*
Y4092086D01*
X6602664Y4089398D01*
X6604186Y4087119D01*
X6606240Y4085065D01*
X6603652Y4080582D01*
X6603425Y4080643D01*
Y4049213D01*
Y4017782D01*
X6610643Y4019716D01*
X6614944Y4022199D01*
X6619944Y4019312D01*
Y4005167D01*
X6599265Y3984488D01*
X6597742Y3982210D01*
X6597208Y3979521D01*
Y3712794D01*
Y3680295D01*
X6597238Y3680143D01*
X6595537Y3676038D01*
X6591432Y3674337D01*
X6591280Y3674367D01*
X6564853D01*
Y3674490D01*
X6557052Y3673463D01*
X6549783Y3670452D01*
X6543541Y3665662D01*
X6538751Y3659420D01*
X6535740Y3652151D01*
X6534713Y3644351D01*
X6535740Y3636550D01*
X6538751Y3629281D01*
X6543541Y3623039D01*
X6549783Y3618249D01*
X6557052Y3615238D01*
X6564853Y3614211D01*
Y3614334D01*
X6591596D01*
X6591748Y3614364D01*
X6595853Y3612664D01*
X6597617Y3608406D01*
X6595853Y3604148D01*
X6591748Y3602448D01*
X6591596Y3602478D01*
X6527224D01*
Y3602601D01*
X6519424Y3601574D01*
X6512155Y3598563D01*
X6505913Y3593773D01*
X6501123Y3587531D01*
X6498112Y3580262D01*
X6497085Y3572461D01*
X6498112Y3564660D01*
X6501123Y3557391D01*
X6505913Y3551149D01*
X6512155Y3546359D01*
X6519424Y3543348D01*
X6527224Y3542321D01*
Y3542444D01*
X6591280D01*
X6591432Y3542474D01*
X6595537Y3540774D01*
X6597238Y3536668D01*
X6597208Y3536516D01*
Y3510410D01*
X6595630Y3506063D01*
X6576905D01*
X6576165Y3511686D01*
X6573174Y3518908D01*
X6568416Y3525109D01*
X6562215Y3529867D01*
X6554993Y3532858D01*
X6552244Y3533220D01*
Y3488189D01*
Y3443158D01*
X6554993Y3443520D01*
X6562215Y3446511D01*
X6568416Y3451269D01*
X6570946Y3454567D01*
X6574724D01*
Y3480315D01*
X6584724D01*
Y3454567D01*
X6595630D01*
Y3460630D01*
X6604252D01*
X6609252Y3460630D01*
Y3460630D01*
X6609252D01*
Y3460630D01*
X6628543D01*
Y3459646D01*
X6629323Y3455728D01*
X6631542Y3452408D01*
X6638004Y3445945D01*
X6637465Y3440945D01*
X6624094D01*
X6619095Y3440945D01*
Y3440945D01*
X6619094D01*
Y3440945D01*
X6605472D01*
Y3447008D01*
X6594567D01*
Y3421260D01*
X6589567D01*
Y3416260D01*
X6573661D01*
Y3403049D01*
X5837756D01*
Y3416260D01*
X5821850D01*
Y3426260D01*
X5837756D01*
Y3441764D01*
X5842756Y3445105D01*
X5846581Y3443520D01*
X5849331Y3443158D01*
Y3488189D01*
Y3533220D01*
X5846581Y3532858D01*
X5839360Y3529867D01*
X5833159Y3525109D01*
X5828401Y3518908D01*
X5825410Y3511686D01*
X5824669Y3506063D01*
X5817008D01*
Y3480315D01*
X5807008D01*
Y3506063D01*
X5799399D01*
X5795886Y3506659D01*
X5794525Y3510410D01*
Y3523622D01*
X5794426Y3524117D01*
Y4700831D01*
X6763825Y5670230D01*
X6765348Y5672509D01*
X6765883Y5675197D01*
Y6409906D01*
Y6439783D01*
X6765853Y6439935D01*
X6767553Y6444041D01*
X6771659Y6445742D01*
X6771811Y6445711D01*
X6790843D01*
Y6445588D01*
X6798643Y6446615D01*
X6805913Y6449626D01*
X6812155Y6454416D01*
X6816944Y6460658D01*
X6819955Y6467927D01*
X6820982Y6475728D01*
X6819955Y6483529D01*
X6816944Y6490798D01*
X6812155Y6497040D01*
X6805913Y6501830D01*
X6798643Y6504841D01*
X6790843Y6505868D01*
Y6505745D01*
X6771274D01*
X6771122Y6505715D01*
X6767378Y6507265D01*
X6765553Y6511673D01*
X6767378Y6516080D01*
X6771122Y6517631D01*
X6771274Y6517601D01*
X6835866D01*
Y6517478D01*
X6843667Y6518505D01*
X6850936Y6521516D01*
X6857178Y6526306D01*
X6861968Y6532548D01*
X6864979Y6539817D01*
X6866006Y6547618D01*
X6864979Y6555418D01*
X6861968Y6562688D01*
X6857178Y6568930D01*
X6850936Y6573719D01*
X6843667Y6576730D01*
X6835866Y6577757D01*
Y6577635D01*
X6807650D01*
X6806311Y6582635D01*
X6806837Y6582939D01*
X6812731Y6588832D01*
X6816898Y6596050D01*
X6818832Y6603268D01*
X6787402D01*
Y6608268D01*
X6782402D01*
Y6639698D01*
X6775184Y6637764D01*
X6770883Y6635281D01*
X6765883Y6638168D01*
Y6654878D01*
X6781640Y6670636D01*
X6783163Y6672915D01*
X6783698Y6675603D01*
Y6715849D01*
X6787071Y6717247D01*
X6789840Y6720015D01*
X6791339Y6723633D01*
Y6727548D01*
X6789840Y6731166D01*
X6787071Y6733935D01*
X6783454Y6735433D01*
X6779538D01*
X6775921Y6733935D01*
X6774860Y6732873D01*
X6771654Y6731710D01*
X6768447Y6732873D01*
X6767386Y6733935D01*
X6763769Y6735433D01*
X6759853D01*
X6756236Y6733935D01*
X6753467Y6731166D01*
X6751968Y6727548D01*
Y6723633D01*
X6753467Y6720015D01*
X6756236Y6717247D01*
X6759609Y6715849D01*
Y6682671D01*
X6743852Y6666914D01*
X6742329Y6664635D01*
X6741794Y6661946D01*
Y6583562D01*
X6741671D01*
X6742698Y6575762D01*
X6745709Y6568493D01*
X6750499Y6562251D01*
X6756741Y6557461D01*
X6764010Y6554450D01*
X6771811Y6553423D01*
Y6553546D01*
X6835866D01*
X6836019Y6553576D01*
X6839762Y6552025D01*
X6841588Y6547618D01*
X6839762Y6543210D01*
X6836019Y6541659D01*
X6835866Y6541690D01*
X6771274D01*
Y6541812D01*
X6763474Y6540785D01*
X6756204Y6537775D01*
X6749962Y6532985D01*
X6745172Y6526743D01*
X6742162Y6519474D01*
X6741135Y6511673D01*
X6742162Y6503872D01*
X6745172Y6496603D01*
X6749962Y6490361D01*
X6756204Y6485571D01*
X6763474Y6482560D01*
X6771274Y6481533D01*
Y6481656D01*
X6790843D01*
X6790995Y6481686D01*
X6794739Y6480136D01*
X6796564Y6475728D01*
X6794739Y6471321D01*
X6790995Y6469770D01*
X6790843Y6469800D01*
X6771811D01*
Y6469923D01*
X6764010Y6468896D01*
X6756741Y6465885D01*
X6750499Y6461095D01*
X6745709Y6454853D01*
X6742698Y6447584D01*
X6741671Y6439783D01*
X6741794D01*
Y6409906D01*
Y5682265D01*
X5772395Y4712866D01*
X5770872Y4710587D01*
X5770337Y4707899D01*
Y3523622D01*
X5770337Y3523622D01*
X5770436Y3523126D01*
Y3511048D01*
X5770436Y3511048D01*
Y3500000D01*
X5762992D01*
Y3500197D01*
X5723228D01*
Y3500000D01*
X5715785D01*
Y3525096D01*
X5715883Y3525591D01*
X5715883Y4912641D01*
X6702900Y5899659D01*
X6704423Y5901938D01*
X6704958Y5904626D01*
Y6715849D01*
X6708331Y6717247D01*
X6711100Y6720015D01*
X6712599Y6723633D01*
Y6727548D01*
X6711100Y6731166D01*
X6708331Y6733935D01*
X6704714Y6735433D01*
X6700798D01*
X6697181Y6733935D01*
X6696120Y6732873D01*
X6692913Y6731710D01*
X6689707Y6732873D01*
X6688646Y6733935D01*
X6685029Y6735433D01*
X6681113D01*
X6677496Y6733935D01*
X6674727Y6731166D01*
X6673228Y6727548D01*
Y6723633D01*
X6674727Y6720015D01*
X6677496Y6717247D01*
X6680869Y6715849D01*
Y5911694D01*
X5693852Y4924677D01*
X5692329Y4922398D01*
X5691794Y4919710D01*
X5691794Y3615937D01*
Y3597239D01*
X5690901Y3592801D01*
X5690866Y3592787D01*
Y3592765D01*
X5690865Y3592624D01*
X5685074Y3591472D01*
X5680164Y3588191D01*
X5676884Y3583282D01*
X5675732Y3577491D01*
Y3577491D01*
Y3577490D01*
X5675732D01*
X5676884Y3571699D01*
X5680164Y3566790D01*
X5682940Y3564935D01*
X5682054Y3559661D01*
X5677144Y3556381D01*
X5673864Y3551471D01*
X5672712Y3545680D01*
Y3545680D01*
Y3545679D01*
X5672712D01*
X5673864Y3539888D01*
X5677144Y3534979D01*
X5682054Y3531698D01*
X5687845Y3530546D01*
Y3530546D01*
X5691560Y3528159D01*
X5691696Y3525590D01*
Y3500000D01*
X5684252D01*
Y3500197D01*
X5644488D01*
Y3500000D01*
X5637044D01*
Y3522144D01*
X5637143Y3522638D01*
Y5124822D01*
X6641975Y6129654D01*
X6643498Y6131933D01*
X6644033Y6134621D01*
Y6402159D01*
Y6410132D01*
X6644155D01*
X6643128Y6417933D01*
X6640118Y6425202D01*
X6635328Y6431444D01*
X6629086Y6436234D01*
X6621816Y6439245D01*
X6614016Y6440272D01*
Y6440149D01*
X6549961D01*
X6549808Y6440119D01*
X6545703Y6441819D01*
X6543939Y6446077D01*
X6545703Y6450335D01*
X6549808Y6452035D01*
X6549961Y6452005D01*
X6614278D01*
Y6451882D01*
X6622078Y6452909D01*
X6629348Y6455920D01*
X6635590Y6460710D01*
X6640380Y6466952D01*
X6643390Y6474221D01*
X6644417Y6482022D01*
X6643390Y6489823D01*
X6640380Y6497092D01*
X6635590Y6503334D01*
X6629348Y6508124D01*
X6622078Y6511135D01*
X6614278Y6512162D01*
Y6512039D01*
X6602048D01*
X6601895Y6512008D01*
X6597790Y6513709D01*
X6596026Y6517967D01*
X6597790Y6522225D01*
X6601895Y6523925D01*
X6602048Y6523895D01*
X6614016D01*
Y6523772D01*
X6621816Y6524799D01*
X6629086Y6527810D01*
X6635328Y6532600D01*
X6640118Y6538842D01*
X6643128Y6546111D01*
X6644155Y6553912D01*
X6644033D01*
Y6588583D01*
Y6661946D01*
X6643498Y6664635D01*
X6641975Y6666914D01*
X6626218Y6682671D01*
Y6715849D01*
X6629591Y6717247D01*
X6632360Y6720015D01*
X6633858Y6723633D01*
Y6727548D01*
X6632360Y6731166D01*
X6629591Y6733935D01*
X6625974Y6735433D01*
X6622058D01*
X6618440Y6733935D01*
X6617379Y6732873D01*
X6614173Y6731710D01*
X6610967Y6732873D01*
X6609906Y6733935D01*
X6606288Y6735433D01*
X6602373D01*
X6598755Y6733935D01*
X6595987Y6731166D01*
X6594488Y6727548D01*
Y6723633D01*
X6595987Y6720015D01*
X6598755Y6717247D01*
X6602129Y6715849D01*
Y6675603D01*
X6602664Y6672915D01*
X6604186Y6670636D01*
X6619944Y6654878D01*
Y6638168D01*
X6614944Y6635281D01*
X6610643Y6637764D01*
X6603425Y6639698D01*
Y6608268D01*
Y6576837D01*
X6610643Y6578771D01*
X6614944Y6581254D01*
X6619944Y6578368D01*
Y6553912D01*
X6619974Y6553759D01*
X6618274Y6549654D01*
X6614168Y6547953D01*
X6614016Y6547984D01*
X6602048D01*
Y6548106D01*
X6594247Y6547079D01*
X6586978Y6544069D01*
X6580736Y6539279D01*
X6575946Y6533037D01*
X6572935Y6525767D01*
X6571908Y6517967D01*
X6572935Y6510166D01*
X6575946Y6502897D01*
X6580736Y6496655D01*
X6586978Y6491865D01*
X6594247Y6488854D01*
X6602048Y6487827D01*
Y6487950D01*
X6614278D01*
X6614430Y6487980D01*
X6618535Y6486280D01*
X6620299Y6482022D01*
X6618535Y6477764D01*
X6614430Y6476064D01*
X6614278Y6476094D01*
X6549961D01*
Y6476217D01*
X6542160Y6475190D01*
X6534891Y6472179D01*
X6528649Y6467389D01*
X6523859Y6461147D01*
X6520848Y6453878D01*
X6519821Y6446077D01*
X6520848Y6438276D01*
X6523859Y6431007D01*
X6528649Y6424765D01*
X6534891Y6419975D01*
X6542160Y6416965D01*
X6549961Y6415938D01*
Y6416060D01*
X6614016D01*
X6614168Y6416091D01*
X6618274Y6414390D01*
X6619974Y6410285D01*
X6619944Y6410132D01*
Y6402159D01*
Y6141689D01*
X5615111Y5136857D01*
X5613589Y5134578D01*
X5613054Y5131890D01*
Y3523131D01*
X5612956Y3522638D01*
Y3510410D01*
X5611378Y3506063D01*
X5592653D01*
X5591913Y3511686D01*
X5588922Y3518908D01*
X5584164Y3525109D01*
X5577963Y3529867D01*
X5570742Y3532858D01*
X5567992Y3533220D01*
Y3488189D01*
Y3443158D01*
X5570742Y3443520D01*
X5577963Y3446511D01*
X5584164Y3451269D01*
X5586694Y3454567D01*
X5590472D01*
Y3480315D01*
X5600472D01*
Y3454567D01*
X5611378D01*
Y3460630D01*
X5620000D01*
X5625000Y3460630D01*
Y3460630D01*
X5625000D01*
Y3460630D01*
X5644292D01*
Y3459646D01*
X5645071Y3455728D01*
X5647290Y3452408D01*
X5653752Y3445945D01*
X5653213Y3440945D01*
X5639842D01*
X5634843Y3440945D01*
Y3440945D01*
X5634842D01*
Y3440945D01*
X5621220D01*
Y3447008D01*
X5610315D01*
Y3421260D01*
X5605315D01*
Y3416260D01*
X5589409D01*
Y3403049D01*
X4853504D01*
Y3416260D01*
X4837599D01*
Y3426260D01*
X4853504D01*
Y3441764D01*
X4858504Y3445105D01*
X4862329Y3443520D01*
X4865079Y3443158D01*
Y3488189D01*
Y3533220D01*
X4862329Y3532858D01*
X4855108Y3529867D01*
X4848907Y3525109D01*
X4844149Y3518908D01*
X4841158Y3511686D01*
X4840417Y3506063D01*
X4832756D01*
Y3480315D01*
X4822756D01*
Y3506063D01*
X4811850D01*
X4810273Y3510410D01*
Y3628273D01*
X4809738Y3630961D01*
X4808215Y3633240D01*
X4619362Y3822093D01*
X4617083Y3823616D01*
X4614395Y3824151D01*
X4475191D01*
X4475039Y3824120D01*
X4470934Y3825821D01*
X4469233Y3829927D01*
X4469263Y3830079D01*
Y3866353D01*
X4469386D01*
X4468359Y3874154D01*
X4465348Y3881423D01*
X4460559Y3887665D01*
X4454316Y3892455D01*
X4447047Y3895465D01*
X4439247Y3896492D01*
X4431446Y3895465D01*
X4424177Y3892455D01*
X4417935Y3887665D01*
X4413145Y3881423D01*
X4410134Y3874154D01*
X4409107Y3866353D01*
X4409230D01*
Y3828251D01*
X4409260Y3828099D01*
X4407560Y3823993D01*
X4403302Y3822230D01*
X4399044Y3823993D01*
X4397343Y3828099D01*
X4397374Y3828251D01*
Y3894134D01*
X4397497D01*
X4396470Y3901935D01*
X4393459Y3909204D01*
X4388669Y3915446D01*
X4382427Y3920236D01*
X4375158Y3923247D01*
X4367357Y3924274D01*
X4359556Y3923247D01*
X4352287Y3920236D01*
X4346045Y3915446D01*
X4341255Y3909204D01*
X4338244Y3901935D01*
X4337217Y3894134D01*
X4337340D01*
Y3830079D01*
X4337370Y3829927D01*
X4335670Y3825821D01*
X4331564Y3824120D01*
X4331412Y3824151D01*
X4266493D01*
X4206828Y3883815D01*
Y4019312D01*
X4211828Y4022199D01*
X4216129Y4019716D01*
X4223346Y4017782D01*
Y4049213D01*
X4228346D01*
Y4054213D01*
X4259777D01*
X4257843Y4061430D01*
X4253676Y4068648D01*
X4247782Y4074542D01*
X4240564Y4078709D01*
X4232514Y4080866D01*
X4228126D01*
X4227263Y4081508D01*
X4224509Y4085866D01*
X4224643Y4086541D01*
Y4156794D01*
X4228016Y4158191D01*
X4230785Y4160960D01*
X4232283Y4164578D01*
Y4168493D01*
X4230785Y4172111D01*
X4228016Y4174880D01*
X4224399Y4176378D01*
X4220483D01*
X4216866Y4174880D01*
X4215805Y4173818D01*
X4212598Y4172655D01*
X4209392Y4173818D01*
X4208331Y4174880D01*
X4204714Y4176378D01*
X4200798D01*
X4197181Y4174880D01*
X4194412Y4172111D01*
X4192913Y4168493D01*
Y4164578D01*
X4194412Y4160960D01*
X4197181Y4158191D01*
X4200554Y4156794D01*
Y4093609D01*
X4184797Y4077851D01*
X4183274Y4075572D01*
X4182739Y4072884D01*
Y3876747D01*
X4183274Y3874059D01*
X4184797Y3871780D01*
X4254457Y3802119D01*
X4256736Y3800597D01*
X4259424Y3800062D01*
X4331412D01*
Y3799939D01*
X4339213Y3800966D01*
X4346482Y3803977D01*
X4352724Y3808767D01*
X4357514Y3815009D01*
X4360525Y3822278D01*
X4361552Y3830079D01*
X4361429D01*
Y3894134D01*
X4361399Y3894286D01*
X4363099Y3898392D01*
X4367357Y3900155D01*
X4371615Y3898392D01*
X4373315Y3894286D01*
X4373285Y3894134D01*
Y3828251D01*
X4373162D01*
X4374189Y3820450D01*
X4377200Y3813181D01*
X4381990Y3806939D01*
X4388232Y3802149D01*
X4395501Y3799138D01*
X4403302Y3798111D01*
X4411102Y3799138D01*
X4418372Y3802149D01*
X4424614Y3806939D01*
X4429404Y3813181D01*
X4432414Y3820450D01*
X4433441Y3828251D01*
X4433319D01*
Y3866353D01*
X4433288Y3866505D01*
X4434989Y3870611D01*
X4439247Y3872374D01*
X4443504Y3870611D01*
X4445205Y3866505D01*
X4445175Y3866353D01*
Y3830079D01*
X4445052D01*
X4446079Y3822278D01*
X4449090Y3815009D01*
X4453880Y3808767D01*
X4460122Y3803977D01*
X4467391Y3800966D01*
X4475191Y3799939D01*
Y3800062D01*
X4607327D01*
X4786184Y3621205D01*
Y3500000D01*
X4778740D01*
Y3500197D01*
X4738976D01*
Y3500000D01*
X4731533D01*
Y3615059D01*
X4730998Y3617747D01*
X4729475Y3620026D01*
X4593550Y3755952D01*
X4591271Y3757474D01*
X4588583Y3758009D01*
X4152516D01*
X4145903Y3764622D01*
Y4156794D01*
X4149276Y4158191D01*
X4152045Y4160960D01*
X4153543Y4164578D01*
Y4168493D01*
X4152045Y4172111D01*
X4149276Y4174880D01*
X4145659Y4176378D01*
X4141743D01*
X4138126Y4174880D01*
X4137065Y4173818D01*
X4133858Y4172655D01*
X4130652Y4173818D01*
X4129591Y4174880D01*
X4125974Y4176378D01*
X4122058D01*
X4118440Y4174880D01*
X4115672Y4172111D01*
X4114173Y4168493D01*
Y4164578D01*
X4115672Y4160960D01*
X4118440Y4158191D01*
X4121814Y4156794D01*
Y4120800D01*
X4120544Y4116326D01*
X4114753Y4115174D01*
X4109843Y4111894D01*
X4106563Y4106984D01*
X4105411Y4101193D01*
Y4101193D01*
Y4101193D01*
X4105411D01*
X4106563Y4095401D01*
X4109843Y4090492D01*
X4112775Y4088533D01*
X4112566Y4085537D01*
X4111964Y4083062D01*
X4107505Y4080083D01*
X4104224Y4075173D01*
X4103072Y4069382D01*
Y4069382D01*
Y4069381D01*
X4103072D01*
X4104224Y4063590D01*
X4107505Y4058681D01*
X4112414Y4055400D01*
X4118206Y4054249D01*
X4121814Y4050889D01*
Y3757554D01*
X4122349Y3754866D01*
X4123872Y3752587D01*
X4140481Y3735978D01*
X4142760Y3734455D01*
X4145448Y3733920D01*
X4581515D01*
X4707444Y3607991D01*
Y3500000D01*
X4700000D01*
Y3500197D01*
X4660236D01*
Y3500000D01*
X4652792D01*
Y3610138D01*
X4652258Y3612826D01*
X4650735Y3615105D01*
X4567959Y3697881D01*
X4565681Y3699403D01*
X4562992Y3699938D01*
X4469326D01*
Y3700061D01*
X4461525Y3699034D01*
X4454256Y3696023D01*
X4448014Y3691233D01*
X4443224Y3684991D01*
X4440213Y3677722D01*
X4439186Y3669921D01*
X4439309D01*
Y3652491D01*
X4439340Y3652339D01*
X4437639Y3648233D01*
X4433381Y3646470D01*
X4429124Y3648233D01*
X4427423Y3652339D01*
X4427453Y3652491D01*
Y3670132D01*
X4427576D01*
X4426549Y3677932D01*
X4423538Y3685201D01*
X4418748Y3691443D01*
X4412506Y3696233D01*
X4405237Y3699244D01*
X4397436Y3700271D01*
X4389636Y3699244D01*
X4382367Y3696233D01*
X4376125Y3691443D01*
X4371335Y3685201D01*
X4368324Y3677932D01*
X4367297Y3670132D01*
X4367420D01*
Y3605866D01*
X4367450Y3605714D01*
X4365749Y3601608D01*
X4361492Y3599845D01*
X4357234Y3601608D01*
X4355533Y3605714D01*
X4355564Y3605866D01*
Y3669921D01*
X4355686D01*
X4354659Y3677722D01*
X4351649Y3684991D01*
X4346859Y3691233D01*
X4340617Y3696023D01*
X4333348Y3699034D01*
X4325547Y3700061D01*
Y3699938D01*
X4120036D01*
X4084977Y3734996D01*
Y4117534D01*
X4084443Y4120223D01*
X4082920Y4122502D01*
X4067163Y4138259D01*
Y4156794D01*
X4070536Y4158191D01*
X4073305Y4160960D01*
X4074803Y4164578D01*
Y4168493D01*
X4073305Y4172111D01*
X4070536Y4174880D01*
X4066919Y4176378D01*
X4063003D01*
X4059385Y4174880D01*
X4058324Y4173818D01*
X4055118Y4172655D01*
X4051912Y4173818D01*
X4050851Y4174880D01*
X4047233Y4176378D01*
X4043318D01*
X4039700Y4174880D01*
X4036932Y4172111D01*
X4035433Y4168493D01*
Y4164578D01*
X4036932Y4160960D01*
X4039700Y4158191D01*
X4043074Y4156794D01*
Y4131191D01*
X4043608Y4128502D01*
X4045131Y4126224D01*
X4060889Y4110466D01*
Y4079113D01*
X4055889Y4076226D01*
X4051588Y4078709D01*
X4044370Y4080643D01*
Y4049213D01*
Y4017782D01*
X4051588Y4019716D01*
X4055889Y4022199D01*
X4060889Y4019312D01*
Y3727928D01*
X4061423Y3725240D01*
X4062946Y3722961D01*
X4108000Y3677907D01*
X4110279Y3676384D01*
X4112968Y3675849D01*
X4325547D01*
X4325699Y3675880D01*
X4329805Y3674179D01*
X4331505Y3670073D01*
X4331475Y3669921D01*
Y3605866D01*
X4331352D01*
X4332379Y3598065D01*
X4335390Y3590796D01*
X4340180Y3584554D01*
X4346422Y3579764D01*
X4353691Y3576753D01*
X4361492Y3575726D01*
X4369292Y3576753D01*
X4376561Y3579764D01*
X4382804Y3584554D01*
X4387593Y3590796D01*
X4390604Y3598065D01*
X4391631Y3605866D01*
X4391508D01*
Y3670132D01*
X4391478Y3670284D01*
X4393179Y3674389D01*
X4397436Y3676153D01*
X4401694Y3674389D01*
X4403395Y3670284D01*
X4403364Y3670132D01*
Y3652491D01*
X4403242D01*
X4404269Y3644691D01*
X4407280Y3637421D01*
X4412069Y3631179D01*
X4418311Y3626390D01*
X4425581Y3623379D01*
X4433381Y3622352D01*
X4441182Y3623379D01*
X4448451Y3626390D01*
X4454693Y3631179D01*
X4459483Y3637421D01*
X4462494Y3644691D01*
X4463521Y3652491D01*
X4463398D01*
Y3669921D01*
X4463368Y3670073D01*
X4465068Y3674179D01*
X4469174Y3675880D01*
X4469326Y3675849D01*
X4555924D01*
X4628704Y3603070D01*
Y3510410D01*
X4627126Y3506063D01*
X4608401D01*
X4607661Y3511686D01*
X4604670Y3518908D01*
X4599912Y3525109D01*
X4593711Y3529867D01*
X4586489Y3532858D01*
X4583740Y3533220D01*
Y3488189D01*
Y3443158D01*
X4586489Y3443520D01*
X4593711Y3446511D01*
X4599912Y3451269D01*
X4602442Y3454567D01*
X4606220D01*
Y3480315D01*
X4616220D01*
Y3454567D01*
X4627126D01*
Y3460630D01*
X4635748D01*
X4640748Y3460630D01*
Y3460630D01*
X4640748D01*
Y3460630D01*
X4660039D01*
Y3459646D01*
X4660819Y3455728D01*
X4663038Y3452408D01*
X4669500Y3445945D01*
X4668961Y3440945D01*
X4655590D01*
X4650591Y3440945D01*
Y3440945D01*
X4650590D01*
Y3440945D01*
X4636968D01*
Y3447008D01*
X4626063D01*
Y3421260D01*
X4621063D01*
Y3416260D01*
X4605157D01*
Y3403049D01*
X3672401D01*
Y3416260D01*
X3656496D01*
Y3426260D01*
X3672401D01*
Y3441764D01*
X3677402Y3445105D01*
X3681227Y3443520D01*
X3683976Y3443158D01*
Y3488189D01*
Y3533220D01*
X3681227Y3532858D01*
X3674006Y3529867D01*
X3667805Y3525109D01*
X3663047Y3518908D01*
X3660055Y3511686D01*
X3659315Y3506063D01*
X3651654D01*
Y3480315D01*
X3641654D01*
Y3506063D01*
X3630748D01*
X3629170Y3510410D01*
Y3562444D01*
X3629140Y3562596D01*
X3630841Y3566702D01*
X3634946Y3568402D01*
X3635098Y3568372D01*
X3658811D01*
Y3568249D01*
X3666612Y3569276D01*
X3673881Y3572287D01*
X3680123Y3577077D01*
X3684913Y3583319D01*
X3687924Y3590588D01*
X3688951Y3598389D01*
X3687924Y3606189D01*
X3684913Y3613458D01*
X3680123Y3619700D01*
X3673881Y3624490D01*
X3666612Y3627501D01*
X3658811Y3628528D01*
Y3628405D01*
X3634231D01*
X3634079Y3628375D01*
X3629974Y3630076D01*
X3628210Y3634333D01*
X3629974Y3638591D01*
X3634079Y3640292D01*
X3634231Y3640261D01*
X3699154D01*
Y3640139D01*
X3706954Y3641166D01*
X3714224Y3644177D01*
X3720466Y3648966D01*
X3725255Y3655208D01*
X3728266Y3662477D01*
X3729293Y3670278D01*
X3728266Y3678079D01*
X3725255Y3685348D01*
X3720466Y3691590D01*
X3714224Y3696380D01*
X3706954Y3699391D01*
X3699154Y3700418D01*
Y3700295D01*
X3635098D01*
X3634946Y3700265D01*
X3630841Y3701965D01*
X3629140Y3706071D01*
X3629170Y3706223D01*
Y3714196D01*
Y4227504D01*
X4204770Y4803104D01*
X4206293Y4805382D01*
X4206828Y4808071D01*
Y6578368D01*
X4211828Y6581254D01*
X4216129Y6578771D01*
X4223346Y6576837D01*
Y6608268D01*
Y6639698D01*
X4216129Y6637764D01*
X4211828Y6635281D01*
X4206828Y6638168D01*
Y6653900D01*
X4222585Y6669658D01*
X4224108Y6671936D01*
X4224643Y6674625D01*
Y6715849D01*
X4228016Y6717247D01*
X4230785Y6720015D01*
X4232283Y6723633D01*
Y6727548D01*
X4230785Y6731166D01*
X4228016Y6733935D01*
X4224399Y6735433D01*
X4220483D01*
X4216866Y6733935D01*
X4215805Y6732873D01*
X4212598Y6731710D01*
X4209392Y6732873D01*
X4208331Y6733935D01*
X4204714Y6735433D01*
X4200798D01*
X4197181Y6733935D01*
X4194412Y6731166D01*
X4192913Y6727548D01*
Y6723633D01*
X4194412Y6720015D01*
X4197181Y6717247D01*
X4200554Y6715849D01*
Y6681693D01*
X4184797Y6665935D01*
X4183274Y6663657D01*
X4182739Y6660968D01*
Y4815139D01*
X3607139Y4239539D01*
X3605616Y4237260D01*
X3605082Y4234572D01*
Y3714196D01*
Y3706223D01*
X3604959D01*
X3605986Y3698422D01*
X3608997Y3691153D01*
X3613787Y3684911D01*
X3620029Y3680121D01*
X3627298Y3677110D01*
X3635098Y3676083D01*
Y3676206D01*
X3699154D01*
X3699306Y3676236D01*
X3703411Y3674536D01*
X3705175Y3670278D01*
X3703411Y3666021D01*
X3699306Y3664320D01*
X3699154Y3664350D01*
X3634231D01*
Y3664473D01*
X3626430Y3663446D01*
X3619161Y3660435D01*
X3612919Y3655645D01*
X3608130Y3649403D01*
X3605119Y3642134D01*
X3604092Y3634333D01*
X3605119Y3626533D01*
X3608130Y3619264D01*
X3612919Y3613021D01*
X3619161Y3608232D01*
X3626430Y3605221D01*
X3634231Y3604194D01*
Y3604317D01*
X3658811D01*
X3658963Y3604347D01*
X3663069Y3602646D01*
X3664832Y3598389D01*
X3663069Y3594131D01*
X3658963Y3592430D01*
X3658811Y3592461D01*
X3635098D01*
Y3592583D01*
X3627298Y3591556D01*
X3620029Y3588546D01*
X3613787Y3583756D01*
X3608997Y3577514D01*
X3605986Y3570244D01*
X3604959Y3562444D01*
X3605082D01*
Y3528543D01*
Y3500000D01*
X3597638D01*
Y3500197D01*
X3557874D01*
Y3500000D01*
X3550430D01*
Y4261534D01*
X4143845Y4854949D01*
X4145368Y4857228D01*
X4145903Y4859917D01*
Y6715849D01*
X4149276Y6717247D01*
X4152045Y6720015D01*
X4153543Y6723633D01*
Y6727548D01*
X4152045Y6731166D01*
X4149276Y6733935D01*
X4145659Y6735433D01*
X4141743D01*
X4138126Y6733935D01*
X4137065Y6732873D01*
X4133858Y6731710D01*
X4130652Y6732873D01*
X4129591Y6733935D01*
X4125974Y6735433D01*
X4122058D01*
X4118440Y6733935D01*
X4115672Y6731166D01*
X4114173Y6727548D01*
Y6723633D01*
X4115672Y6720015D01*
X4118440Y6717247D01*
X4121814Y6715849D01*
Y4866985D01*
X3528399Y4273570D01*
X3526876Y4271291D01*
X3526341Y4268602D01*
Y3601753D01*
Y3578334D01*
X3524444Y3574120D01*
X3518653Y3572968D01*
X3513744Y3569688D01*
X3510463Y3564778D01*
X3509311Y3558987D01*
Y3558987D01*
Y3558986D01*
X3509311D01*
X3510463Y3553195D01*
X3513744Y3548286D01*
X3516033Y3546756D01*
X3514977Y3541448D01*
X3513513Y3541157D01*
X3508603Y3537877D01*
X3505323Y3532967D01*
X3504171Y3527176D01*
Y3527176D01*
Y3527175D01*
X3504171D01*
X3505323Y3521385D01*
X3508603Y3516475D01*
X3513513Y3513194D01*
X3519304Y3512043D01*
Y3512198D01*
X3525414D01*
Y3511880D01*
X3525844Y3511701D01*
X3526023Y3511270D01*
X3526341D01*
Y3500000D01*
X3518898D01*
Y3500197D01*
X3479134D01*
Y3500000D01*
X3471690D01*
Y3536516D01*
X3471813D01*
X3470786Y3544317D01*
X3467775Y3551586D01*
X3462985Y3557828D01*
X3456743Y3562618D01*
X3449474Y3565629D01*
X3441673Y3566656D01*
Y3566533D01*
X3377618D01*
X3377466Y3566503D01*
X3373360Y3568203D01*
X3371597Y3572461D01*
X3373360Y3576719D01*
X3377466Y3578419D01*
X3377618Y3578389D01*
X3441896D01*
Y3578266D01*
X3449697Y3579293D01*
X3456966Y3582304D01*
X3463208Y3587094D01*
X3467998Y3593336D01*
X3471009Y3600605D01*
X3472036Y3608406D01*
X3471009Y3616206D01*
X3467998Y3623476D01*
X3463208Y3629718D01*
X3456966Y3634508D01*
X3449697Y3637518D01*
X3441896Y3638545D01*
Y3638423D01*
X3424696D01*
X3424543Y3638392D01*
X3420438Y3640093D01*
X3418674Y3644351D01*
X3420438Y3648608D01*
X3424543Y3650309D01*
X3424696Y3650279D01*
X3441673D01*
Y3650156D01*
X3449474Y3651183D01*
X3456743Y3654194D01*
X3462985Y3658983D01*
X3467775Y3665226D01*
X3470786Y3672495D01*
X3471813Y3680295D01*
X3471690D01*
Y3722441D01*
Y4297386D01*
X4082920Y4908616D01*
X4084443Y4910895D01*
X4084977Y4913583D01*
Y6657160D01*
X4084443Y6659849D01*
X4082920Y6662128D01*
X4067163Y6677885D01*
Y6715849D01*
X4070536Y6717247D01*
X4073305Y6720015D01*
X4074803Y6723633D01*
Y6727548D01*
X4073305Y6731166D01*
X4070536Y6733935D01*
X4066919Y6735433D01*
X4063003D01*
X4059385Y6733935D01*
X4058324Y6732873D01*
X4055118Y6731710D01*
X4051912Y6732873D01*
X4050851Y6733935D01*
X4047233Y6735433D01*
X4043318D01*
X4039700Y6733935D01*
X4036932Y6731166D01*
X4035433Y6727548D01*
Y6723633D01*
X4036932Y6720015D01*
X4039700Y6717247D01*
X4043074Y6715849D01*
Y6670817D01*
X4043608Y6668129D01*
X4045131Y6665850D01*
X4060889Y6650092D01*
Y6638168D01*
X4055889Y6635281D01*
X4051588Y6637764D01*
X4044370Y6639698D01*
Y6608268D01*
Y6576837D01*
X4051588Y6578771D01*
X4055889Y6581254D01*
X4060889Y6578368D01*
Y4920651D01*
X3449659Y4309421D01*
X3448136Y4307142D01*
X3447601Y4304454D01*
Y3722441D01*
Y3680295D01*
X3447632Y3680143D01*
X3445931Y3676038D01*
X3441826Y3674337D01*
X3441673Y3674367D01*
X3424696D01*
Y3674490D01*
X3416895Y3673463D01*
X3409626Y3670452D01*
X3403384Y3665662D01*
X3398594Y3659420D01*
X3395583Y3652151D01*
X3394556Y3644351D01*
X3395583Y3636550D01*
X3398594Y3629281D01*
X3403384Y3623039D01*
X3409626Y3618249D01*
X3416895Y3615238D01*
X3424696Y3614211D01*
Y3614334D01*
X3441896D01*
X3442048Y3614364D01*
X3446154Y3612664D01*
X3447918Y3608406D01*
X3446154Y3604148D01*
X3442048Y3602448D01*
X3441896Y3602478D01*
X3377618D01*
Y3602601D01*
X3369817Y3601574D01*
X3362548Y3598563D01*
X3356306Y3593773D01*
X3351516Y3587531D01*
X3348506Y3580262D01*
X3347479Y3572461D01*
X3348506Y3564660D01*
X3351516Y3557391D01*
X3356306Y3551149D01*
X3362548Y3546359D01*
X3369817Y3543348D01*
X3377618Y3542321D01*
Y3542444D01*
X3441673D01*
X3441826Y3542474D01*
X3445931Y3540774D01*
X3447632Y3536668D01*
X3447601Y3536516D01*
Y3510410D01*
X3446024Y3506063D01*
X3427299D01*
X3426559Y3511686D01*
X3423568Y3518908D01*
X3418809Y3525109D01*
X3412608Y3529867D01*
X3405387Y3532858D01*
X3402637Y3533220D01*
Y3488189D01*
Y3443158D01*
X3405387Y3443520D01*
X3412608Y3446511D01*
X3418809Y3451269D01*
X3421340Y3454567D01*
X3425119D01*
Y3480315D01*
X3435119D01*
Y3454567D01*
X3446024D01*
Y3460630D01*
X3454646D01*
X3459646Y3460630D01*
Y3460630D01*
X3459646D01*
Y3460630D01*
X3478937D01*
Y3459646D01*
X3479716Y3455728D01*
X3481935Y3452408D01*
X3488398Y3445945D01*
X3487858Y3440945D01*
X3474488D01*
X3469488Y3440945D01*
Y3440945D01*
X3469488D01*
Y3440945D01*
X3455866D01*
Y3447008D01*
X3444961D01*
Y3421260D01*
X3439961D01*
Y3416260D01*
X3424055D01*
Y3403049D01*
X2688149D01*
Y3416260D01*
X2672244D01*
Y3426260D01*
X2688149D01*
Y3441764D01*
X2693150Y3445105D01*
X2696975Y3443520D01*
X2699724Y3443158D01*
Y3488189D01*
Y3533220D01*
X2696975Y3532858D01*
X2689754Y3529867D01*
X2683553Y3525109D01*
X2678795Y3518908D01*
X2675803Y3511686D01*
X2675063Y3506063D01*
X2667402D01*
Y3480315D01*
X2657402D01*
Y3506063D01*
X2646496D01*
X2644918Y3510410D01*
Y5141634D01*
X2644384Y5144322D01*
X2642861Y5146601D01*
X1647773Y6141689D01*
Y6411210D01*
Y6440920D01*
X1647742Y6441072D01*
X1649443Y6445178D01*
X1653549Y6446878D01*
X1653701Y6446848D01*
X1665929D01*
Y6446725D01*
X1673730Y6447752D01*
X1680999Y6450763D01*
X1687241Y6455553D01*
X1692031Y6461795D01*
X1695042Y6469064D01*
X1696069Y6476865D01*
X1695042Y6484666D01*
X1692031Y6491935D01*
X1687241Y6498177D01*
X1680999Y6502967D01*
X1673730Y6505977D01*
X1665929Y6507005D01*
Y6506882D01*
X1653650D01*
X1653498Y6506851D01*
X1649393Y6508552D01*
X1647629Y6512810D01*
X1649393Y6517067D01*
X1653498Y6518768D01*
X1653650Y6518738D01*
X1717756D01*
Y6518615D01*
X1725557Y6519642D01*
X1732826Y6522653D01*
X1739068Y6527443D01*
X1743858Y6533685D01*
X1746869Y6540954D01*
X1747896Y6548755D01*
X1746869Y6556555D01*
X1743858Y6563824D01*
X1739068Y6570066D01*
X1732826Y6574856D01*
X1725557Y6577867D01*
X1717756Y6578894D01*
Y6578771D01*
X1691352D01*
X1690370Y6580330D01*
X1689560Y6583771D01*
X1694620Y6588832D01*
X1698788Y6596050D01*
X1700722Y6603268D01*
X1669291D01*
Y6608268D01*
X1664291D01*
Y6639698D01*
X1657073Y6637764D01*
X1652773Y6635281D01*
X1647773Y6638168D01*
Y6654878D01*
X1663530Y6670636D01*
X1665053Y6672915D01*
X1665588Y6675603D01*
Y6715849D01*
X1668961Y6717247D01*
X1671730Y6720015D01*
X1673228Y6723633D01*
Y6727548D01*
X1671730Y6731166D01*
X1668961Y6733935D01*
X1665344Y6735433D01*
X1661428D01*
X1657811Y6733935D01*
X1656749Y6732873D01*
X1653543Y6731710D01*
X1650337Y6732873D01*
X1649276Y6733935D01*
X1645659Y6735433D01*
X1641743D01*
X1638125Y6733935D01*
X1635357Y6731166D01*
X1633858Y6727548D01*
Y6723633D01*
X1635357Y6720015D01*
X1638125Y6717247D01*
X1641499Y6715849D01*
Y6682671D01*
X1625741Y6666914D01*
X1624219Y6664635D01*
X1623684Y6661946D01*
Y6584699D01*
X1623561D01*
X1624588Y6576899D01*
X1627599Y6569630D01*
X1632389Y6563387D01*
X1638631Y6558598D01*
X1645900Y6555587D01*
X1653701Y6554560D01*
Y6554682D01*
X1717756D01*
X1717908Y6554713D01*
X1722014Y6553012D01*
X1723777Y6548755D01*
X1722014Y6544497D01*
X1717908Y6542796D01*
X1717756Y6542827D01*
X1653650D01*
Y6542949D01*
X1645850Y6541922D01*
X1638581Y6538911D01*
X1632338Y6534122D01*
X1627549Y6527880D01*
X1624538Y6520610D01*
X1623511Y6512810D01*
X1624538Y6505009D01*
X1627549Y6497740D01*
X1632338Y6491498D01*
X1638581Y6486708D01*
X1645850Y6483697D01*
X1653650Y6482670D01*
Y6482793D01*
X1665929D01*
X1666082Y6482823D01*
X1670187Y6481123D01*
X1671951Y6476865D01*
X1670187Y6472607D01*
X1666082Y6470907D01*
X1665929Y6470937D01*
X1653701D01*
Y6471060D01*
X1645900Y6470033D01*
X1638631Y6467022D01*
X1632389Y6462232D01*
X1627599Y6455990D01*
X1624588Y6448721D01*
X1623561Y6440920D01*
X1623684D01*
Y6411210D01*
Y6134621D01*
X1624219Y6131933D01*
X1625741Y6129654D01*
X2620830Y5134566D01*
Y3500000D01*
X2613386D01*
Y3500197D01*
X2573622D01*
Y3500000D01*
X2566178D01*
Y4929454D01*
X2565644Y4932142D01*
X2564121Y4934421D01*
X1586848Y5911694D01*
Y6715849D01*
X1590221Y6717247D01*
X1592990Y6720015D01*
X1594488Y6723633D01*
Y6727548D01*
X1592990Y6731166D01*
X1590221Y6733935D01*
X1586603Y6735433D01*
X1582688D01*
X1579070Y6733935D01*
X1578009Y6732873D01*
X1574803Y6731710D01*
X1571597Y6732873D01*
X1570536Y6733935D01*
X1566918Y6735433D01*
X1563003D01*
X1559385Y6733935D01*
X1556617Y6731166D01*
X1555118Y6727548D01*
Y6723633D01*
X1556617Y6720015D01*
X1559385Y6717247D01*
X1562759Y6715849D01*
Y5904626D01*
X1563293Y5901938D01*
X1564816Y5899659D01*
X2542090Y4922386D01*
Y3615078D01*
Y3582229D01*
X2541196Y3577791D01*
X2541161Y3577777D01*
Y3577755D01*
X2541160Y3577614D01*
X2535369Y3576462D01*
X2530460Y3573182D01*
X2527179Y3568272D01*
X2526027Y3562481D01*
Y3562481D01*
Y3562481D01*
X2526027D01*
X2527179Y3556689D01*
X2530460Y3551780D01*
X2533235Y3549925D01*
X2532349Y3544651D01*
X2527440Y3541371D01*
X2524159Y3536461D01*
X2523007Y3530670D01*
Y3530670D01*
Y3530669D01*
X2523007D01*
X2524159Y3524878D01*
X2527440Y3519969D01*
X2532349Y3516688D01*
X2538140Y3515537D01*
Y3515536D01*
X2542090Y3512999D01*
Y3500000D01*
X2534646D01*
Y3500197D01*
X2494882D01*
Y3500000D01*
X2487438D01*
Y4717840D01*
X2486903Y4720528D01*
X2485381Y4722807D01*
X1525922Y5682265D01*
Y6370617D01*
Y6408760D01*
X1526045D01*
X1525018Y6416560D01*
X1522007Y6423830D01*
X1517217Y6430072D01*
X1510975Y6434861D01*
X1503706Y6437872D01*
X1495906Y6438899D01*
Y6438777D01*
X1476389D01*
X1476236Y6438746D01*
X1472131Y6440447D01*
X1470367Y6444705D01*
X1472131Y6448962D01*
X1476236Y6450663D01*
X1476389Y6450633D01*
X1496047D01*
Y6450510D01*
X1503848Y6451537D01*
X1511117Y6454548D01*
X1517359Y6459337D01*
X1522149Y6465580D01*
X1525160Y6472849D01*
X1526187Y6480649D01*
X1525160Y6488450D01*
X1522149Y6495719D01*
X1517359Y6501961D01*
X1511117Y6506751D01*
X1503848Y6509762D01*
X1496047Y6510789D01*
Y6510666D01*
X1431850D01*
X1431698Y6510636D01*
X1427592Y6512337D01*
X1425829Y6516594D01*
X1427592Y6520852D01*
X1431698Y6522552D01*
X1431850Y6522522D01*
X1495906D01*
Y6522399D01*
X1503706Y6523426D01*
X1510975Y6526437D01*
X1517217Y6531227D01*
X1522007Y6537469D01*
X1525018Y6544738D01*
X1526045Y6552539D01*
X1525922D01*
Y6596457D01*
Y6661946D01*
X1525388Y6664635D01*
X1523865Y6666914D01*
X1508107Y6682671D01*
Y6715849D01*
X1511481Y6717247D01*
X1514249Y6720015D01*
X1515748Y6723633D01*
Y6727548D01*
X1514249Y6731166D01*
X1511481Y6733935D01*
X1507863Y6735433D01*
X1503948D01*
X1500330Y6733935D01*
X1499269Y6732873D01*
X1496063Y6731710D01*
X1492857Y6732873D01*
X1491796Y6733935D01*
X1488178Y6735433D01*
X1484263D01*
X1480645Y6733935D01*
X1477876Y6731166D01*
X1476378Y6727548D01*
Y6723633D01*
X1477876Y6720015D01*
X1480645Y6717247D01*
X1484019Y6715849D01*
Y6675603D01*
X1484553Y6672915D01*
X1486076Y6670636D01*
X1501833Y6654878D01*
Y6638168D01*
X1496833Y6635281D01*
X1492533Y6637764D01*
X1485315Y6639698D01*
Y6608268D01*
Y6576837D01*
X1492533Y6578771D01*
X1496833Y6581254D01*
X1501833Y6578368D01*
Y6552539D01*
X1501864Y6552387D01*
X1500163Y6548281D01*
X1496058Y6546581D01*
X1495906Y6546611D01*
X1431850D01*
Y6546734D01*
X1424050Y6545707D01*
X1416780Y6542696D01*
X1410538Y6537906D01*
X1405748Y6531664D01*
X1402738Y6524395D01*
X1401711Y6516594D01*
X1402738Y6508793D01*
X1405748Y6501524D01*
X1410538Y6495282D01*
X1416780Y6490493D01*
X1424050Y6487482D01*
X1431850Y6486455D01*
Y6486577D01*
X1496047D01*
X1496199Y6486608D01*
X1500305Y6484907D01*
X1502068Y6480649D01*
X1500305Y6476392D01*
X1496199Y6474691D01*
X1496047Y6474721D01*
X1476389D01*
Y6474844D01*
X1468588Y6473817D01*
X1461319Y6470806D01*
X1455077Y6466016D01*
X1450287Y6459774D01*
X1447276Y6452505D01*
X1446249Y6444705D01*
X1447276Y6436904D01*
X1450287Y6429635D01*
X1455077Y6423393D01*
X1461319Y6418603D01*
X1468588Y6415592D01*
X1476389Y6414565D01*
Y6414688D01*
X1495906D01*
X1496058Y6414718D01*
X1500163Y6413017D01*
X1501864Y6408912D01*
X1501833Y6408760D01*
Y6370617D01*
Y5675197D01*
X1502368Y5672509D01*
X1503891Y5670230D01*
X2463349Y4710771D01*
Y3510410D01*
X2461772Y3506063D01*
X2443047D01*
X2442307Y3511686D01*
X2439316Y3518908D01*
X2434557Y3525109D01*
X2428356Y3529867D01*
X2421135Y3532858D01*
X2418386Y3533220D01*
Y3488189D01*
Y3443158D01*
X2421135Y3443520D01*
X2428356Y3446511D01*
X2434557Y3451269D01*
X2437088Y3454567D01*
X2440866D01*
Y3480315D01*
X2450866D01*
Y3454567D01*
X2461772D01*
Y3460630D01*
X2470394D01*
X2475394Y3460630D01*
Y3460630D01*
X2475394D01*
Y3460630D01*
X2494685D01*
Y3459646D01*
X2495464Y3455728D01*
X2497683Y3452408D01*
X2504146Y3445945D01*
X2503606Y3440945D01*
X2490236D01*
X2485236Y3440945D01*
Y3440945D01*
X2485236D01*
Y3440945D01*
X2471614D01*
Y3447008D01*
X2460709D01*
Y3421260D01*
X2455709D01*
Y3416260D01*
X2439803D01*
Y3403049D01*
X1703898D01*
Y3416260D01*
X1687992D01*
Y3426260D01*
X1703898D01*
Y3441764D01*
X1708898Y3445105D01*
X1712723Y3443520D01*
X1715472Y3443158D01*
Y3488189D01*
Y3533220D01*
X1712723Y3532858D01*
X1705502Y3529867D01*
X1699301Y3525109D01*
X1694543Y3518908D01*
X1691551Y3511686D01*
X1690811Y3506063D01*
X1683150D01*
Y3480315D01*
X1673150D01*
Y3506063D01*
X1662244D01*
X1660666Y3510410D01*
Y3548672D01*
X1660636Y3548824D01*
X1662337Y3552930D01*
X1666442Y3554630D01*
X1666594Y3554600D01*
X1685064D01*
Y3554477D01*
X1692864Y3555504D01*
X1700133Y3558515D01*
X1706376Y3563305D01*
X1711165Y3569547D01*
X1714176Y3576816D01*
X1715203Y3584617D01*
X1714176Y3592417D01*
X1711165Y3599686D01*
X1706376Y3605928D01*
X1700133Y3610718D01*
X1692864Y3613729D01*
X1685064Y3614756D01*
Y3614633D01*
X1665825D01*
X1665672Y3614603D01*
X1661567Y3616304D01*
X1659803Y3620561D01*
X1661567Y3624819D01*
X1665672Y3626520D01*
X1665825Y3626489D01*
X1730650D01*
Y3626367D01*
X1738450Y3627394D01*
X1745719Y3630405D01*
X1751962Y3635194D01*
X1756751Y3641436D01*
X1759762Y3648706D01*
X1760789Y3656506D01*
X1759762Y3664307D01*
X1756751Y3671576D01*
X1751962Y3677818D01*
X1745719Y3682608D01*
X1738450Y3685619D01*
X1730650Y3686646D01*
Y3686523D01*
X1666594D01*
X1666442Y3686493D01*
X1662337Y3688193D01*
X1660636Y3692299D01*
X1660666Y3692451D01*
Y3700424D01*
Y3926402D01*
X1660667Y3926403D01*
X1660132Y3929091D01*
X1658609Y3931370D01*
X1647773Y3942206D01*
Y4019312D01*
X1652773Y4022199D01*
X1657073Y4019716D01*
X1664291Y4017782D01*
Y4049213D01*
Y4080643D01*
X1657073Y4078709D01*
X1652773Y4076226D01*
X1647773Y4079113D01*
Y4088927D01*
X1663530Y4104685D01*
X1665053Y4106964D01*
X1665588Y4109652D01*
Y4156794D01*
X1668961Y4158191D01*
X1671730Y4160960D01*
X1673228Y4164578D01*
Y4168493D01*
X1671730Y4172111D01*
X1668961Y4174880D01*
X1665344Y4176378D01*
X1661428D01*
X1657811Y4174880D01*
X1656749Y4173818D01*
X1653543Y4172655D01*
X1650337Y4173818D01*
X1649276Y4174880D01*
X1645659Y4176378D01*
X1641743D01*
X1638125Y4174880D01*
X1635357Y4172111D01*
X1633858Y4168493D01*
Y4164578D01*
X1635357Y4160960D01*
X1638125Y4158191D01*
X1641499Y4156794D01*
Y4116720D01*
X1625741Y4100963D01*
X1624219Y4098684D01*
X1623684Y4095995D01*
Y3935138D01*
X1624219Y3932450D01*
X1625741Y3930171D01*
X1636578Y3919335D01*
Y3700424D01*
Y3692451D01*
X1636455D01*
X1637482Y3684650D01*
X1640493Y3677381D01*
X1645283Y3671139D01*
X1651525Y3666349D01*
X1658794Y3663338D01*
X1666594Y3662311D01*
Y3662434D01*
X1730650D01*
X1730802Y3662465D01*
X1734907Y3660764D01*
X1736671Y3656506D01*
X1734907Y3652249D01*
X1730802Y3650548D01*
X1730650Y3650578D01*
X1665825D01*
Y3650701D01*
X1658024Y3649674D01*
X1650755Y3646663D01*
X1644513Y3641873D01*
X1639723Y3635631D01*
X1636712Y3628362D01*
X1635685Y3620561D01*
X1636712Y3612761D01*
X1639723Y3605492D01*
X1644513Y3599249D01*
X1650755Y3594460D01*
X1658024Y3591449D01*
X1665825Y3590422D01*
Y3590545D01*
X1685064D01*
X1685216Y3590575D01*
X1689321Y3588874D01*
X1691085Y3584617D01*
X1689321Y3580359D01*
X1685216Y3578658D01*
X1685064Y3578689D01*
X1666594D01*
Y3578811D01*
X1658794Y3577784D01*
X1651525Y3574773D01*
X1645283Y3569984D01*
X1640493Y3563742D01*
X1637482Y3556472D01*
X1636455Y3548672D01*
X1636578D01*
Y3500000D01*
X1629134D01*
Y3500197D01*
X1589370D01*
Y3500000D01*
X1581926D01*
Y3536058D01*
X1581896Y3536210D01*
X1583519Y3540129D01*
X1587855Y3541732D01*
Y3541732D01*
X1595597Y3543272D01*
X1602161Y3547658D01*
X1606546Y3554221D01*
X1608087Y3561963D01*
Y3561963D01*
Y3561964D01*
X1608086D01*
X1606546Y3569706D01*
X1602161Y3576269D01*
X1595597Y3580655D01*
X1587855Y3582195D01*
Y3582195D01*
X1583519Y3583798D01*
X1581896Y3587717D01*
X1581926Y3587869D01*
Y3607951D01*
Y3942932D01*
X1584790Y3945796D01*
X1586313Y3948075D01*
X1586848Y3950763D01*
Y4156794D01*
X1590221Y4158191D01*
X1592990Y4160960D01*
X1594488Y4164578D01*
Y4168493D01*
X1592990Y4172111D01*
X1590221Y4174880D01*
X1586603Y4176378D01*
X1582688D01*
X1579070Y4174880D01*
X1578009Y4173818D01*
X1574803Y4172655D01*
X1571597Y4173818D01*
X1570536Y4174880D01*
X1566918Y4176378D01*
X1563003D01*
X1559385Y4174880D01*
X1556617Y4172111D01*
X1555118Y4168493D01*
Y4164578D01*
X1556617Y4160960D01*
X1559385Y4158191D01*
X1562759Y4156794D01*
Y3957831D01*
X1559895Y3954967D01*
X1558372Y3952689D01*
X1557838Y3950000D01*
Y3641532D01*
Y3613465D01*
X1557868Y3613313D01*
X1556167Y3609207D01*
X1553702Y3608186D01*
X1548866Y3607791D01*
Y3607791D01*
X1541124Y3606251D01*
X1534561Y3601865D01*
X1530175Y3595302D01*
X1528635Y3587560D01*
Y3587560D01*
Y3587559D01*
X1528635D01*
X1530175Y3579817D01*
X1534561Y3573254D01*
X1541124Y3568868D01*
X1548866Y3567328D01*
Y3567582D01*
X1555029D01*
X1555181Y3567612D01*
X1559286Y3565912D01*
X1560987Y3561806D01*
X1560957Y3561654D01*
X1560987Y3561502D01*
X1559286Y3557396D01*
X1555181Y3555696D01*
X1555029Y3555726D01*
X1546757D01*
Y3555980D01*
X1539015Y3554440D01*
X1532452Y3550054D01*
X1528066Y3543491D01*
X1526526Y3535749D01*
Y3535749D01*
Y3535748D01*
X1526526D01*
X1528066Y3528006D01*
X1532452Y3521443D01*
X1539015Y3517057D01*
X1546757Y3515517D01*
Y3515771D01*
X1551909D01*
X1552062Y3515801D01*
X1556167Y3514101D01*
X1557868Y3509995D01*
X1557838Y3509843D01*
Y3500000D01*
X1550394D01*
Y3500197D01*
X1510630D01*
Y3500000D01*
X1503186D01*
Y3536516D01*
X1503309D01*
X1502282Y3544317D01*
X1499271Y3551586D01*
X1494481Y3557828D01*
X1488239Y3562618D01*
X1480970Y3565629D01*
X1473169Y3566656D01*
Y3566533D01*
X1409114D01*
X1408962Y3566503D01*
X1404856Y3568203D01*
X1403093Y3572461D01*
X1404856Y3576719D01*
X1408962Y3578419D01*
X1409114Y3578389D01*
X1474422D01*
Y3578266D01*
X1482223Y3579293D01*
X1489492Y3582304D01*
X1495734Y3587094D01*
X1500524Y3593336D01*
X1503535Y3600605D01*
X1504562Y3608406D01*
X1503535Y3616206D01*
X1500524Y3623476D01*
X1495734Y3629718D01*
X1489492Y3634508D01*
X1482223Y3637518D01*
X1474422Y3638545D01*
Y3638423D01*
X1457222D01*
X1457069Y3638392D01*
X1452964Y3640093D01*
X1451200Y3644351D01*
X1452964Y3648608D01*
X1457069Y3650309D01*
X1457222Y3650279D01*
X1473169D01*
Y3650156D01*
X1480970Y3651183D01*
X1488239Y3654194D01*
X1494481Y3658983D01*
X1499271Y3665226D01*
X1502282Y3672495D01*
X1503309Y3680295D01*
X1503186D01*
Y3723551D01*
Y3972453D01*
X1523865Y3993132D01*
X1525388Y3995411D01*
X1525922Y3998099D01*
Y4078430D01*
X1525388Y4081118D01*
X1523865Y4083397D01*
X1508107Y4099154D01*
Y4156794D01*
X1511481Y4158191D01*
X1514249Y4160960D01*
X1515748Y4164578D01*
Y4168493D01*
X1514249Y4172111D01*
X1511481Y4174880D01*
X1507863Y4176378D01*
X1503948D01*
X1500330Y4174880D01*
X1499269Y4173818D01*
X1496063Y4172655D01*
X1492857Y4173818D01*
X1491796Y4174880D01*
X1488178Y4176378D01*
X1484263D01*
X1480645Y4174880D01*
X1477876Y4172111D01*
X1476378Y4168493D01*
Y4164578D01*
X1477876Y4160960D01*
X1480645Y4158191D01*
X1484019Y4156794D01*
Y4092086D01*
X1484553Y4089398D01*
X1486076Y4087119D01*
X1488130Y4085065D01*
X1485542Y4080582D01*
X1485315Y4080643D01*
Y4049213D01*
Y4017782D01*
X1492533Y4019716D01*
X1496833Y4022199D01*
X1501833Y4019312D01*
Y4005167D01*
X1481155Y3984488D01*
X1479632Y3982210D01*
X1479097Y3979521D01*
Y3723551D01*
Y3680295D01*
X1479128Y3680143D01*
X1477427Y3676038D01*
X1473322Y3674337D01*
X1473169Y3674367D01*
X1457222D01*
Y3674490D01*
X1449421Y3673463D01*
X1442152Y3670452D01*
X1435910Y3665662D01*
X1431120Y3659420D01*
X1428109Y3652151D01*
X1427082Y3644351D01*
X1428109Y3636550D01*
X1431120Y3629281D01*
X1435910Y3623039D01*
X1442152Y3618249D01*
X1449421Y3615238D01*
X1457222Y3614211D01*
Y3614334D01*
X1474422D01*
X1474574Y3614364D01*
X1478680Y3612664D01*
X1480443Y3608406D01*
X1478680Y3604148D01*
X1474574Y3602448D01*
X1474422Y3602478D01*
X1409114D01*
Y3602601D01*
X1401313Y3601574D01*
X1394044Y3598563D01*
X1387802Y3593773D01*
X1383012Y3587531D01*
X1380002Y3580262D01*
X1378975Y3572461D01*
X1380002Y3564660D01*
X1383012Y3557391D01*
X1387802Y3551149D01*
X1394044Y3546359D01*
X1401313Y3543348D01*
X1409114Y3542321D01*
Y3542444D01*
X1473169D01*
X1473322Y3542474D01*
X1477427Y3540774D01*
X1479128Y3536668D01*
X1479097Y3536516D01*
Y3510410D01*
X1477520Y3506063D01*
X1458795D01*
X1458055Y3511686D01*
X1455064Y3518908D01*
X1450305Y3525109D01*
X1444104Y3529867D01*
X1436883Y3532858D01*
X1434134Y3533220D01*
Y3488189D01*
Y3443158D01*
X1436883Y3443520D01*
X1444104Y3446511D01*
X1450305Y3451269D01*
X1452836Y3454567D01*
X1456614D01*
Y3480315D01*
X1466614D01*
Y3454567D01*
X1477520D01*
Y3460630D01*
X1486142D01*
X1491141Y3460630D01*
Y3460630D01*
X1491142D01*
Y3460630D01*
X1510433D01*
Y3459646D01*
X1511212Y3455728D01*
X1513431Y3452408D01*
X1519894Y3445945D01*
X1519354Y3440945D01*
X1505984D01*
X1500984Y3440945D01*
Y3440945D01*
X1500984D01*
Y3440945D01*
X1487362D01*
Y3447008D01*
X1476457D01*
Y3421260D01*
X1471457D01*
Y3416260D01*
X1455551D01*
Y3403049D01*
X1284939D01*
Y6884377D01*
X6982802D01*
Y3403049D01*
D02*
G37*
%LPC*%
G36*
X6792402Y6808989D02*
Y6782559D01*
X6818832D01*
X6816898Y6789777D01*
X6812731Y6796995D01*
X6806837Y6802888D01*
X6799619Y6807055D01*
X6792402Y6808989D01*
D02*
G37*
G36*
X6782402D02*
X6775184Y6807055D01*
X6767966Y6802888D01*
X6762073Y6796995D01*
X6757905Y6789777D01*
X6755971Y6782559D01*
X6782402D01*
Y6808989D01*
D02*
G37*
G36*
X6603425D02*
Y6782559D01*
X6629856D01*
X6627922Y6789777D01*
X6623754Y6796995D01*
X6617861Y6802888D01*
X6610643Y6807055D01*
X6603425Y6808989D01*
D02*
G37*
G36*
X6593425D02*
X6586207Y6807055D01*
X6578989Y6802888D01*
X6573096Y6796995D01*
X6568929Y6789777D01*
X6566995Y6782559D01*
X6593425D01*
Y6808989D01*
D02*
G37*
G36*
X4233346D02*
Y6782559D01*
X4259777D01*
X4257843Y6789777D01*
X4253676Y6796995D01*
X4247782Y6802888D01*
X4240564Y6807055D01*
X4233346Y6808989D01*
D02*
G37*
G36*
X4223346D02*
X4216129Y6807055D01*
X4208911Y6802888D01*
X4203017Y6796995D01*
X4198850Y6789777D01*
X4196916Y6782559D01*
X4223346D01*
Y6808989D01*
D02*
G37*
G36*
X4044370D02*
Y6782559D01*
X4070800D01*
X4068866Y6789777D01*
X4064699Y6796995D01*
X4058806Y6802888D01*
X4051588Y6807055D01*
X4044370Y6808989D01*
D02*
G37*
G36*
X4034370D02*
X4027152Y6807055D01*
X4019934Y6802888D01*
X4014041Y6796995D01*
X4009874Y6789777D01*
X4007940Y6782559D01*
X4034370D01*
Y6808989D01*
D02*
G37*
G36*
X1674291D02*
Y6782559D01*
X1700722D01*
X1698788Y6789777D01*
X1694620Y6796995D01*
X1688727Y6802888D01*
X1681509Y6807055D01*
X1674291Y6808989D01*
D02*
G37*
G36*
X1664291D02*
X1657073Y6807055D01*
X1649856Y6802888D01*
X1643962Y6796995D01*
X1639795Y6789777D01*
X1637861Y6782559D01*
X1664291D01*
Y6808989D01*
D02*
G37*
G36*
X1485315D02*
Y6782559D01*
X1511745D01*
X1509811Y6789777D01*
X1505644Y6796995D01*
X1499751Y6802888D01*
X1492533Y6807055D01*
X1485315Y6808989D01*
D02*
G37*
G36*
X1475315D02*
X1468097Y6807055D01*
X1460879Y6802888D01*
X1454986Y6796995D01*
X1450819Y6789777D01*
X1448884Y6782559D01*
X1475315D01*
Y6808989D01*
D02*
G37*
G36*
X6818832Y6772559D02*
X6792402D01*
Y6746129D01*
X6799619Y6748063D01*
X6806837Y6752230D01*
X6812731Y6758123D01*
X6816898Y6765341D01*
X6818832Y6772559D01*
D02*
G37*
G36*
X6782402D02*
X6755971D01*
X6757905Y6765341D01*
X6762073Y6758123D01*
X6767966Y6752230D01*
X6775184Y6748063D01*
X6782402Y6746129D01*
Y6772559D01*
D02*
G37*
G36*
X6629856D02*
X6603425D01*
Y6746129D01*
X6610643Y6748063D01*
X6617861Y6752230D01*
X6623754Y6758123D01*
X6627922Y6765341D01*
X6629856Y6772559D01*
D02*
G37*
G36*
X6593425D02*
X6566995D01*
X6568929Y6765341D01*
X6573096Y6758123D01*
X6578989Y6752230D01*
X6586207Y6748063D01*
X6593425Y6746129D01*
Y6772559D01*
D02*
G37*
G36*
X4259777D02*
X4233346D01*
Y6746129D01*
X4240564Y6748063D01*
X4247782Y6752230D01*
X4253676Y6758123D01*
X4257843Y6765341D01*
X4259777Y6772559D01*
D02*
G37*
G36*
X4223346D02*
X4196916D01*
X4198850Y6765341D01*
X4203017Y6758123D01*
X4208911Y6752230D01*
X4216129Y6748063D01*
X4223346Y6746129D01*
Y6772559D01*
D02*
G37*
G36*
X4070800D02*
X4044370D01*
Y6746129D01*
X4051588Y6748063D01*
X4058806Y6752230D01*
X4064699Y6758123D01*
X4068866Y6765341D01*
X4070800Y6772559D01*
D02*
G37*
G36*
X4034370D02*
X4007940D01*
X4009874Y6765341D01*
X4014041Y6758123D01*
X4019934Y6752230D01*
X4027152Y6748063D01*
X4034370Y6746129D01*
Y6772559D01*
D02*
G37*
G36*
X1700722D02*
X1674291D01*
Y6746129D01*
X1681509Y6748063D01*
X1688727Y6752230D01*
X1694620Y6758123D01*
X1698788Y6765341D01*
X1700722Y6772559D01*
D02*
G37*
G36*
X1664291D02*
X1637861D01*
X1639795Y6765341D01*
X1643962Y6758123D01*
X1649856Y6752230D01*
X1657073Y6748063D01*
X1664291Y6746129D01*
Y6772559D01*
D02*
G37*
G36*
X1511745D02*
X1485315D01*
Y6746129D01*
X1492533Y6748063D01*
X1499751Y6752230D01*
X1505644Y6758123D01*
X1509811Y6765341D01*
X1511745Y6772559D01*
D02*
G37*
G36*
X1475315D02*
X1448884D01*
X1450819Y6765341D01*
X1454986Y6758123D01*
X1460879Y6752230D01*
X1468097Y6748063D01*
X1475315Y6746129D01*
Y6772559D01*
D02*
G37*
G36*
X6553543Y6708769D02*
X6537008D01*
X6530940Y6707562D01*
X6525796Y6704125D01*
X6522359Y6698981D01*
X6521152Y6692913D01*
X6522359Y6686846D01*
X6525796Y6681702D01*
X6530940Y6678265D01*
X6537008Y6677057D01*
X6553543D01*
X6559611Y6678265D01*
X6564755Y6681702D01*
X6568192Y6686846D01*
X6569399Y6692913D01*
X6568192Y6698981D01*
X6564755Y6704125D01*
X6559611Y6707562D01*
X6553543Y6708769D01*
D02*
G37*
G36*
X3994488D02*
X3977953D01*
X3971885Y6707562D01*
X3966741Y6704125D01*
X3963304Y6698981D01*
X3962097Y6692913D01*
X3963304Y6686846D01*
X3966741Y6681702D01*
X3971885Y6678265D01*
X3977953Y6677057D01*
X3994488D01*
X4000556Y6678265D01*
X4005700Y6681702D01*
X4009137Y6686846D01*
X4010344Y6692913D01*
X4009137Y6698981D01*
X4005700Y6704125D01*
X4000556Y6707562D01*
X3994488Y6708769D01*
D02*
G37*
G36*
X1435433D02*
X1418898D01*
X1412830Y6707562D01*
X1407686Y6704125D01*
X1404249Y6698981D01*
X1403042Y6692913D01*
X1404249Y6686846D01*
X1407686Y6681702D01*
X1412830Y6678265D01*
X1418898Y6677057D01*
X1435433D01*
X1441501Y6678265D01*
X1446645Y6681702D01*
X1450082Y6686846D01*
X1451289Y6692913D01*
X1450082Y6698981D01*
X1446645Y6704125D01*
X1441501Y6707562D01*
X1435433Y6708769D01*
D02*
G37*
G36*
X6843958Y6710039D02*
X6837145D01*
X6830850Y6707432D01*
X6826033Y6702614D01*
X6823425Y6696320D01*
Y6689507D01*
X6826033Y6683212D01*
X6830850Y6678395D01*
X6837145Y6675787D01*
X6843958D01*
X6850252Y6678395D01*
X6855070Y6683212D01*
X6857677Y6689507D01*
Y6696320D01*
X6855070Y6702614D01*
X6850252Y6707432D01*
X6843958Y6710039D01*
D02*
G37*
G36*
X4284903D02*
X4278090D01*
X4271795Y6707432D01*
X4266977Y6702614D01*
X4264370Y6696320D01*
Y6689507D01*
X4266977Y6683212D01*
X4271795Y6678395D01*
X4278090Y6675787D01*
X4284903D01*
X4291197Y6678395D01*
X4296015Y6683212D01*
X4298622Y6689507D01*
Y6696320D01*
X4296015Y6702614D01*
X4291197Y6707432D01*
X4284903Y6710039D01*
D02*
G37*
G36*
X1725848D02*
X1719034D01*
X1712740Y6707432D01*
X1707922Y6702614D01*
X1705315Y6696320D01*
Y6689507D01*
X1707922Y6683212D01*
X1712740Y6678395D01*
X1719034Y6675787D01*
X1725848D01*
X1732142Y6678395D01*
X1736960Y6683212D01*
X1739567Y6689507D01*
Y6696320D01*
X1736960Y6702614D01*
X1732142Y6707432D01*
X1725848Y6710039D01*
D02*
G37*
G36*
X6792402Y6639698D02*
Y6613268D01*
X6818832D01*
X6816898Y6620485D01*
X6812731Y6627703D01*
X6806837Y6633597D01*
X6799619Y6637764D01*
X6792402Y6639698D01*
D02*
G37*
G36*
X6593425D02*
X6586207Y6637764D01*
X6578989Y6633597D01*
X6573096Y6627703D01*
X6568929Y6620485D01*
X6566995Y6613268D01*
X6593425D01*
Y6639698D01*
D02*
G37*
G36*
X4233346D02*
Y6613268D01*
X4259777D01*
X4257843Y6620485D01*
X4253676Y6627703D01*
X4247782Y6633597D01*
X4240564Y6637764D01*
X4233346Y6639698D01*
D02*
G37*
G36*
X4034370D02*
X4027152Y6637764D01*
X4019934Y6633597D01*
X4014041Y6627703D01*
X4009874Y6620485D01*
X4007940Y6613268D01*
X4034370D01*
Y6639698D01*
D02*
G37*
G36*
X1674291D02*
Y6613268D01*
X1700722D01*
X1698788Y6620485D01*
X1694620Y6627703D01*
X1688727Y6633597D01*
X1681509Y6637764D01*
X1674291Y6639698D01*
D02*
G37*
G36*
X1475315D02*
X1468097Y6637764D01*
X1460879Y6633597D01*
X1454986Y6627703D01*
X1450819Y6620485D01*
X1448884Y6613268D01*
X1475315D01*
Y6639698D01*
D02*
G37*
G36*
Y6603268D02*
X1448884D01*
X1450819Y6596050D01*
X1454986Y6588832D01*
X1460879Y6582939D01*
X1468097Y6578771D01*
X1475315Y6576837D01*
Y6603268D01*
D02*
G37*
G36*
X6593425D02*
X6566995D01*
X6568929Y6596050D01*
X6573096Y6588832D01*
X6578989Y6582939D01*
X6586207Y6578771D01*
X6593425Y6576837D01*
Y6603268D01*
D02*
G37*
G36*
X4259777D02*
X4233346D01*
Y6576837D01*
X4240564Y6578771D01*
X4247782Y6582939D01*
X4253676Y6588832D01*
X4257843Y6596050D01*
X4259777Y6603268D01*
D02*
G37*
G36*
X4034370D02*
X4007940D01*
X4009874Y6596050D01*
X4014041Y6588832D01*
X4019934Y6582939D01*
X4027152Y6578771D01*
X4034370Y6576837D01*
Y6603268D01*
D02*
G37*
G36*
X6792402Y4249934D02*
Y4223504D01*
X6818832D01*
X6816898Y4230722D01*
X6812731Y4237940D01*
X6806837Y4243833D01*
X6799619Y4248000D01*
X6792402Y4249934D01*
D02*
G37*
G36*
X6782402D02*
X6775184Y4248000D01*
X6767966Y4243833D01*
X6762073Y4237940D01*
X6757905Y4230722D01*
X6755971Y4223504D01*
X6782402D01*
Y4249934D01*
D02*
G37*
G36*
X6603425D02*
Y4223504D01*
X6629856D01*
X6627922Y4230722D01*
X6623754Y4237940D01*
X6617861Y4243833D01*
X6610643Y4248000D01*
X6603425Y4249934D01*
D02*
G37*
G36*
X6593425D02*
X6586207Y4248000D01*
X6578989Y4243833D01*
X6573096Y4237940D01*
X6568929Y4230722D01*
X6566995Y4223504D01*
X6593425D01*
Y4249934D01*
D02*
G37*
G36*
X4233346D02*
Y4223504D01*
X4259777D01*
X4257843Y4230722D01*
X4253676Y4237940D01*
X4247782Y4243833D01*
X4240564Y4248000D01*
X4233346Y4249934D01*
D02*
G37*
G36*
X4223346D02*
X4216129Y4248000D01*
X4208911Y4243833D01*
X4203017Y4237940D01*
X4198850Y4230722D01*
X4196916Y4223504D01*
X4223346D01*
Y4249934D01*
D02*
G37*
G36*
X4044370D02*
Y4223504D01*
X4070800D01*
X4068866Y4230722D01*
X4064699Y4237940D01*
X4058806Y4243833D01*
X4051588Y4248000D01*
X4044370Y4249934D01*
D02*
G37*
G36*
X4034370D02*
X4027152Y4248000D01*
X4019934Y4243833D01*
X4014041Y4237940D01*
X4009874Y4230722D01*
X4007940Y4223504D01*
X4034370D01*
Y4249934D01*
D02*
G37*
G36*
X1674291D02*
Y4223504D01*
X1700722D01*
X1698788Y4230722D01*
X1694620Y4237940D01*
X1688727Y4243833D01*
X1681509Y4248000D01*
X1674291Y4249934D01*
D02*
G37*
G36*
X1664291D02*
X1657073Y4248000D01*
X1649856Y4243833D01*
X1643962Y4237940D01*
X1639795Y4230722D01*
X1637861Y4223504D01*
X1664291D01*
Y4249934D01*
D02*
G37*
G36*
X1485315D02*
Y4223504D01*
X1511745D01*
X1509811Y4230722D01*
X1505644Y4237940D01*
X1499751Y4243833D01*
X1492533Y4248000D01*
X1485315Y4249934D01*
D02*
G37*
G36*
X1475315D02*
X1468097Y4248000D01*
X1460879Y4243833D01*
X1454986Y4237940D01*
X1450819Y4230722D01*
X1448884Y4223504D01*
X1475315D01*
Y4249934D01*
D02*
G37*
G36*
X6818832Y4213504D02*
X6792402D01*
Y4187074D01*
X6799619Y4189008D01*
X6806837Y4193175D01*
X6812731Y4199068D01*
X6816898Y4206286D01*
X6818832Y4213504D01*
D02*
G37*
G36*
X6782402D02*
X6755971D01*
X6757905Y4206286D01*
X6762073Y4199068D01*
X6767966Y4193175D01*
X6775184Y4189008D01*
X6782402Y4187074D01*
Y4213504D01*
D02*
G37*
G36*
X6629856D02*
X6603425D01*
Y4187074D01*
X6610643Y4189008D01*
X6617861Y4193175D01*
X6623754Y4199068D01*
X6627922Y4206286D01*
X6629856Y4213504D01*
D02*
G37*
G36*
X6593425D02*
X6566995D01*
X6568929Y4206286D01*
X6573096Y4199068D01*
X6578989Y4193175D01*
X6586207Y4189008D01*
X6593425Y4187074D01*
Y4213504D01*
D02*
G37*
G36*
X4259777D02*
X4233346D01*
Y4187074D01*
X4240564Y4189008D01*
X4247782Y4193175D01*
X4253676Y4199068D01*
X4257843Y4206286D01*
X4259777Y4213504D01*
D02*
G37*
G36*
X4223346D02*
X4196916D01*
X4198850Y4206286D01*
X4203017Y4199068D01*
X4208911Y4193175D01*
X4216129Y4189008D01*
X4223346Y4187074D01*
Y4213504D01*
D02*
G37*
G36*
X4070800D02*
X4044370D01*
Y4187074D01*
X4051588Y4189008D01*
X4058806Y4193175D01*
X4064699Y4199068D01*
X4068866Y4206286D01*
X4070800Y4213504D01*
D02*
G37*
G36*
X4034370D02*
X4007940D01*
X4009874Y4206286D01*
X4014041Y4199068D01*
X4019934Y4193175D01*
X4027152Y4189008D01*
X4034370Y4187074D01*
Y4213504D01*
D02*
G37*
G36*
X1700722D02*
X1674291D01*
Y4187074D01*
X1681509Y4189008D01*
X1688727Y4193175D01*
X1694620Y4199068D01*
X1698788Y4206286D01*
X1700722Y4213504D01*
D02*
G37*
G36*
X1664291D02*
X1637861D01*
X1639795Y4206286D01*
X1643962Y4199068D01*
X1649856Y4193175D01*
X1657073Y4189008D01*
X1664291Y4187074D01*
Y4213504D01*
D02*
G37*
G36*
X1511745D02*
X1485315D01*
Y4187074D01*
X1492533Y4189008D01*
X1499751Y4193175D01*
X1505644Y4199068D01*
X1509811Y4206286D01*
X1511745Y4213504D01*
D02*
G37*
G36*
X1475315D02*
X1448884D01*
X1450819Y4206286D01*
X1454986Y4199068D01*
X1460879Y4193175D01*
X1468097Y4189008D01*
X1475315Y4187074D01*
Y4213504D01*
D02*
G37*
G36*
X6553543Y4149714D02*
X6537008D01*
X6530940Y4148507D01*
X6525796Y4145070D01*
X6522359Y4139926D01*
X6521152Y4133858D01*
X6522359Y4127791D01*
X6525796Y4122646D01*
X6530940Y4119209D01*
X6537008Y4118002D01*
X6553543D01*
X6559611Y4119209D01*
X6564755Y4122646D01*
X6568192Y4127791D01*
X6569399Y4133858D01*
X6568192Y4139926D01*
X6564755Y4145070D01*
X6559611Y4148507D01*
X6553543Y4149714D01*
D02*
G37*
G36*
X3994488D02*
X3977953D01*
X3971885Y4148507D01*
X3966741Y4145070D01*
X3963304Y4139926D01*
X3962097Y4133858D01*
X3963304Y4127791D01*
X3966741Y4122646D01*
X3971885Y4119209D01*
X3977953Y4118002D01*
X3994488D01*
X4000556Y4119209D01*
X4005700Y4122646D01*
X4009137Y4127791D01*
X4010344Y4133858D01*
X4009137Y4139926D01*
X4005700Y4145070D01*
X4000556Y4148507D01*
X3994488Y4149714D01*
D02*
G37*
G36*
X1435433D02*
X1418898D01*
X1412830Y4148507D01*
X1407686Y4145070D01*
X1404249Y4139926D01*
X1403042Y4133858D01*
X1404249Y4127791D01*
X1407686Y4122646D01*
X1412830Y4119209D01*
X1418898Y4118002D01*
X1435433D01*
X1441501Y4119209D01*
X1446645Y4122646D01*
X1450082Y4127791D01*
X1451289Y4133858D01*
X1450082Y4139926D01*
X1446645Y4145070D01*
X1441501Y4148507D01*
X1435433Y4149714D01*
D02*
G37*
G36*
X6843958Y4150984D02*
X6837145D01*
X6830850Y4148377D01*
X6826033Y4143559D01*
X6823425Y4137265D01*
Y4130452D01*
X6826033Y4124157D01*
X6830850Y4119340D01*
X6837145Y4116732D01*
X6843958D01*
X6850252Y4119340D01*
X6855070Y4124157D01*
X6857677Y4130452D01*
Y4137265D01*
X6855070Y4143559D01*
X6850252Y4148377D01*
X6843958Y4150984D01*
D02*
G37*
G36*
X4284903D02*
X4278090D01*
X4271795Y4148377D01*
X4266977Y4143559D01*
X4264370Y4137265D01*
Y4130452D01*
X4266977Y4124157D01*
X4271795Y4119340D01*
X4278090Y4116732D01*
X4284903D01*
X4291197Y4119340D01*
X4296015Y4124157D01*
X4298622Y4130452D01*
Y4137265D01*
X4296015Y4143559D01*
X4291197Y4148377D01*
X4284903Y4150984D01*
D02*
G37*
G36*
X1725848D02*
X1719034D01*
X1712740Y4148377D01*
X1707922Y4143559D01*
X1705315Y4137265D01*
Y4130452D01*
X1707922Y4124157D01*
X1712740Y4119340D01*
X1719034Y4116732D01*
X1725848D01*
X1732142Y4119340D01*
X1736960Y4124157D01*
X1739567Y4130452D01*
Y4137265D01*
X1736960Y4143559D01*
X1732142Y4148377D01*
X1725848Y4150984D01*
D02*
G37*
G36*
X6792402Y4080643D02*
Y4054213D01*
X6818832D01*
X6816898Y4061430D01*
X6812731Y4068648D01*
X6806837Y4074542D01*
X6799619Y4078709D01*
X6792402Y4080643D01*
D02*
G37*
G36*
X6593425D02*
X6586207Y4078709D01*
X6578989Y4074542D01*
X6573096Y4068648D01*
X6568929Y4061430D01*
X6566995Y4054213D01*
X6593425D01*
Y4080643D01*
D02*
G37*
G36*
X4034370D02*
X4027152Y4078709D01*
X4019934Y4074542D01*
X4014041Y4068648D01*
X4009874Y4061430D01*
X4007940Y4054213D01*
X4034370D01*
Y4080643D01*
D02*
G37*
G36*
X1674291D02*
Y4054213D01*
X1700722D01*
X1698788Y4061430D01*
X1694620Y4068648D01*
X1688727Y4074542D01*
X1681509Y4078709D01*
X1674291Y4080643D01*
D02*
G37*
G36*
X1475315D02*
X1468097Y4078709D01*
X1460879Y4074542D01*
X1454986Y4068648D01*
X1450819Y4061430D01*
X1448884Y4054213D01*
X1475315D01*
Y4080643D01*
D02*
G37*
G36*
X1700722Y4044213D02*
X1674291D01*
Y4017782D01*
X1681509Y4019716D01*
X1688727Y4023883D01*
X1694620Y4029777D01*
X1698788Y4036995D01*
X1700722Y4044213D01*
D02*
G37*
G36*
X1475315D02*
X1448884D01*
X1450819Y4036995D01*
X1454986Y4029777D01*
X1460879Y4023883D01*
X1468097Y4019716D01*
X1475315Y4017782D01*
Y4044213D01*
D02*
G37*
G36*
X6818832D02*
X6792402D01*
Y4017782D01*
X6799619Y4019716D01*
X6806837Y4023883D01*
X6812731Y4029777D01*
X6816898Y4036995D01*
X6818832Y4044213D01*
D02*
G37*
G36*
X6593425D02*
X6566995D01*
X6568929Y4036995D01*
X6573096Y4029777D01*
X6578989Y4023883D01*
X6586207Y4019716D01*
X6593425Y4017782D01*
Y4044213D01*
D02*
G37*
G36*
X4259777D02*
X4233346D01*
Y4017782D01*
X4240564Y4019716D01*
X4247782Y4023883D01*
X4253676Y4029777D01*
X4257843Y4036995D01*
X4259777Y4044213D01*
D02*
G37*
G36*
X4034370D02*
X4007940D01*
X4009874Y4036995D01*
X4014041Y4029777D01*
X4019934Y4023883D01*
X4027152Y4019716D01*
X4034370Y4017782D01*
Y4044213D01*
D02*
G37*
G36*
X6843582Y3533220D02*
Y3493189D01*
X6868524D01*
Y3503937D01*
X6867504Y3511686D01*
X6864512Y3518908D01*
X6859754Y3525109D01*
X6853553Y3529867D01*
X6846332Y3532858D01*
X6843582Y3533220D01*
D02*
G37*
G36*
X3392637Y3533220D02*
X3389888Y3532858D01*
X3382667Y3529867D01*
X3376466Y3525109D01*
X3371708Y3518908D01*
X3368717Y3511686D01*
X3367697Y3503937D01*
Y3493189D01*
X3392637D01*
Y3533220D01*
D02*
G37*
G36*
X6542244D02*
X6539495Y3532858D01*
X6532274Y3529867D01*
X6526073Y3525109D01*
X6521314Y3518908D01*
X6518323Y3511686D01*
X6517303Y3503937D01*
Y3493189D01*
X6542244D01*
Y3533220D01*
D02*
G37*
G36*
X4573740D02*
X4570991Y3532858D01*
X4563770Y3529867D01*
X4557569Y3525109D01*
X4552810Y3518908D01*
X4549819Y3511686D01*
X4548799Y3503937D01*
Y3493189D01*
X4573740D01*
Y3533220D01*
D02*
G37*
G36*
X5557992D02*
X5555243Y3532858D01*
X5548021Y3529867D01*
X5541820Y3525109D01*
X5537062Y3518908D01*
X5534071Y3511686D01*
X5533051Y3503937D01*
Y3493189D01*
X5557992D01*
Y3533220D01*
D02*
G37*
G36*
X3693976Y3533220D02*
Y3493189D01*
X3718918D01*
Y3503937D01*
X3717897Y3511686D01*
X3714906Y3518908D01*
X3710148Y3525109D01*
X3703947Y3529867D01*
X3696726Y3532858D01*
X3693976Y3533220D01*
D02*
G37*
G36*
X2709724D02*
Y3493189D01*
X2734666D01*
Y3503937D01*
X2733645Y3511686D01*
X2730654Y3518908D01*
X2725896Y3525109D01*
X2719695Y3529867D01*
X2712474Y3532858D01*
X2709724Y3533220D01*
D02*
G37*
G36*
X1725472D02*
Y3493189D01*
X1750414D01*
Y3503937D01*
X1749393Y3511686D01*
X1746402Y3518908D01*
X1741644Y3525109D01*
X1735443Y3529867D01*
X1728222Y3532858D01*
X1725472Y3533220D01*
D02*
G37*
G36*
X2408386Y3533220D02*
X2405636Y3532858D01*
X2398415Y3529867D01*
X2392214Y3525109D01*
X2387456Y3518908D01*
X2384465Y3511686D01*
X2383445Y3503937D01*
Y3493189D01*
X2408386D01*
Y3533220D01*
D02*
G37*
G36*
X1424134D02*
X1421384Y3532858D01*
X1414163Y3529867D01*
X1407962Y3525109D01*
X1403204Y3518908D01*
X1400213Y3511686D01*
X1399193Y3503937D01*
Y3493189D01*
X1424134D01*
Y3533220D01*
D02*
G37*
G36*
X5859331Y3533220D02*
Y3493189D01*
X5884272D01*
Y3503937D01*
X5883252Y3511686D01*
X5880261Y3518908D01*
X5875502Y3525109D01*
X5869301Y3529867D01*
X5862080Y3532858D01*
X5859331Y3533220D01*
D02*
G37*
G36*
X4875079D02*
Y3493189D01*
X4900020D01*
Y3503937D01*
X4899000Y3511686D01*
X4896008Y3518908D01*
X4891250Y3525109D01*
X4885049Y3529867D01*
X4877828Y3532858D01*
X4875079Y3533220D01*
D02*
G37*
G36*
X3392637Y3483189D02*
X3367697D01*
Y3472441D01*
X3368717Y3464692D01*
X3371708Y3457470D01*
X3376466Y3451269D01*
X3382667Y3446511D01*
X3389888Y3443520D01*
X3392637Y3443158D01*
Y3483189D01*
D02*
G37*
G36*
X4573740Y3483189D02*
X4548799D01*
Y3472441D01*
X4549819Y3464692D01*
X4552810Y3457470D01*
X4557569Y3451269D01*
X4563770Y3446511D01*
X4570991Y3443520D01*
X4573740Y3443158D01*
Y3483189D01*
D02*
G37*
G36*
X6542244D02*
X6517303D01*
Y3472441D01*
X6518323Y3464692D01*
X6521314Y3457470D01*
X6526073Y3451269D01*
X6532274Y3446511D01*
X6539495Y3443520D01*
X6542244Y3443158D01*
Y3483189D01*
D02*
G37*
G36*
X5557992D02*
X5533051D01*
Y3472441D01*
X5534071Y3464692D01*
X5537062Y3457470D01*
X5541820Y3451269D01*
X5548021Y3446511D01*
X5555243Y3443520D01*
X5557992Y3443158D01*
Y3483189D01*
D02*
G37*
G36*
X2408386Y3483189D02*
X2383445D01*
Y3472441D01*
X2384465Y3464692D01*
X2387456Y3457470D01*
X2392214Y3451269D01*
X2398415Y3446511D01*
X2405636Y3443520D01*
X2408386Y3443158D01*
Y3483189D01*
D02*
G37*
G36*
X1424134D02*
X1399193D01*
Y3472441D01*
X1400213Y3464692D01*
X1403204Y3457470D01*
X1407962Y3451269D01*
X1414163Y3446511D01*
X1421384Y3443520D01*
X1424134Y3443158D01*
Y3483189D01*
D02*
G37*
G36*
X5884272Y3483189D02*
X5859331D01*
Y3443158D01*
X5862080Y3443520D01*
X5869301Y3446511D01*
X5875502Y3451269D01*
X5880261Y3457470D01*
X5883252Y3464692D01*
X5884272Y3472441D01*
Y3483189D01*
D02*
G37*
G36*
X4900020D02*
X4875079D01*
Y3443158D01*
X4877828Y3443520D01*
X4885049Y3446511D01*
X4891250Y3451269D01*
X4896008Y3457470D01*
X4899000Y3464692D01*
X4900020Y3472441D01*
Y3483189D01*
D02*
G37*
G36*
X3718918Y3483189D02*
X3693976D01*
Y3443158D01*
X3696726Y3443520D01*
X3703947Y3446511D01*
X3710148Y3451269D01*
X3714906Y3457470D01*
X3717897Y3464692D01*
X3718918Y3472441D01*
Y3483189D01*
D02*
G37*
G36*
X2734666D02*
X2709724D01*
Y3443158D01*
X2712474Y3443520D01*
X2719695Y3446511D01*
X2725896Y3451269D01*
X2730654Y3457470D01*
X2733645Y3464692D01*
X2734666Y3472441D01*
Y3483189D01*
D02*
G37*
G36*
X1750414D02*
X1725472D01*
Y3443158D01*
X1728222Y3443520D01*
X1735443Y3446511D01*
X1741644Y3451269D01*
X1746402Y3457470D01*
X1749393Y3464692D01*
X1750414Y3472441D01*
Y3483189D01*
D02*
G37*
G36*
X6868524Y3483189D02*
X6843582D01*
Y3443158D01*
X6846332Y3443520D01*
X6853553Y3446511D01*
X6859754Y3451269D01*
X6864512Y3457470D01*
X6867504Y3464692D01*
X6868524Y3472441D01*
Y3483189D01*
D02*
G37*
G36*
X6584567Y3447008D02*
X6573661D01*
Y3426260D01*
X6584567D01*
Y3447008D01*
D02*
G37*
G36*
X5600315D02*
X5589409D01*
Y3426260D01*
X5600315D01*
Y3447008D01*
D02*
G37*
G36*
X4616063D02*
X4605157D01*
Y3426260D01*
X4616063D01*
Y3447008D01*
D02*
G37*
G36*
X2450709D02*
X2439803D01*
Y3426260D01*
X2450709D01*
Y3447008D01*
D02*
G37*
G36*
X1466457D02*
X1455551D01*
Y3426260D01*
X1466457D01*
Y3447008D01*
D02*
G37*
G36*
X3434961D02*
X3424055D01*
Y3426260D01*
X3434961D01*
Y3447008D01*
D02*
G37*
%LPD*%
D10*
X3525414Y3566939D02*
G03*
X3533366Y3574892I0J7953D01*
G01*
X3524445Y3566939D02*
G03*
X3516492Y3558987I0J-7953D01*
G01*
Y3558987D02*
G03*
X3524445Y3551034I7953J0D01*
G01*
X3533366Y3543081D02*
G03*
X3525414Y3551034I-7953J0D01*
G01*
Y3535128D02*
G03*
X3533366Y3543081I0J7953D01*
G01*
X3519304Y3535128D02*
G03*
X3511351Y3527176I0J-7953D01*
G01*
Y3527176D02*
G03*
X3519304Y3519223I7953J0D01*
G01*
X3533366Y3511270D02*
G03*
X3525414Y3519223I-7953J0D01*
G01*
X4120886Y4109145D02*
G03*
X4128839Y4117098I0J7953D01*
G01*
X4120544Y4109145D02*
G03*
X4112592Y4101193I0J-7953D01*
G01*
Y4101193D02*
G03*
X4120544Y4093240I7953J0D01*
G01*
X4128839Y4085287D02*
G03*
X4120886Y4093240I-7953J0D01*
G01*
Y4077334D02*
G03*
X4128839Y4085287I0J7953D01*
G01*
X4118206Y4077334D02*
G03*
X4110253Y4069382I0J-7953D01*
G01*
Y4069382D02*
G03*
X4118206Y4061429I7953J0D01*
G01*
X4128839Y4053476D02*
G03*
X4120886Y4061429I-7953J0D01*
G01*
X5690866Y3585443D02*
G03*
X5698819Y3593396I0J7953D01*
G01*
X5690865Y3585443D02*
G03*
X5682912Y3577491I0J-7953D01*
G01*
Y3577491D02*
G03*
X5690865Y3569538I7953J0D01*
G01*
X5698819Y3561585D02*
G03*
X5690866Y3569538I-7953J0D01*
G01*
Y3553632D02*
G03*
X5698819Y3561585I0J7953D01*
G01*
X5687845Y3553632D02*
G03*
X5679892Y3545680I0J-7953D01*
G01*
Y3545680D02*
G03*
X5687845Y3537727I7953J0D01*
G01*
X5698819Y3529774D02*
G03*
X5690866Y3537727I-7953J0D01*
G01*
X2541162Y3570434D02*
G03*
X2549114Y3578386I0J7953D01*
G01*
X2541160Y3570434D02*
G03*
X2533208Y3562481I0J-7953D01*
G01*
Y3562481D02*
G03*
X2541160Y3554528I7953J0D01*
G01*
X2549114Y3546575D02*
G03*
X2541162Y3554528I-7953J0D01*
G01*
Y3538622D02*
G03*
X2549114Y3546575I0J7953D01*
G01*
X2538140Y3538622D02*
G03*
X2530188Y3530670I0J-7953D01*
G01*
Y3530670D02*
G03*
X2538140Y3522717I7953J0D01*
G01*
X2549114Y3514764D02*
G03*
X2541162Y3522717I-7953J0D01*
G01*
X1551909Y3600512D02*
G03*
X1564862Y3613465I0J12953D01*
G01*
X1548866Y3600512D02*
G03*
X1535913Y3587560I0J-12953D01*
G01*
Y3587559D02*
G03*
X1548866Y3574607I12953J0D01*
G01*
X1567982Y3561654D02*
G03*
X1555029Y3574607I-12953J0D01*
G01*
Y3548701D02*
G03*
X1567982Y3561654I0J12953D01*
G01*
X1546757Y3548701D02*
G03*
X1533804Y3535749I0J-12953D01*
G01*
Y3535749D02*
G03*
X1546757Y3522796I12953J0D01*
G01*
X1564862Y3509843D02*
G03*
X1551909Y3522796I-12953J0D01*
G01*
X1574902Y3587869D02*
G03*
X1587854Y3574916I12953J0D01*
G01*
X1600808Y3561964D02*
G03*
X1587855Y3574916I-12953J0D01*
G01*
Y3549011D02*
G03*
X1600808Y3561963I0J12953D01*
G01*
X1587854Y3549011D02*
G03*
X1574902Y3536058I0J-12953D01*
G01*
X6670020Y3588071D02*
G03*
X6682972Y3601024I0J12953D01*
G01*
X6661093Y3588071D02*
G03*
X6648140Y3575119I0J-12953D01*
G01*
Y3575119D02*
G03*
X6661093Y3562166I12953J0D01*
G01*
X6682972Y3549213D02*
G03*
X6670020Y3562166I-12953J0D01*
G01*
X6693012Y3601567D02*
G03*
X6705965Y3588615I12953J0D01*
G01*
X6718918Y3575662D02*
G03*
X6705966Y3588615I-12953J0D01*
G01*
Y3562709D02*
G03*
X6718918Y3575662I0J12953D01*
G01*
X6705965Y3562709D02*
G03*
X6693012Y3549756I0J-12953D01*
G01*
X6771811Y6462775D02*
G03*
X6748819Y6439783I0J-22992D01*
G01*
X6790843Y6462775D02*
G03*
X6790843Y6488681I0J12953D01*
G01*
X6771274Y6534665D02*
G03*
X6771274Y6488681I0J-22992D01*
G01*
X6835866Y6534665D02*
G03*
X6835866Y6560570I0J12953D01*
G01*
X6748819Y6583562D02*
G03*
X6771811Y6560570I22992J0D01*
G01*
Y6452736D02*
G03*
X6758858Y6439783I0J-12953D01*
G01*
X6790843Y6452736D02*
G03*
X6790843Y6498720I0J22992D01*
G01*
X6771274Y6524626D02*
G03*
X6771274Y6498720I0J-12953D01*
G01*
X6835866Y6524626D02*
G03*
X6835866Y6570610I0J22992D01*
G01*
X6758858Y6583562D02*
G03*
X6771811Y6570610I12953J0D01*
G01*
X6614016Y6530919D02*
G03*
X6637008Y6553912I0J22992D01*
G01*
X6602048Y6530919D02*
G03*
X6602048Y6505014I0J-12953D01*
G01*
X6614278Y6459030D02*
G03*
X6614278Y6505014I0J22992D01*
G01*
X6549961Y6459030D02*
G03*
X6549961Y6433124I0J-12953D01*
G01*
X6637008Y6410132D02*
G03*
X6614016Y6433124I-22992J0D01*
G01*
Y6540959D02*
G03*
X6626968Y6553912I0J12953D01*
G01*
X6602048Y6540959D02*
G03*
X6602048Y6494975I0J-22992D01*
G01*
X6614278Y6469069D02*
G03*
X6614278Y6494975I0J12953D01*
G01*
X6549961Y6469069D02*
G03*
X6549961Y6423085I0J-22992D01*
G01*
X6626968Y6410132D02*
G03*
X6614016Y6423085I-12953J0D01*
G01*
X6591280Y3657303D02*
G03*
X6614272Y3680295I0J22992D01*
G01*
X6564853Y3657303D02*
G03*
X6564853Y3631398I0J-12953D01*
G01*
X6591596Y3585414D02*
G03*
X6591596Y3631398I0J22992D01*
G01*
X6527224Y3585414D02*
G03*
X6527224Y3559508I0J-12953D01*
G01*
X6614272Y3536516D02*
G03*
X6591280Y3559508I-22992J0D01*
G01*
Y3667343D02*
G03*
X6604232Y3680295I0J12953D01*
G01*
X6564853Y3667343D02*
G03*
X6564853Y3621358I0J-22992D01*
G01*
X6591596Y3595453D02*
G03*
X6591596Y3621358I0J12953D01*
G01*
X6527224Y3595453D02*
G03*
X6527224Y3549469I0J-22992D01*
G01*
X6604232Y3536516D02*
G03*
X6591280Y3549469I-12953J0D01*
G01*
X6784705Y3580686D02*
G03*
X6761713Y3557694I0J-22992D01*
G01*
X6812972Y3580686D02*
G03*
X6812972Y3606592I0J12953D01*
G01*
X6784191Y3652576D02*
G03*
X6784191Y3606592I0J-22992D01*
G01*
X6848760Y3652576D02*
G03*
X6848760Y3678481I0J12953D01*
G01*
X6761713Y3701474D02*
G03*
X6784705Y3678481I22992J0D01*
G01*
Y3570647D02*
G03*
X6771752Y3557694I0J-12953D01*
G01*
X6812972Y3570647D02*
G03*
X6812972Y3616631I0J22992D01*
G01*
X6784191Y3642537D02*
G03*
X6784191Y3616631I0J-12953D01*
G01*
X6848760Y3642537D02*
G03*
X6848760Y3688521I0J22992D01*
G01*
X6771752Y3701474D02*
G03*
X6784705Y3688521I12953J0D01*
G01*
X4469326Y3682874D02*
G03*
X4456373Y3669921I0J-12953D01*
G01*
X4410389Y3652491D02*
G03*
X4456373Y3652491I22992J0D01*
G01*
X4410389Y3670132D02*
G03*
X4384484Y3670132I-12953J0D01*
G01*
X4338500Y3605866D02*
G03*
X4384484Y3605866I22992J0D01*
G01*
X4338500Y3669921D02*
G03*
X4325547Y3682874I-12953J0D01*
G01*
X4469326Y3692913D02*
G03*
X4446334Y3669921I0J-22992D01*
G01*
X4420429Y3652491D02*
G03*
X4446334Y3652491I12953J0D01*
G01*
X4420429Y3670132D02*
G03*
X4374444Y3670132I-22992J0D01*
G01*
X4348539Y3605866D02*
G03*
X4374444Y3605866I12953J0D01*
G01*
X4348539Y3669921D02*
G03*
X4325547Y3692913I-22992J0D01*
G01*
X4452199Y3830079D02*
G03*
X4475191Y3807087I22992J0D01*
G01*
X4452199Y3866353D02*
G03*
X4426294Y3866353I-12953J0D01*
G01*
X4380310Y3828251D02*
G03*
X4426294Y3828251I22992J0D01*
G01*
X4380310Y3894134D02*
G03*
X4354404Y3894134I-12953J0D01*
G01*
X4331412Y3807087D02*
G03*
X4354404Y3830079I0J22992D01*
G01*
X4462239D02*
G03*
X4475191Y3817126I12953J0D01*
G01*
X4462239Y3866353D02*
G03*
X4416255Y3866353I-22992J0D01*
G01*
X4390349Y3828251D02*
G03*
X4416255Y3828251I12953J0D01*
G01*
X4390349Y3894134D02*
G03*
X4344365Y3894134I-22992J0D01*
G01*
X4331412Y3817126D02*
G03*
X4344365Y3830079I0J12953D01*
G01*
X3635098Y3585436D02*
G03*
X3612106Y3562444I0J-22992D01*
G01*
X3658811Y3585436D02*
G03*
X3658811Y3611341I0J12953D01*
G01*
X3634231Y3657325D02*
G03*
X3634231Y3611341I0J-22992D01*
G01*
X3699154Y3657325D02*
G03*
X3699154Y3683231I0J12953D01*
G01*
X3612106Y3706223D02*
G03*
X3635098Y3683231I22992J0D01*
G01*
Y3575396D02*
G03*
X3622146Y3562444I0J-12953D01*
G01*
X3658811Y3575396D02*
G03*
X3658811Y3621381I0J22992D01*
G01*
X3634231Y3647286D02*
G03*
X3634231Y3621381I0J-12953D01*
G01*
X3699154Y3647286D02*
G03*
X3699154Y3693270I0J22992D01*
G01*
X3622146Y3706223D02*
G03*
X3635098Y3693270I12953J0D01*
G01*
X3441673Y3657303D02*
G03*
X3464666Y3680295I0J22992D01*
G01*
X3424696Y3657303D02*
G03*
X3424696Y3631398I0J-12953D01*
G01*
X3441896Y3585414D02*
G03*
X3441896Y3631398I0J22992D01*
G01*
X3377618Y3585414D02*
G03*
X3377618Y3559508I0J-12953D01*
G01*
X3464666Y3536516D02*
G03*
X3441673Y3559508I-22992J0D01*
G01*
Y3667343D02*
G03*
X3454626Y3680295I0J12953D01*
G01*
X3424696Y3667343D02*
G03*
X3424696Y3621358I0J-22992D01*
G01*
X3441896Y3595453D02*
G03*
X3441896Y3621358I0J12953D01*
G01*
X3377618Y3595453D02*
G03*
X3377618Y3549469I0J-22992D01*
G01*
X3454626Y3536516D02*
G03*
X3441673Y3549469I-12953J0D01*
G01*
X1666594Y3571664D02*
G03*
X1643602Y3548672I0J-22992D01*
G01*
X1685064Y3571664D02*
G03*
X1685064Y3597569I0J12953D01*
G01*
X1665825Y3643553D02*
G03*
X1665825Y3597569I0J-22992D01*
G01*
X1730650Y3643553D02*
G03*
X1730650Y3669459I0J12953D01*
G01*
X1643602Y3692451D02*
G03*
X1666594Y3669459I22992J0D01*
G01*
Y3561624D02*
G03*
X1653642Y3548672I0J-12953D01*
G01*
X1685064Y3561624D02*
G03*
X1685064Y3607609I0J22992D01*
G01*
X1665825Y3633514D02*
G03*
X1665825Y3607609I0J-12953D01*
G01*
X1730650Y3633514D02*
G03*
X1730650Y3679498I0J22992D01*
G01*
X1653642Y3692451D02*
G03*
X1666594Y3679498I12953J0D01*
G01*
X1473169Y3657303D02*
G03*
X1496161Y3680295I0J22992D01*
G01*
X1457222Y3657303D02*
G03*
X1457222Y3631398I0J-12953D01*
G01*
X1474422Y3585414D02*
G03*
X1474422Y3631398I0J22992D01*
G01*
X1409114Y3585414D02*
G03*
X1409114Y3559508I0J-12953D01*
G01*
X1496161Y3536516D02*
G03*
X1473169Y3559508I-22992J0D01*
G01*
Y3667343D02*
G03*
X1486122Y3680295I0J12953D01*
G01*
X1457222Y3667343D02*
G03*
X1457222Y3621358I0J-22992D01*
G01*
X1474422Y3595453D02*
G03*
X1474422Y3621358I0J12953D01*
G01*
X1409114Y3595453D02*
G03*
X1409114Y3549469I0J-22992D01*
G01*
X1486122Y3536516D02*
G03*
X1473169Y3549469I-12953J0D01*
G01*
X1653701Y6463912D02*
G03*
X1630709Y6440920I0J-22992D01*
G01*
X1665929Y6463912D02*
G03*
X1665929Y6489818I0J12953D01*
G01*
X1653650Y6535802D02*
G03*
X1653650Y6489818I0J-22992D01*
G01*
X1717756Y6535802D02*
G03*
X1717756Y6561707I0J12953D01*
G01*
X1630709Y6584699D02*
G03*
X1653701Y6561707I22992J0D01*
G01*
Y6453873D02*
G03*
X1640748Y6440920I0J-12953D01*
G01*
X1665929Y6453873D02*
G03*
X1665929Y6499857I0J22992D01*
G01*
X1653650Y6525762D02*
G03*
X1653650Y6499857I0J-12953D01*
G01*
X1717756Y6525762D02*
G03*
X1717756Y6571747I0J22992D01*
G01*
X1640748Y6584699D02*
G03*
X1653701Y6571747I12953J0D01*
G01*
X1508858Y6408760D02*
G03*
X1495906Y6421712I-12953J0D01*
G01*
X1476389Y6467697D02*
G03*
X1476389Y6421712I0J-22992D01*
G01*
X1496047Y6467697D02*
G03*
X1496047Y6493602I0J12953D01*
G01*
X1431850Y6539586D02*
G03*
X1431850Y6493602I0J-22992D01*
G01*
X1495906Y6539586D02*
G03*
X1508858Y6552539I0J12953D01*
G01*
X1518898Y6408760D02*
G03*
X1495906Y6431752I-22992J0D01*
G01*
X1476389Y6457657D02*
G03*
X1476389Y6431752I0J-12953D01*
G01*
X1496047Y6457657D02*
G03*
X1496047Y6503641I0J22992D01*
G01*
X1431850Y6529547D02*
G03*
X1431850Y6503641I0J-12953D01*
G01*
X1495906Y6529547D02*
G03*
X1518898Y6552539I0J22992D01*
G01*
X3533366Y3574892D02*
Y3601753D01*
X3524445Y3566939D02*
X3525414D01*
X3516492Y3558987D02*
Y3558987D01*
X3524445Y3551034D02*
X3525414D01*
X3533366Y3543081D02*
Y3543081D01*
X3519304Y3535128D02*
X3525414D01*
X3511351Y3527176D02*
Y3527176D01*
X3519304Y3519223D02*
X3525414D01*
X3533366Y3508317D02*
Y3511270D01*
X3531496Y3477362D02*
Y3493110D01*
X3533366Y3601753D02*
Y4268602D01*
Y3494980D02*
Y3508317D01*
X4128839Y4117098D02*
Y4130905D01*
X4120544Y4109145D02*
X4120886D01*
X4112592Y4101193D02*
Y4101193D01*
X4120544Y4093240D02*
X4120886D01*
X4128839Y4085287D02*
Y4085287D01*
X4118206Y4077334D02*
X4120886D01*
X4110253Y4069382D02*
Y4069382D01*
X4118206Y4061429D02*
X4120886D01*
X4128839Y4050523D02*
Y4053476D01*
Y3757554D02*
Y4050523D01*
Y4130905D02*
Y4160123D01*
X5698819Y3615937D02*
X5698819Y4919710D01*
X5698819Y3593396D02*
Y3615937D01*
X5690865Y3585443D02*
X5690866D01*
X5682912Y3577491D02*
Y3577491D01*
X5690865Y3569538D02*
X5690866D01*
X5698819Y3561585D02*
Y3561585D01*
X5687845Y3553632D02*
X5690866D01*
X5679892Y3545680D02*
Y3545680D01*
X5687845Y3537727D02*
X5690866D01*
X5698819Y3526821D02*
Y3529774D01*
Y3525591D02*
Y3526821D01*
X2549114Y3578386D02*
Y3615078D01*
X2541160Y3570434D02*
X2541162D01*
X2533208Y3562481D02*
Y3562481D01*
X2541160Y3554528D02*
X2541162D01*
X2549114Y3546575D02*
Y3546575D01*
X2538140Y3538622D02*
X2541162D01*
X2530188Y3530670D02*
Y3530670D01*
X2538140Y3522717D02*
X2541162D01*
X2549114Y3511811D02*
Y3514764D01*
Y3615078D02*
Y4925295D01*
Y3494980D02*
Y3511811D01*
X1643602Y3700424D02*
Y3922244D01*
X1496161Y3723551D02*
Y3975363D01*
X1486122Y3723551D02*
Y3979521D01*
X1564862Y3613465D02*
Y3641532D01*
X1548866Y3600512D02*
X1551909D01*
X1535913Y3587559D02*
Y3587560D01*
X1548866Y3574607D02*
X1555029D01*
X1567982Y3561654D02*
Y3561654D01*
X1546757Y3548701D02*
X1555029D01*
X1533804Y3535749D02*
Y3535749D01*
X1546757Y3522796D02*
X1551909D01*
X1564862Y3506890D02*
Y3509843D01*
Y3641532D02*
Y3950000D01*
X1574902Y3494980D02*
Y3507199D01*
Y3587869D02*
Y3607951D01*
X1587854Y3574916D02*
X1587855D01*
X1600808Y3561963D02*
Y3561964D01*
X1587854Y3549011D02*
X1587855D01*
X1574902Y3507199D02*
Y3536058D01*
Y3607951D02*
Y3945842D01*
X1564862Y3494980D02*
Y3506890D01*
X1560039Y3490158D02*
X1564862Y3494980D01*
X1574902D02*
X1579724Y3490158D01*
X6682972Y3601024D02*
Y3617098D01*
X6661093Y3588071D02*
X6670020D01*
X6648140Y3575119D02*
Y3575119D01*
X6661093Y3562166D02*
X6670020D01*
X6682972Y3546260D02*
Y3549213D01*
Y3617098D02*
Y3950000D01*
X6693012Y3621574D02*
Y3945842D01*
Y3601567D02*
Y3621574D01*
X6705965Y3588615D02*
X6705966D01*
X6718918Y3575662D02*
Y3575662D01*
X6705965Y3562709D02*
X6705966D01*
X6693012Y3520898D02*
Y3549756D01*
Y3494980D02*
Y3520898D01*
X6682972Y3494980D02*
Y3546260D01*
X6704724Y3438976D02*
Y3439920D01*
Y3424213D02*
Y3438976D01*
X6681102Y3462598D02*
Y3463542D01*
X6693012Y3494980D02*
X6697835Y3490158D01*
X6678150Y3480315D02*
Y3490158D01*
X6682972Y3494980D01*
X6678150Y3480315D02*
X6681102Y3477362D01*
X6614272Y3712794D02*
Y3975363D01*
X6604232Y3712794D02*
Y3979521D01*
X6748819Y5679355D02*
Y6409906D01*
X6758858Y5675197D02*
Y6409906D01*
X6748819D02*
Y6439783D01*
X6771811Y6462775D02*
X6790843D01*
X6771274Y6488681D02*
X6790843D01*
X6771274Y6534665D02*
X6835866D01*
X6771811Y6560570D02*
X6835866D01*
X6748819Y6583562D02*
Y6591535D01*
X6758858Y6409906D02*
Y6439783D01*
X6771811Y6452736D02*
X6790843D01*
X6771274Y6498720D02*
X6790843D01*
X6771274Y6524626D02*
X6835866D01*
X6771811Y6570610D02*
X6835866D01*
X6758858Y6583562D02*
Y6591535D01*
X6748819D02*
Y6661946D01*
X6758858Y6591535D02*
Y6657788D01*
X5777362Y3523622D02*
Y4707899D01*
X5777362Y3523622D02*
X5777362Y3523622D01*
X5787402D02*
Y4703740D01*
X5787401Y3523622D02*
X5787402Y3523622D01*
X6637008Y6134621D02*
Y6402159D01*
X6626968Y6138780D02*
Y6402159D01*
X6637008Y6553912D02*
Y6588583D01*
X6602048Y6530919D02*
X6614016D01*
X6602048Y6505014D02*
X6614278D01*
X6549961Y6459030D02*
X6614278D01*
X6549961Y6433124D02*
X6614016D01*
X6637008Y6402159D02*
Y6410132D01*
X6626968Y6553912D02*
Y6588583D01*
X6602048Y6540959D02*
X6614016D01*
X6602048Y6494975D02*
X6614278D01*
X6549961Y6469069D02*
X6614278D01*
X6549961Y6423085D02*
X6614016D01*
X6626968Y6402159D02*
Y6410132D01*
X6637008Y6588583D02*
Y6661946D01*
X6626968Y6588583D02*
Y6657788D01*
X5630118Y3522638D02*
Y5127731D01*
X5630118Y3522638D02*
X5630118Y3522638D01*
X5620079Y3522638D02*
Y5131890D01*
X6614272Y3680295D02*
Y3712794D01*
X6564853Y3657303D02*
X6591280D01*
X6564853Y3631398D02*
X6591596D01*
X6527224Y3585414D02*
X6591596D01*
X6527224Y3559508D02*
X6591280D01*
X6614272Y3528543D02*
Y3536516D01*
X6604232Y3680295D02*
Y3712794D01*
X6564853Y3667343D02*
X6591280D01*
X6564853Y3621358D02*
X6591596D01*
X6527224Y3595453D02*
X6591596D01*
X6527224Y3549469D02*
X6591280D01*
X6604232Y3528543D02*
Y3536516D01*
X6614272Y3494980D02*
Y3528543D01*
X6604232Y3494981D02*
Y3528543D01*
X6761713Y3521258D02*
Y3532702D01*
X6761713Y3532702D01*
Y3557694D01*
X6784705Y3580686D02*
X6812972D01*
X6784191Y3606592D02*
X6812972D01*
X6784191Y3652576D02*
X6848760D01*
X6784705Y3678481D02*
X6848760D01*
X6761713Y3701474D02*
Y3709446D01*
X6771752Y3521258D02*
Y3528543D01*
X6771752Y3528543D01*
Y3557694D01*
X6784705Y3570647D02*
X6812972D01*
X6784191Y3616631D02*
X6812972D01*
X6784191Y3642537D02*
X6848760D01*
X6784705Y3688521D02*
X6848760D01*
X6771752Y3701474D02*
Y3709446D01*
X6761713Y3494980D02*
Y3521258D01*
X6771752Y3494981D02*
Y3521258D01*
X6604232Y3979521D02*
X6626968Y4002257D01*
Y4074271D01*
X6637008Y3998099D02*
Y4078430D01*
X6609154Y4092086D02*
X6626968Y4074271D01*
X6614272Y3975363D02*
X6637008Y3998099D01*
X6619193Y4096244D02*
X6637008Y4078430D01*
X6761713Y3709446D02*
Y3922244D01*
X6771752Y3709446D02*
Y3926403D01*
X4112968Y3682874D02*
X4281629D01*
X4117126Y3692913D02*
X4281629D01*
X4469326Y3682874D02*
X4550197D01*
X4456373Y3652491D02*
Y3669921D01*
X4410389Y3652491D02*
Y3670132D01*
X4384484Y3605866D02*
Y3670132D01*
X4338500Y3605866D02*
Y3669921D01*
X4281629Y3682874D02*
X4325547D01*
X4469326Y3692913D02*
X4550197D01*
X4446334Y3652491D02*
Y3669921D01*
X4420429Y3652491D02*
Y3670132D01*
X4374444Y3605866D02*
Y3670132D01*
X4348539Y3605866D02*
Y3669921D01*
X4281629Y3692913D02*
X4325547D01*
X4550197Y3682874D02*
X4558834D01*
X4550197Y3692913D02*
X4562992D01*
X4475191Y3807087D02*
X4584518D01*
X4452199Y3830079D02*
Y3866353D01*
X4426294Y3828251D02*
Y3866353D01*
X4380310Y3828251D02*
Y3894134D01*
X4354404Y3830079D02*
Y3894134D01*
X4323439Y3807087D02*
X4331412D01*
X4475191Y3817126D02*
X4584518D01*
X4462239Y3830079D02*
Y3866353D01*
X4416255Y3828251D02*
Y3866353D01*
X4390349Y3828251D02*
Y3894134D01*
X4344365Y3830079D02*
Y3894134D01*
X4323439Y3817126D02*
X4331412D01*
X4259424Y3807087D02*
X4323439D01*
X4263583Y3817126D02*
X4323439D01*
X4584518Y3807087D02*
X4610236D01*
X4584518Y3817126D02*
X4614395D01*
X4610236Y3807087D02*
X4793209Y3624114D01*
X4614395Y3817126D02*
X4803248Y3628273D01*
X3612106Y3714196D02*
Y4234572D01*
X3622146Y3714196D02*
Y4230413D01*
X3612106Y3528543D02*
Y3562444D01*
X3635098Y3585436D02*
X3658811D01*
X3634231Y3611341D02*
X3658811D01*
X3634231Y3657325D02*
X3699154D01*
X3635098Y3683231D02*
X3699154D01*
X3612106Y3706223D02*
Y3714196D01*
X3622146Y3528543D02*
Y3562444D01*
X3635098Y3575396D02*
X3658811D01*
X3634231Y3621381D02*
X3658811D01*
X3634231Y3647286D02*
X3699154D01*
X3635098Y3693270D02*
X3699154D01*
X3622146Y3706223D02*
Y3714196D01*
X3612106Y3494980D02*
Y3528543D01*
X3622146Y3494981D02*
Y3528543D01*
X3464666Y3680295D02*
Y3722441D01*
X3424696Y3657303D02*
X3441673D01*
X3424696Y3631398D02*
X3441896D01*
X3377618Y3585414D02*
X3441896D01*
X3377618Y3559508D02*
X3441673D01*
X3464666Y3528543D02*
Y3536516D01*
X3454626Y3680295D02*
Y3722441D01*
X3424696Y3667343D02*
X3441673D01*
X3424696Y3621358D02*
X3441896D01*
X3377618Y3595453D02*
X3441896D01*
X3377618Y3549469D02*
X3441673D01*
X3454626Y3528543D02*
Y3536516D01*
X3464666Y3722441D02*
Y4300296D01*
Y3494980D02*
Y3528543D01*
X3454626Y3722441D02*
Y4304454D01*
Y3494981D02*
Y3528543D01*
X2480414Y3494980D02*
Y4717840D01*
X2470374Y3494981D02*
Y4713681D01*
X2559154Y3494980D02*
Y4929454D01*
X2637894Y3494981D02*
Y5141634D01*
X2627854Y3494980D02*
Y5137475D01*
X1643602Y3522638D02*
Y3548672D01*
X1666594Y3571664D02*
X1685064D01*
X1665825Y3597569D02*
X1685064D01*
X1665825Y3643553D02*
X1730650D01*
X1666594Y3669459D02*
X1730650D01*
X1643602Y3692451D02*
Y3700424D01*
X1653642Y3522638D02*
Y3548672D01*
X1666594Y3561624D02*
X1685064D01*
X1665825Y3607609D02*
X1685064D01*
X1665825Y3633514D02*
X1730650D01*
X1666594Y3679498D02*
X1730650D01*
X1653642Y3692451D02*
Y3700424D01*
Y3926403D01*
X1643602Y3494980D02*
Y3522638D01*
X1653642Y3494981D02*
Y3522638D01*
X1643602Y3922244D02*
X1643602Y3922244D01*
X1653642Y3926403D02*
X1653642Y3926403D01*
X1496161Y3680295D02*
Y3723551D01*
X1457222Y3657303D02*
X1473169D01*
X1457222Y3631398D02*
X1474422D01*
X1409114Y3585414D02*
X1474422D01*
X1409114Y3559508D02*
X1473169D01*
X1496161Y3528543D02*
Y3536516D01*
X1486122Y3680295D02*
Y3723551D01*
X1457222Y3667343D02*
X1473169D01*
X1457222Y3621358D02*
X1474422D01*
X1409114Y3595453D02*
X1474422D01*
X1409114Y3549469D02*
X1473169D01*
X1486122Y3528543D02*
Y3536516D01*
X1496161Y3494980D02*
Y3528543D01*
X1486122Y3494981D02*
Y3528543D01*
X1569784Y5904626D02*
Y6719178D01*
X1579823Y5908784D02*
Y6719178D01*
X1630709Y6134621D02*
Y6411210D01*
X1640748Y6138780D02*
Y6411210D01*
X1630709D02*
Y6440920D01*
X1653701Y6463912D02*
X1665929D01*
X1653650Y6489818D02*
X1665929D01*
X1653650Y6535802D02*
X1717756D01*
X1653701Y6561707D02*
X1717756D01*
X1630709Y6584699D02*
Y6592672D01*
X1640748Y6411210D02*
Y6440920D01*
X1653701Y6453873D02*
X1665929D01*
X1653650Y6499857D02*
X1665929D01*
X1653650Y6525762D02*
X1717756D01*
X1653701Y6571747D02*
X1717756D01*
X1640748Y6584699D02*
Y6592672D01*
X1630709D02*
Y6661946D01*
X1640748Y6592672D02*
Y6657788D01*
X1508858Y5675197D02*
Y6370617D01*
X1518898Y5679355D02*
Y6370617D01*
X1508858D02*
Y6408760D01*
X1476389Y6421712D02*
X1495906D01*
X1476389Y6467697D02*
X1496047D01*
X1431850Y6493602D02*
X1496047D01*
X1431850Y6539586D02*
X1495906D01*
X1508858Y6552539D02*
Y6596457D01*
X1518898Y6370617D02*
Y6408760D01*
X1476389Y6431752D02*
X1495906D01*
X1476389Y6457657D02*
X1496047D01*
X1431850Y6503641D02*
X1496047D01*
X1431850Y6529547D02*
X1495906D01*
X1518898Y6552539D02*
Y6596457D01*
X1508858D02*
Y6657788D01*
X1518898Y6596457D02*
Y6661946D01*
X6619193Y4096244D02*
Y4160123D01*
X6609154Y4092086D02*
Y4160123D01*
X4189764Y4812229D02*
Y6660968D01*
X3622146Y4230413D02*
X4199803Y4808071D01*
Y6656810D01*
X3612106Y4234572D02*
X4189764Y4812229D01*
X4050099Y6670817D02*
Y6719178D01*
Y6670817D02*
X4067913Y6653002D01*
X4045276Y6724001D02*
X4050099Y6719178D01*
X4060138Y6674975D02*
X4077953Y6657160D01*
X4060138Y6719178D02*
X4064961Y6724001D01*
X4067913Y4917741D02*
Y6653002D01*
X4064961Y6724001D02*
Y6725591D01*
X4077953Y4913583D02*
Y6657160D01*
X4060138Y6674975D02*
Y6719178D01*
X4045276Y6724001D02*
Y6725591D01*
X3464666Y4300296D02*
X4077953Y4913583D01*
X3454626Y4304454D02*
X4067913Y4917741D01*
X3449803Y3480315D02*
Y3490158D01*
X3454626Y3494981D01*
X3469488Y3480315D02*
Y3490158D01*
X3464666Y3494980D02*
X3469488Y3490158D01*
X3548228Y3480315D02*
Y3490158D01*
Y3470472D02*
Y3480315D01*
X3531496Y3493110D02*
X3533366Y3494980D01*
X3543406D02*
X3548228Y3490158D01*
X3543406Y3494980D02*
Y4264444D01*
X4128839Y4864075D02*
Y6719178D01*
X4124016Y6724001D02*
X4128839Y6719178D01*
X4124016Y6724001D02*
Y6725591D01*
X4138878Y6719178D02*
X4143701Y6724001D01*
X3533366Y4268602D02*
X4128839Y4864075D01*
X3543406Y4264444D02*
X4138878Y4859917D01*
Y6719178D01*
X4143701Y6724001D02*
Y6725591D01*
X4189764Y6660968D02*
X4207579Y6678783D01*
X4202756Y6724001D02*
X4207579Y6719178D01*
X4202756Y6724001D02*
Y6725591D01*
X4199803Y6656810D02*
X4217618Y6674625D01*
Y6719178D01*
X4207579Y6678783D02*
Y6719178D01*
X4217618D02*
X4222441Y6724001D01*
Y6725591D01*
X3622146Y3494981D02*
X3626969Y3490158D01*
Y3480315D02*
Y3490158D01*
X3607284D02*
X3612106Y3494980D01*
X3607284Y3480315D02*
Y3490158D01*
X4189764Y3876747D02*
Y4072884D01*
X4207579Y4090699D01*
Y4160123D01*
X4199803Y3880906D02*
Y4068726D01*
X4217618Y4086541D01*
Y4160123D01*
X4202756Y4164946D02*
X4207579Y4160123D01*
X4217618D02*
X4222441Y4164946D01*
X4202756Y4164946D02*
Y4166535D01*
X4222441Y4164946D02*
Y4166535D01*
X4189764Y3876747D02*
X4259424Y3807087D01*
X4199803Y3880906D02*
X4263583Y3817126D01*
X4803248Y3494981D02*
X4808071Y3490158D01*
Y3480315D02*
Y3490158D01*
X4793209Y3494980D02*
Y3624114D01*
X4788386Y3490158D02*
X4793209Y3494980D01*
X4788386Y3480315D02*
Y3490158D01*
X4803248Y3494981D02*
Y3628273D01*
X4724508Y3494980D02*
Y3615059D01*
X4709646Y3490158D02*
X4714468Y3494980D01*
Y3610901D01*
X4724508Y3494980D02*
X4729331Y3490158D01*
X4709646Y3480315D02*
Y3490158D01*
X4729331Y3480315D02*
Y3490158D01*
X4145448Y3740945D02*
X4584424D01*
X4588583Y3750984D02*
X4724508Y3615059D01*
X4149606Y3750984D02*
X4588583D01*
X4584424Y3740945D02*
X4714468Y3610901D01*
X4128839Y3757554D02*
X4145448Y3740945D01*
X4124016Y4164946D02*
X4128839Y4160123D01*
X4124016Y4164946D02*
Y4166535D01*
X4138878Y3761713D02*
X4149606Y3750984D01*
X4138878Y3761713D02*
Y4160123D01*
X4143701Y4164946D01*
Y4166535D01*
X4650591Y3480315D02*
Y3490158D01*
X4645768Y3494980D02*
X4650591Y3490158D01*
X4645768Y3494980D02*
Y3610138D01*
X4562992Y3692913D02*
X4645768Y3610138D01*
X4630905Y3480315D02*
Y3490158D01*
X4635728Y3494981D01*
Y3605979D01*
X4558834Y3682874D02*
X4635728Y3605979D01*
X4077953Y3732087D02*
Y4117534D01*
X4067913Y3727928D02*
X4112968Y3682874D01*
X4077953Y3732087D02*
X4117126Y3692913D01*
X4050099Y4131191D02*
X4067913Y4113376D01*
Y3727928D02*
Y4113376D01*
X4060138Y4135349D02*
X4077953Y4117534D01*
X4060138Y4135349D02*
Y4160123D01*
X4050099Y4131191D02*
Y4160123D01*
X4045276Y4164946D02*
Y4166535D01*
X4060138Y4160123D02*
X4064961Y4164946D01*
Y4166535D01*
X4045276Y4164946D02*
X4050099Y4160123D01*
X5777362Y4707899D02*
X6748819Y5679355D01*
X5787402Y4703740D02*
X6758858Y5675197D01*
X5698819Y4919710D02*
X6687894Y5908784D01*
X5708858Y4915551D02*
X6697933Y5904626D01*
X5708858Y3525591D02*
X5708858Y4915551D01*
X5630118Y5127731D02*
X6637008Y6134621D01*
X5620079Y5131890D02*
X6626968Y6138780D01*
X5619980Y3494981D02*
Y3522638D01*
X5630020Y3494980D02*
Y3522638D01*
X5792323Y3480315D02*
Y3490158D01*
X5777461Y3511048D02*
Y3523622D01*
X5777461Y3494980D02*
Y3511048D01*
X5772638Y3490158D02*
X5777461Y3494980D01*
X5787500Y3506890D02*
Y3523622D01*
X5787500Y3506890D02*
X5787500Y3506890D01*
X5787500Y3494981D02*
Y3506890D01*
Y3494981D02*
X5792323Y3490158D01*
X5777461Y3511048D02*
X5777461Y3511048D01*
X5772638Y3480315D02*
Y3490158D01*
X5713583Y3480315D02*
Y3490158D01*
X5708760Y3494980D02*
X5713583Y3490158D01*
X5693898Y3480315D02*
Y3490158D01*
X5698721Y3494980D01*
Y3525591D01*
X5708760Y3494980D02*
Y3525591D01*
X5630020Y3494980D02*
X5634843Y3490158D01*
X5615158Y3480315D02*
Y3490158D01*
X5619980Y3494981D01*
X5634843Y3480315D02*
Y3490158D01*
X6609154Y6675603D02*
X6626968Y6657788D01*
X6604331Y6724001D02*
X6609154Y6719178D01*
Y6675603D02*
Y6719178D01*
X6604331Y6724001D02*
Y6725591D01*
X6624016Y6724001D02*
Y6725591D01*
X6619193Y6719178D02*
X6624016Y6724001D01*
X6619193Y6679761D02*
Y6719178D01*
Y6679761D02*
X6637008Y6661946D01*
X6748819D02*
X6766634Y6679761D01*
Y6719178D01*
X6761811Y6724001D02*
X6766634Y6719178D01*
X6761811Y6724001D02*
Y6725591D01*
X6781496Y6724001D02*
Y6725591D01*
X6776673Y6675603D02*
Y6719178D01*
X6781496Y6724001D01*
X6758858Y6657788D02*
X6776673Y6675603D01*
X6683071Y6724001D02*
X6687894Y6719178D01*
X6702756Y6724001D02*
Y6725591D01*
X6683071Y6724001D02*
Y6725591D01*
X6697933Y6719178D02*
X6702756Y6724001D01*
X6697933Y5904626D02*
Y6719178D01*
X6687894Y5908784D02*
Y6719178D01*
X1569784Y5904626D02*
X2549114Y4925295D01*
X1579823Y5908784D02*
X2559154Y4929454D01*
X1564961Y6724001D02*
X1569784Y6719178D01*
X1584646Y6724001D02*
Y6725591D01*
X1564961Y6724001D02*
Y6725591D01*
X1579823Y6719178D02*
X1584646Y6724001D01*
X2544291Y3480315D02*
Y3490158D01*
X2549114Y3494980D01*
X2563976Y3480315D02*
Y3490158D01*
X2559154Y3494980D02*
X2563976Y3490158D01*
X1630709Y6134621D02*
X2627854Y5137475D01*
X2623032Y3490158D02*
X2627854Y3494980D01*
X1640748Y6138780D02*
X2637894Y5141634D01*
Y3494981D02*
X2642717Y3490158D01*
Y3480315D02*
Y3490158D01*
X2623032Y3480315D02*
Y3490158D01*
X1491043Y6675603D02*
X1508858Y6657788D01*
X1486220Y6724001D02*
X1491043Y6719178D01*
Y6675603D02*
Y6719178D01*
X1486220Y6724001D02*
Y6725591D01*
X1505906Y6724001D02*
Y6725591D01*
X1501083Y6719178D02*
X1505906Y6724001D01*
X1501083Y6679761D02*
Y6719178D01*
Y6679761D02*
X1518898Y6661946D01*
X1630709D02*
X1648524Y6679761D01*
Y6719178D01*
X1643701Y6724001D02*
X1648524Y6719178D01*
X1643701Y6724001D02*
Y6725591D01*
X1663386Y6724001D02*
Y6725591D01*
X1658563Y6675603D02*
Y6719178D01*
X1663386Y6724001D01*
X1640748Y6657788D02*
X1658563Y6675603D01*
X1508858Y5675197D02*
X2470374Y4713681D01*
X1518898Y5679355D02*
X2480414Y4717840D01*
X2465551Y3490158D02*
X2470374Y3494981D01*
X2465551Y3480315D02*
Y3490158D01*
X2485236Y3480315D02*
Y3490158D01*
X2480414Y3494980D02*
X2485236Y3490158D01*
X6756890D02*
X6761713Y3494980D01*
X6776575Y3480315D02*
Y3490158D01*
X6771752Y3494981D02*
X6776575Y3490158D01*
X6756890Y3480315D02*
Y3490158D01*
X6619095Y3480315D02*
Y3490158D01*
X6599409D02*
X6604232Y3494981D01*
X6599409Y3480315D02*
Y3490158D01*
X6614272Y3494980D02*
X6619095Y3490158D01*
X6748819Y3935138D02*
X6761713Y3922244D01*
X6758858Y4091837D02*
X6776673Y4109652D01*
X6758858Y3939296D02*
X6771752Y3926403D01*
X6758858Y3939296D02*
Y4091837D01*
X6748819Y4095995D02*
X6766634Y4113810D01*
X6748819Y3935138D02*
Y4095995D01*
X6619193Y4160123D02*
X6624016Y4164946D01*
X6604331Y4164946D02*
X6609154Y4160123D01*
X6604331Y4164946D02*
Y4166535D01*
X6624016Y4164946D02*
Y4166535D01*
X6697933Y4160123D02*
X6702756Y4164946D01*
X6683071Y4164946D02*
Y4166535D01*
X6702756Y4164946D02*
Y4166535D01*
X6683071Y4164946D02*
X6687894Y4160123D01*
X6697933Y3950763D02*
Y4160123D01*
X6693012Y3945842D02*
X6697933Y3950763D01*
X6687894Y3954921D02*
Y4160123D01*
X6682972Y3950000D02*
X6687894Y3954921D01*
X6681102Y3463542D02*
Y3477362D01*
Y3463542D02*
X6704724Y3439920D01*
X6697835Y3470472D02*
Y3480315D01*
Y3490158D01*
X6761811Y4164946D02*
X6766634Y4160123D01*
X6781496Y4164946D02*
Y4166535D01*
X6761811Y4164946D02*
Y4166535D01*
X6776673Y4160123D02*
X6781496Y4164946D01*
X6766634Y4113810D02*
Y4160123D01*
X6776673Y4109652D02*
Y4160123D01*
X1658563Y4109652D02*
Y4160123D01*
X1648524Y4113810D02*
Y4160123D01*
X1658563D02*
X1663386Y4164946D01*
X1643701Y4164946D02*
Y4166535D01*
X1663386Y4164946D02*
Y4166535D01*
X1643701Y4164946D02*
X1648524Y4160123D01*
X1579724Y3480315D02*
Y3490158D01*
Y3470472D02*
Y3480315D01*
X1562992Y3463542D02*
X1586614Y3439920D01*
X1562992Y3463542D02*
Y3477362D01*
X1586614Y3424213D02*
Y3439920D01*
Y3424213D02*
X1589567Y3421260D01*
X6704724Y3424213D02*
X6707677Y3421260D01*
X6681102Y3462598D02*
X6704724Y3438976D01*
X5720472Y3424213D02*
X5723425Y3421260D01*
X5693898Y3480315D02*
X5696850Y3477362D01*
Y3462598D02*
Y3477362D01*
X5720472Y3424213D02*
Y3438976D01*
X5696850Y3462598D02*
X5720472Y3438976D01*
X4736220Y3424213D02*
X4739173Y3421260D01*
X4709646Y3480315D02*
X4712598Y3477362D01*
Y3462598D02*
Y3477362D01*
X4736220Y3424213D02*
Y3438976D01*
X4712598Y3462598D02*
X4736220Y3438976D01*
X3555118Y3424213D02*
X3558071Y3421260D01*
X3528543Y3480315D02*
X3531496Y3477362D01*
Y3462598D02*
Y3477362D01*
X3555118Y3424213D02*
Y3438976D01*
X3531496Y3462598D02*
X3555118Y3438976D01*
X2570866Y3424213D02*
X2573819Y3421260D01*
X2544291Y3480315D02*
X2547244Y3477362D01*
Y3462598D02*
Y3477362D01*
X2570866Y3424213D02*
Y3438976D01*
X2547244Y3462598D02*
X2570866Y3438976D01*
X1560039Y3480315D02*
X1562992Y3477362D01*
X1560039Y3480315D02*
Y3490158D01*
X1564862Y3950000D02*
X1569784Y3954921D01*
Y4160123D01*
X1574902Y3945842D02*
X1579823Y3950763D01*
Y4160123D01*
X1564961Y4164946D02*
X1569784Y4160123D01*
X1584646Y4164946D02*
Y4166535D01*
X1564961Y4164946D02*
Y4166535D01*
X1579823Y4160123D02*
X1584646Y4164946D01*
X1505906D02*
Y4166535D01*
X1501083Y4096244D02*
Y4160123D01*
Y4096244D02*
X1518898Y4078430D01*
X1496161Y3975363D02*
X1518898Y3998099D01*
X1486220Y4164946D02*
Y4166535D01*
Y4164946D02*
X1491043Y4160123D01*
Y4092086D02*
X1508858Y4074271D01*
X1518898Y3998099D02*
Y4078430D01*
X1508858Y4002257D02*
Y4074271D01*
X1491043Y4092086D02*
Y4160123D01*
X1486122Y3979521D02*
X1508858Y4002257D01*
X1501083Y4160123D02*
X1505906Y4164946D01*
X1630709Y3935138D02*
Y4095995D01*
X1648524Y4113810D01*
X1640748Y3939296D02*
Y4091837D01*
Y3939296D02*
X1653642Y3926403D01*
X1640748Y4091837D02*
X1658563Y4109652D01*
X1630709Y3935138D02*
X1643602Y3922244D01*
X1496161Y3494980D02*
X1500984Y3490158D01*
X1481299Y3480315D02*
Y3490158D01*
X1486122Y3494981D01*
X1500984Y3480315D02*
Y3490158D01*
X1638780Y3480315D02*
Y3490158D01*
X1653642Y3494981D02*
X1658465Y3490158D01*
Y3480315D02*
Y3490158D01*
X1638780D02*
X1643602Y3494980D01*
D14*
X6638780Y3459646D02*
Y3480315D01*
Y3459646D02*
X6648622Y3449803D01*
Y3421260D02*
Y3449803D01*
X6747047Y3421260D02*
Y3449803D01*
X6737205Y3459646D02*
X6747047Y3449803D01*
X6737205Y3459646D02*
Y3480315D01*
X5654528Y3459646D02*
Y3480315D01*
Y3459646D02*
X5664370Y3449803D01*
Y3421260D02*
Y3449803D01*
X5762795Y3421260D02*
Y3449803D01*
X5752953Y3459646D02*
X5762795Y3449803D01*
X5752953Y3459646D02*
Y3480315D01*
X4670276Y3459646D02*
Y3480315D01*
Y3459646D02*
X4680118Y3449803D01*
Y3421260D02*
Y3449803D01*
X4778543Y3421260D02*
Y3449803D01*
X4768701Y3459646D02*
X4778543Y3449803D01*
X4768701Y3459646D02*
Y3480315D01*
X3489173Y3459646D02*
Y3480315D01*
Y3459646D02*
X3499016Y3449803D01*
Y3421260D02*
Y3449803D01*
X3597441Y3421260D02*
Y3449803D01*
X3587599Y3459646D02*
X3597441Y3449803D01*
X3587599Y3459646D02*
Y3480315D01*
X2504921Y3459646D02*
Y3480315D01*
Y3459646D02*
X2514764Y3449803D01*
Y3421260D02*
Y3449803D01*
X2613189Y3421260D02*
Y3449803D01*
X2603347Y3459646D02*
X2613189Y3449803D01*
X2603347Y3459646D02*
Y3480315D01*
X1619094Y3459646D02*
Y3480315D01*
Y3459646D02*
X1628937Y3449803D01*
Y3421260D02*
Y3449803D01*
X1530512Y3421260D02*
Y3449803D01*
X1520669Y3459646D02*
X1530512Y3449803D01*
X1520669Y3459646D02*
Y3480315D01*
D16*
X1480315Y4218504D02*
D03*
X1669291D02*
D03*
Y4049213D02*
D03*
X1480315D02*
D03*
X4039370D02*
D03*
X4228346D02*
D03*
Y4218504D02*
D03*
X4039370D02*
D03*
X1480315Y6608268D02*
D03*
X1669291D02*
D03*
Y6777559D02*
D03*
X1480315D02*
D03*
X4039370Y6608268D02*
D03*
X4228346D02*
D03*
Y6777559D02*
D03*
X4039370D02*
D03*
X6598425Y6608268D02*
D03*
X6787402D02*
D03*
Y6777559D02*
D03*
X6598425D02*
D03*
Y4049213D02*
D03*
X6787402D02*
D03*
Y4218504D02*
D03*
X6598425D02*
D03*
D17*
X1429134Y3488189D02*
D03*
X1720472D02*
D03*
X2413386D02*
D03*
X2704724D02*
D03*
X3397638D02*
D03*
X3688976D02*
D03*
X6547244D02*
D03*
X6838583D02*
D03*
X4578740D02*
D03*
X4870079D02*
D03*
X5562992D02*
D03*
X5854331D02*
D03*
D18*
X6747047Y3421260D02*
D03*
X6648622D02*
D03*
X4778543D02*
D03*
X4680118D02*
D03*
X3597441D02*
D03*
X3499016D02*
D03*
X1628937D02*
D03*
X1530512D02*
D03*
X5762795D02*
D03*
X5664370D02*
D03*
X2514764D02*
D03*
X2613189D02*
D03*
X1540354Y3480315D02*
D03*
X2524606D02*
D03*
X3508858D02*
D03*
X4689961D02*
D03*
X6658911Y3480538D02*
D03*
X5674213Y3480315D02*
D03*
X5743110Y3421260D02*
D03*
X4758858D02*
D03*
X3577756D02*
D03*
X2593504D02*
D03*
X5802165D02*
D03*
X5782480D02*
D03*
X5644685D02*
D03*
X5625000D02*
D03*
X4817913D02*
D03*
X4798228D02*
D03*
X4660433D02*
D03*
X4640748D02*
D03*
X3636811D02*
D03*
X3617126D02*
D03*
X3479331D02*
D03*
X3459646D02*
D03*
X2652559D02*
D03*
X2632874D02*
D03*
X2495079D02*
D03*
X2475394D02*
D03*
X4222441Y6725591D02*
D03*
X4202756D02*
D03*
X4143701D02*
D03*
X4124016D02*
D03*
X4064961D02*
D03*
X4045276D02*
D03*
Y4166535D02*
D03*
X4064961D02*
D03*
X4202756D02*
D03*
X4222441D02*
D03*
X4124016D02*
D03*
X4143701D02*
D03*
X6604331D02*
D03*
X6624016D02*
D03*
X6761811D02*
D03*
X6781496D02*
D03*
X6683071D02*
D03*
X6702756D02*
D03*
X6604331Y6725591D02*
D03*
X6624016D02*
D03*
X6761811D02*
D03*
X6781496D02*
D03*
X6683071D02*
D03*
X6702756D02*
D03*
X1584646D02*
D03*
X1564961D02*
D03*
X1663386D02*
D03*
X1643701D02*
D03*
X1505906D02*
D03*
X1486220D02*
D03*
X1609252Y3421260D02*
D03*
X6727362D02*
D03*
X6786417D02*
D03*
X6766732D02*
D03*
X6628937D02*
D03*
X6609252D02*
D03*
X6697835Y3470472D02*
D03*
X6687992Y3431102D02*
D03*
X5713583Y3470472D02*
D03*
X5703740Y3431102D02*
D03*
X4729331Y3470472D02*
D03*
X4719488Y3431102D02*
D03*
X3548228Y3470472D02*
D03*
X3538386Y3431102D02*
D03*
X2563976Y3470472D02*
D03*
X2554134Y3431102D02*
D03*
X1569882D02*
D03*
X1579724Y3470472D02*
D03*
X1491142Y3421260D02*
D03*
X1510827D02*
D03*
X1648622D02*
D03*
X1668307D02*
D03*
X1564961Y4166535D02*
D03*
X1584646D02*
D03*
X1643701D02*
D03*
X1663386D02*
D03*
X1486220D02*
D03*
X1505906D02*
D03*
D20*
X1461614Y3480315D02*
D03*
X1668307Y3421260D02*
D03*
X1648622D02*
D03*
X1628937D02*
D03*
X1609252D02*
D03*
X1589567D02*
D03*
X1569882D02*
D03*
X1550197D02*
D03*
X1530512D02*
D03*
X1510827D02*
D03*
X1491142D02*
D03*
X1471457D02*
D03*
X1678150Y3480315D02*
D03*
X1658465D02*
D03*
X1638780D02*
D03*
X1619094D02*
D03*
X1599409D02*
D03*
X1579724D02*
D03*
X1560039D02*
D03*
X1540354D02*
D03*
X1520669D02*
D03*
X1500984D02*
D03*
X1481299D02*
D03*
X1687992Y3421260D02*
D03*
X2445866Y3480315D02*
D03*
X2652559Y3421260D02*
D03*
X2632874D02*
D03*
X2613189D02*
D03*
X2593504D02*
D03*
X2573819D02*
D03*
X2554134D02*
D03*
X2534449D02*
D03*
X2514764D02*
D03*
X2495079D02*
D03*
X2475394D02*
D03*
X2455709D02*
D03*
X2662402Y3480315D02*
D03*
X2642717D02*
D03*
X2623032D02*
D03*
X2603347D02*
D03*
X2583662D02*
D03*
X2563976D02*
D03*
X2544291D02*
D03*
X2524606D02*
D03*
X2504921D02*
D03*
X2485236D02*
D03*
X2465551D02*
D03*
X2672244Y3421260D02*
D03*
X3430118Y3480315D02*
D03*
X3636811Y3421260D02*
D03*
X3617126D02*
D03*
X3597441D02*
D03*
X3577756D02*
D03*
X3558071D02*
D03*
X3538386D02*
D03*
X3518701D02*
D03*
X3499016D02*
D03*
X3479331D02*
D03*
X3459646D02*
D03*
X3439961D02*
D03*
X3646654Y3480315D02*
D03*
X3626969D02*
D03*
X3607284D02*
D03*
X3587599D02*
D03*
X3567914D02*
D03*
X3548228D02*
D03*
X3528543D02*
D03*
X3508858D02*
D03*
X3489173D02*
D03*
X3469488D02*
D03*
X3449803D02*
D03*
X3656496Y3421260D02*
D03*
X6579725Y3480315D02*
D03*
X6786417Y3421260D02*
D03*
X6766732D02*
D03*
X6747047D02*
D03*
X6727362D02*
D03*
X6707677D02*
D03*
X6687992D02*
D03*
X6668307D02*
D03*
X6648622D02*
D03*
X6628937D02*
D03*
X6609252D02*
D03*
X6589567D02*
D03*
X6796260Y3480315D02*
D03*
X6776575D02*
D03*
X6756890D02*
D03*
X6737205D02*
D03*
X6717520D02*
D03*
X6697835D02*
D03*
X6678150D02*
D03*
X6658465D02*
D03*
X6638780D02*
D03*
X6619095D02*
D03*
X6599409D02*
D03*
X6806102Y3421260D02*
D03*
X4611221Y3480315D02*
D03*
X4817913Y3421260D02*
D03*
X4798228D02*
D03*
X4778543D02*
D03*
X4758858D02*
D03*
X4739173D02*
D03*
X4719488D02*
D03*
X4699803D02*
D03*
X4680118D02*
D03*
X4660433D02*
D03*
X4640748D02*
D03*
X4621063D02*
D03*
X4827756Y3480315D02*
D03*
X4808071D02*
D03*
X4788386D02*
D03*
X4768701D02*
D03*
X4749016D02*
D03*
X4729331D02*
D03*
X4709646D02*
D03*
X4689961D02*
D03*
X4670276D02*
D03*
X4650591D02*
D03*
X4630905D02*
D03*
X4837598Y3421260D02*
D03*
X5595472Y3480315D02*
D03*
X5802165Y3421260D02*
D03*
X5782480D02*
D03*
X5762795D02*
D03*
X5743110D02*
D03*
X5723425D02*
D03*
X5703740D02*
D03*
X5684055D02*
D03*
X5664370D02*
D03*
X5644685D02*
D03*
X5625000D02*
D03*
X5605315D02*
D03*
X5812008Y3480315D02*
D03*
X5792323D02*
D03*
X5772638D02*
D03*
X5752953D02*
D03*
X5733268D02*
D03*
X5713583D02*
D03*
X5693898D02*
D03*
X5674213D02*
D03*
X5654528D02*
D03*
X5634843D02*
D03*
X5615158D02*
D03*
X5821850Y3421260D02*
D03*
%TF.MD5,7e56ed1c281ba31366bd9b5f182c6486*%
M02*
