%TF.GenerationSoftware,Altium Limited,Altium Designer,22.5.1 (42)*%
G04 Layer_Color=0*
%FSLAX26Y26*%
%MOIN*%
%TF.SameCoordinates,0DA79311-8CAD-460E-879A-7D23F4F2BAF0*%
%TF.FilePolarity,Positive*%
%TF.FileFunction,Plated,1,8,PTH,Drill*%
%TF.Part,Single*%
G01*
G75*
%TA.AperFunction,ComponentDrill*%
%ADD38C,0.027559*%
%ADD39O,0.019685X0.051181*%
%TA.AperFunction,ViaDrill,NotFilled*%
%ADD40C,0.003937*%
D38*
X1480315Y4218504D02*
D03*
X1669291D02*
D03*
Y4049213D02*
D03*
X1480315D02*
D03*
X4039370D02*
D03*
X4228346D02*
D03*
Y4218504D02*
D03*
X4039370D02*
D03*
X1480315Y6608268D02*
D03*
X1669291D02*
D03*
Y6777559D02*
D03*
X1480315D02*
D03*
X4039370Y6608268D02*
D03*
X4228346D02*
D03*
Y6777559D02*
D03*
X4039370D02*
D03*
X6598425Y6608268D02*
D03*
X6787402D02*
D03*
Y6777559D02*
D03*
X6598425D02*
D03*
Y4049213D02*
D03*
X6787402D02*
D03*
Y4218504D02*
D03*
X6598425D02*
D03*
D39*
X1429134Y3488189D02*
D03*
X1720472D02*
D03*
X2413386D02*
D03*
X2704724D02*
D03*
X3397638D02*
D03*
X3688976D02*
D03*
X6547244D02*
D03*
X6838583D02*
D03*
X4578740D02*
D03*
X4870079D02*
D03*
X5562992D02*
D03*
X5854331D02*
D03*
D40*
X6747047Y3421260D02*
D03*
X6648622D02*
D03*
X4778543D02*
D03*
X4680118D02*
D03*
X3597441D02*
D03*
X3499016D02*
D03*
X1628937D02*
D03*
X1530512D02*
D03*
X5762795D02*
D03*
X5664370D02*
D03*
X2514764D02*
D03*
X2613189D02*
D03*
X5743110D02*
D03*
X4758858D02*
D03*
X3577756D02*
D03*
X2593504D02*
D03*
X5802165D02*
D03*
X5782480D02*
D03*
X5644685D02*
D03*
X5625000D02*
D03*
X4817913D02*
D03*
X4798228D02*
D03*
X4660433D02*
D03*
X4640748D02*
D03*
X3636811D02*
D03*
X3617126D02*
D03*
X3479331D02*
D03*
X3459646D02*
D03*
X2652559D02*
D03*
X2632874D02*
D03*
X2495079D02*
D03*
X2475394D02*
D03*
X4222441Y6725591D02*
D03*
X4202756D02*
D03*
X4143701D02*
D03*
X4124016D02*
D03*
X4064961D02*
D03*
X4045276D02*
D03*
Y4166535D02*
D03*
X4064961D02*
D03*
X4202756D02*
D03*
X4222441D02*
D03*
X4124016D02*
D03*
X4143701D02*
D03*
X6604331D02*
D03*
X6624016D02*
D03*
X6761811D02*
D03*
X6781496D02*
D03*
X6683071D02*
D03*
X6702756D02*
D03*
X6604331Y6725591D02*
D03*
X6624016D02*
D03*
X6761811D02*
D03*
X6781496D02*
D03*
X6683071D02*
D03*
X6702756D02*
D03*
X1584646D02*
D03*
X1564961D02*
D03*
X1663386D02*
D03*
X1643701D02*
D03*
X1505906D02*
D03*
X1486220D02*
D03*
X1609252Y3421260D02*
D03*
X6727362D02*
D03*
X6786417D02*
D03*
X6766732D02*
D03*
X6628937D02*
D03*
X6609252D02*
D03*
X1491142D02*
D03*
X1510827D02*
D03*
X1648622D02*
D03*
X1668307D02*
D03*
X1564961Y4166535D02*
D03*
X1584646D02*
D03*
X1643701D02*
D03*
X1663386D02*
D03*
X1486220D02*
D03*
X1505906D02*
D03*
%TF.MD5,0411e849dedeb681841d0ad48be987f1*%
M02*
