%TF.GenerationSoftware,Altium Limited,Altium Designer,22.5.1 (42)*%
G04 Layer_Color=128*
%FSLAX26Y26*%
%MOIN*%
%TF.SameCoordinates,0DA79311-8CAD-460E-879A-7D23F4F2BAF0*%
%TF.FilePolarity,Positive*%
%TF.FileFunction,Drillmap*%
%TF.Part,Single*%
G01*
G75*
%TA.AperFunction,NonConductor*%
%ADD42C,0.005000*%
D42*
X6695866Y3470472D02*
X6699803D01*
X6697835Y3468504D02*
Y3472441D01*
X6686024Y3431102D02*
X6689961D01*
X6687992Y3429134D02*
Y3433071D01*
X5711614Y3470472D02*
X5715551D01*
X5713583Y3468504D02*
Y3472441D01*
X5701772Y3431102D02*
X5705709D01*
X5703740Y3429134D02*
Y3433071D01*
X4727362Y3470472D02*
X4731299D01*
X4729331Y3468504D02*
Y3472441D01*
X4717520Y3431102D02*
X4721457D01*
X4719488Y3429134D02*
Y3433071D01*
X3546260Y3470472D02*
X3550197D01*
X3548228Y3468504D02*
Y3472441D01*
X3536417Y3431102D02*
X3540354D01*
X3538386Y3429134D02*
Y3433071D01*
X2562008Y3470472D02*
X2565945D01*
X2563976Y3468504D02*
Y3472441D01*
X2552165Y3431102D02*
X2556102D01*
X2554134Y3429134D02*
Y3433071D01*
X1567913Y3431102D02*
X1571850D01*
X1569882Y3429134D02*
Y3433071D01*
X1577756Y3470472D02*
X1581693D01*
X1579724Y3468504D02*
Y3472441D01*
%TF.MD5,7b0a8c5f02a6e80ac90e9cc59cbc9dab*%
M02*
