%TF.GenerationSoftware,Altium Limited,Altium Designer,22.5.1 (42)*%
G04 Layer_Color=128*
%FSLAX26Y26*%
%MOIN*%
%TF.SameCoordinates,0DA79311-8CAD-460E-879A-7D23F4F2BAF0*%
%TF.FilePolarity,Positive*%
%TF.FileFunction,Paste,Bot*%
%TF.Part,Single*%
G01*
G75*
%TA.AperFunction,ConnectorPad*%
%ADD20R,0.011811X0.031496*%
D20*
X1461614Y3480315D02*
D03*
X1668307Y3421260D02*
D03*
X1648622D02*
D03*
X1628937D02*
D03*
X1609252D02*
D03*
X1589567D02*
D03*
X1569882D02*
D03*
X1550197D02*
D03*
X1530512D02*
D03*
X1510827D02*
D03*
X1491142D02*
D03*
X1471457D02*
D03*
X1678150Y3480315D02*
D03*
X1658465D02*
D03*
X1638780D02*
D03*
X1619094D02*
D03*
X1599409D02*
D03*
X1579724D02*
D03*
X1560039D02*
D03*
X1540354D02*
D03*
X1520669D02*
D03*
X1500984D02*
D03*
X1481299D02*
D03*
X1687992Y3421260D02*
D03*
X2445866Y3480315D02*
D03*
X2652559Y3421260D02*
D03*
X2632874D02*
D03*
X2613189D02*
D03*
X2593504D02*
D03*
X2573819D02*
D03*
X2554134D02*
D03*
X2534449D02*
D03*
X2514764D02*
D03*
X2495079D02*
D03*
X2475394D02*
D03*
X2455709D02*
D03*
X2662402Y3480315D02*
D03*
X2642717D02*
D03*
X2623032D02*
D03*
X2603347D02*
D03*
X2583662D02*
D03*
X2563976D02*
D03*
X2544291D02*
D03*
X2524606D02*
D03*
X2504921D02*
D03*
X2485236D02*
D03*
X2465551D02*
D03*
X2672244Y3421260D02*
D03*
X3430118Y3480315D02*
D03*
X3636811Y3421260D02*
D03*
X3617126D02*
D03*
X3597441D02*
D03*
X3577756D02*
D03*
X3558071D02*
D03*
X3538386D02*
D03*
X3518701D02*
D03*
X3499016D02*
D03*
X3479331D02*
D03*
X3459646D02*
D03*
X3439961D02*
D03*
X3646654Y3480315D02*
D03*
X3626969D02*
D03*
X3607284D02*
D03*
X3587599D02*
D03*
X3567914D02*
D03*
X3548228D02*
D03*
X3528543D02*
D03*
X3508858D02*
D03*
X3489173D02*
D03*
X3469488D02*
D03*
X3449803D02*
D03*
X3656496Y3421260D02*
D03*
X6579725Y3480315D02*
D03*
X6786417Y3421260D02*
D03*
X6766732D02*
D03*
X6747047D02*
D03*
X6727362D02*
D03*
X6707677D02*
D03*
X6687992D02*
D03*
X6668307D02*
D03*
X6648622D02*
D03*
X6628937D02*
D03*
X6609252D02*
D03*
X6589567D02*
D03*
X6796260Y3480315D02*
D03*
X6776575D02*
D03*
X6756890D02*
D03*
X6737205D02*
D03*
X6717520D02*
D03*
X6697835D02*
D03*
X6678150D02*
D03*
X6658465D02*
D03*
X6638780D02*
D03*
X6619095D02*
D03*
X6599409D02*
D03*
X6806102Y3421260D02*
D03*
X4611221Y3480315D02*
D03*
X4817913Y3421260D02*
D03*
X4798228D02*
D03*
X4778543D02*
D03*
X4758858D02*
D03*
X4739173D02*
D03*
X4719488D02*
D03*
X4699803D02*
D03*
X4680118D02*
D03*
X4660433D02*
D03*
X4640748D02*
D03*
X4621063D02*
D03*
X4827756Y3480315D02*
D03*
X4808071D02*
D03*
X4788386D02*
D03*
X4768701D02*
D03*
X4749016D02*
D03*
X4729331D02*
D03*
X4709646D02*
D03*
X4689961D02*
D03*
X4670276D02*
D03*
X4650591D02*
D03*
X4630905D02*
D03*
X4837598Y3421260D02*
D03*
X5595472Y3480315D02*
D03*
X5802165Y3421260D02*
D03*
X5782480D02*
D03*
X5762795D02*
D03*
X5743110D02*
D03*
X5723425D02*
D03*
X5703740D02*
D03*
X5684055D02*
D03*
X5664370D02*
D03*
X5644685D02*
D03*
X5625000D02*
D03*
X5605315D02*
D03*
X5812008Y3480315D02*
D03*
X5792323D02*
D03*
X5772638D02*
D03*
X5752953D02*
D03*
X5733268D02*
D03*
X5713583D02*
D03*
X5693898D02*
D03*
X5674213D02*
D03*
X5654528D02*
D03*
X5634843D02*
D03*
X5615158D02*
D03*
X5821850Y3421260D02*
D03*
%TF.MD5,9cc02bd13d221d8586dbf3eb42b09737*%
M02*
