%TF.GenerationSoftware,Altium Limited,Altium Designer,22.5.1 (42)*%
G04 Layer_Color=2752767*
%FSLAX26Y26*%
%MOIN*%
%TF.SameCoordinates,0DA79311-8CAD-460E-879A-7D23F4F2BAF0*%
%TF.FilePolarity,Positive*%
%TF.FileFunction,Drawing*%
%TF.Part,Single*%
G01*
G75*
%TA.AperFunction,NonConductor*%
%ADD42C,0.005000*%
D42*
X1505591Y4146535D02*
X1515591Y4166535D01*
X1505591Y4186535D01*
X1525591Y4176535D01*
X1545591Y4186535D01*
X1535591Y4166535D01*
X1545591Y4146535D01*
X1525591Y4156535D01*
X1505591Y4146535D01*
X1604016D02*
X1614016Y4166535D01*
X1604016Y4186535D01*
X1624016Y4176535D01*
X1644016Y4186535D01*
X1634016Y4166535D01*
X1644016Y4146535D01*
X1624016Y4156535D01*
X1604016Y4146535D01*
X4064646D02*
X4074646Y4166535D01*
X4064646Y4186535D01*
X4084646Y4176535D01*
X4104646Y4186535D01*
X4094646Y4166535D01*
X4104646Y4146535D01*
X4084646Y4156535D01*
X4064646Y4146535D01*
X4163071D02*
X4173071Y4166535D01*
X4163071Y4186535D01*
X4183071Y4176535D01*
X4203071Y4186535D01*
X4193071Y4166535D01*
X4203071Y4146535D01*
X4183071Y4156535D01*
X4163071Y4146535D01*
X6623701D02*
X6633701Y4166535D01*
X6623701Y4186535D01*
X6643701Y4176535D01*
X6663701Y4186535D01*
X6653701Y4166535D01*
X6663701Y4146535D01*
X6643701Y4156535D01*
X6623701Y4146535D01*
X6722126D02*
X6732126Y4166535D01*
X6722126Y4186535D01*
X6742126Y4176535D01*
X6762126Y4186535D01*
X6752126Y4166535D01*
X6762126Y4146535D01*
X6742126Y4156535D01*
X6722126Y4146535D01*
X6623701Y6705591D02*
X6633701Y6725591D01*
X6623701Y6745591D01*
X6643701Y6735591D01*
X6663701Y6745591D01*
X6653701Y6725591D01*
X6663701Y6705591D01*
X6643701Y6715591D01*
X6623701Y6705591D01*
X6722126D02*
X6732126Y6725591D01*
X6722126Y6745591D01*
X6742126Y6735591D01*
X6762126Y6745591D01*
X6752126Y6725591D01*
X6762126Y6705591D01*
X6742126Y6715591D01*
X6722126Y6705591D01*
X4064646D02*
X4074646Y6725591D01*
X4064646Y6745591D01*
X4084646Y6735591D01*
X4104646Y6745591D01*
X4094646Y6725591D01*
X4104646Y6705591D01*
X4084646Y6715591D01*
X4064646Y6705591D01*
X4163071D02*
X4173071Y6725591D01*
X4163071Y6745591D01*
X4183071Y6735591D01*
X4203071Y6745591D01*
X4193071Y6725591D01*
X4203071Y6705591D01*
X4183071Y6715591D01*
X4163071Y6705591D01*
X1604016D02*
X1614016Y6725591D01*
X1604016Y6745591D01*
X1624016Y6735591D01*
X1644016Y6745591D01*
X1634016Y6725591D01*
X1644016Y6705591D01*
X1624016Y6715591D01*
X1604016Y6705591D01*
X1505591D02*
X1515591Y6725591D01*
X1505591Y6745591D01*
X1525591Y6735591D01*
X1545591Y6745591D01*
X1535591Y6725591D01*
X1545591Y6705591D01*
X1525591Y6715591D01*
X1505591Y6705591D01*
%TF.MD5,74c570e164b5f97cbd28fdfafdc888bc*%
M02*
