%TF.GenerationSoftware,Altium Limited,Altium Designer,22.5.1 (42)*%
G04 Layer_Color=128*
%FSLAX26Y26*%
%MOIN*%
%TF.SameCoordinates,0DA79311-8CAD-460E-879A-7D23F4F2BAF0*%
%TF.FilePolarity,Positive*%
%TF.FileFunction,Drillmap*%
%TF.Part,Single*%
G01*
G75*
%TA.AperFunction,NonConductor*%
%ADD42C,0.005000*%
D42*
X1523622Y4166535D02*
X1527559D01*
X1525591Y4164567D02*
Y4168504D01*
X1622047Y4166535D02*
X1625984D01*
X1624016Y4164567D02*
Y4168504D01*
X4082677Y4166535D02*
X4086614D01*
X4084646Y4164567D02*
Y4168504D01*
X4181102Y4166535D02*
X4185039D01*
X4183071Y4164567D02*
Y4168504D01*
X6641732Y4166535D02*
X6645669D01*
X6643701Y4164567D02*
Y4168504D01*
X6740158Y4166535D02*
X6744095D01*
X6742126Y4164567D02*
Y4168504D01*
X6641732Y6725591D02*
X6645669D01*
X6643701Y6723622D02*
Y6727559D01*
X6740158Y6725591D02*
X6744095D01*
X6742126Y6723622D02*
Y6727559D01*
X4082677Y6725591D02*
X4086614D01*
X4084646Y6723622D02*
Y6727559D01*
X4181102Y6725591D02*
X4185039D01*
X4183071Y6723622D02*
Y6727559D01*
X1622047Y6725591D02*
X1625984D01*
X1624016Y6723622D02*
Y6727559D01*
X1523622Y6725591D02*
X1527559D01*
X1525591Y6723622D02*
Y6727559D01*
%TF.MD5,f71b671baf714b1b547743bb36f01b23*%
M02*
