%TF.GenerationSoftware,Altium Limited,Altium Designer,22.5.1 (42)*%
G04 Layer_Color=128*
%FSLAX26Y26*%
%MOIN*%
%TF.SameCoordinates,0DA79311-8CAD-460E-879A-7D23F4F2BAF0*%
%TF.FilePolarity,Positive*%
%TF.FileFunction,Drillmap*%
%TF.Part,Single*%
G01*
G75*
%TA.AperFunction,NonConductor*%
%ADD42C,0.005000*%
D42*
X1709449Y4133858D02*
X1735433D01*
X1722441Y4120866D02*
Y4146850D01*
X1415748Y4133858D02*
X1438583D01*
X1427165Y4122441D02*
Y4145276D01*
X1466535Y4218504D02*
X1494094D01*
X1480315Y4204725D02*
Y4232283D01*
X1655512Y4218504D02*
X1683071D01*
X1669291Y4204725D02*
Y4232283D01*
X1655512Y4049213D02*
X1683071D01*
X1669291Y4035433D02*
Y4062992D01*
X1466535Y4049213D02*
X1494094D01*
X1480315Y4035433D02*
Y4062992D01*
X4025591Y4049213D02*
X4053150D01*
X4039370Y4035433D02*
Y4062992D01*
X4214567Y4049213D02*
X4242126D01*
X4228346Y4035433D02*
Y4062992D01*
X4214567Y4218504D02*
X4242126D01*
X4228346Y4204725D02*
Y4232283D01*
X4025591Y4218504D02*
X4053150D01*
X4039370Y4204725D02*
Y4232283D01*
X3974803Y4133858D02*
X3997638D01*
X3986220Y4122441D02*
Y4145276D01*
X4268504Y4133858D02*
X4294488D01*
X4281496Y4120866D02*
Y4146850D01*
X1466535Y6608268D02*
X1494094D01*
X1480315Y6594488D02*
Y6622047D01*
X1655512Y6608268D02*
X1683071D01*
X1669291Y6594488D02*
Y6622047D01*
X1655512Y6777559D02*
X1683071D01*
X1669291Y6763780D02*
Y6791339D01*
X1466535Y6777559D02*
X1494094D01*
X1480315Y6763780D02*
Y6791339D01*
X1415748Y6692913D02*
X1438583D01*
X1427165Y6681496D02*
Y6704331D01*
X1709449Y6692913D02*
X1735433D01*
X1722441Y6679921D02*
Y6705905D01*
X4025591Y6608268D02*
X4053150D01*
X4039370Y6594488D02*
Y6622047D01*
X4214567Y6608268D02*
X4242126D01*
X4228346Y6594488D02*
Y6622047D01*
X4214567Y6777559D02*
X4242126D01*
X4228346Y6763780D02*
Y6791339D01*
X4025591Y6777559D02*
X4053150D01*
X4039370Y6763780D02*
Y6791339D01*
X3974803Y6692913D02*
X3997638D01*
X3986220Y6681496D02*
Y6704331D01*
X4268504Y6692913D02*
X4294488D01*
X4281496Y6679921D02*
Y6705905D01*
X6584646Y6608268D02*
X6612205D01*
X6598425Y6594488D02*
Y6622047D01*
X6773622Y6608268D02*
X6801181D01*
X6787402Y6594488D02*
Y6622047D01*
X6773622Y6777559D02*
X6801181D01*
X6787402Y6763780D02*
Y6791339D01*
X6584646Y6777559D02*
X6612205D01*
X6598425Y6763780D02*
Y6791339D01*
X6533858Y6692913D02*
X6556693D01*
X6545276Y6681496D02*
Y6704331D01*
X6827559Y6692913D02*
X6853543D01*
X6840551Y6679921D02*
Y6705905D01*
X6584646Y4049213D02*
X6612205D01*
X6598425Y4035433D02*
Y4062992D01*
X6773622Y4049213D02*
X6801181D01*
X6787402Y4035433D02*
Y4062992D01*
X6773622Y4218504D02*
X6801181D01*
X6787402Y4204725D02*
Y4232283D01*
X6584646Y4218504D02*
X6612205D01*
X6598425Y4204725D02*
Y4232283D01*
X6533858Y4133858D02*
X6556693D01*
X6545276Y4122441D02*
Y4145276D01*
X6827559Y4133858D02*
X6853543D01*
X6840551Y4120866D02*
Y4146850D01*
X1419291Y3488189D02*
X1438976D01*
X1429134Y3478347D02*
Y3498032D01*
X1710630Y3488189D02*
X1730315D01*
X1720472Y3478347D02*
Y3498032D01*
X2403543Y3488189D02*
X2423228D01*
X2413386Y3478347D02*
Y3498032D01*
X2694882Y3488189D02*
X2714567D01*
X2704724Y3478347D02*
Y3498032D01*
X3387795Y3488189D02*
X3407480D01*
X3397638Y3478347D02*
Y3498032D01*
X3679134Y3488189D02*
X3698819D01*
X3688976Y3478347D02*
Y3498032D01*
X6537402Y3488189D02*
X6557087D01*
X6547244Y3478347D02*
Y3498032D01*
X6828740Y3488189D02*
X6848425D01*
X6838583Y3478347D02*
Y3498032D01*
X4568898Y3488189D02*
X4588583D01*
X4578740Y3478347D02*
Y3498032D01*
X4860236Y3488189D02*
X4879921D01*
X4870079Y3478347D02*
Y3498032D01*
X5553150Y3488189D02*
X5572835D01*
X5562992Y3478347D02*
Y3498032D01*
X5844488Y3488189D02*
X5864173D01*
X5854331Y3478347D02*
Y3498032D01*
X6745079Y3421260D02*
X6749016D01*
X6747047Y3419291D02*
Y3423228D01*
X6646654Y3421260D02*
X6650591D01*
X6648622Y3419291D02*
Y3423228D01*
X4776575Y3421260D02*
X4780512D01*
X4778543Y3419291D02*
Y3423228D01*
X4678150Y3421260D02*
X4682087D01*
X4680118Y3419291D02*
Y3423228D01*
X3595472Y3421260D02*
X3599409D01*
X3597441Y3419291D02*
Y3423228D01*
X3497047Y3421260D02*
X3500984D01*
X3499016Y3419291D02*
Y3423228D01*
X1626968Y3421260D02*
X1630905D01*
X1628937Y3419291D02*
Y3423228D01*
X1528543Y3421260D02*
X1532480D01*
X1530512Y3419291D02*
Y3423228D01*
X5760827Y3421260D02*
X5764764D01*
X5762795Y3419291D02*
Y3423228D01*
X5662401Y3421260D02*
X5666338D01*
X5664370Y3419291D02*
Y3423228D01*
X2512795Y3421260D02*
X2516732D01*
X2514764Y3419291D02*
Y3423228D01*
X2611220Y3421260D02*
X2615157D01*
X2613189Y3419291D02*
Y3423228D01*
X5741142Y3421260D02*
X5745079D01*
X5743110Y3419291D02*
Y3423228D01*
X4756890Y3421260D02*
X4760827D01*
X4758858Y3419291D02*
Y3423228D01*
X3575787Y3421260D02*
X3579724D01*
X3577756Y3419291D02*
Y3423228D01*
X2591535Y3421260D02*
X2595472D01*
X2593504Y3419291D02*
Y3423228D01*
X5800197Y3421260D02*
X5804134D01*
X5802165Y3419291D02*
Y3423228D01*
X5780512Y3421260D02*
X5784449D01*
X5782480Y3419291D02*
Y3423228D01*
X5642717Y3421260D02*
X5646654D01*
X5644685Y3419291D02*
Y3423228D01*
X5623031Y3421260D02*
X5626968D01*
X5625000Y3419291D02*
Y3423228D01*
X4815945Y3421260D02*
X4819882D01*
X4817913Y3419291D02*
Y3423228D01*
X4796260Y3421260D02*
X4800197D01*
X4798228Y3419291D02*
Y3423228D01*
X4658465Y3421260D02*
X4662401D01*
X4660433Y3419291D02*
Y3423228D01*
X4638779Y3421260D02*
X4642716D01*
X4640748Y3419291D02*
Y3423228D01*
X3634843Y3421260D02*
X3638780D01*
X3636811Y3419291D02*
Y3423228D01*
X3615157Y3421260D02*
X3619094D01*
X3617126Y3419291D02*
Y3423228D01*
X3477362Y3421260D02*
X3481299D01*
X3479331Y3419291D02*
Y3423228D01*
X3457677Y3421260D02*
X3461614D01*
X3459646Y3419291D02*
Y3423228D01*
X2650590Y3421260D02*
X2654528D01*
X2652559Y3419291D02*
Y3423228D01*
X2630905Y3421260D02*
X2634842D01*
X2632874Y3419291D02*
Y3423228D01*
X2493110Y3421260D02*
X2497047D01*
X2495079Y3419291D02*
Y3423228D01*
X2473425Y3421260D02*
X2477362D01*
X2475394Y3419291D02*
Y3423228D01*
X4220472Y6725591D02*
X4224409D01*
X4222441Y6723622D02*
Y6727559D01*
X4200787Y6725591D02*
X4204724D01*
X4202756Y6723622D02*
Y6727559D01*
X4141732Y6725591D02*
X4145669D01*
X4143701Y6723622D02*
Y6727559D01*
X4122047Y6725591D02*
X4125984D01*
X4124016Y6723622D02*
Y6727559D01*
X4062992Y6725591D02*
X4066929D01*
X4064961Y6723622D02*
Y6727559D01*
X4043307Y6725591D02*
X4047244D01*
X4045276Y6723622D02*
Y6727559D01*
X4043307Y4166535D02*
X4047244D01*
X4045276Y4164567D02*
Y4168504D01*
X4062992Y4166535D02*
X4066929D01*
X4064961Y4164567D02*
Y4168504D01*
X4200787Y4166535D02*
X4204724D01*
X4202756Y4164567D02*
Y4168504D01*
X4220472Y4166535D02*
X4224409D01*
X4222441Y4164567D02*
Y4168504D01*
X4122047Y4166535D02*
X4125984D01*
X4124016Y4164567D02*
Y4168504D01*
X4141732Y4166535D02*
X4145669D01*
X4143701Y4164567D02*
Y4168504D01*
X6602362Y4166535D02*
X6606299D01*
X6604331Y4164567D02*
Y4168504D01*
X6622047Y4166535D02*
X6625984D01*
X6624016Y4164567D02*
Y4168504D01*
X6759842Y4166535D02*
X6763779D01*
X6761811Y4164567D02*
Y4168504D01*
X6779528Y4166535D02*
X6783465D01*
X6781496Y4164567D02*
Y4168504D01*
X6681102Y4166535D02*
X6685039D01*
X6683071Y4164567D02*
Y4168504D01*
X6700788Y4166535D02*
X6704725D01*
X6702756Y4164567D02*
Y4168504D01*
X6602362Y6725591D02*
X6606299D01*
X6604331Y6723622D02*
Y6727559D01*
X6622047Y6725591D02*
X6625984D01*
X6624016Y6723622D02*
Y6727559D01*
X6759842Y6725591D02*
X6763779D01*
X6761811Y6723622D02*
Y6727559D01*
X6779528Y6725591D02*
X6783465D01*
X6781496Y6723622D02*
Y6727559D01*
X6681102Y6725591D02*
X6685039D01*
X6683071Y6723622D02*
Y6727559D01*
X6700788Y6725591D02*
X6704725D01*
X6702756Y6723622D02*
Y6727559D01*
X1582677Y6725591D02*
X1586614D01*
X1584646Y6723622D02*
Y6727559D01*
X1562992Y6725591D02*
X1566929D01*
X1564961Y6723622D02*
Y6727559D01*
X1661417Y6725591D02*
X1665354D01*
X1663386Y6723622D02*
Y6727559D01*
X1641732Y6725591D02*
X1645669D01*
X1643701Y6723622D02*
Y6727559D01*
X1503937Y6725591D02*
X1507874D01*
X1505906Y6723622D02*
Y6727559D01*
X1484252Y6725591D02*
X1488189D01*
X1486220Y6723622D02*
Y6727559D01*
X1607283Y3421260D02*
X1611220D01*
X1609252Y3419291D02*
Y3423228D01*
X6725394Y3421260D02*
X6729331D01*
X6727362Y3419291D02*
Y3423228D01*
X6784449Y3421260D02*
X6788386D01*
X6786417Y3419291D02*
Y3423228D01*
X6764764Y3421260D02*
X6768701D01*
X6766732Y3419291D02*
Y3423228D01*
X6626968Y3421260D02*
X6630905D01*
X6628937Y3419291D02*
Y3423228D01*
X6607283Y3421260D02*
X6611220D01*
X6609252Y3419291D02*
Y3423228D01*
X1489173Y3421260D02*
X1493110D01*
X1491142Y3419291D02*
Y3423228D01*
X1508858Y3421260D02*
X1512795D01*
X1510827Y3419291D02*
Y3423228D01*
X1646653Y3421260D02*
X1650590D01*
X1648622Y3419291D02*
Y3423228D01*
X1666339Y3421260D02*
X1670275D01*
X1668307Y3419291D02*
Y3423228D01*
X1562992Y4166535D02*
X1566929D01*
X1564961Y4164567D02*
Y4168504D01*
X1582677Y4166535D02*
X1586614D01*
X1584646Y4164567D02*
Y4168504D01*
X1641732Y4166535D02*
X1645669D01*
X1643701Y4164567D02*
Y4168504D01*
X1661417Y4166535D02*
X1665354D01*
X1663386Y4164567D02*
Y4168504D01*
X1484252Y4166535D02*
X1488189D01*
X1486220Y4164567D02*
Y4168504D01*
X1503937Y4166535D02*
X1507874D01*
X1505906Y4164567D02*
Y4168504D01*
%TF.MD5,dc414253a9ebfd7bc22baf7ace68b9a9*%
M02*
