%TF.GenerationSoftware,Altium Limited,Altium Designer,22.5.1 (42)*%
G04 Layer_Color=7674933*
%FSLAX26Y26*%
%MOIN*%
%TF.SameCoordinates,0DA79311-8CAD-460E-879A-7D23F4F2BAF0*%
%TF.FilePolarity,Positive*%
%TF.FileFunction,Other,Bottom_Value*%
%TF.Part,Single*%
G01*
G75*
%TA.AperFunction,NonConductor*%
%ADD34C,0.001000*%
D34*
X1607614Y3405837D02*
X1609254Y3407477D01*
X1612533D01*
X1614173Y3405837D01*
Y3399278D01*
X1612533Y3397638D01*
X1609254D01*
X1607614Y3399278D01*
X1599414Y3407477D02*
X1602694D01*
X1604334Y3405837D01*
Y3399278D01*
X1602694Y3397638D01*
X1599414D01*
X1597774Y3399278D01*
Y3405837D01*
X1599414Y3407477D01*
X1587935Y3397638D02*
X1594495D01*
X1587935Y3404197D01*
Y3405837D01*
X1589575Y3407477D01*
X1592855D01*
X1594495Y3405837D01*
X1584655D02*
X1583015Y3407477D01*
X1579736D01*
X1578096Y3405837D01*
Y3399278D01*
X1579736Y3397638D01*
X1583015D01*
X1584655Y3399278D01*
Y3405837D01*
X1569896Y3397638D02*
Y3407477D01*
X1574816Y3402557D01*
X1568256D01*
X2591866Y3405837D02*
X2593506Y3407477D01*
X2596785D01*
X2598425Y3405837D01*
Y3399278D01*
X2596785Y3397638D01*
X2593506D01*
X2591866Y3399278D01*
X2583666Y3407477D02*
X2586946D01*
X2588586Y3405837D01*
Y3399278D01*
X2586946Y3397638D01*
X2583666D01*
X2582026Y3399278D01*
Y3405837D01*
X2583666Y3407477D01*
X2578747Y3405837D02*
X2577107Y3407477D01*
X2573827D01*
X2572187Y3405837D01*
Y3404197D01*
X2573827Y3402557D01*
X2575467D01*
X2573827D01*
X2572187Y3400918D01*
Y3399278D01*
X2573827Y3397638D01*
X2577107D01*
X2578747Y3399278D01*
X2568907Y3405837D02*
X2567267Y3407477D01*
X2563988D01*
X2562348Y3405837D01*
Y3399278D01*
X2563988Y3397638D01*
X2567267D01*
X2568907Y3399278D01*
Y3405837D01*
X2554148Y3397638D02*
Y3407477D01*
X2559068Y3402557D01*
X2552508D01*
X3576118Y3405837D02*
X3577758Y3407477D01*
X3581037D01*
X3582677Y3405837D01*
Y3399278D01*
X3581037Y3397638D01*
X3577758D01*
X3576118Y3399278D01*
X3567918Y3407477D02*
X3571198D01*
X3572838Y3405837D01*
Y3399278D01*
X3571198Y3397638D01*
X3567918D01*
X3566278Y3399278D01*
Y3405837D01*
X3567918Y3407477D01*
X3558079Y3397638D02*
Y3407477D01*
X3562999Y3402557D01*
X3556439D01*
X3553159Y3405837D02*
X3551519Y3407477D01*
X3548240D01*
X3546600Y3405837D01*
Y3399278D01*
X3548240Y3397638D01*
X3551519D01*
X3553159Y3399278D01*
Y3405837D01*
X3538400Y3397638D02*
Y3407477D01*
X3543320Y3402557D01*
X3536760D01*
X6725724Y3405837D02*
X6727364Y3407477D01*
X6730644D01*
X6732283Y3405837D01*
Y3399278D01*
X6730644Y3397638D01*
X6727364D01*
X6725724Y3399278D01*
X6717525Y3407477D02*
X6720804D01*
X6722444Y3405837D01*
Y3399278D01*
X6720804Y3397638D01*
X6717525D01*
X6715885Y3399278D01*
Y3405837D01*
X6717525Y3407477D01*
X6706045D02*
X6709325Y3405837D01*
X6712605Y3402557D01*
Y3399278D01*
X6710965Y3397638D01*
X6707685D01*
X6706045Y3399278D01*
Y3400918D01*
X6707685Y3402557D01*
X6712605D01*
X6702766Y3405837D02*
X6701126Y3407477D01*
X6697846D01*
X6696206Y3405837D01*
Y3399278D01*
X6697846Y3397638D01*
X6701126D01*
X6702766Y3399278D01*
Y3405837D01*
X6688007Y3397638D02*
Y3407477D01*
X6692926Y3402557D01*
X6686367D01*
X4757220Y3405837D02*
X4758860Y3407477D01*
X4762140D01*
X4763779Y3405837D01*
Y3399278D01*
X4762140Y3397638D01*
X4758860D01*
X4757220Y3399278D01*
X4749020Y3407477D02*
X4752300D01*
X4753940Y3405837D01*
Y3399278D01*
X4752300Y3397638D01*
X4749020D01*
X4747381Y3399278D01*
Y3405837D01*
X4749020Y3407477D01*
X4744101D02*
X4737541D01*
Y3405837D01*
X4744101Y3399278D01*
Y3397638D01*
X4734262Y3405837D02*
X4732622Y3407477D01*
X4729342D01*
X4727702Y3405837D01*
Y3399278D01*
X4729342Y3397638D01*
X4732622D01*
X4734262Y3399278D01*
Y3405837D01*
X4719503Y3397638D02*
Y3407477D01*
X4724422Y3402557D01*
X4717863D01*
X5741472Y3405837D02*
X5743112Y3407477D01*
X5746392D01*
X5748032Y3405837D01*
Y3399278D01*
X5746392Y3397638D01*
X5743112D01*
X5741472Y3399278D01*
X5733273Y3407477D02*
X5736552D01*
X5738192Y3405837D01*
Y3399278D01*
X5736552Y3397638D01*
X5733273D01*
X5731633Y3399278D01*
Y3405837D01*
X5733273Y3407477D01*
X5721793D02*
X5728353D01*
Y3402557D01*
X5725073Y3404197D01*
X5723433D01*
X5721793Y3402557D01*
Y3399278D01*
X5723433Y3397638D01*
X5726713D01*
X5728353Y3399278D01*
X5718514Y3405837D02*
X5716874Y3407477D01*
X5713594D01*
X5711954Y3405837D01*
Y3399278D01*
X5713594Y3397638D01*
X5716874D01*
X5718514Y3399278D01*
Y3405837D01*
X5703755Y3397638D02*
Y3407477D01*
X5708674Y3402557D01*
X5702115D01*
%TF.MD5,059733db179270ffa51b880150da98d5*%
M02*
