%TF.GenerationSoftware,Altium Limited,Altium Designer,22.5.1 (42)*%
G04 Layer_Physical_Order=3*
G04 Layer_Color=9306309*
%FSLAX26Y26*%
%MOIN*%
%TF.SameCoordinates,0DA79311-8CAD-460E-879A-7D23F4F2BAF0*%
%TF.FilePolarity,Positive*%
%TF.FileFunction,Copper,L3,Inr,Signal*%
%TF.Part,Single*%
G01*
G75*
%TA.AperFunction,Conductor*%
%ADD10C,0.005906*%
%ADD14C,0.011811*%
%TA.AperFunction,ComponentPad*%
%ADD16C,0.043307*%
%ADD17O,0.039370X0.070866*%
%TA.AperFunction,ViaPad*%
%ADD18C,0.011811*%
%TA.AperFunction,Conductor*%
%ADD19C,0.004921*%
G36*
X6982802Y3403049D02*
X1284939D01*
Y6884377D01*
X6982802D01*
Y3403049D01*
D02*
G37*
%LPC*%
G36*
X6792402Y6808989D02*
Y6782559D01*
X6818832D01*
X6816898Y6789777D01*
X6812731Y6796995D01*
X6806837Y6802888D01*
X6799619Y6807055D01*
X6792402Y6808989D01*
D02*
G37*
G36*
X6782402D02*
X6775184Y6807055D01*
X6767966Y6802888D01*
X6762073Y6796995D01*
X6757905Y6789777D01*
X6755971Y6782559D01*
X6782402D01*
Y6808989D01*
D02*
G37*
G36*
X6603425D02*
Y6782559D01*
X6629856D01*
X6627922Y6789777D01*
X6623754Y6796995D01*
X6617861Y6802888D01*
X6610643Y6807055D01*
X6603425Y6808989D01*
D02*
G37*
G36*
X6593425D02*
X6586207Y6807055D01*
X6578989Y6802888D01*
X6573096Y6796995D01*
X6568929Y6789777D01*
X6566995Y6782559D01*
X6593425D01*
Y6808989D01*
D02*
G37*
G36*
X4233346D02*
Y6782559D01*
X4259777D01*
X4257843Y6789777D01*
X4253676Y6796995D01*
X4247782Y6802888D01*
X4240564Y6807055D01*
X4233346Y6808989D01*
D02*
G37*
G36*
X4223346D02*
X4216129Y6807055D01*
X4208911Y6802888D01*
X4203017Y6796995D01*
X4198850Y6789777D01*
X4196916Y6782559D01*
X4223346D01*
Y6808989D01*
D02*
G37*
G36*
X4044370D02*
Y6782559D01*
X4070800D01*
X4068866Y6789777D01*
X4064699Y6796995D01*
X4058806Y6802888D01*
X4051588Y6807055D01*
X4044370Y6808989D01*
D02*
G37*
G36*
X4034370D02*
X4027152Y6807055D01*
X4019934Y6802888D01*
X4014041Y6796995D01*
X4009874Y6789777D01*
X4007940Y6782559D01*
X4034370D01*
Y6808989D01*
D02*
G37*
G36*
X1674291D02*
Y6782559D01*
X1700722D01*
X1698788Y6789777D01*
X1694620Y6796995D01*
X1688727Y6802888D01*
X1681509Y6807055D01*
X1674291Y6808989D01*
D02*
G37*
G36*
X1664291D02*
X1657073Y6807055D01*
X1649856Y6802888D01*
X1643962Y6796995D01*
X1639795Y6789777D01*
X1637861Y6782559D01*
X1664291D01*
Y6808989D01*
D02*
G37*
G36*
X1485315D02*
Y6782559D01*
X1511745D01*
X1509811Y6789777D01*
X1505644Y6796995D01*
X1499751Y6802888D01*
X1492533Y6807055D01*
X1485315Y6808989D01*
D02*
G37*
G36*
X1475315D02*
X1468097Y6807055D01*
X1460879Y6802888D01*
X1454986Y6796995D01*
X1450819Y6789777D01*
X1448884Y6782559D01*
X1475315D01*
Y6808989D01*
D02*
G37*
G36*
X6818832Y6772559D02*
X6792402D01*
Y6746129D01*
X6799619Y6748063D01*
X6806837Y6752230D01*
X6812731Y6758123D01*
X6816898Y6765341D01*
X6818832Y6772559D01*
D02*
G37*
G36*
X6782402D02*
X6755971D01*
X6757905Y6765341D01*
X6762073Y6758123D01*
X6767966Y6752230D01*
X6775184Y6748063D01*
X6782402Y6746129D01*
Y6772559D01*
D02*
G37*
G36*
X6629856D02*
X6603425D01*
Y6746129D01*
X6610643Y6748063D01*
X6617861Y6752230D01*
X6623754Y6758123D01*
X6627922Y6765341D01*
X6629856Y6772559D01*
D02*
G37*
G36*
X6593425D02*
X6566995D01*
X6568929Y6765341D01*
X6573096Y6758123D01*
X6578989Y6752230D01*
X6586207Y6748063D01*
X6593425Y6746129D01*
Y6772559D01*
D02*
G37*
G36*
X4259777D02*
X4233346D01*
Y6746129D01*
X4240564Y6748063D01*
X4247782Y6752230D01*
X4253676Y6758123D01*
X4257843Y6765341D01*
X4259777Y6772559D01*
D02*
G37*
G36*
X4223346D02*
X4196916D01*
X4198850Y6765341D01*
X4203017Y6758123D01*
X4208911Y6752230D01*
X4216129Y6748063D01*
X4223346Y6746129D01*
Y6772559D01*
D02*
G37*
G36*
X4070800D02*
X4044370D01*
Y6746129D01*
X4051588Y6748063D01*
X4058806Y6752230D01*
X4064699Y6758123D01*
X4068866Y6765341D01*
X4070800Y6772559D01*
D02*
G37*
G36*
X4034370D02*
X4007940D01*
X4009874Y6765341D01*
X4014041Y6758123D01*
X4019934Y6752230D01*
X4027152Y6748063D01*
X4034370Y6746129D01*
Y6772559D01*
D02*
G37*
G36*
X1700722D02*
X1674291D01*
Y6746129D01*
X1681509Y6748063D01*
X1688727Y6752230D01*
X1694620Y6758123D01*
X1698788Y6765341D01*
X1700722Y6772559D01*
D02*
G37*
G36*
X1664291D02*
X1637861D01*
X1639795Y6765341D01*
X1643962Y6758123D01*
X1649856Y6752230D01*
X1657073Y6748063D01*
X1664291Y6746129D01*
Y6772559D01*
D02*
G37*
G36*
X1511745D02*
X1485315D01*
Y6746129D01*
X1492533Y6748063D01*
X1499751Y6752230D01*
X1505644Y6758123D01*
X1509811Y6765341D01*
X1511745Y6772559D01*
D02*
G37*
G36*
X1475315D02*
X1448884D01*
X1450819Y6765341D01*
X1454986Y6758123D01*
X1460879Y6752230D01*
X1468097Y6748063D01*
X1475315Y6746129D01*
Y6772559D01*
D02*
G37*
G36*
X6643701Y6735827D02*
X6642712Y6735630D01*
X6641704D01*
X6640772Y6735244D01*
X6639784Y6735047D01*
X6638945Y6734488D01*
X6638014Y6734102D01*
X6637301Y6733389D01*
X6636923Y6733136D01*
X6636129Y6732793D01*
X6632804Y6732441D01*
X6631597Y6732616D01*
X6630501Y6733024D01*
X6629591Y6733935D01*
X6625974Y6735433D01*
X6622058D01*
X6618440Y6733935D01*
X6617379Y6732873D01*
X6614173Y6731710D01*
X6610967Y6732873D01*
X6609906Y6733935D01*
X6606288Y6735433D01*
X6602373D01*
X6598755Y6733935D01*
X6595987Y6731166D01*
X6594488Y6727548D01*
Y6723633D01*
X6595987Y6720015D01*
X6598755Y6717247D01*
X6602373Y6715748D01*
X6606288D01*
X6609906Y6717247D01*
X6610967Y6718308D01*
X6614173Y6719471D01*
X6617379Y6718308D01*
X6618440Y6717247D01*
X6622058Y6715748D01*
X6625974D01*
X6628465Y6716780D01*
X6632074Y6715197D01*
X6633465Y6714049D01*
Y6619117D01*
X6628465Y6618458D01*
X6627922Y6620485D01*
X6623754Y6627703D01*
X6617861Y6633597D01*
X6610643Y6637764D01*
X6603425Y6639698D01*
Y6608268D01*
Y6576837D01*
X6610643Y6578771D01*
X6617861Y6582939D01*
X6623754Y6588832D01*
X6627922Y6596050D01*
X6628465Y6598077D01*
X6633465Y6597419D01*
Y6247350D01*
X5647290Y5261175D01*
X5645071Y5257854D01*
X5644292Y5253937D01*
Y3460138D01*
X5645071Y3456221D01*
X5647290Y3452900D01*
X5654134Y3446055D01*
Y3432801D01*
X5652743Y3431653D01*
X5649134Y3430070D01*
X5646643Y3431102D01*
X5642727D01*
X5639110Y3429604D01*
X5638049Y3428543D01*
X5634842Y3427379D01*
X5631636Y3428543D01*
X5630575Y3429604D01*
X5626958Y3431102D01*
X5623042D01*
X5619425Y3429604D01*
X5616656Y3426835D01*
X5615157Y3423218D01*
Y3419302D01*
X5616656Y3415684D01*
X5619425Y3412916D01*
X5623042Y3411417D01*
X5626958D01*
X5630575Y3412916D01*
X5631636Y3413977D01*
X5634842Y3415140D01*
X5638049Y3413977D01*
X5639110Y3412916D01*
X5642727Y3411417D01*
X5646643D01*
X5650260Y3412916D01*
X5651171Y3413826D01*
X5652900Y3414470D01*
X5656798Y3414057D01*
X5657592Y3413715D01*
X5657970Y3413462D01*
X5658683Y3412749D01*
X5659615Y3412363D01*
X5660453Y3411803D01*
X5661441Y3411606D01*
X5662373Y3411220D01*
X5663381D01*
X5664370Y3411024D01*
X5665359Y3411220D01*
X5666367D01*
X5667298Y3411606D01*
X5668287Y3411803D01*
X5669125Y3412363D01*
X5670057Y3412749D01*
X5670770Y3413462D01*
X5671608Y3414022D01*
X5672168Y3414860D01*
X5672881Y3415573D01*
X5673267Y3416504D01*
X5673827Y3417343D01*
X5674024Y3418331D01*
X5674409Y3419263D01*
Y3420271D01*
X5674606Y3421260D01*
Y3450295D01*
X5673827Y3454213D01*
X5671608Y3457533D01*
X5665333Y3463808D01*
X5665446Y3469095D01*
X5666021Y3469601D01*
X5669764Y3471291D01*
X5672216Y3470276D01*
X5676210D01*
X5679900Y3471804D01*
X5682724Y3474628D01*
X5684252Y3478318D01*
Y3482312D01*
X5682724Y3486002D01*
X5681438Y3487287D01*
Y5088543D01*
X6668495Y6075600D01*
X6670061Y6077944D01*
X6670611Y6080709D01*
Y6652244D01*
X6671448Y6652735D01*
X6675611Y6653777D01*
X6677496Y6651892D01*
X6680583Y6650613D01*
Y6645021D01*
X6681080Y6642525D01*
X6682494Y6640408D01*
X6692180Y6630722D01*
X6694296Y6629308D01*
X6696793Y6628812D01*
X6713070D01*
X6715567Y6629308D01*
X6717683Y6630722D01*
X6732270Y6645309D01*
X6733684Y6647426D01*
X6734181Y6649922D01*
Y6674697D01*
X6733684Y6677193D01*
X6732270Y6679309D01*
X6705243Y6706336D01*
Y6715967D01*
X6708331Y6717247D01*
X6711100Y6720015D01*
X6712599Y6723633D01*
Y6727548D01*
X6711100Y6731166D01*
X6708331Y6733935D01*
X6704714Y6735433D01*
X6700798D01*
X6697181Y6733935D01*
X6696120Y6732873D01*
X6692913Y6731710D01*
X6689707Y6732873D01*
X6688646Y6733935D01*
X6685029Y6735433D01*
X6681113D01*
X6677496Y6733935D01*
X6676585Y6733024D01*
X6673241Y6731778D01*
X6670104Y6733070D01*
X6669073Y6734102D01*
X6665383Y6735630D01*
X6661389D01*
X6657699Y6734102D01*
X6656810Y6733212D01*
X6655828Y6732799D01*
X6654728Y6732594D01*
X6651340Y6732804D01*
X6650312Y6733248D01*
X6650101Y6733389D01*
X6649388Y6734102D01*
X6648456Y6734488D01*
X6647618Y6735047D01*
X6646629Y6735244D01*
X6645698Y6735630D01*
X6644690D01*
X6643701Y6735827D01*
D02*
G37*
G36*
X4084646D02*
X4083657Y6735630D01*
X4082649D01*
X4081717Y6735244D01*
X4080729Y6735047D01*
X4079890Y6734488D01*
X4078959Y6734102D01*
X4078246Y6733389D01*
X4077868Y6733136D01*
X4077074Y6732793D01*
X4073176Y6732380D01*
X4071446Y6733024D01*
X4070536Y6733935D01*
X4066919Y6735433D01*
X4063003D01*
X4059385Y6733935D01*
X4058324Y6732873D01*
X4055118Y6731710D01*
X4051912Y6732873D01*
X4050851Y6733935D01*
X4047233Y6735433D01*
X4043318D01*
X4039700Y6733935D01*
X4036932Y6731166D01*
X4035433Y6727548D01*
Y6723633D01*
X4036932Y6720015D01*
X4039700Y6717247D01*
X4043318Y6715748D01*
X4047233D01*
X4050851Y6717247D01*
X4051912Y6718308D01*
X4055118Y6719471D01*
X4058324Y6718308D01*
X4059385Y6717247D01*
X4063003Y6715748D01*
X4066919D01*
X4069410Y6716780D01*
X4073018Y6715197D01*
X4074410Y6714049D01*
Y6619117D01*
X4069410Y6618458D01*
X4068866Y6620485D01*
X4064699Y6627703D01*
X4058806Y6633597D01*
X4051588Y6637764D01*
X4044370Y6639698D01*
Y6608268D01*
Y6576837D01*
X4051588Y6578771D01*
X4058806Y6582939D01*
X4064699Y6588832D01*
X4068866Y6596050D01*
X4069410Y6598077D01*
X4074410Y6597419D01*
Y4990460D01*
X3481935Y4397986D01*
X3479716Y4394665D01*
X3478937Y4390748D01*
Y3460138D01*
X3479716Y3456221D01*
X3481935Y3452900D01*
X3488780Y3446055D01*
Y3432801D01*
X3487388Y3431653D01*
X3483780Y3430070D01*
X3481289Y3431102D01*
X3477373D01*
X3473755Y3429604D01*
X3472694Y3428543D01*
X3469488Y3427379D01*
X3466282Y3428543D01*
X3465221Y3429604D01*
X3461603Y3431102D01*
X3457688D01*
X3454070Y3429604D01*
X3451302Y3426835D01*
X3449803Y3423218D01*
Y3419302D01*
X3451302Y3415684D01*
X3454070Y3412916D01*
X3457688Y3411417D01*
X3461603D01*
X3465221Y3412916D01*
X3466282Y3413977D01*
X3469488Y3415140D01*
X3472694Y3413977D01*
X3473755Y3412916D01*
X3477373Y3411417D01*
X3481289D01*
X3484906Y3412916D01*
X3485816Y3413826D01*
X3487546Y3414470D01*
X3491444Y3414057D01*
X3492238Y3413715D01*
X3492616Y3413462D01*
X3493329Y3412749D01*
X3494260Y3412363D01*
X3495099Y3411803D01*
X3496087Y3411606D01*
X3497019Y3411220D01*
X3498027D01*
X3499016Y3411024D01*
X3500005Y3411220D01*
X3501013D01*
X3501944Y3411606D01*
X3502933Y3411803D01*
X3503771Y3412363D01*
X3504703Y3412749D01*
X3505416Y3413462D01*
X3506254Y3414022D01*
X3506814Y3414860D01*
X3507527Y3415573D01*
X3507913Y3416504D01*
X3508473Y3417343D01*
X3508669Y3418331D01*
X3509055Y3419263D01*
Y3420271D01*
X3509252Y3421260D01*
Y3450295D01*
X3508473Y3454213D01*
X3506254Y3457533D01*
X3499979Y3463808D01*
X3500092Y3469095D01*
X3500667Y3469601D01*
X3504410Y3471291D01*
X3506861Y3470276D01*
X3510855D01*
X3514545Y3471804D01*
X3517369Y3474628D01*
X3518898Y3478318D01*
Y3482312D01*
X3517369Y3486002D01*
X3516084Y3487287D01*
Y4319842D01*
X4109440Y4913198D01*
X4111006Y4915542D01*
X4111556Y4918307D01*
Y6652244D01*
X4112393Y6652735D01*
X4116556Y6653777D01*
X4118440Y6651892D01*
X4121528Y6650613D01*
Y6645021D01*
X4122025Y6642525D01*
X4123439Y6640408D01*
X4133125Y6630722D01*
X4135241Y6629308D01*
X4137738Y6628812D01*
X4154015D01*
X4156511Y6629308D01*
X4158628Y6630722D01*
X4173215Y6645309D01*
X4174629Y6647426D01*
X4175125Y6649922D01*
Y6674697D01*
X4174629Y6677193D01*
X4173215Y6679309D01*
X4146188Y6706336D01*
Y6715967D01*
X4149276Y6717247D01*
X4152045Y6720015D01*
X4153543Y6723633D01*
Y6727548D01*
X4152045Y6731166D01*
X4149276Y6733935D01*
X4145659Y6735433D01*
X4141743D01*
X4138126Y6733935D01*
X4137065Y6732873D01*
X4133858Y6731710D01*
X4130652Y6732873D01*
X4129591Y6733935D01*
X4125974Y6735433D01*
X4122058D01*
X4118440Y6733935D01*
X4117530Y6733024D01*
X4114186Y6731778D01*
X4111049Y6733070D01*
X4110018Y6734102D01*
X4106328Y6735630D01*
X4102334D01*
X4098644Y6734102D01*
X4097755Y6733212D01*
X4096206Y6732561D01*
X4092285Y6732804D01*
X4091257Y6733248D01*
X4091046Y6733389D01*
X4090333Y6734102D01*
X4089401Y6734488D01*
X4088563Y6735047D01*
X4087574Y6735244D01*
X4086643Y6735630D01*
X4085635D01*
X4084646Y6735827D01*
D02*
G37*
G36*
X1525591D02*
X1524602Y6735630D01*
X1523593D01*
X1522662Y6735244D01*
X1521673Y6735047D01*
X1520835Y6734488D01*
X1519904Y6734102D01*
X1519191Y6733389D01*
X1518812Y6733136D01*
X1518019Y6732793D01*
X1514120Y6732380D01*
X1512391Y6733024D01*
X1511481Y6733935D01*
X1507863Y6735433D01*
X1503948D01*
X1500330Y6733935D01*
X1499269Y6732873D01*
X1496063Y6731710D01*
X1492857Y6732873D01*
X1491796Y6733935D01*
X1488178Y6735433D01*
X1484263D01*
X1480645Y6733935D01*
X1477876Y6731166D01*
X1476378Y6727548D01*
Y6723633D01*
X1477876Y6720015D01*
X1480645Y6717247D01*
X1484263Y6715748D01*
X1488178D01*
X1491796Y6717247D01*
X1492857Y6718308D01*
X1496063Y6719471D01*
X1499269Y6718308D01*
X1500330Y6717247D01*
X1503948Y6715748D01*
X1507863D01*
X1510354Y6716780D01*
X1513963Y6715197D01*
X1515354Y6714049D01*
Y6619117D01*
X1510354Y6618458D01*
X1509811Y6620485D01*
X1505644Y6627703D01*
X1499751Y6633597D01*
X1492533Y6637764D01*
X1485315Y6639698D01*
Y6608268D01*
Y6576837D01*
X1492533Y6578771D01*
X1499751Y6582939D01*
X1505644Y6588832D01*
X1509811Y6596050D01*
X1510354Y6598077D01*
X1515354Y6597419D01*
Y5513779D01*
X1516134Y5509862D01*
X1518352Y5506542D01*
X2494685Y4530209D01*
Y3460138D01*
X2495464Y3456221D01*
X2497683Y3452900D01*
X2504528Y3446055D01*
Y3432801D01*
X2503136Y3431653D01*
X2499528Y3430070D01*
X2497037Y3431102D01*
X2493121D01*
X2489503Y3429604D01*
X2488442Y3428543D01*
X2485236Y3427379D01*
X2482030Y3428543D01*
X2480969Y3429604D01*
X2477351Y3431102D01*
X2473436D01*
X2469818Y3429604D01*
X2467050Y3426835D01*
X2465551Y3423218D01*
Y3419302D01*
X2467050Y3415684D01*
X2469818Y3412916D01*
X2473436Y3411417D01*
X2477351D01*
X2480969Y3412916D01*
X2482030Y3413977D01*
X2485236Y3415140D01*
X2488442Y3413977D01*
X2489503Y3412916D01*
X2493121Y3411417D01*
X2497037D01*
X2500654Y3412916D01*
X2501564Y3413826D01*
X2502660Y3414234D01*
X2503867Y3414410D01*
X2507192Y3414057D01*
X2507986Y3413715D01*
X2508364Y3413462D01*
X2509077Y3412749D01*
X2510008Y3412363D01*
X2510847Y3411803D01*
X2511835Y3411606D01*
X2512767Y3411220D01*
X2513775D01*
X2514764Y3411024D01*
X2515753Y3411220D01*
X2516761D01*
X2517692Y3411606D01*
X2518681Y3411803D01*
X2519519Y3412363D01*
X2520451Y3412749D01*
X2521164Y3413462D01*
X2522002Y3414022D01*
X2522562Y3414860D01*
X2523275Y3415573D01*
X2523661Y3416504D01*
X2524221Y3417343D01*
X2524417Y3418331D01*
X2524803Y3419263D01*
Y3420271D01*
X2525000Y3421260D01*
Y3450295D01*
X2524221Y3454213D01*
X2522002Y3457533D01*
X2515727Y3463808D01*
X2515840Y3469095D01*
X2516415Y3469601D01*
X2520157Y3471291D01*
X2522609Y3470276D01*
X2526603D01*
X2530293Y3471804D01*
X2533117Y3474628D01*
X2534646Y3478318D01*
Y3482312D01*
X2533117Y3486002D01*
X2531832Y3487287D01*
Y4728346D01*
X2531282Y4731111D01*
X2529715Y4733456D01*
X1552501Y5710670D01*
Y6652244D01*
X1553338Y6652735D01*
X1557501Y6653777D01*
X1559385Y6651892D01*
X1562473Y6650613D01*
Y6645021D01*
X1562970Y6642525D01*
X1564384Y6640408D01*
X1574070Y6630722D01*
X1576186Y6629308D01*
X1578682Y6628812D01*
X1594960D01*
X1597456Y6629308D01*
X1599572Y6630722D01*
X1614160Y6645309D01*
X1615574Y6647426D01*
X1616070Y6649922D01*
Y6674697D01*
X1615574Y6677193D01*
X1614160Y6679309D01*
X1587133Y6706336D01*
Y6715967D01*
X1590221Y6717247D01*
X1592990Y6720015D01*
X1594488Y6723633D01*
Y6727548D01*
X1592990Y6731166D01*
X1590221Y6733935D01*
X1586603Y6735433D01*
X1582688D01*
X1579070Y6733935D01*
X1578009Y6732873D01*
X1574803Y6731710D01*
X1571597Y6732873D01*
X1570536Y6733935D01*
X1566918Y6735433D01*
X1563003D01*
X1559385Y6733935D01*
X1558475Y6733024D01*
X1555130Y6731778D01*
X1551994Y6733070D01*
X1550962Y6734102D01*
X1547273Y6735630D01*
X1543278D01*
X1539589Y6734102D01*
X1538699Y6733212D01*
X1537151Y6732561D01*
X1533229Y6732804D01*
X1532202Y6733248D01*
X1531990Y6733389D01*
X1531277Y6734102D01*
X1530346Y6734488D01*
X1529508Y6735047D01*
X1528519Y6735244D01*
X1527588Y6735630D01*
X1526579D01*
X1525591Y6735827D01*
D02*
G37*
G36*
X6744123Y6735630D02*
X6740129D01*
X6736439Y6734102D01*
X6733615Y6731278D01*
X6732087Y6727588D01*
Y6723594D01*
X6733615Y6719904D01*
X6736439Y6717080D01*
X6740129Y6715551D01*
X6744123D01*
X6747813Y6717080D01*
X6748844Y6718111D01*
X6751981Y6719403D01*
X6755325Y6718157D01*
X6756236Y6717247D01*
X6759853Y6715748D01*
X6763769D01*
X6767386Y6717247D01*
X6768447Y6718308D01*
X6771654Y6719471D01*
X6774860Y6718308D01*
X6775921Y6717247D01*
X6779538Y6715748D01*
X6783454D01*
X6787071Y6717247D01*
X6789840Y6720015D01*
X6791339Y6723633D01*
Y6727548D01*
X6789840Y6731166D01*
X6787071Y6733935D01*
X6783454Y6735433D01*
X6779538D01*
X6775921Y6733935D01*
X6774860Y6732873D01*
X6771654Y6731710D01*
X6768447Y6732873D01*
X6767386Y6733935D01*
X6763769Y6735433D01*
X6759853D01*
X6756236Y6733935D01*
X6755325Y6733024D01*
X6751981Y6731778D01*
X6748844Y6733071D01*
X6747813Y6734102D01*
X6744123Y6735630D01*
D02*
G37*
G36*
X4185068D02*
X4181074D01*
X4177384Y6734102D01*
X4174560Y6731278D01*
X4173032Y6727588D01*
Y6723594D01*
X4174560Y6719904D01*
X4177384Y6717080D01*
X4181074Y6715551D01*
X4185068D01*
X4188758Y6717080D01*
X4189789Y6718111D01*
X4192926Y6719403D01*
X4196270Y6718157D01*
X4197181Y6717247D01*
X4200798Y6715748D01*
X4204714D01*
X4208331Y6717247D01*
X4209392Y6718308D01*
X4212599Y6719471D01*
X4215805Y6718308D01*
X4216866Y6717247D01*
X4220483Y6715748D01*
X4224399D01*
X4228016Y6717247D01*
X4230785Y6720015D01*
X4232283Y6723633D01*
Y6727548D01*
X4230785Y6731166D01*
X4228016Y6733935D01*
X4224399Y6735433D01*
X4220483D01*
X4216866Y6733935D01*
X4215805Y6732873D01*
X4212598Y6731710D01*
X4209392Y6732873D01*
X4208331Y6733935D01*
X4204714Y6735433D01*
X4200798D01*
X4197181Y6733935D01*
X4196270Y6733024D01*
X4192926Y6731778D01*
X4189789Y6733071D01*
X4188758Y6734102D01*
X4185068Y6735630D01*
D02*
G37*
G36*
X1626013D02*
X1622019D01*
X1618329Y6734102D01*
X1615505Y6731278D01*
X1613976Y6727588D01*
Y6723594D01*
X1615505Y6719904D01*
X1618329Y6717080D01*
X1622019Y6715551D01*
X1626013D01*
X1629703Y6717080D01*
X1630734Y6718111D01*
X1633870Y6719403D01*
X1637215Y6718157D01*
X1638125Y6717247D01*
X1641743Y6715748D01*
X1645659D01*
X1649276Y6717247D01*
X1650337Y6718308D01*
X1653543Y6719471D01*
X1656749Y6718308D01*
X1657811Y6717247D01*
X1661428Y6715748D01*
X1665344D01*
X1668961Y6717247D01*
X1671730Y6720015D01*
X1673228Y6723633D01*
Y6727548D01*
X1671730Y6731166D01*
X1668961Y6733935D01*
X1665344Y6735433D01*
X1661428D01*
X1657811Y6733935D01*
X1656749Y6732873D01*
X1653543Y6731710D01*
X1650337Y6732873D01*
X1649276Y6733935D01*
X1645659Y6735433D01*
X1641743D01*
X1638125Y6733935D01*
X1637215Y6733024D01*
X1633870Y6731778D01*
X1630734Y6733071D01*
X1629703Y6734102D01*
X1626013Y6735630D01*
D02*
G37*
G36*
X6553543Y6708769D02*
X6537008D01*
X6530940Y6707562D01*
X6525796Y6704125D01*
X6522359Y6698981D01*
X6521152Y6692913D01*
X6522359Y6686846D01*
X6525796Y6681702D01*
X6530940Y6678265D01*
X6537008Y6677057D01*
X6553543D01*
X6559611Y6678265D01*
X6564755Y6681702D01*
X6568192Y6686846D01*
X6569399Y6692913D01*
X6568192Y6698981D01*
X6564755Y6704125D01*
X6559611Y6707562D01*
X6553543Y6708769D01*
D02*
G37*
G36*
X3994488D02*
X3977953D01*
X3971885Y6707562D01*
X3966741Y6704125D01*
X3963304Y6698981D01*
X3962097Y6692913D01*
X3963304Y6686846D01*
X3966741Y6681702D01*
X3971885Y6678265D01*
X3977953Y6677057D01*
X3994488D01*
X4000556Y6678265D01*
X4005700Y6681702D01*
X4009137Y6686846D01*
X4010344Y6692913D01*
X4009137Y6698981D01*
X4005700Y6704125D01*
X4000556Y6707562D01*
X3994488Y6708769D01*
D02*
G37*
G36*
X1435433D02*
X1418898D01*
X1412830Y6707562D01*
X1407686Y6704125D01*
X1404249Y6698981D01*
X1403042Y6692913D01*
X1404249Y6686846D01*
X1407686Y6681702D01*
X1412830Y6678265D01*
X1418898Y6677057D01*
X1435433D01*
X1441501Y6678265D01*
X1446645Y6681702D01*
X1450082Y6686846D01*
X1451289Y6692913D01*
X1450082Y6698981D01*
X1446645Y6704125D01*
X1441501Y6707562D01*
X1435433Y6708769D01*
D02*
G37*
G36*
X6843958Y6710039D02*
X6837145D01*
X6830850Y6707432D01*
X6826033Y6702614D01*
X6823425Y6696320D01*
Y6689507D01*
X6826033Y6683212D01*
X6830850Y6678395D01*
X6837145Y6675787D01*
X6843958D01*
X6850252Y6678395D01*
X6855070Y6683212D01*
X6857677Y6689507D01*
Y6696320D01*
X6855070Y6702614D01*
X6850252Y6707432D01*
X6843958Y6710039D01*
D02*
G37*
G36*
X4284903D02*
X4278090D01*
X4271795Y6707432D01*
X4266977Y6702614D01*
X4264370Y6696320D01*
Y6689507D01*
X4266977Y6683212D01*
X4271795Y6678395D01*
X4278090Y6675787D01*
X4284903D01*
X4291197Y6678395D01*
X4296015Y6683212D01*
X4298622Y6689507D01*
Y6696320D01*
X4296015Y6702614D01*
X4291197Y6707432D01*
X4284903Y6710039D01*
D02*
G37*
G36*
X1725848D02*
X1719034D01*
X1712740Y6707432D01*
X1707922Y6702614D01*
X1705315Y6696320D01*
Y6689507D01*
X1707922Y6683212D01*
X1712740Y6678395D01*
X1719034Y6675787D01*
X1725848D01*
X1732142Y6678395D01*
X1736960Y6683212D01*
X1739567Y6689507D01*
Y6696320D01*
X1736960Y6702614D01*
X1732142Y6707432D01*
X1725848Y6710039D01*
D02*
G37*
G36*
X6792402Y6639698D02*
Y6613268D01*
X6818832D01*
X6816898Y6620485D01*
X6812731Y6627703D01*
X6806837Y6633597D01*
X6799619Y6637764D01*
X6792402Y6639698D01*
D02*
G37*
G36*
X6782402D02*
X6775184Y6637764D01*
X6767966Y6633597D01*
X6762073Y6627703D01*
X6757905Y6620485D01*
X6755971Y6613268D01*
X6782402D01*
Y6639698D01*
D02*
G37*
G36*
X6593425D02*
X6586207Y6637764D01*
X6578989Y6633597D01*
X6573096Y6627703D01*
X6568929Y6620485D01*
X6566995Y6613268D01*
X6593425D01*
Y6639698D01*
D02*
G37*
G36*
X4233346D02*
Y6613268D01*
X4259777D01*
X4257843Y6620485D01*
X4253676Y6627703D01*
X4247782Y6633597D01*
X4240564Y6637764D01*
X4233346Y6639698D01*
D02*
G37*
G36*
X4223346D02*
X4216129Y6637764D01*
X4208911Y6633597D01*
X4203017Y6627703D01*
X4198850Y6620485D01*
X4196916Y6613268D01*
X4223346D01*
Y6639698D01*
D02*
G37*
G36*
X4034370D02*
X4027152Y6637764D01*
X4019934Y6633597D01*
X4014041Y6627703D01*
X4009874Y6620485D01*
X4007940Y6613268D01*
X4034370D01*
Y6639698D01*
D02*
G37*
G36*
X1674291D02*
Y6613268D01*
X1700722D01*
X1698788Y6620485D01*
X1694620Y6627703D01*
X1688727Y6633597D01*
X1681509Y6637764D01*
X1674291Y6639698D01*
D02*
G37*
G36*
X1664291D02*
X1657073Y6637764D01*
X1649856Y6633597D01*
X1643962Y6627703D01*
X1639795Y6620485D01*
X1637861Y6613268D01*
X1664291D01*
Y6639698D01*
D02*
G37*
G36*
X1475315D02*
X1468097Y6637764D01*
X1460879Y6633597D01*
X1454986Y6627703D01*
X1450819Y6620485D01*
X1448884Y6613268D01*
X1475315D01*
Y6639698D01*
D02*
G37*
G36*
X6818832Y6603268D02*
X6792402D01*
Y6576837D01*
X6799619Y6578771D01*
X6806837Y6582939D01*
X6812731Y6588832D01*
X6816898Y6596050D01*
X6818832Y6603268D01*
D02*
G37*
G36*
X6782402D02*
X6755971D01*
X6757905Y6596050D01*
X6762073Y6588832D01*
X6767966Y6582939D01*
X6775184Y6578771D01*
X6782402Y6576837D01*
Y6603268D01*
D02*
G37*
G36*
X6593425D02*
X6566995D01*
X6568929Y6596050D01*
X6573096Y6588832D01*
X6578989Y6582939D01*
X6586207Y6578771D01*
X6593425Y6576837D01*
Y6603268D01*
D02*
G37*
G36*
X4259777D02*
X4233346D01*
Y6576837D01*
X4240564Y6578771D01*
X4247782Y6582939D01*
X4253676Y6588832D01*
X4257843Y6596050D01*
X4259777Y6603268D01*
D02*
G37*
G36*
X4223346D02*
X4196916D01*
X4198850Y6596050D01*
X4203017Y6588832D01*
X4208911Y6582939D01*
X4216129Y6578771D01*
X4223346Y6576837D01*
Y6603268D01*
D02*
G37*
G36*
X4034370D02*
X4007940D01*
X4009874Y6596050D01*
X4014041Y6588832D01*
X4019934Y6582939D01*
X4027152Y6578771D01*
X4034370Y6576837D01*
Y6603268D01*
D02*
G37*
G36*
X1700722D02*
X1674291D01*
Y6576837D01*
X1681509Y6578771D01*
X1688727Y6582939D01*
X1694620Y6588832D01*
X1698788Y6596050D01*
X1700722Y6603268D01*
D02*
G37*
G36*
X1664291D02*
X1637861D01*
X1639795Y6596050D01*
X1643962Y6588832D01*
X1649856Y6582939D01*
X1657073Y6578771D01*
X1664291Y6576837D01*
Y6603268D01*
D02*
G37*
G36*
X1475315D02*
X1448884D01*
X1450819Y6596050D01*
X1454986Y6588832D01*
X1460879Y6582939D01*
X1468097Y6578771D01*
X1475315Y6576837D01*
Y6603268D01*
D02*
G37*
G36*
X6792402Y4249934D02*
Y4223504D01*
X6818832D01*
X6816898Y4230722D01*
X6812731Y4237940D01*
X6806837Y4243833D01*
X6799619Y4248000D01*
X6792402Y4249934D01*
D02*
G37*
G36*
X6782402D02*
X6775184Y4248000D01*
X6767966Y4243833D01*
X6762073Y4237940D01*
X6757905Y4230722D01*
X6755971Y4223504D01*
X6782402D01*
Y4249934D01*
D02*
G37*
G36*
X6603425D02*
Y4223504D01*
X6629856D01*
X6627922Y4230722D01*
X6623754Y4237940D01*
X6617861Y4243833D01*
X6610643Y4248000D01*
X6603425Y4249934D01*
D02*
G37*
G36*
X6593425D02*
X6586207Y4248000D01*
X6578989Y4243833D01*
X6573096Y4237940D01*
X6568929Y4230722D01*
X6566995Y4223504D01*
X6593425D01*
Y4249934D01*
D02*
G37*
G36*
X4233346D02*
Y4223504D01*
X4259777D01*
X4257843Y4230722D01*
X4253676Y4237940D01*
X4247782Y4243833D01*
X4240564Y4248000D01*
X4233346Y4249934D01*
D02*
G37*
G36*
X4223346D02*
X4216129Y4248000D01*
X4208911Y4243833D01*
X4203017Y4237940D01*
X4198850Y4230722D01*
X4196916Y4223504D01*
X4223346D01*
Y4249934D01*
D02*
G37*
G36*
X4044370D02*
Y4223504D01*
X4070800D01*
X4068866Y4230722D01*
X4064699Y4237940D01*
X4058806Y4243833D01*
X4051588Y4248000D01*
X4044370Y4249934D01*
D02*
G37*
G36*
X4034370D02*
X4027152Y4248000D01*
X4019934Y4243833D01*
X4014041Y4237940D01*
X4009874Y4230722D01*
X4007940Y4223504D01*
X4034370D01*
Y4249934D01*
D02*
G37*
G36*
X1674291D02*
Y4223504D01*
X1700722D01*
X1698788Y4230722D01*
X1694620Y4237940D01*
X1688727Y4243833D01*
X1681509Y4248000D01*
X1674291Y4249934D01*
D02*
G37*
G36*
X1664291D02*
X1657073Y4248000D01*
X1649856Y4243833D01*
X1643962Y4237940D01*
X1639795Y4230722D01*
X1637861Y4223504D01*
X1664291D01*
Y4249934D01*
D02*
G37*
G36*
X1485315D02*
Y4223504D01*
X1511745D01*
X1509811Y4230722D01*
X1505644Y4237940D01*
X1499751Y4243833D01*
X1492533Y4248000D01*
X1485315Y4249934D01*
D02*
G37*
G36*
X1475315D02*
X1468097Y4248000D01*
X1460879Y4243833D01*
X1454986Y4237940D01*
X1450819Y4230722D01*
X1448884Y4223504D01*
X1475315D01*
Y4249934D01*
D02*
G37*
G36*
X6818832Y4213504D02*
X6792402D01*
Y4187074D01*
X6799619Y4189008D01*
X6806837Y4193175D01*
X6812731Y4199068D01*
X6816898Y4206286D01*
X6818832Y4213504D01*
D02*
G37*
G36*
X6782402D02*
X6755971D01*
X6757905Y4206286D01*
X6762073Y4199068D01*
X6767966Y4193175D01*
X6775184Y4189008D01*
X6782402Y4187074D01*
Y4213504D01*
D02*
G37*
G36*
X6629856D02*
X6603425D01*
Y4187074D01*
X6610643Y4189008D01*
X6617861Y4193175D01*
X6623754Y4199068D01*
X6627922Y4206286D01*
X6629856Y4213504D01*
D02*
G37*
G36*
X6593425D02*
X6566995D01*
X6568929Y4206286D01*
X6573096Y4199068D01*
X6578989Y4193175D01*
X6586207Y4189008D01*
X6593425Y4187074D01*
Y4213504D01*
D02*
G37*
G36*
X4259777D02*
X4233346D01*
Y4187074D01*
X4240564Y4189008D01*
X4247782Y4193175D01*
X4253676Y4199068D01*
X4257843Y4206286D01*
X4259777Y4213504D01*
D02*
G37*
G36*
X4223346D02*
X4196916D01*
X4198850Y4206286D01*
X4203017Y4199068D01*
X4208911Y4193175D01*
X4216129Y4189008D01*
X4223346Y4187074D01*
Y4213504D01*
D02*
G37*
G36*
X4070800D02*
X4044370D01*
Y4187074D01*
X4051588Y4189008D01*
X4058806Y4193175D01*
X4064699Y4199068D01*
X4068866Y4206286D01*
X4070800Y4213504D01*
D02*
G37*
G36*
X4034370D02*
X4007940D01*
X4009874Y4206286D01*
X4014041Y4199068D01*
X4019934Y4193175D01*
X4027152Y4189008D01*
X4034370Y4187074D01*
Y4213504D01*
D02*
G37*
G36*
X1700722D02*
X1674291D01*
Y4187074D01*
X1681509Y4189008D01*
X1688727Y4193175D01*
X1694620Y4199068D01*
X1698788Y4206286D01*
X1700722Y4213504D01*
D02*
G37*
G36*
X1664291D02*
X1637861D01*
X1639795Y4206286D01*
X1643962Y4199068D01*
X1649856Y4193175D01*
X1657073Y4189008D01*
X1664291Y4187074D01*
Y4213504D01*
D02*
G37*
G36*
X1511745D02*
X1485315D01*
Y4187074D01*
X1492533Y4189008D01*
X1499751Y4193175D01*
X1505644Y4199068D01*
X1509811Y4206286D01*
X1511745Y4213504D01*
D02*
G37*
G36*
X1475315D02*
X1448884D01*
X1450819Y4206286D01*
X1454986Y4199068D01*
X1460879Y4193175D01*
X1468097Y4189008D01*
X1475315Y4187074D01*
Y4213504D01*
D02*
G37*
G36*
X6643701Y4176772D02*
X6642712Y4176575D01*
X6641704D01*
X6640772Y4176189D01*
X6639784Y4175992D01*
X6638945Y4175432D01*
X6638014Y4175047D01*
X6637301Y4174333D01*
X6636923Y4174081D01*
X6636129Y4173738D01*
X6632231Y4173325D01*
X6630501Y4173969D01*
X6629591Y4174880D01*
X6625974Y4176378D01*
X6622058D01*
X6618440Y4174880D01*
X6617379Y4173818D01*
X6614173Y4172655D01*
X6610967Y4173818D01*
X6609906Y4174880D01*
X6606288Y4176378D01*
X6602373D01*
X6598755Y4174880D01*
X6595987Y4172111D01*
X6594488Y4168493D01*
Y4164578D01*
X6595987Y4160960D01*
X6598755Y4158191D01*
X6602373Y4156693D01*
X6606288D01*
X6609906Y4158191D01*
X6610967Y4159253D01*
X6614173Y4160416D01*
X6617379Y4159253D01*
X6618440Y4158191D01*
X6622058Y4156693D01*
X6625974D01*
X6628465Y4157725D01*
X6632074Y4156142D01*
X6633465Y4154994D01*
Y4060062D01*
X6628465Y4059403D01*
X6627922Y4061430D01*
X6623754Y4068648D01*
X6617861Y4074542D01*
X6610643Y4078709D01*
X6603425Y4080643D01*
Y4049213D01*
Y4017782D01*
X6610643Y4019716D01*
X6617861Y4023883D01*
X6623754Y4029777D01*
X6627922Y4036995D01*
X6628465Y4039022D01*
X6633465Y4038364D01*
Y3961917D01*
X6631542Y3959994D01*
X6629323Y3956673D01*
X6628543Y3952756D01*
Y3459646D01*
X6629323Y3455729D01*
X6631542Y3452408D01*
X6638386Y3445563D01*
Y3432801D01*
X6636995Y3431653D01*
X6633386Y3430070D01*
X6630895Y3431102D01*
X6626979D01*
X6623362Y3429604D01*
X6622301Y3428543D01*
X6619094Y3427379D01*
X6615888Y3428543D01*
X6614827Y3429604D01*
X6611210Y3431102D01*
X6607294D01*
X6603677Y3429604D01*
X6600908Y3426835D01*
X6599409Y3423218D01*
Y3419302D01*
X6600908Y3415684D01*
X6603677Y3412916D01*
X6607294Y3411417D01*
X6611210D01*
X6614827Y3412916D01*
X6615888Y3413977D01*
X6619095Y3415140D01*
X6622301Y3413977D01*
X6623362Y3412916D01*
X6626979Y3411417D01*
X6630895D01*
X6634512Y3412916D01*
X6635423Y3413826D01*
X6637152Y3414470D01*
X6641050Y3414057D01*
X6641844Y3413715D01*
X6642222Y3413462D01*
X6642935Y3412749D01*
X6643867Y3412363D01*
X6644705Y3411803D01*
X6645694Y3411606D01*
X6646625Y3411220D01*
X6647633D01*
X6648622Y3411024D01*
X6649611Y3411220D01*
X6650619D01*
X6651551Y3411606D01*
X6652539Y3411803D01*
X6653377Y3412363D01*
X6654309Y3412749D01*
X6655022Y3413462D01*
X6655860Y3414022D01*
X6656420Y3414860D01*
X6657133Y3415573D01*
X6657519Y3416504D01*
X6658079Y3417343D01*
X6658276Y3418331D01*
X6658661Y3419263D01*
Y3420271D01*
X6658858Y3421260D01*
Y3449803D01*
X6658079Y3453720D01*
X6655860Y3457041D01*
X6649016Y3463886D01*
Y3469164D01*
X6650931Y3470468D01*
X6654016Y3471699D01*
X6656914Y3470499D01*
X6660908D01*
X6664598Y3472027D01*
X6667422Y3474852D01*
X6668950Y3478541D01*
Y3482535D01*
X6667422Y3486225D01*
X6666136Y3487511D01*
Y3934461D01*
X6668495Y3936820D01*
X6670061Y3939164D01*
X6670611Y3941929D01*
Y4093189D01*
X6671448Y4093680D01*
X6675611Y4094722D01*
X6677496Y4092837D01*
X6680583Y4091558D01*
Y4085966D01*
X6681080Y4083470D01*
X6682494Y4081353D01*
X6692180Y4071667D01*
X6694296Y4070253D01*
X6696793Y4069756D01*
X6713070D01*
X6715567Y4070253D01*
X6717683Y4071667D01*
X6732270Y4086254D01*
X6733684Y4088370D01*
X6734181Y4090867D01*
Y4115642D01*
X6733684Y4118138D01*
X6732270Y4120254D01*
X6705243Y4147280D01*
Y4156912D01*
X6708331Y4158191D01*
X6711100Y4160960D01*
X6712599Y4164578D01*
Y4168493D01*
X6711100Y4172111D01*
X6708331Y4174880D01*
X6704714Y4176378D01*
X6700798D01*
X6697181Y4174880D01*
X6696120Y4173818D01*
X6692913Y4172655D01*
X6689707Y4173818D01*
X6688646Y4174880D01*
X6685029Y4176378D01*
X6681113D01*
X6677496Y4174880D01*
X6676585Y4173969D01*
X6673241Y4172723D01*
X6670104Y4174015D01*
X6669073Y4175047D01*
X6665383Y4176575D01*
X6661389D01*
X6657699Y4175047D01*
X6656810Y4174157D01*
X6655261Y4173506D01*
X6651340Y4173749D01*
X6650312Y4174192D01*
X6650101Y4174333D01*
X6649388Y4175047D01*
X6648456Y4175432D01*
X6647618Y4175992D01*
X6646629Y4176189D01*
X6645698Y4176575D01*
X6644690D01*
X6643701Y4176772D01*
D02*
G37*
G36*
X4084646D02*
X4083657Y4176575D01*
X4082649D01*
X4081717Y4176189D01*
X4080729Y4175992D01*
X4079890Y4175432D01*
X4078959Y4175047D01*
X4078246Y4174333D01*
X4077868Y4174081D01*
X4077074Y4173738D01*
X4073176Y4173325D01*
X4071446Y4173969D01*
X4070536Y4174880D01*
X4066919Y4176378D01*
X4063003D01*
X4059385Y4174880D01*
X4058324Y4173818D01*
X4055118Y4172655D01*
X4051912Y4173818D01*
X4050851Y4174880D01*
X4047233Y4176378D01*
X4043318D01*
X4039700Y4174880D01*
X4036932Y4172111D01*
X4035433Y4168493D01*
Y4164578D01*
X4036932Y4160960D01*
X4039700Y4158191D01*
X4043318Y4156693D01*
X4047233D01*
X4050851Y4158191D01*
X4051912Y4159253D01*
X4055118Y4160416D01*
X4058324Y4159253D01*
X4059385Y4158191D01*
X4063003Y4156693D01*
X4066919D01*
X4069410Y4157725D01*
X4073018Y4156142D01*
X4074410Y4154994D01*
Y4060062D01*
X4069410Y4059403D01*
X4068866Y4061430D01*
X4064699Y4068648D01*
X4058806Y4074542D01*
X4051588Y4078709D01*
X4044370Y4080643D01*
Y4049213D01*
Y4017782D01*
X4051588Y4019716D01*
X4058806Y4023883D01*
X4064699Y4029777D01*
X4068866Y4036995D01*
X4069410Y4039022D01*
X4074410Y4038364D01*
Y3674213D01*
X4075189Y3670295D01*
X4077408Y3666975D01*
X4102998Y3641384D01*
X4106319Y3639165D01*
X4110236Y3638386D01*
X4562689D01*
X4660039Y3541036D01*
Y3460138D01*
X4660819Y3456221D01*
X4663038Y3452900D01*
X4669882Y3446055D01*
Y3432801D01*
X4668491Y3431653D01*
X4664882Y3430070D01*
X4662391Y3431102D01*
X4658475D01*
X4654858Y3429604D01*
X4653797Y3428543D01*
X4650590Y3427379D01*
X4647384Y3428543D01*
X4646323Y3429604D01*
X4642706Y3431102D01*
X4638790D01*
X4635173Y3429604D01*
X4632404Y3426835D01*
X4630905Y3423218D01*
Y3419302D01*
X4632404Y3415684D01*
X4635173Y3412916D01*
X4638790Y3411417D01*
X4642706D01*
X4646323Y3412916D01*
X4647384Y3413977D01*
X4650591Y3415140D01*
X4653797Y3413977D01*
X4654858Y3412916D01*
X4658475Y3411417D01*
X4662391D01*
X4666008Y3412916D01*
X4666919Y3413826D01*
X4668648Y3414470D01*
X4672546Y3414057D01*
X4673340Y3413715D01*
X4673718Y3413462D01*
X4674431Y3412749D01*
X4675363Y3412363D01*
X4676201Y3411803D01*
X4677190Y3411606D01*
X4678121Y3411220D01*
X4679129D01*
X4680118Y3411024D01*
X4681107Y3411220D01*
X4682115D01*
X4683047Y3411606D01*
X4684035Y3411803D01*
X4684873Y3412363D01*
X4685805Y3412749D01*
X4686518Y3413462D01*
X4687356Y3414022D01*
X4687916Y3414860D01*
X4688629Y3415573D01*
X4689015Y3416504D01*
X4689575Y3417343D01*
X4689772Y3418331D01*
X4690157Y3419263D01*
Y3420271D01*
X4690354Y3421260D01*
Y3450295D01*
X4689575Y3454213D01*
X4687356Y3457533D01*
X4681081Y3463808D01*
X4681194Y3469095D01*
X4681769Y3469601D01*
X4685512Y3471291D01*
X4687964Y3470276D01*
X4691958D01*
X4695648Y3471804D01*
X4698472Y3474628D01*
X4700000Y3478318D01*
Y3482312D01*
X4698472Y3486002D01*
X4697186Y3487287D01*
Y3594488D01*
X4696636Y3597253D01*
X4695070Y3599597D01*
X4582865Y3711802D01*
X4580521Y3713368D01*
X4577756Y3713918D01*
X4140788D01*
X4111556Y3743150D01*
Y4093189D01*
X4112393Y4093680D01*
X4116556Y4094722D01*
X4118440Y4092837D01*
X4121528Y4091558D01*
Y4085966D01*
X4122025Y4083470D01*
X4123439Y4081353D01*
X4133125Y4071667D01*
X4135241Y4070253D01*
X4137738Y4069756D01*
X4154015D01*
X4156511Y4070253D01*
X4158628Y4071667D01*
X4173215Y4086254D01*
X4174629Y4088370D01*
X4175125Y4090867D01*
Y4115642D01*
X4174629Y4118138D01*
X4173215Y4120254D01*
X4146188Y4147280D01*
Y4156912D01*
X4149276Y4158191D01*
X4152045Y4160960D01*
X4153543Y4164578D01*
Y4168493D01*
X4152045Y4172111D01*
X4149276Y4174880D01*
X4145659Y4176378D01*
X4141743D01*
X4138126Y4174880D01*
X4137065Y4173818D01*
X4133858Y4172655D01*
X4130652Y4173818D01*
X4129591Y4174880D01*
X4125974Y4176378D01*
X4122058D01*
X4118440Y4174880D01*
X4117530Y4173969D01*
X4114186Y4172723D01*
X4111049Y4174015D01*
X4110018Y4175047D01*
X4106328Y4176575D01*
X4102334D01*
X4098644Y4175047D01*
X4097755Y4174157D01*
X4096206Y4173506D01*
X4092285Y4173749D01*
X4091257Y4174192D01*
X4091046Y4174333D01*
X4090333Y4175047D01*
X4089401Y4175432D01*
X4088563Y4175992D01*
X4087574Y4176189D01*
X4086643Y4176575D01*
X4085635D01*
X4084646Y4176772D01*
D02*
G37*
G36*
X1525591D02*
X1524602Y4176575D01*
X1523593D01*
X1522662Y4176189D01*
X1521673Y4175992D01*
X1520835Y4175432D01*
X1519904Y4175047D01*
X1519191Y4174333D01*
X1518812Y4174081D01*
X1518019Y4173738D01*
X1514120Y4173325D01*
X1512391Y4173969D01*
X1511481Y4174880D01*
X1507863Y4176378D01*
X1503948D01*
X1500330Y4174880D01*
X1499269Y4173818D01*
X1496063Y4172655D01*
X1492857Y4173818D01*
X1491796Y4174880D01*
X1488178Y4176378D01*
X1484263D01*
X1480645Y4174880D01*
X1477876Y4172111D01*
X1476378Y4168493D01*
Y4164578D01*
X1477876Y4160960D01*
X1480645Y4158191D01*
X1484263Y4156693D01*
X1488178D01*
X1491796Y4158191D01*
X1492857Y4159253D01*
X1496063Y4160416D01*
X1499269Y4159253D01*
X1500330Y4158191D01*
X1503948Y4156693D01*
X1507863D01*
X1510354Y4157725D01*
X1513963Y4156142D01*
X1515354Y4154994D01*
Y4060062D01*
X1510354Y4059403D01*
X1509811Y4061430D01*
X1505644Y4068648D01*
X1499751Y4074542D01*
X1492533Y4078709D01*
X1485315Y4080643D01*
Y4049213D01*
Y4017782D01*
X1492533Y4019716D01*
X1499751Y4023883D01*
X1505644Y4029777D01*
X1509811Y4036995D01*
X1510354Y4039022D01*
X1515354Y4038364D01*
Y3961917D01*
X1513431Y3959994D01*
X1511212Y3956673D01*
X1510433Y3952756D01*
Y3459646D01*
X1511212Y3455729D01*
X1513431Y3452408D01*
X1520276Y3445563D01*
Y3432801D01*
X1518884Y3431653D01*
X1515275Y3430070D01*
X1512784Y3431102D01*
X1508869D01*
X1505251Y3429604D01*
X1504190Y3428543D01*
X1500984Y3427379D01*
X1497778Y3428543D01*
X1496717Y3429604D01*
X1493099Y3431102D01*
X1489184D01*
X1485566Y3429604D01*
X1482798Y3426835D01*
X1481299Y3423218D01*
Y3419302D01*
X1482798Y3415684D01*
X1485566Y3412916D01*
X1489184Y3411417D01*
X1493099D01*
X1496717Y3412916D01*
X1497778Y3413977D01*
X1500984Y3415140D01*
X1504190Y3413977D01*
X1505251Y3412916D01*
X1508869Y3411417D01*
X1512784D01*
X1516402Y3412916D01*
X1517312Y3413826D01*
X1519042Y3414470D01*
X1522940Y3414057D01*
X1523734Y3413715D01*
X1524112Y3413462D01*
X1524825Y3412749D01*
X1525756Y3412363D01*
X1526594Y3411803D01*
X1527583Y3411606D01*
X1528515Y3411220D01*
X1529523D01*
X1530512Y3411024D01*
X1531501Y3411220D01*
X1532509D01*
X1533440Y3411606D01*
X1534429Y3411803D01*
X1535267Y3412363D01*
X1536199Y3412749D01*
X1536912Y3413462D01*
X1537750Y3414022D01*
X1538310Y3414860D01*
X1539023Y3415573D01*
X1539409Y3416504D01*
X1539969Y3417343D01*
X1540165Y3418331D01*
X1540551Y3419263D01*
Y3420271D01*
X1540748Y3421260D01*
Y3449803D01*
X1539969Y3453720D01*
X1537750Y3457041D01*
X1531108Y3463683D01*
X1531207Y3468760D01*
X1532163Y3469601D01*
X1535906Y3471291D01*
X1538357Y3470276D01*
X1542351D01*
X1546041Y3471804D01*
X1548865Y3474628D01*
X1550394Y3478318D01*
Y3482312D01*
X1548865Y3486002D01*
X1548026Y3486841D01*
Y3934461D01*
X1550385Y3936820D01*
X1551951Y3939164D01*
X1552501Y3941929D01*
Y4093189D01*
X1553338Y4093680D01*
X1557501Y4094722D01*
X1559385Y4092837D01*
X1562473Y4091558D01*
Y4085966D01*
X1562970Y4083470D01*
X1564384Y4081353D01*
X1574070Y4071667D01*
X1576186Y4070253D01*
X1578682Y4069756D01*
X1594960D01*
X1597456Y4070253D01*
X1599572Y4071667D01*
X1614160Y4086254D01*
X1615574Y4088370D01*
X1616070Y4090867D01*
Y4115642D01*
X1615574Y4118138D01*
X1614160Y4120254D01*
X1587133Y4147280D01*
Y4156912D01*
X1590221Y4158191D01*
X1592990Y4160960D01*
X1594488Y4164578D01*
Y4168493D01*
X1592990Y4172111D01*
X1590221Y4174880D01*
X1586603Y4176378D01*
X1582688D01*
X1579070Y4174880D01*
X1578009Y4173818D01*
X1574803Y4172655D01*
X1571597Y4173818D01*
X1570536Y4174880D01*
X1566918Y4176378D01*
X1563003D01*
X1559385Y4174880D01*
X1558475Y4173969D01*
X1555130Y4172723D01*
X1551994Y4174015D01*
X1550962Y4175047D01*
X1547273Y4176575D01*
X1543278D01*
X1539589Y4175047D01*
X1538699Y4174157D01*
X1537151Y4173506D01*
X1533229Y4173749D01*
X1532202Y4174192D01*
X1531990Y4174333D01*
X1531277Y4175047D01*
X1530346Y4175432D01*
X1529508Y4175992D01*
X1528519Y4176189D01*
X1527588Y4176575D01*
X1526579D01*
X1525591Y4176772D01*
D02*
G37*
G36*
X6744123Y4176575D02*
X6740129D01*
X6736439Y4175047D01*
X6733615Y4172222D01*
X6732087Y4168533D01*
Y4164538D01*
X6733615Y4160849D01*
X6736439Y4158025D01*
X6740129Y4156496D01*
X6744123D01*
X6747813Y4158025D01*
X6748844Y4159056D01*
X6751981Y4160348D01*
X6755325Y4159102D01*
X6756236Y4158191D01*
X6759853Y4156693D01*
X6763769D01*
X6767386Y4158191D01*
X6768447Y4159253D01*
X6771654Y4160416D01*
X6774860Y4159253D01*
X6775921Y4158191D01*
X6779538Y4156693D01*
X6783454D01*
X6787071Y4158191D01*
X6789840Y4160960D01*
X6791339Y4164578D01*
Y4168493D01*
X6789840Y4172111D01*
X6787071Y4174880D01*
X6783454Y4176378D01*
X6779538D01*
X6775921Y4174880D01*
X6774860Y4173818D01*
X6771654Y4172655D01*
X6768447Y4173818D01*
X6767386Y4174880D01*
X6763769Y4176378D01*
X6759853D01*
X6756236Y4174880D01*
X6755325Y4173969D01*
X6751981Y4172723D01*
X6748844Y4174016D01*
X6747813Y4175047D01*
X6744123Y4176575D01*
D02*
G37*
G36*
X4185068D02*
X4181074D01*
X4177384Y4175047D01*
X4174560Y4172222D01*
X4173032Y4168533D01*
Y4164538D01*
X4174560Y4160849D01*
X4177384Y4158025D01*
X4181074Y4156496D01*
X4185068D01*
X4188758Y4158025D01*
X4189789Y4159056D01*
X4192926Y4160348D01*
X4196270Y4159102D01*
X4197181Y4158191D01*
X4200798Y4156693D01*
X4204714D01*
X4208331Y4158191D01*
X4209392Y4159253D01*
X4212599Y4160416D01*
X4215805Y4159253D01*
X4216866Y4158191D01*
X4220483Y4156693D01*
X4224399D01*
X4228016Y4158191D01*
X4230785Y4160960D01*
X4232283Y4164578D01*
Y4168493D01*
X4230785Y4172111D01*
X4228016Y4174880D01*
X4224399Y4176378D01*
X4220483D01*
X4216866Y4174880D01*
X4215805Y4173818D01*
X4212598Y4172655D01*
X4209392Y4173818D01*
X4208331Y4174880D01*
X4204714Y4176378D01*
X4200798D01*
X4197181Y4174880D01*
X4196270Y4173969D01*
X4192926Y4172723D01*
X4189789Y4174016D01*
X4188758Y4175047D01*
X4185068Y4176575D01*
D02*
G37*
G36*
X1626013D02*
X1622019D01*
X1618329Y4175047D01*
X1615505Y4172222D01*
X1613976Y4168533D01*
Y4164538D01*
X1615505Y4160849D01*
X1618329Y4158025D01*
X1622019Y4156496D01*
X1626013D01*
X1629703Y4158025D01*
X1630734Y4159056D01*
X1633870Y4160348D01*
X1637215Y4159102D01*
X1638125Y4158191D01*
X1641743Y4156693D01*
X1645659D01*
X1649276Y4158191D01*
X1650337Y4159253D01*
X1653543Y4160416D01*
X1656749Y4159253D01*
X1657811Y4158191D01*
X1661428Y4156693D01*
X1665344D01*
X1668961Y4158191D01*
X1671730Y4160960D01*
X1673228Y4164578D01*
Y4168493D01*
X1671730Y4172111D01*
X1668961Y4174880D01*
X1665344Y4176378D01*
X1661428D01*
X1657811Y4174880D01*
X1656749Y4173818D01*
X1653543Y4172655D01*
X1650337Y4173818D01*
X1649276Y4174880D01*
X1645659Y4176378D01*
X1641743D01*
X1638125Y4174880D01*
X1637215Y4173969D01*
X1633870Y4172723D01*
X1630734Y4174016D01*
X1629703Y4175047D01*
X1626013Y4176575D01*
D02*
G37*
G36*
X6553543Y4149714D02*
X6537008D01*
X6530940Y4148507D01*
X6525796Y4145070D01*
X6522359Y4139926D01*
X6521152Y4133858D01*
X6522359Y4127791D01*
X6525796Y4122646D01*
X6530940Y4119209D01*
X6537008Y4118002D01*
X6553543D01*
X6559611Y4119209D01*
X6564755Y4122646D01*
X6568192Y4127791D01*
X6569399Y4133858D01*
X6568192Y4139926D01*
X6564755Y4145070D01*
X6559611Y4148507D01*
X6553543Y4149714D01*
D02*
G37*
G36*
X3994488D02*
X3977953D01*
X3971885Y4148507D01*
X3966741Y4145070D01*
X3963304Y4139926D01*
X3962097Y4133858D01*
X3963304Y4127791D01*
X3966741Y4122646D01*
X3971885Y4119209D01*
X3977953Y4118002D01*
X3994488D01*
X4000556Y4119209D01*
X4005700Y4122646D01*
X4009137Y4127791D01*
X4010344Y4133858D01*
X4009137Y4139926D01*
X4005700Y4145070D01*
X4000556Y4148507D01*
X3994488Y4149714D01*
D02*
G37*
G36*
X1435433D02*
X1418898D01*
X1412830Y4148507D01*
X1407686Y4145070D01*
X1404249Y4139926D01*
X1403042Y4133858D01*
X1404249Y4127791D01*
X1407686Y4122646D01*
X1412830Y4119209D01*
X1418898Y4118002D01*
X1435433D01*
X1441501Y4119209D01*
X1446645Y4122646D01*
X1450082Y4127791D01*
X1451289Y4133858D01*
X1450082Y4139926D01*
X1446645Y4145070D01*
X1441501Y4148507D01*
X1435433Y4149714D01*
D02*
G37*
G36*
X6843958Y4150984D02*
X6837145D01*
X6830850Y4148377D01*
X6826033Y4143559D01*
X6823425Y4137265D01*
Y4130452D01*
X6826033Y4124157D01*
X6830850Y4119340D01*
X6837145Y4116732D01*
X6843958D01*
X6850252Y4119340D01*
X6855070Y4124157D01*
X6857677Y4130452D01*
Y4137265D01*
X6855070Y4143559D01*
X6850252Y4148377D01*
X6843958Y4150984D01*
D02*
G37*
G36*
X4284903D02*
X4278090D01*
X4271795Y4148377D01*
X4266977Y4143559D01*
X4264370Y4137265D01*
Y4130452D01*
X4266977Y4124157D01*
X4271795Y4119340D01*
X4278090Y4116732D01*
X4284903D01*
X4291197Y4119340D01*
X4296015Y4124157D01*
X4298622Y4130452D01*
Y4137265D01*
X4296015Y4143559D01*
X4291197Y4148377D01*
X4284903Y4150984D01*
D02*
G37*
G36*
X1725848D02*
X1719034D01*
X1712740Y4148377D01*
X1707922Y4143559D01*
X1705315Y4137265D01*
Y4130452D01*
X1707922Y4124157D01*
X1712740Y4119340D01*
X1719034Y4116732D01*
X1725848D01*
X1732142Y4119340D01*
X1736960Y4124157D01*
X1739567Y4130452D01*
Y4137265D01*
X1736960Y4143559D01*
X1732142Y4148377D01*
X1725848Y4150984D01*
D02*
G37*
G36*
X6792402Y4080643D02*
Y4054213D01*
X6818832D01*
X6816898Y4061430D01*
X6812731Y4068648D01*
X6806837Y4074542D01*
X6799619Y4078709D01*
X6792402Y4080643D01*
D02*
G37*
G36*
X6782402D02*
X6775184Y4078709D01*
X6767966Y4074542D01*
X6762073Y4068648D01*
X6757905Y4061430D01*
X6755971Y4054213D01*
X6782402D01*
Y4080643D01*
D02*
G37*
G36*
X6593425D02*
X6586207Y4078709D01*
X6578989Y4074542D01*
X6573096Y4068648D01*
X6568929Y4061430D01*
X6566995Y4054213D01*
X6593425D01*
Y4080643D01*
D02*
G37*
G36*
X4233346D02*
Y4054213D01*
X4259777D01*
X4257843Y4061430D01*
X4253676Y4068648D01*
X4247782Y4074542D01*
X4240564Y4078709D01*
X4233346Y4080643D01*
D02*
G37*
G36*
X4223346D02*
X4216129Y4078709D01*
X4208911Y4074542D01*
X4203017Y4068648D01*
X4198850Y4061430D01*
X4196916Y4054213D01*
X4223346D01*
Y4080643D01*
D02*
G37*
G36*
X4034370D02*
X4027152Y4078709D01*
X4019934Y4074542D01*
X4014041Y4068648D01*
X4009874Y4061430D01*
X4007940Y4054213D01*
X4034370D01*
Y4080643D01*
D02*
G37*
G36*
X1674291D02*
Y4054213D01*
X1700722D01*
X1698788Y4061430D01*
X1694620Y4068648D01*
X1688727Y4074542D01*
X1681509Y4078709D01*
X1674291Y4080643D01*
D02*
G37*
G36*
X1664291D02*
X1657073Y4078709D01*
X1649856Y4074542D01*
X1643962Y4068648D01*
X1639795Y4061430D01*
X1637861Y4054213D01*
X1664291D01*
Y4080643D01*
D02*
G37*
G36*
X1475315D02*
X1468097Y4078709D01*
X1460879Y4074542D01*
X1454986Y4068648D01*
X1450819Y4061430D01*
X1448884Y4054213D01*
X1475315D01*
Y4080643D01*
D02*
G37*
G36*
X6818832Y4044213D02*
X6792402D01*
Y4017782D01*
X6799619Y4019716D01*
X6806837Y4023883D01*
X6812731Y4029777D01*
X6816898Y4036995D01*
X6818832Y4044213D01*
D02*
G37*
G36*
X6782402D02*
X6755971D01*
X6757905Y4036995D01*
X6762073Y4029777D01*
X6767966Y4023883D01*
X6775184Y4019716D01*
X6782402Y4017782D01*
Y4044213D01*
D02*
G37*
G36*
X6593425D02*
X6566995D01*
X6568929Y4036995D01*
X6573096Y4029777D01*
X6578989Y4023883D01*
X6586207Y4019716D01*
X6593425Y4017782D01*
Y4044213D01*
D02*
G37*
G36*
X4259777D02*
X4233346D01*
Y4017782D01*
X4240564Y4019716D01*
X4247782Y4023883D01*
X4253676Y4029777D01*
X4257843Y4036995D01*
X4259777Y4044213D01*
D02*
G37*
G36*
X4223346D02*
X4196916D01*
X4198850Y4036995D01*
X4203017Y4029777D01*
X4208911Y4023883D01*
X4216129Y4019716D01*
X4223346Y4017782D01*
Y4044213D01*
D02*
G37*
G36*
X4034370D02*
X4007940D01*
X4009874Y4036995D01*
X4014041Y4029777D01*
X4019934Y4023883D01*
X4027152Y4019716D01*
X4034370Y4017782D01*
Y4044213D01*
D02*
G37*
G36*
X1700722D02*
X1674291D01*
Y4017782D01*
X1681509Y4019716D01*
X1688727Y4023883D01*
X1694620Y4029777D01*
X1698788Y4036995D01*
X1700722Y4044213D01*
D02*
G37*
G36*
X1664291D02*
X1637861D01*
X1639795Y4036995D01*
X1643962Y4029777D01*
X1649856Y4023883D01*
X1657073Y4019716D01*
X1664291Y4017782D01*
Y4044213D01*
D02*
G37*
G36*
X1475315D02*
X1448884D01*
X1450819Y4036995D01*
X1454986Y4029777D01*
X1460879Y4023883D01*
X1468097Y4019716D01*
X1475315Y4017782D01*
Y4044213D01*
D02*
G37*
G36*
X6843582Y3533220D02*
Y3493189D01*
X6868524D01*
Y3503937D01*
X6867504Y3511686D01*
X6864512Y3518908D01*
X6859754Y3525109D01*
X6853553Y3529867D01*
X6846332Y3532858D01*
X6843582Y3533220D01*
D02*
G37*
G36*
X6833582Y3533220D02*
X6830833Y3532858D01*
X6823612Y3529867D01*
X6817411Y3525109D01*
X6812653Y3518908D01*
X6809662Y3511686D01*
X6808641Y3503937D01*
Y3493189D01*
X6833582D01*
Y3533220D01*
D02*
G37*
G36*
X3402637Y3533220D02*
Y3493189D01*
X3427579D01*
Y3503937D01*
X3426559Y3511686D01*
X3423568Y3518908D01*
X3418809Y3525109D01*
X3412608Y3529867D01*
X3405387Y3532858D01*
X3402637Y3533220D01*
D02*
G37*
G36*
X3392637Y3533220D02*
X3389888Y3532858D01*
X3382667Y3529867D01*
X3376466Y3525109D01*
X3371708Y3518908D01*
X3368717Y3511686D01*
X3367697Y3503937D01*
Y3493189D01*
X3392637D01*
Y3533220D01*
D02*
G37*
G36*
X6552244Y3533220D02*
Y3493189D01*
X6577185D01*
Y3503937D01*
X6576165Y3511686D01*
X6573174Y3518908D01*
X6568416Y3525109D01*
X6562215Y3529867D01*
X6554993Y3532858D01*
X6552244Y3533220D01*
D02*
G37*
G36*
X5567992D02*
Y3493189D01*
X5592933D01*
Y3503937D01*
X5591913Y3511686D01*
X5588922Y3518908D01*
X5584164Y3525109D01*
X5577963Y3529867D01*
X5570742Y3532858D01*
X5567992Y3533220D01*
D02*
G37*
G36*
X4583740D02*
Y3493189D01*
X4608681D01*
Y3503937D01*
X4607661Y3511686D01*
X4604670Y3518908D01*
X4599912Y3525109D01*
X4593711Y3529867D01*
X4586489Y3532858D01*
X4583740Y3533220D01*
D02*
G37*
G36*
X6542244Y3533220D02*
X6539495Y3532858D01*
X6532274Y3529867D01*
X6526073Y3525109D01*
X6521314Y3518908D01*
X6518323Y3511686D01*
X6517303Y3503937D01*
Y3493189D01*
X6542244D01*
Y3533220D01*
D02*
G37*
G36*
X5557992D02*
X5555243Y3532858D01*
X5548021Y3529867D01*
X5541820Y3525109D01*
X5537062Y3518908D01*
X5534071Y3511686D01*
X5533051Y3503937D01*
Y3493189D01*
X5557992D01*
Y3533220D01*
D02*
G37*
G36*
X4573740D02*
X4570991Y3532858D01*
X4563770Y3529867D01*
X4557569Y3525109D01*
X4552810Y3518908D01*
X4549819Y3511686D01*
X4548799Y3503937D01*
Y3493189D01*
X4573740D01*
Y3533220D01*
D02*
G37*
G36*
X3693976Y3533220D02*
Y3493189D01*
X3718918D01*
Y3503937D01*
X3717897Y3511686D01*
X3714906Y3518908D01*
X3710148Y3525109D01*
X3703947Y3529867D01*
X3696726Y3532858D01*
X3693976Y3533220D01*
D02*
G37*
G36*
X2709724D02*
Y3493189D01*
X2734666D01*
Y3503937D01*
X2733645Y3511686D01*
X2730654Y3518908D01*
X2725896Y3525109D01*
X2719695Y3529867D01*
X2712474Y3532858D01*
X2709724Y3533220D01*
D02*
G37*
G36*
X2418386D02*
Y3493189D01*
X2443327D01*
Y3503937D01*
X2442307Y3511686D01*
X2439316Y3518908D01*
X2434557Y3525109D01*
X2428356Y3529867D01*
X2421135Y3532858D01*
X2418386Y3533220D01*
D02*
G37*
G36*
X1725472D02*
Y3493189D01*
X1750414D01*
Y3503937D01*
X1749393Y3511686D01*
X1746402Y3518908D01*
X1741644Y3525109D01*
X1735443Y3529867D01*
X1728222Y3532858D01*
X1725472Y3533220D01*
D02*
G37*
G36*
X1434134D02*
Y3493189D01*
X1459075D01*
Y3503937D01*
X1458055Y3511686D01*
X1455064Y3518908D01*
X1450305Y3525109D01*
X1444104Y3529867D01*
X1436883Y3532858D01*
X1434134Y3533220D01*
D02*
G37*
G36*
X2699724Y3533220D02*
X2696975Y3532858D01*
X2689754Y3529867D01*
X2683553Y3525109D01*
X2678795Y3518908D01*
X2675803Y3511686D01*
X2674783Y3503937D01*
Y3493189D01*
X2699724D01*
Y3533220D01*
D02*
G37*
G36*
X2408386D02*
X2405636Y3532858D01*
X2398415Y3529867D01*
X2392214Y3525109D01*
X2387456Y3518908D01*
X2384465Y3511686D01*
X2383445Y3503937D01*
Y3493189D01*
X2408386D01*
Y3533220D01*
D02*
G37*
G36*
X1715472D02*
X1712723Y3532858D01*
X1705502Y3529867D01*
X1699301Y3525109D01*
X1694543Y3518908D01*
X1691551Y3511686D01*
X1690531Y3503937D01*
Y3493189D01*
X1715472D01*
Y3533220D01*
D02*
G37*
G36*
X3683976D02*
X3681227Y3532858D01*
X3674006Y3529867D01*
X3667805Y3525109D01*
X3663047Y3518908D01*
X3660055Y3511686D01*
X3659035Y3503937D01*
Y3493189D01*
X3683976D01*
Y3533220D01*
D02*
G37*
G36*
X1424134D02*
X1421384Y3532858D01*
X1414163Y3529867D01*
X1407962Y3525109D01*
X1403204Y3518908D01*
X1400213Y3511686D01*
X1399193Y3503937D01*
Y3493189D01*
X1424134D01*
Y3533220D01*
D02*
G37*
G36*
X5859331Y3533220D02*
Y3493189D01*
X5884272D01*
Y3503937D01*
X5883252Y3511686D01*
X5880261Y3518908D01*
X5875502Y3525109D01*
X5869301Y3529867D01*
X5862080Y3532858D01*
X5859331Y3533220D01*
D02*
G37*
G36*
X4875079D02*
Y3493189D01*
X4900020D01*
Y3503937D01*
X4899000Y3511686D01*
X4896008Y3518908D01*
X4891250Y3525109D01*
X4885049Y3529867D01*
X4877828Y3532858D01*
X4875079Y3533220D01*
D02*
G37*
G36*
X5849331Y3533220D02*
X5846581Y3532858D01*
X5839360Y3529867D01*
X5833159Y3525109D01*
X5828401Y3518908D01*
X5825410Y3511686D01*
X5824390Y3503937D01*
Y3493189D01*
X5849331D01*
Y3533220D01*
D02*
G37*
G36*
X4865079D02*
X4862329Y3532858D01*
X4855108Y3529867D01*
X4848907Y3525109D01*
X4844149Y3518908D01*
X4841158Y3511686D01*
X4840137Y3503937D01*
Y3493189D01*
X4865079D01*
Y3533220D01*
D02*
G37*
G36*
X6833582Y3483189D02*
X6808641D01*
Y3472441D01*
X6809662Y3464692D01*
X6812653Y3457470D01*
X6817411Y3451269D01*
X6823612Y3446511D01*
X6830833Y3443520D01*
X6833582Y3443158D01*
Y3483189D01*
D02*
G37*
G36*
X3392637Y3483189D02*
X3367697D01*
Y3472441D01*
X3368717Y3464692D01*
X3371708Y3457470D01*
X3376466Y3451269D01*
X3382667Y3446511D01*
X3389888Y3443520D01*
X3392637Y3443158D01*
Y3483189D01*
D02*
G37*
G36*
X6542244Y3483189D02*
X6517303D01*
Y3472441D01*
X6518323Y3464692D01*
X6521314Y3457470D01*
X6526073Y3451269D01*
X6532274Y3446511D01*
X6539495Y3443520D01*
X6542244Y3443158D01*
Y3483189D01*
D02*
G37*
G36*
X5557992D02*
X5533051D01*
Y3472441D01*
X5534071Y3464692D01*
X5537062Y3457470D01*
X5541820Y3451269D01*
X5548021Y3446511D01*
X5555243Y3443520D01*
X5557992Y3443158D01*
Y3483189D01*
D02*
G37*
G36*
X4573740D02*
X4548799D01*
Y3472441D01*
X4549819Y3464692D01*
X4552810Y3457470D01*
X4557569Y3451269D01*
X4563770Y3446511D01*
X4570991Y3443520D01*
X4573740Y3443158D01*
Y3483189D01*
D02*
G37*
G36*
X3683976Y3483189D02*
X3659035D01*
Y3472441D01*
X3660055Y3464692D01*
X3663047Y3457470D01*
X3667805Y3451269D01*
X3674006Y3446511D01*
X3681227Y3443520D01*
X3683976Y3443158D01*
Y3483189D01*
D02*
G37*
G36*
X2699724D02*
X2674783D01*
Y3472441D01*
X2675803Y3464692D01*
X2678795Y3457470D01*
X2683553Y3451269D01*
X2689754Y3446511D01*
X2696975Y3443520D01*
X2699724Y3443158D01*
Y3483189D01*
D02*
G37*
G36*
X2408386D02*
X2383445D01*
Y3472441D01*
X2384465Y3464692D01*
X2387456Y3457470D01*
X2392214Y3451269D01*
X2398415Y3446511D01*
X2405636Y3443520D01*
X2408386Y3443158D01*
Y3483189D01*
D02*
G37*
G36*
X1715472D02*
X1690531D01*
Y3472441D01*
X1691551Y3464692D01*
X1694543Y3457470D01*
X1699301Y3451269D01*
X1705502Y3446511D01*
X1712723Y3443520D01*
X1715472Y3443158D01*
Y3483189D01*
D02*
G37*
G36*
X1424134D02*
X1399193D01*
Y3472441D01*
X1400213Y3464692D01*
X1403204Y3457470D01*
X1407962Y3451269D01*
X1414163Y3446511D01*
X1421384Y3443520D01*
X1424134Y3443158D01*
Y3483189D01*
D02*
G37*
G36*
X5849331Y3483189D02*
X5824390D01*
Y3472441D01*
X5825410Y3464692D01*
X5828401Y3457470D01*
X5833159Y3451269D01*
X5839360Y3446511D01*
X5846581Y3443520D01*
X5849331Y3443158D01*
Y3483189D01*
D02*
G37*
G36*
X4865079D02*
X4840137D01*
Y3472441D01*
X4841158Y3464692D01*
X4844149Y3457470D01*
X4848907Y3451269D01*
X4855108Y3446511D01*
X4862329Y3443520D01*
X4865079Y3443158D01*
Y3483189D01*
D02*
G37*
G36*
X5884272D02*
X5859331D01*
Y3443158D01*
X5862080Y3443520D01*
X5869301Y3446511D01*
X5875502Y3451269D01*
X5880261Y3457470D01*
X5883252Y3464692D01*
X5884272Y3472441D01*
Y3483189D01*
D02*
G37*
G36*
X4900020D02*
X4875079D01*
Y3443158D01*
X4877828Y3443520D01*
X4885049Y3446511D01*
X4891250Y3451269D01*
X4896008Y3457470D01*
X4899000Y3464692D01*
X4900020Y3472441D01*
Y3483189D01*
D02*
G37*
G36*
X3718918Y3483189D02*
X3693976D01*
Y3443158D01*
X3696726Y3443520D01*
X3703947Y3446511D01*
X3710148Y3451269D01*
X3714906Y3457470D01*
X3717897Y3464692D01*
X3718918Y3472441D01*
Y3483189D01*
D02*
G37*
G36*
X2734666D02*
X2709724D01*
Y3443158D01*
X2712474Y3443520D01*
X2719695Y3446511D01*
X2725896Y3451269D01*
X2730654Y3457470D01*
X2733645Y3464692D01*
X2734666Y3472441D01*
Y3483189D01*
D02*
G37*
G36*
X1459075D02*
X1434134D01*
Y3443158D01*
X1436883Y3443520D01*
X1444104Y3446511D01*
X1450305Y3451269D01*
X1455064Y3457470D01*
X1458055Y3464692D01*
X1459075Y3472441D01*
Y3483189D01*
D02*
G37*
G36*
X2443327D02*
X2418386D01*
Y3443158D01*
X2421135Y3443520D01*
X2428356Y3446511D01*
X2434557Y3451269D01*
X2439316Y3457470D01*
X2442307Y3464692D01*
X2443327Y3472441D01*
Y3483189D01*
D02*
G37*
G36*
X1750414D02*
X1725472D01*
Y3443158D01*
X1728222Y3443520D01*
X1735443Y3446511D01*
X1741644Y3451269D01*
X1746402Y3457470D01*
X1749393Y3464692D01*
X1750414Y3472441D01*
Y3483189D01*
D02*
G37*
G36*
X6577185Y3483189D02*
X6552244D01*
Y3443158D01*
X6554993Y3443520D01*
X6562215Y3446511D01*
X6568416Y3451269D01*
X6573174Y3457470D01*
X6576165Y3464692D01*
X6577185Y3472441D01*
Y3483189D01*
D02*
G37*
G36*
X5592933D02*
X5567992D01*
Y3443158D01*
X5570742Y3443520D01*
X5577963Y3446511D01*
X5584164Y3451269D01*
X5588922Y3457470D01*
X5591913Y3464692D01*
X5592933Y3472441D01*
Y3483189D01*
D02*
G37*
G36*
X4608681D02*
X4583740D01*
Y3443158D01*
X4586489Y3443520D01*
X4593711Y3446511D01*
X4599912Y3451269D01*
X4604670Y3457470D01*
X4607661Y3464692D01*
X4608681Y3472441D01*
Y3483189D01*
D02*
G37*
G36*
X3427579Y3483189D02*
X3402637D01*
Y3443158D01*
X3405387Y3443520D01*
X3412608Y3446511D01*
X3418809Y3451269D01*
X3423568Y3457470D01*
X3426559Y3464692D01*
X3427579Y3472441D01*
Y3483189D01*
D02*
G37*
G36*
X6868524Y3483189D02*
X6843582D01*
Y3443158D01*
X6846332Y3443520D01*
X6853553Y3446511D01*
X6859754Y3451269D01*
X6864512Y3457470D01*
X6867504Y3464692D01*
X6868524Y3472441D01*
Y3483189D01*
D02*
G37*
G36*
X6749044Y3431299D02*
X6745050D01*
X6741360Y3429771D01*
X6740471Y3428882D01*
X6737205Y3427507D01*
X6733938Y3428882D01*
X6733049Y3429771D01*
X6729359Y3431299D01*
X6725365D01*
X6721675Y3429771D01*
X6718851Y3426947D01*
X6717323Y3423257D01*
Y3419263D01*
X6718851Y3415573D01*
X6721675Y3412749D01*
X6725365Y3411220D01*
X6729359D01*
X6733049Y3412749D01*
X6733938Y3413638D01*
X6737205Y3415012D01*
X6740471Y3413638D01*
X6741360Y3412749D01*
X6745050Y3411220D01*
X6749044D01*
X6752734Y3412749D01*
X6753765Y3413780D01*
X6756902Y3415072D01*
X6760247Y3413826D01*
X6761157Y3412916D01*
X6764774Y3411417D01*
X6768690D01*
X6772307Y3412916D01*
X6773369Y3413977D01*
X6776575Y3415140D01*
X6779781Y3413977D01*
X6780842Y3412916D01*
X6784459Y3411417D01*
X6788375D01*
X6791993Y3412916D01*
X6794761Y3415684D01*
X6796260Y3419302D01*
Y3423218D01*
X6794761Y3426835D01*
X6791993Y3429604D01*
X6788375Y3431102D01*
X6784459D01*
X6780842Y3429604D01*
X6779781Y3428543D01*
X6776575Y3427379D01*
X6773369Y3428543D01*
X6772307Y3429604D01*
X6768690Y3431102D01*
X6764774D01*
X6761157Y3429604D01*
X6760247Y3428693D01*
X6756902Y3427447D01*
X6753765Y3428740D01*
X6752734Y3429771D01*
X6749044Y3431299D01*
D02*
G37*
G36*
X5764792D02*
X5760798D01*
X5757108Y3429771D01*
X5756219Y3428882D01*
X5752953Y3427507D01*
X5749686Y3428882D01*
X5748797Y3429771D01*
X5745107Y3431299D01*
X5741113D01*
X5737423Y3429771D01*
X5734599Y3426947D01*
X5733071Y3423257D01*
Y3419263D01*
X5734599Y3415573D01*
X5737423Y3412749D01*
X5741113Y3411220D01*
X5745107D01*
X5748797Y3412749D01*
X5749686Y3413638D01*
X5752953Y3415012D01*
X5756219Y3413638D01*
X5757108Y3412749D01*
X5760798Y3411220D01*
X5764792D01*
X5768482Y3412749D01*
X5769513Y3413780D01*
X5772650Y3415072D01*
X5775995Y3413826D01*
X5776905Y3412916D01*
X5780522Y3411417D01*
X5784438D01*
X5788056Y3412916D01*
X5789117Y3413977D01*
X5792323Y3415140D01*
X5795529Y3413977D01*
X5796590Y3412916D01*
X5800208Y3411417D01*
X5804123D01*
X5807741Y3412916D01*
X5810509Y3415684D01*
X5812008Y3419302D01*
Y3423218D01*
X5810509Y3426835D01*
X5807741Y3429604D01*
X5804123Y3431102D01*
X5800208D01*
X5796590Y3429604D01*
X5795529Y3428543D01*
X5792323Y3427379D01*
X5789117Y3428543D01*
X5788056Y3429604D01*
X5784438Y3431102D01*
X5780522D01*
X5776905Y3429604D01*
X5775995Y3428693D01*
X5772650Y3427447D01*
X5769513Y3428740D01*
X5768482Y3429771D01*
X5764792Y3431299D01*
D02*
G37*
G36*
X4780540D02*
X4776546D01*
X4772856Y3429771D01*
X4771967Y3428882D01*
X4768701Y3427507D01*
X4765434Y3428882D01*
X4764545Y3429771D01*
X4760855Y3431299D01*
X4756861D01*
X4753171Y3429771D01*
X4750347Y3426947D01*
X4748819Y3423257D01*
Y3419263D01*
X4750347Y3415573D01*
X4753171Y3412749D01*
X4756861Y3411220D01*
X4760855D01*
X4764545Y3412749D01*
X4765434Y3413638D01*
X4768701Y3415012D01*
X4771967Y3413638D01*
X4772856Y3412749D01*
X4776546Y3411220D01*
X4780540D01*
X4784230Y3412749D01*
X4785261Y3413780D01*
X4788398Y3415072D01*
X4791743Y3413826D01*
X4792653Y3412916D01*
X4796270Y3411417D01*
X4800186D01*
X4803803Y3412916D01*
X4804865Y3413977D01*
X4808071Y3415140D01*
X4811277Y3413977D01*
X4812338Y3412916D01*
X4815956Y3411417D01*
X4819871D01*
X4823489Y3412916D01*
X4826257Y3415684D01*
X4827756Y3419302D01*
Y3423218D01*
X4826257Y3426835D01*
X4823489Y3429604D01*
X4819871Y3431102D01*
X4815956D01*
X4812338Y3429604D01*
X4811277Y3428543D01*
X4808071Y3427379D01*
X4804865Y3428543D01*
X4803803Y3429604D01*
X4800186Y3431102D01*
X4796270D01*
X4792653Y3429604D01*
X4791743Y3428693D01*
X4788398Y3427447D01*
X4785261Y3428740D01*
X4784230Y3429771D01*
X4780540Y3431299D01*
D02*
G37*
G36*
X3599438D02*
X3595444D01*
X3591754Y3429771D01*
X3590865Y3428882D01*
X3587598Y3427507D01*
X3584332Y3428882D01*
X3583443Y3429771D01*
X3579753Y3431299D01*
X3575759D01*
X3572069Y3429771D01*
X3569245Y3426947D01*
X3567716Y3423257D01*
Y3419263D01*
X3569245Y3415573D01*
X3572069Y3412749D01*
X3575759Y3411220D01*
X3579753D01*
X3583443Y3412749D01*
X3584332Y3413638D01*
X3587598Y3415012D01*
X3590865Y3413638D01*
X3591754Y3412749D01*
X3595444Y3411220D01*
X3599438D01*
X3603128Y3412749D01*
X3604159Y3413780D01*
X3607296Y3415072D01*
X3610640Y3413826D01*
X3611551Y3412916D01*
X3615168Y3411417D01*
X3619084D01*
X3622701Y3412916D01*
X3623762Y3413977D01*
X3626968Y3415140D01*
X3630175Y3413977D01*
X3631236Y3412916D01*
X3634853Y3411417D01*
X3638769D01*
X3642386Y3412916D01*
X3645155Y3415684D01*
X3646653Y3419302D01*
Y3423218D01*
X3645155Y3426835D01*
X3642386Y3429604D01*
X3638769Y3431102D01*
X3634853D01*
X3631236Y3429604D01*
X3630175Y3428543D01*
X3626968Y3427379D01*
X3623762Y3428543D01*
X3622701Y3429604D01*
X3619084Y3431102D01*
X3615168D01*
X3611551Y3429604D01*
X3610640Y3428693D01*
X3607296Y3427447D01*
X3604159Y3428740D01*
X3603128Y3429771D01*
X3599438Y3431299D01*
D02*
G37*
G36*
X2615186D02*
X2611192D01*
X2607502Y3429771D01*
X2606613Y3428882D01*
X2603346Y3427507D01*
X2600080Y3428882D01*
X2599191Y3429771D01*
X2595501Y3431299D01*
X2591507D01*
X2587817Y3429771D01*
X2584993Y3426947D01*
X2583465Y3423257D01*
Y3419263D01*
X2584993Y3415573D01*
X2587817Y3412749D01*
X2591507Y3411220D01*
X2595501D01*
X2599191Y3412749D01*
X2600080Y3413638D01*
X2603346Y3415012D01*
X2606613Y3413638D01*
X2607502Y3412749D01*
X2611192Y3411220D01*
X2615186D01*
X2618876Y3412749D01*
X2619907Y3413780D01*
X2623044Y3415072D01*
X2626388Y3413826D01*
X2627299Y3412916D01*
X2630916Y3411417D01*
X2634832D01*
X2638449Y3412916D01*
X2639510Y3413977D01*
X2642716Y3415140D01*
X2645923Y3413977D01*
X2646984Y3412916D01*
X2650601Y3411417D01*
X2654517D01*
X2658134Y3412916D01*
X2660903Y3415684D01*
X2662401Y3419302D01*
Y3423218D01*
X2660903Y3426835D01*
X2658134Y3429604D01*
X2654517Y3431102D01*
X2650601D01*
X2646984Y3429604D01*
X2645923Y3428543D01*
X2642716Y3427379D01*
X2639510Y3428543D01*
X2638449Y3429604D01*
X2634832Y3431102D01*
X2630916D01*
X2627299Y3429604D01*
X2626388Y3428693D01*
X2623044Y3427447D01*
X2619907Y3428740D01*
X2618876Y3429771D01*
X2615186Y3431299D01*
D02*
G37*
G36*
X1630934D02*
X1626940D01*
X1623250Y3429771D01*
X1622361Y3428882D01*
X1619094Y3427507D01*
X1615828Y3428882D01*
X1614939Y3429771D01*
X1611249Y3431299D01*
X1607255D01*
X1603565Y3429771D01*
X1600741Y3426947D01*
X1599213Y3423257D01*
Y3419263D01*
X1600741Y3415573D01*
X1603565Y3412749D01*
X1607255Y3411220D01*
X1611249D01*
X1614939Y3412749D01*
X1615828Y3413638D01*
X1619094Y3415012D01*
X1622361Y3413638D01*
X1623250Y3412749D01*
X1626940Y3411220D01*
X1630934D01*
X1634624Y3412749D01*
X1635655Y3413780D01*
X1638792Y3415072D01*
X1642136Y3413826D01*
X1643047Y3412916D01*
X1646664Y3411417D01*
X1650580D01*
X1654197Y3412916D01*
X1655258Y3413977D01*
X1658465Y3415140D01*
X1661671Y3413977D01*
X1662732Y3412916D01*
X1666349Y3411417D01*
X1670265D01*
X1673882Y3412916D01*
X1676651Y3415684D01*
X1678149Y3419302D01*
Y3423218D01*
X1676651Y3426835D01*
X1673882Y3429604D01*
X1670265Y3431102D01*
X1666349D01*
X1662732Y3429604D01*
X1661671Y3428543D01*
X1658464Y3427379D01*
X1655258Y3428543D01*
X1654197Y3429604D01*
X1650580Y3431102D01*
X1646664D01*
X1643047Y3429604D01*
X1642136Y3428693D01*
X1638792Y3427447D01*
X1635655Y3428740D01*
X1634624Y3429771D01*
X1630934Y3431299D01*
D02*
G37*
%LPD*%
G36*
X6656160Y6234687D02*
Y6083702D01*
X5669764Y5097305D01*
X5667097Y5097803D01*
X5664764Y5099149D01*
Y5249697D01*
X6650939Y6235872D01*
X6651160Y6236204D01*
X6656160Y6234687D01*
D02*
G37*
G36*
X4097105Y4977797D02*
Y4921300D01*
X3504409Y4328604D01*
X3501743Y4329102D01*
X3499409Y4330449D01*
Y4386508D01*
X4091884Y4978983D01*
X4092105Y4979314D01*
X4097105Y4977797D01*
D02*
G37*
G36*
X2517381Y4725354D02*
Y4542872D01*
X2512381Y4541355D01*
X2512159Y4541687D01*
X1535827Y5518019D01*
Y5700063D01*
X1538160Y5701410D01*
X1540827Y5701908D01*
X2517381Y4725354D01*
D02*
G37*
G36*
X4132686Y3701584D02*
X4135030Y3700017D01*
X4137795Y3699468D01*
X4574763D01*
X4682735Y3591495D01*
Y3553699D01*
X4677735Y3552182D01*
X4677514Y3552514D01*
X4574167Y3655860D01*
X4570846Y3658079D01*
X4566929Y3658858D01*
X4114476D01*
X4094882Y3678452D01*
Y3732544D01*
X4097215Y3733890D01*
X4099882Y3734388D01*
X4132686Y3701584D01*
D02*
G37*
D10*
X1540801Y3937454D02*
X1545275Y3941929D01*
Y4166535D01*
X1540801Y3480538D02*
Y3937454D01*
X4104331Y3740157D02*
X4137795Y3706693D01*
X4104331Y3740157D02*
Y4166535D01*
X4137795Y3706693D02*
X4577756D01*
X4689961Y3594488D01*
Y3480315D02*
Y3594488D01*
X3508858Y4322835D02*
X4104331Y4918307D01*
Y6725591D01*
X3508858Y3480315D02*
Y4322835D01*
X1545275Y5707677D02*
Y6725591D01*
Y5707677D02*
X2524606Y4728346D01*
Y3480315D02*
Y4728346D01*
X6658911Y3937454D02*
X6663386Y3941929D01*
Y4166535D01*
X6658911Y3480538D02*
Y3937454D01*
X5674213Y5091535D02*
X6663386Y6080709D01*
Y6725591D01*
X5674213Y3480315D02*
Y5091535D01*
D14*
X5654528Y5253937D02*
X6643701Y6243110D01*
Y6725591D01*
X5654528Y3460138D02*
Y5253937D01*
X4566929Y3648622D02*
X4670276Y3545276D01*
Y3460138D02*
Y3545276D01*
X4110236Y3648622D02*
X4566929D01*
X4084646Y3674213D02*
X4110236Y3648622D01*
X4084646Y3674213D02*
Y4166535D01*
X3489173Y4390748D02*
X4084646Y4986221D01*
X3489173Y3460138D02*
Y4390748D01*
X4084646Y4986221D02*
Y6725591D01*
X2504921Y3460138D02*
Y4534449D01*
X1525591Y5513779D02*
X2504921Y4534449D01*
X1525591Y5513779D02*
Y6725591D01*
X5664370Y3421260D02*
Y3450295D01*
X5654528Y3460138D02*
X5664370Y3450295D01*
X4670276Y3460138D02*
X4680118Y3450295D01*
Y3421260D02*
Y3450295D01*
X3489173Y3460138D02*
X3499016Y3450295D01*
Y3421260D02*
Y3450295D01*
X2504921Y3460138D02*
X2514764Y3450295D01*
Y3421260D02*
Y3450295D01*
X6648622Y3421260D02*
Y3449803D01*
X6638780Y3459646D02*
X6648622Y3449803D01*
X6643701Y3957677D02*
Y4166535D01*
X6638780Y3952756D02*
X6643701Y3957677D01*
X6638780Y3459646D02*
Y3952756D01*
X1530512Y3421260D02*
Y3449803D01*
X1520669Y3459646D02*
X1530512Y3449803D01*
X1525591Y3957677D02*
Y4166535D01*
X1520669Y3952756D02*
X1525591Y3957677D01*
X1520669Y3459646D02*
Y3952756D01*
D16*
X1480315Y4218504D02*
D03*
X1669291D02*
D03*
Y4049213D02*
D03*
X1480315D02*
D03*
X4039370D02*
D03*
X4228346D02*
D03*
Y4218504D02*
D03*
X4039370D02*
D03*
X1480315Y6608268D02*
D03*
X1669291D02*
D03*
Y6777559D02*
D03*
X1480315D02*
D03*
X4039370Y6608268D02*
D03*
X4228346D02*
D03*
Y6777559D02*
D03*
X4039370D02*
D03*
X6598425Y6608268D02*
D03*
X6787402D02*
D03*
Y6777559D02*
D03*
X6598425D02*
D03*
Y4049213D02*
D03*
X6787402D02*
D03*
Y4218504D02*
D03*
X6598425D02*
D03*
D17*
X1429134Y3488189D02*
D03*
X1720472D02*
D03*
X2413386D02*
D03*
X2704724D02*
D03*
X3397638D02*
D03*
X3688976D02*
D03*
X6547244D02*
D03*
X6838583D02*
D03*
X4578740D02*
D03*
X4870079D02*
D03*
X5562992D02*
D03*
X5854331D02*
D03*
D18*
X1564961Y4101181D02*
D03*
X1584646D02*
D03*
X4124016D02*
D03*
X4143701D02*
D03*
X6683071D02*
D03*
X6702756D02*
D03*
X6683071Y6660236D02*
D03*
X6702756D02*
D03*
X4124016D02*
D03*
X4143701D02*
D03*
X1584646D02*
D03*
X1564961D02*
D03*
X1525591Y4166535D02*
D03*
X1624016D02*
D03*
X4084646D02*
D03*
X4183071D02*
D03*
X6643701D02*
D03*
X6742126D02*
D03*
X6643701Y6725591D02*
D03*
X6742126D02*
D03*
X4084646D02*
D03*
X4183071D02*
D03*
X1624016D02*
D03*
X1525591D02*
D03*
X6747047Y3421260D02*
D03*
X6648622D02*
D03*
X4778543D02*
D03*
X4680118D02*
D03*
X3597441D02*
D03*
X3499016D02*
D03*
X1628937D02*
D03*
X1530512D02*
D03*
X5762795D02*
D03*
X5664370D02*
D03*
X2514764D02*
D03*
X2613189D02*
D03*
X1540354Y3480315D02*
D03*
X2524606D02*
D03*
X3508858D02*
D03*
X4689961D02*
D03*
X6658911Y3480538D02*
D03*
X5674213Y3480315D02*
D03*
X6663386Y6725591D02*
D03*
X4104331D02*
D03*
X1545275Y4166535D02*
D03*
X4104331D02*
D03*
X6663386D02*
D03*
X1545275Y6725591D02*
D03*
X5743110Y3421260D02*
D03*
X4758858D02*
D03*
X3577756D02*
D03*
X2593504D02*
D03*
X5802165D02*
D03*
X5782480D02*
D03*
X5644685D02*
D03*
X5625000D02*
D03*
X4817913D02*
D03*
X4798228D02*
D03*
X4660433D02*
D03*
X4640748D02*
D03*
X3636811D02*
D03*
X3617126D02*
D03*
X3479331D02*
D03*
X3459646D02*
D03*
X2652559D02*
D03*
X2632874D02*
D03*
X2495079D02*
D03*
X2475394D02*
D03*
X4222441Y6725591D02*
D03*
X4202756D02*
D03*
X4143701D02*
D03*
X4124016D02*
D03*
X4064961D02*
D03*
X4045276D02*
D03*
Y4166535D02*
D03*
X4064961D02*
D03*
X4202756D02*
D03*
X4222441D02*
D03*
X4124016D02*
D03*
X4143701D02*
D03*
X6604331D02*
D03*
X6624016D02*
D03*
X6761811D02*
D03*
X6781496D02*
D03*
X6683071D02*
D03*
X6702756D02*
D03*
X6604331Y6725591D02*
D03*
X6624016D02*
D03*
X6761811D02*
D03*
X6781496D02*
D03*
X6683071D02*
D03*
X6702756D02*
D03*
X1584646D02*
D03*
X1564961D02*
D03*
X1663386D02*
D03*
X1643701D02*
D03*
X1505906D02*
D03*
X1486220D02*
D03*
X1609252Y3421260D02*
D03*
X6727362D02*
D03*
X6786417D02*
D03*
X6766732D02*
D03*
X6628937D02*
D03*
X6609252D02*
D03*
X1491142D02*
D03*
X1510827D02*
D03*
X1648622D02*
D03*
X1668307D02*
D03*
X1564961Y4166535D02*
D03*
X1584646D02*
D03*
X1643701D02*
D03*
X1663386D02*
D03*
X1486220D02*
D03*
X1505906D02*
D03*
D19*
X1564961Y4099317D02*
Y4101181D01*
X1580610Y4090776D02*
X1583493Y4087894D01*
X1584646Y4164671D02*
Y4166535D01*
X1568996Y4085966D02*
Y4095281D01*
X1568996Y4139768D02*
X1597933Y4110831D01*
X1580610Y4090776D02*
Y4095281D01*
X1580610Y4144579D02*
X1609547Y4115642D01*
X1583493Y4087894D02*
X1590149D01*
X1584646Y4099317D02*
Y4101181D01*
X1580610Y4160636D02*
X1584646Y4164671D01*
X1564961D02*
Y4166535D01*
X1580610Y4095281D02*
X1584646Y4099317D01*
X1564961Y4164671D02*
X1568996Y4160636D01*
X1590149Y4087894D02*
X1597933Y4095677D01*
X1609547Y4090867D02*
Y4115642D01*
X1594960Y4076279D02*
X1609547Y4090867D01*
X1568996Y4139768D02*
Y4160636D01*
X1597933Y4095677D02*
Y4110831D01*
X1564961Y4099317D02*
X1568996Y4095281D01*
X1578682Y4076279D02*
X1594960D01*
X1568996Y4085966D02*
X1578682Y4076279D01*
X1580610Y4144579D02*
Y4160636D01*
X4124016Y4099317D02*
Y4101181D01*
X4139665Y4090776D02*
X4142548Y4087894D01*
X4143701Y4164671D02*
Y4166535D01*
X4128051Y4085966D02*
Y4095281D01*
X4128051Y4139768D02*
X4156988Y4110831D01*
X4139665Y4090776D02*
Y4095281D01*
X4139666Y4144579D02*
X4168602Y4115642D01*
X4142548Y4087894D02*
X4149205D01*
X4143701Y4099317D02*
Y4101181D01*
X4139666Y4160636D02*
X4143701Y4164671D01*
X4124016D02*
Y4166535D01*
X4139665Y4095281D02*
X4143701Y4099317D01*
X4124016Y4164671D02*
X4128051Y4160636D01*
X4149205Y4087894D02*
X4156988Y4095677D01*
X4168602Y4090867D02*
Y4115642D01*
X4154015Y4076279D02*
X4168602Y4090867D01*
X4128051Y4139768D02*
Y4160636D01*
X4156988Y4095677D02*
Y4110831D01*
X4124016Y4099317D02*
X4128051Y4095281D01*
X4137738Y4076279D02*
X4154015D01*
X4128051Y4085966D02*
X4137738Y4076279D01*
X4139666Y4144579D02*
Y4160636D01*
X6683071Y4099317D02*
Y4101181D01*
X6698721Y4090776D02*
X6701603Y4087894D01*
X6702756Y4164671D02*
Y4166535D01*
X6687106Y4085966D02*
Y4095281D01*
X6687106Y4139768D02*
X6716043Y4110831D01*
X6698721Y4090776D02*
Y4095281D01*
X6698721Y4144579D02*
X6727658Y4115642D01*
X6701603Y4087894D02*
X6708260D01*
X6702756Y4099317D02*
Y4101181D01*
X6698721Y4160636D02*
X6702756Y4164671D01*
X6683071D02*
Y4166535D01*
X6698721Y4095281D02*
X6702756Y4099317D01*
X6683071Y4164671D02*
X6687106Y4160636D01*
X6708260Y4087894D02*
X6716043Y4095677D01*
X6727658Y4090867D02*
Y4115642D01*
X6713070Y4076279D02*
X6727658Y4090867D01*
X6687106Y4139768D02*
Y4160636D01*
X6716043Y4095677D02*
Y4110831D01*
X6683071Y4099317D02*
X6687106Y4095281D01*
X6696793Y4076279D02*
X6713070D01*
X6687106Y4085966D02*
X6696793Y4076279D01*
X6698721Y4144579D02*
Y4160636D01*
X6683071Y6658372D02*
Y6660236D01*
X6698721Y6649832D02*
X6701603Y6646949D01*
X6702756Y6723726D02*
Y6725591D01*
X6687106Y6645021D02*
Y6654337D01*
X6687106Y6698823D02*
X6716043Y6669886D01*
X6698721Y6649832D02*
Y6654337D01*
X6698721Y6703634D02*
X6727658Y6674697D01*
X6701603Y6646949D02*
X6708260D01*
X6702756Y6658372D02*
Y6660236D01*
X6698721Y6719691D02*
X6702756Y6723726D01*
X6683071D02*
Y6725591D01*
X6698721Y6654337D02*
X6702756Y6658372D01*
X6683071Y6723726D02*
X6687106Y6719691D01*
X6708260Y6646949D02*
X6716043Y6654732D01*
X6727658Y6649922D02*
Y6674697D01*
X6713070Y6635334D02*
X6727658Y6649922D01*
X6687106Y6698823D02*
Y6719691D01*
X6716043Y6654732D02*
Y6669886D01*
X6683071Y6658372D02*
X6687106Y6654337D01*
X6696793Y6635334D02*
X6713070D01*
X6687106Y6645021D02*
X6696793Y6635334D01*
X6698721Y6703634D02*
Y6719691D01*
X4124016Y6658372D02*
Y6660236D01*
X4139665Y6649832D02*
X4142548Y6646949D01*
X4143701Y6723726D02*
Y6725591D01*
X4128051Y6645021D02*
Y6654337D01*
X4128051Y6698823D02*
X4156988Y6669886D01*
X4139665Y6649832D02*
Y6654337D01*
X4139666Y6703634D02*
X4168602Y6674697D01*
X4142548Y6646949D02*
X4149205D01*
X4143701Y6658372D02*
Y6660236D01*
X4139666Y6719691D02*
X4143701Y6723726D01*
X4124016D02*
Y6725591D01*
X4139665Y6654337D02*
X4143701Y6658372D01*
X4124016Y6723726D02*
X4128051Y6719691D01*
X4149205Y6646949D02*
X4156988Y6654732D01*
X4168602Y6649922D02*
Y6674697D01*
X4154015Y6635334D02*
X4168602Y6649922D01*
X4128051Y6698823D02*
Y6719691D01*
X4156988Y6654732D02*
Y6669886D01*
X4124016Y6658372D02*
X4128051Y6654337D01*
X4137738Y6635334D02*
X4154015D01*
X4128051Y6645021D02*
X4137738Y6635334D01*
X4139666Y6703634D02*
Y6719691D01*
X1580610Y6703634D02*
Y6719691D01*
X1568996Y6645021D02*
X1578682Y6635334D01*
X1594960D01*
X1564961Y6658372D02*
X1568996Y6654337D01*
X1597933Y6654732D02*
Y6669886D01*
X1568996Y6698823D02*
Y6719691D01*
X1594960Y6635334D02*
X1609547Y6649922D01*
Y6674697D01*
X1590149Y6646949D02*
X1597933Y6654732D01*
X1564961Y6723726D02*
X1568996Y6719691D01*
X1580610Y6654337D02*
X1584646Y6658372D01*
X1564961Y6723726D02*
Y6725591D01*
X1580610Y6719691D02*
X1584646Y6723726D01*
X1584646Y6658372D02*
Y6660236D01*
X1583493Y6646949D02*
X1590149D01*
X1580610Y6703634D02*
X1609547Y6674697D01*
X1580610Y6649832D02*
Y6654337D01*
X1568996Y6698823D02*
X1597933Y6669886D01*
X1568996Y6645021D02*
Y6654337D01*
X1584646Y6723726D02*
Y6725591D01*
X1580610Y6649832D02*
X1583493Y6646949D01*
X1564961Y6658372D02*
Y6660236D01*
%TF.MD5,4398628e568ed75b5b996a08b7433f34*%
M02*
