%TF.GenerationSoftware,Altium Limited,Altium Designer,22.5.1 (42)*%
G04 Layer_Color=2752767*
%FSLAX26Y26*%
%MOIN*%
%TF.SameCoordinates,0DA79311-8CAD-460E-879A-7D23F4F2BAF0*%
%TF.FilePolarity,Positive*%
%TF.FileFunction,Drawing*%
%TF.Part,Single*%
G01*
G75*
%TA.AperFunction,NonConductor*%
%ADD42C,0.005000*%
D42*
X6677835Y3450472D02*
X6687835Y3470472D01*
X6677835Y3490472D01*
X6697835Y3480472D01*
X6717835Y3490472D01*
X6707835Y3470472D01*
X6717835Y3450472D01*
X6697835Y3460472D01*
X6677835Y3450472D01*
X6667992Y3411102D02*
X6677992Y3431102D01*
X6667992Y3451102D01*
X6687992Y3441102D01*
X6707992Y3451102D01*
X6697992Y3431102D01*
X6707992Y3411102D01*
X6687992Y3421102D01*
X6667992Y3411102D01*
X5693583Y3450472D02*
X5703583Y3470472D01*
X5693583Y3490472D01*
X5713583Y3480472D01*
X5733583Y3490472D01*
X5723583Y3470472D01*
X5733583Y3450472D01*
X5713583Y3460472D01*
X5693583Y3450472D01*
X5683740Y3411102D02*
X5693740Y3431102D01*
X5683740Y3451102D01*
X5703740Y3441102D01*
X5723740Y3451102D01*
X5713740Y3431102D01*
X5723740Y3411102D01*
X5703740Y3421102D01*
X5683740Y3411102D01*
X4709331Y3450472D02*
X4719331Y3470472D01*
X4709331Y3490472D01*
X4729331Y3480472D01*
X4749331Y3490472D01*
X4739331Y3470472D01*
X4749331Y3450472D01*
X4729331Y3460472D01*
X4709331Y3450472D01*
X4699488Y3411102D02*
X4709488Y3431102D01*
X4699488Y3451102D01*
X4719488Y3441102D01*
X4739488Y3451102D01*
X4729488Y3431102D01*
X4739488Y3411102D01*
X4719488Y3421102D01*
X4699488Y3411102D01*
X3528228Y3450472D02*
X3538228Y3470472D01*
X3528228Y3490472D01*
X3548228Y3480472D01*
X3568228Y3490472D01*
X3558228Y3470472D01*
X3568228Y3450472D01*
X3548228Y3460472D01*
X3528228Y3450472D01*
X3518386Y3411102D02*
X3528386Y3431102D01*
X3518386Y3451102D01*
X3538386Y3441102D01*
X3558386Y3451102D01*
X3548386Y3431102D01*
X3558386Y3411102D01*
X3538386Y3421102D01*
X3518386Y3411102D01*
X2543976Y3450472D02*
X2553976Y3470472D01*
X2543976Y3490472D01*
X2563976Y3480472D01*
X2583976Y3490472D01*
X2573976Y3470472D01*
X2583976Y3450472D01*
X2563976Y3460472D01*
X2543976Y3450472D01*
X2534134Y3411102D02*
X2544134Y3431102D01*
X2534134Y3451102D01*
X2554134Y3441102D01*
X2574134Y3451102D01*
X2564134Y3431102D01*
X2574134Y3411102D01*
X2554134Y3421102D01*
X2534134Y3411102D01*
X1549882D02*
X1559882Y3431102D01*
X1549882Y3451102D01*
X1569882Y3441102D01*
X1589882Y3451102D01*
X1579882Y3431102D01*
X1589882Y3411102D01*
X1569882Y3421102D01*
X1549882Y3411102D01*
X1559724Y3450472D02*
X1569724Y3470472D01*
X1559724Y3490472D01*
X1579724Y3480472D01*
X1599724Y3490472D01*
X1589724Y3470472D01*
X1599724Y3450472D01*
X1579724Y3460472D01*
X1559724Y3450472D01*
%TF.MD5,dfa3a19c61e6564370d962219465ec5b*%
M02*
