%TF.GenerationSoftware,Altium Limited,Altium Designer,22.5.1 (42)*%
G04 Layer_Color=32896*
%FSLAX26Y26*%
%MOIN*%
%TF.SameCoordinates,0DA79311-8CAD-460E-879A-7D23F4F2BAF0*%
%TF.FilePolarity,Positive*%
%TF.FileFunction,Other,Top_Value*%
%TF.Part,Single*%
G01*
G75*
%TA.AperFunction,NonConductor*%
%ADD34C,0.001000*%
D34*
X1489497Y4146320D02*
X1486217Y4149600D01*
X1479658D01*
X1476378Y4146320D01*
Y4133201D01*
X1479658Y4129921D01*
X1486217D01*
X1489497Y4133201D01*
X1505896Y4149600D02*
X1499336D01*
X1496056Y4146320D01*
Y4133201D01*
X1499336Y4129921D01*
X1505896D01*
X1509176Y4133201D01*
Y4146320D01*
X1505896Y4149600D01*
X1528854Y4129921D02*
X1515735D01*
X1528854Y4143040D01*
Y4146320D01*
X1525574Y4149600D01*
X1519015D01*
X1515735Y4146320D01*
X1535414D02*
X1538694Y4149600D01*
X1545253D01*
X1548533Y4146320D01*
Y4133201D01*
X1545253Y4129921D01*
X1538694D01*
X1535414Y4133201D01*
Y4146320D01*
X1555092D02*
X1558372Y4149600D01*
X1564932D01*
X1568211Y4146320D01*
Y4143040D01*
X1564932Y4139761D01*
X1561652D01*
X1564932D01*
X1568211Y4136481D01*
Y4133201D01*
X1564932Y4129921D01*
X1558372D01*
X1555092Y4133201D01*
X4048552Y4146320D02*
X4045272Y4149600D01*
X4038713D01*
X4035433Y4146320D01*
Y4133201D01*
X4038713Y4129921D01*
X4045272D01*
X4048552Y4133201D01*
X4064951Y4149600D02*
X4058392D01*
X4055112Y4146320D01*
Y4133201D01*
X4058392Y4129921D01*
X4064951D01*
X4068231Y4133201D01*
Y4146320D01*
X4064951Y4149600D01*
X4074790D02*
X4087909D01*
Y4146320D01*
X4074790Y4133201D01*
Y4129921D01*
X4094469Y4146320D02*
X4097749Y4149600D01*
X4104308D01*
X4107588Y4146320D01*
Y4133201D01*
X4104308Y4129921D01*
X4097749D01*
X4094469Y4133201D01*
Y4146320D01*
X4114148D02*
X4117427Y4149600D01*
X4123987D01*
X4127267Y4146320D01*
Y4143040D01*
X4123987Y4139761D01*
X4120707D01*
X4123987D01*
X4127267Y4136481D01*
Y4133201D01*
X4123987Y4129921D01*
X4117427D01*
X4114148Y4133201D01*
X1489497Y6705375D02*
X1486217Y6708655D01*
X1479658D01*
X1476378Y6705375D01*
Y6692256D01*
X1479658Y6688976D01*
X1486217D01*
X1489497Y6692256D01*
X1505896Y6708655D02*
X1499336D01*
X1496056Y6705375D01*
Y6692256D01*
X1499336Y6688976D01*
X1505896D01*
X1509176Y6692256D01*
Y6705375D01*
X1505896Y6708655D01*
X1515735Y6705375D02*
X1519015Y6708655D01*
X1525574D01*
X1528854Y6705375D01*
Y6702096D01*
X1525574Y6698816D01*
X1522295D01*
X1525574D01*
X1528854Y6695536D01*
Y6692256D01*
X1525574Y6688976D01*
X1519015D01*
X1515735Y6692256D01*
X1535414Y6705375D02*
X1538694Y6708655D01*
X1545253D01*
X1548533Y6705375D01*
Y6692256D01*
X1545253Y6688976D01*
X1538694D01*
X1535414Y6692256D01*
Y6705375D01*
X1555092D02*
X1558372Y6708655D01*
X1564932D01*
X1568211Y6705375D01*
Y6702096D01*
X1564932Y6698816D01*
X1561652D01*
X1564932D01*
X1568211Y6695536D01*
Y6692256D01*
X1564932Y6688976D01*
X1558372D01*
X1555092Y6692256D01*
X4048552Y6705375D02*
X4045272Y6708655D01*
X4038713D01*
X4035433Y6705375D01*
Y6692256D01*
X4038713Y6688976D01*
X4045272D01*
X4048552Y6692256D01*
X4064951Y6708655D02*
X4058392D01*
X4055112Y6705375D01*
Y6692256D01*
X4058392Y6688976D01*
X4064951D01*
X4068231Y6692256D01*
Y6705375D01*
X4064951Y6708655D01*
X4084630Y6688976D02*
Y6708655D01*
X4074790Y6698816D01*
X4087909D01*
X4094469Y6705375D02*
X4097749Y6708655D01*
X4104308D01*
X4107588Y6705375D01*
Y6692256D01*
X4104308Y6688976D01*
X4097749D01*
X4094469Y6692256D01*
Y6705375D01*
X4114148D02*
X4117427Y6708655D01*
X4123987D01*
X4127267Y6705375D01*
Y6702096D01*
X4123987Y6698816D01*
X4120707D01*
X4123987D01*
X4127267Y6695536D01*
Y6692256D01*
X4123987Y6688976D01*
X4117427D01*
X4114148Y6692256D01*
X6607607Y6705375D02*
X6604328Y6708655D01*
X6597768D01*
X6594488Y6705375D01*
Y6692256D01*
X6597768Y6688976D01*
X6604328D01*
X6607607Y6692256D01*
X6624006Y6708655D02*
X6617447D01*
X6614167Y6705375D01*
Y6692256D01*
X6617447Y6688976D01*
X6624006D01*
X6627286Y6692256D01*
Y6705375D01*
X6624006Y6708655D01*
X6646965D02*
X6633845D01*
Y6698816D01*
X6640405Y6702096D01*
X6643685D01*
X6646965Y6698816D01*
Y6692256D01*
X6643685Y6688976D01*
X6637125D01*
X6633845Y6692256D01*
X6653524Y6705375D02*
X6656804Y6708655D01*
X6663363D01*
X6666643Y6705375D01*
Y6692256D01*
X6663363Y6688976D01*
X6656804D01*
X6653524Y6692256D01*
Y6705375D01*
X6673203D02*
X6676482Y6708655D01*
X6683042D01*
X6686322Y6705375D01*
Y6702096D01*
X6683042Y6698816D01*
X6679762D01*
X6683042D01*
X6686322Y6695536D01*
Y6692256D01*
X6683042Y6688976D01*
X6676482D01*
X6673203Y6692256D01*
X6607607Y4146320D02*
X6604328Y4149600D01*
X6597768D01*
X6594488Y4146320D01*
Y4133201D01*
X6597768Y4129921D01*
X6604328D01*
X6607607Y4133201D01*
X6624006Y4149600D02*
X6617447D01*
X6614167Y4146320D01*
Y4133201D01*
X6617447Y4129921D01*
X6624006D01*
X6627286Y4133201D01*
Y4146320D01*
X6624006Y4149600D01*
X6646965D02*
X6640405Y4146320D01*
X6633845Y4139761D01*
Y4133201D01*
X6637125Y4129921D01*
X6643685D01*
X6646965Y4133201D01*
Y4136481D01*
X6643685Y4139761D01*
X6633845D01*
X6653524Y4146320D02*
X6656804Y4149600D01*
X6663363D01*
X6666643Y4146320D01*
Y4133201D01*
X6663363Y4129921D01*
X6656804D01*
X6653524Y4133201D01*
Y4146320D01*
X6673203D02*
X6676482Y4149600D01*
X6683042D01*
X6686322Y4146320D01*
Y4143040D01*
X6683042Y4139761D01*
X6679762D01*
X6683042D01*
X6686322Y4136481D01*
Y4133201D01*
X6683042Y4129921D01*
X6676482D01*
X6673203Y4133201D01*
%TF.MD5,6b62ec1478f3f29ec7470007c6973c70*%
M02*
