%TF.GenerationSoftware,Altium Limited,Altium Designer,22.5.1 (42)*%
G04 Layer_Color=255*
%FSLAX26Y26*%
%MOIN*%
%TF.SameCoordinates,0DA79311-8CAD-460E-879A-7D23F4F2BAF0*%
%TF.FilePolarity,Positive*%
%TF.FileFunction,Pads,Top*%
%TF.Part,Single*%
G01*
G75*
%TA.AperFunction,SMDPad,CuDef*%
G04:AMPARAMS|DCode=11|XSize=19.685mil|YSize=40.551mil|CornerRadius=0mil|HoleSize=0mil|Usage=FLASHONLY|Rotation=50.000|XOffset=0mil|YOffset=0mil|HoleType=Round|Shape=Rectangle|*
%AMROTATEDRECTD11*
4,1,4,0.009205,-0.020573,-0.021859,0.005493,-0.009205,0.020573,0.021859,-0.005493,0.009205,-0.020573,0.0*
%
%ADD11ROTATEDRECTD11*%

G04:AMPARAMS|DCode=12|XSize=19.685mil|YSize=40.551mil|CornerRadius=0mil|HoleSize=0mil|Usage=FLASHONLY|Rotation=310.000|XOffset=0mil|YOffset=0mil|HoleType=Round|Shape=Rectangle|*
%AMROTATEDRECTD12*
4,1,4,-0.021859,-0.005493,0.009205,0.020573,0.021859,0.005493,-0.009205,-0.020573,-0.021859,-0.005493,0.0*
%
%ADD12ROTATEDRECTD12*%

%ADD13R,0.011811X0.033465*%
%TA.AperFunction,ComponentPad*%
%ADD16C,0.043307*%
%ADD17O,0.039370X0.070866*%
D11*
X1422047Y4089173D02*
D03*
X1727559Y4178543D02*
D03*
X4286614D02*
D03*
X3981102Y4089173D02*
D03*
X1727559Y6737598D02*
D03*
X1422047Y6648228D02*
D03*
X4286614Y6737598D02*
D03*
X3981102Y6648228D02*
D03*
X6845669Y6737598D02*
D03*
X6540158Y6648228D02*
D03*
X6845669Y4178543D02*
D03*
X6540158Y4089173D02*
D03*
D12*
X1422047Y4178543D02*
D03*
X1727559Y4089173D02*
D03*
X4286614D02*
D03*
X3981102Y4178543D02*
D03*
X1727559Y6648228D02*
D03*
X1422047Y6737598D02*
D03*
X4286614Y6648228D02*
D03*
X3981102Y6737598D02*
D03*
X6845669Y6648228D02*
D03*
X6540158Y6737598D02*
D03*
X6845669Y4089173D02*
D03*
X6540158Y4178543D02*
D03*
D13*
X1466535Y4101181D02*
D03*
X1486220D02*
D03*
X1505906D02*
D03*
X1525591D02*
D03*
X1545275D02*
D03*
X1564961D02*
D03*
X1584646D02*
D03*
X1604331D02*
D03*
X1624016D02*
D03*
X1643701D02*
D03*
X1663386D02*
D03*
X1683071D02*
D03*
Y4166535D02*
D03*
X1663386D02*
D03*
X1643701D02*
D03*
X1624016D02*
D03*
X1604331D02*
D03*
X1584646D02*
D03*
X1564961D02*
D03*
X1545275D02*
D03*
X1525591D02*
D03*
X1505906D02*
D03*
X1486220D02*
D03*
X1466535D02*
D03*
X4025591D02*
D03*
X4045276D02*
D03*
X4064961D02*
D03*
X4084646D02*
D03*
X4104331D02*
D03*
X4124016D02*
D03*
X4143701D02*
D03*
X4163386D02*
D03*
X4183071D02*
D03*
X4202756D02*
D03*
X4222441D02*
D03*
X4242126D02*
D03*
Y4101181D02*
D03*
X4222441D02*
D03*
X4202756D02*
D03*
X4183071D02*
D03*
X4163386D02*
D03*
X4143701D02*
D03*
X4124016D02*
D03*
X4104331D02*
D03*
X4084646D02*
D03*
X4064961D02*
D03*
X4045276D02*
D03*
X4025591D02*
D03*
X1466535Y6725591D02*
D03*
X1486220D02*
D03*
X1505906D02*
D03*
X1525591D02*
D03*
X1545275D02*
D03*
X1564961D02*
D03*
X1584646D02*
D03*
X1604331D02*
D03*
X1624016D02*
D03*
X1643701D02*
D03*
X1663386D02*
D03*
X1683071D02*
D03*
Y6660236D02*
D03*
X1663386D02*
D03*
X1643701D02*
D03*
X1624016D02*
D03*
X1604331D02*
D03*
X1584646D02*
D03*
X1564961D02*
D03*
X1545275D02*
D03*
X1525591D02*
D03*
X1505906D02*
D03*
X1486220D02*
D03*
X1466535D02*
D03*
X4025591Y6725591D02*
D03*
X4045276D02*
D03*
X4064961D02*
D03*
X4084646D02*
D03*
X4104331D02*
D03*
X4124016D02*
D03*
X4143701D02*
D03*
X4163386D02*
D03*
X4183071D02*
D03*
X4202756D02*
D03*
X4222441D02*
D03*
X4242126D02*
D03*
Y6660236D02*
D03*
X4222441D02*
D03*
X4202756D02*
D03*
X4183071D02*
D03*
X4163386D02*
D03*
X4143701D02*
D03*
X4124016D02*
D03*
X4104331D02*
D03*
X4084646D02*
D03*
X4064961D02*
D03*
X4045276D02*
D03*
X4025591D02*
D03*
X6584646Y6725591D02*
D03*
X6604331D02*
D03*
X6624016D02*
D03*
X6643701D02*
D03*
X6663386D02*
D03*
X6683071D02*
D03*
X6702756D02*
D03*
X6722441D02*
D03*
X6742126D02*
D03*
X6761811D02*
D03*
X6781496D02*
D03*
X6801181D02*
D03*
Y6660236D02*
D03*
X6781496D02*
D03*
X6761811D02*
D03*
X6742126D02*
D03*
X6722441D02*
D03*
X6702756D02*
D03*
X6683071D02*
D03*
X6663386D02*
D03*
X6643701D02*
D03*
X6624016D02*
D03*
X6604331D02*
D03*
X6584646D02*
D03*
Y4166535D02*
D03*
X6604331D02*
D03*
X6624016D02*
D03*
X6643701D02*
D03*
X6663386D02*
D03*
X6683071D02*
D03*
X6702756D02*
D03*
X6722441D02*
D03*
X6742126D02*
D03*
X6761811D02*
D03*
X6781496D02*
D03*
X6801181D02*
D03*
Y4101181D02*
D03*
X6781496D02*
D03*
X6761811D02*
D03*
X6742126D02*
D03*
X6722441D02*
D03*
X6702756D02*
D03*
X6683071D02*
D03*
X6663386D02*
D03*
X6643701D02*
D03*
X6624016D02*
D03*
X6604331D02*
D03*
X6584646D02*
D03*
D16*
X1480315Y4218504D02*
D03*
X1669291D02*
D03*
Y4049213D02*
D03*
X1480315D02*
D03*
X4039370D02*
D03*
X4228346D02*
D03*
Y4218504D02*
D03*
X4039370D02*
D03*
X1480315Y6608268D02*
D03*
X1669291D02*
D03*
Y6777559D02*
D03*
X1480315D02*
D03*
X4039370Y6608268D02*
D03*
X4228346D02*
D03*
Y6777559D02*
D03*
X4039370D02*
D03*
X6598425Y6608268D02*
D03*
X6787402D02*
D03*
Y6777559D02*
D03*
X6598425D02*
D03*
Y4049213D02*
D03*
X6787402D02*
D03*
Y4218504D02*
D03*
X6598425D02*
D03*
D17*
X1429134Y3488189D02*
D03*
X1720472D02*
D03*
X2413386D02*
D03*
X2704724D02*
D03*
X3397638D02*
D03*
X3688976D02*
D03*
X6547244D02*
D03*
X6838583D02*
D03*
X4578740D02*
D03*
X4870079D02*
D03*
X5562992D02*
D03*
X5854331D02*
D03*
%TF.MD5,b13efc23b339dc562292a2d1e9fba682*%
M02*
