%TF.GenerationSoftware,Altium Limited,Altium Designer,22.5.1 (42)*%
G04 Layer_Color=2752767*
%FSLAX26Y26*%
%MOIN*%
%TF.SameCoordinates,0DA79311-8CAD-460E-879A-7D23F4F2BAF0*%
%TF.FilePolarity,Positive*%
%TF.FileFunction,Drawing*%
%TF.Part,Single*%
G01*
G75*
%TA.AperFunction,NonConductor*%
%ADD42C,0.005000*%
D42*
X1544961Y4081181D02*
X1554961Y4101181D01*
X1544961Y4121181D01*
X1564961Y4111181D01*
X1584961Y4121181D01*
X1574961Y4101181D01*
X1584961Y4081181D01*
X1564961Y4091181D01*
X1544961Y4081181D01*
X1564646D02*
X1574646Y4101181D01*
X1564646Y4121181D01*
X1584646Y4111181D01*
X1604646Y4121181D01*
X1594646Y4101181D01*
X1604646Y4081181D01*
X1584646Y4091181D01*
X1564646Y4081181D01*
X4104016D02*
X4114016Y4101181D01*
X4104016Y4121181D01*
X4124016Y4111181D01*
X4144016Y4121181D01*
X4134016Y4101181D01*
X4144016Y4081181D01*
X4124016Y4091181D01*
X4104016Y4081181D01*
X4123701D02*
X4133701Y4101181D01*
X4123701Y4121181D01*
X4143701Y4111181D01*
X4163701Y4121181D01*
X4153701Y4101181D01*
X4163701Y4081181D01*
X4143701Y4091181D01*
X4123701Y4081181D01*
X6663071D02*
X6673071Y4101181D01*
X6663071Y4121181D01*
X6683071Y4111181D01*
X6703071Y4121181D01*
X6693071Y4101181D01*
X6703071Y4081181D01*
X6683071Y4091181D01*
X6663071Y4081181D01*
X6682756D02*
X6692756Y4101181D01*
X6682756Y4121181D01*
X6702756Y4111181D01*
X6722756Y4121181D01*
X6712756Y4101181D01*
X6722756Y4081181D01*
X6702756Y4091181D01*
X6682756Y4081181D01*
X6663071Y6640236D02*
X6673071Y6660236D01*
X6663071Y6680236D01*
X6683071Y6670236D01*
X6703071Y6680236D01*
X6693071Y6660236D01*
X6703071Y6640236D01*
X6683071Y6650236D01*
X6663071Y6640236D01*
X6682756D02*
X6692756Y6660236D01*
X6682756Y6680236D01*
X6702756Y6670236D01*
X6722756Y6680236D01*
X6712756Y6660236D01*
X6722756Y6640236D01*
X6702756Y6650236D01*
X6682756Y6640236D01*
X4104016D02*
X4114016Y6660236D01*
X4104016Y6680236D01*
X4124016Y6670236D01*
X4144016Y6680236D01*
X4134016Y6660236D01*
X4144016Y6640236D01*
X4124016Y6650236D01*
X4104016Y6640236D01*
X4123701D02*
X4133701Y6660236D01*
X4123701Y6680236D01*
X4143701Y6670236D01*
X4163701Y6680236D01*
X4153701Y6660236D01*
X4163701Y6640236D01*
X4143701Y6650236D01*
X4123701Y6640236D01*
X1564646D02*
X1574646Y6660236D01*
X1564646Y6680236D01*
X1584646Y6670236D01*
X1604646Y6680236D01*
X1594646Y6660236D01*
X1604646Y6640236D01*
X1584646Y6650236D01*
X1564646Y6640236D01*
X1544961D02*
X1554961Y6660236D01*
X1544961Y6680236D01*
X1564961Y6670236D01*
X1584961Y6680236D01*
X1574961Y6660236D01*
X1584961Y6640236D01*
X1564961Y6650236D01*
X1544961Y6640236D01*
X6643386Y6705591D02*
X6653386Y6725591D01*
X6643386Y6745591D01*
X6663386Y6735591D01*
X6683386Y6745591D01*
X6673386Y6725591D01*
X6683386Y6705591D01*
X6663386Y6715591D01*
X6643386Y6705591D01*
X4084331D02*
X4094331Y6725591D01*
X4084331Y6745591D01*
X4104331Y6735591D01*
X4124331Y6745591D01*
X4114331Y6725591D01*
X4124331Y6705591D01*
X4104331Y6715591D01*
X4084331Y6705591D01*
X1525275Y4146535D02*
X1535275Y4166535D01*
X1525275Y4186535D01*
X1545275Y4176535D01*
X1565275Y4186535D01*
X1555275Y4166535D01*
X1565275Y4146535D01*
X1545275Y4156535D01*
X1525275Y4146535D01*
X4084331D02*
X4094331Y4166535D01*
X4084331Y4186535D01*
X4104331Y4176535D01*
X4124331Y4186535D01*
X4114331Y4166535D01*
X4124331Y4146535D01*
X4104331Y4156535D01*
X4084331Y4146535D01*
X6643386D02*
X6653386Y4166535D01*
X6643386Y4186535D01*
X6663386Y4176535D01*
X6683386Y4186535D01*
X6673386Y4166535D01*
X6683386Y4146535D01*
X6663386Y4156535D01*
X6643386Y4146535D01*
X1525275Y6705591D02*
X1535275Y6725591D01*
X1525275Y6745591D01*
X1545275Y6735591D01*
X1565275Y6745591D01*
X1555275Y6725591D01*
X1565275Y6705591D01*
X1545275Y6715591D01*
X1525275Y6705591D01*
%TF.MD5,c4e51f5ab0a195abd120d3384c144aad*%
M02*
