%TF.GenerationSoftware,Altium Limited,Altium Designer,22.5.1 (42)*%
G04 Layer_Color=128*
%FSLAX26Y26*%
%MOIN*%
%TF.SameCoordinates,0DA79311-8CAD-460E-879A-7D23F4F2BAF0*%
%TF.FilePolarity,Positive*%
%TF.FileFunction,Drillmap*%
%TF.Part,Single*%
G01*
G75*
%TA.AperFunction,NonConductor*%
%ADD42C,0.005000*%
D42*
X1562992Y4101181D02*
X1566929D01*
X1564961Y4099213D02*
Y4103150D01*
X1582677Y4101181D02*
X1586614D01*
X1584646Y4099213D02*
Y4103150D01*
X4122047Y4101181D02*
X4125984D01*
X4124016Y4099213D02*
Y4103150D01*
X4141732Y4101181D02*
X4145669D01*
X4143701Y4099213D02*
Y4103150D01*
X6681102Y4101181D02*
X6685039D01*
X6683071Y4099213D02*
Y4103150D01*
X6700787Y4101181D02*
X6704724D01*
X6702756Y4099213D02*
Y4103150D01*
X6681102Y6660236D02*
X6685039D01*
X6683071Y6658268D02*
Y6662205D01*
X6700787Y6660236D02*
X6704724D01*
X6702756Y6658268D02*
Y6662205D01*
X4122047Y6660236D02*
X4125984D01*
X4124016Y6658268D02*
Y6662205D01*
X4141732Y6660236D02*
X4145669D01*
X4143701Y6658268D02*
Y6662205D01*
X1582677Y6660236D02*
X1586614D01*
X1584646Y6658268D02*
Y6662205D01*
X1562992Y6660236D02*
X1566929D01*
X1564961Y6658268D02*
Y6662205D01*
X6661417Y6725591D02*
X6665354D01*
X6663386Y6723622D02*
Y6727559D01*
X4102362Y6725591D02*
X4106299D01*
X4104331Y6723622D02*
Y6727559D01*
X1543307Y4166535D02*
X1547244D01*
X1545275Y4164567D02*
Y4168504D01*
X4102362Y4166535D02*
X4106299D01*
X4104331Y4164567D02*
Y4168504D01*
X6661417Y4166535D02*
X6665354D01*
X6663386Y4164567D02*
Y4168504D01*
X1543307Y6725591D02*
X1547244D01*
X1545275Y6723622D02*
Y6727559D01*
%TF.MD5,02ece5c82e4fd77a5cd20514414c578f*%
M02*
