%TF.GenerationSoftware,Altium Limited,Altium Designer,22.2.1 (43)*%
G04 Layer_Color=8388736*
%FSLAX26Y26*%
%MOIN*%
%TF.SameCoordinates,92DA24ED-A250-4A13-B4DD-B7D196A9CFE6*%
%TF.FilePolarity,Negative*%
%TF.FileFunction,Soldermask,Top*%
%TF.Part,Single*%
G01*
G75*
%TA.AperFunction,SMDPad,CuDef*%
%ADD27R,0.023622X0.023622*%
%ADD32R,0.055118X0.035433*%
%ADD34R,0.070866X0.039370*%
%ADD38R,0.039370X0.049213*%
%ADD39R,0.035433X0.033465*%
%ADD40P,0.033407X4X270.0*%
%ADD46R,0.049213X0.039370*%
%ADD47R,0.043307X0.094488*%
%ADD48R,0.033465X0.035433*%
%ADD49R,0.023622X0.023622*%
%ADD52R,0.039370X0.070866*%
G04:AMPARAMS|DCode=53|XSize=39.37mil|YSize=49.213mil|CornerRadius=0mil|HoleSize=0mil|Usage=FLASHONLY|Rotation=45.000|XOffset=0mil|YOffset=0mil|HoleType=Round|Shape=Rectangle|*
%AMROTATEDRECTD53*
4,1,4,0.003480,-0.031319,-0.031319,0.003480,-0.003480,0.031319,0.031319,-0.003480,0.003480,-0.031319,0.0*
%
%ADD53ROTATEDRECTD53*%

%TA.AperFunction,FiducialPad,Global*%
%ADD107R,0.047370X0.047370*%
%ADD108C,0.047370*%
%TA.AperFunction,ComponentPad*%
%ADD110O,0.094614X0.047370*%
%ADD111O,0.078866X0.047370*%
%ADD112C,0.051307*%
%ADD113C,0.090677*%
%ADD114C,0.086740*%
%ADD115R,0.086740X0.086740*%
%ADD116O,0.114299X0.074929*%
%ADD117C,0.110362*%
%ADD118O,0.063118X0.114299*%
%ADD119C,0.008000*%
%ADD120C,0.063118*%
%ADD121C,0.070992*%
%ADD122C,0.244220*%
%ADD123C,0.074929*%
%ADD124C,0.068000*%
%TA.AperFunction,ViaPad*%
%ADD125C,0.035559*%
%ADD126C,0.025716*%
%ADD127C,0.047370*%
%ADD128C,0.023748*%
%ADD129C,0.027685*%
%ADD130C,0.058000*%
%TA.AperFunction,ConnectorPad*%
%ADD144R,0.051307X0.031622*%
%ADD145R,0.051307X0.019811*%
%TA.AperFunction,SMDPad,CuDef*%
G04:AMPARAMS|DCode=146|XSize=27.685mil|YSize=48.551mil|CornerRadius=0mil|HoleSize=0mil|Usage=FLASHONLY|Rotation=140.000|XOffset=0mil|YOffset=0mil|HoleType=Round|Shape=Rectangle|*
%AMROTATEDRECTD146*
4,1,4,0.026208,0.009698,-0.005000,-0.027494,-0.026208,-0.009698,0.005000,0.027494,0.026208,0.009698,0.0*
%
%ADD146ROTATEDRECTD146*%

G04:AMPARAMS|DCode=147|XSize=27.685mil|YSize=48.551mil|CornerRadius=0mil|HoleSize=0mil|Usage=FLASHONLY|Rotation=40.000|XOffset=0mil|YOffset=0mil|HoleType=Round|Shape=Rectangle|*
%AMROTATEDRECTD147*
4,1,4,0.005000,-0.027494,-0.026208,0.009698,-0.005000,0.027494,0.026208,-0.009698,0.005000,-0.027494,0.0*
%
%ADD147ROTATEDRECTD147*%

%ADD148R,0.041465X0.019811*%
%TA.AperFunction,BGAPad,CuDef*%
%ADD149C,0.021779*%
%TA.AperFunction,SMDPad,CuDef*%
%ADD150R,0.100520X0.208787*%
%ADD151R,0.015748X0.015748*%
%ADD152R,0.051307X0.031622*%
%ADD153R,0.039496X0.043433*%
%ADD154R,0.070992X0.055244*%
%ADD155R,0.070992X0.137921*%
%ADD156R,0.026701X0.015874*%
%ADD157R,0.025716X0.031228*%
%ADD158R,0.110362X0.145795*%
%ADD159R,0.067055X0.039496*%
%TA.AperFunction,BGAPad,CuDef*%
%ADD160R,0.049732X0.049732*%
%TA.AperFunction,SMDPad,CuDef*%
%ADD161P,0.345380X4X270.0*%
G04:AMPARAMS|DCode=162|XSize=19.024mil|YSize=35.165mil|CornerRadius=0mil|HoleSize=0mil|Usage=FLASHONLY|Rotation=315.000|XOffset=0mil|YOffset=0mil|HoleType=Round|Shape=Rectangle|*
%AMROTATEDRECTD162*
4,1,4,-0.019159,-0.005707,0.005707,0.019159,0.019159,0.005707,-0.005707,-0.019159,-0.019159,-0.005707,0.0*
%
%ADD162ROTATEDRECTD162*%

G04:AMPARAMS|DCode=163|XSize=19.024mil|YSize=35.165mil|CornerRadius=0mil|HoleSize=0mil|Usage=FLASHONLY|Rotation=45.000|XOffset=0mil|YOffset=0mil|HoleType=Round|Shape=Rectangle|*
%AMROTATEDRECTD163*
4,1,4,0.005707,-0.019159,-0.019159,0.005707,-0.005707,0.019159,0.019159,-0.005707,0.005707,-0.019159,0.0*
%
%ADD163ROTATEDRECTD163*%

%ADD164R,0.153669X0.055244*%
%ADD165R,0.082803X0.019811*%
%ADD166R,0.141858X0.055244*%
%ADD167R,0.118236X0.055244*%
%ADD168R,0.060236X0.011811*%
%ADD169R,0.041465X0.047370*%
%ADD170R,0.063118X0.052488*%
%ADD171R,0.074929X0.043433*%
%ADD172R,0.047370X0.033591*%
%ADD173R,0.055244X0.141858*%
%ADD174R,0.043433X0.039496*%
%ADD175R,0.031622X0.051307*%
D27*
X4257874Y1866142D02*
D03*
X4301181D02*
D03*
X5467717Y4100000D02*
D03*
X5511024D02*
D03*
X4110827Y4525000D02*
D03*
X4154134D02*
D03*
X4110827Y4450000D02*
D03*
X4154134D02*
D03*
X2915354Y5531496D02*
D03*
X2958661D02*
D03*
X6061024Y1803150D02*
D03*
X6017717D02*
D03*
X3151575Y5188976D02*
D03*
X3194882D02*
D03*
X2954724Y5255905D02*
D03*
X2911417D02*
D03*
X3151575Y5263779D02*
D03*
X3108268D02*
D03*
X3238189Y5314961D02*
D03*
X3281496D02*
D03*
X3108268Y5224409D02*
D03*
X3151575D02*
D03*
X4261811Y1601378D02*
D03*
X4305118D02*
D03*
X4261811Y1632874D02*
D03*
X4305118D02*
D03*
D32*
X5728346Y5332677D02*
D03*
Y5415354D02*
D03*
X4182480Y3663386D02*
D03*
Y3580709D02*
D03*
X3761220Y3997441D02*
D03*
Y4080118D02*
D03*
X4282480Y3663386D02*
D03*
Y3580709D02*
D03*
X4382480Y3663386D02*
D03*
Y3580709D02*
D03*
X5846457Y1415354D02*
D03*
Y1498032D02*
D03*
D34*
X3435039Y3084646D02*
D03*
Y2958661D02*
D03*
X2480315Y4925197D02*
D03*
Y4799213D02*
D03*
X2944882Y3732284D02*
D03*
Y3858268D02*
D03*
X2480315Y4574803D02*
D03*
Y4700787D02*
D03*
D38*
X2716535Y5370065D02*
D03*
X2795276D02*
D03*
X4074803Y2500000D02*
D03*
X4153543D02*
D03*
X3523622D02*
D03*
X3444882D02*
D03*
X3303150Y3574803D02*
D03*
X3224409D02*
D03*
X3811024Y5381890D02*
D03*
X3732283D02*
D03*
X2716535Y4826759D02*
D03*
X2795276D02*
D03*
X2716535Y4936995D02*
D03*
X2795276D02*
D03*
X2716535Y5043294D02*
D03*
X2795276D02*
D03*
X2716535Y5153530D02*
D03*
X2795276D02*
D03*
X2716535Y5263766D02*
D03*
X2795276D02*
D03*
D39*
X5334646Y3650590D02*
D03*
Y3593504D02*
D03*
X2661417Y3367126D02*
D03*
Y3310039D02*
D03*
Y3156496D02*
D03*
Y3213583D02*
D03*
X4182480Y3827756D02*
D03*
Y3770669D02*
D03*
X3686220Y4010236D02*
D03*
Y4067323D02*
D03*
X4282480Y3770669D02*
D03*
Y3827756D02*
D03*
X4382480Y3770669D02*
D03*
Y3827756D02*
D03*
X3535433Y3336614D02*
D03*
Y3393701D02*
D03*
Y3500984D02*
D03*
Y3443898D02*
D03*
X1771653Y4871063D02*
D03*
Y4813976D02*
D03*
Y4713583D02*
D03*
Y4656496D02*
D03*
X5905512Y1428150D02*
D03*
Y1485236D02*
D03*
X5728346Y5245079D02*
D03*
Y5187992D02*
D03*
X3996063Y1487205D02*
D03*
Y1544291D02*
D03*
X3937008D02*
D03*
Y1487205D02*
D03*
D40*
X4148074Y2179571D02*
D03*
X4178697Y2210193D02*
D03*
X4279964Y2020122D02*
D03*
X4310587Y2050744D02*
D03*
X4256342Y2041775D02*
D03*
X4286965Y2072398D02*
D03*
X4169728Y2157917D02*
D03*
X4200351Y2188540D02*
D03*
D46*
X2728346Y3389764D02*
D03*
Y3311023D02*
D03*
X2728347Y3133858D02*
D03*
Y3212598D02*
D03*
X2866142Y3811024D02*
D03*
Y3732283D02*
D03*
X3456693Y3314961D02*
D03*
Y3393701D02*
D03*
Y3551181D02*
D03*
Y3472441D02*
D03*
X3578740Y5547244D02*
D03*
Y5468504D02*
D03*
X3645669Y5547244D02*
D03*
Y5468504D02*
D03*
D47*
X3618110Y4665354D02*
D03*
X3744095D02*
D03*
X1905512Y5629921D02*
D03*
X2031496D02*
D03*
X1905512Y5511811D02*
D03*
X2031496D02*
D03*
X1905512Y5393701D02*
D03*
X2031496D02*
D03*
X1905512Y5039370D02*
D03*
X2031496D02*
D03*
D48*
X3682087Y4566929D02*
D03*
X3739173D02*
D03*
X3682087Y4507874D02*
D03*
X3739173D02*
D03*
X3343504Y4330709D02*
D03*
X3286417D02*
D03*
X2540354Y4090551D02*
D03*
X2483268D02*
D03*
X3284449D02*
D03*
X3227362D02*
D03*
X1800197Y5590551D02*
D03*
X1743110D02*
D03*
X5225394Y3543307D02*
D03*
X5168307D02*
D03*
X3111220Y5531496D02*
D03*
X3054134D02*
D03*
X4115158Y1547244D02*
D03*
X4058071D02*
D03*
D49*
X5589370Y4203346D02*
D03*
Y4246654D02*
D03*
X5118110Y3663386D02*
D03*
Y3620079D02*
D03*
X5755905Y1600394D02*
D03*
Y1643701D02*
D03*
X5728346Y5061024D02*
D03*
Y5017717D02*
D03*
X3232284Y5234252D02*
D03*
Y5277559D02*
D03*
X3287402Y5234252D02*
D03*
Y5277559D02*
D03*
X5472441Y5230315D02*
D03*
Y5187008D02*
D03*
X5511811D02*
D03*
Y5230315D02*
D03*
D52*
X1905512Y5905512D02*
D03*
X2031496D02*
D03*
X3224410Y3472441D02*
D03*
X3350394D02*
D03*
D53*
X3767996Y5504217D02*
D03*
X3712319Y5448539D02*
D03*
D107*
X6043307Y1043307D02*
D03*
X1358268Y6003937D02*
D03*
D108*
X1043307Y1043307D02*
D03*
X6043307Y5748032D02*
D03*
D110*
X6039370Y4896850D02*
D03*
Y5339370D02*
D03*
D111*
X5881890Y4896850D02*
D03*
Y5339370D02*
D03*
D112*
X5820866Y2858268D02*
D03*
Y3047244D02*
D03*
X5990158D02*
D03*
Y2858268D02*
D03*
X5820866Y1677165D02*
D03*
Y1866142D02*
D03*
X5990158D02*
D03*
Y1677165D02*
D03*
X5820866Y2267716D02*
D03*
Y2456693D02*
D03*
X5990158D02*
D03*
Y2267716D02*
D03*
D113*
X1387795Y4889764D02*
D03*
Y4724409D02*
D03*
Y4559055D02*
D03*
X1171260Y4889764D02*
D03*
Y4724409D02*
D03*
Y4559055D02*
D03*
X5507874Y5590551D02*
D03*
X5830709D02*
D03*
X3448819Y4204724D02*
D03*
X3125984D02*
D03*
D114*
X2510866Y1412205D02*
D03*
X2410866D02*
D03*
X2510866Y1512205D02*
D03*
X2410866D02*
D03*
X2510866Y1612205D02*
D03*
X2410866D02*
D03*
X2510866Y1712205D02*
D03*
X2410866D02*
D03*
X2510866Y1812205D02*
D03*
X2410866D02*
D03*
X2510866Y1912205D02*
D03*
X2410866D02*
D03*
X2510866Y2012205D02*
D03*
X2410866D02*
D03*
X2510866Y2112205D02*
D03*
X2410866D02*
D03*
X2510866Y2212205D02*
D03*
X2410866D02*
D03*
X2510866Y2312205D02*
D03*
X2410866D02*
D03*
X2510866Y2412205D02*
D03*
X2410866D02*
D03*
X2510866Y2512205D02*
D03*
X2410866D02*
D03*
X2510866Y2612205D02*
D03*
X2410866D02*
D03*
X2510866Y2712205D02*
D03*
X2410866D02*
D03*
X2510866Y2812205D02*
D03*
X2410866D02*
D03*
X2510866Y2912205D02*
D03*
X2410866D02*
D03*
X2510866Y3012205D02*
D03*
X2410866D02*
D03*
X2510866Y3112205D02*
D03*
X2410866D02*
D03*
X2510866Y3212205D02*
D03*
X2410866D02*
D03*
X2510866Y3312205D02*
D03*
D115*
X2410866D02*
D03*
D116*
X1405512Y5206693D02*
D03*
Y5580709D02*
D03*
X1220472D02*
D03*
Y5206693D02*
D03*
D117*
X1476378Y5393701D02*
D03*
D118*
X1240158D02*
D03*
D119*
X1112205D02*
D03*
D120*
X5748032Y5590551D02*
D03*
X5669291D02*
D03*
X5590551D02*
D03*
X3208661Y4204724D02*
D03*
X3287402D02*
D03*
X3366142D02*
D03*
D121*
X3224409Y3962205D02*
D03*
Y3862205D02*
D03*
Y3762205D02*
D03*
X2480315Y3962205D02*
D03*
Y3862205D02*
D03*
Y3762205D02*
D03*
D122*
X5905512Y5905512D02*
D03*
X2460630Y3503937D02*
D03*
X1181102Y1181102D02*
D03*
X1200000Y5800000D02*
D03*
X5905512Y1181102D02*
D03*
X3996063Y3858268D02*
D03*
X5295276D02*
D03*
X3996063Y5748032D02*
D03*
X5295276D02*
D03*
X1555118Y3503937D02*
D03*
X2460630Y1220472D02*
D03*
X1555118D02*
D03*
D123*
X5960630Y4080709D02*
D03*
X5767717Y4104331D02*
D03*
X5960630Y4698819D02*
D03*
X5767717Y4675197D02*
D03*
D124*
X3339961Y4406299D02*
D03*
X3239961D02*
D03*
X3339961Y4806299D02*
D03*
X3239961D02*
D03*
Y4906299D02*
D03*
X3339961D02*
D03*
Y4706299D02*
D03*
X3239961D02*
D03*
X3339961Y4606299D02*
D03*
X3239961D02*
D03*
X3339961Y4506299D02*
D03*
X3239961D02*
D03*
D125*
X3920700Y1973280D02*
D03*
X3948539Y2001119D02*
D03*
X3976378Y2028958D02*
D03*
X4004217Y2001119D02*
D03*
X3976378Y1973280D02*
D03*
X3948539Y1945441D02*
D03*
X4115572Y1889764D02*
D03*
X4087733Y1861925D02*
D03*
X4059894Y1834086D02*
D03*
X4087733Y1917603D02*
D03*
X4059894Y1889764D02*
D03*
X4032056Y1861925D02*
D03*
X4059894Y1945441D02*
D03*
X4032056Y1917603D02*
D03*
X4004217Y1889764D02*
D03*
X4032056Y1973280D02*
D03*
X4004217Y1945441D02*
D03*
X3976378Y1917603D02*
D03*
X4032056Y1806247D02*
D03*
X4004217Y1778408D02*
D03*
X3976378Y1750570D02*
D03*
X3948539Y1778408D02*
D03*
X3976378Y1806247D02*
D03*
X4004217Y1834086D02*
D03*
X3837184Y1889764D02*
D03*
X3865023Y1917603D02*
D03*
X3892861Y1945441D02*
D03*
X3865023Y1861925D02*
D03*
X3892861Y1889764D02*
D03*
X3920700Y1917603D02*
D03*
X3892861Y1834086D02*
D03*
X3920700Y1861925D02*
D03*
X3948539Y1889764D02*
D03*
X3920700Y1806247D02*
D03*
X3948539Y1834086D02*
D03*
X3976378Y1861925D02*
D03*
D126*
X5519322Y1738553D02*
D03*
X5535329Y1722545D02*
D03*
X5487333Y2293179D02*
D03*
X5503341Y2277171D02*
D03*
X5502097Y2903415D02*
D03*
X5518104Y2887407D02*
D03*
X5531000Y2563000D02*
D03*
X5568000Y4213000D02*
D03*
X3195000Y5158000D02*
D03*
X2859000Y1466000D02*
D03*
X2790000Y1815000D02*
D03*
X2946000Y1474000D02*
D03*
D127*
X4893000Y3247000D02*
D03*
D128*
X3872000Y4596000D02*
D03*
X3873000Y4619000D02*
D03*
X5863000Y1761024D02*
D03*
Y1782614D02*
D03*
X5930000Y1761614D02*
D03*
Y1782480D02*
D03*
X5863000Y2352165D02*
D03*
Y2373032D02*
D03*
X5930000Y2352165D02*
D03*
Y2373032D02*
D03*
Y2964488D02*
D03*
Y2943780D02*
D03*
X5863000Y2964488D02*
D03*
Y2943780D02*
D03*
X3871877Y4644486D02*
D03*
X3873648Y4569883D02*
D03*
X3871458Y4531705D02*
D03*
X5642204Y2381299D02*
D03*
Y2402165D02*
D03*
X5629331Y1684646D02*
D03*
X5614724Y1699803D02*
D03*
X5629252Y2275276D02*
D03*
X5614803Y2290276D02*
D03*
X5668678Y1760630D02*
D03*
Y1782677D02*
D03*
Y2351968D02*
D03*
Y2372835D02*
D03*
X5640000Y1789764D02*
D03*
X5640986Y1812205D02*
D03*
X5668678Y2962795D02*
D03*
Y2941929D02*
D03*
X5614724Y2880905D02*
D03*
X5629331Y2865748D02*
D03*
X5642204Y2993110D02*
D03*
Y2972244D02*
D03*
X5755905Y1677165D02*
D03*
X5787402Y1740158D02*
D03*
X3881890Y4669291D02*
D03*
X5448819Y3751968D02*
D03*
Y3716535D02*
D03*
Y3610236D02*
D03*
Y3539370D02*
D03*
Y3503937D02*
D03*
X5708661Y1771653D02*
D03*
Y2952756D02*
D03*
Y2362205D02*
D03*
Y5118110D02*
D03*
X5905512Y1771653D02*
D03*
Y1757874D02*
D03*
Y1785433D02*
D03*
Y2952756D02*
D03*
Y2938976D02*
D03*
Y2966535D02*
D03*
Y2375984D02*
D03*
Y2348425D02*
D03*
Y2362205D02*
D03*
D129*
X3672000Y1798000D02*
D03*
X4246000Y1801000D02*
D03*
X5231000Y2923551D02*
D03*
Y2333000D02*
D03*
X3531496Y5468504D02*
D03*
X3185039Y5263779D02*
D03*
X3701772Y1822835D02*
D03*
X5314961Y4716535D02*
D03*
X5527559Y4338583D02*
D03*
X5905512Y1523622D02*
D03*
X5066929Y3665354D02*
D03*
X4889764Y4031496D02*
D03*
X3881890Y4952756D02*
D03*
X3739173Y4537402D02*
D03*
X3574803Y4370079D02*
D03*
X4127134Y4423000D02*
D03*
X3826772Y4125984D02*
D03*
X3976378Y4393701D02*
D03*
X4385827Y1921260D02*
D03*
X5330709Y2295276D02*
D03*
Y2885827D02*
D03*
Y3129921D02*
D03*
Y2539370D02*
D03*
X5547244Y2066929D02*
D03*
X4972441Y2137795D02*
D03*
Y2728347D02*
D03*
X5547244Y2657480D02*
D03*
X4082677Y4338583D02*
D03*
X4322835D02*
D03*
X4082677Y4401575D02*
D03*
X4188976D02*
D03*
X4153543Y2381890D02*
D03*
X3631890Y1978347D02*
D03*
X3677165Y1917323D02*
D03*
X3728347Y1795276D02*
D03*
X3724078Y1762205D02*
D03*
X4066929Y1632953D02*
D03*
X4146000Y1734000D02*
D03*
X3834900Y2128144D02*
D03*
X3737464Y2030708D02*
D03*
X3695706Y1988950D02*
D03*
X4103936Y1637464D02*
D03*
X4214758Y2031242D02*
D03*
X4061645Y2184355D02*
D03*
X4103403Y2142597D02*
D03*
X4173000Y2073000D02*
D03*
X5788000Y2924102D02*
D03*
X5975000Y2982102D02*
D03*
X5464000Y2982551D02*
D03*
Y2392000D02*
D03*
X4092056Y4506229D02*
D03*
X4091413Y4469413D02*
D03*
X3977000Y4512000D02*
D03*
X3976000Y4968000D02*
D03*
X5975000Y2391551D02*
D03*
X5788000Y2333551D02*
D03*
D130*
X2602000Y4749000D02*
D03*
X2110236Y5472441D02*
D03*
Y5354331D02*
D03*
D144*
X5836614Y5212598D02*
D03*
Y5244095D02*
D03*
Y5023622D02*
D03*
Y4992126D02*
D03*
D145*
Y5049213D02*
D03*
Y5068898D02*
D03*
Y5088583D02*
D03*
Y5108268D02*
D03*
Y5127953D02*
D03*
Y5147638D02*
D03*
Y5167323D02*
D03*
Y5187008D02*
D03*
D146*
X5950197Y2800000D02*
D03*
X5860827Y3105512D02*
D03*
X5950197Y1618898D02*
D03*
X5860827Y1924409D02*
D03*
X5950197Y2209449D02*
D03*
X5860827Y2514961D02*
D03*
D147*
Y2800000D02*
D03*
X5950197Y3105512D02*
D03*
X5860827Y1618898D02*
D03*
X5950197Y1924409D02*
D03*
X5860827Y2209449D02*
D03*
X5950197Y2514961D02*
D03*
D148*
X5938189Y2844488D02*
D03*
Y2864173D02*
D03*
Y2883858D02*
D03*
Y2903543D02*
D03*
Y2923228D02*
D03*
Y2942913D02*
D03*
Y2962598D02*
D03*
Y2982284D02*
D03*
Y3001968D02*
D03*
Y3021653D02*
D03*
Y3041339D02*
D03*
Y3061024D02*
D03*
X5872835D02*
D03*
Y3041339D02*
D03*
Y3021653D02*
D03*
Y3001968D02*
D03*
Y2982284D02*
D03*
Y2962598D02*
D03*
Y2942913D02*
D03*
Y2923228D02*
D03*
Y2903543D02*
D03*
Y2883858D02*
D03*
Y2864173D02*
D03*
Y2844488D02*
D03*
X5938189Y1663386D02*
D03*
Y1683071D02*
D03*
Y1702756D02*
D03*
Y1722441D02*
D03*
Y1742126D02*
D03*
Y1761811D02*
D03*
Y1781496D02*
D03*
Y1801181D02*
D03*
Y1820866D02*
D03*
Y1840551D02*
D03*
Y1860236D02*
D03*
Y1879921D02*
D03*
X5872835D02*
D03*
Y1860236D02*
D03*
Y1840551D02*
D03*
Y1820866D02*
D03*
Y1801181D02*
D03*
Y1781496D02*
D03*
Y1761811D02*
D03*
Y1742126D02*
D03*
Y1722441D02*
D03*
Y1702756D02*
D03*
Y1683071D02*
D03*
Y1663386D02*
D03*
X5938189Y2253937D02*
D03*
Y2273622D02*
D03*
Y2293307D02*
D03*
Y2312992D02*
D03*
Y2332677D02*
D03*
Y2352362D02*
D03*
Y2372047D02*
D03*
Y2391732D02*
D03*
Y2411417D02*
D03*
Y2431102D02*
D03*
Y2450787D02*
D03*
Y2470472D02*
D03*
X5872835D02*
D03*
Y2450787D02*
D03*
Y2431102D02*
D03*
Y2411417D02*
D03*
Y2391732D02*
D03*
Y2372047D02*
D03*
Y2352362D02*
D03*
Y2332677D02*
D03*
Y2312992D02*
D03*
Y2293307D02*
D03*
Y2273622D02*
D03*
Y2253937D02*
D03*
D149*
X3614173Y3393701D02*
D03*
Y3354331D02*
D03*
X3582677D02*
D03*
Y3393701D02*
D03*
Y3433071D02*
D03*
X3645669Y3354331D02*
D03*
Y3393701D02*
D03*
Y3433071D02*
D03*
D150*
X3447835Y5468504D02*
D03*
X3284449D02*
D03*
D151*
X5691929Y5118110D02*
D03*
X5725394Y5131890D02*
D03*
Y5104331D02*
D03*
Y1771653D02*
D03*
X5691929Y1757874D02*
D03*
Y1785433D02*
D03*
X5725394Y2362205D02*
D03*
X5691929Y2348425D02*
D03*
Y2375984D02*
D03*
X5725394Y2952756D02*
D03*
X5691929Y2938976D02*
D03*
Y2966535D02*
D03*
D152*
X5271654Y3604331D02*
D03*
X5169291Y3679134D02*
D03*
Y3604331D02*
D03*
X5271654Y3641732D02*
D03*
Y3679134D02*
D03*
D153*
X5610236Y5265748D02*
D03*
X5647638Y5187008D02*
D03*
X5572835D02*
D03*
D154*
X1779528Y5696850D02*
D03*
Y5787402D02*
D03*
Y5877953D02*
D03*
D155*
X1527559Y5787402D02*
D03*
D156*
X5571850Y2913386D02*
D03*
Y2933071D02*
D03*
Y2952756D02*
D03*
Y2972441D02*
D03*
Y2992126D02*
D03*
X5609252D02*
D03*
Y2972441D02*
D03*
Y2952756D02*
D03*
Y2933071D02*
D03*
Y2913386D02*
D03*
X5571850Y1732283D02*
D03*
Y1751968D02*
D03*
Y1771653D02*
D03*
Y1791339D02*
D03*
Y1811024D02*
D03*
X5609252D02*
D03*
Y1791339D02*
D03*
Y1771653D02*
D03*
Y1751968D02*
D03*
Y1732283D02*
D03*
X5571850Y2322835D02*
D03*
Y2342520D02*
D03*
Y2362205D02*
D03*
Y2381890D02*
D03*
Y2401575D02*
D03*
X5609252D02*
D03*
Y2381890D02*
D03*
Y2362205D02*
D03*
Y2342520D02*
D03*
Y2322835D02*
D03*
D157*
X1929134Y5793307D02*
D03*
Y5708661D02*
D03*
D158*
X3011811Y5393701D02*
D03*
D159*
X2913386Y5468701D02*
D03*
Y5418701D02*
D03*
Y5318701D02*
D03*
Y5368701D02*
D03*
X3110236D02*
D03*
Y5318701D02*
D03*
Y5418701D02*
D03*
Y5468701D02*
D03*
D160*
X2216142Y4885039D02*
D03*
X2306299D02*
D03*
X1945669D02*
D03*
X2035827D02*
D03*
X2125984D02*
D03*
X2216142Y4794882D02*
D03*
X2306299D02*
D03*
X1945669D02*
D03*
X2035827D02*
D03*
X2125984D02*
D03*
X2216142Y4704724D02*
D03*
X2306299D02*
D03*
X1945669D02*
D03*
X2035827D02*
D03*
X2125984D02*
D03*
Y4614567D02*
D03*
X2035827D02*
D03*
X1945669D02*
D03*
X2306299D02*
D03*
X2216142D02*
D03*
X2125984Y4524409D02*
D03*
X2035827D02*
D03*
X1945669D02*
D03*
X2306299D02*
D03*
X2216142D02*
D03*
D161*
X3976378Y1889764D02*
D03*
D162*
X4109309Y2008775D02*
D03*
X4123228Y1994855D02*
D03*
X4137147Y1980936D02*
D03*
X4151067Y1967017D02*
D03*
X4164986Y1953097D02*
D03*
X4178906Y1939178D02*
D03*
X4192825Y1925258D02*
D03*
X4206744Y1911339D02*
D03*
X4095389Y2022694D02*
D03*
X4081470Y2036614D02*
D03*
X4067550Y2050533D02*
D03*
X4053631Y2064453D02*
D03*
X4039711Y2078372D02*
D03*
X4025792Y2092291D02*
D03*
X4011872Y2106211D02*
D03*
X3997953Y2120130D02*
D03*
X3843448Y1770753D02*
D03*
X3829528Y1784672D02*
D03*
X3815609Y1798592D02*
D03*
X3801689Y1812511D02*
D03*
X3787770Y1826430D02*
D03*
X3773850Y1840350D02*
D03*
X3759931Y1854269D02*
D03*
X3746012Y1868189D02*
D03*
X3857367Y1756833D02*
D03*
X3871286Y1742914D02*
D03*
X3885206Y1728994D02*
D03*
X3899125Y1715075D02*
D03*
X3913045Y1701156D02*
D03*
X3926964Y1687236D02*
D03*
X3940883Y1673317D02*
D03*
X3954803Y1659397D02*
D03*
D163*
X3857367Y2022694D02*
D03*
X3871286Y2036614D02*
D03*
X3885206Y2050533D02*
D03*
X3899125Y2064453D02*
D03*
X3913045Y2078372D02*
D03*
X3926964Y2092291D02*
D03*
X3940883Y2106211D02*
D03*
X3954803Y2120130D02*
D03*
X3843448Y2008775D02*
D03*
X3829528Y1994855D02*
D03*
X3815609Y1980936D02*
D03*
X3801689Y1967017D02*
D03*
X3787770Y1953097D02*
D03*
X3773850Y1939178D02*
D03*
X3759931Y1925258D02*
D03*
X3746012Y1911339D02*
D03*
X4095389Y1756833D02*
D03*
X4081470Y1742914D02*
D03*
X4067550Y1728994D02*
D03*
X4053631Y1715075D02*
D03*
X4039711Y1701156D02*
D03*
X4025792Y1687236D02*
D03*
X4011872Y1673317D02*
D03*
X3997953Y1659397D02*
D03*
X4109309Y1770753D02*
D03*
X4123228Y1784672D02*
D03*
X4137147Y1798592D02*
D03*
X4151067Y1812511D02*
D03*
X4164986Y1826430D02*
D03*
X4178906Y1840350D02*
D03*
X4192825Y1854269D02*
D03*
X4206744Y1868189D02*
D03*
D164*
X2007874Y5141732D02*
D03*
Y5251968D02*
D03*
D165*
X5728346Y4576772D02*
D03*
Y4557087D02*
D03*
Y4537402D02*
D03*
Y4498032D02*
D03*
Y4458661D02*
D03*
Y4517717D02*
D03*
Y4478346D02*
D03*
Y4438976D02*
D03*
Y4419291D02*
D03*
Y4399606D02*
D03*
Y4222441D02*
D03*
Y4242126D02*
D03*
Y4281496D02*
D03*
Y4320866D02*
D03*
Y4261811D02*
D03*
Y4301181D02*
D03*
Y4340551D02*
D03*
Y4360236D02*
D03*
Y4379921D02*
D03*
D166*
X3472441Y5137795D02*
D03*
X3732284D02*
D03*
X3905512Y2716535D02*
D03*
X4165354D02*
D03*
X3692913D02*
D03*
X3433071D02*
D03*
D167*
X3734252Y4842520D02*
D03*
X3568898D02*
D03*
D168*
X5361811Y4732283D02*
D03*
Y4748032D02*
D03*
Y4763780D02*
D03*
Y4779528D02*
D03*
Y4795276D02*
D03*
Y4811024D02*
D03*
Y4826772D02*
D03*
Y4842520D02*
D03*
Y4858268D02*
D03*
Y4874016D02*
D03*
Y4889764D02*
D03*
Y4905512D02*
D03*
Y4921260D02*
D03*
Y4937008D02*
D03*
Y4952756D02*
D03*
Y4968504D02*
D03*
Y4984252D02*
D03*
Y5000000D02*
D03*
Y5015748D02*
D03*
Y5031496D02*
D03*
Y5047244D02*
D03*
Y5062992D02*
D03*
Y5078740D02*
D03*
Y5094488D02*
D03*
Y5110236D02*
D03*
Y4338583D02*
D03*
Y4354331D02*
D03*
Y4370079D02*
D03*
Y4385827D02*
D03*
Y4401575D02*
D03*
Y4417323D02*
D03*
Y4433071D02*
D03*
Y4448819D02*
D03*
Y4464567D02*
D03*
Y4480315D02*
D03*
Y4496063D02*
D03*
Y4511811D02*
D03*
Y4527559D02*
D03*
Y4543307D02*
D03*
Y4559055D02*
D03*
Y4574803D02*
D03*
Y4590551D02*
D03*
Y4606299D02*
D03*
Y4622047D02*
D03*
Y4637795D02*
D03*
Y4653543D02*
D03*
Y4669291D02*
D03*
Y4685039D02*
D03*
Y4700788D02*
D03*
Y4716535D02*
D03*
X5268110Y4732283D02*
D03*
Y4748032D02*
D03*
Y4763780D02*
D03*
Y4779528D02*
D03*
Y4795276D02*
D03*
Y4811024D02*
D03*
Y4826772D02*
D03*
Y4842520D02*
D03*
Y4858268D02*
D03*
Y4874016D02*
D03*
Y4889764D02*
D03*
Y4905512D02*
D03*
Y4921260D02*
D03*
Y4937008D02*
D03*
Y4952756D02*
D03*
Y4968504D02*
D03*
Y4984252D02*
D03*
Y5000000D02*
D03*
Y5015748D02*
D03*
Y5031496D02*
D03*
Y5047244D02*
D03*
Y5062992D02*
D03*
Y5078740D02*
D03*
Y5094488D02*
D03*
Y5110236D02*
D03*
Y4338583D02*
D03*
Y4354331D02*
D03*
Y4370079D02*
D03*
Y4385827D02*
D03*
Y4401575D02*
D03*
Y4417323D02*
D03*
Y4433071D02*
D03*
Y4448819D02*
D03*
Y4464567D02*
D03*
Y4480315D02*
D03*
Y4496063D02*
D03*
Y4511811D02*
D03*
Y4527559D02*
D03*
Y4543307D02*
D03*
Y4559055D02*
D03*
Y4574803D02*
D03*
Y4590551D02*
D03*
Y4606299D02*
D03*
Y4622047D02*
D03*
Y4637795D02*
D03*
Y4653543D02*
D03*
Y4669291D02*
D03*
Y4685039D02*
D03*
Y4700788D02*
D03*
Y4716535D02*
D03*
X4023228Y4732283D02*
D03*
Y4748032D02*
D03*
Y4763780D02*
D03*
Y4779528D02*
D03*
Y4795276D02*
D03*
Y4811024D02*
D03*
Y4826772D02*
D03*
Y4842520D02*
D03*
Y4858268D02*
D03*
Y4874016D02*
D03*
Y4889764D02*
D03*
Y4905512D02*
D03*
Y4921260D02*
D03*
Y4937008D02*
D03*
Y4952756D02*
D03*
Y4968504D02*
D03*
Y4984252D02*
D03*
Y5000000D02*
D03*
Y5015748D02*
D03*
Y5031496D02*
D03*
Y5047244D02*
D03*
Y5062992D02*
D03*
Y5078740D02*
D03*
Y5094488D02*
D03*
Y5110236D02*
D03*
Y4338583D02*
D03*
Y4354331D02*
D03*
Y4370079D02*
D03*
Y4385827D02*
D03*
Y4401575D02*
D03*
Y4417323D02*
D03*
Y4433071D02*
D03*
Y4448819D02*
D03*
Y4464567D02*
D03*
Y4480315D02*
D03*
Y4496063D02*
D03*
Y4511811D02*
D03*
Y4527559D02*
D03*
Y4543307D02*
D03*
Y4559055D02*
D03*
Y4574803D02*
D03*
Y4590551D02*
D03*
Y4606299D02*
D03*
Y4622047D02*
D03*
Y4637795D02*
D03*
Y4653543D02*
D03*
Y4669291D02*
D03*
Y4685039D02*
D03*
Y4700788D02*
D03*
Y4716535D02*
D03*
X3929528Y4732283D02*
D03*
Y4748032D02*
D03*
Y4763780D02*
D03*
Y4779528D02*
D03*
Y4795276D02*
D03*
Y4811024D02*
D03*
Y4826772D02*
D03*
Y4842520D02*
D03*
Y4858268D02*
D03*
Y4874016D02*
D03*
Y4889764D02*
D03*
Y4905512D02*
D03*
Y4921260D02*
D03*
Y4937008D02*
D03*
Y4952756D02*
D03*
Y4968504D02*
D03*
Y4984252D02*
D03*
Y5000000D02*
D03*
Y5015748D02*
D03*
Y5031496D02*
D03*
Y5047244D02*
D03*
Y5062992D02*
D03*
Y5078740D02*
D03*
Y5094488D02*
D03*
Y5110236D02*
D03*
Y4338583D02*
D03*
Y4354331D02*
D03*
Y4370079D02*
D03*
Y4385827D02*
D03*
Y4401575D02*
D03*
Y4417323D02*
D03*
Y4433071D02*
D03*
Y4448819D02*
D03*
Y4464567D02*
D03*
Y4480315D02*
D03*
Y4496063D02*
D03*
Y4511811D02*
D03*
Y4527559D02*
D03*
Y4543307D02*
D03*
Y4559055D02*
D03*
Y4574803D02*
D03*
Y4590551D02*
D03*
Y4606299D02*
D03*
Y4622047D02*
D03*
Y4637795D02*
D03*
Y4653543D02*
D03*
Y4669291D02*
D03*
Y4685039D02*
D03*
Y4700788D02*
D03*
Y4716535D02*
D03*
D169*
X5966732Y3937008D02*
D03*
Y3385827D02*
D03*
X5890748D02*
D03*
D170*
X5774606Y3383858D02*
D03*
X5668307Y3927165D02*
D03*
X5882874D02*
D03*
D171*
X5514764Y3379921D02*
D03*
Y3942913D02*
D03*
X6054134Y3381009D02*
D03*
X6054492Y3944016D02*
D03*
D172*
X5500000Y3440157D02*
D03*
Y3539370D02*
D03*
Y3574803D02*
D03*
Y3610236D02*
D03*
Y3645669D02*
D03*
Y3681102D02*
D03*
Y3716535D02*
D03*
Y3751968D02*
D03*
Y3503937D02*
D03*
D173*
X2933661Y3606102D02*
D03*
Y3346260D02*
D03*
Y2921260D02*
D03*
Y3181102D02*
D03*
D174*
X5439370Y4200000D02*
D03*
X5518110Y4237402D02*
D03*
Y4162598D02*
D03*
D175*
X3773622Y4264961D02*
D03*
X3698819Y4162598D02*
D03*
X3773622D02*
D03*
X3736220Y4264961D02*
D03*
X3698819D02*
D03*
%TF.MD5,8923590f06a96f8ec2a46d94934d20d7*%
M02*
