%TF.GenerationSoftware,Altium Limited,Altium Designer,22.2.1 (43)*%
G04 Layer_Color=2752767*
%FSLAX26Y26*%
%MOIN*%
%TF.SameCoordinates,92DA24ED-A250-4A13-B4DD-B7D196A9CFE6*%
%TF.FilePolarity,Positive*%
%TF.FileFunction,Drawing*%
%TF.Part,Single*%
G01*
G75*
%TA.AperFunction,NonConductor*%
%ADD201C,0.005000*%
%ADD202C,0.006667*%
%ADD203C,0.004000*%
D201*
X6019370Y4876850D02*
Y4916850D01*
X6059370D01*
Y4876850D01*
X6019370D01*
Y5319370D02*
Y5359370D01*
X6059370D01*
Y5319370D01*
X6019370D01*
X5905512Y3080394D02*
X5885512Y3120394D01*
X5925512D01*
X5905512Y3080394D01*
Y2785118D02*
X5915512Y2795118D01*
X5925512D01*
X5915512Y2805118D01*
X5925512Y2815118D01*
X5915512D01*
X5905512Y2825118D01*
X5895512Y2815118D01*
X5885512D01*
X5895512Y2805118D01*
X5885512Y2795118D01*
X5895512D01*
X5905512Y2785118D01*
X5800866Y2838268D02*
X5810866Y2858268D01*
X5800866Y2878268D01*
X5820866Y2868268D01*
X5840866Y2878268D01*
X5830866Y2858268D01*
X5840866Y2838268D01*
X5820866Y2848268D01*
X5800866Y2838268D01*
Y3027244D02*
X5810866Y3047244D01*
X5800866Y3067244D01*
X5820866Y3057244D01*
X5840866Y3067244D01*
X5830866Y3047244D01*
X5840866Y3027244D01*
X5820866Y3037244D01*
X5800866Y3027244D01*
X5970158D02*
X5980158Y3047244D01*
X5970158Y3067244D01*
X5990158Y3057244D01*
X6010158Y3067244D01*
X6000158Y3047244D01*
X6010158Y3027244D01*
X5990158Y3037244D01*
X5970158Y3027244D01*
Y2838268D02*
X5980158Y2858268D01*
X5970158Y2878268D01*
X5990158Y2868268D01*
X6010158Y2878268D01*
X6000158Y2858268D01*
X6010158Y2838268D01*
X5990158Y2848268D01*
X5970158Y2838268D01*
X1377795Y4879764D02*
Y4869764D01*
X1397795D01*
Y4879764D01*
X1407795D01*
Y4899764D01*
X1397795D01*
Y4909764D01*
X1377795D01*
Y4899764D01*
X1367795D01*
Y4879764D01*
X1377795D01*
Y4714409D02*
Y4704409D01*
X1397795D01*
Y4714409D01*
X1407795D01*
Y4734409D01*
X1397795D01*
Y4744409D01*
X1377795D01*
Y4734409D01*
X1367795D01*
Y4714409D01*
X1377795D01*
Y4549055D02*
Y4539055D01*
X1397795D01*
Y4549055D01*
X1407795D01*
Y4569055D01*
X1397795D01*
Y4579055D01*
X1377795D01*
Y4569055D01*
X1367795D01*
Y4549055D01*
X1377795D01*
X1161260Y4879764D02*
Y4869764D01*
X1181260D01*
Y4879764D01*
X1191260D01*
Y4899764D01*
X1181260D01*
Y4909764D01*
X1161260D01*
Y4899764D01*
X1151260D01*
Y4879764D01*
X1161260D01*
Y4714409D02*
Y4704409D01*
X1181260D01*
Y4714409D01*
X1191260D01*
Y4734409D01*
X1181260D01*
Y4744409D01*
X1161260D01*
Y4734409D01*
X1151260D01*
Y4714409D01*
X1161260D01*
Y4549055D02*
Y4539055D01*
X1181260D01*
Y4549055D01*
X1191260D01*
Y4569055D01*
X1181260D01*
Y4579055D01*
X1161260D01*
Y4569055D01*
X1151260D01*
Y4549055D01*
X1161260D01*
X2490866Y1392205D02*
X2500866D01*
X2510866Y1402205D01*
X2520866Y1392205D01*
X2530866D01*
Y1402205D01*
X2520866Y1412205D01*
X2530866Y1422205D01*
Y1432205D01*
X2520866D01*
X2510866Y1422205D01*
X2500866Y1432205D01*
X2490866D01*
Y1422205D01*
X2500866Y1412205D01*
X2490866Y1402205D01*
Y1392205D01*
X2390866D02*
X2400866D01*
X2410866Y1402205D01*
X2420866Y1392205D01*
X2430866D01*
Y1402205D01*
X2420866Y1412205D01*
X2430866Y1422205D01*
Y1432205D01*
X2420866D01*
X2410866Y1422205D01*
X2400866Y1432205D01*
X2390866D01*
Y1422205D01*
X2400866Y1412205D01*
X2390866Y1402205D01*
Y1392205D01*
X2490866Y1492205D02*
X2500866D01*
X2510866Y1502205D01*
X2520866Y1492205D01*
X2530866D01*
Y1502205D01*
X2520866Y1512205D01*
X2530866Y1522205D01*
Y1532205D01*
X2520866D01*
X2510866Y1522205D01*
X2500866Y1532205D01*
X2490866D01*
Y1522205D01*
X2500866Y1512205D01*
X2490866Y1502205D01*
Y1492205D01*
X2390866D02*
X2400866D01*
X2410866Y1502205D01*
X2420866Y1492205D01*
X2430866D01*
Y1502205D01*
X2420866Y1512205D01*
X2430866Y1522205D01*
Y1532205D01*
X2420866D01*
X2410866Y1522205D01*
X2400866Y1532205D01*
X2390866D01*
Y1522205D01*
X2400866Y1512205D01*
X2390866Y1502205D01*
Y1492205D01*
X2490866Y1592205D02*
X2500866D01*
X2510866Y1602205D01*
X2520866Y1592205D01*
X2530866D01*
Y1602205D01*
X2520866Y1612205D01*
X2530866Y1622205D01*
Y1632205D01*
X2520866D01*
X2510866Y1622205D01*
X2500866Y1632205D01*
X2490866D01*
Y1622205D01*
X2500866Y1612205D01*
X2490866Y1602205D01*
Y1592205D01*
X2390866D02*
X2400866D01*
X2410866Y1602205D01*
X2420866Y1592205D01*
X2430866D01*
Y1602205D01*
X2420866Y1612205D01*
X2430866Y1622205D01*
Y1632205D01*
X2420866D01*
X2410866Y1622205D01*
X2400866Y1632205D01*
X2390866D01*
Y1622205D01*
X2400866Y1612205D01*
X2390866Y1602205D01*
Y1592205D01*
X2490866Y1692205D02*
X2500866D01*
X2510866Y1702205D01*
X2520866Y1692205D01*
X2530866D01*
Y1702205D01*
X2520866Y1712205D01*
X2530866Y1722205D01*
Y1732205D01*
X2520866D01*
X2510866Y1722205D01*
X2500866Y1732205D01*
X2490866D01*
Y1722205D01*
X2500866Y1712205D01*
X2490866Y1702205D01*
Y1692205D01*
X2390866D02*
X2400866D01*
X2410866Y1702205D01*
X2420866Y1692205D01*
X2430866D01*
Y1702205D01*
X2420866Y1712205D01*
X2430866Y1722205D01*
Y1732205D01*
X2420866D01*
X2410866Y1722205D01*
X2400866Y1732205D01*
X2390866D01*
Y1722205D01*
X2400866Y1712205D01*
X2390866Y1702205D01*
Y1692205D01*
X2490866Y1792205D02*
X2500866D01*
X2510866Y1802205D01*
X2520866Y1792205D01*
X2530866D01*
Y1802205D01*
X2520866Y1812205D01*
X2530866Y1822205D01*
Y1832205D01*
X2520866D01*
X2510866Y1822205D01*
X2500866Y1832205D01*
X2490866D01*
Y1822205D01*
X2500866Y1812205D01*
X2490866Y1802205D01*
Y1792205D01*
X2390866D02*
X2400866D01*
X2410866Y1802205D01*
X2420866Y1792205D01*
X2430866D01*
Y1802205D01*
X2420866Y1812205D01*
X2430866Y1822205D01*
Y1832205D01*
X2420866D01*
X2410866Y1822205D01*
X2400866Y1832205D01*
X2390866D01*
Y1822205D01*
X2400866Y1812205D01*
X2390866Y1802205D01*
Y1792205D01*
X2490866Y1892205D02*
X2500866D01*
X2510866Y1902205D01*
X2520866Y1892205D01*
X2530866D01*
Y1902205D01*
X2520866Y1912205D01*
X2530866Y1922205D01*
Y1932205D01*
X2520866D01*
X2510866Y1922205D01*
X2500866Y1932205D01*
X2490866D01*
Y1922205D01*
X2500866Y1912205D01*
X2490866Y1902205D01*
Y1892205D01*
X2390866D02*
X2400866D01*
X2410866Y1902205D01*
X2420866Y1892205D01*
X2430866D01*
Y1902205D01*
X2420866Y1912205D01*
X2430866Y1922205D01*
Y1932205D01*
X2420866D01*
X2410866Y1922205D01*
X2400866Y1932205D01*
X2390866D01*
Y1922205D01*
X2400866Y1912205D01*
X2390866Y1902205D01*
Y1892205D01*
X2490866Y1992205D02*
X2500866D01*
X2510866Y2002205D01*
X2520866Y1992205D01*
X2530866D01*
Y2002205D01*
X2520866Y2012205D01*
X2530866Y2022205D01*
Y2032205D01*
X2520866D01*
X2510866Y2022205D01*
X2500866Y2032205D01*
X2490866D01*
Y2022205D01*
X2500866Y2012205D01*
X2490866Y2002205D01*
Y1992205D01*
X2390866D02*
X2400866D01*
X2410866Y2002205D01*
X2420866Y1992205D01*
X2430866D01*
Y2002205D01*
X2420866Y2012205D01*
X2430866Y2022205D01*
Y2032205D01*
X2420866D01*
X2410866Y2022205D01*
X2400866Y2032205D01*
X2390866D01*
Y2022205D01*
X2400866Y2012205D01*
X2390866Y2002205D01*
Y1992205D01*
X2490866Y2092205D02*
X2500866D01*
X2510866Y2102205D01*
X2520866Y2092205D01*
X2530866D01*
Y2102205D01*
X2520866Y2112205D01*
X2530866Y2122205D01*
Y2132205D01*
X2520866D01*
X2510866Y2122205D01*
X2500866Y2132205D01*
X2490866D01*
Y2122205D01*
X2500866Y2112205D01*
X2490866Y2102205D01*
Y2092205D01*
X2390866D02*
X2400866D01*
X2410866Y2102205D01*
X2420866Y2092205D01*
X2430866D01*
Y2102205D01*
X2420866Y2112205D01*
X2430866Y2122205D01*
Y2132205D01*
X2420866D01*
X2410866Y2122205D01*
X2400866Y2132205D01*
X2390866D01*
Y2122205D01*
X2400866Y2112205D01*
X2390866Y2102205D01*
Y2092205D01*
X2490866Y2192205D02*
X2500866D01*
X2510866Y2202205D01*
X2520866Y2192205D01*
X2530866D01*
Y2202205D01*
X2520866Y2212205D01*
X2530866Y2222205D01*
Y2232205D01*
X2520866D01*
X2510866Y2222205D01*
X2500866Y2232205D01*
X2490866D01*
Y2222205D01*
X2500866Y2212205D01*
X2490866Y2202205D01*
Y2192205D01*
X2390866D02*
X2400866D01*
X2410866Y2202205D01*
X2420866Y2192205D01*
X2430866D01*
Y2202205D01*
X2420866Y2212205D01*
X2430866Y2222205D01*
Y2232205D01*
X2420866D01*
X2410866Y2222205D01*
X2400866Y2232205D01*
X2390866D01*
Y2222205D01*
X2400866Y2212205D01*
X2390866Y2202205D01*
Y2192205D01*
X2490866Y2292205D02*
X2500866D01*
X2510866Y2302205D01*
X2520866Y2292205D01*
X2530866D01*
Y2302205D01*
X2520866Y2312205D01*
X2530866Y2322205D01*
Y2332205D01*
X2520866D01*
X2510866Y2322205D01*
X2500866Y2332205D01*
X2490866D01*
Y2322205D01*
X2500866Y2312205D01*
X2490866Y2302205D01*
Y2292205D01*
X2390866D02*
X2400866D01*
X2410866Y2302205D01*
X2420866Y2292205D01*
X2430866D01*
Y2302205D01*
X2420866Y2312205D01*
X2430866Y2322205D01*
Y2332205D01*
X2420866D01*
X2410866Y2322205D01*
X2400866Y2332205D01*
X2390866D01*
Y2322205D01*
X2400866Y2312205D01*
X2390866Y2302205D01*
Y2292205D01*
X2490866Y2392205D02*
X2500866D01*
X2510866Y2402205D01*
X2520866Y2392205D01*
X2530866D01*
Y2402205D01*
X2520866Y2412205D01*
X2530866Y2422205D01*
Y2432205D01*
X2520866D01*
X2510866Y2422205D01*
X2500866Y2432205D01*
X2490866D01*
Y2422205D01*
X2500866Y2412205D01*
X2490866Y2402205D01*
Y2392205D01*
X2390866D02*
X2400866D01*
X2410866Y2402205D01*
X2420866Y2392205D01*
X2430866D01*
Y2402205D01*
X2420866Y2412205D01*
X2430866Y2422205D01*
Y2432205D01*
X2420866D01*
X2410866Y2422205D01*
X2400866Y2432205D01*
X2390866D01*
Y2422205D01*
X2400866Y2412205D01*
X2390866Y2402205D01*
Y2392205D01*
X2490866Y2492205D02*
X2500866D01*
X2510866Y2502205D01*
X2520866Y2492205D01*
X2530866D01*
Y2502205D01*
X2520866Y2512205D01*
X2530866Y2522205D01*
Y2532205D01*
X2520866D01*
X2510866Y2522205D01*
X2500866Y2532205D01*
X2490866D01*
Y2522205D01*
X2500866Y2512205D01*
X2490866Y2502205D01*
Y2492205D01*
X2390866D02*
X2400866D01*
X2410866Y2502205D01*
X2420866Y2492205D01*
X2430866D01*
Y2502205D01*
X2420866Y2512205D01*
X2430866Y2522205D01*
Y2532205D01*
X2420866D01*
X2410866Y2522205D01*
X2400866Y2532205D01*
X2390866D01*
Y2522205D01*
X2400866Y2512205D01*
X2390866Y2502205D01*
Y2492205D01*
X2490866Y2592205D02*
X2500866D01*
X2510866Y2602205D01*
X2520866Y2592205D01*
X2530866D01*
Y2602205D01*
X2520866Y2612205D01*
X2530866Y2622205D01*
Y2632205D01*
X2520866D01*
X2510866Y2622205D01*
X2500866Y2632205D01*
X2490866D01*
Y2622205D01*
X2500866Y2612205D01*
X2490866Y2602205D01*
Y2592205D01*
X2390866D02*
X2400866D01*
X2410866Y2602205D01*
X2420866Y2592205D01*
X2430866D01*
Y2602205D01*
X2420866Y2612205D01*
X2430866Y2622205D01*
Y2632205D01*
X2420866D01*
X2410866Y2622205D01*
X2400866Y2632205D01*
X2390866D01*
Y2622205D01*
X2400866Y2612205D01*
X2390866Y2602205D01*
Y2592205D01*
X2490866Y2692205D02*
X2500866D01*
X2510866Y2702205D01*
X2520866Y2692205D01*
X2530866D01*
Y2702205D01*
X2520866Y2712205D01*
X2530866Y2722205D01*
Y2732205D01*
X2520866D01*
X2510866Y2722205D01*
X2500866Y2732205D01*
X2490866D01*
Y2722205D01*
X2500866Y2712205D01*
X2490866Y2702205D01*
Y2692205D01*
X2390866D02*
X2400866D01*
X2410866Y2702205D01*
X2420866Y2692205D01*
X2430866D01*
Y2702205D01*
X2420866Y2712205D01*
X2430866Y2722205D01*
Y2732205D01*
X2420866D01*
X2410866Y2722205D01*
X2400866Y2732205D01*
X2390866D01*
Y2722205D01*
X2400866Y2712205D01*
X2390866Y2702205D01*
Y2692205D01*
X2490866Y2792205D02*
X2500866D01*
X2510866Y2802205D01*
X2520866Y2792205D01*
X2530866D01*
Y2802205D01*
X2520866Y2812205D01*
X2530866Y2822205D01*
Y2832205D01*
X2520866D01*
X2510866Y2822205D01*
X2500866Y2832205D01*
X2490866D01*
Y2822205D01*
X2500866Y2812205D01*
X2490866Y2802205D01*
Y2792205D01*
X2390866D02*
X2400866D01*
X2410866Y2802205D01*
X2420866Y2792205D01*
X2430866D01*
Y2802205D01*
X2420866Y2812205D01*
X2430866Y2822205D01*
Y2832205D01*
X2420866D01*
X2410866Y2822205D01*
X2400866Y2832205D01*
X2390866D01*
Y2822205D01*
X2400866Y2812205D01*
X2390866Y2802205D01*
Y2792205D01*
X2490866Y2892205D02*
X2500866D01*
X2510866Y2902205D01*
X2520866Y2892205D01*
X2530866D01*
Y2902205D01*
X2520866Y2912205D01*
X2530866Y2922205D01*
Y2932205D01*
X2520866D01*
X2510866Y2922205D01*
X2500866Y2932205D01*
X2490866D01*
Y2922205D01*
X2500866Y2912205D01*
X2490866Y2902205D01*
Y2892205D01*
X2390866D02*
X2400866D01*
X2410866Y2902205D01*
X2420866Y2892205D01*
X2430866D01*
Y2902205D01*
X2420866Y2912205D01*
X2430866Y2922205D01*
Y2932205D01*
X2420866D01*
X2410866Y2922205D01*
X2400866Y2932205D01*
X2390866D01*
Y2922205D01*
X2400866Y2912205D01*
X2390866Y2902205D01*
Y2892205D01*
X2490866Y2992205D02*
X2500866D01*
X2510866Y3002205D01*
X2520866Y2992205D01*
X2530866D01*
Y3002205D01*
X2520866Y3012205D01*
X2530866Y3022205D01*
Y3032205D01*
X2520866D01*
X2510866Y3022205D01*
X2500866Y3032205D01*
X2490866D01*
Y3022205D01*
X2500866Y3012205D01*
X2490866Y3002205D01*
Y2992205D01*
X2390866D02*
X2400866D01*
X2410866Y3002205D01*
X2420866Y2992205D01*
X2430866D01*
Y3002205D01*
X2420866Y3012205D01*
X2430866Y3022205D01*
Y3032205D01*
X2420866D01*
X2410866Y3022205D01*
X2400866Y3032205D01*
X2390866D01*
Y3022205D01*
X2400866Y3012205D01*
X2390866Y3002205D01*
Y2992205D01*
X2490866Y3092205D02*
X2500866D01*
X2510866Y3102205D01*
X2520866Y3092205D01*
X2530866D01*
Y3102205D01*
X2520866Y3112205D01*
X2530866Y3122205D01*
Y3132205D01*
X2520866D01*
X2510866Y3122205D01*
X2500866Y3132205D01*
X2490866D01*
Y3122205D01*
X2500866Y3112205D01*
X2490866Y3102205D01*
Y3092205D01*
X2390866D02*
X2400866D01*
X2410866Y3102205D01*
X2420866Y3092205D01*
X2430866D01*
Y3102205D01*
X2420866Y3112205D01*
X2430866Y3122205D01*
Y3132205D01*
X2420866D01*
X2410866Y3122205D01*
X2400866Y3132205D01*
X2390866D01*
Y3122205D01*
X2400866Y3112205D01*
X2390866Y3102205D01*
Y3092205D01*
X2490866Y3192205D02*
X2500866D01*
X2510866Y3202205D01*
X2520866Y3192205D01*
X2530866D01*
Y3202205D01*
X2520866Y3212205D01*
X2530866Y3222205D01*
Y3232205D01*
X2520866D01*
X2510866Y3222205D01*
X2500866Y3232205D01*
X2490866D01*
Y3222205D01*
X2500866Y3212205D01*
X2490866Y3202205D01*
Y3192205D01*
X2390866D02*
X2400866D01*
X2410866Y3202205D01*
X2420866Y3192205D01*
X2430866D01*
Y3202205D01*
X2420866Y3212205D01*
X2430866Y3222205D01*
Y3232205D01*
X2420866D01*
X2410866Y3222205D01*
X2400866Y3232205D01*
X2390866D01*
Y3222205D01*
X2400866Y3212205D01*
X2390866Y3202205D01*
Y3192205D01*
X2490866Y3292205D02*
X2500866D01*
X2510866Y3302205D01*
X2520866Y3292205D01*
X2530866D01*
Y3302205D01*
X2520866Y3312205D01*
X2530866Y3322205D01*
Y3332205D01*
X2520866D01*
X2510866Y3322205D01*
X2500866Y3332205D01*
X2490866D01*
Y3322205D01*
X2500866Y3312205D01*
X2490866Y3302205D01*
Y3292205D01*
X2390866D02*
X2400866D01*
X2410866Y3302205D01*
X2420866Y3292205D01*
X2430866D01*
Y3302205D01*
X2420866Y3312205D01*
X2430866Y3322205D01*
Y3332205D01*
X2420866D01*
X2410866Y3322205D01*
X2400866Y3332205D01*
X2390866D01*
Y3322205D01*
X2400866Y3312205D01*
X2390866Y3302205D01*
Y3292205D01*
X1385512Y5206693D02*
X1405512Y5226693D01*
X1425512Y5206693D01*
X1405512Y5186693D01*
X1385512Y5206693D01*
Y5580709D02*
X1405512Y5600709D01*
X1425512Y5580709D01*
X1405512Y5560709D01*
X1385512Y5580709D01*
X1456378Y5373701D02*
Y5413701D01*
X1496378D01*
Y5373701D01*
X1456378D01*
X1464378Y5381701D02*
Y5405701D01*
X1488378D01*
Y5381701D01*
X1464378D01*
X1112205Y5373701D02*
X1092205Y5413701D01*
X1132205D01*
X1112205Y5373701D01*
Y5381701D02*
X1100205Y5405701D01*
X1124205D01*
X1112205Y5381701D01*
X1200472Y5580709D02*
X1220472Y5600709D01*
X1240472Y5580709D01*
X1220472Y5560709D01*
X1200472Y5580709D01*
Y5206693D02*
X1220472Y5226693D01*
X1240472Y5206693D01*
X1220472Y5186693D01*
X1200472Y5206693D01*
X5748032Y5570551D02*
X5758032Y5580551D01*
X5768032D01*
X5758032Y5590551D01*
X5768032Y5600551D01*
X5758032D01*
X5748032Y5610551D01*
X5738032Y5600551D01*
X5728032D01*
X5738032Y5590551D01*
X5728032Y5580551D01*
X5738032D01*
X5748032Y5570551D01*
Y5578551D02*
X5754032Y5584551D01*
X5760032D01*
X5754032Y5590551D01*
X5760032Y5596551D01*
X5754032D01*
X5748032Y5602551D01*
X5742032Y5596551D01*
X5736032D01*
X5742032Y5590551D01*
X5736032Y5584551D01*
X5742032D01*
X5748032Y5578551D01*
X5669291Y5570551D02*
X5679291Y5580551D01*
X5689291D01*
X5679291Y5590551D01*
X5689291Y5600551D01*
X5679291D01*
X5669291Y5610551D01*
X5659291Y5600551D01*
X5649291D01*
X5659291Y5590551D01*
X5649291Y5580551D01*
X5659291D01*
X5669291Y5570551D01*
Y5578551D02*
X5675291Y5584551D01*
X5681291D01*
X5675291Y5590551D01*
X5681291Y5596551D01*
X5675291D01*
X5669291Y5602551D01*
X5663291Y5596551D01*
X5657291D01*
X5663291Y5590551D01*
X5657291Y5584551D01*
X5663291D01*
X5669291Y5578551D01*
X5590551Y5570551D02*
X5600551Y5580551D01*
X5610551D01*
X5600551Y5590551D01*
X5610551Y5600551D01*
X5600551D01*
X5590551Y5610551D01*
X5580551Y5600551D01*
X5570551D01*
X5580551Y5590551D01*
X5570551Y5580551D01*
X5580551D01*
X5590551Y5570551D01*
Y5578551D02*
X5596551Y5584551D01*
X5602551D01*
X5596551Y5590551D01*
X5602551Y5596551D01*
X5596551D01*
X5590551Y5602551D01*
X5584551Y5596551D01*
X5578551D01*
X5584551Y5590551D01*
X5578551Y5584551D01*
X5584551D01*
X5590551Y5578551D01*
X5487874Y5570551D02*
X5497874Y5590551D01*
X5487874Y5610551D01*
X5507874Y5600551D01*
X5527874Y5610551D01*
X5517874Y5590551D01*
X5527874Y5570551D01*
X5507874Y5580551D01*
X5487874Y5570551D01*
X5495874Y5578551D02*
X5501874Y5590551D01*
X5495874Y5602551D01*
X5507874Y5596551D01*
X5519874Y5602551D01*
X5513874Y5590551D01*
X5519874Y5578551D01*
X5507874Y5584551D01*
X5495874Y5578551D01*
X5810709Y5570551D02*
X5820709Y5590551D01*
X5810709Y5610551D01*
X5830709Y5600551D01*
X5850709Y5610551D01*
X5840709Y5590551D01*
X5850709Y5570551D01*
X5830709Y5580551D01*
X5810709Y5570551D01*
X5818709Y5578551D02*
X5824709Y5590551D01*
X5818709Y5602551D01*
X5830709Y5596551D01*
X5842709Y5602551D01*
X5836709Y5590551D01*
X5842709Y5578551D01*
X5830709Y5584551D01*
X5818709Y5578551D01*
X3214409Y3952205D02*
Y3942205D01*
X3234409D01*
Y3952205D01*
X3244409D01*
Y3972205D01*
X3234409D01*
Y3982205D01*
X3214409D01*
Y3972205D01*
X3204409D01*
Y3952205D01*
X3214409D01*
X3218409Y3956205D02*
Y3950205D01*
X3230409D01*
Y3956205D01*
X3236409D01*
Y3968205D01*
X3230409D01*
Y3974205D01*
X3218409D01*
Y3968205D01*
X3212409D01*
Y3956205D01*
X3218409D01*
X3214409Y3852205D02*
Y3842205D01*
X3234409D01*
Y3852205D01*
X3244409D01*
Y3872205D01*
X3234409D01*
Y3882205D01*
X3214409D01*
Y3872205D01*
X3204409D01*
Y3852205D01*
X3214409D01*
X3218409Y3856205D02*
Y3850205D01*
X3230409D01*
Y3856205D01*
X3236409D01*
Y3868205D01*
X3230409D01*
Y3874205D01*
X3218409D01*
Y3868205D01*
X3212409D01*
Y3856205D01*
X3218409D01*
X3214409Y3752205D02*
Y3742205D01*
X3234409D01*
Y3752205D01*
X3244409D01*
Y3772205D01*
X3234409D01*
Y3782205D01*
X3214409D01*
Y3772205D01*
X3204409D01*
Y3752205D01*
X3214409D01*
X3218409Y3756205D02*
Y3750205D01*
X3230409D01*
Y3756205D01*
X3236409D01*
Y3768205D01*
X3230409D01*
Y3774205D01*
X3218409D01*
Y3768205D01*
X3212409D01*
Y3756205D01*
X3218409D01*
X5885512Y5885512D02*
X5895512D01*
X5905512Y5895512D01*
X5915512Y5885512D01*
X5925512D01*
Y5895512D01*
X5915512Y5905512D01*
X5925512Y5915512D01*
Y5925512D01*
X5915512D01*
X5905512Y5915512D01*
X5895512Y5925512D01*
X5885512D01*
Y5915512D01*
X5895512Y5905512D01*
X5885512Y5895512D01*
Y5885512D01*
X5893512Y5893512D02*
X5899512D01*
X5905512Y5899512D01*
X5911512Y5893512D01*
X5917512D01*
Y5899512D01*
X5911512Y5905512D01*
X5917512Y5911512D01*
Y5917512D01*
X5911512D01*
X5905512Y5911512D01*
X5899512Y5917512D01*
X5893512D01*
Y5911512D01*
X5899512Y5905512D01*
X5893512Y5899512D01*
Y5893512D01*
X5940630Y4060709D02*
X5950630D01*
X5960630Y4070709D01*
X5970630Y4060709D01*
X5980630D01*
Y4070709D01*
X5970630Y4080709D01*
X5980630Y4090709D01*
Y4100709D01*
X5970630D01*
X5960630Y4090709D01*
X5950630Y4100709D01*
X5940630D01*
Y4090709D01*
X5950630Y4080709D01*
X5940630Y4070709D01*
Y4060709D01*
X5747717Y4084331D02*
X5757717D01*
X5767717Y4094331D01*
X5777717Y4084331D01*
X5787717D01*
Y4094331D01*
X5777717Y4104331D01*
X5787717Y4114331D01*
Y4124331D01*
X5777717D01*
X5767717Y4114331D01*
X5757717Y4124331D01*
X5747717D01*
Y4114331D01*
X5757717Y4104331D01*
X5747717Y4094331D01*
Y4084331D01*
X5940630Y4678819D02*
X5950630D01*
X5960630Y4688819D01*
X5970630Y4678819D01*
X5980630D01*
Y4688819D01*
X5970630Y4698819D01*
X5980630Y4708819D01*
Y4718819D01*
X5970630D01*
X5960630Y4708819D01*
X5950630Y4718819D01*
X5940630D01*
Y4708819D01*
X5950630Y4698819D01*
X5940630Y4688819D01*
Y4678819D01*
X5747717Y4655197D02*
X5757717D01*
X5767717Y4665197D01*
X5777717Y4655197D01*
X5787717D01*
Y4665197D01*
X5777717Y4675197D01*
X5787717Y4685197D01*
Y4695197D01*
X5777717D01*
X5767717Y4685197D01*
X5757717Y4695197D01*
X5747717D01*
Y4685197D01*
X5757717Y4675197D01*
X5747717Y4665197D01*
Y4655197D01*
X2460630Y3503937D02*
Y3537260D01*
X2477291Y3553921D01*
X2493952Y3537260D01*
Y3503937D01*
Y3528929D01*
X2460630D01*
X3339961Y4456283D02*
Y4406299D01*
X3364952D01*
X3373283Y4414630D01*
Y4422961D01*
X3364952Y4431291D01*
X3339961D01*
X3364952D01*
X3373283Y4439622D01*
Y4447952D01*
X3364952Y4456283D01*
X3339961D01*
X3239961D02*
Y4406299D01*
X3264952D01*
X3273283Y4414630D01*
Y4422961D01*
X3264952Y4431291D01*
X3239961D01*
X3264952D01*
X3273283Y4439622D01*
Y4447952D01*
X3264952Y4456283D01*
X3239961D01*
X5905512Y1899291D02*
X5885512Y1939291D01*
X5925512D01*
X5905512Y1899291D01*
Y1604016D02*
X5915512Y1614016D01*
X5925512D01*
X5915512Y1624016D01*
X5925512Y1634016D01*
X5915512D01*
X5905512Y1644016D01*
X5895512Y1634016D01*
X5885512D01*
X5895512Y1624016D01*
X5885512Y1614016D01*
X5895512D01*
X5905512Y1604016D01*
X5800866Y1657165D02*
X5810866Y1677165D01*
X5800866Y1697165D01*
X5820866Y1687165D01*
X5840866Y1697165D01*
X5830866Y1677165D01*
X5840866Y1657165D01*
X5820866Y1667165D01*
X5800866Y1657165D01*
Y1846142D02*
X5810866Y1866142D01*
X5800866Y1886142D01*
X5820866Y1876142D01*
X5840866Y1886142D01*
X5830866Y1866142D01*
X5840866Y1846142D01*
X5820866Y1856142D01*
X5800866Y1846142D01*
X5970158D02*
X5980158Y1866142D01*
X5970158Y1886142D01*
X5990158Y1876142D01*
X6010158Y1886142D01*
X6000158Y1866142D01*
X6010158Y1846142D01*
X5990158Y1856142D01*
X5970158Y1846142D01*
Y1657165D02*
X5980158Y1677165D01*
X5970158Y1697165D01*
X5990158Y1687165D01*
X6010158Y1697165D01*
X6000158Y1677165D01*
X6010158Y1657165D01*
X5990158Y1667165D01*
X5970158Y1657165D01*
X5905512Y2489843D02*
X5885512Y2529843D01*
X5925512D01*
X5905512Y2489843D01*
Y2194567D02*
X5915512Y2204567D01*
X5925512D01*
X5915512Y2214567D01*
X5925512Y2224567D01*
X5915512D01*
X5905512Y2234567D01*
X5895512Y2224567D01*
X5885512D01*
X5895512Y2214567D01*
X5885512Y2204567D01*
X5895512D01*
X5905512Y2194567D01*
X5800866Y2247716D02*
X5810866Y2267716D01*
X5800866Y2287716D01*
X5820866Y2277716D01*
X5840866Y2287716D01*
X5830866Y2267716D01*
X5840866Y2247716D01*
X5820866Y2257716D01*
X5800866Y2247716D01*
Y2436693D02*
X5810866Y2456693D01*
X5800866Y2476693D01*
X5820866Y2466693D01*
X5840866Y2476693D01*
X5830866Y2456693D01*
X5840866Y2436693D01*
X5820866Y2446693D01*
X5800866Y2436693D01*
X5970158D02*
X5980158Y2456693D01*
X5970158Y2476693D01*
X5990158Y2466693D01*
X6010158Y2476693D01*
X6000158Y2456693D01*
X6010158Y2436693D01*
X5990158Y2446693D01*
X5970158Y2436693D01*
Y2247716D02*
X5980158Y2267716D01*
X5970158Y2287716D01*
X5990158Y2277716D01*
X6010158Y2287716D01*
X6000158Y2267716D01*
X6010158Y2247716D01*
X5990158Y2257716D01*
X5970158Y2247716D01*
X3339961Y4856283D02*
Y4806299D01*
X3364952D01*
X3373283Y4814630D01*
Y4822961D01*
X3364952Y4831291D01*
X3339961D01*
X3364952D01*
X3373283Y4839622D01*
Y4847952D01*
X3364952Y4856283D01*
X3339961D01*
X3239961D02*
Y4806299D01*
X3264952D01*
X3273283Y4814630D01*
Y4822961D01*
X3264952Y4831291D01*
X3239961D01*
X3264952D01*
X3273283Y4839622D01*
Y4847952D01*
X3264952Y4856283D01*
X3239961D01*
Y4956283D02*
Y4906299D01*
X3264952D01*
X3273283Y4914630D01*
Y4922961D01*
X3264952Y4931291D01*
X3239961D01*
X3264952D01*
X3273283Y4939622D01*
Y4947952D01*
X3264952Y4956283D01*
X3239961D01*
X3339961D02*
Y4906299D01*
X3364952D01*
X3373283Y4914630D01*
Y4922961D01*
X3364952Y4931291D01*
X3339961D01*
X3364952D01*
X3373283Y4939622D01*
Y4947952D01*
X3364952Y4956283D01*
X3339961D01*
Y4756283D02*
Y4706299D01*
X3364952D01*
X3373283Y4714630D01*
Y4722961D01*
X3364952Y4731291D01*
X3339961D01*
X3364952D01*
X3373283Y4739622D01*
Y4747952D01*
X3364952Y4756283D01*
X3339961D01*
X3239961D02*
Y4706299D01*
X3264952D01*
X3273283Y4714630D01*
Y4722961D01*
X3264952Y4731291D01*
X3239961D01*
X3264952D01*
X3273283Y4739622D01*
Y4747952D01*
X3264952Y4756283D01*
X3239961D01*
X3339961Y4656283D02*
Y4606299D01*
X3364952D01*
X3373283Y4614630D01*
Y4622961D01*
X3364952Y4631291D01*
X3339961D01*
X3364952D01*
X3373283Y4639622D01*
Y4647952D01*
X3364952Y4656283D01*
X3339961D01*
X3239961D02*
Y4606299D01*
X3264952D01*
X3273283Y4614630D01*
Y4622961D01*
X3264952Y4631291D01*
X3239961D01*
X3264952D01*
X3273283Y4639622D01*
Y4647952D01*
X3264952Y4656283D01*
X3239961D01*
X3339961Y4556283D02*
Y4506299D01*
X3364952D01*
X3373283Y4514630D01*
Y4522961D01*
X3364952Y4531291D01*
X3339961D01*
X3364952D01*
X3373283Y4539622D01*
Y4547952D01*
X3364952Y4556283D01*
X3339961D01*
X3239961D02*
Y4506299D01*
X3264952D01*
X3273283Y4514630D01*
Y4522961D01*
X3264952Y4531291D01*
X3239961D01*
X3264952D01*
X3273283Y4539622D01*
Y4547952D01*
X3264952Y4556283D01*
X3239961D01*
X3208661Y4184724D02*
X3218661Y4194724D01*
X3228661D01*
X3218661Y4204724D01*
X3228661Y4214724D01*
X3218661D01*
X3208661Y4224724D01*
X3198661Y4214724D01*
X3188661D01*
X3198661Y4204724D01*
X3188661Y4194724D01*
X3198661D01*
X3208661Y4184724D01*
Y4192724D02*
X3214661Y4198724D01*
X3220661D01*
X3214661Y4204724D01*
X3220661Y4210724D01*
X3214661D01*
X3208661Y4216724D01*
X3202661Y4210724D01*
X3196661D01*
X3202661Y4204724D01*
X3196661Y4198724D01*
X3202661D01*
X3208661Y4192724D01*
X3287402Y4184724D02*
X3297402Y4194724D01*
X3307402D01*
X3297402Y4204724D01*
X3307402Y4214724D01*
X3297402D01*
X3287402Y4224724D01*
X3277402Y4214724D01*
X3267402D01*
X3277402Y4204724D01*
X3267402Y4194724D01*
X3277402D01*
X3287402Y4184724D01*
Y4192724D02*
X3293402Y4198724D01*
X3299402D01*
X3293402Y4204724D01*
X3299402Y4210724D01*
X3293402D01*
X3287402Y4216724D01*
X3281402Y4210724D01*
X3275402D01*
X3281402Y4204724D01*
X3275402Y4198724D01*
X3281402D01*
X3287402Y4192724D01*
X3366142Y4184724D02*
X3376142Y4194724D01*
X3386142D01*
X3376142Y4204724D01*
X3386142Y4214724D01*
X3376142D01*
X3366142Y4224724D01*
X3356142Y4214724D01*
X3346142D01*
X3356142Y4204724D01*
X3346142Y4194724D01*
X3356142D01*
X3366142Y4184724D01*
Y4192724D02*
X3372142Y4198724D01*
X3378142D01*
X3372142Y4204724D01*
X3378142Y4210724D01*
X3372142D01*
X3366142Y4216724D01*
X3360142Y4210724D01*
X3354142D01*
X3360142Y4204724D01*
X3354142Y4198724D01*
X3360142D01*
X3366142Y4192724D01*
X3428819Y4184724D02*
X3438819Y4204724D01*
X3428819Y4224724D01*
X3448819Y4214724D01*
X3468819Y4224724D01*
X3458819Y4204724D01*
X3468819Y4184724D01*
X3448819Y4194724D01*
X3428819Y4184724D01*
X3436819Y4192724D02*
X3442819Y4204724D01*
X3436819Y4216724D01*
X3448819Y4210724D01*
X3460819Y4216724D01*
X3454819Y4204724D01*
X3460819Y4192724D01*
X3448819Y4198724D01*
X3436819Y4192724D01*
X3105984Y4184724D02*
X3115984Y4204724D01*
X3105984Y4224724D01*
X3125984Y4214724D01*
X3145984Y4224724D01*
X3135984Y4204724D01*
X3145984Y4184724D01*
X3125984Y4194724D01*
X3105984Y4184724D01*
X3113984Y4192724D02*
X3119984Y4204724D01*
X3113984Y4216724D01*
X3125984Y4210724D01*
X3137984Y4216724D01*
X3131984Y4204724D01*
X3137984Y4192724D01*
X3125984Y4198724D01*
X3113984Y4192724D01*
X1161102Y1161102D02*
X1171102D01*
X1181102Y1171102D01*
X1191102Y1161102D01*
X1201102D01*
Y1171102D01*
X1191102Y1181102D01*
X1201102Y1191102D01*
Y1201102D01*
X1191102D01*
X1181102Y1191102D01*
X1171102Y1201102D01*
X1161102D01*
Y1191102D01*
X1171102Y1181102D01*
X1161102Y1171102D01*
Y1161102D01*
X1169102Y1169102D02*
X1175102D01*
X1181102Y1175102D01*
X1187102Y1169102D01*
X1193102D01*
Y1175102D01*
X1187102Y1181102D01*
X1193102Y1187102D01*
Y1193102D01*
X1187102D01*
X1181102Y1187102D01*
X1175102Y1193102D01*
X1169102D01*
Y1187102D01*
X1175102Y1181102D01*
X1169102Y1175102D01*
Y1169102D01*
X1180000Y5780000D02*
X1190000D01*
X1200000Y5790000D01*
X1210000Y5780000D01*
X1220000D01*
Y5790000D01*
X1210000Y5800000D01*
X1220000Y5810000D01*
Y5820000D01*
X1210000D01*
X1200000Y5810000D01*
X1190000Y5820000D01*
X1180000D01*
Y5810000D01*
X1190000Y5800000D01*
X1180000Y5790000D01*
Y5780000D01*
X1188000Y5788000D02*
X1194000D01*
X1200000Y5794000D01*
X1206000Y5788000D01*
X1212000D01*
Y5794000D01*
X1206000Y5800000D01*
X1212000Y5806000D01*
Y5812000D01*
X1206000D01*
X1200000Y5806000D01*
X1194000Y5812000D01*
X1188000D01*
Y5806000D01*
X1194000Y5800000D01*
X1188000Y5794000D01*
Y5788000D01*
X5885512Y1161102D02*
X5895512D01*
X5905512Y1171102D01*
X5915512Y1161102D01*
X5925512D01*
Y1171102D01*
X5915512Y1181102D01*
X5925512Y1191102D01*
Y1201102D01*
X5915512D01*
X5905512Y1191102D01*
X5895512Y1201102D01*
X5885512D01*
Y1191102D01*
X5895512Y1181102D01*
X5885512Y1171102D01*
Y1161102D01*
X5893512Y1169102D02*
X5899512D01*
X5905512Y1175102D01*
X5911512Y1169102D01*
X5917512D01*
Y1175102D01*
X5911512Y1181102D01*
X5917512Y1187102D01*
Y1193102D01*
X5911512D01*
X5905512Y1187102D01*
X5899512Y1193102D01*
X5893512D01*
Y1187102D01*
X5899512Y1181102D01*
X5893512Y1175102D01*
Y1169102D01*
X2470315Y3952205D02*
Y3942205D01*
X2490315D01*
Y3952205D01*
X2500315D01*
Y3972205D01*
X2490315D01*
Y3982205D01*
X2470315D01*
Y3972205D01*
X2460315D01*
Y3952205D01*
X2470315D01*
X2474315Y3956205D02*
Y3950205D01*
X2486315D01*
Y3956205D01*
X2492315D01*
Y3968205D01*
X2486315D01*
Y3974205D01*
X2474315D01*
Y3968205D01*
X2468315D01*
Y3956205D01*
X2474315D01*
X2470315Y3852205D02*
Y3842205D01*
X2490315D01*
Y3852205D01*
X2500315D01*
Y3872205D01*
X2490315D01*
Y3882205D01*
X2470315D01*
Y3872205D01*
X2460315D01*
Y3852205D01*
X2470315D01*
X2474315Y3856205D02*
Y3850205D01*
X2486315D01*
Y3856205D01*
X2492315D01*
Y3868205D01*
X2486315D01*
Y3874205D01*
X2474315D01*
Y3868205D01*
X2468315D01*
Y3856205D01*
X2474315D01*
X2470315Y3752205D02*
Y3742205D01*
X2490315D01*
Y3752205D01*
X2500315D01*
Y3772205D01*
X2490315D01*
Y3782205D01*
X2470315D01*
Y3772205D01*
X2460315D01*
Y3752205D01*
X2470315D01*
X2474315Y3756205D02*
Y3750205D01*
X2486315D01*
Y3756205D01*
X2492315D01*
Y3768205D01*
X2486315D01*
Y3774205D01*
X2474315D01*
Y3768205D01*
X2468315D01*
Y3756205D01*
X2474315D01*
X3996063Y3858268D02*
Y3891590D01*
X4012724Y3908251D01*
X4029386Y3891590D01*
Y3858268D01*
Y3883260D01*
X3996063D01*
X5295276Y3858268D02*
Y3891590D01*
X5311937Y3908251D01*
X5328598Y3891590D01*
Y3858268D01*
Y3883260D01*
X5295276D01*
X3996063Y5748032D02*
Y5781354D01*
X4012724Y5798015D01*
X4029386Y5781354D01*
Y5748032D01*
Y5773023D01*
X3996063D01*
X5295276Y5748032D02*
Y5781354D01*
X5311937Y5798015D01*
X5328598Y5781354D01*
Y5748032D01*
Y5773023D01*
X5295276D01*
X1555118Y3503937D02*
Y3537260D01*
X1571779Y3553921D01*
X1588441Y3537260D01*
Y3503937D01*
Y3528929D01*
X1555118D01*
X2460630Y1220472D02*
Y1253795D01*
X2477291Y1270456D01*
X2493952Y1253795D01*
Y1220472D01*
Y1245464D01*
X2460630D01*
X1555118Y1220472D02*
Y1253795D01*
X1571779Y1270456D01*
X1588441Y1253795D01*
Y1220472D01*
Y1245464D01*
X1555118D01*
X3954023Y2014934D02*
X3945692Y2023264D01*
X3929031D01*
X3920700Y2014934D01*
Y1981611D01*
X3929031Y1973280D01*
X3945692D01*
X3954023Y1981611D01*
X3981862Y2042772D02*
X3973531Y2051103D01*
X3956870D01*
X3948539Y2042772D01*
Y2009450D01*
X3956870Y2001119D01*
X3973531D01*
X3981862Y2009450D01*
X4009701Y2070611D02*
X4001370Y2078942D01*
X3984709D01*
X3976378Y2070611D01*
Y2037289D01*
X3984709Y2028958D01*
X4001370D01*
X4009701Y2037289D01*
X4037539Y2042772D02*
X4029209Y2051103D01*
X4012548D01*
X4004217Y2042772D01*
Y2009450D01*
X4012548Y2001119D01*
X4029209D01*
X4037539Y2009450D01*
X4009701Y2014934D02*
X4001370Y2023264D01*
X3984709D01*
X3976378Y2014934D01*
Y1981611D01*
X3984709Y1973280D01*
X4001370D01*
X4009701Y1981611D01*
X3981862Y1987095D02*
X3973531Y1995425D01*
X3956870D01*
X3948539Y1987095D01*
Y1953772D01*
X3956870Y1945441D01*
X3973531D01*
X3981862Y1953772D01*
X4148895Y1931417D02*
X4140564Y1939748D01*
X4123903D01*
X4115572Y1931417D01*
Y1898094D01*
X4123903Y1889764D01*
X4140564D01*
X4148895Y1898094D01*
X4121056Y1903578D02*
X4112725Y1911909D01*
X4096064D01*
X4087733Y1903578D01*
Y1870255D01*
X4096064Y1861925D01*
X4112725D01*
X4121056Y1870255D01*
X4093217Y1875739D02*
X4084886Y1884070D01*
X4068225D01*
X4059894Y1875739D01*
Y1842417D01*
X4068225Y1834086D01*
X4084886D01*
X4093217Y1842417D01*
X4121056Y1959256D02*
X4112725Y1967586D01*
X4096064D01*
X4087733Y1959256D01*
Y1925933D01*
X4096064Y1917603D01*
X4112725D01*
X4121056Y1925933D01*
X4093217Y1931417D02*
X4084886Y1939748D01*
X4068225D01*
X4059894Y1931417D01*
Y1898094D01*
X4068225Y1889764D01*
X4084886D01*
X4093217Y1898094D01*
X4065378Y1903578D02*
X4057048Y1911909D01*
X4040386D01*
X4032056Y1903578D01*
Y1870255D01*
X4040386Y1861925D01*
X4057048D01*
X4065378Y1870255D01*
X4093217Y1987095D02*
X4084886Y1995425D01*
X4068225D01*
X4059894Y1987095D01*
Y1953772D01*
X4068225Y1945441D01*
X4084886D01*
X4093217Y1953772D01*
X4065378Y1959256D02*
X4057048Y1967586D01*
X4040386D01*
X4032056Y1959256D01*
Y1925933D01*
X4040386Y1917603D01*
X4057048D01*
X4065378Y1925933D01*
X4037539Y1931417D02*
X4029209Y1939748D01*
X4012547D01*
X4004217Y1931417D01*
Y1898094D01*
X4012547Y1889764D01*
X4029209D01*
X4037539Y1898094D01*
X4065378Y2014934D02*
X4057048Y2023264D01*
X4040386D01*
X4032056Y2014934D01*
Y1981611D01*
X4040386Y1973280D01*
X4057048D01*
X4065378Y1981611D01*
X4037539Y1987095D02*
X4029209Y1995425D01*
X4012548D01*
X4004217Y1987095D01*
Y1953772D01*
X4012548Y1945441D01*
X4029209D01*
X4037539Y1953772D01*
X4009701Y1959256D02*
X4001370Y1967586D01*
X3984709D01*
X3976378Y1959256D01*
Y1925933D01*
X3984709Y1917603D01*
X4001370D01*
X4009701Y1925933D01*
X4065378Y1847900D02*
X4057048Y1856231D01*
X4040386D01*
X4032056Y1847900D01*
Y1814578D01*
X4040386Y1806247D01*
X4057048D01*
X4065378Y1814578D01*
X4037539Y1820062D02*
X4029209Y1828392D01*
X4012548D01*
X4004217Y1820062D01*
Y1786739D01*
X4012548Y1778408D01*
X4029209D01*
X4037539Y1786739D01*
X4009701Y1792223D02*
X4001370Y1800553D01*
X3984709D01*
X3976378Y1792223D01*
Y1758900D01*
X3984709Y1750570D01*
X4001370D01*
X4009701Y1758900D01*
X3981862Y1820062D02*
X3973531Y1828392D01*
X3956870D01*
X3948539Y1820062D01*
Y1786739D01*
X3956870Y1778408D01*
X3973531D01*
X3981862Y1786739D01*
X4009701Y1847900D02*
X4001370Y1856231D01*
X3984709D01*
X3976378Y1847900D01*
Y1814578D01*
X3984709Y1806247D01*
X4001370D01*
X4009701Y1814578D01*
X4037539Y1875739D02*
X4029209Y1884070D01*
X4012548D01*
X4004217Y1875739D01*
Y1842417D01*
X4012548Y1834086D01*
X4029209D01*
X4037539Y1842417D01*
X3870506Y1931417D02*
X3862176Y1939748D01*
X3845514D01*
X3837184Y1931417D01*
Y1898094D01*
X3845514Y1889764D01*
X3862176D01*
X3870506Y1898094D01*
X3898345Y1959256D02*
X3890015Y1967586D01*
X3873353D01*
X3865023Y1959256D01*
Y1925933D01*
X3873353Y1917603D01*
X3890015D01*
X3898345Y1925933D01*
X3926184Y1987095D02*
X3917853Y1995425D01*
X3901192D01*
X3892861Y1987095D01*
Y1953772D01*
X3901192Y1945441D01*
X3917853D01*
X3926184Y1953772D01*
X3898345Y1903578D02*
X3890015Y1911909D01*
X3873353D01*
X3865023Y1903578D01*
Y1870255D01*
X3873353Y1861925D01*
X3890015D01*
X3898345Y1870255D01*
X3926184Y1931417D02*
X3917853Y1939748D01*
X3901192D01*
X3892861Y1931417D01*
Y1898094D01*
X3901192Y1889764D01*
X3917853D01*
X3926184Y1898094D01*
X3954023Y1959256D02*
X3945692Y1967586D01*
X3929031D01*
X3920700Y1959256D01*
Y1925933D01*
X3929031Y1917603D01*
X3945692D01*
X3954023Y1925933D01*
X3926184Y1875739D02*
X3917853Y1884070D01*
X3901192D01*
X3892861Y1875739D01*
Y1842417D01*
X3901192Y1834086D01*
X3917853D01*
X3926184Y1842417D01*
X3954023Y1903578D02*
X3945692Y1911909D01*
X3929031D01*
X3920700Y1903578D01*
Y1870255D01*
X3929031Y1861925D01*
X3945692D01*
X3954023Y1870255D01*
X3981862Y1931417D02*
X3973531Y1939748D01*
X3956870D01*
X3948539Y1931417D01*
Y1898094D01*
X3956870Y1889764D01*
X3973531D01*
X3981862Y1898094D01*
X3954023Y1847900D02*
X3945692Y1856231D01*
X3929031D01*
X3920700Y1847900D01*
Y1814578D01*
X3929031Y1806247D01*
X3945692D01*
X3954023Y1814578D01*
X3981862Y1875739D02*
X3973531Y1884070D01*
X3956870D01*
X3948539Y1875739D01*
Y1842417D01*
X3956870Y1834086D01*
X3973531D01*
X3981862Y1842417D01*
X4009701Y1903578D02*
X4001370Y1911909D01*
X3984709D01*
X3976378Y1903578D01*
Y1870256D01*
X3984709Y1861925D01*
X4001370D01*
X4009701Y1870256D01*
X5519322Y1788536D02*
Y1738553D01*
X5544314D01*
X5552644Y1746883D01*
Y1780206D01*
X5544314Y1788536D01*
X5519322D01*
X5535329Y1772529D02*
Y1722545D01*
X5560321D01*
X5568652Y1730876D01*
Y1764198D01*
X5560321Y1772529D01*
X5535329D01*
X5487333Y2343162D02*
Y2293179D01*
X5512325D01*
X5520656Y2301509D01*
Y2334832D01*
X5512325Y2343162D01*
X5487333D01*
X5503341Y2327155D02*
Y2277171D01*
X5528333D01*
X5536663Y2285502D01*
Y2318824D01*
X5528333Y2327155D01*
X5503341D01*
X5502097Y2953399D02*
Y2903415D01*
X5527089D01*
X5535420Y2911745D01*
Y2945068D01*
X5527089Y2953399D01*
X5502097D01*
X5518104Y2937391D02*
Y2887407D01*
X5543096D01*
X5551427Y2895738D01*
Y2929061D01*
X5543096Y2937391D01*
X5518104D01*
X5531000Y2612984D02*
Y2563000D01*
X5555992D01*
X5564323Y2571331D01*
Y2604653D01*
X5555992Y2612984D01*
X5531000D01*
X4926323Y3296984D02*
X4893000D01*
Y3247000D01*
X4926323D01*
X4893000Y3271992D02*
X4909661D01*
X3872000Y4645984D02*
Y4596000D01*
X3896992D01*
X3905323Y4604331D01*
Y4637653D01*
X3896992Y4645984D01*
X3872000D01*
X3873000Y4668984D02*
Y4619000D01*
X3897992D01*
X3906323Y4627331D01*
Y4660653D01*
X3897992Y4668984D01*
X3873000D01*
X5863000Y1811007D02*
Y1761024D01*
X5887992D01*
X5896323Y1769354D01*
Y1802677D01*
X5887992Y1811007D01*
X5863000D01*
Y1832598D02*
Y1782614D01*
X5887992D01*
X5896323Y1790945D01*
Y1824267D01*
X5887992Y1832598D01*
X5863000D01*
X5930000Y1811598D02*
Y1761614D01*
X5954992D01*
X5963323Y1769945D01*
Y1803267D01*
X5954992Y1811598D01*
X5930000D01*
Y1832464D02*
Y1782480D01*
X5954992D01*
X5963323Y1790811D01*
Y1824133D01*
X5954992Y1832464D01*
X5930000D01*
X5863000Y2402149D02*
Y2352165D01*
X5887992D01*
X5896323Y2360496D01*
Y2393819D01*
X5887992Y2402149D01*
X5863000D01*
Y2423015D02*
Y2373032D01*
X5887992D01*
X5896323Y2381362D01*
Y2414685D01*
X5887992Y2423015D01*
X5863000D01*
X5930000Y2402149D02*
Y2352165D01*
X5954992D01*
X5963323Y2360496D01*
Y2393819D01*
X5954992Y2402149D01*
X5930000D01*
Y2423015D02*
Y2373032D01*
X5954992D01*
X5963323Y2381362D01*
Y2414685D01*
X5954992Y2423015D01*
X5930000D01*
Y3014472D02*
Y2964488D01*
X5954992D01*
X5963323Y2972819D01*
Y3006141D01*
X5954992Y3014472D01*
X5930000D01*
Y2993763D02*
Y2943780D01*
X5954992D01*
X5963323Y2952110D01*
Y2985433D01*
X5954992Y2993763D01*
X5930000D01*
X5863000Y3014472D02*
Y2964488D01*
X5887992D01*
X5896323Y2972819D01*
Y3006141D01*
X5887992Y3014472D01*
X5863000D01*
Y2993763D02*
Y2943780D01*
X5887992D01*
X5896323Y2952110D01*
Y2985433D01*
X5887992Y2993763D01*
X5863000D01*
X5601323Y4262984D02*
X5568000D01*
Y4237992D01*
X5584661D01*
X5568000D01*
Y4213000D01*
X3228323Y5207984D02*
X3195000D01*
Y5182992D01*
X3211661D01*
X3195000D01*
Y5158000D01*
X3871877Y4694470D02*
Y4644486D01*
X3896869D01*
X3905200Y4652816D01*
Y4686139D01*
X3896869Y4694470D01*
X3871877D01*
X3873648Y4619867D02*
Y4569883D01*
X3898639D01*
X3906970Y4578214D01*
Y4611537D01*
X3898639Y4619867D01*
X3873648D01*
X3871458Y4581689D02*
Y4531705D01*
X3896450D01*
X3904781Y4540036D01*
Y4573358D01*
X3896450Y4581689D01*
X3871458D01*
X2892323Y1515984D02*
X2859000D01*
Y1490992D01*
X2875661D01*
X2859000D01*
Y1466000D01*
X2823323Y1864984D02*
X2790000D01*
Y1839992D01*
X2806661D01*
X2790000D01*
Y1815000D01*
X2979323Y1523984D02*
X2946000D01*
Y1498992D01*
X2962661D01*
X2946000D01*
Y1474000D01*
X5642204Y2431283D02*
Y2381299D01*
X5667195D01*
X5675526Y2389630D01*
Y2422952D01*
X5667195Y2431283D01*
X5642204D01*
Y2452149D02*
Y2402165D01*
X5667195D01*
X5675526Y2410496D01*
Y2443819D01*
X5667195Y2452149D01*
X5642204D01*
X5629331Y1734630D02*
Y1684646D01*
X5654323D01*
X5662653Y1692976D01*
Y1726299D01*
X5654323Y1734630D01*
X5629331D01*
X5614724Y1749787D02*
Y1699803D01*
X5639716D01*
X5648047Y1708134D01*
Y1741456D01*
X5639716Y1749787D01*
X5614724D01*
X5629252Y2325259D02*
Y2275276D01*
X5654244D01*
X5662575Y2283606D01*
Y2316929D01*
X5654244Y2325259D01*
X5629252D01*
X5614803Y2340259D02*
Y2290276D01*
X5639795D01*
X5648126Y2298606D01*
Y2331929D01*
X5639795Y2340259D01*
X5614803D01*
X5668678Y1810614D02*
Y1760630D01*
X5693670D01*
X5702001Y1768960D01*
Y1802283D01*
X5693670Y1810614D01*
X5668678D01*
Y1832661D02*
Y1782677D01*
X5693670D01*
X5702001Y1791008D01*
Y1824330D01*
X5693670Y1832661D01*
X5668678D01*
Y2401952D02*
Y2351968D01*
X5693670D01*
X5702001Y2360299D01*
Y2393622D01*
X5693670Y2401952D01*
X5668678D01*
Y2422818D02*
Y2372835D01*
X5693670D01*
X5702001Y2381165D01*
Y2414488D01*
X5693670Y2422818D01*
X5668678D01*
X5640000Y1839748D02*
Y1789764D01*
X5664992D01*
X5673323Y1798094D01*
Y1831417D01*
X5664992Y1839748D01*
X5640000D01*
X5640986Y1862188D02*
Y1812205D01*
X5665978D01*
X5674309Y1820535D01*
Y1853858D01*
X5665978Y1862188D01*
X5640986D01*
X5668678Y3012779D02*
Y2962795D01*
X5693670D01*
X5702001Y2971126D01*
Y3004448D01*
X5693670Y3012779D01*
X5668678D01*
Y2991913D02*
Y2941929D01*
X5693670D01*
X5702001Y2950260D01*
Y2983582D01*
X5693670Y2991913D01*
X5668678D01*
X5614724Y2930889D02*
Y2880905D01*
X5639716D01*
X5648047Y2889236D01*
Y2922559D01*
X5639716Y2930889D01*
X5614724D01*
X5629331Y2915732D02*
Y2865748D01*
X5654323D01*
X5662653Y2874079D01*
Y2907401D01*
X5654323Y2915732D01*
X5629331D01*
X5642204Y3043094D02*
Y2993110D01*
X5667195D01*
X5675526Y3001441D01*
Y3034763D01*
X5667195Y3043094D01*
X5642204D01*
Y3022228D02*
Y2972244D01*
X5667195D01*
X5675526Y2980575D01*
Y3013897D01*
X5667195Y3022228D01*
X5642204D01*
X3705323Y1847984D02*
X3672000D01*
Y1822992D01*
X3688661D01*
X3672000D01*
Y1798000D01*
X2635323Y4790653D02*
X2626992Y4798984D01*
X2610331D01*
X2602000Y4790653D01*
Y4757331D01*
X2610331Y4749000D01*
X2626992D01*
X2635323Y4757331D01*
Y4773992D01*
X2618661D01*
X4279323Y1850984D02*
X4246000D01*
Y1825992D01*
X4262661D01*
X4246000D01*
Y1801000D01*
X5264323Y2973535D02*
X5231000D01*
Y2948543D01*
X5247661D01*
X5231000D01*
Y2923551D01*
X5264323Y2382984D02*
X5231000D01*
Y2357992D01*
X5247661D01*
X5231000D01*
Y2333000D01*
X3564819Y5518488D02*
X3531496D01*
Y5493496D01*
X3548157D01*
X3531496D01*
Y5468504D01*
X3218362Y5313763D02*
X3185039D01*
Y5288771D01*
X3201701D01*
X3185039D01*
Y5263779D01*
X3735094Y1872818D02*
X3701772D01*
Y1847826D01*
X3718433D01*
X3701772D01*
Y1822835D01*
X5348283Y4766519D02*
X5314961D01*
Y4741527D01*
X5331622D01*
X5314961D01*
Y4716535D01*
X5560882Y4388566D02*
X5527559D01*
Y4363575D01*
X5544220D01*
X5527559D01*
Y4338583D01*
X5938834Y1573606D02*
X5905512D01*
Y1548614D01*
X5922173D01*
X5905512D01*
Y1523622D01*
X5755905Y1727149D02*
Y1677165D01*
X5780897D01*
X5789228Y1685496D01*
Y1718819D01*
X5780897Y1727149D01*
X5755905D01*
X5787402Y1790141D02*
Y1740158D01*
X5812394D01*
X5820724Y1748488D01*
Y1781811D01*
X5812394Y1790141D01*
X5787402D01*
X5100252Y3715338D02*
X5066929D01*
Y3690346D01*
X5083590D01*
X5066929D01*
Y3665354D01*
X4923086Y4081480D02*
X4889764D01*
Y4056488D01*
X4906425D01*
X4889764D01*
Y4031496D01*
X3881890Y4719275D02*
Y4669291D01*
X3906882D01*
X3915212Y4677622D01*
Y4710944D01*
X3906882Y4719275D01*
X3881890D01*
X5448819Y3801952D02*
Y3751968D01*
X5473811D01*
X5482141Y3760299D01*
Y3793622D01*
X5473811Y3801952D01*
X5448819D01*
Y3766519D02*
Y3716535D01*
X5473811D01*
X5482141Y3724866D01*
Y3758189D01*
X5473811Y3766519D01*
X5448819D01*
Y3660220D02*
Y3610236D01*
X5473811D01*
X5482141Y3618567D01*
Y3651889D01*
X5473811Y3660220D01*
X5448819D01*
Y3589354D02*
Y3539370D01*
X5473811D01*
X5482141Y3547701D01*
Y3581023D01*
X5473811Y3589354D01*
X5448819D01*
Y3553921D02*
Y3503937D01*
X5473811D01*
X5482141Y3512268D01*
Y3545590D01*
X5473811Y3553921D01*
X5448819D01*
X5708661Y1821637D02*
Y1771653D01*
X5733653D01*
X5741984Y1779984D01*
Y1813307D01*
X5733653Y1821637D01*
X5708661D01*
Y3002740D02*
Y2952756D01*
X5733653D01*
X5741984Y2961086D01*
Y2994409D01*
X5733653Y3002740D01*
X5708661D01*
Y2412189D02*
Y2362205D01*
X5733653D01*
X5741984Y2370535D01*
Y2403858D01*
X5733653Y2412189D01*
X5708661D01*
Y5168094D02*
Y5118110D01*
X5733653D01*
X5741984Y5126441D01*
Y5159763D01*
X5733653Y5168094D01*
X5708661D01*
X3915212Y5002740D02*
X3881890D01*
Y4977748D01*
X3898551D01*
X3881890D01*
Y4952756D01*
X3772496Y4587385D02*
X3739173D01*
Y4562394D01*
X3755834D01*
X3739173D01*
Y4537402D01*
X3608126Y4420062D02*
X3574803D01*
Y4395071D01*
X3591464D01*
X3574803D01*
Y4370079D01*
X4160456Y4472984D02*
X4127134D01*
Y4447992D01*
X4143795D01*
X4127134D01*
Y4423000D01*
X3860094Y4175968D02*
X3826772D01*
Y4150976D01*
X3843433D01*
X3826772D01*
Y4125984D01*
X4009701Y4443685D02*
X3976378D01*
Y4418693D01*
X3993039D01*
X3976378D01*
Y4393701D01*
X4419149Y1971244D02*
X4385827D01*
Y1946252D01*
X4402488D01*
X4385827D01*
Y1921260D01*
X5364031Y2345260D02*
X5330709D01*
Y2320268D01*
X5347370D01*
X5330709D01*
Y2295276D01*
X5364031Y2935811D02*
X5330709D01*
Y2910819D01*
X5347370D01*
X5330709D01*
Y2885827D01*
X5364031Y3179905D02*
X5330709D01*
Y3154913D01*
X5347370D01*
X5330709D01*
Y3129921D01*
X5364031Y2589354D02*
X5330709D01*
Y2564362D01*
X5347370D01*
X5330709D01*
Y2539370D01*
X5580567Y2116913D02*
X5547244D01*
Y2091921D01*
X5563905D01*
X5547244D01*
Y2066929D01*
X5005764Y2187779D02*
X4972441D01*
Y2162787D01*
X4989102D01*
X4972441D01*
Y2137795D01*
X5005764Y2778330D02*
X4972441D01*
Y2753338D01*
X4989102D01*
X4972441D01*
Y2728347D01*
X5580567Y2707464D02*
X5547244D01*
Y2682472D01*
X5563905D01*
X5547244D01*
Y2657480D01*
X4116000Y4388566D02*
X4082677D01*
Y4363575D01*
X4099338D01*
X4082677D01*
Y4338583D01*
X4356157Y4388566D02*
X4322835D01*
Y4363575D01*
X4339496D01*
X4322835D01*
Y4338583D01*
X4116000Y4451559D02*
X4082677D01*
Y4426567D01*
X4099338D01*
X4082677D01*
Y4401575D01*
X4222299Y4451559D02*
X4188976D01*
Y4426567D01*
X4205638D01*
X4188976D01*
Y4401575D01*
X2143559Y5514094D02*
X2135228Y5522425D01*
X2118567D01*
X2110236Y5514094D01*
Y5480771D01*
X2118567Y5472441D01*
X2135228D01*
X2143559Y5480771D01*
Y5497433D01*
X2126898D01*
X2143559Y5395984D02*
X2135228Y5404315D01*
X2118567D01*
X2110236Y5395984D01*
Y5362661D01*
X2118567Y5354331D01*
X2135228D01*
X2143559Y5362661D01*
Y5379323D01*
X2126898D01*
X4186866Y2431874D02*
X4153543D01*
Y2406882D01*
X4170205D01*
X4153543D01*
Y2381890D01*
X3665212Y2028330D02*
X3631890D01*
Y2003338D01*
X3648551D01*
X3631890D01*
Y1978347D01*
X3710488Y1967307D02*
X3677165D01*
Y1942315D01*
X3693827D01*
X3677165D01*
Y1917323D01*
X3761669Y1845259D02*
X3728347D01*
Y1820267D01*
X3745008D01*
X3728347D01*
Y1795276D01*
X3757401Y1812189D02*
X3724078D01*
Y1787197D01*
X3740740D01*
X3724078D01*
Y1762205D01*
X4100252Y1682937D02*
X4066929D01*
Y1657945D01*
X4083590D01*
X4066929D01*
Y1632953D01*
X4179323Y1783984D02*
X4146000D01*
Y1758992D01*
X4162661D01*
X4146000D01*
Y1734000D01*
X3868223Y2178128D02*
X3834900D01*
Y2153136D01*
X3851561D01*
X3834900D01*
Y2128144D01*
X3770787Y2080692D02*
X3737464D01*
Y2055700D01*
X3754125D01*
X3737464D01*
Y2030708D01*
X3729028Y2038934D02*
X3695706D01*
Y2013942D01*
X3712367D01*
X3695706D01*
Y1988950D01*
X4137259Y1687448D02*
X4103936D01*
Y1662456D01*
X4120598D01*
X4103936D01*
Y1637464D01*
X4248081Y2081226D02*
X4214758D01*
Y2056234D01*
X4231420D01*
X4214758D01*
Y2031242D01*
X4094967Y2234339D02*
X4061645D01*
Y2209347D01*
X4078306D01*
X4061645D01*
Y2184355D01*
X4136725Y2192581D02*
X4103403D01*
Y2167589D01*
X4120064D01*
X4103403D01*
Y2142597D01*
X4206323Y2122984D02*
X4173000D01*
Y2097992D01*
X4189661D01*
X4173000D01*
Y2073000D01*
X5821323Y2974086D02*
X5788000D01*
Y2949094D01*
X5804661D01*
X5788000D01*
Y2924102D01*
X6008323Y3032086D02*
X5975000D01*
Y3007094D01*
X5991661D01*
X5975000D01*
Y2982102D01*
X5497323Y3032535D02*
X5464000D01*
Y3007543D01*
X5480661D01*
X5464000D01*
Y2982551D01*
X5497323Y2441984D02*
X5464000D01*
Y2416992D01*
X5480661D01*
X5464000D01*
Y2392000D01*
X5905512Y1821637D02*
Y1771653D01*
X5930504D01*
X5938834Y1779984D01*
Y1813307D01*
X5930504Y1821637D01*
X5905512D01*
Y1807858D02*
Y1757874D01*
X5930504D01*
X5938834Y1766205D01*
Y1799527D01*
X5930504Y1807858D01*
X5905512D01*
Y1835417D02*
Y1785433D01*
X5930504D01*
X5938834Y1793764D01*
Y1827086D01*
X5930504Y1835417D01*
X5905512D01*
Y3002740D02*
Y2952756D01*
X5930504D01*
X5938834Y2961086D01*
Y2994409D01*
X5930504Y3002740D01*
X5905512D01*
Y2988960D02*
Y2938976D01*
X5930504D01*
X5938834Y2947307D01*
Y2980630D01*
X5930504Y2988960D01*
X5905512D01*
Y3016519D02*
Y2966535D01*
X5930504D01*
X5938834Y2974866D01*
Y3008189D01*
X5930504Y3016519D01*
X5905512D01*
Y2425968D02*
Y2375984D01*
X5930504D01*
X5938834Y2384315D01*
Y2417637D01*
X5930504Y2425968D01*
X5905512D01*
Y2398409D02*
Y2348425D01*
X5930504D01*
X5938834Y2356756D01*
Y2390078D01*
X5930504Y2398409D01*
X5905512D01*
Y2412189D02*
Y2362205D01*
X5930504D01*
X5938834Y2370535D01*
Y2403858D01*
X5930504Y2412189D01*
X5905512D01*
X4125379Y4556213D02*
X4092056D01*
Y4531221D01*
X4108717D01*
X4092056D01*
Y4506229D01*
X4124736Y4519397D02*
X4091413D01*
Y4494405D01*
X4108075D01*
X4091413D01*
Y4469413D01*
X4010323Y4561984D02*
X3977000D01*
Y4536992D01*
X3993661D01*
X3977000D01*
Y4512000D01*
X4009323Y5017984D02*
X3976000D01*
Y4992992D01*
X3992661D01*
X3976000D01*
Y4968000D01*
X6008323Y2441535D02*
X5975000D01*
Y2416543D01*
X5991661D01*
X5975000D01*
Y2391551D01*
X5821323Y2383535D02*
X5788000D01*
Y2358543D01*
X5804661D01*
X5788000D01*
Y2333551D01*
D202*
X5901890Y4896850D02*
G03*
X5901890Y4896850I-20000J0D01*
G01*
Y5339370D02*
G03*
X5901890Y5339370I-20000J0D01*
G01*
X1260158Y5393701D02*
G03*
X1260158Y5393701I-20000J0D01*
G01*
D203*
X1252158D02*
G03*
X1252158Y5393701I-12000J0D01*
G01*
%TF.MD5,dac9872772be0c1a59d73d6b35012776*%
M02*
