%TF.GenerationSoftware,Altium Limited,Altium Designer,22.4.2 (48)*%
G04 Layer_Color=128*
%FSLAX26Y26*%
%MOIN*%
%TF.SameCoordinates,1C2CB1AA-ACBE-45DF-AC24-D873E68AE3FE*%
%TF.FilePolarity,Positive*%
%TF.FileFunction,Drillmap*%
%TF.Part,Single*%
G01*
G75*
%TA.AperFunction,NonConductor*%
%ADD196C,0.005000*%
D196*
X5667323Y2252953D02*
X5675197D01*
X5671260Y2249016D02*
Y2256890D01*
X5667323Y2843504D02*
X5675197D01*
X5671260Y2839567D02*
Y2847441D01*
X5720472Y2903543D02*
X5724409D01*
X5722441Y2901575D02*
Y2905512D01*
X5720472Y3001968D02*
X5724409D01*
X5722441Y3000000D02*
Y3003937D01*
X5720472Y2411417D02*
X5724409D01*
X5722441Y2409449D02*
Y2413386D01*
X5720472Y2312992D02*
X5724409D01*
X5722441Y2311024D02*
Y2314961D01*
X5720472Y1487205D02*
X5724409D01*
X5722441Y1485236D02*
Y1489173D01*
X5720472Y1820866D02*
X5724409D01*
X5722441Y1818898D02*
Y1822835D01*
X5720472Y1722441D02*
X5724409D01*
X5722441Y1720472D02*
Y1724409D01*
X5517353Y1738553D02*
X5521290D01*
X5519322Y1736584D02*
Y1740521D01*
X5533360Y1722545D02*
X5537297D01*
X5535329Y1720577D02*
Y1724514D01*
X5485365Y2293179D02*
X5489302D01*
X5487333Y2291210D02*
Y2295147D01*
X5501372Y2277171D02*
X5505309D01*
X5503341Y2275203D02*
Y2279140D01*
X5500128Y2903415D02*
X5504065D01*
X5502097Y2901446D02*
Y2905383D01*
X5516136Y2887407D02*
X5520073D01*
X5518104Y2885439D02*
Y2889376D01*
X5640235Y2381299D02*
X5644172D01*
X5642204Y2379331D02*
Y2383268D01*
X5640235Y2402165D02*
X5644172D01*
X5642204Y2400197D02*
Y2404134D01*
X5638032Y1789764D02*
X5641968D01*
X5640000Y1787795D02*
Y1791732D01*
X5639018Y1812205D02*
X5642955D01*
X5640986Y1810236D02*
Y1814173D01*
X5640235Y2993110D02*
X5644172D01*
X5642204Y2991142D02*
Y2995079D01*
X5640235Y2972244D02*
X5644172D01*
X5642204Y2970276D02*
Y2974213D01*
%TF.MD5,1afe8471878bfbe9c2683ca6b99bc38b*%
M02*
