%TF.GenerationSoftware,Altium Limited,Altium Designer,22.4.2 (48)*%
G04 Layer_Color=128*
%FSLAX26Y26*%
%MOIN*%
%TF.SameCoordinates,1C2CB1AA-ACBE-45DF-AC24-D873E68AE3FE*%
%TF.FilePolarity,Positive*%
%TF.FileFunction,Paste,Bot*%
%TF.Part,Single*%
G01*
G75*
%TA.AperFunction,SMDPad,CuDef*%
%ADD27R,0.023622X0.023622*%
%ADD39R,0.035433X0.033465*%
%ADD47R,0.043307X0.094488*%
%ADD48R,0.033465X0.035433*%
%TA.AperFunction,FiducialPad,Global*%
%ADD56C,0.039370*%
%ADD57R,0.039370X0.039370*%
%TA.AperFunction,SMDPad,CuDef*%
%ADD90R,0.029921X0.043307*%
%ADD91R,0.018504X0.019685*%
%ADD92R,0.051181X0.043307*%
G04:AMPARAMS|DCode=93|XSize=33.465mil|YSize=35.433mil|CornerRadius=0mil|HoleSize=0mil|Usage=FLASHONLY|Rotation=225.000|XOffset=0mil|YOffset=0mil|HoleType=Round|Shape=Rectangle|*
%AMROTATEDRECTD93*
4,1,4,-0.000696,0.024359,0.024359,-0.000696,0.000696,-0.024359,-0.024359,0.000696,-0.000696,0.024359,0.0*
%
%ADD93ROTATEDRECTD93*%

G04:AMPARAMS|DCode=94|XSize=33.465mil|YSize=35.433mil|CornerRadius=0mil|HoleSize=0mil|Usage=FLASHONLY|Rotation=315.000|XOffset=0mil|YOffset=0mil|HoleType=Round|Shape=Rectangle|*
%AMROTATEDRECTD94*
4,1,4,-0.024359,-0.000696,0.000696,0.024359,0.024359,0.000696,-0.000696,-0.024359,-0.024359,-0.000696,0.0*
%
%ADD94ROTATEDRECTD94*%

%ADD95R,0.094488X0.043307*%
G36*
X5657480Y2112205D02*
X5580709D01*
Y2218504D01*
X5657480D01*
Y2112205D01*
D02*
G37*
G36*
Y2702756D02*
X5580709D01*
Y2809055D01*
X5657480D01*
Y2702756D01*
D02*
G37*
D27*
X4461614Y1638780D02*
D03*
X4504921D02*
D03*
D39*
X5078740Y3189961D02*
D03*
Y3247047D02*
D03*
X5295276Y2154528D02*
D03*
Y2097441D02*
D03*
X5118110Y2154528D02*
D03*
Y2097441D02*
D03*
X5216535Y2154528D02*
D03*
Y2097441D02*
D03*
X5295276Y2745079D02*
D03*
Y2687992D02*
D03*
X5118110Y2745079D02*
D03*
Y2687992D02*
D03*
X5216535Y2745079D02*
D03*
Y2687992D02*
D03*
X5531496Y2451772D02*
D03*
Y2508858D02*
D03*
X5462598Y2451772D02*
D03*
Y2508858D02*
D03*
X5029528Y3189961D02*
D03*
Y3247047D02*
D03*
D47*
X5023622Y2736220D02*
D03*
X4897638D02*
D03*
X5023622Y2145669D02*
D03*
X4897638D02*
D03*
X4905512Y2480315D02*
D03*
X4779528D02*
D03*
X4905512Y3070866D02*
D03*
X4779528D02*
D03*
D48*
X5621063Y2066929D02*
D03*
X5678150D02*
D03*
X5621063Y2657480D02*
D03*
X5678150D02*
D03*
X5186024Y2559055D02*
D03*
X5128937D02*
D03*
X5186024Y3149606D02*
D03*
X5128937D02*
D03*
X3630905Y1917323D02*
D03*
X3573819D02*
D03*
X3630905Y1850394D02*
D03*
X3573819D02*
D03*
D56*
X1358268Y6003937D02*
D03*
X6043307Y1043307D02*
D03*
D57*
Y5748032D02*
D03*
X1043307Y1043307D02*
D03*
D90*
X5182480Y2830709D02*
D03*
X5232480D02*
D03*
X5282480D02*
D03*
X5332480D02*
D03*
X5132480D02*
D03*
X5082480D02*
D03*
X5032480D02*
D03*
X4982480D02*
D03*
X5132480Y3074803D02*
D03*
X5082480D02*
D03*
X5032480D02*
D03*
X4982480D02*
D03*
X5182480D02*
D03*
X5232480D02*
D03*
X5282480D02*
D03*
X5332480D02*
D03*
X5182480Y2240157D02*
D03*
X5232480D02*
D03*
X5282480D02*
D03*
X5332480D02*
D03*
X5132480D02*
D03*
X5082480D02*
D03*
X5032480D02*
D03*
X4982480D02*
D03*
X5132480Y2484252D02*
D03*
X5082480D02*
D03*
X5032480D02*
D03*
X4982480D02*
D03*
X5182480D02*
D03*
X5232480D02*
D03*
X5282480D02*
D03*
X5332480D02*
D03*
D91*
X5571850Y2717520D02*
D03*
Y2743110D02*
D03*
Y2768701D02*
D03*
X5687992Y2794291D02*
D03*
Y2768701D02*
D03*
Y2743110D02*
D03*
Y2717520D02*
D03*
X5571850Y2794291D02*
D03*
Y2126968D02*
D03*
Y2152559D02*
D03*
Y2178150D02*
D03*
X5687992Y2203740D02*
D03*
Y2178150D02*
D03*
Y2152559D02*
D03*
Y2126968D02*
D03*
X5571850Y2203740D02*
D03*
D92*
X4524606Y1704725D02*
D03*
X4441929D02*
D03*
Y1769685D02*
D03*
X4524606D02*
D03*
D93*
X3618608Y1776089D02*
D03*
X3578242Y1735722D02*
D03*
X4137309Y2322349D02*
D03*
X4096943Y2281982D02*
D03*
X4239659Y2058557D02*
D03*
X4280026Y2098923D02*
D03*
X4196352Y2097927D02*
D03*
X4236719Y2138293D02*
D03*
X4125486Y2168793D02*
D03*
X4165852Y2209160D02*
D03*
X3621549Y1696352D02*
D03*
X3661916Y1736719D02*
D03*
X3656982Y1660919D02*
D03*
X3697349Y1701285D02*
D03*
D94*
X4129423Y1614671D02*
D03*
X4169789Y1574305D02*
D03*
X4282966Y1768215D02*
D03*
X4323333Y1727848D02*
D03*
X4099908Y1586116D02*
D03*
X4059541Y1626482D02*
D03*
X3811522Y2153045D02*
D03*
X3771155Y2193412D02*
D03*
X3713097Y2054620D02*
D03*
X3672730Y2094986D02*
D03*
X3673727Y2015250D02*
D03*
X3633360Y2055616D02*
D03*
X4200289Y1685537D02*
D03*
X4240656Y1645171D02*
D03*
D95*
X4881890Y2385827D02*
D03*
Y2259843D02*
D03*
Y2976378D02*
D03*
Y2850394D02*
D03*
%TF.MD5,88a79f47a61303c3ee0559b4cc3836bb*%
M02*
