%TF.GenerationSoftware,Altium Limited,Altium Designer,22.4.2 (48)*%
G04 Layer_Color=255*
%FSLAX26Y26*%
%MOIN*%
%TF.SameCoordinates,1C2CB1AA-ACBE-45DF-AC24-D873E68AE3FE*%
%TF.FilePolarity,Positive*%
%TF.FileFunction,Pads,Bot*%
%TF.Part,Single*%
G01*
G75*
%TA.AperFunction,SMDPad,CuDef*%
%ADD27R,0.023622X0.023622*%
%ADD39R,0.035433X0.033465*%
%ADD47R,0.043307X0.094488*%
%ADD48R,0.033465X0.035433*%
%TA.AperFunction,FiducialPad,Global*%
%ADD56C,0.039370*%
%ADD57R,0.039370X0.039370*%
%TA.AperFunction,ComponentPad*%
%ADD68O,0.086614X0.039370*%
%ADD69O,0.070866X0.039370*%
%ADD70C,0.082677*%
%ADD71R,0.078740X0.078740*%
%ADD72C,0.078740*%
%ADD73O,0.106299X0.066929*%
%ADD74O,0.055118X0.106299*%
%ADD75C,0.102362*%
%ADD76C,0.055118*%
%ADD77C,0.062992*%
%ADD78C,0.236220*%
%ADD79C,0.066929*%
%ADD80C,0.060000*%
%TA.AperFunction,SMDPad,CuDef*%
%ADD90R,0.029921X0.043307*%
%ADD91R,0.018504X0.019685*%
%ADD92R,0.051181X0.043307*%
G04:AMPARAMS|DCode=93|XSize=33.465mil|YSize=35.433mil|CornerRadius=0mil|HoleSize=0mil|Usage=FLASHONLY|Rotation=225.000|XOffset=0mil|YOffset=0mil|HoleType=Round|Shape=Rectangle|*
%AMROTATEDRECTD93*
4,1,4,-0.000696,0.024359,0.024359,-0.000696,0.000696,-0.024359,-0.024359,0.000696,-0.000696,0.024359,0.0*
%
%ADD93ROTATEDRECTD93*%

G04:AMPARAMS|DCode=94|XSize=33.465mil|YSize=35.433mil|CornerRadius=0mil|HoleSize=0mil|Usage=FLASHONLY|Rotation=315.000|XOffset=0mil|YOffset=0mil|HoleType=Round|Shape=Rectangle|*
%AMROTATEDRECTD94*
4,1,4,-0.024359,-0.000696,0.000696,0.024359,0.024359,0.000696,-0.000696,-0.024359,-0.024359,-0.000696,0.0*
%
%ADD94ROTATEDRECTD94*%

%ADD95R,0.094488X0.043307*%
D27*
X4461614Y1638780D02*
D03*
X4504921D02*
D03*
D39*
X5078740Y3189961D02*
D03*
Y3247047D02*
D03*
X5295276Y2154528D02*
D03*
Y2097441D02*
D03*
X5118110Y2154528D02*
D03*
Y2097441D02*
D03*
X5216535Y2154528D02*
D03*
Y2097441D02*
D03*
X5295276Y2745079D02*
D03*
Y2687992D02*
D03*
X5118110Y2745079D02*
D03*
Y2687992D02*
D03*
X5216535Y2745079D02*
D03*
Y2687992D02*
D03*
X5531496Y2451772D02*
D03*
Y2508858D02*
D03*
X5462598Y2451772D02*
D03*
Y2508858D02*
D03*
X5029528Y3189961D02*
D03*
Y3247047D02*
D03*
D47*
X5023622Y2736220D02*
D03*
X4897638D02*
D03*
X5023622Y2145669D02*
D03*
X4897638D02*
D03*
X4905512Y2480315D02*
D03*
X4779528D02*
D03*
X4905512Y3070866D02*
D03*
X4779528D02*
D03*
D48*
X5621063Y2066929D02*
D03*
X5678150D02*
D03*
X5621063Y2657480D02*
D03*
X5678150D02*
D03*
X5186024Y2559055D02*
D03*
X5128937D02*
D03*
X5186024Y3149606D02*
D03*
X5128937D02*
D03*
X3630905Y1917323D02*
D03*
X3573819D02*
D03*
X3630905Y1850394D02*
D03*
X3573819D02*
D03*
D56*
X1358268Y6003937D02*
D03*
X6043307Y1043307D02*
D03*
D57*
Y5748032D02*
D03*
X1043307Y1043307D02*
D03*
D68*
X6039370Y4896850D02*
D03*
Y5339370D02*
D03*
Y1550394D02*
D03*
Y1992913D02*
D03*
Y2140945D02*
D03*
Y2583465D02*
D03*
Y2731496D02*
D03*
Y3174016D02*
D03*
D69*
X5881890Y4896850D02*
D03*
Y5339370D02*
D03*
Y1550394D02*
D03*
Y1992913D02*
D03*
Y2140945D02*
D03*
Y2583465D02*
D03*
Y2731496D02*
D03*
Y3174016D02*
D03*
D70*
X1171260Y4559055D02*
D03*
Y4724409D02*
D03*
Y4889764D02*
D03*
X1387795Y4559055D02*
D03*
Y4724409D02*
D03*
Y4889764D02*
D03*
X5830709Y5590551D02*
D03*
X5507874D02*
D03*
X3125984Y4204724D02*
D03*
X3448819D02*
D03*
D71*
X2410866Y3312205D02*
D03*
D72*
X2510866D02*
D03*
X2410866Y3212205D02*
D03*
X2510866D02*
D03*
X2410866Y3112205D02*
D03*
X2510866D02*
D03*
X2410866Y3012205D02*
D03*
X2510866D02*
D03*
X2410866Y2912205D02*
D03*
X2510866D02*
D03*
X2410866Y2812205D02*
D03*
X2510866D02*
D03*
X2410866Y2712205D02*
D03*
X2510866D02*
D03*
X2410866Y2612205D02*
D03*
X2510866D02*
D03*
X2410866Y2512205D02*
D03*
X2510866D02*
D03*
X2410866Y2412205D02*
D03*
X2510866D02*
D03*
X2410866Y2312205D02*
D03*
X2510866D02*
D03*
X2410866Y2212205D02*
D03*
X2510866D02*
D03*
X2410866Y2112205D02*
D03*
X2510866D02*
D03*
X2410866Y2012205D02*
D03*
X2510866D02*
D03*
X2410866Y1912205D02*
D03*
X2510866D02*
D03*
X2410866Y1812205D02*
D03*
X2510866D02*
D03*
X2410866Y1712205D02*
D03*
X2510866D02*
D03*
X2410866Y1612205D02*
D03*
X2510866D02*
D03*
X2410866Y1512205D02*
D03*
X2510866D02*
D03*
X2410866Y1412205D02*
D03*
X2510866D02*
D03*
D73*
X1220472Y5206693D02*
D03*
Y5580709D02*
D03*
X1405512D02*
D03*
Y5206693D02*
D03*
D74*
X1240158Y5393701D02*
D03*
D75*
X1476378D02*
D03*
D76*
X5590551Y5590551D02*
D03*
X5669291D02*
D03*
X5748032D02*
D03*
X3366142Y4204724D02*
D03*
X3287402D02*
D03*
X3208661D02*
D03*
D77*
X3224409Y3762205D02*
D03*
Y3862205D02*
D03*
Y3962205D02*
D03*
X2480315Y3762205D02*
D03*
Y3862205D02*
D03*
Y3962205D02*
D03*
D78*
X5905512Y5905512D02*
D03*
X2460630Y3503937D02*
D03*
X1181102Y1181102D02*
D03*
X1200000Y5800000D02*
D03*
X5905512Y1181102D02*
D03*
X3996063Y3877953D02*
D03*
X5295276D02*
D03*
X3996063Y5767717D02*
D03*
X5295276D02*
D03*
X1555118Y3503937D02*
D03*
X2460630Y1220472D02*
D03*
X1555118D02*
D03*
D79*
X5767717Y4704724D02*
D03*
X5960630Y4728346D02*
D03*
X5767717Y4133858D02*
D03*
X5960630Y4110236D02*
D03*
D80*
X3239961Y4406299D02*
D03*
X3339961D02*
D03*
Y4906299D02*
D03*
X3239961D02*
D03*
X3339961Y4806299D02*
D03*
X3239961D02*
D03*
Y4706299D02*
D03*
X3339961D02*
D03*
X3239961Y4606299D02*
D03*
X3339961D02*
D03*
X3239961Y4506299D02*
D03*
X3339961D02*
D03*
D90*
X5182480Y2830709D02*
D03*
X5232480D02*
D03*
X5282480D02*
D03*
X5332480D02*
D03*
X5132480D02*
D03*
X5082480D02*
D03*
X5032480D02*
D03*
X4982480D02*
D03*
X5132480Y3074803D02*
D03*
X5082480D02*
D03*
X5032480D02*
D03*
X4982480D02*
D03*
X5182480D02*
D03*
X5232480D02*
D03*
X5282480D02*
D03*
X5332480D02*
D03*
X5182480Y2240157D02*
D03*
X5232480D02*
D03*
X5282480D02*
D03*
X5332480D02*
D03*
X5132480D02*
D03*
X5082480D02*
D03*
X5032480D02*
D03*
X4982480D02*
D03*
X5132480Y2484252D02*
D03*
X5082480D02*
D03*
X5032480D02*
D03*
X4982480D02*
D03*
X5182480D02*
D03*
X5232480D02*
D03*
X5282480D02*
D03*
X5332480D02*
D03*
D91*
X5571850Y2717520D02*
D03*
Y2743110D02*
D03*
Y2768701D02*
D03*
X5687992Y2794291D02*
D03*
Y2768701D02*
D03*
Y2743110D02*
D03*
Y2717520D02*
D03*
X5571850Y2794291D02*
D03*
Y2126968D02*
D03*
Y2152559D02*
D03*
Y2178150D02*
D03*
X5687992Y2203740D02*
D03*
Y2178150D02*
D03*
Y2152559D02*
D03*
Y2126968D02*
D03*
X5571850Y2203740D02*
D03*
D92*
X4524606Y1704725D02*
D03*
X4441929D02*
D03*
Y1769685D02*
D03*
X4524606D02*
D03*
D93*
X3618608Y1776089D02*
D03*
X3578242Y1735722D02*
D03*
X4137309Y2322349D02*
D03*
X4096943Y2281982D02*
D03*
X4239659Y2058557D02*
D03*
X4280026Y2098923D02*
D03*
X4196352Y2097927D02*
D03*
X4236719Y2138293D02*
D03*
X4125486Y2168793D02*
D03*
X4165852Y2209160D02*
D03*
X3621549Y1696352D02*
D03*
X3661916Y1736719D02*
D03*
X3656982Y1660919D02*
D03*
X3697349Y1701285D02*
D03*
D94*
X4129423Y1614671D02*
D03*
X4169789Y1574305D02*
D03*
X4282966Y1768215D02*
D03*
X4323333Y1727848D02*
D03*
X4099908Y1586116D02*
D03*
X4059541Y1626482D02*
D03*
X3811522Y2153045D02*
D03*
X3771155Y2193412D02*
D03*
X3713097Y2054620D02*
D03*
X3672730Y2094986D02*
D03*
X3673727Y2015250D02*
D03*
X3633360Y2055616D02*
D03*
X4200289Y1685537D02*
D03*
X4240656Y1645171D02*
D03*
D95*
X4881890Y2385827D02*
D03*
Y2259843D02*
D03*
Y2976378D02*
D03*
Y2850394D02*
D03*
%TF.MD5,6a58e520573ac330f5690b16afbd6efe*%
M02*
