%TF.GenerationSoftware,Altium Limited,Altium Designer,22.5.1 (42)*%
G04 Layer_Color=32896*
%FSLAX26Y26*%
%MOIN*%
%TF.SameCoordinates,06390142-FE97-446B-9427-C7DC68BF18C4*%
%TF.FilePolarity,Positive*%
%TF.FileFunction,Legend,Bot*%
%TF.Part,Single*%
G01*
G75*
%TA.AperFunction,NonConductor*%
%ADD27C,0.000984*%
%ADD28C,0.003000*%
%ADD29R,0.007874X0.007874*%
D27*
X4527558Y3210630D02*
X4921259D01*
X4527558Y2858266D02*
Y3210630D01*
X4921261Y2858266D02*
Y3210630D01*
X4527558Y2858266D02*
X4921261D01*
X4527558Y3210630D02*
X4921261D01*
X6496062D02*
X6889763D01*
X6496062Y2858266D02*
Y3210630D01*
X6889765Y2858266D02*
Y3210630D01*
X6496062Y2858266D02*
X6889765D01*
X6496062Y3210630D02*
X6889765D01*
X5511810D02*
X5905511D01*
X5511810Y2858266D02*
Y3210630D01*
X5905513Y2858266D02*
Y3210630D01*
X5511810Y2858266D02*
X5905513D01*
X5511810Y3210630D02*
X5905513D01*
X3346456D02*
X3740157D01*
X3346456Y2858266D02*
Y3210630D01*
X3740158Y2858266D02*
Y3210630D01*
X3346456Y2858266D02*
X3740158D01*
X3346456Y3210630D02*
X3740158D01*
X2362204D02*
X2755905D01*
X2362204Y2858266D02*
Y3210630D01*
X2755906Y2858266D02*
Y3210630D01*
X2362204Y2858266D02*
X2755906D01*
X2362204Y3210630D02*
X2755906D01*
X1377952D02*
X1771653D01*
X1377952Y2858266D02*
Y3210630D01*
X1771654Y2858266D02*
Y3210630D01*
X1377952Y2858266D02*
X1771654D01*
X1377952Y3210630D02*
X1771654D01*
D28*
X4589890Y2839644D02*
X4592389Y2842143D01*
X4597387D01*
X4599886Y2839644D01*
Y2829647D01*
X4597387Y2827148D01*
X4592389D01*
X4589890Y2829647D01*
X4577394Y2842143D02*
X4582392D01*
X4584891Y2839644D01*
Y2829647D01*
X4582392Y2827148D01*
X4577394D01*
X4574894Y2829647D01*
Y2839644D01*
X4577394Y2842143D01*
X4569896D02*
X4559899D01*
Y2839644D01*
X4569896Y2829647D01*
Y2827148D01*
X4554901Y2839644D02*
X4552402Y2842143D01*
X4547403D01*
X4544904Y2839644D01*
Y2829647D01*
X4547403Y2827148D01*
X4552402D01*
X4554901Y2829647D01*
Y2839644D01*
X4529909Y2827148D02*
X4539906D01*
X4529909Y2837145D01*
Y2839644D01*
X4532408Y2842143D01*
X4537406D01*
X4539906Y2839644D01*
X6558394D02*
X6560893Y2842143D01*
X6565891D01*
X6568390Y2839644D01*
Y2829647D01*
X6565891Y2827148D01*
X6560893D01*
X6558394Y2829647D01*
X6545898Y2842143D02*
X6550896D01*
X6553395Y2839644D01*
Y2829647D01*
X6550896Y2827148D01*
X6545898D01*
X6543398Y2829647D01*
Y2839644D01*
X6545898Y2842143D01*
X6528403D02*
X6533402Y2839644D01*
X6538400Y2834646D01*
Y2829647D01*
X6535901Y2827148D01*
X6530902D01*
X6528403Y2829647D01*
Y2832146D01*
X6530902Y2834646D01*
X6538400D01*
X6523405Y2839644D02*
X6520906Y2842143D01*
X6515907D01*
X6513408Y2839644D01*
Y2829647D01*
X6515907Y2827148D01*
X6520906D01*
X6523405Y2829647D01*
Y2839644D01*
X6498413Y2827148D02*
X6508410D01*
X6498413Y2837145D01*
Y2839644D01*
X6500912Y2842143D01*
X6505910D01*
X6508410Y2839644D01*
X5574142D02*
X5576641Y2842143D01*
X5581639D01*
X5584138Y2839644D01*
Y2829647D01*
X5581639Y2827148D01*
X5576641D01*
X5574142Y2829647D01*
X5561646Y2842143D02*
X5566644D01*
X5569143Y2839644D01*
Y2829647D01*
X5566644Y2827148D01*
X5561646D01*
X5559146Y2829647D01*
Y2839644D01*
X5561646Y2842143D01*
X5544151D02*
X5554148D01*
Y2834646D01*
X5549150Y2837145D01*
X5546650D01*
X5544151Y2834646D01*
Y2829647D01*
X5546650Y2827148D01*
X5551649D01*
X5554148Y2829647D01*
X5539153Y2839644D02*
X5536654Y2842143D01*
X5531655D01*
X5529156Y2839644D01*
Y2829647D01*
X5531655Y2827148D01*
X5536654D01*
X5539153Y2829647D01*
Y2839644D01*
X5514161Y2827148D02*
X5524158D01*
X5514161Y2837145D01*
Y2839644D01*
X5516660Y2842143D01*
X5521658D01*
X5524158Y2839644D01*
X3408787D02*
X3411287Y2842143D01*
X3416285D01*
X3418784Y2839644D01*
Y2829647D01*
X3416285Y2827148D01*
X3411287D01*
X3408787Y2829647D01*
X3396291Y2842143D02*
X3401290D01*
X3403789Y2839644D01*
Y2829647D01*
X3401290Y2827148D01*
X3396291D01*
X3393792Y2829647D01*
Y2839644D01*
X3396291Y2842143D01*
X3381296Y2827148D02*
Y2842143D01*
X3388794Y2834646D01*
X3378797D01*
X3373798Y2839644D02*
X3371299Y2842143D01*
X3366301D01*
X3363802Y2839644D01*
Y2829647D01*
X3366301Y2827148D01*
X3371299D01*
X3373798Y2829647D01*
Y2839644D01*
X3348807Y2827148D02*
X3358803D01*
X3348807Y2837145D01*
Y2839644D01*
X3351306Y2842143D01*
X3356304D01*
X3358803Y2839644D01*
X2424535D02*
X2427035Y2842143D01*
X2432033D01*
X2434532Y2839644D01*
Y2829647D01*
X2432033Y2827148D01*
X2427035D01*
X2424535Y2829647D01*
X2412039Y2842143D02*
X2417038D01*
X2419537Y2839644D01*
Y2829647D01*
X2417038Y2827148D01*
X2412039D01*
X2409540Y2829647D01*
Y2839644D01*
X2412039Y2842143D01*
X2404542Y2839644D02*
X2402043Y2842143D01*
X2397044D01*
X2394545Y2839644D01*
Y2837145D01*
X2397044Y2834646D01*
X2399543D01*
X2397044D01*
X2394545Y2832146D01*
Y2829647D01*
X2397044Y2827148D01*
X2402043D01*
X2404542Y2829647D01*
X2389546Y2839644D02*
X2387047Y2842143D01*
X2382049D01*
X2379550Y2839644D01*
Y2829647D01*
X2382049Y2827148D01*
X2387047D01*
X2389546Y2829647D01*
Y2839644D01*
X2364555Y2827148D02*
X2374551D01*
X2364555Y2837145D01*
Y2839644D01*
X2367054Y2842143D01*
X2372052D01*
X2374551Y2839644D01*
X1440283Y2832607D02*
X1442783Y2835106D01*
X1447781D01*
X1450280Y2832607D01*
Y2822610D01*
X1447781Y2820111D01*
X1442783D01*
X1440283Y2822610D01*
X1427787Y2835106D02*
X1432786D01*
X1435285Y2832607D01*
Y2822610D01*
X1432786Y2820111D01*
X1427787D01*
X1425288Y2822610D01*
Y2832607D01*
X1427787Y2835106D01*
X1410293Y2820111D02*
X1420290D01*
X1410293Y2830108D01*
Y2832607D01*
X1412792Y2835106D01*
X1417791D01*
X1420290Y2832607D01*
X1405294D02*
X1402795Y2835106D01*
X1397797D01*
X1395298Y2832607D01*
Y2822610D01*
X1397797Y2820111D01*
X1402795D01*
X1405294Y2822610D01*
Y2832607D01*
X1380303Y2820111D02*
X1390299D01*
X1380303Y2830108D01*
Y2832607D01*
X1382802Y2835106D01*
X1387800D01*
X1390299Y2832607D01*
D29*
X4594491Y2874017D02*
D03*
X6562995D02*
D03*
X5578743D02*
D03*
X3413388D02*
D03*
X2429136D02*
D03*
X1444884D02*
D03*
%TF.MD5,e4369dd47a79369183fad3f4af94bc47*%
M02*
