%TF.GenerationSoftware,Altium Limited,Altium Designer,22.5.1 (42)*%
G04 Layer_Color=8388736*
%FSLAX26Y26*%
%MOIN*%
%TF.SameCoordinates,16E36816-DCA1-4F18-AD40-64303467345E*%
%TF.FilePolarity,Negative*%
%TF.FileFunction,Soldermask,Top*%
%TF.Part,Single*%
G01*
G75*
%TA.AperFunction,ComponentPad*%
%ADD31C,0.051307*%
%ADD32C,0.031622*%
%ADD33O,0.039496X0.063118*%
%ADD34C,0.008000*%
%TA.AperFunction,ViaPad*%
%ADD35C,0.019811*%
%TA.AperFunction,SMDPad,CuDef*%
%ADD40R,0.041465X0.019811*%
G04:AMPARAMS|DCode=41|XSize=27.685mil|YSize=48.551mil|CornerRadius=0mil|HoleSize=0mil|Usage=FLASHONLY|Rotation=40.000|XOffset=0mil|YOffset=0mil|HoleType=Round|Shape=Rectangle|*
%AMROTATEDRECTD41*
4,1,4,0.005000,-0.027494,-0.026208,0.009698,-0.005000,0.027494,0.026208,-0.009698,0.005000,-0.027494,0.0*
%
%ADD41ROTATEDRECTD41*%

G04:AMPARAMS|DCode=42|XSize=27.685mil|YSize=48.551mil|CornerRadius=0mil|HoleSize=0mil|Usage=FLASHONLY|Rotation=140.000|XOffset=0mil|YOffset=0mil|HoleType=Round|Shape=Rectangle|*
%AMROTATEDRECTD42*
4,1,4,0.026208,0.009698,-0.005000,-0.027494,-0.026208,-0.009698,0.005000,0.027494,0.026208,0.009698,0.0*
%
%ADD42ROTATEDRECTD42*%

G04:AMPARAMS|DCode=43|XSize=27.685mil|YSize=48.551mil|CornerRadius=0mil|HoleSize=0mil|Usage=FLASHONLY|Rotation=50.000|XOffset=0mil|YOffset=0mil|HoleType=Round|Shape=Rectangle|*
%AMROTATEDRECTD43*
4,1,4,0.009698,-0.026208,-0.027494,0.005000,-0.009698,0.026208,0.027494,-0.005000,0.009698,-0.026208,0.0*
%
%ADD43ROTATEDRECTD43*%

G04:AMPARAMS|DCode=44|XSize=27.685mil|YSize=48.551mil|CornerRadius=0mil|HoleSize=0mil|Usage=FLASHONLY|Rotation=310.000|XOffset=0mil|YOffset=0mil|HoleType=Round|Shape=Rectangle|*
%AMROTATEDRECTD44*
4,1,4,-0.027494,-0.005000,0.009698,0.026208,0.027494,0.005000,-0.009698,-0.026208,-0.027494,-0.005000,0.0*
%
%ADD44ROTATEDRECTD44*%

%ADD45R,0.019811X0.041465*%
D31*
X3812992Y1708661D02*
D03*
Y1519685D02*
D03*
X3982284D02*
D03*
Y1708661D02*
D03*
X6598425Y1659449D02*
D03*
X6787402D02*
D03*
Y1490157D02*
D03*
X6598425D02*
D03*
X4718504Y1519685D02*
D03*
Y1708661D02*
D03*
X4887795D02*
D03*
Y1519685D02*
D03*
X4285433D02*
D03*
Y1708661D02*
D03*
X4454724D02*
D03*
Y1519685D02*
D03*
X4887795Y2299213D02*
D03*
Y2110236D02*
D03*
X4718504D02*
D03*
Y2299213D02*
D03*
X4285433Y2110236D02*
D03*
Y2299213D02*
D03*
X4454724D02*
D03*
Y2110236D02*
D03*
X3982284Y2299213D02*
D03*
Y2110236D02*
D03*
X3812992D02*
D03*
Y2299213D02*
D03*
X3379921Y2110236D02*
D03*
Y2299213D02*
D03*
X3549213D02*
D03*
Y2110236D02*
D03*
X1480315Y1659449D02*
D03*
X1669291D02*
D03*
Y1490157D02*
D03*
X1480315D02*
D03*
X3549213Y1708661D02*
D03*
Y1519685D02*
D03*
X3379921D02*
D03*
Y1708661D02*
D03*
D32*
X4834645Y2953150D02*
D03*
X4818897Y2980709D02*
D03*
X4787401D02*
D03*
X4771653Y2953150D02*
D03*
X4755905Y2980709D02*
D03*
X4740157Y2953150D02*
D03*
X4708661D02*
D03*
X4692913Y2980709D02*
D03*
X4677165Y2953150D02*
D03*
X4661417Y2980709D02*
D03*
X4629921D02*
D03*
X4614173Y2953150D02*
D03*
X6803149D02*
D03*
X6787401Y2980709D02*
D03*
X6755905D02*
D03*
X6740157Y2953150D02*
D03*
X6724409Y2980709D02*
D03*
X6708661Y2953150D02*
D03*
X6677165D02*
D03*
X6661417Y2980709D02*
D03*
X6645669Y2953150D02*
D03*
X6629921Y2980709D02*
D03*
X6598425D02*
D03*
X6582677Y2953150D02*
D03*
X5818897D02*
D03*
X5803149Y2980709D02*
D03*
X5771653D02*
D03*
X5755905Y2953150D02*
D03*
X5740157Y2980709D02*
D03*
X5724409Y2953150D02*
D03*
X5692913D02*
D03*
X5677165Y2980709D02*
D03*
X5661417Y2953150D02*
D03*
X5645669Y2980709D02*
D03*
X5614173D02*
D03*
X5598425Y2953150D02*
D03*
X3653543D02*
D03*
X3637795Y2980709D02*
D03*
X3606299D02*
D03*
X3590551Y2953150D02*
D03*
X3574803Y2980709D02*
D03*
X3559055Y2953150D02*
D03*
X3527559D02*
D03*
X3511810Y2980709D02*
D03*
X3496062Y2953150D02*
D03*
X3480314Y2980709D02*
D03*
X3448818D02*
D03*
X3433070Y2953150D02*
D03*
X2669291D02*
D03*
X2653543Y2980709D02*
D03*
X2622047D02*
D03*
X2606299Y2953150D02*
D03*
X2590551Y2980709D02*
D03*
X2574802Y2953150D02*
D03*
X2543307D02*
D03*
X2527558Y2980709D02*
D03*
X2511810Y2953150D02*
D03*
X2496062Y2980709D02*
D03*
X2464566D02*
D03*
X2448818Y2953150D02*
D03*
X1685039D02*
D03*
X1669291Y2980709D02*
D03*
X1637795D02*
D03*
X1622047Y2953150D02*
D03*
X1606299Y2980709D02*
D03*
X1590551Y2953150D02*
D03*
X1559054D02*
D03*
X1543306Y2980709D02*
D03*
X1527558Y2953150D02*
D03*
X1511810Y2980709D02*
D03*
X1480314D02*
D03*
X1464566Y2953150D02*
D03*
D33*
X4901181Y3149606D02*
D03*
X4547637D02*
D03*
X4561810Y2976378D02*
D03*
X4887007D02*
D03*
X6869685Y3149606D02*
D03*
X6516141D02*
D03*
X6530314Y2976378D02*
D03*
X6855511D02*
D03*
X5885432Y3149606D02*
D03*
X5531889D02*
D03*
X5546062Y2976378D02*
D03*
X5871259D02*
D03*
X3720078Y3149606D02*
D03*
X3366535D02*
D03*
X3380708Y2976378D02*
D03*
X3705905D02*
D03*
X2735826Y3149606D02*
D03*
X2382283D02*
D03*
X2396456Y2976378D02*
D03*
X2721653D02*
D03*
X1751574Y3149606D02*
D03*
X1398031D02*
D03*
X1412204Y2976378D02*
D03*
X1737401D02*
D03*
D34*
X4866141Y2927559D02*
D03*
X4582676D02*
D03*
X6834645D02*
D03*
X6551181D02*
D03*
X5850393D02*
D03*
X5566928D02*
D03*
X3685039D02*
D03*
X3401574D02*
D03*
X2700787D02*
D03*
X2417322D02*
D03*
X1716535D02*
D03*
X1433070D02*
D03*
D35*
X3220472Y1741142D02*
D03*
X3864961Y2253937D02*
D03*
Y2155512D02*
D03*
X4402756D02*
D03*
Y2253937D02*
D03*
X4473425Y1644685D02*
D03*
X3775590Y1603347D02*
D03*
X4253937Y1584646D02*
D03*
X3980315Y1643701D02*
D03*
X4337401Y1663386D02*
D03*
Y1564961D02*
D03*
X3930315D02*
D03*
Y1663386D02*
D03*
X4675197Y2905512D02*
D03*
X4773623D02*
D03*
X3494095D02*
D03*
X3592520D02*
D03*
X3431889Y2253937D02*
D03*
Y2155512D02*
D03*
X4835827D02*
D03*
Y2253937D02*
D03*
X6643701Y1607480D02*
D03*
X6742126D02*
D03*
X4835827Y1564961D02*
D03*
Y1663386D02*
D03*
X3431890D02*
D03*
Y1564961D02*
D03*
X1525591Y1607480D02*
D03*
X1624016D02*
D03*
X3930315Y1683071D02*
D03*
Y1702756D02*
D03*
Y1545276D02*
D03*
Y1525591D02*
D03*
Y1624016D02*
D03*
Y1604331D02*
D03*
X4337401D02*
D03*
Y1624016D02*
D03*
X4402756D02*
D03*
Y1604331D02*
D03*
X3864961D02*
D03*
Y1624016D02*
D03*
X6702756Y1542126D02*
D03*
X6683071Y1607480D02*
D03*
X4835827Y1624016D02*
D03*
X4770472Y1604331D02*
D03*
X4960630Y1759842D02*
D03*
Y1777559D02*
D03*
X4770472Y1702756D02*
D03*
Y1683071D02*
D03*
X4960630Y1455709D02*
D03*
Y1473425D02*
D03*
X4770472Y1545276D02*
D03*
Y1525591D02*
D03*
X6338583Y1594488D02*
D03*
Y1612205D02*
D03*
X6338583Y1703740D02*
D03*
Y1721457D02*
D03*
X6761811Y1542126D02*
D03*
X6781496D02*
D03*
X4770472Y1624016D02*
D03*
X4835827Y1604331D02*
D03*
X6604331Y1542126D02*
D03*
X6624016D02*
D03*
X6702756Y1607480D02*
D03*
X6683071Y1542126D02*
D03*
X4337401Y1525591D02*
D03*
Y1545276D02*
D03*
Y1702756D02*
D03*
Y1683071D02*
D03*
X6128937Y1569882D02*
D03*
X4770472Y1584646D02*
D03*
X6722441Y1542126D02*
D03*
X6408465Y1643701D02*
D03*
X1584646Y1542126D02*
D03*
X1564961D02*
D03*
X1584646Y1607480D02*
D03*
X1564961D02*
D03*
X1643701Y1542126D02*
D03*
X1663386D02*
D03*
X3431890Y1604331D02*
D03*
Y1624016D02*
D03*
X3497244Y1604331D02*
D03*
Y1624016D02*
D03*
X3187008Y1377953D02*
D03*
X3431890Y1584646D02*
D03*
X3497244Y1643701D02*
D03*
Y1525591D02*
D03*
Y1545276D02*
D03*
X3307087Y1473425D02*
D03*
Y1455709D02*
D03*
X3497244Y1683071D02*
D03*
Y1702756D02*
D03*
X3307087Y1777559D02*
D03*
Y1759842D02*
D03*
X1486220Y1542126D02*
D03*
X1505906D02*
D03*
X1929134Y1721457D02*
D03*
Y1703740D02*
D03*
X1929134Y1612205D02*
D03*
Y1594488D02*
D03*
X2529527Y2905512D02*
D03*
X3930315Y2116142D02*
D03*
Y2135827D02*
D03*
Y2273622D02*
D03*
Y2293307D02*
D03*
X2608268Y2905512D02*
D03*
X2509843D02*
D03*
X3930315Y2194882D02*
D03*
Y2214567D02*
D03*
X3864961D02*
D03*
Y2194882D02*
D03*
X5679133Y2905512D02*
D03*
X6663385D02*
D03*
X4770472Y2194882D02*
D03*
Y2214567D02*
D03*
X4835827Y2194882D02*
D03*
X6643701Y2905512D02*
D03*
X6742127D02*
D03*
X4835827Y2214567D02*
D03*
Y2135827D02*
D03*
Y2116142D02*
D03*
Y2273622D02*
D03*
Y2293307D02*
D03*
X4402756Y2194882D02*
D03*
Y2214567D02*
D03*
X4337401D02*
D03*
Y2194882D02*
D03*
X5757873Y2905512D02*
D03*
X5659448D02*
D03*
X4337401Y2293307D02*
D03*
Y2273622D02*
D03*
Y2135827D02*
D03*
Y2116142D02*
D03*
X1545275Y2905512D02*
D03*
X1624015D02*
D03*
X1525590D02*
D03*
X3497244Y2214567D02*
D03*
Y2194882D02*
D03*
X3431890Y2214567D02*
D03*
Y2194882D02*
D03*
Y2135827D02*
D03*
Y2116142D02*
D03*
Y2273622D02*
D03*
Y2293307D02*
D03*
D40*
X3930315Y1722441D02*
D03*
Y1702756D02*
D03*
Y1683071D02*
D03*
Y1663386D02*
D03*
Y1643701D02*
D03*
Y1624016D02*
D03*
Y1604331D02*
D03*
Y1584646D02*
D03*
Y1564961D02*
D03*
Y1545276D02*
D03*
Y1525591D02*
D03*
Y1505906D02*
D03*
X3864961D02*
D03*
Y1525591D02*
D03*
Y1545276D02*
D03*
Y1564961D02*
D03*
Y1584646D02*
D03*
Y1604331D02*
D03*
Y1624016D02*
D03*
Y1643701D02*
D03*
Y1663386D02*
D03*
Y1683071D02*
D03*
Y1702756D02*
D03*
Y1722441D02*
D03*
X4835827Y1505906D02*
D03*
Y1525591D02*
D03*
Y1545276D02*
D03*
Y1564961D02*
D03*
Y1584646D02*
D03*
Y1604331D02*
D03*
Y1624016D02*
D03*
Y1643701D02*
D03*
Y1663386D02*
D03*
Y1683071D02*
D03*
Y1702756D02*
D03*
Y1722441D02*
D03*
X4770472D02*
D03*
Y1702756D02*
D03*
Y1683071D02*
D03*
Y1663386D02*
D03*
Y1643701D02*
D03*
Y1624016D02*
D03*
Y1604331D02*
D03*
Y1584646D02*
D03*
Y1564961D02*
D03*
Y1545276D02*
D03*
Y1525591D02*
D03*
Y1505906D02*
D03*
X4402756D02*
D03*
Y1525591D02*
D03*
Y1545276D02*
D03*
Y1564961D02*
D03*
Y1584646D02*
D03*
Y1604331D02*
D03*
Y1624016D02*
D03*
Y1643701D02*
D03*
Y1663386D02*
D03*
Y1683071D02*
D03*
Y1702756D02*
D03*
Y1722441D02*
D03*
X4337401D02*
D03*
Y1702756D02*
D03*
Y1683071D02*
D03*
Y1663386D02*
D03*
Y1643701D02*
D03*
Y1624016D02*
D03*
Y1604331D02*
D03*
Y1584646D02*
D03*
Y1564961D02*
D03*
Y1545276D02*
D03*
Y1525591D02*
D03*
Y1505906D02*
D03*
X4770472Y2312992D02*
D03*
Y2293307D02*
D03*
Y2273622D02*
D03*
Y2253937D02*
D03*
Y2234252D02*
D03*
Y2214567D02*
D03*
Y2194882D02*
D03*
Y2175197D02*
D03*
Y2155512D02*
D03*
Y2135827D02*
D03*
Y2116142D02*
D03*
Y2096457D02*
D03*
X4835827D02*
D03*
Y2116142D02*
D03*
Y2135827D02*
D03*
Y2155512D02*
D03*
Y2175197D02*
D03*
Y2194882D02*
D03*
Y2214567D02*
D03*
Y2234252D02*
D03*
Y2253937D02*
D03*
Y2273622D02*
D03*
Y2293307D02*
D03*
Y2312992D02*
D03*
X4402756Y2096457D02*
D03*
Y2116142D02*
D03*
Y2135827D02*
D03*
Y2155512D02*
D03*
Y2175197D02*
D03*
Y2194882D02*
D03*
Y2214567D02*
D03*
Y2234252D02*
D03*
Y2253937D02*
D03*
Y2273622D02*
D03*
Y2293307D02*
D03*
Y2312992D02*
D03*
X4337401D02*
D03*
Y2293307D02*
D03*
Y2273622D02*
D03*
Y2253937D02*
D03*
Y2234252D02*
D03*
Y2214567D02*
D03*
Y2194882D02*
D03*
Y2175197D02*
D03*
Y2155512D02*
D03*
Y2135827D02*
D03*
Y2116142D02*
D03*
Y2096457D02*
D03*
X3864961Y2312992D02*
D03*
Y2293307D02*
D03*
Y2273622D02*
D03*
Y2253937D02*
D03*
Y2234252D02*
D03*
Y2214567D02*
D03*
Y2194882D02*
D03*
Y2175197D02*
D03*
Y2155512D02*
D03*
Y2135827D02*
D03*
Y2116142D02*
D03*
Y2096457D02*
D03*
X3930315D02*
D03*
Y2116142D02*
D03*
Y2135827D02*
D03*
Y2155512D02*
D03*
Y2175197D02*
D03*
Y2194882D02*
D03*
Y2214567D02*
D03*
Y2234252D02*
D03*
Y2253937D02*
D03*
Y2273622D02*
D03*
Y2293307D02*
D03*
Y2312992D02*
D03*
X3497244Y2096457D02*
D03*
Y2116142D02*
D03*
Y2135827D02*
D03*
Y2155512D02*
D03*
Y2175197D02*
D03*
Y2194882D02*
D03*
Y2214567D02*
D03*
Y2234252D02*
D03*
Y2253937D02*
D03*
Y2273622D02*
D03*
Y2293307D02*
D03*
Y2312992D02*
D03*
X3431890D02*
D03*
Y2293307D02*
D03*
Y2273622D02*
D03*
Y2253937D02*
D03*
Y2234252D02*
D03*
Y2214567D02*
D03*
Y2194882D02*
D03*
Y2175197D02*
D03*
Y2155512D02*
D03*
Y2135827D02*
D03*
Y2116142D02*
D03*
Y2096457D02*
D03*
Y1722441D02*
D03*
Y1702756D02*
D03*
Y1683071D02*
D03*
Y1663386D02*
D03*
Y1643701D02*
D03*
Y1624016D02*
D03*
Y1604331D02*
D03*
Y1584646D02*
D03*
Y1564961D02*
D03*
Y1545276D02*
D03*
Y1525591D02*
D03*
Y1505906D02*
D03*
X3497244D02*
D03*
Y1525591D02*
D03*
Y1545276D02*
D03*
Y1564961D02*
D03*
Y1584646D02*
D03*
Y1604331D02*
D03*
Y1624016D02*
D03*
Y1643701D02*
D03*
Y1663386D02*
D03*
Y1683071D02*
D03*
Y1702756D02*
D03*
Y1722441D02*
D03*
D41*
X3852953Y1461417D02*
D03*
X3942323Y1766929D02*
D03*
X4758465Y1461417D02*
D03*
X4847835Y1766929D02*
D03*
X4325394Y1461417D02*
D03*
X4414764Y1766929D02*
D03*
X4847835Y2357480D02*
D03*
X4758465Y2051968D02*
D03*
X4325394D02*
D03*
X4414764Y2357480D02*
D03*
X3942323D02*
D03*
X3852953Y2051968D02*
D03*
X3419882D02*
D03*
X3509252Y2357480D02*
D03*
Y1766929D02*
D03*
X3419882Y1461417D02*
D03*
D42*
X3942323D02*
D03*
X3852953Y1766929D02*
D03*
X4847835Y1461417D02*
D03*
X4758465Y1766929D02*
D03*
X4414764Y1461417D02*
D03*
X4325394Y1766929D02*
D03*
X4758465Y2357480D02*
D03*
X4847835Y2051968D02*
D03*
X4414764D02*
D03*
X4325394Y2357480D02*
D03*
X3852953D02*
D03*
X3942323Y2051968D02*
D03*
X3509252D02*
D03*
X3419882Y2357480D02*
D03*
Y1766929D02*
D03*
X3509252Y1461417D02*
D03*
D43*
X6540158Y1530118D02*
D03*
X6845669Y1619488D02*
D03*
X1422047Y1530118D02*
D03*
X1727559Y1619488D02*
D03*
D44*
X6540158D02*
D03*
X6845669Y1530118D02*
D03*
X1422047Y1619488D02*
D03*
X1727559Y1530118D02*
D03*
D45*
X6584646Y1542126D02*
D03*
X6604331D02*
D03*
X6624016D02*
D03*
X6643701D02*
D03*
X6663386D02*
D03*
X6683071D02*
D03*
X6702756D02*
D03*
X6722441D02*
D03*
X6742126D02*
D03*
X6761811D02*
D03*
X6781496D02*
D03*
X6801181D02*
D03*
Y1607480D02*
D03*
X6781496D02*
D03*
X6761811D02*
D03*
X6742126D02*
D03*
X6722441D02*
D03*
X6702756D02*
D03*
X6683071D02*
D03*
X6663386D02*
D03*
X6643701D02*
D03*
X6624016D02*
D03*
X6604331D02*
D03*
X6584646D02*
D03*
X1466535Y1542126D02*
D03*
X1486220D02*
D03*
X1505906D02*
D03*
X1525591D02*
D03*
X1545275D02*
D03*
X1564961D02*
D03*
X1584646D02*
D03*
X1604331D02*
D03*
X1624016D02*
D03*
X1643701D02*
D03*
X1663386D02*
D03*
X1683071D02*
D03*
Y1607480D02*
D03*
X1663386D02*
D03*
X1643701D02*
D03*
X1624016D02*
D03*
X1604331D02*
D03*
X1584646D02*
D03*
X1564961D02*
D03*
X1545275D02*
D03*
X1525591D02*
D03*
X1505906D02*
D03*
X1486220D02*
D03*
X1466535D02*
D03*
%TF.MD5,f717aa4bdc672d3e1b53ad7b49e99abf*%
M02*
