%TF.GenerationSoftware,Altium Limited,Altium Designer,22.5.1 (42)*%
G04 Layer_Color=128*
%FSLAX26Y26*%
%MOIN*%
%TF.SameCoordinates,16E36816-DCA1-4F18-AD40-64303467345E*%
%TF.FilePolarity,Positive*%
%TF.FileFunction,Drillmap*%
%TF.Part,Single*%
G01*
G75*
%TA.AperFunction,NonConductor*%
%ADD59C,0.005000*%
D59*
X4335433Y1663386D02*
X4339370D01*
X4337401Y1661417D02*
Y1665354D01*
X4335433Y1564961D02*
X4339370D01*
X4337401Y1562992D02*
Y1566929D01*
X3928347Y1564961D02*
X3932284D01*
X3930315Y1562992D02*
Y1566929D01*
X3928347Y1663386D02*
X3932284D01*
X3930315Y1661417D02*
Y1665354D01*
X4400787Y1624016D02*
X4404724D01*
X4402756Y1622047D02*
Y1625984D01*
X4400787Y1604331D02*
X4404724D01*
X4402756Y1602362D02*
Y1606299D01*
X3862992Y1604331D02*
X3866929D01*
X3864961Y1602362D02*
Y1606299D01*
X3862992Y1624016D02*
X3866929D01*
X3864961Y1622047D02*
Y1625984D01*
X6681102Y1607480D02*
X6685039D01*
X6683071Y1605512D02*
Y1609449D01*
X4833858Y1624016D02*
X4837795D01*
X4835827Y1622047D02*
Y1625984D01*
X4833858Y1604331D02*
X4837795D01*
X4835827Y1602362D02*
Y1606299D01*
X6700787Y1607480D02*
X6704724D01*
X6702756Y1605512D02*
Y1609449D01*
X1582677Y1607480D02*
X1586614D01*
X1584646Y1605512D02*
Y1609449D01*
X1562992Y1607480D02*
X1566929D01*
X1564961Y1605512D02*
Y1609449D01*
X3429921Y1604331D02*
X3433858D01*
X3431890Y1602362D02*
Y1606299D01*
X3429921Y1624016D02*
X3433858D01*
X3431890Y1622047D02*
Y1625984D01*
X3862992Y2214567D02*
X3866929D01*
X3864961Y2212599D02*
Y2216535D01*
X3862992Y2194882D02*
X3866929D01*
X3864961Y2192913D02*
Y2196850D01*
X4768504Y2194882D02*
X4772441D01*
X4770472Y2192913D02*
Y2196850D01*
X4768504Y2214567D02*
X4772441D01*
X4770472Y2212599D02*
Y2216535D01*
X4400787Y2194882D02*
X4404724D01*
X4402756Y2192913D02*
Y2196850D01*
X4400787Y2214567D02*
X4404724D01*
X4402756Y2212599D02*
Y2216535D01*
X3495276Y2214567D02*
X3499213D01*
X3497244Y2212599D02*
Y2216535D01*
X3495276Y2194882D02*
X3499213D01*
X3497244Y2192913D02*
Y2196850D01*
%TF.MD5,0710e6c75b958e75c6cb96522a013a68*%
M02*
