%TF.GenerationSoftware,Altium Limited,Altium Designer,22.5.1 (42)*%
G04 Layer_Color=255*
%FSLAX26Y26*%
%MOIN*%
%TF.SameCoordinates,06390142-FE97-446B-9427-C7DC68BF18C4*%
%TF.FilePolarity,Positive*%
%TF.FileFunction,Pads,Bot*%
%TF.Part,Single*%
G01*
G75*
%TA.AperFunction,ComponentPad*%
%ADD20C,0.043307*%
%ADD21C,0.023622*%
%ADD22O,0.031496X0.055118*%
%TA.AperFunction,ConnectorPad*%
%ADD25R,0.011811X0.035433*%
D20*
X3812992Y1708661D02*
D03*
Y1519685D02*
D03*
X3982284D02*
D03*
Y1708661D02*
D03*
X6598425Y1659449D02*
D03*
X6787402D02*
D03*
Y1490157D02*
D03*
X6598425D02*
D03*
X4718504Y1519685D02*
D03*
Y1708661D02*
D03*
X4887795D02*
D03*
Y1519685D02*
D03*
X4285433D02*
D03*
Y1708661D02*
D03*
X4454724D02*
D03*
Y1519685D02*
D03*
X4887795Y2299213D02*
D03*
Y2110236D02*
D03*
X4718504D02*
D03*
Y2299213D02*
D03*
X4285433Y2110236D02*
D03*
Y2299213D02*
D03*
X4454724D02*
D03*
Y2110236D02*
D03*
X3982284Y2299213D02*
D03*
Y2110236D02*
D03*
X3812992D02*
D03*
Y2299213D02*
D03*
X3379921Y2110236D02*
D03*
Y2299213D02*
D03*
X3549213D02*
D03*
Y2110236D02*
D03*
X1480315Y1659449D02*
D03*
X1669291D02*
D03*
Y1490157D02*
D03*
X1480315D02*
D03*
X3549213Y1708661D02*
D03*
Y1519685D02*
D03*
X3379921D02*
D03*
Y1708661D02*
D03*
D21*
X4834645Y2953150D02*
D03*
X4818897Y2980709D02*
D03*
X4787401D02*
D03*
X4771653Y2953150D02*
D03*
X4755905Y2980709D02*
D03*
X4740157Y2953150D02*
D03*
X4708661D02*
D03*
X4692913Y2980709D02*
D03*
X4677165Y2953150D02*
D03*
X4661417Y2980709D02*
D03*
X4629921D02*
D03*
X4614173Y2953150D02*
D03*
X6803149D02*
D03*
X6787401Y2980709D02*
D03*
X6755905D02*
D03*
X6740157Y2953150D02*
D03*
X6724409Y2980709D02*
D03*
X6708661Y2953150D02*
D03*
X6677165D02*
D03*
X6661417Y2980709D02*
D03*
X6645669Y2953150D02*
D03*
X6629921Y2980709D02*
D03*
X6598425D02*
D03*
X6582677Y2953150D02*
D03*
X5818897D02*
D03*
X5803149Y2980709D02*
D03*
X5771653D02*
D03*
X5755905Y2953150D02*
D03*
X5740157Y2980709D02*
D03*
X5724409Y2953150D02*
D03*
X5692913D02*
D03*
X5677165Y2980709D02*
D03*
X5661417Y2953150D02*
D03*
X5645669Y2980709D02*
D03*
X5614173D02*
D03*
X5598425Y2953150D02*
D03*
X3653543D02*
D03*
X3637795Y2980709D02*
D03*
X3606299D02*
D03*
X3590551Y2953150D02*
D03*
X3574803Y2980709D02*
D03*
X3559055Y2953150D02*
D03*
X3527559D02*
D03*
X3511810Y2980709D02*
D03*
X3496062Y2953150D02*
D03*
X3480314Y2980709D02*
D03*
X3448818D02*
D03*
X3433070Y2953150D02*
D03*
X2669291D02*
D03*
X2653543Y2980709D02*
D03*
X2622047D02*
D03*
X2606299Y2953150D02*
D03*
X2590551Y2980709D02*
D03*
X2574802Y2953150D02*
D03*
X2543307D02*
D03*
X2527558Y2980709D02*
D03*
X2511810Y2953150D02*
D03*
X2496062Y2980709D02*
D03*
X2464566D02*
D03*
X2448818Y2953150D02*
D03*
X1685039D02*
D03*
X1669291Y2980709D02*
D03*
X1637795D02*
D03*
X1622047Y2953150D02*
D03*
X1606299Y2980709D02*
D03*
X1590551Y2953150D02*
D03*
X1559054D02*
D03*
X1543306Y2980709D02*
D03*
X1527558Y2953150D02*
D03*
X1511810Y2980709D02*
D03*
X1480314D02*
D03*
X1464566Y2953150D02*
D03*
D22*
X4901181Y3149606D02*
D03*
X4547637D02*
D03*
X4561810Y2976378D02*
D03*
X4887007D02*
D03*
X6869685Y3149606D02*
D03*
X6516141D02*
D03*
X6530314Y2976378D02*
D03*
X6855511D02*
D03*
X5885432Y3149606D02*
D03*
X5531889D02*
D03*
X5546062Y2976378D02*
D03*
X5871259D02*
D03*
X3720078Y3149606D02*
D03*
X3366535D02*
D03*
X3380708Y2976378D02*
D03*
X3705905D02*
D03*
X2735826Y3149606D02*
D03*
X2382283D02*
D03*
X2396456Y2976378D02*
D03*
X2721653D02*
D03*
X1751574Y3149606D02*
D03*
X1398031D02*
D03*
X1412204Y2976378D02*
D03*
X1737401D02*
D03*
D25*
X4832676Y2905512D02*
D03*
X4812992D02*
D03*
X4793306D02*
D03*
X4773621D02*
D03*
X4753936D02*
D03*
X4734251D02*
D03*
X4714566D02*
D03*
X4694881D02*
D03*
X4675196D02*
D03*
X4655511D02*
D03*
X4635826D02*
D03*
X4616141D02*
D03*
X6801181D02*
D03*
X6781495D02*
D03*
X6761810D02*
D03*
X6742125D02*
D03*
X6722440D02*
D03*
X6702755D02*
D03*
X6683070D02*
D03*
X6663385D02*
D03*
X6643700D02*
D03*
X6624015D02*
D03*
X6604330D02*
D03*
X6584645D02*
D03*
X5816928D02*
D03*
X5797243D02*
D03*
X5777558D02*
D03*
X5757873D02*
D03*
X5738188D02*
D03*
X5718503D02*
D03*
X5698818D02*
D03*
X5679133D02*
D03*
X5659448D02*
D03*
X5639763D02*
D03*
X5620078D02*
D03*
X5600393D02*
D03*
X3651574D02*
D03*
X3631889D02*
D03*
X3612204D02*
D03*
X3592519D02*
D03*
X3572834D02*
D03*
X3553149D02*
D03*
X3533464D02*
D03*
X3513779D02*
D03*
X3494094D02*
D03*
X3474409D02*
D03*
X3454724D02*
D03*
X3435039D02*
D03*
X2667322D02*
D03*
X2647637D02*
D03*
X2627952D02*
D03*
X2608267D02*
D03*
X2588582D02*
D03*
X2568897D02*
D03*
X2549212D02*
D03*
X2529527D02*
D03*
X2509842D02*
D03*
X2490157D02*
D03*
X2470472D02*
D03*
X2450787D02*
D03*
X1683070D02*
D03*
X1663385D02*
D03*
X1643700D02*
D03*
X1624015D02*
D03*
X1604330D02*
D03*
X1584645D02*
D03*
X1564960D02*
D03*
X1545275D02*
D03*
X1525590D02*
D03*
X1505905D02*
D03*
X1486220D02*
D03*
X1466535D02*
D03*
%TF.MD5,3aa74a6e62b5b4b5d971d6fd50dfed5b*%
M02*
