%TF.GenerationSoftware,Altium Limited,Altium Designer,22.5.1 (42)*%
G04 Layer_Physical_Order=6*
G04 Layer_Color=48896*
%FSLAX26Y26*%
%MOIN*%
%TF.SameCoordinates,06390142-FE97-446B-9427-C7DC68BF18C4*%
%TF.FilePolarity,Positive*%
%TF.FileFunction,Copper,L6,Inr,Signal*%
%TF.Part,Single*%
G01*
G75*
%TA.AperFunction,Conductor*%
%ADD10C,0.005906*%
%ADD18C,0.011811*%
%TA.AperFunction,ComponentPad*%
%ADD20C,0.043307*%
%ADD21C,0.023622*%
%ADD22O,0.031496X0.055118*%
%TA.AperFunction,ViaPad*%
%ADD23C,0.011811*%
%TA.AperFunction,Conductor*%
%ADD24C,0.004921*%
G36*
X6978028Y1191298D02*
X1289723D01*
Y3200465D01*
X6978028D01*
Y1191298D01*
D02*
G37*
%LPC*%
G36*
X6874685Y3186729D02*
Y3154607D01*
X6895655D01*
Y3161417D01*
X6894770Y3168139D01*
X6892175Y3174402D01*
X6888048Y3179781D01*
X6882670Y3183908D01*
X6876406Y3186503D01*
X6874685Y3186729D01*
D02*
G37*
G36*
X6864685Y3186729D02*
X6862963Y3186503D01*
X6856699Y3183908D01*
X6851321Y3179781D01*
X6847194Y3174402D01*
X6844599Y3168139D01*
X6843714Y3161417D01*
Y3154607D01*
X6864685D01*
Y3186729D01*
D02*
G37*
G36*
X3725078Y3186729D02*
Y3154607D01*
X3746048D01*
Y3161417D01*
X3745164Y3168139D01*
X3742569Y3174402D01*
X3738442Y3179781D01*
X3733063Y3183908D01*
X3726800Y3186503D01*
X3725078Y3186729D01*
D02*
G37*
G36*
X3715078Y3186729D02*
X3713357Y3186503D01*
X3707093Y3183908D01*
X3701715Y3179781D01*
X3697587Y3174402D01*
X3694993Y3168139D01*
X3694108Y3161417D01*
Y3154607D01*
X3715078D01*
Y3186729D01*
D02*
G37*
G36*
X6521141Y3186729D02*
Y3154606D01*
X6542111D01*
Y3161417D01*
X6541226Y3168139D01*
X6538632Y3174402D01*
X6534505Y3179781D01*
X6529126Y3183908D01*
X6522863Y3186503D01*
X6521141Y3186729D01*
D02*
G37*
G36*
X5536889D02*
Y3154606D01*
X5557859D01*
Y3161417D01*
X5556974Y3168139D01*
X5554380Y3174402D01*
X5550253Y3179781D01*
X5544874Y3183908D01*
X5538611Y3186503D01*
X5536889Y3186729D01*
D02*
G37*
G36*
X4552637D02*
Y3154606D01*
X4573607D01*
Y3161417D01*
X4572722Y3168139D01*
X4570128Y3174402D01*
X4566001Y3179781D01*
X4560622Y3183908D01*
X4554359Y3186503D01*
X4552637Y3186729D01*
D02*
G37*
G36*
X6511141D02*
X6509419Y3186503D01*
X6503156Y3183908D01*
X6497777Y3179781D01*
X6493650Y3174402D01*
X6491056Y3168139D01*
X6490171Y3161417D01*
Y3154606D01*
X6511141D01*
Y3186729D01*
D02*
G37*
G36*
X5526889D02*
X5525167Y3186503D01*
X5518904Y3183908D01*
X5513525Y3179781D01*
X5509398Y3174402D01*
X5506804Y3168139D01*
X5505919Y3161417D01*
Y3154606D01*
X5526889D01*
Y3186729D01*
D02*
G37*
G36*
X4542637D02*
X4540916Y3186503D01*
X4534652Y3183908D01*
X4529273Y3179781D01*
X4525146Y3174402D01*
X4522552Y3168139D01*
X4521667Y3161417D01*
Y3154606D01*
X4542637D01*
Y3186729D01*
D02*
G37*
G36*
X3371535Y3186729D02*
Y3154606D01*
X3392505D01*
Y3161417D01*
X3391620Y3168139D01*
X3389026Y3174402D01*
X3384898Y3179781D01*
X3379520Y3183908D01*
X3373256Y3186503D01*
X3371535Y3186729D01*
D02*
G37*
G36*
X2740826D02*
Y3154606D01*
X2761796D01*
Y3161417D01*
X2760912Y3168139D01*
X2758317Y3174402D01*
X2754190Y3179781D01*
X2748811Y3183908D01*
X2742548Y3186503D01*
X2740826Y3186729D01*
D02*
G37*
G36*
X2387283D02*
Y3154606D01*
X2408253D01*
Y3161417D01*
X2407368Y3168139D01*
X2404774Y3174402D01*
X2400646Y3179781D01*
X2395268Y3183908D01*
X2389004Y3186503D01*
X2387283Y3186729D01*
D02*
G37*
G36*
X1756574D02*
Y3154606D01*
X1777544D01*
Y3161417D01*
X1776659Y3168139D01*
X1774065Y3174402D01*
X1769938Y3179781D01*
X1764559Y3183908D01*
X1758296Y3186503D01*
X1756574Y3186729D01*
D02*
G37*
G36*
X1403031D02*
Y3154606D01*
X1424001D01*
Y3161417D01*
X1423116Y3168139D01*
X1420522Y3174402D01*
X1416395Y3179781D01*
X1411016Y3183908D01*
X1404752Y3186503D01*
X1403031Y3186729D01*
D02*
G37*
G36*
X3361535Y3186729D02*
X3359813Y3186503D01*
X3353550Y3183908D01*
X3348171Y3179781D01*
X3344044Y3174402D01*
X3341450Y3168139D01*
X3340565Y3161417D01*
Y3154606D01*
X3361535D01*
Y3186729D01*
D02*
G37*
G36*
X1393031D02*
X1391309Y3186503D01*
X1385046Y3183908D01*
X1379667Y3179781D01*
X1375540Y3174402D01*
X1372946Y3168139D01*
X1372061Y3161417D01*
Y3154606D01*
X1393031D01*
Y3186729D01*
D02*
G37*
G36*
X2730826D02*
X2729105Y3186503D01*
X2722841Y3183908D01*
X2717463Y3179781D01*
X2713335Y3174402D01*
X2710741Y3168139D01*
X2709856Y3161417D01*
Y3154606D01*
X2730826D01*
Y3186729D01*
D02*
G37*
G36*
X2377283D02*
X2375561Y3186503D01*
X2369298Y3183908D01*
X2363919Y3179781D01*
X2359792Y3174402D01*
X2357198Y3168139D01*
X2356313Y3161417D01*
Y3154606D01*
X2377283D01*
Y3186729D01*
D02*
G37*
G36*
X1746574D02*
X1744853Y3186503D01*
X1738589Y3183908D01*
X1733210Y3179781D01*
X1729083Y3174402D01*
X1726489Y3168139D01*
X1725604Y3161417D01*
Y3154606D01*
X1746574D01*
Y3186729D01*
D02*
G37*
G36*
X5890432Y3186729D02*
Y3154606D01*
X5911403D01*
Y3161417D01*
X5910518Y3168139D01*
X5907923Y3174402D01*
X5903796Y3179781D01*
X5898418Y3183908D01*
X5892154Y3186503D01*
X5890432Y3186729D01*
D02*
G37*
G36*
X4906180D02*
Y3154606D01*
X4927151D01*
Y3161417D01*
X4926266Y3168139D01*
X4923671Y3174402D01*
X4919544Y3179781D01*
X4914166Y3183908D01*
X4907902Y3186503D01*
X4906180Y3186729D01*
D02*
G37*
G36*
X5880432Y3186729D02*
X5878711Y3186503D01*
X5872447Y3183908D01*
X5867069Y3179781D01*
X5862942Y3174402D01*
X5860347Y3168139D01*
X5859462Y3161417D01*
Y3154606D01*
X5880432D01*
Y3186729D01*
D02*
G37*
G36*
X4896180D02*
X4894459Y3186503D01*
X4888195Y3183908D01*
X4882817Y3179781D01*
X4878690Y3174402D01*
X4876095Y3168139D01*
X4875210Y3161417D01*
Y3154606D01*
X4896180D01*
Y3186729D01*
D02*
G37*
G36*
X6895655Y3144607D02*
X6874685D01*
Y3112483D01*
X6876406Y3112710D01*
X6882670Y3115304D01*
X6888048Y3119432D01*
X6892175Y3124810D01*
X6894770Y3131074D01*
X6895655Y3137795D01*
Y3144607D01*
D02*
G37*
G36*
X5880432Y3144606D02*
X5859462D01*
Y3137795D01*
X5860347Y3131074D01*
X5862942Y3124810D01*
X5867069Y3119432D01*
X5872447Y3115304D01*
X5878711Y3112710D01*
X5880432Y3112483D01*
Y3144606D01*
D02*
G37*
G36*
X4896180D02*
X4875210D01*
Y3137795D01*
X4876095Y3131074D01*
X4878690Y3124810D01*
X4882817Y3119432D01*
X4888195Y3115304D01*
X4894459Y3112710D01*
X4896180Y3112483D01*
Y3144606D01*
D02*
G37*
G36*
X3746048Y3144607D02*
X3725078D01*
Y3112483D01*
X3726800Y3112710D01*
X3733063Y3115304D01*
X3738442Y3119432D01*
X3742569Y3124810D01*
X3745164Y3131074D01*
X3746048Y3137795D01*
Y3144607D01*
D02*
G37*
G36*
X2377283Y3144606D02*
X2356313D01*
Y3137795D01*
X2357198Y3131074D01*
X2359792Y3124810D01*
X2363919Y3119432D01*
X2369298Y3115304D01*
X2375561Y3112710D01*
X2377283Y3112483D01*
Y3144606D01*
D02*
G37*
G36*
X1746574D02*
X1725604D01*
Y3137795D01*
X1726489Y3131074D01*
X1729083Y3124810D01*
X1733210Y3119432D01*
X1738589Y3115304D01*
X1744853Y3112710D01*
X1746574Y3112483D01*
Y3144606D01*
D02*
G37*
G36*
X1393031D02*
X1372061D01*
Y3137795D01*
X1372946Y3131074D01*
X1375540Y3124810D01*
X1379667Y3119432D01*
X1385046Y3115304D01*
X1391309Y3112710D01*
X1393031Y3112483D01*
Y3144606D01*
D02*
G37*
G36*
X3361535D02*
X3340565D01*
Y3137795D01*
X3341450Y3131074D01*
X3344044Y3124810D01*
X3348171Y3119432D01*
X3353550Y3115304D01*
X3359813Y3112710D01*
X3361535Y3112483D01*
Y3144606D01*
D02*
G37*
G36*
X2730826D02*
X2709856D01*
Y3137795D01*
X2710741Y3131074D01*
X2713335Y3124810D01*
X2717463Y3119432D01*
X2722841Y3115304D01*
X2729105Y3112710D01*
X2730826Y3112483D01*
Y3144606D01*
D02*
G37*
G36*
X6542111Y3144606D02*
X6521141D01*
Y3112483D01*
X6522863Y3112710D01*
X6529126Y3115304D01*
X6534505Y3119432D01*
X6538632Y3124810D01*
X6541226Y3131074D01*
X6542111Y3137795D01*
Y3144606D01*
D02*
G37*
G36*
X5557859D02*
X5536889D01*
Y3112483D01*
X5538611Y3112710D01*
X5544874Y3115304D01*
X5550253Y3119432D01*
X5554380Y3124810D01*
X5556974Y3131074D01*
X5557859Y3137795D01*
Y3144606D01*
D02*
G37*
G36*
X4573607D02*
X4552637D01*
Y3112483D01*
X4554359Y3112710D01*
X4560622Y3115304D01*
X4566001Y3119432D01*
X4570128Y3124810D01*
X4572722Y3131074D01*
X4573607Y3137795D01*
Y3144606D01*
D02*
G37*
G36*
X6511141D02*
X6490171D01*
Y3137795D01*
X6491056Y3131074D01*
X6493650Y3124810D01*
X6497777Y3119432D01*
X6503156Y3115304D01*
X6509419Y3112710D01*
X6511141Y3112483D01*
Y3144606D01*
D02*
G37*
G36*
X5526889D02*
X5505919D01*
Y3137795D01*
X5506804Y3131074D01*
X5509398Y3124810D01*
X5513525Y3119432D01*
X5518904Y3115304D01*
X5525167Y3112710D01*
X5526889Y3112483D01*
Y3144606D01*
D02*
G37*
G36*
X4542637D02*
X4521667D01*
Y3137795D01*
X4522552Y3131074D01*
X4525146Y3124810D01*
X4529273Y3119432D01*
X4534652Y3115304D01*
X4540916Y3112710D01*
X4542637Y3112483D01*
Y3144606D01*
D02*
G37*
G36*
X2761796Y3144606D02*
X2740826D01*
Y3112483D01*
X2742548Y3112710D01*
X2748811Y3115304D01*
X2754190Y3119432D01*
X2758317Y3124810D01*
X2760912Y3131074D01*
X2761796Y3137795D01*
Y3144606D01*
D02*
G37*
G36*
X3392505D02*
X3371535D01*
Y3112483D01*
X3373256Y3112710D01*
X3379520Y3115304D01*
X3384898Y3119432D01*
X3389026Y3124810D01*
X3391620Y3131074D01*
X3392505Y3137795D01*
Y3144606D01*
D02*
G37*
G36*
X2408253D02*
X2387283D01*
Y3112483D01*
X2389004Y3112710D01*
X2395268Y3115304D01*
X2400646Y3119432D01*
X2404774Y3124810D01*
X2407368Y3131074D01*
X2408253Y3137795D01*
Y3144606D01*
D02*
G37*
G36*
X1777544D02*
X1756574D01*
Y3112483D01*
X1758296Y3112710D01*
X1764559Y3115304D01*
X1769938Y3119432D01*
X1774065Y3124810D01*
X1776659Y3131074D01*
X1777544Y3137795D01*
Y3144606D01*
D02*
G37*
G36*
X1424001D02*
X1403031D01*
Y3112483D01*
X1404752Y3112710D01*
X1411016Y3115304D01*
X1416395Y3119432D01*
X1420522Y3124810D01*
X1423116Y3131074D01*
X1424001Y3137795D01*
Y3144606D01*
D02*
G37*
G36*
X3715078Y3144607D02*
X3694108D01*
Y3137795D01*
X3694993Y3131074D01*
X3697587Y3124810D01*
X3701715Y3119432D01*
X3707093Y3115304D01*
X3713357Y3112710D01*
X3715078Y3112483D01*
Y3144607D01*
D02*
G37*
G36*
X4927151Y3144606D02*
X4906180D01*
Y3112483D01*
X4907902Y3112710D01*
X4914166Y3115304D01*
X4919544Y3119432D01*
X4923671Y3124810D01*
X4926266Y3131074D01*
X4927151Y3137795D01*
Y3144606D01*
D02*
G37*
G36*
X5911403D02*
X5890432D01*
Y3112483D01*
X5892154Y3112710D01*
X5898418Y3115304D01*
X5903796Y3119432D01*
X5907923Y3124810D01*
X5910518Y3131074D01*
X5911403Y3137795D01*
Y3144606D01*
D02*
G37*
G36*
X6864685Y3144607D02*
X6843714D01*
Y3137795D01*
X6844599Y3131074D01*
X6847194Y3124810D01*
X6851321Y3119432D01*
X6856699Y3115304D01*
X6862963Y3112710D01*
X6864685Y3112483D01*
Y3144607D01*
D02*
G37*
G36*
X6860511Y3013501D02*
Y2981378D01*
X6881481D01*
Y2988189D01*
X6880596Y2994911D01*
X6878002Y3001174D01*
X6873875Y3006553D01*
X6868496Y3010680D01*
X6862233Y3013274D01*
X6860511Y3013501D01*
D02*
G37*
G36*
X6535314D02*
Y2981378D01*
X6556285D01*
Y2988189D01*
X6555400Y2994911D01*
X6552805Y3001174D01*
X6548678Y3006553D01*
X6543300Y3010680D01*
X6537036Y3013274D01*
X6535314Y3013501D01*
D02*
G37*
G36*
X5876259D02*
Y2981378D01*
X5897229D01*
Y2988189D01*
X5896345Y2994911D01*
X5893750Y3001174D01*
X5889623Y3006553D01*
X5884244Y3010680D01*
X5877981Y3013274D01*
X5876259Y3013501D01*
D02*
G37*
G36*
X5551062D02*
Y2981378D01*
X5572033D01*
Y2988189D01*
X5571148Y2994911D01*
X5568553Y3001174D01*
X5564426Y3006553D01*
X5559047Y3010680D01*
X5552784Y3013274D01*
X5551062Y3013501D01*
D02*
G37*
G36*
X4892007D02*
Y2981378D01*
X4912977D01*
Y2988189D01*
X4912092Y2994911D01*
X4909498Y3001174D01*
X4905371Y3006553D01*
X4899992Y3010680D01*
X4893729Y3013274D01*
X4892007Y3013501D01*
D02*
G37*
G36*
X4566810D02*
Y2981378D01*
X4587781D01*
Y2988189D01*
X4586896Y2994911D01*
X4584301Y3001174D01*
X4580174Y3006553D01*
X4574796Y3010680D01*
X4568532Y3013274D01*
X4566810Y3013501D01*
D02*
G37*
G36*
X1417204D02*
Y2981378D01*
X1438174D01*
Y2988189D01*
X1437289Y2994911D01*
X1434695Y3001174D01*
X1430568Y3006553D01*
X1425189Y3010680D01*
X1418926Y3013274D01*
X1417204Y3013501D01*
D02*
G37*
G36*
X6850511D02*
X6848790Y3013274D01*
X6842526Y3010680D01*
X6837148Y3006553D01*
X6833020Y3001174D01*
X6830426Y2994911D01*
X6829541Y2988189D01*
Y2981378D01*
X6850511D01*
Y3013501D01*
D02*
G37*
G36*
X1407204D02*
X1405483Y3013274D01*
X1399219Y3010680D01*
X1393840Y3006553D01*
X1389713Y3001174D01*
X1387119Y2994911D01*
X1386234Y2988189D01*
Y2981378D01*
X1407204D01*
Y3013501D01*
D02*
G37*
G36*
X6525314D02*
X6523593Y3013274D01*
X6517329Y3010680D01*
X6511951Y3006553D01*
X6507824Y3001174D01*
X6505229Y2994911D01*
X6504344Y2988189D01*
Y2981378D01*
X6525314D01*
Y3013501D01*
D02*
G37*
G36*
X5866259D02*
X5864538Y3013274D01*
X5858274Y3010680D01*
X5852895Y3006553D01*
X5848768Y3001174D01*
X5846174Y2994911D01*
X5845289Y2988189D01*
Y2981378D01*
X5866259D01*
Y3013501D01*
D02*
G37*
G36*
X5541062D02*
X5539341Y3013274D01*
X5533077Y3010680D01*
X5527699Y3006553D01*
X5523572Y3001174D01*
X5520977Y2994911D01*
X5520092Y2988189D01*
Y2981378D01*
X5541062D01*
Y3013501D01*
D02*
G37*
G36*
X4882007D02*
X4880286Y3013274D01*
X4874022Y3010680D01*
X4868644Y3006553D01*
X4864516Y3001174D01*
X4861922Y2994911D01*
X4861037Y2988189D01*
Y2981378D01*
X4882007D01*
Y3013501D01*
D02*
G37*
G36*
X4556810D02*
X4555089Y3013274D01*
X4548825Y3010680D01*
X4543447Y3006553D01*
X4539319Y3001174D01*
X4536725Y2994911D01*
X4535840Y2988189D01*
Y2981378D01*
X4556810D01*
Y3013501D01*
D02*
G37*
G36*
X2726653Y3013501D02*
Y2981378D01*
X2747623D01*
Y2988189D01*
X2746738Y2994911D01*
X2744144Y3001174D01*
X2740017Y3006553D01*
X2734638Y3010680D01*
X2728374Y3013274D01*
X2726653Y3013501D01*
D02*
G37*
G36*
X2401456D02*
Y2981378D01*
X2422426D01*
Y2988189D01*
X2421541Y2994911D01*
X2418947Y3001174D01*
X2414820Y3006553D01*
X2409441Y3010680D01*
X2403178Y3013274D01*
X2401456Y3013501D01*
D02*
G37*
G36*
X1742401D02*
Y2981378D01*
X1763371D01*
Y2988189D01*
X1762486Y2994911D01*
X1759892Y3001174D01*
X1755765Y3006553D01*
X1750386Y3010680D01*
X1744122Y3013274D01*
X1742401Y3013501D01*
D02*
G37*
G36*
X3710905D02*
Y2981378D01*
X3731875D01*
Y2988189D01*
X3730990Y2994911D01*
X3728396Y3001174D01*
X3724269Y3006553D01*
X3718890Y3010680D01*
X3712626Y3013274D01*
X3710905Y3013501D01*
D02*
G37*
G36*
X3385708D02*
Y2981378D01*
X3406678D01*
Y2988189D01*
X3405793Y2994911D01*
X3403199Y3001174D01*
X3399072Y3006553D01*
X3393693Y3010680D01*
X3387430Y3013274D01*
X3385708Y3013501D01*
D02*
G37*
G36*
X2716653Y3013501D02*
X2714931Y3013274D01*
X2708668Y3010680D01*
X2703289Y3006553D01*
X2699162Y3001174D01*
X2696568Y2994911D01*
X2695683Y2988189D01*
Y2981378D01*
X2716653D01*
Y3013501D01*
D02*
G37*
G36*
X2391456D02*
X2389735Y3013274D01*
X2383471Y3010680D01*
X2378092Y3006553D01*
X2373965Y3001174D01*
X2371371Y2994911D01*
X2370486Y2988189D01*
Y2981378D01*
X2391456D01*
Y3013501D01*
D02*
G37*
G36*
X1732401D02*
X1730679Y3013274D01*
X1724416Y3010680D01*
X1719037Y3006553D01*
X1714910Y3001174D01*
X1712316Y2994911D01*
X1711431Y2988189D01*
Y2981378D01*
X1732401D01*
Y3013501D01*
D02*
G37*
G36*
X3700905D02*
X3699183Y3013274D01*
X3692920Y3010680D01*
X3687541Y3006553D01*
X3683414Y3001174D01*
X3680820Y2994911D01*
X3679935Y2988189D01*
Y2981378D01*
X3700905D01*
Y3013501D01*
D02*
G37*
G36*
X3375708D02*
X3373986Y3013274D01*
X3367723Y3010680D01*
X3362344Y3006553D01*
X3358217Y3001174D01*
X3355623Y2994911D01*
X3354738Y2988189D01*
Y2981378D01*
X3375708D01*
Y3013501D01*
D02*
G37*
G36*
X6727581Y2996654D02*
X6721237D01*
X6715377Y2994226D01*
X6710891Y2989741D01*
X6708464Y2983880D01*
Y2977537D01*
X6709971Y2973898D01*
X6707203Y2969014D01*
X6707042Y2968898D01*
X6705528D01*
X6699740Y2966500D01*
X6695747Y2962506D01*
X6692913Y2962270D01*
X6690079Y2962506D01*
X6686085Y2966500D01*
X6680297Y2968898D01*
X6678783D01*
X6678622Y2969014D01*
X6675854Y2973898D01*
X6677362Y2977537D01*
Y2983880D01*
X6674934Y2989741D01*
X6670449Y2994226D01*
X6664588Y2996654D01*
X6658245D01*
X6652385Y2994226D01*
X6648421Y2990262D01*
X6645763Y2989936D01*
X6642684Y2990216D01*
X6638841Y2994059D01*
X6633053Y2996457D01*
X6626788D01*
X6621000Y2994059D01*
X6617006Y2990065D01*
X6614173Y2989829D01*
X6611339Y2990065D01*
X6607345Y2994059D01*
X6601557Y2996457D01*
X6595292D01*
X6589504Y2994059D01*
X6585074Y2989629D01*
X6582677Y2983841D01*
Y2977576D01*
X6580929Y2974961D01*
X6578338D01*
X6570322Y2971640D01*
X6564186Y2965505D01*
X6560866Y2957488D01*
X6557341Y2955561D01*
X6555400Y2957845D01*
X6556285Y2964567D01*
Y2971378D01*
X6530314D01*
Y2976378D01*
D01*
Y2971378D01*
X6504344D01*
Y2964567D01*
X6505229Y2957845D01*
X6507824Y2951582D01*
X6511951Y2946203D01*
X6517329Y2942076D01*
X6523593Y2939482D01*
X6525907Y2939177D01*
X6529059Y2933719D01*
X6528578Y2932559D01*
X6551181D01*
Y2927559D01*
X6556181D01*
Y2904957D01*
X6564093Y2908234D01*
X6570505Y2914647D01*
X6573976Y2923025D01*
Y2927733D01*
X6577677Y2930792D01*
Y2953150D01*
X6582677D01*
Y2958150D01*
X6604214D01*
X6601455Y2964808D01*
X6601557Y2964961D01*
X6607345Y2967358D01*
X6611339Y2971352D01*
X6614173Y2971588D01*
X6617006Y2971352D01*
X6621000Y2967358D01*
X6626788Y2964961D01*
X6628302D01*
X6628463Y2964845D01*
X6631231Y2959961D01*
X6629724Y2956321D01*
Y2949978D01*
X6632151Y2944117D01*
X6633465Y2942803D01*
Y2905512D01*
Y2343807D01*
X6553831Y2264173D01*
X4898644D01*
X4897986Y2269173D01*
X4900013Y2269716D01*
X4907231Y2273883D01*
X4913124Y2279777D01*
X4917292Y2286995D01*
X4919226Y2294213D01*
X4887795D01*
X4856365D01*
X4858299Y2286995D01*
X4862466Y2279777D01*
X4868360Y2273883D01*
X4875578Y2269716D01*
X4877605Y2269173D01*
X4876946Y2264173D01*
X4847368D01*
X4846220Y2265564D01*
X4844637Y2269173D01*
X4845669Y2271664D01*
Y2275580D01*
X4844171Y2279197D01*
X4843110Y2280258D01*
X4841946Y2283465D01*
X4843110Y2286671D01*
X4844171Y2287732D01*
X4845669Y2291349D01*
Y2295265D01*
X4844171Y2298882D01*
X4841402Y2301651D01*
X4837785Y2303150D01*
X4833869D01*
X4830252Y2301651D01*
X4827483Y2298882D01*
X4825984Y2295265D01*
Y2291349D01*
X4827483Y2287732D01*
X4828544Y2286671D01*
X4829708Y2283465D01*
X4828544Y2280258D01*
X4827483Y2279197D01*
X4825984Y2275580D01*
Y2271664D01*
X4827483Y2268047D01*
X4828393Y2267136D01*
X4828801Y2266041D01*
X4828977Y2264834D01*
X4828624Y2261509D01*
X4828282Y2260715D01*
X4828029Y2260337D01*
X4827316Y2259624D01*
X4826930Y2258692D01*
X4826370Y2257854D01*
X4826173Y2256865D01*
X4825787Y2255934D01*
Y2254926D01*
X4825591Y2253937D01*
X4825787Y2252948D01*
Y2251940D01*
X4826173Y2251008D01*
X4826370Y2250020D01*
X4826930Y2249182D01*
X4827316Y2248250D01*
X4828029Y2247537D01*
X4828589Y2246699D01*
X4829427Y2246139D01*
X4830140Y2245426D01*
X4831071Y2245040D01*
X4831910Y2244480D01*
X4832898Y2244283D01*
X4833830Y2243898D01*
X4834838D01*
X4835827Y2243701D01*
X6558071D01*
X6561988Y2244480D01*
X6565309Y2246699D01*
X6650939Y2332329D01*
X6653158Y2335650D01*
X6653938Y2339568D01*
Y2893691D01*
X6655194Y2894796D01*
X6658938Y2896488D01*
X6661388Y2895472D01*
X6665382D01*
X6669072Y2897001D01*
X6671896Y2899825D01*
X6673425Y2903515D01*
Y2907509D01*
X6671896Y2911199D01*
X6669072Y2914023D01*
X6665382Y2915551D01*
X6661388D01*
X6658938Y2914536D01*
X6655194Y2916227D01*
X6653938Y2917333D01*
Y2939316D01*
X6654701Y2939632D01*
X6658665Y2943596D01*
X6661323Y2943923D01*
X6664401Y2943642D01*
X6668244Y2939799D01*
X6674032Y2937402D01*
X6680297D01*
X6682193Y2938187D01*
X6695733Y2924647D01*
Y2912406D01*
X6694414Y2911087D01*
X6692915Y2907470D01*
Y2903554D01*
X6694414Y2899936D01*
X6697182Y2897168D01*
X6700800Y2895669D01*
X6704716D01*
X6708333Y2897168D01*
X6711102Y2899936D01*
X6712600Y2903554D01*
Y2907470D01*
X6711102Y2911087D01*
X6709782Y2912406D01*
Y2927557D01*
X6709248Y2930245D01*
X6707807Y2932402D01*
X6707904Y2932921D01*
X6709918Y2937402D01*
X6711793D01*
X6717581Y2939799D01*
X6721424Y2943642D01*
X6724503Y2943923D01*
X6727161Y2943596D01*
X6731125Y2939632D01*
X6731891Y2939315D01*
Y2905512D01*
Y2272941D01*
X6624697Y2165748D01*
X4835827D01*
X4834838Y2165551D01*
X4833830D01*
X4832898Y2165165D01*
X4831910Y2164969D01*
X4831071Y2164409D01*
X4830140Y2164023D01*
X4829427Y2163310D01*
X4828589Y2162750D01*
X4828029Y2161912D01*
X4827316Y2161199D01*
X4826930Y2160267D01*
X4826370Y2159429D01*
X4826173Y2158440D01*
X4825787Y2157509D01*
Y2156501D01*
X4825591Y2155512D01*
X4825787Y2154523D01*
Y2153515D01*
X4826173Y2152583D01*
X4826370Y2151595D01*
X4826930Y2150756D01*
X4827316Y2149825D01*
X4828029Y2149112D01*
X4828282Y2148734D01*
X4828624Y2147940D01*
X4829037Y2144042D01*
X4828393Y2142312D01*
X4827483Y2141402D01*
X4825984Y2137785D01*
Y2133869D01*
X4827483Y2130251D01*
X4828544Y2129190D01*
X4829708Y2125984D01*
X4828544Y2122778D01*
X4827483Y2121717D01*
X4825984Y2118099D01*
Y2114184D01*
X4827483Y2110566D01*
X4830252Y2107798D01*
X4833869Y2106299D01*
X4837785D01*
X4841402Y2107798D01*
X4844171Y2110566D01*
X4845669Y2114184D01*
Y2118099D01*
X4844171Y2121717D01*
X4843110Y2122778D01*
X4841946Y2125984D01*
X4843110Y2129190D01*
X4844171Y2130251D01*
X4845669Y2133869D01*
Y2137785D01*
X4844637Y2140276D01*
X4846220Y2143885D01*
X4847368Y2145276D01*
X4876946D01*
X4877605Y2140276D01*
X4875578Y2139733D01*
X4868360Y2135565D01*
X4862466Y2129672D01*
X4858299Y2122454D01*
X4856365Y2115236D01*
X4887795D01*
X4919226D01*
X4917292Y2122454D01*
X4913124Y2129672D01*
X4907231Y2135565D01*
X4900013Y2139733D01*
X4897986Y2140276D01*
X4898644Y2145276D01*
X6628937D01*
X6632854Y2146055D01*
X6636175Y2148274D01*
X6749365Y2261463D01*
X6751583Y2264784D01*
X6752363Y2268701D01*
Y2905512D01*
Y2942806D01*
X6753674Y2944117D01*
X6756102Y2949978D01*
Y2956321D01*
X6754594Y2959961D01*
X6757362Y2964845D01*
X6757523Y2964961D01*
X6759037D01*
X6764825Y2967358D01*
X6768819Y2971352D01*
X6771653Y2971588D01*
X6774487Y2971352D01*
X6778480Y2967358D01*
X6784268Y2964961D01*
X6784370Y2964808D01*
X6781612Y2958150D01*
X6824686D01*
X6821640Y2965505D01*
X6815504Y2971640D01*
X6807488Y2974961D01*
X6804897D01*
X6803149Y2977576D01*
Y2983841D01*
X6800752Y2989629D01*
X6796322Y2994059D01*
X6790533Y2996457D01*
X6784269D01*
X6778480Y2994059D01*
X6774487Y2990065D01*
X6771653Y2989829D01*
X6768819Y2990065D01*
X6764825Y2994059D01*
X6759037Y2996457D01*
X6752772D01*
X6746984Y2994059D01*
X6743141Y2990216D01*
X6740063Y2989936D01*
X6737405Y2990262D01*
X6733441Y2994226D01*
X6727581Y2996654D01*
D02*
G37*
G36*
X5743328D02*
X5736985D01*
X5731125Y2994226D01*
X5726639Y2989741D01*
X5724212Y2983880D01*
Y2977537D01*
X5725719Y2973898D01*
X5722951Y2969014D01*
X5722790Y2968898D01*
X5721276D01*
X5715488Y2966500D01*
X5711495Y2962506D01*
X5708661Y2962270D01*
X5705827Y2962506D01*
X5701833Y2966500D01*
X5696045Y2968898D01*
X5694531D01*
X5694370Y2969014D01*
X5691602Y2973898D01*
X5693110Y2977537D01*
Y2983880D01*
X5690682Y2989741D01*
X5686197Y2994226D01*
X5680336Y2996654D01*
X5673993D01*
X5668133Y2994226D01*
X5664169Y2990262D01*
X5661511Y2989936D01*
X5658432Y2990216D01*
X5654589Y2994059D01*
X5648801Y2996457D01*
X5642536D01*
X5636748Y2994059D01*
X5632754Y2990065D01*
X5629921Y2989829D01*
X5627087Y2990065D01*
X5623093Y2994059D01*
X5617305Y2996457D01*
X5611040D01*
X5605252Y2994059D01*
X5600822Y2989629D01*
X5598425Y2983841D01*
Y2977576D01*
X5596677Y2974961D01*
X5594086D01*
X5586070Y2971640D01*
X5579934Y2965505D01*
X5576614Y2957488D01*
X5573088Y2955561D01*
X5571148Y2957845D01*
X5572033Y2964567D01*
Y2971378D01*
X5546062D01*
X5520092D01*
Y2964567D01*
X5520977Y2957845D01*
X5523572Y2951582D01*
X5527699Y2946203D01*
X5533077Y2942076D01*
X5539341Y2939482D01*
X5541655Y2939177D01*
X5544806Y2933719D01*
X5544326Y2932559D01*
X5566928D01*
Y2927559D01*
X5571928D01*
Y2904957D01*
X5579841Y2908234D01*
X5586253Y2914647D01*
X5589724Y2923025D01*
Y2927733D01*
X5593425Y2930792D01*
Y2953150D01*
X5598425D01*
Y2958150D01*
X5619962D01*
X5617203Y2964808D01*
X5617305Y2964961D01*
X5623093Y2967358D01*
X5627087Y2971352D01*
X5629921Y2971588D01*
X5632754Y2971352D01*
X5636748Y2967358D01*
X5642536Y2964961D01*
X5644050D01*
X5644211Y2964845D01*
X5646979Y2959961D01*
X5645472Y2956321D01*
Y2949978D01*
X5647899Y2944117D01*
X5652385Y2939632D01*
X5658245Y2937205D01*
X5664588D01*
X5670449Y2939632D01*
X5674413Y2943596D01*
X5677071Y2943923D01*
X5680149Y2943642D01*
X5683992Y2939799D01*
X5689780Y2937402D01*
X5696045D01*
X5697941Y2938187D01*
X5711481Y2924647D01*
Y2912406D01*
X5710162Y2911087D01*
X5708663Y2907470D01*
Y2903554D01*
X5710162Y2899936D01*
X5712930Y2897168D01*
X5716548Y2895669D01*
X5720463D01*
X5724081Y2897168D01*
X5726850Y2899936D01*
X5728348Y2903554D01*
Y2907470D01*
X5726850Y2911087D01*
X5725530Y2912406D01*
Y2927557D01*
X5724996Y2930245D01*
X5723555Y2932402D01*
X5723652Y2932921D01*
X5725666Y2937402D01*
X5727541D01*
X5733329Y2939799D01*
X5737172Y2943642D01*
X5740251Y2943923D01*
X5742909Y2943596D01*
X5746873Y2939632D01*
X5752733Y2937205D01*
X5759077D01*
X5764937Y2939632D01*
X5769422Y2944117D01*
X5771850Y2949978D01*
Y2956321D01*
X5770342Y2959961D01*
X5773110Y2964845D01*
X5773271Y2964961D01*
X5774785D01*
X5780573Y2967358D01*
X5784567Y2971352D01*
X5787401Y2971588D01*
X5790235Y2971352D01*
X5794229Y2967358D01*
X5800016Y2964961D01*
X5800118Y2964808D01*
X5797360Y2958150D01*
X5840434D01*
X5837387Y2965505D01*
X5831252Y2971640D01*
X5823235Y2974961D01*
X5820645D01*
X5818897Y2977576D01*
Y2983841D01*
X5816499Y2989629D01*
X5812069Y2994059D01*
X5806282Y2996457D01*
X5800016D01*
X5794229Y2994059D01*
X5790235Y2990065D01*
X5787401Y2989829D01*
X5784567Y2990065D01*
X5780573Y2994059D01*
X5774785Y2996457D01*
X5768520D01*
X5762732Y2994059D01*
X5758890Y2990216D01*
X5755811Y2989936D01*
X5753153Y2990262D01*
X5749189Y2994226D01*
X5743328Y2996654D01*
D02*
G37*
G36*
X4759077D02*
X4752733D01*
X4746873Y2994226D01*
X4742387Y2989741D01*
X4739960Y2983880D01*
Y2977537D01*
X4741467Y2973898D01*
X4738699Y2969014D01*
X4738538Y2968898D01*
X4737024D01*
X4731236Y2966500D01*
X4727243Y2962506D01*
X4724409Y2962270D01*
X4721575Y2962506D01*
X4717581Y2966500D01*
X4711793Y2968898D01*
X4710279D01*
X4710118Y2969014D01*
X4707350Y2973898D01*
X4708858Y2977537D01*
Y2983880D01*
X4706430Y2989741D01*
X4701945Y2994226D01*
X4696084Y2996654D01*
X4689741D01*
X4683881Y2994226D01*
X4679917Y2990262D01*
X4677259Y2989936D01*
X4674180Y2990216D01*
X4670337Y2994059D01*
X4664549Y2996457D01*
X4658284D01*
X4652496Y2994059D01*
X4648502Y2990065D01*
X4645669Y2989829D01*
X4642835Y2990065D01*
X4638841Y2994059D01*
X4633053Y2996457D01*
X4626788D01*
X4621000Y2994059D01*
X4616570Y2989629D01*
X4614173Y2983841D01*
Y2977576D01*
X4612425Y2974961D01*
X4609834D01*
X4601818Y2971640D01*
X4595682Y2965505D01*
X4592362Y2957488D01*
X4588837Y2955561D01*
X4586896Y2957845D01*
X4587781Y2964567D01*
Y2971378D01*
X4561810D01*
X4535840D01*
Y2964567D01*
X4536725Y2957845D01*
X4539319Y2951582D01*
X4543447Y2946203D01*
X4548825Y2942076D01*
X4555089Y2939482D01*
X4557403Y2939177D01*
X4560555Y2933719D01*
X4560074Y2932559D01*
X4582676D01*
Y2927559D01*
X4587676D01*
Y2904957D01*
X4595589Y2908234D01*
X4602001Y2914647D01*
X4605472Y2923025D01*
Y2927733D01*
X4609173Y2930792D01*
Y2953150D01*
X4614173D01*
Y2958150D01*
X4635710D01*
X4632951Y2964808D01*
X4633053Y2964961D01*
X4638841Y2967358D01*
X4642835Y2971352D01*
X4645669Y2971588D01*
X4648502Y2971352D01*
X4652496Y2967358D01*
X4658284Y2964961D01*
X4659798D01*
X4659959Y2964845D01*
X4662727Y2959961D01*
X4661220Y2956321D01*
Y2949978D01*
X4663647Y2944117D01*
X4668133Y2939632D01*
X4673993Y2937205D01*
X4680336D01*
X4686197Y2939632D01*
X4690161Y2943596D01*
X4692819Y2943923D01*
X4695897Y2943642D01*
X4699740Y2939799D01*
X4705528Y2937402D01*
X4711793D01*
X4713689Y2938187D01*
X4727229Y2924647D01*
Y2915129D01*
X4722658Y2912266D01*
X4721204Y2912793D01*
X4720142Y2913856D01*
X4716524Y2915354D01*
X4712609D01*
X4708991Y2913856D01*
X4706222Y2911087D01*
X4704724Y2907470D01*
Y2903554D01*
X4706222Y2899936D01*
X4708991Y2897168D01*
X4712080Y2895888D01*
Y2873528D01*
X4711141Y2868917D01*
X4701203Y2866940D01*
X4692777Y2861310D01*
X4687147Y2852884D01*
X4685170Y2842946D01*
X4687147Y2833007D01*
X4692777Y2824581D01*
X4701203Y2818951D01*
X4707210Y2817756D01*
X4708266Y2812448D01*
X4701967Y2808239D01*
X4696337Y2799814D01*
X4694360Y2789875D01*
X4696337Y2779936D01*
X4701967Y2771510D01*
X4707739Y2767653D01*
X4706683Y2762345D01*
X4698906Y2760798D01*
X4690480Y2755169D01*
X4684851Y2746743D01*
X4682874Y2736804D01*
X4684851Y2726865D01*
X4690480Y2718439D01*
X4698906Y2712810D01*
X4708845Y2710833D01*
X4712080Y2707173D01*
Y2655360D01*
X4639818Y2583098D01*
X4319993D01*
X4317496Y2582601D01*
X4315380Y2581187D01*
X4202726Y2468533D01*
X4201312Y2466417D01*
X4200816Y2463921D01*
Y1664032D01*
X4201312Y1661535D01*
X4202726Y1659419D01*
X4258392Y1603754D01*
X4260508Y1602340D01*
X4263004Y1601843D01*
X4327778D01*
X4329057Y1598755D01*
X4331826Y1595987D01*
X4335444Y1594488D01*
X4339359D01*
X4342977Y1595987D01*
X4345745Y1598755D01*
X4347244Y1602373D01*
Y1606289D01*
X4345745Y1609906D01*
X4344684Y1610967D01*
X4343521Y1614173D01*
X4344684Y1617379D01*
X4345745Y1618440D01*
X4347244Y1622058D01*
Y1625974D01*
X4345745Y1629591D01*
X4342977Y1632360D01*
X4339359Y1633858D01*
X4335444D01*
X4331826Y1632360D01*
X4329057Y1629591D01*
X4327778Y1626503D01*
X4270517D01*
X4225476Y1671544D01*
Y2456408D01*
X4327505Y2558438D01*
X4647330D01*
X4649827Y2558934D01*
X4651943Y2560348D01*
X4675066Y2583471D01*
X4675298Y2583239D01*
X4675729Y2583418D01*
X4676160Y2583239D01*
X4676392Y2583471D01*
X4676392Y2583471D01*
X4683719Y2576144D01*
X4683719Y2576144D01*
X4683616Y2576041D01*
X4688200Y2572978D01*
X4693607Y2571902D01*
X4699014Y2572978D01*
X4703598Y2576040D01*
X4703598Y2576040D01*
X4706661Y2580624D01*
X4707737Y2586032D01*
X4706661Y2591439D01*
X4709812Y2595723D01*
X4712530Y2595182D01*
X4717938Y2596258D01*
X4722522Y2599321D01*
Y2599321D01*
X4725585Y2603905D01*
X4726660Y2609312D01*
X4725585Y2614719D01*
X4722522Y2619303D01*
X4722522Y2619303D01*
X4719148Y2622906D01*
X4717502Y2625333D01*
Y2625443D01*
X4720805Y2629210D01*
X4734829Y2643235D01*
X4736243Y2645351D01*
X4736740Y2647847D01*
Y2710269D01*
X4737114D01*
X4735137Y2720207D01*
X4729507Y2728633D01*
X4723358Y2732742D01*
X4724875Y2737742D01*
X4735883D01*
Y2737368D01*
X4745821Y2739345D01*
X4754247Y2744975D01*
X4759877Y2753401D01*
X4761854Y2763339D01*
X4759877Y2773278D01*
X4754247Y2781704D01*
X4745821Y2787334D01*
X4738056Y2788878D01*
X4737000Y2794186D01*
X4742776Y2798046D01*
X4748405Y2806471D01*
X4750382Y2816410D01*
X4748405Y2826349D01*
X4742776Y2834775D01*
X4734350Y2840405D01*
X4725199Y2842225D01*
X4723656Y2845593D01*
X4723358Y2847008D01*
X4729507Y2851116D01*
X4735137Y2859542D01*
X4737114Y2869481D01*
X4736740D01*
Y2895888D01*
X4739829Y2897168D01*
X4742598Y2899936D01*
X4744096Y2903554D01*
Y2907470D01*
X4742598Y2911087D01*
X4741278Y2912406D01*
Y2927557D01*
X4740744Y2930245D01*
X4739303Y2932402D01*
X4739400Y2932921D01*
X4741414Y2937402D01*
X4743289D01*
X4749077Y2939799D01*
X4752920Y2943642D01*
X4755999Y2943923D01*
X4758657Y2943596D01*
X4762621Y2939632D01*
X4768481Y2937205D01*
X4774824D01*
X4780685Y2939632D01*
X4785170Y2944117D01*
X4787598Y2949978D01*
Y2956321D01*
X4786090Y2959961D01*
X4788858Y2964845D01*
X4789019Y2964961D01*
X4790533D01*
X4796321Y2967358D01*
X4800315Y2971352D01*
X4803149Y2971588D01*
X4805983Y2971352D01*
X4809976Y2967358D01*
X4815764Y2964961D01*
X4815866Y2964808D01*
X4813108Y2958150D01*
X4856182D01*
X4853136Y2965505D01*
X4847000Y2971640D01*
X4838984Y2974961D01*
X4836393D01*
X4834645Y2977576D01*
Y2983841D01*
X4832248Y2989629D01*
X4827818Y2994059D01*
X4822029Y2996457D01*
X4815765D01*
X4809976Y2994059D01*
X4805983Y2990065D01*
X4803149Y2989829D01*
X4800315Y2990065D01*
X4796321Y2994059D01*
X4790533Y2996457D01*
X4784268D01*
X4778480Y2994059D01*
X4774637Y2990216D01*
X4771559Y2989936D01*
X4768901Y2990262D01*
X4764937Y2994226D01*
X4759077Y2996654D01*
D02*
G37*
G36*
X3577974D02*
X3571631D01*
X3565771Y2994226D01*
X3561285Y2989741D01*
X3558858Y2983880D01*
Y2977537D01*
X3560365Y2973898D01*
X3557597Y2969014D01*
X3557436Y2968898D01*
X3555922D01*
X3550134Y2966500D01*
X3546140Y2962506D01*
X3543307Y2962270D01*
X3540473Y2962506D01*
X3536479Y2966500D01*
X3530691Y2968898D01*
X3529177D01*
X3529016Y2969014D01*
X3526248Y2973898D01*
X3527755Y2977537D01*
Y2983880D01*
X3525328Y2989741D01*
X3520843Y2994226D01*
X3514982Y2996654D01*
X3508639D01*
X3502778Y2994226D01*
X3498815Y2990262D01*
X3496156Y2989936D01*
X3493078Y2990216D01*
X3489235Y2994059D01*
X3483447Y2996457D01*
X3477182D01*
X3471394Y2994059D01*
X3467400Y2990065D01*
X3464566Y2989829D01*
X3461733Y2990065D01*
X3457739Y2994059D01*
X3451951Y2996457D01*
X3445686D01*
X3439898Y2994059D01*
X3435468Y2989629D01*
X3433070Y2983841D01*
Y2977576D01*
X3431323Y2974961D01*
X3428732D01*
X3420715Y2971640D01*
X3414580Y2965505D01*
X3411259Y2957488D01*
X3407734Y2955561D01*
X3405793Y2957845D01*
X3406678Y2964567D01*
Y2971378D01*
X3380708D01*
Y2976378D01*
D01*
Y2971378D01*
X3354738D01*
Y2964567D01*
X3355623Y2957845D01*
X3358217Y2951582D01*
X3362344Y2946203D01*
X3367723Y2942076D01*
X3373986Y2939482D01*
X3376301Y2939177D01*
X3379452Y2933719D01*
X3378972Y2932559D01*
X3401574D01*
Y2927559D01*
X3406574D01*
Y2904957D01*
X3414487Y2908234D01*
X3420899Y2914647D01*
X3424369Y2923025D01*
Y2927733D01*
X3428070Y2930792D01*
Y2953150D01*
X3433070D01*
Y2958150D01*
X3454607D01*
X3451849Y2964808D01*
X3451951Y2964961D01*
X3457739Y2967358D01*
X3461733Y2971352D01*
X3464566Y2971588D01*
X3467400Y2971352D01*
X3471394Y2967358D01*
X3477182Y2964961D01*
X3478696D01*
X3478857Y2964845D01*
X3481625Y2959961D01*
X3480117Y2956321D01*
Y2949978D01*
X3482545Y2944117D01*
X3487030Y2939632D01*
X3492891Y2937205D01*
X3499234D01*
X3505095Y2939632D01*
X3509058Y2943596D01*
X3511716Y2943923D01*
X3514795Y2943642D01*
X3518638Y2939799D01*
X3524426Y2937402D01*
X3530691D01*
X3532587Y2938187D01*
X3546127Y2924647D01*
Y2915131D01*
X3541555Y2912266D01*
X3540101Y2912793D01*
X3539038Y2913856D01*
X3535421Y2915354D01*
X3531505D01*
X3527887Y2913856D01*
X3525119Y2911087D01*
X3523620Y2907470D01*
Y2903554D01*
X3525119Y2899936D01*
X3527887Y2897168D01*
X3530977Y2895888D01*
Y2845565D01*
X3530603D01*
X3532580Y2835626D01*
X3538210Y2827201D01*
X3544358Y2823092D01*
X3542842Y2818092D01*
X3528143D01*
Y2818466D01*
X3518204Y2816489D01*
X3509778Y2810859D01*
X3504148Y2802433D01*
X3502171Y2792494D01*
X3504148Y2782556D01*
X3509778Y2774130D01*
X3518186Y2768512D01*
X3518204Y2768418D01*
Y2763500D01*
X3518186Y2763406D01*
X3509778Y2757788D01*
X3504148Y2749363D01*
X3502171Y2739424D01*
X3504148Y2729485D01*
X3509778Y2721059D01*
X3518186Y2715442D01*
X3518204Y2715347D01*
Y2710430D01*
X3518186Y2710335D01*
X3509778Y2704718D01*
X3504148Y2696292D01*
X3502171Y2686353D01*
X3504148Y2676414D01*
X3509778Y2667988D01*
X3518204Y2662358D01*
X3528143Y2660381D01*
X3530977Y2656555D01*
Y2647847D01*
X3531473Y2645351D01*
X3532887Y2643235D01*
X3538944Y2637178D01*
X3538944Y2637178D01*
X3568709Y2607413D01*
X3569755Y2606219D01*
X3570809Y2604666D01*
X3572012Y2602847D01*
Y2602783D01*
X3572030Y2602766D01*
X3572140Y2602653D01*
X3569078Y2598070D01*
X3568002Y2592662D01*
X3569078Y2587255D01*
X3572140Y2582672D01*
X3572141Y2582671D01*
X3576725Y2579608D01*
X3582132Y2578533D01*
X3587539Y2579608D01*
X3592123Y2582671D01*
X3592233Y2582562D01*
X3592253Y2582543D01*
X3592292Y2582559D01*
X3596048Y2580074D01*
X3615774Y2560348D01*
X3617890Y2558934D01*
X3620386Y2558438D01*
X3940211D01*
X4042241Y2456408D01*
Y1671544D01*
X3997200Y1626503D01*
X3939938D01*
X3938659Y1629591D01*
X3935890Y1632360D01*
X3932273Y1633858D01*
X3928357D01*
X3924740Y1632360D01*
X3921971Y1629591D01*
X3920472Y1625974D01*
Y1622058D01*
X3921971Y1618440D01*
X3923032Y1617379D01*
X3924196Y1614173D01*
X3923032Y1610967D01*
X3921971Y1609906D01*
X3920472Y1606289D01*
Y1602373D01*
X3921971Y1598755D01*
X3924740Y1595987D01*
X3928357Y1594488D01*
X3932273D01*
X3935890Y1595987D01*
X3938659Y1598755D01*
X3939938Y1601843D01*
X4004712D01*
X4007209Y1602340D01*
X4009325Y1603754D01*
X4064990Y1659419D01*
X4066404Y1661535D01*
X4066901Y1664032D01*
Y2463921D01*
X4066404Y2466417D01*
X4064990Y2468533D01*
X3952336Y2581187D01*
X3950220Y2582601D01*
X3947724Y2583098D01*
X3627899D01*
X3622164Y2588833D01*
X3622163Y2588833D01*
X3614210Y2596786D01*
Y2603308D01*
X3618416Y2607514D01*
X3618520Y2607411D01*
X3621583Y2611995D01*
X3622658Y2617402D01*
X3621583Y2622809D01*
X3618520Y2627393D01*
X3618520Y2627393D01*
X3613936Y2630456D01*
X3608529Y2631532D01*
X3603121Y2630456D01*
X3598537Y2627394D01*
X3598537Y2627393D01*
X3598537Y2627393D01*
Y2627186D01*
X3591837Y2620486D01*
X3591604Y2620718D01*
X3591173Y2620539D01*
X3590743Y2620718D01*
X3590510Y2620486D01*
X3562058Y2648938D01*
X3562058Y2648939D01*
X3556130Y2654867D01*
X3556010Y2659818D01*
X3556010D01*
X3554033Y2669756D01*
X3548403Y2678182D01*
X3542255Y2682291D01*
X3543771Y2687291D01*
X3563936D01*
Y2686917D01*
X3573874Y2688894D01*
X3582300Y2694524D01*
X3587930Y2702950D01*
X3589907Y2712888D01*
X3587930Y2722827D01*
X3582300Y2731253D01*
X3573893Y2736870D01*
X3573874Y2736965D01*
Y2741882D01*
X3573893Y2741977D01*
X3582300Y2747595D01*
X3587930Y2756020D01*
X3589907Y2765959D01*
X3587930Y2775898D01*
X3582300Y2784324D01*
X3573874Y2789954D01*
X3571904Y2790345D01*
X3571333Y2792413D01*
X3571376Y2795548D01*
X3579035Y2800665D01*
X3584664Y2809091D01*
X3586642Y2819030D01*
X3584664Y2828969D01*
X3579035Y2837394D01*
X3570609Y2843024D01*
X3560670Y2845001D01*
X3560670Y2845001D01*
X3555965Y2845565D01*
X3555637Y2850185D01*
Y2895888D01*
X3558726Y2897168D01*
X3561494Y2899936D01*
X3562993Y2903554D01*
Y2907470D01*
X3561494Y2911087D01*
X3560176Y2912405D01*
Y2927557D01*
X3559641Y2930245D01*
X3558200Y2932402D01*
X3558297Y2932921D01*
X3560312Y2937402D01*
X3562187D01*
X3567975Y2939799D01*
X3571818Y2943642D01*
X3574896Y2943923D01*
X3577555Y2943596D01*
X3581519Y2939632D01*
X3587379Y2937205D01*
X3593722D01*
X3599583Y2939632D01*
X3604068Y2944117D01*
X3606495Y2949978D01*
Y2956321D01*
X3604988Y2959961D01*
X3607756Y2964845D01*
X3607917Y2964961D01*
X3609431D01*
X3615219Y2967358D01*
X3619213Y2971352D01*
X3622047Y2971588D01*
X3624880Y2971352D01*
X3628874Y2967358D01*
X3634662Y2964961D01*
X3634764Y2964808D01*
X3632006Y2958150D01*
X3675080D01*
X3672033Y2965505D01*
X3665898Y2971640D01*
X3657881Y2974961D01*
X3655290D01*
X3653543Y2977576D01*
Y2983841D01*
X3651145Y2989629D01*
X3646715Y2994059D01*
X3640927Y2996457D01*
X3634662D01*
X3628874Y2994059D01*
X3624880Y2990065D01*
X3622047Y2989829D01*
X3619213Y2990065D01*
X3615219Y2994059D01*
X3609431Y2996457D01*
X3603166D01*
X3597378Y2994059D01*
X3593535Y2990216D01*
X3590457Y2989936D01*
X3587798Y2990262D01*
X3583835Y2994226D01*
X3577974Y2996654D01*
D02*
G37*
G36*
X2593722D02*
X2587379D01*
X2581519Y2994226D01*
X2577033Y2989741D01*
X2574606Y2983880D01*
Y2977537D01*
X2576113Y2973898D01*
X2573345Y2969014D01*
X2573184Y2968898D01*
X2571670D01*
X2565882Y2966500D01*
X2561888Y2962506D01*
X2559055Y2962270D01*
X2556221Y2962506D01*
X2552227Y2966500D01*
X2546439Y2968898D01*
X2544925D01*
X2544764Y2969014D01*
X2541996Y2973898D01*
X2543503Y2977537D01*
Y2983880D01*
X2541076Y2989741D01*
X2536590Y2994226D01*
X2530730Y2996654D01*
X2524387D01*
X2518526Y2994226D01*
X2514563Y2990262D01*
X2511904Y2989936D01*
X2508826Y2990216D01*
X2504983Y2994059D01*
X2499195Y2996457D01*
X2492930D01*
X2487142Y2994059D01*
X2483148Y2990065D01*
X2480314Y2989829D01*
X2477481Y2990065D01*
X2473487Y2994059D01*
X2467699Y2996457D01*
X2461434D01*
X2455646Y2994059D01*
X2451216Y2989629D01*
X2448818Y2983841D01*
Y2977576D01*
X2447071Y2974961D01*
X2444480D01*
X2436463Y2971640D01*
X2430328Y2965505D01*
X2427007Y2957488D01*
X2423482Y2955561D01*
X2421541Y2957845D01*
X2422426Y2964567D01*
Y2971378D01*
X2396456D01*
X2370486D01*
Y2964567D01*
X2371371Y2957845D01*
X2373965Y2951582D01*
X2378092Y2946203D01*
X2383471Y2942076D01*
X2389735Y2939482D01*
X2392049Y2939177D01*
X2395200Y2933719D01*
X2394720Y2932559D01*
X2417322D01*
Y2927559D01*
X2422322D01*
Y2904957D01*
X2430235Y2908234D01*
X2436647Y2914647D01*
X2440117Y2923025D01*
Y2927733D01*
X2443818Y2930792D01*
Y2953150D01*
X2448818D01*
Y2958150D01*
X2470355D01*
X2467597Y2964808D01*
X2467699Y2964961D01*
X2473487Y2967358D01*
X2477481Y2971352D01*
X2480314Y2971588D01*
X2483148Y2971352D01*
X2487142Y2967358D01*
X2492930Y2964961D01*
X2494444D01*
X2494605Y2964845D01*
X2497373Y2959961D01*
X2495865Y2956321D01*
Y2949978D01*
X2498293Y2944117D01*
X2502778Y2939632D01*
X2508639Y2937205D01*
X2514982D01*
X2520843Y2939632D01*
X2524806Y2943596D01*
X2527465Y2943923D01*
X2530543Y2943642D01*
X2534386Y2939799D01*
X2540174Y2937402D01*
X2546439D01*
X2548335Y2938187D01*
X2561875Y2924647D01*
Y2912406D01*
X2560555Y2911087D01*
X2559057Y2907470D01*
Y2903554D01*
X2560555Y2899936D01*
X2563324Y2897168D01*
X2566942Y2895669D01*
X2570857D01*
X2574475Y2897168D01*
X2577243Y2899936D01*
X2578742Y2903554D01*
Y2907470D01*
X2577243Y2911087D01*
X2575924Y2912406D01*
Y2927557D01*
X2575389Y2930245D01*
X2573948Y2932402D01*
X2574045Y2932921D01*
X2576060Y2937402D01*
X2577935D01*
X2583723Y2939799D01*
X2587566Y2943642D01*
X2590644Y2943923D01*
X2593303Y2943596D01*
X2597267Y2939632D01*
X2603127Y2937205D01*
X2609470D01*
X2615331Y2939632D01*
X2619816Y2944117D01*
X2622244Y2949978D01*
Y2956321D01*
X2620736Y2959961D01*
X2623504Y2964845D01*
X2623665Y2964961D01*
X2625179D01*
X2630967Y2967358D01*
X2634961Y2971352D01*
X2637795Y2971588D01*
X2640628Y2971352D01*
X2644622Y2967358D01*
X2650410Y2964961D01*
X2650512Y2964808D01*
X2647754Y2958150D01*
X2690828D01*
X2687781Y2965505D01*
X2681646Y2971640D01*
X2673629Y2974961D01*
X2671038D01*
X2669291Y2977576D01*
Y2983841D01*
X2666893Y2989629D01*
X2662463Y2994059D01*
X2656675Y2996457D01*
X2650410D01*
X2644622Y2994059D01*
X2640628Y2990065D01*
X2637795Y2989829D01*
X2634961Y2990065D01*
X2630967Y2994059D01*
X2625179Y2996457D01*
X2618914D01*
X2613126Y2994059D01*
X2609283Y2990216D01*
X2606205Y2989936D01*
X2603546Y2990262D01*
X2599583Y2994226D01*
X2593722Y2996654D01*
D02*
G37*
G36*
X1609470D02*
X1603127D01*
X1597266Y2994226D01*
X1592781Y2989741D01*
X1590354Y2983880D01*
Y2977537D01*
X1591861Y2973898D01*
X1589093Y2969014D01*
X1588932Y2968898D01*
X1587418D01*
X1581630Y2966500D01*
X1577636Y2962506D01*
X1574803Y2962270D01*
X1571969Y2962506D01*
X1567975Y2966500D01*
X1562187Y2968898D01*
X1560673D01*
X1560512Y2969014D01*
X1557744Y2973898D01*
X1559251Y2977537D01*
Y2983880D01*
X1556824Y2989741D01*
X1552339Y2994226D01*
X1546478Y2996654D01*
X1540135D01*
X1534274Y2994226D01*
X1530311Y2990262D01*
X1527652Y2989936D01*
X1524574Y2990216D01*
X1520731Y2994059D01*
X1514943Y2996457D01*
X1508678D01*
X1502890Y2994059D01*
X1498896Y2990065D01*
X1496062Y2989829D01*
X1493229Y2990065D01*
X1489235Y2994059D01*
X1483447Y2996457D01*
X1477182D01*
X1471394Y2994059D01*
X1466964Y2989629D01*
X1464566Y2983841D01*
Y2977576D01*
X1462819Y2974961D01*
X1460228D01*
X1452211Y2971640D01*
X1446076Y2965505D01*
X1442755Y2957488D01*
X1439230Y2955561D01*
X1437289Y2957845D01*
X1438174Y2964567D01*
Y2971378D01*
X1412204D01*
X1386234D01*
Y2964567D01*
X1387119Y2957845D01*
X1389713Y2951582D01*
X1393840Y2946203D01*
X1399219Y2942076D01*
X1405483Y2939482D01*
X1407797Y2939177D01*
X1410948Y2933719D01*
X1410468Y2932559D01*
X1433070D01*
Y2927559D01*
X1438070D01*
Y2904957D01*
X1445983Y2908234D01*
X1452395Y2914647D01*
X1455866Y2923025D01*
Y2927733D01*
X1459566Y2930792D01*
Y2953150D01*
X1464566D01*
Y2958150D01*
X1486103D01*
X1483345Y2964808D01*
X1483447Y2964961D01*
X1489235Y2967358D01*
X1493229Y2971352D01*
X1496062Y2971588D01*
X1498896Y2971352D01*
X1502890Y2967358D01*
X1508678Y2964961D01*
X1510192D01*
X1510353Y2964845D01*
X1513121Y2959961D01*
X1511613Y2956321D01*
Y2949978D01*
X1514041Y2944117D01*
X1515353Y2942806D01*
Y2905512D01*
Y2268701D01*
X1516132Y2264784D01*
X1518351Y2261463D01*
X1631540Y2148274D01*
X1634861Y2146055D01*
X1638778Y2145276D01*
X3369072D01*
X3369731Y2140276D01*
X3367703Y2139733D01*
X3360485Y2135565D01*
X3354592Y2129672D01*
X3350425Y2122454D01*
X3348491Y2115236D01*
X3379921D01*
X3411352D01*
X3409418Y2122454D01*
X3405250Y2129672D01*
X3399357Y2135565D01*
X3392139Y2139733D01*
X3390112Y2140276D01*
X3390770Y2145276D01*
X3420348D01*
X3421497Y2143885D01*
X3423079Y2140276D01*
X3422047Y2137785D01*
Y2133869D01*
X3423546Y2130251D01*
X3424607Y2129190D01*
X3425770Y2125984D01*
X3424607Y2122778D01*
X3423546Y2121717D01*
X3422047Y2118099D01*
Y2114184D01*
X3423546Y2110566D01*
X3426314Y2107798D01*
X3429932Y2106299D01*
X3433847D01*
X3437465Y2107798D01*
X3440234Y2110566D01*
X3441732Y2114184D01*
Y2118099D01*
X3440234Y2121717D01*
X3439173Y2122778D01*
X3438009Y2125984D01*
X3439173Y2129190D01*
X3440234Y2130251D01*
X3441732Y2133869D01*
Y2137785D01*
X3440234Y2141402D01*
X3439323Y2142313D01*
X3438679Y2144041D01*
X3439091Y2147939D01*
X3439434Y2148734D01*
X3439686Y2149112D01*
X3440399Y2149825D01*
X3440785Y2150756D01*
X3441345Y2151595D01*
X3441542Y2152583D01*
X3441928Y2153515D01*
Y2154523D01*
X3442125Y2155512D01*
X3441928Y2156501D01*
Y2157509D01*
X3441542Y2158440D01*
X3441345Y2159429D01*
X3440785Y2160267D01*
X3440399Y2161199D01*
X3439686Y2161912D01*
X3439126Y2162750D01*
X3438288Y2163310D01*
X3437575Y2164023D01*
X3436644Y2164409D01*
X3435806Y2164969D01*
X3434817Y2165165D01*
X3433885Y2165551D01*
X3432877D01*
X3431889Y2165748D01*
X1643018D01*
X1535825Y2272941D01*
Y2893693D01*
X1537084Y2894800D01*
X1540825Y2896488D01*
X1543278Y2895472D01*
X1547272D01*
X1550962Y2897001D01*
X1553786Y2899825D01*
X1555314Y2903515D01*
Y2907509D01*
X1553786Y2911199D01*
X1550962Y2914023D01*
X1547272Y2915551D01*
X1543278D01*
X1540825Y2914535D01*
X1537084Y2916224D01*
X1535825Y2917331D01*
Y2939315D01*
X1536591Y2939632D01*
X1540554Y2943596D01*
X1543213Y2943923D01*
X1546291Y2943642D01*
X1550134Y2939799D01*
X1555922Y2937402D01*
X1562187D01*
X1564083Y2938187D01*
X1577623Y2924647D01*
Y2912406D01*
X1576303Y2911087D01*
X1574805Y2907470D01*
Y2903554D01*
X1576303Y2899936D01*
X1579072Y2897168D01*
X1582690Y2895669D01*
X1586605D01*
X1590223Y2897168D01*
X1592991Y2899936D01*
X1594490Y2903554D01*
Y2907470D01*
X1592991Y2911087D01*
X1591672Y2912406D01*
Y2927557D01*
X1591137Y2930245D01*
X1589696Y2932402D01*
X1589793Y2932921D01*
X1591808Y2937402D01*
X1593683D01*
X1599471Y2939799D01*
X1603314Y2943642D01*
X1606392Y2943923D01*
X1609051Y2943596D01*
X1613014Y2939632D01*
X1613778Y2939316D01*
Y2905512D01*
Y2339568D01*
X1614557Y2335650D01*
X1616776Y2332329D01*
X1702406Y2246699D01*
X1705727Y2244480D01*
X1709644Y2243701D01*
X3431889D01*
X3432877Y2243898D01*
X3433885D01*
X3434817Y2244283D01*
X3435806Y2244480D01*
X3436644Y2245040D01*
X3437575Y2245426D01*
X3438288Y2246139D01*
X3439126Y2246699D01*
X3439686Y2247537D01*
X3440399Y2248250D01*
X3440785Y2249182D01*
X3441345Y2250020D01*
X3441542Y2251008D01*
X3441928Y2251940D01*
Y2252948D01*
X3442125Y2253937D01*
X3441928Y2254926D01*
Y2255934D01*
X3441542Y2256865D01*
X3441345Y2257854D01*
X3440785Y2258692D01*
X3440399Y2259624D01*
X3439686Y2260337D01*
X3439434Y2260714D01*
X3439091Y2261510D01*
X3438739Y2264834D01*
X3438915Y2266041D01*
X3439323Y2267136D01*
X3440234Y2268047D01*
X3441732Y2271664D01*
Y2275580D01*
X3440234Y2279197D01*
X3439173Y2280258D01*
X3438009Y2283465D01*
X3439173Y2286671D01*
X3440234Y2287732D01*
X3441732Y2291349D01*
Y2295265D01*
X3440234Y2298882D01*
X3437465Y2301651D01*
X3433847Y2303150D01*
X3429932D01*
X3426314Y2301651D01*
X3423546Y2298882D01*
X3422047Y2295265D01*
Y2291349D01*
X3423546Y2287732D01*
X3424607Y2286671D01*
X3425770Y2283465D01*
X3424607Y2280258D01*
X3423546Y2279197D01*
X3422047Y2275580D01*
Y2271664D01*
X3423079Y2269173D01*
X3421497Y2265564D01*
X3420348Y2264173D01*
X3390770D01*
X3390112Y2269173D01*
X3392139Y2269716D01*
X3399357Y2273883D01*
X3405250Y2279777D01*
X3409418Y2286995D01*
X3411352Y2294213D01*
X3379921D01*
X3348491D01*
X3350425Y2286995D01*
X3354592Y2279777D01*
X3360485Y2273883D01*
X3367703Y2269716D01*
X3369731Y2269173D01*
X3369072Y2264173D01*
X1713884D01*
X1634250Y2343807D01*
Y2905512D01*
Y2942803D01*
X1635564Y2944117D01*
X1637992Y2949978D01*
Y2956321D01*
X1636484Y2959961D01*
X1639252Y2964845D01*
X1639413Y2964961D01*
X1640927D01*
X1646715Y2967358D01*
X1650709Y2971352D01*
X1653543Y2971588D01*
X1656376Y2971352D01*
X1660370Y2967358D01*
X1666158Y2964961D01*
X1666260Y2964808D01*
X1663502Y2958150D01*
X1706576D01*
X1703529Y2965505D01*
X1697394Y2971640D01*
X1689377Y2974961D01*
X1686786D01*
X1685039Y2977576D01*
Y2983841D01*
X1682641Y2989629D01*
X1678211Y2994059D01*
X1672423Y2996457D01*
X1666158D01*
X1660370Y2994059D01*
X1656376Y2990065D01*
X1653543Y2989829D01*
X1650709Y2990065D01*
X1646715Y2994059D01*
X1640927Y2996457D01*
X1634662D01*
X1628874Y2994059D01*
X1625031Y2990216D01*
X1621953Y2989936D01*
X1619294Y2990262D01*
X1615331Y2994226D01*
X1609470Y2996654D01*
D02*
G37*
G36*
X5897229Y2971378D02*
X5871259D01*
X5845289D01*
Y2964567D01*
X5846174Y2957845D01*
X5848768Y2951582D01*
X5849748Y2950305D01*
X5847666Y2945903D01*
X5844219Y2945620D01*
X5841933Y2948150D01*
X5823897D01*
Y2931089D01*
X5823965Y2931072D01*
X5827370Y2928278D01*
X5827227Y2927559D01*
X5828541Y2920954D01*
X5832282Y2915354D01*
X5837882Y2911612D01*
X5844488Y2910298D01*
X5856299D01*
X5862904Y2911612D01*
X5868504Y2915354D01*
X5872246Y2920954D01*
X5873560Y2927559D01*
X5872339Y2933696D01*
X5872390Y2934424D01*
X5874971Y2939086D01*
X5877981Y2939482D01*
X5884244Y2942076D01*
X5889623Y2946203D01*
X5893750Y2951582D01*
X5896345Y2957845D01*
X5897229Y2964567D01*
Y2971378D01*
D02*
G37*
G36*
X4912977D02*
X4887007D01*
X4861037D01*
Y2964567D01*
X4861922Y2957845D01*
X4864516Y2951582D01*
X4865496Y2950305D01*
X4863414Y2945903D01*
X4859967Y2945620D01*
X4857681Y2948150D01*
X4839645D01*
Y2931089D01*
X4839713Y2931072D01*
X4843118Y2928278D01*
X4842975Y2927559D01*
X4844289Y2920954D01*
X4848030Y2915354D01*
X4853630Y2911612D01*
X4860236Y2910298D01*
X4872047D01*
X4878652Y2911612D01*
X4884252Y2915354D01*
X4887994Y2920954D01*
X4889307Y2927559D01*
X4888087Y2933696D01*
X4888137Y2934424D01*
X4890719Y2939086D01*
X4893729Y2939482D01*
X4899992Y2942076D01*
X4905371Y2946203D01*
X4909498Y2951582D01*
X4912092Y2957845D01*
X4912977Y2964567D01*
Y2971378D01*
D02*
G37*
G36*
X3705905Y2976378D02*
D01*
Y2971378D01*
X3679935D01*
Y2964567D01*
X3680820Y2957845D01*
X3683414Y2951582D01*
X3684393Y2950305D01*
X3682312Y2945903D01*
X3678865Y2945620D01*
X3676579Y2948150D01*
X3658543D01*
Y2931089D01*
X3658611Y2931072D01*
X3662015Y2928278D01*
X3661872Y2927559D01*
X3663186Y2920954D01*
X3666928Y2915354D01*
X3672528Y2911612D01*
X3679133Y2910298D01*
X3690944D01*
X3697550Y2911612D01*
X3703150Y2915354D01*
X3706891Y2920954D01*
X3708205Y2927559D01*
X3706985Y2933696D01*
X3707035Y2934424D01*
X3709617Y2939086D01*
X3712626Y2939482D01*
X3718890Y2942076D01*
X3724269Y2946203D01*
X3728396Y2951582D01*
X3730990Y2957845D01*
X3731875Y2964567D01*
Y2971378D01*
X3705905D01*
Y2976378D01*
D02*
G37*
G36*
X1763371Y2971378D02*
X1737401D01*
X1711431D01*
Y2964567D01*
X1712316Y2957845D01*
X1714910Y2951582D01*
X1715889Y2950305D01*
X1713808Y2945903D01*
X1710361Y2945620D01*
X1708075Y2948150D01*
X1690039D01*
Y2931089D01*
X1690107Y2931072D01*
X1693511Y2928278D01*
X1693368Y2927559D01*
X1694682Y2920954D01*
X1698424Y2915354D01*
X1704024Y2911612D01*
X1710629Y2910298D01*
X1722440D01*
X1729046Y2911612D01*
X1734646Y2915354D01*
X1738387Y2920954D01*
X1739701Y2927559D01*
X1738481Y2933696D01*
X1738531Y2934424D01*
X1741113Y2939086D01*
X1744122Y2939482D01*
X1750386Y2942076D01*
X1755765Y2946203D01*
X1759892Y2951582D01*
X1762486Y2957845D01*
X1763371Y2964567D01*
Y2971378D01*
D02*
G37*
G36*
X6881481Y2971378D02*
X6855511D01*
X6829541D01*
Y2964567D01*
X6830426Y2957845D01*
X6833020Y2951582D01*
X6834000Y2950305D01*
X6831918Y2945903D01*
X6828471Y2945620D01*
X6826185Y2948150D01*
X6808149D01*
Y2931089D01*
X6808217Y2931072D01*
X6811622Y2928278D01*
X6811479Y2927559D01*
X6812793Y2920954D01*
X6816534Y2915354D01*
X6822134Y2911612D01*
X6828740Y2910298D01*
X6840551D01*
X6847156Y2911612D01*
X6852756Y2915354D01*
X6856498Y2920954D01*
X6857811Y2927559D01*
X6856591Y2933696D01*
X6856641Y2934424D01*
X6859223Y2939086D01*
X6862233Y2939482D01*
X6868496Y2942076D01*
X6873875Y2946203D01*
X6878002Y2951582D01*
X6880596Y2957845D01*
X6881481Y2964567D01*
Y2971378D01*
D02*
G37*
G36*
X2747623Y2971378D02*
X2721653D01*
X2695683D01*
Y2964567D01*
X2696568Y2957845D01*
X2699162Y2951582D01*
X2700141Y2950305D01*
X2698060Y2945903D01*
X2694613Y2945620D01*
X2692327Y2948150D01*
X2674291D01*
Y2931089D01*
X2674359Y2931072D01*
X2677763Y2928278D01*
X2677620Y2927559D01*
X2678934Y2920954D01*
X2682676Y2915354D01*
X2688276Y2911612D01*
X2694881Y2910298D01*
X2706692D01*
X2713298Y2911612D01*
X2718898Y2915354D01*
X2722639Y2920954D01*
X2723953Y2927559D01*
X2722733Y2933696D01*
X2722783Y2934424D01*
X2725365Y2939086D01*
X2728374Y2939482D01*
X2734638Y2942076D01*
X2740017Y2946203D01*
X2744144Y2951582D01*
X2746738Y2957845D01*
X2747623Y2964567D01*
Y2971378D01*
D02*
G37*
G36*
X6798149Y2948150D02*
X6781612D01*
X6784658Y2940795D01*
X6790794Y2934659D01*
X6798149Y2931613D01*
Y2948150D01*
D02*
G37*
G36*
X6604214D02*
X6587677D01*
Y2931613D01*
X6595032Y2934659D01*
X6601167Y2940795D01*
X6604214Y2948150D01*
D02*
G37*
G36*
X5813897D02*
X5797360D01*
X5800407Y2940795D01*
X5806542Y2934659D01*
X5813897Y2931613D01*
Y2948150D01*
D02*
G37*
G36*
X5619962D02*
X5603425D01*
Y2931613D01*
X5610779Y2934659D01*
X5616915Y2940795D01*
X5619962Y2948150D01*
D02*
G37*
G36*
X4829645D02*
X4813108D01*
X4816154Y2940795D01*
X4822290Y2934659D01*
X4829645Y2931613D01*
Y2948150D01*
D02*
G37*
G36*
X4635710D02*
X4619173D01*
Y2931613D01*
X4626528Y2934659D01*
X4632663Y2940795D01*
X4635710Y2948150D01*
D02*
G37*
G36*
X3648543D02*
X3632006D01*
X3635052Y2940795D01*
X3641188Y2934659D01*
X3648543Y2931613D01*
Y2948150D01*
D02*
G37*
G36*
X3454607D02*
X3438070D01*
Y2931613D01*
X3445425Y2934659D01*
X3451561Y2940795D01*
X3454607Y2948150D01*
D02*
G37*
G36*
X2664291D02*
X2647754D01*
X2650800Y2940795D01*
X2656936Y2934659D01*
X2664291Y2931613D01*
Y2948150D01*
D02*
G37*
G36*
X2470355D02*
X2453818D01*
Y2931613D01*
X2461173Y2934659D01*
X2467309Y2940795D01*
X2470355Y2948150D01*
D02*
G37*
G36*
X1680039D02*
X1663502D01*
X1666548Y2940795D01*
X1672684Y2934659D01*
X1680039Y2931613D01*
Y2948150D01*
D02*
G37*
G36*
X1486103D02*
X1469566D01*
Y2931613D01*
X1476921Y2934659D01*
X1483057Y2940795D01*
X1486103Y2948150D01*
D02*
G37*
G36*
X4677194Y2915551D02*
X4673200D01*
X4669511Y2914023D01*
X4668480Y2912993D01*
X4665343Y2911700D01*
X4661998Y2912946D01*
X4661089Y2913856D01*
X4657471Y2915354D01*
X4653556D01*
X4649938Y2913856D01*
X4648877Y2912795D01*
X4645671Y2911631D01*
X4642465Y2912795D01*
X4641404Y2913856D01*
X4637786Y2915354D01*
X4633871D01*
X4630253Y2913856D01*
X4627484Y2911087D01*
X4625986Y2907470D01*
Y2903554D01*
X4627484Y2899936D01*
X4630253Y2897168D01*
X4633341Y2895889D01*
Y2866533D01*
X4633013D01*
X4632834Y2866102D01*
X4632403Y2865923D01*
Y2865595D01*
X4558781D01*
Y2865969D01*
X4548842Y2863992D01*
X4540416Y2858362D01*
X4534786Y2849936D01*
X4532809Y2839997D01*
X4534786Y2830059D01*
X4540416Y2821633D01*
X4547651Y2816799D01*
X4547246Y2811912D01*
X4547123Y2811596D01*
X4543731Y2810921D01*
X4535306Y2805291D01*
X4529676Y2796865D01*
X4527699Y2786927D01*
X4529676Y2776988D01*
X4535306Y2768562D01*
X4543731Y2762932D01*
X4553670Y2760955D01*
Y2761329D01*
X4632403D01*
Y2761001D01*
X4632834Y2760822D01*
X4633013Y2760391D01*
X4633341D01*
Y2692763D01*
X4585684Y2645106D01*
X4283575D01*
X4281079Y2644609D01*
X4278963Y2643195D01*
X4162710Y2526943D01*
X4161296Y2524827D01*
X4160800Y2522331D01*
Y1593811D01*
X4161296Y1591315D01*
X4162710Y1589199D01*
X4180734Y1571175D01*
X4180734Y1571175D01*
X4208785Y1543124D01*
X4210902Y1541710D01*
X4213398Y1541213D01*
X4255538D01*
X4258425Y1536213D01*
X4255937Y1531903D01*
X4254003Y1524685D01*
X4285433D01*
Y1519685D01*
X4290433D01*
Y1488255D01*
X4297651Y1490189D01*
X4304869Y1494356D01*
X4310762Y1500249D01*
X4314929Y1507467D01*
X4317087Y1515518D01*
Y1523103D01*
X4327778D01*
X4329057Y1520015D01*
X4331826Y1517246D01*
X4335444Y1515748D01*
X4339359D01*
X4342977Y1517246D01*
X4345745Y1520015D01*
X4347244Y1523633D01*
Y1527548D01*
X4345745Y1531166D01*
X4344684Y1532227D01*
X4343521Y1535433D01*
X4344684Y1538639D01*
X4345745Y1539700D01*
X4347244Y1543318D01*
Y1547233D01*
X4345745Y1550851D01*
X4342977Y1553620D01*
X4339359Y1555118D01*
X4335444D01*
X4331826Y1553620D01*
X4329057Y1550851D01*
X4327778Y1547763D01*
X4322675D01*
X4306475Y1563963D01*
X4304359Y1565377D01*
X4301863Y1565873D01*
X4220911D01*
X4185460Y1601324D01*
Y2514818D01*
X4291088Y2620446D01*
X4593197D01*
X4595693Y2620942D01*
X4597809Y2622356D01*
X4615444Y2639991D01*
X4618632Y2641223D01*
X4620046Y2641704D01*
X4624630Y2638642D01*
X4630037Y2637566D01*
X4635444Y2638642D01*
X4640028Y2641704D01*
X4640028Y2641704D01*
X4643091Y2646289D01*
X4644166Y2651696D01*
X4643091Y2657103D01*
X4640028Y2661687D01*
X4641385Y2665667D01*
X4641943Y2666490D01*
X4656091Y2680638D01*
X4657505Y2682754D01*
X4658001Y2685250D01*
Y2760391D01*
X4658375D01*
X4656398Y2770330D01*
X4650768Y2778756D01*
X4644619Y2782864D01*
X4644770Y2783696D01*
X4644822Y2783953D01*
X4646428Y2787669D01*
X4655468Y2789468D01*
X4663894Y2795097D01*
X4669524Y2803523D01*
X4671501Y2813462D01*
X4669524Y2823401D01*
X4663894Y2831827D01*
X4655468Y2837456D01*
X4646428Y2839255D01*
X4644822Y2842971D01*
X4644770Y2843228D01*
X4644619Y2844060D01*
X4650768Y2848168D01*
X4656398Y2856594D01*
X4658375Y2866533D01*
X4658001D01*
Y2895889D01*
X4661089Y2897168D01*
X4661998Y2898077D01*
X4665343Y2899324D01*
X4668480Y2898031D01*
X4669511Y2897001D01*
X4673200Y2895472D01*
X4677194D01*
X4680884Y2897001D01*
X4683708Y2899825D01*
X4685237Y2903515D01*
Y2907509D01*
X4683708Y2911199D01*
X4680884Y2914023D01*
X4677194Y2915551D01*
D02*
G37*
G36*
X3496092D02*
X3492098D01*
X3488408Y2914023D01*
X3487376Y2912990D01*
X3484239Y2911699D01*
X3480895Y2912944D01*
X3479983Y2913856D01*
X3476365Y2915354D01*
X3472450D01*
X3468832Y2913856D01*
X3467771Y2912795D01*
X3464565Y2911631D01*
X3461359Y2912795D01*
X3460298Y2913856D01*
X3456680Y2915354D01*
X3452765D01*
X3449147Y2913856D01*
X3446379Y2911087D01*
X3444880Y2907470D01*
Y2903554D01*
X3446379Y2899936D01*
X3449147Y2897168D01*
X3452235Y2895889D01*
Y2849898D01*
X3451907D01*
X3451728Y2849467D01*
X3451298Y2849289D01*
Y2848961D01*
X3403027D01*
Y2849334D01*
X3393088Y2847357D01*
X3384662Y2841727D01*
X3379033Y2833302D01*
X3377056Y2823363D01*
X3379033Y2813424D01*
X3384662Y2804998D01*
X3391934Y2800140D01*
X3391580Y2795395D01*
X3391406Y2794937D01*
X3388137Y2794287D01*
X3379711Y2788657D01*
X3374081Y2780231D01*
X3372104Y2770292D01*
X3374081Y2760353D01*
X3379711Y2751927D01*
X3388119Y2746310D01*
X3388137Y2746215D01*
Y2741298D01*
X3388119Y2741203D01*
X3379711Y2735586D01*
X3374081Y2727160D01*
X3372104Y2717221D01*
X3374081Y2707282D01*
X3379711Y2698857D01*
X3388119Y2693239D01*
X3388137Y2693145D01*
Y2688227D01*
X3388119Y2688133D01*
X3379711Y2682515D01*
X3374081Y2674089D01*
X3372104Y2664151D01*
X3374081Y2654212D01*
X3379711Y2645786D01*
X3388137Y2640156D01*
X3398076Y2638179D01*
Y2638553D01*
X3451298D01*
Y2638224D01*
X3451728Y2638046D01*
X3451907Y2637615D01*
X3452235D01*
Y2558282D01*
X3452732Y2555785D01*
X3454146Y2553669D01*
X3460380Y2547435D01*
X3460380Y2547434D01*
X3465043Y2542771D01*
X3465602Y2541948D01*
X3466958Y2537968D01*
X3463896Y2533385D01*
X3462820Y2527977D01*
X3463896Y2522570D01*
X3466958Y2517986D01*
X3466959Y2517986D01*
X3471543Y2514923D01*
X3476950Y2513847D01*
X3482357Y2514923D01*
X3486941Y2517986D01*
X3491323Y2516492D01*
X3505537Y2502277D01*
X3507653Y2500863D01*
X3510150Y2500367D01*
X3889141D01*
X4005485Y2384023D01*
Y2327222D01*
X4000485Y2325254D01*
X3994501Y2328709D01*
X3987284Y2330643D01*
Y2299213D01*
Y2267782D01*
X3994501Y2269716D01*
X4000485Y2273171D01*
X4005485Y2271203D01*
Y2138246D01*
X4000485Y2136278D01*
X3994501Y2139733D01*
X3987284Y2141666D01*
Y2110236D01*
Y2078806D01*
X3994501Y2080740D01*
X4000485Y2084195D01*
X4005485Y2082226D01*
Y1736671D01*
X4000485Y1734703D01*
X3994501Y1738158D01*
X3987284Y1740092D01*
Y1708661D01*
X3977284D01*
Y1740092D01*
X3970066Y1738158D01*
X3962848Y1733991D01*
X3956954Y1728097D01*
X3952787Y1720879D01*
X3950630Y1712829D01*
Y1705243D01*
X3939938D01*
X3938659Y1708331D01*
X3935890Y1711100D01*
X3932273Y1712598D01*
X3928357D01*
X3924740Y1711100D01*
X3921971Y1708331D01*
X3920472Y1704714D01*
Y1700798D01*
X3921971Y1697181D01*
X3923032Y1696120D01*
X3924196Y1692913D01*
X3923032Y1689707D01*
X3921971Y1688646D01*
X3920472Y1685029D01*
Y1681113D01*
X3921971Y1677495D01*
X3924740Y1674727D01*
X3928357Y1673228D01*
X3932273D01*
X3935890Y1674727D01*
X3938659Y1677495D01*
X3939938Y1680583D01*
X3945042D01*
X3961241Y1664384D01*
X3963358Y1662970D01*
X3965854Y1662473D01*
X3998713D01*
X4001209Y1662970D01*
X4003326Y1664384D01*
X4028234Y1689292D01*
X4029648Y1691409D01*
X4030145Y1693905D01*
Y2391535D01*
X4029648Y2394032D01*
X4028234Y2396148D01*
X3901266Y2523116D01*
X3899150Y2524530D01*
X3896653Y2525027D01*
X3517662D01*
X3476895Y2565794D01*
Y2637615D01*
X3477269D01*
X3475292Y2647554D01*
X3469662Y2655980D01*
X3463849Y2659863D01*
X3464905Y2665171D01*
X3472547Y2666691D01*
X3480972Y2672321D01*
X3486602Y2680747D01*
X3488579Y2690686D01*
X3486602Y2700625D01*
X3480972Y2709050D01*
X3472565Y2714668D01*
X3472547Y2714763D01*
Y2719680D01*
X3472565Y2719775D01*
X3480972Y2725392D01*
X3486602Y2733818D01*
X3488579Y2743757D01*
X3486602Y2753695D01*
X3480972Y2762121D01*
X3472565Y2767739D01*
X3472547Y2767833D01*
Y2772751D01*
X3472565Y2772845D01*
X3480972Y2778463D01*
X3486602Y2786889D01*
X3488579Y2796827D01*
X3486602Y2806766D01*
X3480972Y2815192D01*
X3472547Y2820822D01*
X3464905Y2822342D01*
X3463849Y2827650D01*
X3469662Y2831534D01*
X3475292Y2839959D01*
X3477269Y2849898D01*
X3476895D01*
Y2895889D01*
X3479983Y2897168D01*
X3480895Y2898080D01*
X3484239Y2899324D01*
X3487376Y2898034D01*
X3488408Y2897001D01*
X3492098Y2895472D01*
X3496092D01*
X3499782Y2897001D01*
X3502606Y2899825D01*
X3504135Y2903515D01*
Y2907509D01*
X3502606Y2911199D01*
X3499782Y2914023D01*
X3496092Y2915551D01*
D02*
G37*
G36*
X6546181Y2922559D02*
X6528578D01*
X6531856Y2914647D01*
X6538268Y2908234D01*
X6546181Y2904957D01*
Y2922559D01*
D02*
G37*
G36*
X5561928D02*
X5544326D01*
X5547604Y2914647D01*
X5554016Y2908234D01*
X5561928Y2904957D01*
Y2922559D01*
D02*
G37*
G36*
X4577676D02*
X4560074D01*
X4563352Y2914647D01*
X4569764Y2908234D01*
X4577676Y2904957D01*
Y2922559D01*
D02*
G37*
G36*
X3396574D02*
X3378972D01*
X3382249Y2914647D01*
X3388662Y2908234D01*
X3396574Y2904957D01*
Y2922559D01*
D02*
G37*
G36*
X2412322D02*
X2394720D01*
X2397997Y2914647D01*
X2404410Y2908234D01*
X2412322Y2904957D01*
Y2922559D01*
D02*
G37*
G36*
X1428070D02*
X1410468D01*
X1413745Y2914647D01*
X1420158Y2908234D01*
X1428070Y2904957D01*
Y2922559D01*
D02*
G37*
G36*
X5659448Y2915748D02*
X5658459Y2915551D01*
X5657451D01*
X5656520Y2915165D01*
X5655531Y2914969D01*
X5654693Y2914409D01*
X5653761Y2914023D01*
X5653048Y2913310D01*
X5652210Y2912750D01*
X5651650Y2911912D01*
X5650937Y2911199D01*
X5650551Y2910267D01*
X5649991Y2909429D01*
X5649795Y2908440D01*
X5649409Y2907509D01*
Y2906501D01*
X5649212Y2905512D01*
Y2730617D01*
X5390445Y2471850D01*
X4675197D01*
X4671280Y2471071D01*
X4667959Y2468852D01*
X4490604Y2291497D01*
X4486121Y2294085D01*
X4486155Y2294213D01*
X4454724D01*
X4423294D01*
X4425228Y2286995D01*
X4429395Y2279777D01*
X4435289Y2273883D01*
X4442507Y2269716D01*
X4444534Y2269173D01*
X4443875Y2264173D01*
X4402756D01*
X4401767Y2263976D01*
X4400759D01*
X4399827Y2263591D01*
X4398839Y2263394D01*
X4398001Y2262834D01*
X4397069Y2262448D01*
X4396356Y2261735D01*
X4395518Y2261175D01*
X4394958Y2260337D01*
X4394245Y2259624D01*
X4393859Y2258692D01*
X4393299Y2257854D01*
X4393102Y2256865D01*
X4392717Y2255934D01*
Y2254926D01*
X4392520Y2253937D01*
X4392717Y2252948D01*
Y2251940D01*
X4393102Y2251008D01*
X4393299Y2250020D01*
X4393859Y2249182D01*
X4394245Y2248250D01*
X4394958Y2247537D01*
X4395518Y2246699D01*
X4396356Y2246139D01*
X4397069Y2245426D01*
X4398001Y2245040D01*
X4398839Y2244480D01*
X4399827Y2244283D01*
X4400759Y2243898D01*
X4401767D01*
X4402756Y2243701D01*
X4467520D01*
X4471437Y2244480D01*
X4474758Y2246699D01*
X4679437Y2451378D01*
X5394685D01*
X5398602Y2452157D01*
X5401923Y2454376D01*
X5666686Y2719139D01*
X5668905Y2722460D01*
X5669684Y2726377D01*
Y2893692D01*
X5670942Y2894798D01*
X5674684Y2896488D01*
X5677136Y2895472D01*
X5681130D01*
X5684820Y2897001D01*
X5687644Y2899825D01*
X5689173Y2903515D01*
Y2907509D01*
X5687644Y2911199D01*
X5684820Y2914023D01*
X5681130Y2915551D01*
X5677136D01*
X5673446Y2914023D01*
X5672557Y2913134D01*
X5671008Y2912482D01*
X5667087Y2912725D01*
X5666059Y2913169D01*
X5665848Y2913310D01*
X5665135Y2914023D01*
X5664204Y2914409D01*
X5663365Y2914969D01*
X5662377Y2915165D01*
X5661445Y2915551D01*
X5660437D01*
X5659448Y2915748D01*
D02*
G37*
G36*
X2509843D02*
X2508854Y2915551D01*
X2507846D01*
X2506915Y2915165D01*
X2505926Y2914969D01*
X2505088Y2914409D01*
X2504156Y2914023D01*
X2503443Y2913310D01*
X2502605Y2912750D01*
X2502045Y2911912D01*
X2501332Y2911199D01*
X2500946Y2910267D01*
X2500386Y2909429D01*
X2500189Y2908440D01*
X2499804Y2907509D01*
Y2906501D01*
X2499607Y2905512D01*
Y2697834D01*
X2500386Y2693917D01*
X2502605Y2690596D01*
X2797880Y2395321D01*
X2801201Y2393102D01*
X2805118Y2392323D01*
X3570563D01*
X3814612Y2148274D01*
X3816684Y2146890D01*
X3815195Y2141890D01*
X3808825D01*
X3800774Y2139733D01*
X3793556Y2135565D01*
X3787663Y2129672D01*
X3783496Y2122454D01*
X3781562Y2115236D01*
X3812992D01*
X3844423D01*
X3842488Y2122454D01*
X3838321Y2129672D01*
X3832428Y2135565D01*
X3825210Y2139733D01*
X3823183Y2140276D01*
X3823841Y2145276D01*
X3864961D01*
X3865950Y2145472D01*
X3866958D01*
X3867889Y2145858D01*
X3868878Y2146055D01*
X3869716Y2146615D01*
X3870648Y2147001D01*
X3871360Y2147714D01*
X3872199Y2148274D01*
X3872759Y2149112D01*
X3873472Y2149825D01*
X3873858Y2150756D01*
X3874418Y2151595D01*
X3874614Y2152583D01*
X3875000Y2153515D01*
Y2154523D01*
X3875197Y2155512D01*
X3875000Y2156501D01*
Y2157509D01*
X3874614Y2158440D01*
X3874418Y2159429D01*
X3873858Y2160267D01*
X3873472Y2161199D01*
X3872759Y2161912D01*
X3872199Y2162750D01*
X3871360Y2163310D01*
X3870648Y2164023D01*
X3869716Y2164409D01*
X3868878Y2164969D01*
X3867889Y2165165D01*
X3866958Y2165551D01*
X3865950D01*
X3864961Y2165748D01*
X3826090D01*
X3582041Y2409797D01*
X3578720Y2412016D01*
X3574803Y2412795D01*
X2809358D01*
X2520079Y2702074D01*
Y2893691D01*
X2521336Y2894796D01*
X2525079Y2896488D01*
X2527530Y2895472D01*
X2531524D01*
X2535214Y2897001D01*
X2538038Y2899825D01*
X2539566Y2903515D01*
Y2907509D01*
X2538038Y2911199D01*
X2535214Y2914023D01*
X2531524Y2915551D01*
X2527530D01*
X2523840Y2914023D01*
X2522951Y2913134D01*
X2521404Y2912483D01*
X2517482Y2912725D01*
X2516454Y2913169D01*
X2516243Y2913310D01*
X2515530Y2914023D01*
X2514599Y2914409D01*
X2513760Y2914969D01*
X2512772Y2915165D01*
X2511840Y2915551D01*
X2510832D01*
X2509843Y2915748D01*
D02*
G37*
G36*
X3594517Y2915551D02*
X3590523D01*
X3586833Y2914023D01*
X3584009Y2911199D01*
X3582481Y2907509D01*
Y2903515D01*
X3584009Y2899825D01*
X3586833Y2897001D01*
X3590523Y2895472D01*
X3594517D01*
X3598207Y2897001D01*
X3599236Y2898030D01*
X3602374Y2899324D01*
X3605719Y2898076D01*
X3606628Y2897168D01*
X3609715Y2895889D01*
Y2868490D01*
X3609342D01*
X3611319Y2858552D01*
X3616948Y2850126D01*
X3622775Y2846233D01*
X3621719Y2840925D01*
X3614125Y2839414D01*
X3605699Y2833784D01*
X3600069Y2825358D01*
X3598092Y2815420D01*
X3600069Y2805481D01*
X3605699Y2797055D01*
X3614125Y2791425D01*
X3621719Y2789914D01*
X3622775Y2784606D01*
X3616948Y2780713D01*
X3611319Y2772288D01*
X3609342Y2762349D01*
X3609715D01*
Y2727545D01*
Y2685250D01*
X3610212Y2682754D01*
X3611626Y2680638D01*
X3618587Y2673676D01*
X3618588Y2673676D01*
X3623578Y2668686D01*
X3624136Y2667863D01*
X3625493Y2663883D01*
X3622430Y2659299D01*
X3621354Y2653892D01*
X3622430Y2648484D01*
X3625492Y2643901D01*
X3625493Y2643900D01*
X3630077Y2640837D01*
X3635484Y2639762D01*
X3640891Y2640837D01*
X3645475Y2643900D01*
X3649857Y2642407D01*
X3669907Y2622356D01*
X3672023Y2620942D01*
X3674520Y2620446D01*
X3976629D01*
X4082257Y2514818D01*
Y1601324D01*
X4046806Y1565873D01*
X3965854D01*
X3963358Y1565377D01*
X3961241Y1563963D01*
X3945042Y1547763D01*
X3939938D01*
X3938659Y1550851D01*
X3935890Y1553620D01*
X3932273Y1555118D01*
X3928357D01*
X3924740Y1553620D01*
X3921971Y1550851D01*
X3920472Y1547233D01*
Y1543318D01*
X3921971Y1539700D01*
X3923032Y1538639D01*
X3924196Y1535433D01*
X3923032Y1532227D01*
X3921971Y1531166D01*
X3920472Y1527548D01*
Y1523633D01*
X3921971Y1520015D01*
X3924740Y1517246D01*
X3928357Y1515748D01*
X3932273D01*
X3935890Y1517246D01*
X3938659Y1520015D01*
X3939938Y1523103D01*
X3950630D01*
Y1515518D01*
X3952787Y1507467D01*
X3956954Y1500249D01*
X3962848Y1494356D01*
X3970066Y1490189D01*
X3977284Y1488255D01*
Y1519685D01*
X3982284D01*
Y1524685D01*
X4013714D01*
X4011780Y1531903D01*
X4009291Y1536213D01*
X4012178Y1541213D01*
X4054319D01*
X4056815Y1541710D01*
X4058931Y1543124D01*
X4086982Y1571175D01*
X4086982Y1571175D01*
X4105006Y1589199D01*
X4106420Y1591315D01*
X4106917Y1593811D01*
Y2522331D01*
X4106420Y2524827D01*
X4105006Y2526943D01*
X3988754Y2643195D01*
X3986638Y2644609D01*
X3984141Y2645106D01*
X3682032D01*
X3634375Y2692763D01*
Y2727545D01*
Y2762349D01*
X3634704D01*
X3634882Y2762780D01*
X3635313Y2762958D01*
Y2763287D01*
X3740718D01*
Y2762913D01*
X3750657Y2764890D01*
X3759083Y2770520D01*
X3764713Y2778945D01*
X3766690Y2788884D01*
X3764713Y2798823D01*
X3759083Y2807249D01*
X3750657Y2812879D01*
X3748519Y2813304D01*
X3747984Y2815156D01*
X3747991Y2818507D01*
X3755599Y2823590D01*
X3761229Y2832016D01*
X3763206Y2841955D01*
X3761229Y2851894D01*
X3755599Y2860320D01*
X3747173Y2865949D01*
X3737234Y2867926D01*
Y2867553D01*
X3635313D01*
Y2867881D01*
X3634882Y2868059D01*
X3634704Y2868490D01*
X3634375D01*
Y2895889D01*
X3637463Y2897168D01*
X3640232Y2899936D01*
X3641731Y2903554D01*
Y2907470D01*
X3640232Y2911087D01*
X3637463Y2913856D01*
X3633846Y2915354D01*
X3629930D01*
X3626313Y2913856D01*
X3625252Y2912795D01*
X3622045Y2911631D01*
X3618839Y2912795D01*
X3617778Y2913856D01*
X3614161Y2915354D01*
X3610245D01*
X3606628Y2913856D01*
X3605719Y2912947D01*
X3602374Y2911700D01*
X3599236Y2912994D01*
X3598207Y2914023D01*
X3594517Y2915551D01*
D02*
G37*
G36*
X4775620D02*
X4771626D01*
X4767936Y2914023D01*
X4765112Y2911199D01*
X4763583Y2907509D01*
Y2903515D01*
X4765112Y2899825D01*
X4767936Y2897001D01*
X4771626Y2895472D01*
X4775620D01*
X4779310Y2897001D01*
X4780341Y2898033D01*
X4783478Y2899324D01*
X4786822Y2898079D01*
X4787734Y2897168D01*
X4790821Y2895889D01*
Y2870008D01*
X4790448D01*
X4792425Y2860069D01*
X4798054Y2851643D01*
X4803835Y2847781D01*
X4802779Y2842473D01*
X4795028Y2840931D01*
X4786603Y2835302D01*
X4780973Y2826876D01*
X4778996Y2816937D01*
X4780973Y2806998D01*
X4786603Y2798572D01*
X4795010Y2792955D01*
X4795028Y2792860D01*
Y2787943D01*
X4795010Y2787848D01*
X4786603Y2782231D01*
X4780973Y2773805D01*
X4778996Y2763866D01*
X4780973Y2753927D01*
X4786603Y2745501D01*
X4795010Y2739884D01*
X4795028Y2739789D01*
Y2734872D01*
X4795010Y2734777D01*
X4786603Y2729160D01*
X4780973Y2720734D01*
X4778996Y2710795D01*
X4780973Y2700856D01*
X4786603Y2692431D01*
X4795028Y2686801D01*
X4802779Y2685259D01*
X4803835Y2679951D01*
X4798054Y2676089D01*
X4792425Y2667663D01*
X4790448Y2657724D01*
X4790821D01*
Y2622921D01*
Y2565794D01*
X4750054Y2525027D01*
X4371063D01*
X4368567Y2524530D01*
X4366451Y2523116D01*
X4239482Y2396148D01*
X4238068Y2394032D01*
X4237572Y2391535D01*
Y1693905D01*
X4238068Y1691409D01*
X4239482Y1689292D01*
X4264391Y1664384D01*
X4266507Y1662970D01*
X4269003Y1662473D01*
X4301863D01*
X4304359Y1662970D01*
X4306475Y1664384D01*
X4322675Y1680583D01*
X4327778D01*
X4329057Y1677495D01*
X4331826Y1674727D01*
X4335444Y1673228D01*
X4339359D01*
X4342977Y1674727D01*
X4345745Y1677495D01*
X4347244Y1681113D01*
Y1685029D01*
X4345745Y1688646D01*
X4344684Y1689707D01*
X4343521Y1692913D01*
X4344684Y1696120D01*
X4345745Y1697181D01*
X4347244Y1700798D01*
Y1704714D01*
X4345745Y1708331D01*
X4342977Y1711100D01*
X4339359Y1712598D01*
X4335444D01*
X4331826Y1711100D01*
X4329057Y1708331D01*
X4327778Y1705243D01*
X4317087D01*
Y1712829D01*
X4314929Y1720879D01*
X4310762Y1728097D01*
X4304869Y1733991D01*
X4297651Y1738158D01*
X4290433Y1740092D01*
Y1708662D01*
X4280433D01*
Y1740092D01*
X4273215Y1738158D01*
X4267232Y1734703D01*
X4262232Y1736671D01*
Y2082226D01*
X4267232Y2084195D01*
X4273215Y2080740D01*
X4280433Y2078806D01*
Y2110236D01*
Y2141666D01*
X4273215Y2139733D01*
X4267232Y2136278D01*
X4262232Y2138246D01*
Y2271203D01*
X4267232Y2273171D01*
X4273215Y2269716D01*
X4280433Y2267782D01*
Y2299213D01*
Y2330643D01*
X4273215Y2328709D01*
X4267232Y2325254D01*
X4262232Y2327222D01*
Y2384023D01*
X4378576Y2500367D01*
X4757567D01*
X4760063Y2500863D01*
X4762179Y2502277D01*
X4771873Y2511971D01*
X4775061Y2513203D01*
X4776474Y2513684D01*
X4781058Y2510621D01*
X4786465Y2509546D01*
X4791872Y2510621D01*
X4796456Y2513684D01*
X4796456Y2513684D01*
X4799519Y2518268D01*
X4800595Y2523675D01*
X4799519Y2529083D01*
X4796456Y2533667D01*
X4797813Y2537646D01*
X4798371Y2538470D01*
X4813571Y2553669D01*
X4814985Y2555785D01*
X4815481Y2558282D01*
X4815481Y2558282D01*
Y2622921D01*
Y2657724D01*
X4815810D01*
X4815988Y2658155D01*
X4816419Y2658334D01*
Y2658662D01*
X4854974D01*
Y2658289D01*
X4864913Y2660265D01*
X4873338Y2665895D01*
X4878968Y2674321D01*
X4880945Y2684260D01*
X4878968Y2694199D01*
X4873338Y2702624D01*
X4864931Y2708242D01*
X4864913Y2708337D01*
Y2713254D01*
X4864931Y2713349D01*
X4873338Y2718966D01*
X4878968Y2727392D01*
X4880945Y2737331D01*
X4878968Y2747269D01*
X4873338Y2755695D01*
X4864931Y2761313D01*
X4864913Y2761407D01*
Y2766325D01*
X4864931Y2766419D01*
X4873338Y2772037D01*
X4878968Y2780463D01*
X4880945Y2790401D01*
X4878968Y2800340D01*
X4873338Y2808766D01*
X4864931Y2814384D01*
X4864913Y2814478D01*
Y2819396D01*
X4864931Y2819490D01*
X4873338Y2825108D01*
X4878968Y2833534D01*
X4880945Y2843472D01*
X4878968Y2853411D01*
X4873338Y2861837D01*
X4864913Y2867467D01*
X4854974Y2869444D01*
Y2869070D01*
X4816419D01*
Y2869398D01*
X4815988Y2869577D01*
X4815810Y2870008D01*
X4815481D01*
Y2895889D01*
X4818569Y2897168D01*
X4821338Y2899936D01*
X4822836Y2903554D01*
Y2907470D01*
X4821338Y2911087D01*
X4818569Y2913856D01*
X4814952Y2915354D01*
X4811036D01*
X4807419Y2913856D01*
X4806358Y2912795D01*
X4803151Y2911631D01*
X4799945Y2912795D01*
X4798884Y2913856D01*
X4795267Y2915354D01*
X4791351D01*
X4787734Y2913856D01*
X4786822Y2912945D01*
X4783478Y2911699D01*
X4780341Y2912991D01*
X4779310Y2914023D01*
X4775620Y2915551D01*
D02*
G37*
G36*
X4373485Y2369488D02*
X4366672D01*
X4360378Y2366881D01*
X4355560Y2362063D01*
X4352953Y2355769D01*
Y2348956D01*
X4355560Y2342661D01*
X4360378Y2337843D01*
X4366672Y2335236D01*
X4373485D01*
X4379780Y2337843D01*
X4384597Y2342661D01*
X4387205Y2348956D01*
Y2355769D01*
X4384597Y2362063D01*
X4379780Y2366881D01*
X4373485Y2369488D01*
D02*
G37*
G36*
X3467974D02*
X3461160D01*
X3454866Y2366881D01*
X3450048Y2362063D01*
X3447441Y2355769D01*
Y2348956D01*
X3450048Y2342661D01*
X3454866Y2337843D01*
X3461160Y2335236D01*
X3467974D01*
X3474268Y2337843D01*
X3479086Y2342661D01*
X3481693Y2348956D01*
Y2355769D01*
X3479086Y2362063D01*
X3474268Y2366881D01*
X3467974Y2369488D01*
D02*
G37*
G36*
X4803150Y2376486D02*
X4797082Y2375279D01*
X4791938Y2371842D01*
X4788501Y2366698D01*
X4787294Y2360630D01*
Y2344095D01*
X4788501Y2338027D01*
X4791938Y2332883D01*
X4797082Y2329446D01*
X4803150Y2328239D01*
X4809217Y2329446D01*
X4814361Y2332883D01*
X4817798Y2338027D01*
X4819006Y2344095D01*
Y2360630D01*
X4817798Y2366698D01*
X4814361Y2371842D01*
X4809217Y2375279D01*
X4803150Y2376486D01*
D02*
G37*
G36*
X3897638D02*
X3891570Y2375279D01*
X3886426Y2371842D01*
X3882989Y2366698D01*
X3881782Y2360630D01*
Y2344095D01*
X3882989Y2338027D01*
X3886426Y2332883D01*
X3891570Y2329446D01*
X3897638Y2328239D01*
X3903706Y2329446D01*
X3908850Y2332883D01*
X3912287Y2338027D01*
X3913494Y2344095D01*
Y2360630D01*
X3912287Y2366698D01*
X3908850Y2371842D01*
X3903706Y2375279D01*
X3897638Y2376486D01*
D02*
G37*
G36*
X4290433Y2330643D02*
Y2304213D01*
X4316863D01*
X4314929Y2311430D01*
X4310762Y2318648D01*
X4304869Y2324542D01*
X4297651Y2328709D01*
X4290433Y2330643D01*
D02*
G37*
G36*
X4723504Y2330643D02*
Y2304213D01*
X4749934D01*
X4748000Y2311430D01*
X4743833Y2318648D01*
X4737940Y2324542D01*
X4730722Y2328709D01*
X4723504Y2330643D01*
D02*
G37*
G36*
X4713504Y2330643D02*
X4706286Y2328709D01*
X4699068Y2324542D01*
X4693175Y2318648D01*
X4689008Y2311430D01*
X4687074Y2304213D01*
X4713504D01*
Y2330643D01*
D02*
G37*
G36*
X3977284D02*
X3970066Y2328709D01*
X3962848Y2324542D01*
X3956954Y2318648D01*
X3952787Y2311430D01*
X3950853Y2304213D01*
X3977284D01*
Y2330643D01*
D02*
G37*
G36*
X4459724D02*
Y2304213D01*
X4486155D01*
X4484221Y2311430D01*
X4480053Y2318648D01*
X4474160Y2324542D01*
X4466942Y2328709D01*
X4459724Y2330643D01*
D02*
G37*
G36*
X3384921D02*
Y2304213D01*
X3411352D01*
X3409418Y2311430D01*
X3405250Y2318648D01*
X3399357Y2324542D01*
X3392139Y2328709D01*
X3384921Y2330643D01*
D02*
G37*
G36*
X4449724D02*
X4442507Y2328709D01*
X4435289Y2324542D01*
X4429395Y2318648D01*
X4425228Y2311430D01*
X4423294Y2304213D01*
X4449724D01*
Y2330643D01*
D02*
G37*
G36*
X3374921D02*
X3367703Y2328709D01*
X3360485Y2324542D01*
X3354592Y2318648D01*
X3350425Y2311430D01*
X3348491Y2304213D01*
X3374921D01*
Y2330643D01*
D02*
G37*
G36*
X4892795D02*
Y2304213D01*
X4919226D01*
X4917292Y2311430D01*
X4913124Y2318648D01*
X4907231Y2324542D01*
X4900013Y2328709D01*
X4892795Y2330643D01*
D02*
G37*
G36*
X3817992D02*
Y2304213D01*
X3844423D01*
X3842488Y2311430D01*
X3838321Y2318648D01*
X3832428Y2324542D01*
X3825210Y2328709D01*
X3817992Y2330643D01*
D02*
G37*
G36*
X4882795Y2330643D02*
X4875578Y2328709D01*
X4868360Y2324542D01*
X4862466Y2318648D01*
X4858299Y2311430D01*
X4856365Y2304213D01*
X4882795D01*
Y2330643D01*
D02*
G37*
G36*
X3807992D02*
X3800774Y2328709D01*
X3793556Y2324542D01*
X3787663Y2318648D01*
X3783496Y2311430D01*
X3781562Y2304213D01*
X3807992D01*
Y2330643D01*
D02*
G37*
G36*
X3554213D02*
Y2304212D01*
X3580643D01*
X3578709Y2311430D01*
X3574542Y2318648D01*
X3568648Y2324542D01*
X3561430Y2328709D01*
X3554213Y2330643D01*
D02*
G37*
G36*
X3544213Y2330643D02*
X3536995Y2328709D01*
X3529777Y2324542D01*
X3523883Y2318648D01*
X3519716Y2311430D01*
X3517782Y2304212D01*
X3544213D01*
Y2330643D01*
D02*
G37*
G36*
X3580643Y2294212D02*
X3554213D01*
Y2267782D01*
X3561430Y2269716D01*
X3568648Y2273883D01*
X3574542Y2279777D01*
X3578709Y2286995D01*
X3580643Y2294212D01*
D02*
G37*
G36*
X4749934Y2294213D02*
X4723504D01*
Y2267782D01*
X4730722Y2269716D01*
X4737940Y2273883D01*
X4743833Y2279777D01*
X4748000Y2286995D01*
X4749934Y2294213D01*
D02*
G37*
G36*
X4713504D02*
X4687074D01*
X4689008Y2286995D01*
X4693175Y2279777D01*
X4699068Y2273883D01*
X4706286Y2269716D01*
X4713504Y2267782D01*
Y2294213D01*
D02*
G37*
G36*
X3977284D02*
X3950853D01*
X3952787Y2286995D01*
X3956954Y2279777D01*
X3962848Y2273883D01*
X3970066Y2269716D01*
X3977284Y2267782D01*
Y2294213D01*
D02*
G37*
G36*
X4316863Y2294213D02*
X4290433D01*
Y2267782D01*
X4297651Y2269716D01*
X4304869Y2273883D01*
X4310762Y2279777D01*
X4314929Y2286995D01*
X4316863Y2294213D01*
D02*
G37*
G36*
X3544213Y2294212D02*
X3517782D01*
X3519716Y2286995D01*
X3523883Y2279777D01*
X3529777Y2273883D01*
X3536995Y2269716D01*
X3544213Y2267782D01*
Y2294212D01*
D02*
G37*
G36*
X4339359Y2303150D02*
X4335444D01*
X4331826Y2301651D01*
X4329057Y2298882D01*
X4327559Y2295265D01*
Y2291349D01*
X4329057Y2287732D01*
X4330119Y2286671D01*
X4331282Y2283465D01*
X4330119Y2280258D01*
X4329057Y2279197D01*
X4327559Y2275580D01*
Y2271664D01*
X4329057Y2268047D01*
X4331826Y2265278D01*
X4335444Y2263780D01*
X4339359D01*
X4342977Y2265278D01*
X4345745Y2268047D01*
X4347244Y2271664D01*
Y2275580D01*
X4345745Y2279197D01*
X4344684Y2280258D01*
X4343521Y2283465D01*
X4344684Y2286671D01*
X4345745Y2287732D01*
X4347244Y2291349D01*
Y2295265D01*
X4345745Y2298882D01*
X4342977Y2301651D01*
X4339359Y2303150D01*
D02*
G37*
G36*
X3932273D02*
X3928357D01*
X3924740Y2301651D01*
X3921971Y2298882D01*
X3920472Y2295265D01*
Y2291349D01*
X3921971Y2287732D01*
X3923032Y2286671D01*
X3924196Y2283465D01*
X3923032Y2280258D01*
X3921971Y2279197D01*
X3920472Y2275580D01*
Y2271664D01*
X3921971Y2268047D01*
X3924740Y2265278D01*
X3928357Y2263780D01*
X3932273D01*
X3935890Y2265278D01*
X3938659Y2268047D01*
X3940157Y2271664D01*
Y2275580D01*
X3938659Y2279197D01*
X3937598Y2280258D01*
X3936434Y2283465D01*
X3937598Y2286671D01*
X3938659Y2287732D01*
X3940157Y2291349D01*
Y2295265D01*
X3938659Y2298882D01*
X3935890Y2301651D01*
X3932273Y2303150D01*
D02*
G37*
G36*
X2608268Y2915748D02*
X2607279Y2915551D01*
X2606271D01*
X2605340Y2915165D01*
X2604351Y2914969D01*
X2603513Y2914409D01*
X2602581Y2914023D01*
X2601868Y2913310D01*
X2601030Y2912750D01*
X2600470Y2911912D01*
X2599757Y2911199D01*
X2599371Y2910267D01*
X2598811Y2909429D01*
X2598615Y2908440D01*
X2598229Y2907509D01*
Y2906501D01*
X2598032Y2905512D01*
Y2726377D01*
X2598811Y2722460D01*
X2601030Y2719139D01*
X2865794Y2454376D01*
X2869114Y2452157D01*
X2873032Y2451378D01*
X3588280D01*
X3792959Y2246699D01*
X3796280Y2244480D01*
X3800197Y2243701D01*
X3864961D01*
X3865950Y2243898D01*
X3866958D01*
X3867889Y2244283D01*
X3868878Y2244480D01*
X3869716Y2245040D01*
X3870648Y2245426D01*
X3871360Y2246139D01*
X3872199Y2246699D01*
X3872759Y2247537D01*
X3873472Y2248250D01*
X3873858Y2249182D01*
X3874418Y2250020D01*
X3874614Y2251008D01*
X3875000Y2251940D01*
Y2252948D01*
X3875197Y2253937D01*
X3875000Y2254926D01*
Y2255934D01*
X3874614Y2256865D01*
X3874418Y2257854D01*
X3873858Y2258692D01*
X3873472Y2259624D01*
X3872759Y2260337D01*
X3872199Y2261175D01*
X3871360Y2261735D01*
X3870648Y2262448D01*
X3869716Y2262834D01*
X3868878Y2263394D01*
X3867889Y2263591D01*
X3866958Y2263976D01*
X3865950D01*
X3864961Y2264173D01*
X3823841D01*
X3823183Y2269173D01*
X3825210Y2269716D01*
X3832428Y2273883D01*
X3838321Y2279777D01*
X3842488Y2286995D01*
X3844422Y2294213D01*
X3812992D01*
Y2299213D01*
D01*
Y2294213D01*
X3781562D01*
X3781596Y2294085D01*
X3777113Y2291497D01*
X3599758Y2468852D01*
X3596437Y2471071D01*
X3592520Y2471850D01*
X2877271D01*
X2618504Y2730617D01*
Y2905512D01*
X2618308Y2906501D01*
Y2907509D01*
X2617922Y2908440D01*
X2617725Y2909429D01*
X2617165Y2910267D01*
X2616779Y2911199D01*
X2616066Y2911912D01*
X2615506Y2912750D01*
X2614668Y2913310D01*
X2613955Y2914023D01*
X2613024Y2914409D01*
X2612186Y2914969D01*
X2611197Y2915165D01*
X2610265Y2915551D01*
X2609257D01*
X2608268Y2915748D01*
D02*
G37*
G36*
X4837785Y2224410D02*
X4833869D01*
X4830252Y2222911D01*
X4827483Y2220142D01*
X4825984Y2216525D01*
Y2212609D01*
X4827483Y2208992D01*
X4828544Y2207931D01*
X4829708Y2204724D01*
X4828544Y2201518D01*
X4827483Y2200457D01*
X4825984Y2196840D01*
Y2192924D01*
X4827483Y2189307D01*
X4830252Y2186538D01*
X4833869Y2185039D01*
X4837785D01*
X4841402Y2186538D01*
X4844171Y2189307D01*
X4845669Y2192924D01*
Y2196840D01*
X4844171Y2200457D01*
X4843110Y2201518D01*
X4841946Y2204724D01*
X4843110Y2207931D01*
X4844171Y2208992D01*
X4845669Y2212609D01*
Y2216525D01*
X4844171Y2220142D01*
X4841402Y2222911D01*
X4837785Y2224410D01*
D02*
G37*
G36*
X4339359D02*
X4335444D01*
X4331826Y2222911D01*
X4329057Y2220142D01*
X4327559Y2216525D01*
Y2212609D01*
X4329057Y2208992D01*
X4330119Y2207931D01*
X4331282Y2204724D01*
X4330119Y2201518D01*
X4329057Y2200457D01*
X4327559Y2196840D01*
Y2192924D01*
X4329057Y2189307D01*
X4331826Y2186538D01*
X4335444Y2185039D01*
X4339359D01*
X4342977Y2186538D01*
X4345745Y2189307D01*
X4347244Y2192924D01*
Y2196840D01*
X4345745Y2200457D01*
X4344684Y2201518D01*
X4343521Y2204724D01*
X4344684Y2207931D01*
X4345745Y2208992D01*
X4347244Y2212609D01*
Y2216525D01*
X4345745Y2220142D01*
X4342977Y2222911D01*
X4339359Y2224410D01*
D02*
G37*
G36*
X3932273D02*
X3928357D01*
X3924740Y2222911D01*
X3921971Y2220142D01*
X3920472Y2216525D01*
Y2212609D01*
X3921971Y2208992D01*
X3923032Y2207931D01*
X3924196Y2204724D01*
X3923032Y2201518D01*
X3921971Y2200457D01*
X3920472Y2196840D01*
Y2192924D01*
X3921971Y2189307D01*
X3924740Y2186538D01*
X3928357Y2185039D01*
X3932273D01*
X3935890Y2186538D01*
X3938659Y2189307D01*
X3940157Y2192924D01*
Y2196840D01*
X3938659Y2200457D01*
X3937598Y2201518D01*
X3936434Y2204724D01*
X3937598Y2207931D01*
X3938659Y2208992D01*
X3940157Y2212609D01*
Y2216525D01*
X3938659Y2220142D01*
X3935890Y2222911D01*
X3932273Y2224410D01*
D02*
G37*
G36*
X3433847D02*
X3429932D01*
X3426314Y2222911D01*
X3423546Y2220142D01*
X3422047Y2216525D01*
Y2212609D01*
X3423546Y2208992D01*
X3424607Y2207931D01*
X3425770Y2204724D01*
X3424607Y2201518D01*
X3423546Y2200457D01*
X3422047Y2196840D01*
Y2192924D01*
X3423546Y2189307D01*
X3426314Y2186538D01*
X3429932Y2185039D01*
X3433847D01*
X3437465Y2186538D01*
X3440234Y2189307D01*
X3441732Y2192924D01*
Y2196840D01*
X3440234Y2200457D01*
X3439173Y2201518D01*
X3438009Y2204724D01*
X3439173Y2207931D01*
X3440234Y2208992D01*
X3441732Y2212609D01*
Y2216525D01*
X3440234Y2220142D01*
X3437465Y2222911D01*
X3433847Y2224410D01*
D02*
G37*
G36*
X4290433Y2141667D02*
Y2115236D01*
X4316863D01*
X4314929Y2122454D01*
X4310762Y2129672D01*
X4304869Y2135565D01*
X4297651Y2139733D01*
X4290433Y2141667D01*
D02*
G37*
G36*
X4723504Y2141666D02*
Y2115236D01*
X4749934D01*
X4748000Y2122454D01*
X4743833Y2129672D01*
X4737940Y2135565D01*
X4730722Y2139733D01*
X4723504Y2141666D01*
D02*
G37*
G36*
X4713504Y2141667D02*
X4706286Y2139733D01*
X4699068Y2135565D01*
X4693175Y2129672D01*
X4689008Y2122454D01*
X4687074Y2115236D01*
X4713504D01*
Y2141667D01*
D02*
G37*
G36*
X3977284D02*
X3970066Y2139733D01*
X3962848Y2135565D01*
X3956954Y2129672D01*
X3952787Y2122454D01*
X3950853Y2115236D01*
X3977284D01*
Y2141667D01*
D02*
G37*
G36*
X3554213Y2141666D02*
Y2115236D01*
X3580643D01*
X3578709Y2122454D01*
X3574542Y2129672D01*
X3568648Y2135565D01*
X3561430Y2139733D01*
X3554213Y2141666D01*
D02*
G37*
G36*
X3544213Y2141667D02*
X3536995Y2139733D01*
X3529777Y2135565D01*
X3523883Y2129672D01*
X3519716Y2122454D01*
X3517782Y2115236D01*
X3544213D01*
Y2141667D01*
D02*
G37*
G36*
X5757873Y2915748D02*
X5756885Y2915551D01*
X5755876D01*
X5754945Y2915165D01*
X5753956Y2914969D01*
X5753118Y2914409D01*
X5752186Y2914023D01*
X5751474Y2913310D01*
X5750635Y2912750D01*
X5750075Y2911912D01*
X5749362Y2911199D01*
X5748976Y2910267D01*
X5748417Y2909429D01*
X5748220Y2908440D01*
X5747834Y2907509D01*
Y2906501D01*
X5747637Y2905512D01*
Y2702074D01*
X5458359Y2412795D01*
X4692913D01*
X4688996Y2412016D01*
X4685675Y2409797D01*
X4441626Y2165748D01*
X4402756D01*
X4401767Y2165551D01*
X4400759D01*
X4399827Y2165165D01*
X4398839Y2164969D01*
X4398001Y2164409D01*
X4397069Y2164023D01*
X4396356Y2163310D01*
X4395518Y2162750D01*
X4394958Y2161912D01*
X4394245Y2161199D01*
X4393859Y2160267D01*
X4393299Y2159429D01*
X4393102Y2158440D01*
X4392717Y2157509D01*
Y2156501D01*
X4392520Y2155512D01*
X4392717Y2154523D01*
Y2153515D01*
X4393102Y2152583D01*
X4393299Y2151595D01*
X4393859Y2150756D01*
X4394245Y2149825D01*
X4394958Y2149112D01*
X4395518Y2148274D01*
X4396356Y2147714D01*
X4397069Y2147001D01*
X4398001Y2146615D01*
X4398839Y2146055D01*
X4399827Y2145858D01*
X4400759Y2145472D01*
X4401767D01*
X4402756Y2145276D01*
X4443875D01*
X4444534Y2140276D01*
X4442507Y2139733D01*
X4435289Y2135565D01*
X4429395Y2129672D01*
X4425228Y2122454D01*
X4423294Y2115236D01*
X4454724D01*
Y2110236D01*
D01*
Y2115236D01*
X4486155D01*
X4484221Y2122454D01*
X4480053Y2129672D01*
X4474160Y2135565D01*
X4466942Y2139733D01*
X4458892Y2141890D01*
X4452522D01*
X4451033Y2146890D01*
X4453104Y2148274D01*
X4697153Y2392323D01*
X5462599D01*
X5466516Y2393102D01*
X5469837Y2395321D01*
X5765111Y2690596D01*
X5767330Y2693917D01*
X5768109Y2697834D01*
Y2905512D01*
X5767913Y2906501D01*
Y2907509D01*
X5767527Y2908440D01*
X5767330Y2909429D01*
X5766770Y2910267D01*
X5766384Y2911199D01*
X5765671Y2911912D01*
X5765111Y2912750D01*
X5764273Y2913310D01*
X5763560Y2914023D01*
X5762629Y2914409D01*
X5761791Y2914969D01*
X5760802Y2915165D01*
X5759870Y2915551D01*
X5758862D01*
X5757873Y2915748D01*
D02*
G37*
G36*
X4339359Y2145669D02*
X4335444D01*
X4331826Y2144171D01*
X4329057Y2141402D01*
X4327559Y2137785D01*
Y2133869D01*
X4329057Y2130251D01*
X4330119Y2129190D01*
X4331282Y2125984D01*
X4330119Y2122778D01*
X4329057Y2121717D01*
X4327559Y2118099D01*
Y2114184D01*
X4329057Y2110566D01*
X4331826Y2107798D01*
X4335444Y2106299D01*
X4339359D01*
X4342977Y2107798D01*
X4345745Y2110566D01*
X4347244Y2114184D01*
Y2118099D01*
X4345745Y2121717D01*
X4344684Y2122778D01*
X4343521Y2125984D01*
X4344684Y2129190D01*
X4345745Y2130251D01*
X4347244Y2133869D01*
Y2137785D01*
X4345745Y2141402D01*
X4342977Y2144171D01*
X4339359Y2145669D01*
D02*
G37*
G36*
X3932273D02*
X3928357D01*
X3924740Y2144171D01*
X3921971Y2141402D01*
X3920472Y2137785D01*
Y2133869D01*
X3921971Y2130251D01*
X3923032Y2129190D01*
X3924196Y2125984D01*
X3923032Y2122778D01*
X3921971Y2121717D01*
X3920472Y2118099D01*
Y2114184D01*
X3921971Y2110566D01*
X3924740Y2107798D01*
X3928357Y2106299D01*
X3932273D01*
X3935890Y2107798D01*
X3938659Y2110566D01*
X3940157Y2114184D01*
Y2118099D01*
X3938659Y2121717D01*
X3937598Y2122778D01*
X3936434Y2125984D01*
X3937598Y2129190D01*
X3938659Y2130251D01*
X3940157Y2133869D01*
Y2137785D01*
X3938659Y2141402D01*
X3935890Y2144171D01*
X3932273Y2145669D01*
D02*
G37*
G36*
X3580643Y2105236D02*
X3554213D01*
Y2078806D01*
X3561430Y2080740D01*
X3568648Y2084907D01*
X3574542Y2090800D01*
X3578709Y2098018D01*
X3580643Y2105236D01*
D02*
G37*
G36*
X4749934Y2105236D02*
X4723504D01*
Y2078806D01*
X4730722Y2080740D01*
X4737940Y2084907D01*
X4743833Y2090800D01*
X4748000Y2098018D01*
X4749934Y2105236D01*
D02*
G37*
G36*
X4882795Y2105236D02*
X4856365D01*
X4858299Y2098018D01*
X4862466Y2090800D01*
X4868360Y2084907D01*
X4875578Y2080740D01*
X4882795Y2078806D01*
Y2105236D01*
D02*
G37*
G36*
X3807992D02*
X3781562D01*
X3783496Y2098018D01*
X3787663Y2090800D01*
X3793556Y2084907D01*
X3800774Y2080740D01*
X3807992Y2078806D01*
Y2105236D01*
D02*
G37*
G36*
X4486155Y2105236D02*
X4459724D01*
Y2078806D01*
X4466942Y2080740D01*
X4474160Y2084907D01*
X4480053Y2090800D01*
X4484221Y2098018D01*
X4486155Y2105236D01*
D02*
G37*
G36*
X3411352D02*
X3384921D01*
Y2078806D01*
X3392139Y2080740D01*
X3399357Y2084907D01*
X3405250Y2090800D01*
X3409418Y2098018D01*
X3411352Y2105236D01*
D02*
G37*
G36*
X4449724D02*
X4423294D01*
X4425228Y2098018D01*
X4429395Y2090800D01*
X4435289Y2084907D01*
X4442507Y2080740D01*
X4449724Y2078806D01*
Y2105236D01*
D02*
G37*
G36*
X3374921D02*
X3348491D01*
X3350425Y2098018D01*
X3354592Y2090800D01*
X3360485Y2084907D01*
X3367703Y2080740D01*
X3374921Y2078806D01*
Y2105236D01*
D02*
G37*
G36*
X4919226Y2105236D02*
X4892795D01*
Y2078806D01*
X4900013Y2080740D01*
X4907231Y2084907D01*
X4913124Y2090800D01*
X4917292Y2098018D01*
X4919226Y2105236D01*
D02*
G37*
G36*
X3844422D02*
X3817992D01*
Y2078806D01*
X3825210Y2080740D01*
X3832428Y2084907D01*
X3838321Y2090800D01*
X3842488Y2098018D01*
X3844422Y2105236D01*
D02*
G37*
G36*
X4713504Y2105236D02*
X4687074D01*
X4689008Y2098018D01*
X4693175Y2090800D01*
X4699068Y2084907D01*
X4706286Y2080740D01*
X4713504Y2078806D01*
Y2105236D01*
D02*
G37*
G36*
X3977284D02*
X3950853D01*
X3952787Y2098018D01*
X3956954Y2090800D01*
X3962848Y2084907D01*
X3970066Y2080740D01*
X3977284Y2078806D01*
Y2105236D01*
D02*
G37*
G36*
X4316863Y2105236D02*
X4290433D01*
Y2078806D01*
X4297651Y2080740D01*
X4304869Y2084907D01*
X4310762Y2090800D01*
X4314929Y2098018D01*
X4316863Y2105236D01*
D02*
G37*
G36*
X3544213Y2105236D02*
X3517782D01*
X3519716Y2098018D01*
X3523883Y2090800D01*
X3529777Y2084907D01*
X3536995Y2080740D01*
X3544213Y2078806D01*
Y2105236D01*
D02*
G37*
G36*
X4806556Y2074213D02*
X4799743D01*
X4793449Y2071605D01*
X4788631Y2066788D01*
X4786024Y2060493D01*
Y2053680D01*
X4788631Y2047386D01*
X4793449Y2042568D01*
X4799743Y2039961D01*
X4806556D01*
X4812851Y2042568D01*
X4817668Y2047386D01*
X4820276Y2053680D01*
Y2060493D01*
X4817668Y2066788D01*
X4812851Y2071605D01*
X4806556Y2074213D01*
D02*
G37*
G36*
X3901044D02*
X3894231D01*
X3887937Y2071605D01*
X3883119Y2066788D01*
X3880512Y2060493D01*
Y2053680D01*
X3883119Y2047386D01*
X3887937Y2042568D01*
X3894231Y2039961D01*
X3901044D01*
X3907339Y2042568D01*
X3912157Y2047386D01*
X3914764Y2053680D01*
Y2060493D01*
X3912157Y2066788D01*
X3907339Y2071605D01*
X3901044Y2074213D01*
D02*
G37*
G36*
X4370079Y2081210D02*
X4364011Y2080003D01*
X4358867Y2076566D01*
X4355430Y2071422D01*
X4354223Y2065354D01*
Y2048819D01*
X4355430Y2042751D01*
X4358867Y2037607D01*
X4364011Y2034170D01*
X4370079Y2032963D01*
X4376146Y2034170D01*
X4381291Y2037607D01*
X4384728Y2042751D01*
X4385935Y2048819D01*
Y2065354D01*
X4384728Y2071422D01*
X4381291Y2076566D01*
X4376146Y2080003D01*
X4370079Y2081210D01*
D02*
G37*
G36*
X3464567D02*
X3458499Y2080003D01*
X3453355Y2076566D01*
X3449918Y2071422D01*
X3448711Y2065354D01*
Y2048819D01*
X3449918Y2042751D01*
X3453355Y2037607D01*
X3458499Y2034170D01*
X3464567Y2032963D01*
X3470635Y2034170D01*
X3475779Y2037607D01*
X3479216Y2042751D01*
X3480423Y2048819D01*
Y2065354D01*
X3479216Y2071422D01*
X3475779Y2076566D01*
X3470635Y2080003D01*
X3464567Y2081210D01*
D02*
G37*
G36*
X4962588Y1787402D02*
X4958672D01*
X4955055Y1785903D01*
X4952286Y1783134D01*
X4950787Y1779517D01*
Y1775601D01*
X4952286Y1771984D01*
X4952302Y1771967D01*
X4954680Y1768701D01*
X4952302Y1765434D01*
X4952286Y1765418D01*
X4950787Y1761800D01*
Y1757885D01*
X4952286Y1754267D01*
X4955055Y1751498D01*
X4958672Y1750000D01*
X4962588D01*
X4966205Y1751498D01*
X4968974Y1754267D01*
X4970472Y1757885D01*
Y1761800D01*
X4968974Y1765418D01*
X4968957Y1765434D01*
X4966580Y1768701D01*
X4968957Y1771967D01*
X4968974Y1771984D01*
X4970472Y1775601D01*
Y1779517D01*
X4968974Y1783134D01*
X4966205Y1785903D01*
X4962588Y1787402D01*
D02*
G37*
G36*
X3309044D02*
X3305129D01*
X3301511Y1785903D01*
X3298743Y1783134D01*
X3297244Y1779517D01*
Y1775601D01*
X3298743Y1771984D01*
X3298759Y1771967D01*
X3301137Y1768701D01*
X3298759Y1765434D01*
X3298743Y1765418D01*
X3297244Y1761800D01*
Y1757885D01*
X3298743Y1754267D01*
X3301511Y1751498D01*
X3305129Y1750000D01*
X3309044D01*
X3312662Y1751498D01*
X3315431Y1754267D01*
X3316929Y1757885D01*
Y1761800D01*
X3315431Y1765418D01*
X3315414Y1765434D01*
X3313036Y1768701D01*
X3315414Y1771967D01*
X3315431Y1771984D01*
X3316929Y1775601D01*
Y1779517D01*
X3315431Y1783134D01*
X3312662Y1785903D01*
X3309044Y1787402D01*
D02*
G37*
G36*
X4806556Y1778937D02*
X4799743D01*
X4793449Y1776330D01*
X4788631Y1771512D01*
X4786024Y1765218D01*
Y1758404D01*
X4788631Y1752110D01*
X4793449Y1747292D01*
X4799743Y1744685D01*
X4806556D01*
X4812851Y1747292D01*
X4817668Y1752110D01*
X4820276Y1758404D01*
Y1765218D01*
X4817668Y1771512D01*
X4812851Y1776330D01*
X4806556Y1778937D01*
D02*
G37*
G36*
X4373485D02*
X4366672D01*
X4360378Y1776330D01*
X4355560Y1771512D01*
X4352953Y1765218D01*
Y1758404D01*
X4355560Y1752110D01*
X4360378Y1747292D01*
X4366672Y1744685D01*
X4373485D01*
X4379780Y1747292D01*
X4384597Y1752110D01*
X4387205Y1758404D01*
Y1765218D01*
X4384597Y1771512D01*
X4379780Y1776330D01*
X4373485Y1778937D01*
D02*
G37*
G36*
X3897638Y1785935D02*
X3891570Y1784728D01*
X3886426Y1781291D01*
X3882989Y1776147D01*
X3881782Y1770079D01*
Y1753543D01*
X3882989Y1747476D01*
X3886426Y1742332D01*
X3891570Y1738894D01*
X3897638Y1737687D01*
X3903706Y1738894D01*
X3908850Y1742332D01*
X3912287Y1747476D01*
X3913494Y1753543D01*
Y1770079D01*
X3912287Y1776147D01*
X3908850Y1781291D01*
X3903706Y1784728D01*
X3897638Y1785935D01*
D02*
G37*
G36*
X3464567D02*
X3458499Y1784728D01*
X3453355Y1781291D01*
X3449918Y1776147D01*
X3448711Y1770079D01*
Y1753543D01*
X3449918Y1747476D01*
X3453355Y1742332D01*
X3458499Y1738894D01*
X3464567Y1737687D01*
X3470635Y1738894D01*
X3475779Y1742332D01*
X3479216Y1747476D01*
X3480423Y1753543D01*
Y1770079D01*
X3479216Y1776147D01*
X3475779Y1781291D01*
X3470635Y1784728D01*
X3464567Y1785935D01*
D02*
G37*
G36*
X3222469Y1751181D02*
X3218475D01*
X3214785Y1749653D01*
X3211961Y1746829D01*
X3210433Y1743139D01*
Y1739145D01*
X3211961Y1735455D01*
X3214785Y1732631D01*
X3218475Y1731102D01*
X3222469D01*
X3226159Y1732631D01*
X3228983Y1735455D01*
X3230512Y1739145D01*
Y1743139D01*
X3228983Y1746829D01*
X3226159Y1749653D01*
X3222469Y1751181D01*
D02*
G37*
G36*
X3554213Y1740092D02*
Y1713662D01*
X3580643D01*
X3578709Y1720879D01*
X3574542Y1728097D01*
X3568648Y1733991D01*
X3561430Y1738158D01*
X3554213Y1740092D01*
D02*
G37*
G36*
X3544213Y1740092D02*
X3536995Y1738158D01*
X3529777Y1733991D01*
X3523883Y1728097D01*
X3519716Y1720879D01*
X3517782Y1713662D01*
X3544213D01*
Y1740092D01*
D02*
G37*
G36*
X4892795D02*
Y1713661D01*
X4919226D01*
X4917292Y1720879D01*
X4913124Y1728097D01*
X4907231Y1733991D01*
X4900013Y1738158D01*
X4892795Y1740092D01*
D02*
G37*
G36*
X4882795Y1740092D02*
X4875578Y1738158D01*
X4868360Y1733991D01*
X4862466Y1728097D01*
X4858299Y1720879D01*
X4856365Y1713661D01*
X4882795D01*
Y1740092D01*
D02*
G37*
G36*
X4459724Y1740092D02*
Y1713661D01*
X4486155D01*
X4484221Y1720879D01*
X4480053Y1728097D01*
X4474160Y1733991D01*
X4466942Y1738158D01*
X4459724Y1740092D01*
D02*
G37*
G36*
X3384921D02*
Y1713661D01*
X3411352D01*
X3409418Y1720879D01*
X3405250Y1728097D01*
X3399357Y1733991D01*
X3392139Y1738158D01*
X3384921Y1740092D01*
D02*
G37*
G36*
X3374921D02*
X3367703Y1738158D01*
X3360485Y1733991D01*
X3354592Y1728097D01*
X3350425Y1720879D01*
X3348491Y1713661D01*
X3374921D01*
Y1740092D01*
D02*
G37*
G36*
X4449724D02*
X4442507Y1738158D01*
X4435289Y1733991D01*
X4429395Y1728097D01*
X4425228Y1720879D01*
X4423294Y1713661D01*
X4449724D01*
Y1740092D01*
D02*
G37*
G36*
X4723504Y1740092D02*
Y1713661D01*
X4749934D01*
X4748000Y1720879D01*
X4743833Y1728097D01*
X4737940Y1733991D01*
X4730722Y1738158D01*
X4723504Y1740092D01*
D02*
G37*
G36*
X3817992Y1740092D02*
Y1713661D01*
X3844423D01*
X3842488Y1720879D01*
X3838321Y1728097D01*
X3832428Y1733991D01*
X3825210Y1738158D01*
X3817992Y1740092D01*
D02*
G37*
G36*
X3807992Y1740092D02*
X3800774Y1738158D01*
X3793556Y1733991D01*
X3787663Y1728097D01*
X3783496Y1720879D01*
X3781562Y1713661D01*
X3807992D01*
Y1740092D01*
D02*
G37*
G36*
X4713504Y1740092D02*
X4706286Y1738158D01*
X4699068Y1733991D01*
X4693175Y1728097D01*
X4689008Y1720879D01*
X4687074Y1713661D01*
X4713504D01*
Y1740092D01*
D02*
G37*
G36*
X6340540Y1731299D02*
X6336625D01*
X6333007Y1729801D01*
X6330239Y1727032D01*
X6328740Y1723415D01*
Y1719499D01*
X6330239Y1715881D01*
X6330255Y1715865D01*
X6332633Y1712598D01*
X6330255Y1709332D01*
X6330239Y1709315D01*
X6328740Y1705698D01*
Y1701782D01*
X6330239Y1698165D01*
X6333007Y1695396D01*
X6336625Y1693898D01*
X6340540D01*
X6344158Y1695396D01*
X6346926Y1698165D01*
X6348425Y1701782D01*
Y1705698D01*
X6346926Y1709315D01*
X6346910Y1709332D01*
X6344532Y1712598D01*
X6346910Y1715865D01*
X6346926Y1715881D01*
X6348425Y1719499D01*
Y1723415D01*
X6346926Y1727032D01*
X6344158Y1729801D01*
X6340540Y1731299D01*
D02*
G37*
G36*
X1931092D02*
X1927176D01*
X1923559Y1729801D01*
X1920790Y1727032D01*
X1919292Y1723415D01*
Y1719499D01*
X1920790Y1715881D01*
X1920806Y1715865D01*
X1923184Y1712598D01*
X1920806Y1709332D01*
X1920790Y1709315D01*
X1919292Y1705698D01*
Y1701782D01*
X1920790Y1698165D01*
X1923559Y1695396D01*
X1927176Y1693898D01*
X1931092D01*
X1934709Y1695396D01*
X1937478Y1698165D01*
X1938976Y1701782D01*
Y1705698D01*
X1937478Y1709315D01*
X1937461Y1709332D01*
X1935084Y1712598D01*
X1937461Y1715865D01*
X1937478Y1715881D01*
X1938976Y1719499D01*
Y1723415D01*
X1937478Y1727032D01*
X1934709Y1729801D01*
X1931092Y1731299D01*
D02*
G37*
G36*
X3580643Y1703662D02*
X3554213D01*
Y1677231D01*
X3561430Y1679165D01*
X3568648Y1683332D01*
X3574542Y1689226D01*
X3578709Y1696444D01*
X3580643Y1703662D01*
D02*
G37*
G36*
X4749934Y1703661D02*
X4723504D01*
Y1677231D01*
X4730722Y1679165D01*
X4737940Y1683332D01*
X4743833Y1689226D01*
X4748000Y1696444D01*
X4749934Y1703661D01*
D02*
G37*
G36*
X3807992D02*
X3781562D01*
X3783496Y1696444D01*
X3787663Y1689226D01*
X3793556Y1683332D01*
X3800774Y1679165D01*
X3807992Y1677231D01*
Y1703661D01*
D02*
G37*
G36*
X4486155Y1703661D02*
X4459724D01*
Y1677231D01*
X4466942Y1679165D01*
X4474160Y1683332D01*
X4480053Y1689226D01*
X4484221Y1696444D01*
X4486155Y1703661D01*
D02*
G37*
G36*
X4449724D02*
X4423294D01*
X4425228Y1696444D01*
X4429395Y1689226D01*
X4435289Y1683332D01*
X4442507Y1679165D01*
X4449724Y1677231D01*
Y1703661D01*
D02*
G37*
G36*
X3844422Y1703661D02*
X3817992D01*
Y1677231D01*
X3825210Y1679165D01*
X3832428Y1683332D01*
X3838321Y1689226D01*
X3842488Y1696444D01*
X3844422Y1703661D01*
D02*
G37*
G36*
X4713504D02*
X4687074D01*
X4689008Y1696444D01*
X4693175Y1689226D01*
X4699068Y1683332D01*
X4706286Y1679165D01*
X4713504Y1677231D01*
Y1703661D01*
D02*
G37*
G36*
X3544213Y1703662D02*
X3517782D01*
X3519716Y1696444D01*
X3523883Y1689226D01*
X3529777Y1683332D01*
X3536995Y1679165D01*
X3544213Y1677231D01*
Y1703662D01*
D02*
G37*
G36*
X3411352Y1703661D02*
X3379921D01*
X3348491D01*
X3350425Y1696444D01*
X3354592Y1689226D01*
X3360485Y1683332D01*
X3367703Y1679165D01*
X3369731Y1678622D01*
X3369072Y1673622D01*
X1741445D01*
X1715899Y1699167D01*
X1712579Y1701386D01*
X1708661Y1702165D01*
X1610039D01*
X1606122Y1701386D01*
X1602801Y1699167D01*
X1518352Y1614718D01*
X1517793Y1613880D01*
X1517080Y1613167D01*
X1516694Y1612236D01*
X1516134Y1611398D01*
X1515937Y1610409D01*
X1515551Y1609477D01*
Y1608469D01*
X1515354Y1607480D01*
X1515551Y1606491D01*
Y1605483D01*
X1515937Y1604552D01*
X1516134Y1603563D01*
X1516694Y1602725D01*
X1517080Y1601793D01*
X1517793Y1601080D01*
X1518352Y1600242D01*
X1519191Y1599682D01*
X1519904Y1598969D01*
X1520835Y1598583D01*
X1521673Y1598023D01*
X1522662Y1597827D01*
X1523593Y1597441D01*
X1524602D01*
X1525591Y1597244D01*
X1526579Y1597441D01*
X1527588D01*
X1528519Y1597827D01*
X1529508Y1598023D01*
X1530346Y1598583D01*
X1531277Y1598969D01*
X1531990Y1599682D01*
X1532829Y1600242D01*
X1614279Y1681693D01*
X1640034D01*
X1642697Y1676693D01*
X1639795Y1671667D01*
X1637861Y1664449D01*
X1700722D01*
X1698788Y1671667D01*
X1695886Y1676693D01*
X1698549Y1681693D01*
X1704422D01*
X1729967Y1656148D01*
X1733288Y1653929D01*
X1737205Y1653150D01*
X3431890D01*
X3432879Y1653346D01*
X3433887D01*
X3434818Y1653732D01*
X3435807Y1653929D01*
X3436645Y1654489D01*
X3437577Y1654875D01*
X3438290Y1655588D01*
X3439128Y1656148D01*
X3439688Y1656986D01*
X3440401Y1657699D01*
X3440787Y1658630D01*
X3441347Y1659469D01*
X3441543Y1660457D01*
X3441929Y1661389D01*
Y1662397D01*
X3442126Y1663386D01*
X3441929Y1664375D01*
Y1665383D01*
X3441543Y1666314D01*
X3441347Y1667303D01*
X3440787Y1668141D01*
X3440401Y1669073D01*
X3439688Y1669786D01*
X3439128Y1670624D01*
X3438290Y1671184D01*
X3437577Y1671897D01*
X3436645Y1672283D01*
X3435807Y1672843D01*
X3434818Y1673039D01*
X3433887Y1673425D01*
X3432879D01*
X3431890Y1673622D01*
X3390770D01*
X3390112Y1678622D01*
X3392139Y1679165D01*
X3399357Y1683332D01*
X3405250Y1689226D01*
X3409418Y1696444D01*
X3411352Y1703661D01*
D02*
G37*
G36*
X4772430Y1712598D02*
X4768515D01*
X4764897Y1711100D01*
X4762128Y1708331D01*
X4760630Y1704714D01*
Y1700798D01*
X4762128Y1697181D01*
X4763190Y1696120D01*
X4764353Y1692913D01*
X4763190Y1689707D01*
X4762128Y1688646D01*
X4760630Y1685029D01*
Y1681113D01*
X4762128Y1677495D01*
X4764897Y1674727D01*
X4768515Y1673228D01*
X4772430D01*
X4776048Y1674727D01*
X4778816Y1677495D01*
X4780315Y1681113D01*
Y1685029D01*
X4778816Y1688646D01*
X4777755Y1689707D01*
X4776592Y1692913D01*
X4777755Y1696120D01*
X4778816Y1697181D01*
X4780315Y1700798D01*
Y1704714D01*
X4778816Y1708331D01*
X4776048Y1711100D01*
X4772430Y1712598D01*
D02*
G37*
G36*
X3499202D02*
X3495286D01*
X3491669Y1711100D01*
X3488900Y1708331D01*
X3487402Y1704714D01*
Y1700798D01*
X3488900Y1697181D01*
X3489961Y1696120D01*
X3491125Y1692913D01*
X3489961Y1689707D01*
X3488900Y1688646D01*
X3487402Y1685029D01*
Y1681113D01*
X3488900Y1677495D01*
X3491669Y1674727D01*
X3495286Y1673228D01*
X3499202D01*
X3502819Y1674727D01*
X3505588Y1677495D01*
X3507087Y1681113D01*
Y1685029D01*
X3505588Y1688646D01*
X3504527Y1689707D01*
X3503363Y1692913D01*
X3504527Y1696120D01*
X3505588Y1697181D01*
X3507087Y1700798D01*
Y1704714D01*
X3505588Y1708331D01*
X3502819Y1711100D01*
X3499202Y1712598D01*
D02*
G37*
G36*
X6792402Y1690879D02*
Y1664449D01*
X6818832D01*
X6816898Y1671667D01*
X6812731Y1678884D01*
X6806837Y1684778D01*
X6799619Y1688945D01*
X6792402Y1690879D01*
D02*
G37*
G36*
X6782402D02*
X6775184Y1688945D01*
X6767966Y1684778D01*
X6762073Y1678884D01*
X6757905Y1671667D01*
X6755971Y1664449D01*
X6782402D01*
Y1690879D01*
D02*
G37*
G36*
X1485315D02*
Y1664449D01*
X1511745D01*
X1509811Y1671667D01*
X1505644Y1678884D01*
X1499751Y1684778D01*
X1492533Y1688945D01*
X1485315Y1690879D01*
D02*
G37*
G36*
X1475315D02*
X1468097Y1688945D01*
X1460879Y1684778D01*
X1454986Y1678884D01*
X1450819Y1671667D01*
X1448884Y1664449D01*
X1475315D01*
Y1690879D01*
D02*
G37*
G36*
X4475422Y1654724D02*
X4471428D01*
X4467738Y1653196D01*
X4464914Y1650372D01*
X4463386Y1646682D01*
Y1642688D01*
X4464914Y1638998D01*
X4467738Y1636174D01*
X4471428Y1634646D01*
X4475422D01*
X4479112Y1636174D01*
X4481936Y1638998D01*
X4483465Y1642688D01*
Y1646682D01*
X4481936Y1650372D01*
X4479112Y1653196D01*
X4475422Y1654724D01*
D02*
G37*
G36*
X3982312Y1653740D02*
X3978318D01*
X3974628Y1652212D01*
X3971804Y1649388D01*
X3970276Y1645698D01*
Y1641704D01*
X3971804Y1638014D01*
X3974628Y1635190D01*
X3978318Y1633661D01*
X3982312D01*
X3986002Y1635190D01*
X3988826Y1638014D01*
X3990354Y1641704D01*
Y1645698D01*
X3988826Y1649388D01*
X3986002Y1652212D01*
X3982312Y1653740D01*
D02*
G37*
G36*
X6629856Y1654449D02*
X6603425D01*
Y1628018D01*
X6610643Y1629953D01*
X6617861Y1634120D01*
X6623754Y1640013D01*
X6627922Y1647231D01*
X6629856Y1654449D01*
D02*
G37*
G36*
X1700722D02*
X1674291D01*
Y1628018D01*
X1681509Y1629953D01*
X1688727Y1634120D01*
X1694620Y1640013D01*
X1698788Y1647231D01*
X1700722Y1654449D01*
D02*
G37*
G36*
X1664291D02*
X1637861D01*
X1639795Y1647231D01*
X1643962Y1640013D01*
X1649856Y1634120D01*
X1657073Y1629953D01*
X1664291Y1628018D01*
Y1654449D01*
D02*
G37*
G36*
X1511745D02*
X1485315D01*
Y1628018D01*
X1492533Y1629953D01*
X1499751Y1634120D01*
X1505644Y1640013D01*
X1509811Y1647231D01*
X1511745Y1654449D01*
D02*
G37*
G36*
X1475315D02*
X1448884D01*
X1450819Y1647231D01*
X1454986Y1640013D01*
X1460879Y1634120D01*
X1468097Y1629953D01*
X1475315Y1628018D01*
Y1654449D01*
D02*
G37*
G36*
X6818832D02*
X6792402D01*
Y1628018D01*
X6799619Y1629953D01*
X6806837Y1634120D01*
X6812731Y1640013D01*
X6816898Y1647231D01*
X6818832Y1654449D01*
D02*
G37*
G36*
X6782402D02*
X6755971D01*
X6757905Y1647231D01*
X6762073Y1640013D01*
X6767966Y1634120D01*
X6775184Y1629953D01*
X6782402Y1628018D01*
Y1654449D01*
D02*
G37*
G36*
X4919226Y1703661D02*
X4887795D01*
X4856365D01*
X4858299Y1696444D01*
X4862466Y1689226D01*
X4868360Y1683332D01*
X4875578Y1679165D01*
X4877605Y1678622D01*
X4876946Y1673622D01*
X4835827D01*
X4834838Y1673425D01*
X4833830D01*
X4832898Y1673039D01*
X4831910Y1672843D01*
X4831071Y1672283D01*
X4830140Y1671897D01*
X4829427Y1671184D01*
X4828589Y1670624D01*
X4828029Y1669786D01*
X4827316Y1669073D01*
X4826930Y1668141D01*
X4826370Y1667303D01*
X4826173Y1666314D01*
X4825787Y1665383D01*
Y1664375D01*
X4825591Y1663386D01*
X4825787Y1662397D01*
Y1661389D01*
X4826173Y1660457D01*
X4826370Y1659469D01*
X4826930Y1658630D01*
X4827316Y1657699D01*
X4828029Y1656986D01*
X4828589Y1656148D01*
X4829427Y1655588D01*
X4830140Y1654875D01*
X4831071Y1654489D01*
X4831910Y1653929D01*
X4832898Y1653732D01*
X4833830Y1653346D01*
X4834838D01*
X4835827Y1653150D01*
X6396645D01*
X6397751Y1651892D01*
X6399441Y1648150D01*
X6398425Y1645698D01*
Y1641704D01*
X6399954Y1638014D01*
X6402778Y1635190D01*
X6406468Y1633661D01*
X6410462D01*
X6414151Y1635190D01*
X6416976Y1638014D01*
X6418504Y1641704D01*
Y1645698D01*
X6417488Y1648150D01*
X6419178Y1651892D01*
X6420285Y1653150D01*
X6557087D01*
X6561004Y1653929D01*
X6562024Y1654611D01*
X6567401Y1652614D01*
X6567524Y1652473D01*
X6568929Y1647231D01*
X6573096Y1640013D01*
X6578989Y1634120D01*
X6586207Y1629953D01*
X6593425Y1628018D01*
Y1659449D01*
X6598425D01*
Y1664449D01*
X6629856D01*
X6627922Y1671667D01*
X6625020Y1676693D01*
X6627682Y1681693D01*
X6653437D01*
X6734888Y1600242D01*
X6735726Y1599682D01*
X6736439Y1598969D01*
X6737371Y1598583D01*
X6738209Y1598023D01*
X6739198Y1597827D01*
X6740129Y1597441D01*
X6741137D01*
X6742126Y1597244D01*
X6743115Y1597441D01*
X6744123D01*
X6745055Y1597827D01*
X6746043Y1598023D01*
X6746881Y1598583D01*
X6747813Y1598969D01*
X6748526Y1599682D01*
X6749364Y1600242D01*
X6749924Y1601080D01*
X6750637Y1601793D01*
X6751023Y1602725D01*
X6751583Y1603563D01*
X6751779Y1604552D01*
X6752165Y1605483D01*
Y1606492D01*
X6752362Y1607480D01*
X6752165Y1608469D01*
Y1609477D01*
X6751780Y1610409D01*
X6751583Y1611398D01*
X6751023Y1612236D01*
X6750637Y1613167D01*
X6749924Y1613880D01*
X6749364Y1614718D01*
X6664915Y1699167D01*
X6661594Y1701386D01*
X6657677Y1702165D01*
X6585630D01*
X6581713Y1701386D01*
X6578392Y1699167D01*
X6552847Y1673622D01*
X4898644D01*
X4897986Y1678622D01*
X4900013Y1679165D01*
X4907231Y1683332D01*
X4913124Y1689226D01*
X4917292Y1696444D01*
X4919226Y1703661D01*
D02*
G37*
G36*
X3499241Y1653740D02*
X3495247D01*
X3491557Y1652212D01*
X3488733Y1649388D01*
X3487205Y1645698D01*
Y1641704D01*
X3488733Y1638014D01*
X3489764Y1636983D01*
X3491057Y1633846D01*
X3489810Y1630501D01*
X3488900Y1629591D01*
X3487402Y1625974D01*
Y1622058D01*
X3488900Y1618440D01*
X3489961Y1617379D01*
X3491125Y1614173D01*
X3489961Y1610967D01*
X3488900Y1609906D01*
X3487402Y1606289D01*
Y1602373D01*
X3488900Y1598755D01*
X3491669Y1595987D01*
X3495286Y1594488D01*
X3499202D01*
X3502819Y1595987D01*
X3505588Y1598755D01*
X3507087Y1602373D01*
Y1606289D01*
X3505588Y1609906D01*
X3504527Y1610967D01*
X3503363Y1614173D01*
X3504527Y1617379D01*
X3505588Y1618440D01*
X3507087Y1622058D01*
Y1625974D01*
X3505588Y1629591D01*
X3504678Y1630501D01*
X3503432Y1633846D01*
X3504724Y1636983D01*
X3505755Y1638014D01*
X3507284Y1641704D01*
Y1645698D01*
X3505755Y1649388D01*
X3502931Y1652212D01*
X3499241Y1653740D01*
D02*
G37*
G36*
X3777588Y1613386D02*
X3773593D01*
X3769904Y1611858D01*
X3767079Y1609033D01*
X3765551Y1605343D01*
Y1601350D01*
X3767079Y1597660D01*
X3769904Y1594835D01*
X3773593Y1593307D01*
X3777588D01*
X3781277Y1594835D01*
X3784102Y1597660D01*
X3785630Y1601350D01*
Y1605343D01*
X3784102Y1609033D01*
X3781277Y1611858D01*
X3777588Y1613386D01*
D02*
G37*
G36*
X6340540Y1622047D02*
X6336625D01*
X6333007Y1620549D01*
X6330239Y1617780D01*
X6328740Y1614162D01*
Y1610247D01*
X6330239Y1606629D01*
X6330255Y1606613D01*
X6332633Y1603346D01*
X6330255Y1600080D01*
X6330239Y1600063D01*
X6328740Y1596446D01*
Y1592530D01*
X6330239Y1588913D01*
X6333007Y1586144D01*
X6336625Y1584646D01*
X6340540D01*
X6344158Y1586144D01*
X6346927Y1588913D01*
X6348425Y1592530D01*
Y1596446D01*
X6346927Y1600063D01*
X6346910Y1600080D01*
X6344532Y1603346D01*
X6346910Y1606613D01*
X6346927Y1606629D01*
X6348425Y1610247D01*
Y1614162D01*
X6346927Y1617780D01*
X6344158Y1620549D01*
X6340540Y1622047D01*
D02*
G37*
G36*
X1931092D02*
X1927176D01*
X1923559Y1620549D01*
X1920790Y1617780D01*
X1919291Y1614162D01*
Y1610247D01*
X1920790Y1606629D01*
X1920806Y1606613D01*
X1923184Y1603346D01*
X1920806Y1600080D01*
X1920790Y1600063D01*
X1919291Y1596446D01*
Y1592530D01*
X1920790Y1588913D01*
X1923559Y1586144D01*
X1927176Y1584646D01*
X1931092D01*
X1934709Y1586144D01*
X1937478Y1588913D01*
X1938976Y1592530D01*
Y1596446D01*
X1937478Y1600063D01*
X1937461Y1600080D01*
X1935084Y1603346D01*
X1937461Y1606613D01*
X1937478Y1606629D01*
X1938976Y1610247D01*
Y1614162D01*
X1937478Y1617780D01*
X1934709Y1620549D01*
X1931092Y1622047D01*
D02*
G37*
G36*
X4255934Y1594685D02*
X4251940D01*
X4248250Y1593157D01*
X4245426Y1590333D01*
X4243898Y1586643D01*
Y1582649D01*
X4245426Y1578959D01*
X4248250Y1576135D01*
X4251940Y1574606D01*
X4255934D01*
X4259624Y1576135D01*
X4262448Y1578959D01*
X4263976Y1582649D01*
Y1586643D01*
X4262448Y1590333D01*
X4259624Y1593157D01*
X4255934Y1594685D01*
D02*
G37*
G36*
X4772430Y1633858D02*
X4768515D01*
X4764897Y1632360D01*
X4762128Y1629591D01*
X4760630Y1625974D01*
Y1622058D01*
X4762128Y1618440D01*
X4763190Y1617379D01*
X4764353Y1614173D01*
X4763190Y1610967D01*
X4762128Y1609906D01*
X4760630Y1606289D01*
Y1602373D01*
X4762128Y1598755D01*
X4763039Y1597845D01*
X4764285Y1594501D01*
X4762993Y1591364D01*
X4761961Y1590332D01*
X4760433Y1586643D01*
Y1582649D01*
X4761961Y1578959D01*
X4764785Y1576135D01*
X4768475Y1574606D01*
X4772469D01*
X4776159Y1576135D01*
X4778983Y1578959D01*
X4780512Y1582649D01*
Y1586643D01*
X4778983Y1590332D01*
X4777952Y1591364D01*
X4776660Y1594501D01*
X4777906Y1597845D01*
X4778816Y1598755D01*
X4780315Y1602373D01*
Y1606289D01*
X4778816Y1609906D01*
X4777755Y1610967D01*
X4776592Y1614173D01*
X4777755Y1617379D01*
X4778816Y1618440D01*
X4780315Y1622058D01*
Y1625974D01*
X4778816Y1629591D01*
X4776048Y1632360D01*
X4772430Y1633858D01*
D02*
G37*
G36*
X6130934Y1579921D02*
X6126940D01*
X6123250Y1578393D01*
X6120426Y1575569D01*
X6118898Y1571879D01*
Y1567885D01*
X6120426Y1564195D01*
X6123250Y1561371D01*
X6126940Y1559842D01*
X6130934D01*
X6134624Y1561371D01*
X6137448Y1564195D01*
X6138976Y1567885D01*
Y1571879D01*
X6137448Y1575569D01*
X6134624Y1578393D01*
X6130934Y1579921D01*
D02*
G37*
G36*
X6553543Y1590659D02*
X6537008D01*
X6530940Y1589452D01*
X6525796Y1586015D01*
X6522359Y1580871D01*
X6521152Y1574803D01*
X6522359Y1568735D01*
X6525796Y1563591D01*
X6530940Y1560154D01*
X6537008Y1558947D01*
X6553543D01*
X6559611Y1560154D01*
X6564755Y1563591D01*
X6568192Y1568735D01*
X6569399Y1574803D01*
X6568192Y1580871D01*
X6564755Y1586015D01*
X6559611Y1589452D01*
X6553543Y1590659D01*
D02*
G37*
G36*
X1435433D02*
X1418898D01*
X1412830Y1589452D01*
X1407686Y1586015D01*
X1404249Y1580871D01*
X1403042Y1574803D01*
X1404249Y1568735D01*
X1407686Y1563591D01*
X1412830Y1560154D01*
X1418898Y1558947D01*
X1435433D01*
X1441501Y1560154D01*
X1446645Y1563591D01*
X1450082Y1568735D01*
X1451289Y1574803D01*
X1450082Y1580871D01*
X1446645Y1586015D01*
X1441501Y1589452D01*
X1435433Y1590659D01*
D02*
G37*
G36*
X6843958Y1591929D02*
X6837145D01*
X6830850Y1589322D01*
X6826033Y1584504D01*
X6823425Y1578210D01*
Y1571397D01*
X6826033Y1565102D01*
X6830850Y1560284D01*
X6837145Y1557677D01*
X6843958D01*
X6850252Y1560284D01*
X6855070Y1565102D01*
X6857677Y1571397D01*
Y1578210D01*
X6855070Y1584504D01*
X6850252Y1589322D01*
X6843958Y1591929D01*
D02*
G37*
G36*
X1725848D02*
X1719034D01*
X1712740Y1589322D01*
X1707922Y1584504D01*
X1705315Y1578210D01*
Y1571397D01*
X1707922Y1565102D01*
X1712740Y1560284D01*
X1719034Y1557677D01*
X1725848D01*
X1732142Y1560284D01*
X1736960Y1565102D01*
X1739567Y1571397D01*
Y1578210D01*
X1736960Y1584504D01*
X1732142Y1589322D01*
X1725848Y1591929D01*
D02*
G37*
G36*
X6643701Y1617716D02*
X6496260D01*
X6492343Y1616937D01*
X6489022Y1614718D01*
X6426862Y1552559D01*
X4991445D01*
X4971805Y1572199D01*
X4968484Y1574418D01*
X4964567Y1575197D01*
X4835827D01*
X4834838Y1575000D01*
X4833830D01*
X4832898Y1574614D01*
X4831910Y1574418D01*
X4831071Y1573858D01*
X4830140Y1573472D01*
X4829427Y1572759D01*
X4828589Y1572199D01*
X4828029Y1571361D01*
X4827316Y1570648D01*
X4826930Y1569716D01*
X4826370Y1568878D01*
X4826173Y1567889D01*
X4825787Y1566958D01*
Y1565949D01*
X4825591Y1564961D01*
X4825787Y1563972D01*
Y1562964D01*
X4826173Y1562032D01*
X4826370Y1561043D01*
X4826930Y1560205D01*
X4827316Y1559274D01*
X4828029Y1558561D01*
X4828589Y1557723D01*
X4829427Y1557163D01*
X4830140Y1556450D01*
X4831071Y1556064D01*
X4831910Y1555504D01*
X4832898Y1555307D01*
X4833830Y1554921D01*
X4834838D01*
X4835827Y1554725D01*
X4876946D01*
X4877605Y1549725D01*
X4875578Y1549181D01*
X4868360Y1545014D01*
X4862466Y1539121D01*
X4858299Y1531903D01*
X4856365Y1524685D01*
X4887795D01*
Y1519685D01*
D01*
Y1524685D01*
X4919226D01*
X4917292Y1531903D01*
X4913124Y1539121D01*
X4907231Y1545014D01*
X4900013Y1549181D01*
X4897986Y1549725D01*
X4898644Y1554725D01*
X4960327D01*
X4979967Y1535085D01*
X4983288Y1532866D01*
X4987205Y1532087D01*
X6431102D01*
X6435020Y1532866D01*
X6438340Y1535085D01*
X6500500Y1597244D01*
X6643701D01*
X6644690Y1597441D01*
X6645698D01*
X6646629Y1597827D01*
X6647618Y1598023D01*
X6648456Y1598583D01*
X6649388Y1598969D01*
X6650101Y1599682D01*
X6650939Y1600242D01*
X6651499Y1601080D01*
X6652212Y1601793D01*
X6652598Y1602725D01*
X6653158Y1603563D01*
X6653354Y1604552D01*
X6653740Y1605483D01*
Y1606491D01*
X6653937Y1607480D01*
X6653740Y1608469D01*
Y1609477D01*
X6653354Y1610409D01*
X6653158Y1611398D01*
X6652598Y1612236D01*
X6652212Y1613167D01*
X6651499Y1613880D01*
X6650939Y1614718D01*
X6650101Y1615278D01*
X6649388Y1615991D01*
X6648456Y1616377D01*
X6647618Y1616937D01*
X6646629Y1617134D01*
X6645698Y1617520D01*
X6644690D01*
X6643701Y1617716D01*
D02*
G37*
G36*
X6724438Y1552165D02*
X6720444D01*
X6716754Y1550637D01*
X6715723Y1549606D01*
X6712586Y1548313D01*
X6709242Y1549560D01*
X6708331Y1550470D01*
X6704714Y1551968D01*
X6700798D01*
X6697181Y1550470D01*
X6696119Y1549409D01*
X6692913Y1548245D01*
X6689707Y1549409D01*
X6688646Y1550470D01*
X6685029Y1551968D01*
X6681113D01*
X6677495Y1550470D01*
X6674727Y1547701D01*
X6673228Y1544084D01*
Y1540168D01*
X6674727Y1536551D01*
X6677495Y1533782D01*
X6681113Y1532283D01*
X6685029D01*
X6688646Y1533782D01*
X6689707Y1534843D01*
X6692913Y1536007D01*
X6696119Y1534843D01*
X6697181Y1533782D01*
X6700798Y1532283D01*
X6704714D01*
X6708331Y1533782D01*
X6709242Y1534692D01*
X6712586Y1535938D01*
X6715723Y1534646D01*
X6716754Y1533615D01*
X6720444Y1532086D01*
X6724438D01*
X6728128Y1533615D01*
X6730952Y1536439D01*
X6732480Y1540129D01*
Y1544123D01*
X6730952Y1547813D01*
X6728128Y1550637D01*
X6724438Y1552165D01*
D02*
G37*
G36*
X6783454Y1551968D02*
X6779538D01*
X6775921Y1550470D01*
X6774860Y1549409D01*
X6771654Y1548245D01*
X6768447Y1549409D01*
X6767386Y1550470D01*
X6763769Y1551968D01*
X6759853D01*
X6756236Y1550470D01*
X6753467Y1547701D01*
X6751968Y1544084D01*
Y1540168D01*
X6753467Y1536551D01*
X6756236Y1533782D01*
X6759853Y1532283D01*
X6763769D01*
X6767386Y1533782D01*
X6768447Y1534843D01*
X6771654Y1536007D01*
X6774860Y1534843D01*
X6775921Y1533782D01*
X6779538Y1532283D01*
X6783454D01*
X6787071Y1533782D01*
X6789840Y1536551D01*
X6791339Y1540168D01*
Y1544084D01*
X6789840Y1547701D01*
X6787071Y1550470D01*
X6783454Y1551968D01*
D02*
G37*
G36*
X6625974D02*
X6622058D01*
X6618440Y1550470D01*
X6617379Y1549409D01*
X6614173Y1548245D01*
X6610967Y1549409D01*
X6609906Y1550470D01*
X6606288Y1551968D01*
X6602373D01*
X6598755Y1550470D01*
X6595987Y1547701D01*
X6594488Y1544084D01*
Y1540168D01*
X6595987Y1536551D01*
X6598755Y1533782D01*
X6602373Y1532283D01*
X6606288D01*
X6609906Y1533782D01*
X6610967Y1534843D01*
X6614173Y1536007D01*
X6617379Y1534843D01*
X6618440Y1533782D01*
X6622058Y1532283D01*
X6625974D01*
X6629591Y1533782D01*
X6632360Y1536551D01*
X6633858Y1540168D01*
Y1544084D01*
X6632360Y1547701D01*
X6629591Y1550470D01*
X6625974Y1551968D01*
D02*
G37*
G36*
X1665344D02*
X1661428D01*
X1657811Y1550470D01*
X1656749Y1549409D01*
X1653543Y1548245D01*
X1650337Y1549409D01*
X1649276Y1550470D01*
X1645659Y1551968D01*
X1641743D01*
X1638125Y1550470D01*
X1635357Y1547701D01*
X1633858Y1544084D01*
Y1540168D01*
X1635357Y1536551D01*
X1638125Y1533782D01*
X1641743Y1532283D01*
X1645659D01*
X1649276Y1533782D01*
X1650337Y1534843D01*
X1653543Y1536007D01*
X1656749Y1534843D01*
X1657811Y1533782D01*
X1661428Y1532283D01*
X1665344D01*
X1668961Y1533782D01*
X1671730Y1536551D01*
X1673228Y1540168D01*
Y1544084D01*
X1671730Y1547701D01*
X1668961Y1550470D01*
X1665344Y1551968D01*
D02*
G37*
G36*
X1586603D02*
X1582688D01*
X1579070Y1550470D01*
X1578009Y1549409D01*
X1574803Y1548245D01*
X1571597Y1549409D01*
X1570536Y1550470D01*
X1566918Y1551968D01*
X1563003D01*
X1559385Y1550470D01*
X1556617Y1547701D01*
X1555118Y1544084D01*
Y1540168D01*
X1556617Y1536551D01*
X1559385Y1533782D01*
X1563003Y1532283D01*
X1566918D01*
X1570536Y1533782D01*
X1571597Y1534843D01*
X1574803Y1536007D01*
X1578009Y1534843D01*
X1579070Y1533782D01*
X1582688Y1532283D01*
X1586603D01*
X1590221Y1533782D01*
X1592990Y1536551D01*
X1594488Y1540168D01*
Y1544084D01*
X1592990Y1547701D01*
X1590221Y1550470D01*
X1586603Y1551968D01*
D02*
G37*
G36*
X1507863D02*
X1503948D01*
X1500330Y1550470D01*
X1499269Y1549409D01*
X1496063Y1548245D01*
X1492857Y1549409D01*
X1491796Y1550470D01*
X1488178Y1551968D01*
X1484263D01*
X1480645Y1550470D01*
X1477876Y1547701D01*
X1476378Y1544084D01*
Y1540168D01*
X1477876Y1536551D01*
X1480645Y1533782D01*
X1484263Y1532283D01*
X1488178D01*
X1491796Y1533782D01*
X1492857Y1534843D01*
X1496063Y1536007D01*
X1499269Y1534843D01*
X1500330Y1533782D01*
X1503948Y1532283D01*
X1507863D01*
X1511481Y1533782D01*
X1514249Y1536551D01*
X1515748Y1540168D01*
Y1544084D01*
X1514249Y1547701D01*
X1511481Y1550470D01*
X1507863Y1551968D01*
D02*
G37*
G36*
X3554213Y1551115D02*
Y1524685D01*
X3580643D01*
X3578709Y1531903D01*
X3574542Y1539121D01*
X3568648Y1545014D01*
X3561430Y1549181D01*
X3554213Y1551115D01*
D02*
G37*
G36*
X3544213Y1551115D02*
X3536995Y1549181D01*
X3529777Y1545014D01*
X3523883Y1539121D01*
X3519716Y1531903D01*
X3517782Y1524685D01*
X3544213D01*
Y1551115D01*
D02*
G37*
G36*
X4459724D02*
Y1524685D01*
X4486155D01*
X4484221Y1531903D01*
X4480053Y1539121D01*
X4474160Y1545014D01*
X4466942Y1549181D01*
X4459724Y1551115D01*
D02*
G37*
G36*
X4449724D02*
X4442507Y1549181D01*
X4435289Y1545014D01*
X4429395Y1539121D01*
X4425228Y1531903D01*
X4423294Y1524685D01*
X4449724D01*
Y1551115D01*
D02*
G37*
G36*
X4723504Y1551115D02*
Y1524685D01*
X4749934D01*
X4748000Y1531903D01*
X4743833Y1539121D01*
X4737940Y1545014D01*
X4730722Y1549181D01*
X4723504Y1551115D01*
D02*
G37*
G36*
X3817992Y1551115D02*
Y1524685D01*
X3844423D01*
X3842488Y1531903D01*
X3838321Y1539121D01*
X3832428Y1545014D01*
X3825210Y1549181D01*
X3817992Y1551115D01*
D02*
G37*
G36*
X3807992Y1551115D02*
X3800774Y1549181D01*
X3793556Y1545014D01*
X3787663Y1539121D01*
X3783496Y1531903D01*
X3781562Y1524685D01*
X3807992D01*
Y1551115D01*
D02*
G37*
G36*
X4713504Y1551115D02*
X4706286Y1549181D01*
X4699068Y1545014D01*
X4693175Y1539121D01*
X4689008Y1531903D01*
X4687074Y1524685D01*
X4713504D01*
Y1551115D01*
D02*
G37*
G36*
X1771457Y1617716D02*
X1624016D01*
X1623027Y1617520D01*
X1622019D01*
X1621087Y1617134D01*
X1620099Y1616937D01*
X1619260Y1616377D01*
X1618329Y1615991D01*
X1617616Y1615278D01*
X1616778Y1614718D01*
X1616218Y1613880D01*
X1615505Y1613167D01*
X1615119Y1612236D01*
X1614559Y1611398D01*
X1614362Y1610409D01*
X1613976Y1609477D01*
Y1608469D01*
X1613780Y1607480D01*
X1613976Y1606491D01*
Y1605483D01*
X1614362Y1604552D01*
X1614559Y1603563D01*
X1615119Y1602725D01*
X1615505Y1601793D01*
X1616218Y1601080D01*
X1616778Y1600242D01*
X1617616Y1599682D01*
X1618329Y1598969D01*
X1619260Y1598583D01*
X1620099Y1598023D01*
X1621087Y1597827D01*
X1622019Y1597441D01*
X1623027D01*
X1624016Y1597244D01*
X1767217D01*
X1806738Y1557723D01*
X1810059Y1555504D01*
X1813976Y1554725D01*
X3369072D01*
X3369731Y1549725D01*
X3367703Y1549181D01*
X3360485Y1545014D01*
X3354592Y1539121D01*
X3350425Y1531903D01*
X3348491Y1524685D01*
X3379921D01*
Y1519685D01*
D01*
Y1524685D01*
X3411352D01*
X3409418Y1531903D01*
X3405250Y1539121D01*
X3399357Y1545014D01*
X3392139Y1549181D01*
X3390112Y1549725D01*
X3390770Y1554725D01*
X3431890D01*
X3432879Y1554921D01*
X3433887D01*
X3434818Y1555307D01*
X3435807Y1555504D01*
X3436645Y1556064D01*
X3437577Y1556450D01*
X3438290Y1557163D01*
X3439128Y1557723D01*
X3439688Y1558561D01*
X3440401Y1559274D01*
X3440787Y1560205D01*
X3441347Y1561043D01*
X3441543Y1562032D01*
X3441929Y1562964D01*
Y1563972D01*
X3442126Y1564961D01*
X3441929Y1565949D01*
Y1566958D01*
X3441543Y1567889D01*
X3441347Y1568878D01*
X3440787Y1569716D01*
X3440401Y1570648D01*
X3439688Y1571361D01*
X3439547Y1571572D01*
X3439103Y1572599D01*
X3438860Y1576521D01*
X3439512Y1578070D01*
X3440401Y1578959D01*
X3441929Y1582649D01*
Y1586643D01*
X3440401Y1590332D01*
X3437577Y1593157D01*
X3433887Y1594685D01*
X3429893D01*
X3426203Y1593157D01*
X3423379Y1590332D01*
X3421850Y1586643D01*
Y1582649D01*
X3422866Y1580197D01*
X3421176Y1576454D01*
X3420070Y1575197D01*
X1818216D01*
X1778695Y1614718D01*
X1775374Y1616937D01*
X1771457Y1617716D01*
D02*
G37*
G36*
X4772430Y1555118D02*
X4768515D01*
X4764897Y1553620D01*
X4762128Y1550851D01*
X4760630Y1547233D01*
Y1543318D01*
X4762128Y1539700D01*
X4763190Y1538639D01*
X4764353Y1535433D01*
X4763190Y1532227D01*
X4762128Y1531166D01*
X4760630Y1527548D01*
Y1523633D01*
X4762128Y1520015D01*
X4764897Y1517246D01*
X4768515Y1515748D01*
X4772430D01*
X4776048Y1517246D01*
X4778816Y1520015D01*
X4780315Y1523633D01*
Y1527548D01*
X4778816Y1531166D01*
X4777755Y1532227D01*
X4776592Y1535433D01*
X4777755Y1538639D01*
X4778816Y1539700D01*
X4780315Y1543318D01*
Y1547233D01*
X4778816Y1550851D01*
X4776048Y1553620D01*
X4772430Y1555118D01*
D02*
G37*
G36*
X3499202D02*
X3495286D01*
X3491669Y1553620D01*
X3488900Y1550851D01*
X3487402Y1547233D01*
Y1543318D01*
X3488900Y1539700D01*
X3489961Y1538639D01*
X3491125Y1535433D01*
X3489961Y1532227D01*
X3488900Y1531166D01*
X3487402Y1527548D01*
Y1523633D01*
X3488900Y1520015D01*
X3491669Y1517246D01*
X3495286Y1515748D01*
X3499202D01*
X3502819Y1517246D01*
X3505588Y1520015D01*
X3507087Y1523633D01*
Y1527548D01*
X3505588Y1531166D01*
X3504527Y1532227D01*
X3503363Y1535433D01*
X3504527Y1538639D01*
X3505588Y1539700D01*
X3507087Y1543318D01*
Y1547233D01*
X3505588Y1550851D01*
X3502819Y1553620D01*
X3499202Y1555118D01*
D02*
G37*
G36*
X6792402Y1521588D02*
Y1495157D01*
X6818832D01*
X6816898Y1502375D01*
X6812731Y1509593D01*
X6806837Y1515486D01*
X6799619Y1519654D01*
X6792402Y1521588D01*
D02*
G37*
G36*
X6782402D02*
X6775184Y1519654D01*
X6767966Y1515486D01*
X6762073Y1509593D01*
X6757905Y1502375D01*
X6755971Y1495157D01*
X6782402D01*
Y1521588D01*
D02*
G37*
G36*
X6603425D02*
Y1495157D01*
X6629856D01*
X6627922Y1502375D01*
X6623754Y1509593D01*
X6617861Y1515486D01*
X6610643Y1519654D01*
X6603425Y1521588D01*
D02*
G37*
G36*
X6593425D02*
X6586207Y1519654D01*
X6578989Y1515486D01*
X6573096Y1509593D01*
X6568929Y1502375D01*
X6566995Y1495157D01*
X6593425D01*
Y1521588D01*
D02*
G37*
G36*
X1674291D02*
Y1495157D01*
X1700722D01*
X1698788Y1502375D01*
X1694620Y1509593D01*
X1688727Y1515486D01*
X1681509Y1519654D01*
X1674291Y1521588D01*
D02*
G37*
G36*
X1664291D02*
X1657073Y1519654D01*
X1649856Y1515486D01*
X1643962Y1509593D01*
X1639795Y1502375D01*
X1637861Y1495157D01*
X1664291D01*
Y1521588D01*
D02*
G37*
G36*
X1485315D02*
Y1495157D01*
X1511745D01*
X1509811Y1502375D01*
X1505644Y1509593D01*
X1499751Y1515486D01*
X1492533Y1519654D01*
X1485315Y1521588D01*
D02*
G37*
G36*
X1475315D02*
X1468097Y1519654D01*
X1460879Y1515486D01*
X1454986Y1509593D01*
X1450819Y1502375D01*
X1448884Y1495157D01*
X1475315D01*
Y1521588D01*
D02*
G37*
G36*
X3580643Y1514685D02*
X3554213D01*
Y1488255D01*
X3561430Y1490189D01*
X3568648Y1494356D01*
X3574542Y1500249D01*
X3578709Y1507467D01*
X3580643Y1514685D01*
D02*
G37*
G36*
X4280433D02*
X4254003D01*
X4255937Y1507467D01*
X4260104Y1500249D01*
X4265997Y1494356D01*
X4273215Y1490189D01*
X4280433Y1488255D01*
Y1514685D01*
D02*
G37*
G36*
X4749934Y1514685D02*
X4723504D01*
Y1488255D01*
X4730722Y1490189D01*
X4737940Y1494356D01*
X4743833Y1500249D01*
X4748000Y1507467D01*
X4749934Y1514685D01*
D02*
G37*
G36*
X4013714Y1514685D02*
X3987284D01*
Y1488255D01*
X3994501Y1490189D01*
X4001719Y1494356D01*
X4007613Y1500249D01*
X4011780Y1507467D01*
X4013714Y1514685D01*
D02*
G37*
G36*
X3807992Y1514685D02*
X3781562D01*
X3783496Y1507467D01*
X3787663Y1500249D01*
X3793556Y1494356D01*
X3800774Y1490189D01*
X3807992Y1488255D01*
Y1514685D01*
D02*
G37*
G36*
X4882795Y1514685D02*
X4856365D01*
X4858299Y1507467D01*
X4862466Y1500249D01*
X4868360Y1494356D01*
X4875578Y1490189D01*
X4882795Y1488255D01*
Y1514685D01*
D02*
G37*
G36*
X4486155Y1514685D02*
X4459724D01*
Y1488255D01*
X4466942Y1490189D01*
X4474160Y1494356D01*
X4480053Y1500249D01*
X4484221Y1507467D01*
X4486155Y1514685D01*
D02*
G37*
G36*
X3411352D02*
X3384921D01*
Y1488255D01*
X3392139Y1490189D01*
X3399357Y1494356D01*
X3405250Y1500249D01*
X3409418Y1507467D01*
X3411352Y1514685D01*
D02*
G37*
G36*
X3374921D02*
X3348491D01*
X3350425Y1507467D01*
X3354592Y1500249D01*
X3360485Y1494356D01*
X3367703Y1490189D01*
X3374921Y1488255D01*
Y1514685D01*
D02*
G37*
G36*
X4449724D02*
X4423294D01*
X4425228Y1507467D01*
X4429395Y1500249D01*
X4435289Y1494356D01*
X4442507Y1490189D01*
X4449724Y1488255D01*
Y1514685D01*
D02*
G37*
G36*
X4919226Y1514685D02*
X4892795D01*
Y1488255D01*
X4900013Y1490189D01*
X4907231Y1494356D01*
X4913124Y1500249D01*
X4917292Y1507467D01*
X4919226Y1514685D01*
D02*
G37*
G36*
X3844422Y1514685D02*
X3817992D01*
Y1488255D01*
X3825210Y1490189D01*
X3832428Y1494356D01*
X3838321Y1500249D01*
X3842488Y1507467D01*
X3844422Y1514685D01*
D02*
G37*
G36*
X4713504D02*
X4687074D01*
X4689008Y1507467D01*
X4693175Y1500249D01*
X4699068Y1494356D01*
X4706286Y1490189D01*
X4713504Y1488255D01*
Y1514685D01*
D02*
G37*
G36*
X3544213Y1514685D02*
X3517782D01*
X3519716Y1507467D01*
X3523883Y1500249D01*
X3529777Y1494356D01*
X3536995Y1490189D01*
X3544213Y1488255D01*
Y1514685D01*
D02*
G37*
G36*
X6818832Y1485157D02*
X6792402D01*
Y1458727D01*
X6799619Y1460661D01*
X6806837Y1464828D01*
X6812731Y1470722D01*
X6816898Y1477940D01*
X6818832Y1485157D01*
D02*
G37*
G36*
X6782402D02*
X6755971D01*
X6757905Y1477940D01*
X6762073Y1470722D01*
X6767966Y1464828D01*
X6775184Y1460661D01*
X6782402Y1458727D01*
Y1485157D01*
D02*
G37*
G36*
X6629856D02*
X6603425D01*
Y1458727D01*
X6610643Y1460661D01*
X6617861Y1464828D01*
X6623754Y1470722D01*
X6627922Y1477940D01*
X6629856Y1485157D01*
D02*
G37*
G36*
X6593425D02*
X6566995D01*
X6568929Y1477940D01*
X6573096Y1470722D01*
X6578989Y1464828D01*
X6586207Y1460661D01*
X6593425Y1458727D01*
Y1485157D01*
D02*
G37*
G36*
X1700722D02*
X1674291D01*
Y1458727D01*
X1681509Y1460661D01*
X1688727Y1464828D01*
X1694620Y1470722D01*
X1698788Y1477940D01*
X1700722Y1485157D01*
D02*
G37*
G36*
X1664291D02*
X1637861D01*
X1639795Y1477940D01*
X1643962Y1470722D01*
X1649856Y1464828D01*
X1657073Y1460661D01*
X1664291Y1458727D01*
Y1485157D01*
D02*
G37*
G36*
X1511745D02*
X1485315D01*
Y1458727D01*
X1492533Y1460661D01*
X1499751Y1464828D01*
X1505644Y1470722D01*
X1509811Y1477940D01*
X1511745Y1485157D01*
D02*
G37*
G36*
X1475315D02*
X1448884D01*
X1450819Y1477940D01*
X1454986Y1470722D01*
X1460879Y1464828D01*
X1468097Y1460661D01*
X1475315Y1458727D01*
Y1485157D01*
D02*
G37*
G36*
X3901044Y1483661D02*
X3894231D01*
X3887937Y1481054D01*
X3883119Y1476236D01*
X3880512Y1469942D01*
Y1463129D01*
X3883119Y1456834D01*
X3887937Y1452017D01*
X3894231Y1449409D01*
X3901044D01*
X3907339Y1452017D01*
X3912157Y1456834D01*
X3914764Y1463129D01*
Y1469942D01*
X3912157Y1476236D01*
X3907339Y1481054D01*
X3901044Y1483661D01*
D02*
G37*
G36*
X3467974D02*
X3461160D01*
X3454866Y1481054D01*
X3450048Y1476236D01*
X3447441Y1469942D01*
Y1463129D01*
X3450048Y1456834D01*
X3454866Y1452017D01*
X3461160Y1449409D01*
X3467974D01*
X3474268Y1452017D01*
X3479086Y1456834D01*
X3481693Y1463129D01*
Y1469942D01*
X3479086Y1476236D01*
X3474268Y1481054D01*
X3467974Y1483661D01*
D02*
G37*
G36*
X4962588Y1483268D02*
X4958672D01*
X4955055Y1481769D01*
X4952286Y1479001D01*
X4950787Y1475383D01*
Y1471467D01*
X4952286Y1467850D01*
X4952302Y1467833D01*
X4954680Y1464567D01*
X4952302Y1461301D01*
X4952286Y1461284D01*
X4950787Y1457667D01*
Y1453751D01*
X4952286Y1450133D01*
X4955055Y1447365D01*
X4958672Y1445866D01*
X4962588D01*
X4966205Y1447365D01*
X4968974Y1450133D01*
X4970472Y1453751D01*
Y1457667D01*
X4968974Y1461284D01*
X4968957Y1461301D01*
X4966580Y1464567D01*
X4968957Y1467833D01*
X4968974Y1467850D01*
X4970472Y1471467D01*
Y1475383D01*
X4968974Y1479001D01*
X4966205Y1481769D01*
X4962588Y1483268D01*
D02*
G37*
G36*
X3309044D02*
X3305129D01*
X3301511Y1481769D01*
X3298743Y1479001D01*
X3297244Y1475383D01*
Y1471467D01*
X3298743Y1467850D01*
X3298759Y1467833D01*
X3301137Y1464567D01*
X3298759Y1461301D01*
X3298743Y1461284D01*
X3297244Y1457667D01*
Y1453751D01*
X3298743Y1450133D01*
X3301511Y1447365D01*
X3305129Y1445866D01*
X3309044D01*
X3312662Y1447365D01*
X3315431Y1450133D01*
X3316929Y1453751D01*
Y1457667D01*
X3315431Y1461284D01*
X3315414Y1461301D01*
X3313036Y1464567D01*
X3315414Y1467833D01*
X3315431Y1467850D01*
X3316929Y1471467D01*
Y1475383D01*
X3315431Y1479001D01*
X3312662Y1481769D01*
X3309044Y1483268D01*
D02*
G37*
G36*
X4803150Y1490659D02*
X4797082Y1489452D01*
X4791938Y1486015D01*
X4788501Y1480871D01*
X4787294Y1474803D01*
Y1458268D01*
X4788501Y1452200D01*
X4791938Y1447056D01*
X4797082Y1443619D01*
X4803150Y1442412D01*
X4809217Y1443619D01*
X4814361Y1447056D01*
X4817798Y1452200D01*
X4819006Y1458268D01*
Y1474803D01*
X4817798Y1480871D01*
X4814361Y1486015D01*
X4809217Y1489452D01*
X4803150Y1490659D01*
D02*
G37*
G36*
X4370079D02*
X4364011Y1489452D01*
X4358867Y1486015D01*
X4355430Y1480871D01*
X4354223Y1474803D01*
Y1458268D01*
X4355430Y1452200D01*
X4358867Y1447056D01*
X4364011Y1443619D01*
X4370079Y1442412D01*
X4376146Y1443619D01*
X4381291Y1447056D01*
X4384728Y1452200D01*
X4385935Y1458268D01*
Y1474803D01*
X4384728Y1480871D01*
X4381291Y1486015D01*
X4376146Y1489452D01*
X4370079Y1490659D01*
D02*
G37*
G36*
X3189005Y1387992D02*
X3185011D01*
X3181321Y1386464D01*
X3178497Y1383640D01*
X3176968Y1379950D01*
Y1375956D01*
X3178497Y1372266D01*
X3181321Y1369442D01*
X3185011Y1367913D01*
X3189005D01*
X3192695Y1369442D01*
X3195519Y1372266D01*
X3197047Y1375956D01*
Y1379950D01*
X3195519Y1383640D01*
X3192695Y1386464D01*
X3189005Y1387992D01*
D02*
G37*
%LPD*%
D10*
X1559054Y2953150D02*
X1584647Y2927557D01*
Y2905512D02*
Y2927557D01*
X2543307Y2953150D02*
X2568899Y2927557D01*
Y2905512D02*
Y2927557D01*
X3527559Y2953150D02*
X3553151Y2927557D01*
Y2905512D02*
Y2927557D01*
X4708661Y2953150D02*
X4734254Y2927557D01*
Y2905512D02*
Y2927557D01*
X5692913Y2953150D02*
X5718506Y2927557D01*
Y2905512D02*
Y2927557D01*
X6702758Y2905512D02*
Y2927557D01*
X6677165Y2953150D02*
X6702758Y2927557D01*
D18*
X3800197Y2253937D02*
X3864961D01*
X3592520Y2461614D02*
X3800197Y2253937D01*
X2873032Y2461614D02*
X3592520D01*
X2608268Y2726377D02*
Y2905512D01*
Y2726377D02*
X2873032Y2461614D01*
X2509843Y2697834D02*
Y2905512D01*
Y2697834D02*
X2805118Y2402559D01*
X3574803D01*
X3821850Y2155512D02*
X3864961D01*
X3574803Y2402559D02*
X3821850Y2155512D01*
X4445866D02*
X4692913Y2402559D01*
X4402756Y2155512D02*
X4445866D01*
X4692913Y2402559D02*
X5462599D01*
X5757873Y2697834D01*
Y2905512D01*
X5394685Y2461614D02*
X5659448Y2726377D01*
Y2905512D01*
X4675197Y2461614D02*
X5394685D01*
X4467520Y2253937D02*
X4675197Y2461614D01*
X4402756Y2253937D02*
X4467520D01*
X4835827Y1663386D02*
X6557087D01*
X6585630Y1691929D02*
X6657677D01*
X6557087Y1663386D02*
X6585630Y1691929D01*
X6657677D02*
X6742126Y1607480D01*
X1610039Y1691929D02*
X1708661D01*
X1737205Y1663386D02*
X3431890D01*
X1708661Y1691929D02*
X1737205Y1663386D01*
X1525591Y1607480D02*
X1610039Y1691929D01*
X1638778Y2155512D02*
X3431889D01*
X1525589Y2268701D02*
Y2905512D01*
Y2268701D02*
X1638778Y2155512D01*
X1525589Y2905512D02*
Y2951180D01*
X1527558Y2953150D01*
X1624014Y2905512D02*
Y2951182D01*
X1622047Y2953150D02*
X1624014Y2951182D01*
Y2339568D02*
Y2905512D01*
Y2339568D02*
X1709644Y2253937D01*
X3431889D01*
X4835827D02*
X6558071D01*
X6643701Y2339568D01*
Y2905512D01*
Y2951182D02*
X6645669Y2953150D01*
X6643701Y2905512D02*
Y2951182D01*
X6740157Y2953150D02*
X6742127Y2951180D01*
Y2905512D02*
Y2951180D01*
X6628937Y2155512D02*
X6742127Y2268701D01*
Y2905512D01*
X4835827Y2155512D02*
X6628937D01*
X4835827Y1564961D02*
X4964567D01*
X4987205Y1542323D02*
X6431102D01*
X4964567Y1564961D02*
X4987205Y1542323D01*
X6431102D02*
X6496260Y1607480D01*
X6643701D01*
X1771457D02*
X1813976Y1564961D01*
X3431890D01*
X1624016Y1607480D02*
X1771457D01*
D20*
X3812992Y1708661D02*
D03*
Y1519685D02*
D03*
X3982284D02*
D03*
Y1708661D02*
D03*
X6598425Y1659449D02*
D03*
X6787402D02*
D03*
Y1490157D02*
D03*
X6598425D02*
D03*
X4718504Y1519685D02*
D03*
Y1708661D02*
D03*
X4887795D02*
D03*
Y1519685D02*
D03*
X4285433D02*
D03*
Y1708661D02*
D03*
X4454724D02*
D03*
Y1519685D02*
D03*
X4887795Y2299213D02*
D03*
Y2110236D02*
D03*
X4718504D02*
D03*
Y2299213D02*
D03*
X4285433Y2110236D02*
D03*
Y2299213D02*
D03*
X4454724D02*
D03*
Y2110236D02*
D03*
X3982284Y2299213D02*
D03*
Y2110236D02*
D03*
X3812992D02*
D03*
Y2299213D02*
D03*
X3379921Y2110236D02*
D03*
Y2299213D02*
D03*
X3549213D02*
D03*
Y2110236D02*
D03*
X1480315Y1659449D02*
D03*
X1669291D02*
D03*
Y1490157D02*
D03*
X1480315D02*
D03*
X3549213Y1708661D02*
D03*
Y1519685D02*
D03*
X3379921D02*
D03*
Y1708661D02*
D03*
D21*
X4834645Y2953150D02*
D03*
X4818897Y2980709D02*
D03*
X4787401D02*
D03*
X4771653Y2953150D02*
D03*
X4755905Y2980709D02*
D03*
X4740157Y2953150D02*
D03*
X4708661D02*
D03*
X4692913Y2980709D02*
D03*
X4677165Y2953150D02*
D03*
X4661417Y2980709D02*
D03*
X4629921D02*
D03*
X4614173Y2953150D02*
D03*
X6803149D02*
D03*
X6787401Y2980709D02*
D03*
X6755905D02*
D03*
X6740157Y2953150D02*
D03*
X6724409Y2980709D02*
D03*
X6708661Y2953150D02*
D03*
X6677165D02*
D03*
X6661417Y2980709D02*
D03*
X6645669Y2953150D02*
D03*
X6629921Y2980709D02*
D03*
X6598425D02*
D03*
X6582677Y2953150D02*
D03*
X5818897D02*
D03*
X5803149Y2980709D02*
D03*
X5771653D02*
D03*
X5755905Y2953150D02*
D03*
X5740157Y2980709D02*
D03*
X5724409Y2953150D02*
D03*
X5692913D02*
D03*
X5677165Y2980709D02*
D03*
X5661417Y2953150D02*
D03*
X5645669Y2980709D02*
D03*
X5614173D02*
D03*
X5598425Y2953150D02*
D03*
X3653543D02*
D03*
X3637795Y2980709D02*
D03*
X3606299D02*
D03*
X3590551Y2953150D02*
D03*
X3574803Y2980709D02*
D03*
X3559055Y2953150D02*
D03*
X3527559D02*
D03*
X3511810Y2980709D02*
D03*
X3496062Y2953150D02*
D03*
X3480314Y2980709D02*
D03*
X3448818D02*
D03*
X3433070Y2953150D02*
D03*
X2669291D02*
D03*
X2653543Y2980709D02*
D03*
X2622047D02*
D03*
X2606299Y2953150D02*
D03*
X2590551Y2980709D02*
D03*
X2574802Y2953150D02*
D03*
X2543307D02*
D03*
X2527558Y2980709D02*
D03*
X2511810Y2953150D02*
D03*
X2496062Y2980709D02*
D03*
X2464566D02*
D03*
X2448818Y2953150D02*
D03*
X1685039D02*
D03*
X1669291Y2980709D02*
D03*
X1637795D02*
D03*
X1622047Y2953150D02*
D03*
X1606299Y2980709D02*
D03*
X1590551Y2953150D02*
D03*
X1559054D02*
D03*
X1543306Y2980709D02*
D03*
X1527558Y2953150D02*
D03*
X1511810Y2980709D02*
D03*
X1480314D02*
D03*
X1464566Y2953150D02*
D03*
D22*
X4901181Y3149606D02*
D03*
X4547637D02*
D03*
X4561810Y2976378D02*
D03*
X4887007D02*
D03*
X6869685Y3149606D02*
D03*
X6516141D02*
D03*
X6530314Y2976378D02*
D03*
X6855511D02*
D03*
X5885432Y3149606D02*
D03*
X5531889D02*
D03*
X5546062Y2976378D02*
D03*
X5871259D02*
D03*
X3720078Y3149606D02*
D03*
X3366535D02*
D03*
X3380708Y2976378D02*
D03*
X3705905D02*
D03*
X2735826Y3149606D02*
D03*
X2382283D02*
D03*
X2396456Y2976378D02*
D03*
X2721653D02*
D03*
X1751574Y3149606D02*
D03*
X1398031D02*
D03*
X1412204Y2976378D02*
D03*
X1737401D02*
D03*
D23*
X3220472Y1741142D02*
D03*
X3864961Y2253937D02*
D03*
Y2155512D02*
D03*
X4402756D02*
D03*
Y2253937D02*
D03*
X4473425Y1644685D02*
D03*
X3775590Y1603347D02*
D03*
X4253937Y1584646D02*
D03*
X3980315Y1643701D02*
D03*
X4675197Y2905512D02*
D03*
X4773623D02*
D03*
X3494095D02*
D03*
X3592520D02*
D03*
X3431889Y2253937D02*
D03*
Y2155512D02*
D03*
X4835827D02*
D03*
Y2253937D02*
D03*
X6643701Y1607480D02*
D03*
X6742126D02*
D03*
X4835827Y1564961D02*
D03*
Y1663386D02*
D03*
X3431890D02*
D03*
Y1564961D02*
D03*
X1525591Y1607480D02*
D03*
X1624016D02*
D03*
X3930315Y1683071D02*
D03*
Y1702756D02*
D03*
Y1545276D02*
D03*
Y1525591D02*
D03*
X3533463Y2905512D02*
D03*
X3930315Y1624016D02*
D03*
Y1604331D02*
D03*
X3553150Y2905512D02*
D03*
X3474408D02*
D03*
X3454723D02*
D03*
X3631888D02*
D03*
X3612203D02*
D03*
X4655514D02*
D03*
X4635828D02*
D03*
X4812994D02*
D03*
X4793309D02*
D03*
X4714566D02*
D03*
X4337401Y1604331D02*
D03*
Y1624016D02*
D03*
X1584647Y2905512D02*
D03*
X2568899D02*
D03*
X4734254D02*
D03*
X5718506D02*
D03*
X6702758D02*
D03*
X6702756Y1542126D02*
D03*
X4770472Y1604331D02*
D03*
X4960630Y1759842D02*
D03*
Y1777559D02*
D03*
X4770472Y1702756D02*
D03*
Y1683071D02*
D03*
X4960630Y1455709D02*
D03*
Y1473425D02*
D03*
X4770472Y1545276D02*
D03*
Y1525591D02*
D03*
X6338583Y1594488D02*
D03*
Y1612205D02*
D03*
X6338583Y1703740D02*
D03*
Y1721457D02*
D03*
X6761811Y1542126D02*
D03*
X6781496D02*
D03*
X4770472Y1624016D02*
D03*
X6604331Y1542126D02*
D03*
X6624016D02*
D03*
X6683071D02*
D03*
X4337401Y1525591D02*
D03*
Y1545276D02*
D03*
Y1702756D02*
D03*
Y1683071D02*
D03*
X6128937Y1569882D02*
D03*
X4770472Y1584646D02*
D03*
X6722441Y1542126D02*
D03*
X6408465Y1643701D02*
D03*
X1584646Y1542126D02*
D03*
X1564961D02*
D03*
X1643701D02*
D03*
X1663386D02*
D03*
X3497244Y1604331D02*
D03*
Y1624016D02*
D03*
X3187008Y1377953D02*
D03*
X3431890Y1584646D02*
D03*
X3497244Y1643701D02*
D03*
Y1525591D02*
D03*
Y1545276D02*
D03*
X3307087Y1473425D02*
D03*
Y1455709D02*
D03*
X3497244Y1683071D02*
D03*
Y1702756D02*
D03*
X3307087Y1777559D02*
D03*
Y1759842D02*
D03*
X1486220Y1542126D02*
D03*
X1505906D02*
D03*
X1929134Y1721457D02*
D03*
Y1703740D02*
D03*
X1929134Y1612205D02*
D03*
Y1594488D02*
D03*
X2529527Y2905512D02*
D03*
X3930315Y2116142D02*
D03*
Y2135827D02*
D03*
Y2273622D02*
D03*
Y2293307D02*
D03*
X2608268Y2905512D02*
D03*
X2509843D02*
D03*
X3930315Y2194882D02*
D03*
Y2214567D02*
D03*
X5679133Y2905512D02*
D03*
X6663385D02*
D03*
X4835827Y2194882D02*
D03*
X6643701Y2905512D02*
D03*
X6742127D02*
D03*
X4835827Y2214567D02*
D03*
Y2135827D02*
D03*
Y2116142D02*
D03*
Y2273622D02*
D03*
Y2293307D02*
D03*
X4337401Y2214567D02*
D03*
Y2194882D02*
D03*
X5757873Y2905512D02*
D03*
X5659448D02*
D03*
X4337401Y2293307D02*
D03*
Y2273622D02*
D03*
Y2135827D02*
D03*
Y2116142D02*
D03*
X1545275Y2905512D02*
D03*
X1624015D02*
D03*
X1525590D02*
D03*
X3431890Y2214567D02*
D03*
Y2194882D02*
D03*
Y2135827D02*
D03*
Y2116142D02*
D03*
Y2273622D02*
D03*
Y2293307D02*
D03*
D24*
X4712657Y2630287D02*
G03*
X4712657Y2619736I5275J-5276D01*
G01*
X4717806Y2604037D02*
G03*
X4717806Y2614587I-5276J5275D01*
G01*
X4707255Y2604037D02*
G03*
X4717806Y2604037I5275J5275D01*
G01*
X4702106Y2609185D02*
G03*
X4691555Y2609185I-5275J-5275D01*
G01*
X4691555Y2609185D02*
G03*
X4691555Y2598634I5275J-5275D01*
G01*
X4698882Y2580756D02*
G03*
X4698882Y2591307I-5276J5275D01*
G01*
X4688332Y2580756D02*
G03*
X4698882Y2580756I5275J5275D01*
G01*
X4681004Y2588084D02*
G03*
X4670453Y2588084I-5275J-5276D01*
G01*
X3576857Y2597939D02*
G03*
X3576857Y2608490I-5276J5275D01*
G01*
X3576856Y2597938D02*
G03*
X3576856Y2587387I5276J-5275D01*
G01*
X3576857Y2587387D02*
G03*
X3587407Y2587387I5275J5275D01*
G01*
X3597959Y2587388D02*
G03*
X3587408Y2587388I-5275J-5276D01*
G01*
X3585898Y2615873D02*
G03*
X3596449Y2615873I5275J5276D01*
G01*
X3613804Y2622678D02*
G03*
X3603253Y2622677I-5275J-5276D01*
G01*
X3613804Y2612127D02*
G03*
X3613804Y2622677I-5275J5275D01*
G01*
X3607000Y2605323D02*
G03*
X3607000Y2594772I5276J-5275D01*
G01*
X3451298Y2830823D02*
G03*
X3470372Y2849898I0J19075D01*
G01*
X3403027Y2830823D02*
G03*
X3403027Y2815902I0J-7461D01*
G01*
X3462608Y2777753D02*
G03*
X3462608Y2815902I0J19075D01*
G01*
X3398076Y2777753D02*
G03*
X3398076Y2762831I0J-7461D01*
G01*
X3462608Y2724682D02*
G03*
X3462608Y2762831I0J19075D01*
G01*
X3398076Y2724682D02*
G03*
X3398076Y2709761I0J-7461D01*
G01*
X3462608Y2671611D02*
G03*
X3462608Y2709761I0J19075D01*
G01*
X3398076Y2671611D02*
G03*
X3398076Y2656690I0J-7461D01*
G01*
X3470372Y2637615D02*
G03*
X3451298Y2656690I-19075J0D01*
G01*
Y2842438D02*
G03*
X3458758Y2849898I0J7461D01*
G01*
X3403027Y2842438D02*
G03*
X3403027Y2804288I0J-19075D01*
G01*
X3462608Y2789367D02*
G03*
X3462608Y2804288I0J7461D01*
G01*
X3398076Y2789367D02*
G03*
X3398076Y2751217I0J-19075D01*
G01*
X3462608Y2736296D02*
G03*
X3462608Y2751217I0J7461D01*
G01*
X3398076Y2736296D02*
G03*
X3398076Y2698146I0J-19075D01*
G01*
X3462608Y2683225D02*
G03*
X3462608Y2698146I0J7461D01*
G01*
X3398076Y2683225D02*
G03*
X3398076Y2645076I0J-19075D01*
G01*
X3458758Y2637615D02*
G03*
X3451298Y2645076I-7461J0D01*
G01*
X3549114Y2845565D02*
G03*
X3556574Y2838105I7461J0D01*
G01*
X3560670Y2799955D02*
G03*
X3560670Y2838105I0J19075D01*
G01*
X3528143Y2799955D02*
G03*
X3528143Y2785034I0J-7461D01*
G01*
X3563936Y2746884D02*
G03*
X3563936Y2785034I0J19075D01*
G01*
X3528143Y2746884D02*
G03*
X3528143Y2731963I0J-7461D01*
G01*
X3563936Y2693814D02*
G03*
X3563936Y2731963I0J19075D01*
G01*
X3528143Y2693814D02*
G03*
X3528143Y2678892I0J-7461D01*
G01*
X3549114Y2659818D02*
G03*
X3530039Y2678892I-19075J0D01*
G01*
X3537499Y2845565D02*
G03*
X3556574Y2826490I19075J0D01*
G01*
X3560670Y2811569D02*
G03*
X3560670Y2826490I0J7461D01*
G01*
X3528143Y2811569D02*
G03*
X3528143Y2773420I0J-19075D01*
G01*
X3563936Y2758499D02*
G03*
X3563936Y2773420I0J7461D01*
G01*
X3528143Y2758499D02*
G03*
X3528143Y2720349I0J-19075D01*
G01*
X3563936Y2705428D02*
G03*
X3563936Y2720349I0J7461D01*
G01*
X3528143Y2705428D02*
G03*
X3528143Y2667278I0J-19075D01*
G01*
X3537499Y2659818D02*
G03*
X3530039Y2667278I-7461J0D01*
G01*
X4790960Y2540283D02*
G03*
X4790959Y2529732I5275J-5276D01*
G01*
X4791740Y2518400D02*
G03*
X4791740Y2528951I-5276J5275D01*
G01*
X4781190Y2518400D02*
G03*
X4791740Y2518400I5275J5275D01*
G01*
X4780409Y2519181D02*
G03*
X4769858Y2519181I-5275J-5276D01*
G01*
X4634531Y2668303D02*
G03*
X4634531Y2657752I5275J-5276D01*
G01*
X4635312Y2646420D02*
G03*
X4635312Y2656971I-5276J5275D01*
G01*
X4624761Y2646420D02*
G03*
X4635312Y2646420I5275J5275D01*
G01*
X4623980Y2647201D02*
G03*
X4613430Y2647201I-5275J-5276D01*
G01*
X3472455Y2534034D02*
G03*
X3472455Y2544584I-5275J5275D01*
G01*
X3471674Y2533253D02*
G03*
X3471674Y2522702I5276J-5275D01*
G01*
X3471675Y2522702D02*
G03*
X3482225Y2522702I5275J5275D01*
G01*
X3493557Y2523483D02*
G03*
X3483006Y2523483I-5275J-5276D01*
G01*
X3630989Y2659948D02*
G03*
X3630989Y2670499I-5275J5275D01*
G01*
X3630209Y2659167D02*
G03*
X3630209Y2648616I5276J-5275D01*
G01*
X3630209Y2648616D02*
G03*
X3640760Y2648616I5275J5275D01*
G01*
X3652091Y2649397D02*
G03*
X3641540Y2649397I-5275J-5276D01*
G01*
X4711142Y2850406D02*
G03*
X4730217Y2869481I0J19075D01*
G01*
X4711141Y2850406D02*
G03*
X4711141Y2835485I0J-7461D01*
G01*
X4724411Y2797335D02*
G03*
X4724411Y2835485I0J19075D01*
G01*
X4720331Y2797335D02*
G03*
X4720331Y2782414I0J-7461D01*
G01*
X4735883Y2744265D02*
G03*
X4735883Y2782414I0J19075D01*
G01*
X4708845Y2744265D02*
G03*
X4708845Y2729343I0J-7461D01*
G01*
X4730217Y2710269D02*
G03*
X4711142Y2729343I-19075J0D01*
G01*
Y2862020D02*
G03*
X4718603Y2869481I0J7461D01*
G01*
X4711141Y2862020D02*
G03*
X4711141Y2823871I0J-19075D01*
G01*
X4724411Y2808950D02*
G03*
X4724411Y2823871I0J7461D01*
G01*
X4720331Y2808950D02*
G03*
X4720331Y2770800I0J-19075D01*
G01*
X4735883Y2755879D02*
G03*
X4735883Y2770800I0J7461D01*
G01*
X4708845Y2755879D02*
G03*
X4708845Y2717729I0J-19075D01*
G01*
X4718603Y2710269D02*
G03*
X4711142Y2717729I-7461J0D01*
G01*
X4632403Y2847458D02*
G03*
X4651478Y2866533I0J19075D01*
G01*
X4558781Y2847458D02*
G03*
X4558781Y2832537I0J-7461D01*
G01*
X4645529Y2794387D02*
G03*
X4645529Y2832537I0J19075D01*
G01*
X4553670Y2794387D02*
G03*
X4553670Y2779466I0J-7461D01*
G01*
X4651478Y2760391D02*
G03*
X4632403Y2779466I-19075J0D01*
G01*
Y2859072D02*
G03*
X4639864Y2866533I0J7461D01*
G01*
X4558781Y2859072D02*
G03*
X4558781Y2820923I0J-19075D01*
G01*
X4645529Y2806001D02*
G03*
X4645529Y2820923I0J7461D01*
G01*
X4553670Y2806001D02*
G03*
X4553670Y2767852I0J-19075D01*
G01*
X4639864Y2760391D02*
G03*
X4632403Y2767852I-7461J0D01*
G01*
X4808958Y2870008D02*
G03*
X4816419Y2862547I7461J0D01*
G01*
X4854974Y2824398D02*
G03*
X4854974Y2862547I0J19075D01*
G01*
X4804967Y2824398D02*
G03*
X4804967Y2809476I0J-7461D01*
G01*
X4854974Y2771327D02*
G03*
X4854974Y2809476I0J19075D01*
G01*
X4804967Y2771327D02*
G03*
X4804967Y2756405I0J-7461D01*
G01*
X4854974Y2718256D02*
G03*
X4854974Y2756405I0J19075D01*
G01*
X4804967Y2718256D02*
G03*
X4804967Y2703335I0J-7461D01*
G01*
X4854974Y2665185D02*
G03*
X4854974Y2703335I0J19075D01*
G01*
X4816419Y2665185D02*
G03*
X4808958Y2657724I0J-7461D01*
G01*
X4797344Y2870008D02*
G03*
X4816419Y2850933I19075J0D01*
G01*
X4854974Y2836012D02*
G03*
X4854974Y2850933I0J7461D01*
G01*
X4804967Y2836012D02*
G03*
X4804967Y2797862I0J-19075D01*
G01*
X4854974Y2782941D02*
G03*
X4854974Y2797862I0J7461D01*
G01*
X4804967Y2782941D02*
G03*
X4804967Y2744791I0J-19075D01*
G01*
X4854974Y2729870D02*
G03*
X4854974Y2744791I0J7461D01*
G01*
X4804967Y2729870D02*
G03*
X4804967Y2691720I0J-19075D01*
G01*
X4854974Y2676799D02*
G03*
X4854974Y2691720I0J7461D01*
G01*
X4816419Y2676799D02*
G03*
X4797344Y2657724I0J-19075D01*
G01*
X3627852Y2868490D02*
G03*
X3635313Y2861030I7461J0D01*
G01*
X3737234Y2822880D02*
G03*
X3737234Y2861030I0J19075D01*
G01*
X3624064Y2822880D02*
G03*
X3624064Y2807959I0J-7461D01*
G01*
X3740718Y2769809D02*
G03*
X3740718Y2807959I0J19075D01*
G01*
X3635313Y2769809D02*
G03*
X3627852Y2762349I0J-7461D01*
G01*
X3616238Y2868490D02*
G03*
X3635313Y2849416I19075J0D01*
G01*
X3737234Y2834494D02*
G03*
X3737234Y2849416I0J7461D01*
G01*
X3624064Y2834494D02*
G03*
X3624064Y2796345I0J-19075D01*
G01*
X3740718Y2781424D02*
G03*
X3740718Y2796345I0J7461D01*
G01*
X3635313Y2781424D02*
G03*
X3616238Y2762349I0J-19075D01*
G01*
X4712657Y2630287D02*
X4730217Y2647847D01*
X4712657Y2619736D02*
X4712657Y2619736D01*
X4717806Y2614587D01*
X4717806Y2604037D02*
X4717806Y2604037D01*
X4702106Y2609185D02*
X4707255Y2604036D01*
X4702106Y2609185D02*
X4702106Y2609185D01*
X4691555Y2609185D02*
X4691555Y2609185D01*
X4691555Y2598634D02*
X4691555Y2598634D01*
X4698882Y2591307D01*
X4698882Y2591307D02*
X4698882Y2591307D01*
X4698882Y2580756D02*
X4698882Y2580756D01*
X4688331Y2580756D02*
X4688332Y2580756D01*
X4681004Y2588084D02*
X4688332Y2580756D01*
X4681004Y2588084D02*
X4681004Y2588084D01*
X4658162Y2575792D02*
X4670453Y2588084D01*
X3543556Y2641790D02*
X3545296Y2640050D01*
X3576857Y2608490D01*
X3576857Y2608489D02*
X3576857Y2608490D01*
X3576856Y2597938D02*
X3576857Y2597939D01*
X3576856Y2587387D02*
X3576856Y2587387D01*
X3576857Y2587387D01*
X3576856Y2587387D02*
X3576857Y2587387D01*
X3587407D02*
X3587408Y2587388D01*
X3597959Y2587388D02*
X3597959Y2587388D01*
X3597959Y2587387D01*
Y2587387D02*
X3599699Y2585648D01*
X3557445Y2644326D02*
X3559185Y2642586D01*
X3585898Y2615873D01*
X3596449D02*
X3603253Y2622677D01*
X3613804Y2622678D02*
X3613804Y2622677D01*
X3607000Y2605323D02*
X3613804Y2612127D01*
X3607000Y2594772D02*
X3617551Y2584220D01*
Y2584220D02*
X3619291Y2582481D01*
X3470372Y2849898D02*
Y2893050D01*
X3403027Y2830823D02*
X3451298D01*
X3403027Y2815902D02*
X3462608D01*
X3398076Y2777753D02*
X3462608D01*
X3398076Y2762831D02*
X3462608D01*
X3398076Y2724682D02*
X3462608D01*
X3398076Y2709761D02*
X3462608D01*
X3398076Y2671611D02*
X3462608D01*
X3398076Y2656690D02*
X3451298D01*
X3470372Y2629347D02*
Y2637615D01*
X3458758Y2849898D02*
Y2893050D01*
X3403027Y2842438D02*
X3451298D01*
X3403027Y2804288D02*
X3462608D01*
X3398076Y2789367D02*
X3462608D01*
X3398076Y2751217D02*
X3462608D01*
X3398076Y2736296D02*
X3462608D01*
X3398076Y2698146D02*
X3462608D01*
X3398076Y2683225D02*
X3462608D01*
X3398076Y2645076D02*
X3451298D01*
X3458758Y2629347D02*
Y2637615D01*
X3549114Y2845565D02*
Y2897869D01*
X3556574Y2838105D02*
X3560670D01*
X3528143Y2799955D02*
X3560670D01*
X3528143Y2785034D02*
X3563936D01*
X3528143Y2746884D02*
X3563936D01*
X3528143Y2731963D02*
X3563936D01*
X3528143Y2693814D02*
X3563936D01*
X3528143Y2678892D02*
X3530039D01*
X3549114Y2652658D02*
Y2659818D01*
Y2652658D02*
X3550222Y2651549D01*
X3537499Y2845565D02*
Y2897869D01*
X3556574Y2826490D02*
X3560670D01*
X3528143Y2811569D02*
X3560670D01*
X3528143Y2773420D02*
X3563936D01*
X3528143Y2758499D02*
X3563936D01*
X3528143Y2720349D02*
X3563936D01*
X3528143Y2705428D02*
X3563936D01*
X3528143Y2667278D02*
X3530039D01*
X3537499Y2651549D02*
Y2659818D01*
Y2647847D02*
Y2651549D01*
Y2647847D02*
X3543557Y2641790D01*
X3549114Y2897869D02*
Y2899611D01*
X3537499Y2897869D02*
Y2899611D01*
X3550222Y2651549D02*
X3557445Y2644326D01*
X3599699Y2585648D02*
X3620386Y2564961D01*
X3619291Y2582481D02*
X3625197Y2576575D01*
X4647330Y2564961D02*
X4658162Y2575792D01*
X4324803Y2564961D02*
X4647330D01*
X4730217Y2647847D02*
Y2702000D01*
X4790960Y2540283D02*
X4801480Y2550803D01*
X4790959Y2529732D02*
X4790959Y2529732D01*
X4791740Y2528951D01*
Y2518400D02*
X4791740Y2518400D01*
X4780409Y2519181D02*
X4781190Y2518400D01*
X4780409Y2519181D02*
X4780409Y2519181D01*
X4757567Y2506890D02*
X4769858Y2519181D01*
X4801480Y2550803D02*
X4808958Y2558282D01*
X4634531Y2668303D02*
X4644062Y2677834D01*
X4634531Y2657752D02*
X4634531Y2657752D01*
X4635312Y2656971D01*
Y2646420D02*
X4635312Y2646420D01*
X4623980Y2647201D02*
X4624761Y2646420D01*
X4623980Y2647201D02*
X4623980Y2647201D01*
X4601138Y2634910D02*
X4613430Y2647201D01*
X4644062Y2677834D02*
X4651478Y2685250D01*
X4593197Y2626969D02*
X4601138Y2634910D01*
X3495297Y2521742D02*
X3510150Y2506890D01*
X3464993Y2552047D02*
X3466733Y2550307D01*
X3472455Y2544584D01*
X3471674Y2533253D02*
X3472455Y2534034D01*
X3471674Y2522702D02*
X3471674Y2522702D01*
X3471675Y2522702D01*
X3471674Y2522702D02*
X3471675Y2522702D01*
X3482225D02*
X3483006Y2523483D01*
X3493557Y2523483D02*
X3493557Y2523483D01*
X3493557Y2523482D01*
Y2523482D02*
X3495297Y2521742D01*
X3458758Y2558282D02*
X3464993Y2552047D01*
X3623200Y2678288D02*
X3624940Y2676548D01*
X3630989Y2670499D01*
X3630209Y2659167D02*
X3630989Y2659948D01*
X3630208Y2648616D02*
X3630209Y2648616D01*
X3630209Y2648616D01*
X3630209Y2648616D02*
X3630209Y2648616D01*
X3640760D02*
X3641540Y2649397D01*
X3652091Y2649397D02*
X3652091Y2649397D01*
X3652091Y2649397D01*
Y2649397D02*
X3653831Y2647657D01*
X3616238Y2685250D02*
X3623200Y2678288D01*
X3653831Y2647657D02*
X3674520Y2626969D01*
X3458758Y2558282D02*
Y2629347D01*
X3616238Y2685250D02*
Y2727545D01*
X3679330Y2638583D02*
X3984141D01*
X3627852Y2690061D02*
X3679330Y2638583D01*
X4718603Y2652658D02*
Y2702000D01*
X4730217Y2869481D02*
Y2898471D01*
X4711141Y2850406D02*
X4711142D01*
X4711141Y2835485D02*
X4724411D01*
X4720331Y2797335D02*
X4724411D01*
X4720331Y2782414D02*
X4735883D01*
X4708845Y2744265D02*
X4735883D01*
X4708845Y2729343D02*
X4711142D01*
X4730217Y2702000D02*
Y2710269D01*
X4718603Y2869481D02*
Y2898471D01*
X4711141Y2862020D02*
X4711142D01*
X4711141Y2823871D02*
X4724411D01*
X4720331Y2808950D02*
X4724411D01*
X4720331Y2770800D02*
X4735883D01*
X4708845Y2755879D02*
X4735883D01*
X4708845Y2717729D02*
X4711142D01*
X4718603Y2702000D02*
Y2710269D01*
X4730217Y2898471D02*
Y2899611D01*
X4718603Y2898471D02*
Y2899611D01*
X4651478Y2685250D02*
Y2752123D01*
X4639864Y2690061D02*
Y2752123D01*
X4651478Y2866533D02*
Y2890447D01*
X4558781Y2847458D02*
X4632403D01*
X4558781Y2832537D02*
X4645529D01*
X4553670Y2794387D02*
X4645529D01*
X4553670Y2779466D02*
X4632403D01*
X4651478Y2752123D02*
Y2760391D01*
X4639864Y2866533D02*
Y2890447D01*
X4558781Y2859072D02*
X4632403D01*
X4558781Y2820923D02*
X4645529D01*
X4553670Y2806001D02*
X4645529D01*
X4553670Y2767852D02*
X4632403D01*
X4639864Y2752123D02*
Y2760391D01*
X4651478Y2890447D02*
Y2899612D01*
X4639864Y2890447D02*
Y2899612D01*
X4185347Y1575787D02*
X4213398Y1547736D01*
X4808958Y2558282D02*
Y2622921D01*
X4797344Y2563092D02*
Y2622921D01*
X4808958Y2870008D02*
Y2896912D01*
X4816419Y2862547D02*
X4854974D01*
X4804967Y2824398D02*
X4854974D01*
X4804967Y2809476D02*
X4854974D01*
X4804967Y2771327D02*
X4854974D01*
X4804967Y2756405D02*
X4854974D01*
X4804967Y2718256D02*
X4854974D01*
X4804967Y2703335D02*
X4854974D01*
X4816419Y2665185D02*
X4854974D01*
X4808958Y2622921D02*
Y2657724D01*
X4797344Y2870008D02*
Y2896912D01*
X4816419Y2850933D02*
X4854974D01*
X4804967Y2836012D02*
X4854974D01*
X4804967Y2797862D02*
X4854974D01*
X4804967Y2782941D02*
X4854974D01*
X4804967Y2744791D02*
X4854974D01*
X4804967Y2729870D02*
X4854974D01*
X4804967Y2691720D02*
X4854974D01*
X4816419Y2676799D02*
X4854974D01*
X4797344Y2622921D02*
Y2657724D01*
X4808958Y2896912D02*
Y2899612D01*
X4797344Y2896912D02*
Y2899612D01*
X3627852Y2690061D02*
Y2727545D01*
Y2868490D02*
Y2897972D01*
X3635313Y2861030D02*
X3737234D01*
X3624064Y2822880D02*
X3737234D01*
X3624064Y2807959D02*
X3740718D01*
X3635313Y2769809D02*
X3740718D01*
X3627852Y2727545D02*
Y2762349D01*
X3616238Y2868490D02*
Y2897972D01*
X3635313Y2849416D02*
X3737234D01*
X3624064Y2834494D02*
X3737234D01*
X3624064Y2796345D02*
X3740718D01*
X3635313Y2781424D02*
X3740718D01*
X3616238Y2727545D02*
Y2762349D01*
X3627852Y2897972D02*
Y2899612D01*
X3616238Y2897972D02*
Y2899612D01*
X3470372Y2563092D02*
Y2629347D01*
Y2893050D02*
Y2899612D01*
X3458758Y2893050D02*
Y2899612D01*
X3930315Y1683071D02*
X3932179D01*
Y1702756D02*
X3936215Y1698720D01*
X3970664Y1680610D02*
X3993903D01*
X3952554Y1698720D02*
X3970664Y1680610D01*
X3930315Y1702756D02*
X3932179D01*
X3936215Y1698720D02*
X3952554D01*
X3932179Y1683071D02*
X3936215Y1687106D01*
X3947744D01*
X3965854Y1668996D02*
X3998713D01*
X3947744Y1687106D02*
X3965854Y1668996D01*
X3510150Y2506890D02*
X3891843D01*
X3514961Y2518504D02*
X3896653D01*
X3470372Y2563092D02*
X3514961Y2518504D01*
X3470372Y2899612D02*
X3474408Y2903648D01*
X3454723D02*
X3458758Y2899612D01*
X3474408Y2903648D02*
Y2905512D01*
X3454723Y2903648D02*
Y2905512D01*
X3932179Y1624016D02*
X3936215Y1619980D01*
X3932179Y1604331D02*
X3936215Y1608366D01*
X4004712D01*
X3930315Y1604331D02*
X3932179D01*
X3936215Y1619980D02*
X3999902D01*
X3930315Y1624016D02*
X3932179D01*
X3620386Y2564961D02*
X3942913D01*
X3625197Y2576575D02*
X3947724D01*
X3533463Y2903648D02*
Y2905512D01*
X3553150Y2903648D02*
Y2905512D01*
X3533463Y2903648D02*
X3537499Y2899611D01*
X3549114D02*
X3553150Y2903648D01*
X3932179Y1525591D02*
X3936215Y1529626D01*
X3930315Y1525591D02*
X3932179D01*
X3936215Y1529626D02*
X3952554D01*
X3970664Y1547736D01*
X4054319D01*
X3930315Y1545276D02*
X3932179D01*
X3936215Y1541240D01*
X3947744D01*
X3965854Y1559350D01*
X4049508D01*
X4082370Y1575787D02*
Y1575787D01*
X4054319Y1547736D02*
X4082370Y1575787D01*
X3674520Y2626969D02*
X3979331D01*
X3631888Y2903648D02*
Y2905512D01*
X3627852Y2899612D02*
X3631888Y2903648D01*
X3612203D02*
Y2905512D01*
Y2903648D02*
X3616238Y2899612D01*
X3896653Y2518504D02*
X4023622Y2391535D01*
X4012008Y1698715D02*
Y2386725D01*
X4023622Y1693905D02*
Y2391535D01*
X3998713Y1668996D02*
X4023622Y1693905D01*
X3891843Y2506890D02*
X4012008Y2386725D01*
X3993903Y1680610D02*
X4012008Y1698715D01*
X4048764Y1668842D02*
Y2459110D01*
X3947724Y2576575D02*
X4060378Y2463921D01*
X4004712Y1608366D02*
X4060378Y1664032D01*
Y2463921D01*
X3999902Y1619980D02*
X4048764Y1668842D01*
X3942913Y2564961D02*
X4048764Y2459110D01*
X4082370Y1575787D02*
X4100394Y1593811D01*
X4049508Y1559350D02*
X4088780Y1598622D01*
X3979331Y2626969D02*
X4088780Y2517520D01*
Y1598622D02*
Y2517520D01*
X4100394Y1593811D02*
Y2522331D01*
X3984141Y2638583D02*
X4100394Y2522331D01*
X4167323D02*
X4283575Y2638583D01*
X4167323Y1593811D02*
Y2522331D01*
X4178937Y1598622D02*
Y2517520D01*
X4288386Y2626969D01*
X4178937Y1598622D02*
X4218209Y1559350D01*
X4167323Y1593811D02*
X4185347Y1575787D01*
X4218953Y2459110D02*
X4324803Y2564961D01*
X4218953Y1668842D02*
X4267815Y1619980D01*
X4207339Y1664032D02*
Y2463921D01*
Y1664032D02*
X4263004Y1608366D01*
X4207339Y2463921D02*
X4319993Y2576575D01*
X4218953Y1668842D02*
Y2459110D01*
X4255709Y1698715D02*
X4273814Y1680610D01*
X4255709Y2386725D02*
X4375874Y2506890D01*
X4244095Y1693905D02*
X4269003Y1668996D01*
X4244095Y1693905D02*
Y2391535D01*
X4255709Y1698715D02*
Y2386725D01*
X4244095Y2391535D02*
X4371063Y2518504D01*
X4651478Y2899612D02*
X4655514Y2903648D01*
Y2905512D01*
X4588386Y2638583D02*
X4639864Y2690061D01*
X4635828Y2903648D02*
X4639864Y2899612D01*
X4635828Y2903648D02*
Y2905512D01*
X4288386Y2626969D02*
X4593197D01*
X4283575Y2638583D02*
X4588386D01*
X4185347Y1575787D02*
Y1575787D01*
X4218209Y1559350D02*
X4301863D01*
X4319973Y1541240D01*
X4331502D01*
X4335537Y1545276D01*
X4337401D01*
X4213398Y1547736D02*
X4297052D01*
X4315162Y1529626D01*
X4331502D01*
X4335537Y1525591D02*
X4337401D01*
X4331502Y1529626D02*
X4335537Y1525591D01*
X4642520Y2576575D02*
X4718603Y2652658D01*
X4714566Y2903648D02*
X4718603Y2899611D01*
X4730217D02*
X4734254Y2903648D01*
X4714566D02*
Y2905512D01*
X4734254Y2903648D02*
Y2905512D01*
X4319993Y2576575D02*
X4642520D01*
X4335537Y1624016D02*
X4337401D01*
X4267815Y1619980D02*
X4331502D01*
X4335537Y1604331D02*
X4337401D01*
X4263004Y1608366D02*
X4331502D01*
X4335537Y1604331D01*
X4331502Y1619980D02*
X4335537Y1624016D01*
X4812994Y2903648D02*
Y2905512D01*
X4793309Y2903648D02*
Y2905512D01*
X4808958Y2899612D02*
X4812994Y2903648D01*
X4793309D02*
X4797344Y2899612D01*
X4752756Y2518504D02*
X4797344Y2563092D01*
X4371063Y2518504D02*
X4752756D01*
X4375874Y2506890D02*
X4757567D01*
X4301863Y1668996D02*
X4319973Y1687106D01*
X4269003Y1668996D02*
X4301863D01*
X4319973Y1687106D02*
X4331502D01*
X4335537Y1683071D01*
X4315162Y1698720D02*
X4331502D01*
X4335537Y1702756D02*
X4337401D01*
X4297052Y1680610D02*
X4315162Y1698720D01*
X4273814Y1680610D02*
X4297052D01*
X4331502Y1698720D02*
X4335537Y1702756D01*
Y1683071D02*
X4337401D01*
%TF.MD5,63cadb6d0de6381baba5264d69328d89*%
M02*
