%TF.GenerationSoftware,Altium Limited,Altium Designer,22.5.1 (42)*%
G04 Layer_Color=2752767*
%FSLAX26Y26*%
%MOIN*%
%TF.SameCoordinates,16E36816-DCA1-4F18-AD40-64303467345E*%
%TF.FilePolarity,Positive*%
%TF.FileFunction,Drawing*%
%TF.Part,Single*%
G01*
G75*
%TA.AperFunction,NonConductor*%
%ADD59C,0.005000*%
D59*
X3513463Y2905512D02*
X3533463Y2925512D01*
X3553463Y2905512D01*
X3533463Y2885512D01*
X3513463Y2905512D01*
X3533150D02*
X3553150Y2925512D01*
X3573150Y2905512D01*
X3553150Y2885512D01*
X3533150Y2905512D01*
X3454408D02*
X3474408Y2925512D01*
X3494408Y2905512D01*
X3474408Y2885512D01*
X3454408Y2905512D01*
X3434723D02*
X3454723Y2925512D01*
X3474723Y2905512D01*
X3454723Y2885512D01*
X3434723Y2905512D01*
X3611888D02*
X3631888Y2925512D01*
X3651888Y2905512D01*
X3631888Y2885512D01*
X3611888Y2905512D01*
X3592203D02*
X3612203Y2925512D01*
X3632203Y2905512D01*
X3612203Y2885512D01*
X3592203Y2905512D01*
X4635514D02*
X4655514Y2925512D01*
X4675514Y2905512D01*
X4655514Y2885512D01*
X4635514Y2905512D01*
X4615828D02*
X4635828Y2925512D01*
X4655828Y2905512D01*
X4635828Y2885512D01*
X4615828Y2905512D01*
X4792994D02*
X4812994Y2925512D01*
X4832994Y2905512D01*
X4812994Y2885512D01*
X4792994Y2905512D01*
X4773309D02*
X4793309Y2925512D01*
X4813309Y2905512D01*
X4793309Y2885512D01*
X4773309Y2905512D01*
X4694566D02*
X4714566Y2925512D01*
X4734566Y2905512D01*
X4714566Y2885512D01*
X4694566Y2905512D01*
X1564647D02*
X1584647Y2925512D01*
X1604647Y2905512D01*
X1584647Y2885512D01*
X1564647Y2905512D01*
X2548899D02*
X2568899Y2925512D01*
X2588899Y2905512D01*
X2568899Y2885512D01*
X2548899Y2905512D01*
X4714254D02*
X4734254Y2925512D01*
X4754254Y2905512D01*
X4734254Y2885512D01*
X4714254Y2905512D01*
X5698506D02*
X5718506Y2925512D01*
X5738506Y2905512D01*
X5718506Y2885512D01*
X5698506Y2905512D01*
X6682758D02*
X6702758Y2925512D01*
X6722758Y2905512D01*
X6702758Y2885512D01*
X6682758Y2905512D01*
%TF.MD5,2f5fe19444378ec91e3dd33d707b89eb*%
M02*
