%TF.GenerationSoftware,Altium Limited,Altium Designer,22.2.1 (43)*%
G04 Layer_Physical_Order=4*
G04 Layer_Color=16776960*
%FSLAX26Y26*%
%MOIN*%
%TF.SameCoordinates,D552E928-BF45-442C-827F-4CC0F3A717A5*%
%TF.FilePolarity,Positive*%
%TF.FileFunction,Copper,L4,Inr,Signal*%
%TF.Part,Single*%
G01*
G75*
%TA.AperFunction,ComponentPad*%
%ADD67C,0.082677*%
%ADD68C,0.055118*%
%ADD69C,0.236220*%
%ADD70R,0.078740X0.078740*%
%ADD71C,0.078740*%
%ADD72C,0.060000*%
%ADD73O,0.106299X0.066929*%
%ADD74O,0.055118X0.106299*%
%ADD75C,0.102362*%
%ADD76C,0.062992*%
%ADD77C,0.066929*%
%ADD78O,0.070866X0.039370*%
%ADD79O,0.086614X0.039370*%
%ADD80C,0.043307*%
%TA.AperFunction,ViaPad*%
%ADD81C,0.027559*%
%ADD82C,0.017716*%
%ADD83C,0.039370*%
%ADD84C,0.015748*%
%ADD85C,0.019685*%
%ADD86C,0.050000*%
G36*
X6092167Y5358325D02*
X6087167Y5356627D01*
X6084164Y5360542D01*
X6077963Y5365300D01*
X6070742Y5368291D01*
X6062992Y5369311D01*
X6044370D01*
Y5339370D01*
Y5309429D01*
X6062992D01*
X6070742Y5310449D01*
X6077963Y5313440D01*
X6084164Y5318198D01*
X6087167Y5322113D01*
X6092167Y5320415D01*
Y4915805D01*
X6087167Y4914108D01*
X6084164Y4918022D01*
X6077963Y4922780D01*
X6070742Y4925771D01*
X6062992Y4926792D01*
X6044370D01*
Y4896850D01*
Y4866909D01*
X6062992D01*
X6070742Y4867929D01*
X6077963Y4870921D01*
X6084164Y4875679D01*
X6087167Y4879593D01*
X6092167Y4877896D01*
Y994447D01*
X994447D01*
Y6092167D01*
X6092167D01*
Y5358325D01*
D02*
G37*
%LPC*%
G36*
X5915594Y6033622D02*
X5910512D01*
Y5910512D01*
X6033622D01*
Y5915594D01*
X6030467Y5935511D01*
X6024236Y5954689D01*
X6015081Y5972656D01*
X6003229Y5988970D01*
X5988970Y6003229D01*
X5972656Y6015081D01*
X5954689Y6024236D01*
X5935511Y6030467D01*
X5915594Y6033622D01*
D02*
G37*
G36*
X5900512D02*
X5895429D01*
X5875513Y6030467D01*
X5856335Y6024236D01*
X5838367Y6015081D01*
X5822054Y6003229D01*
X5807795Y5988970D01*
X5795942Y5972656D01*
X5786788Y5954689D01*
X5780556Y5935511D01*
X5777402Y5915594D01*
Y5910512D01*
X5900512D01*
Y6033622D01*
D02*
G37*
G36*
X1210082Y5928110D02*
X1205000D01*
Y5805000D01*
X1328110D01*
Y5810083D01*
X1324956Y5829999D01*
X1318724Y5849177D01*
X1309570Y5867144D01*
X1297717Y5883458D01*
X1283458Y5897717D01*
X1267144Y5909570D01*
X1249177Y5918724D01*
X1229999Y5924956D01*
X1210082Y5928110D01*
D02*
G37*
G36*
X1195000D02*
X1189918D01*
X1170001Y5924956D01*
X1150823Y5918724D01*
X1132856Y5909570D01*
X1116542Y5897717D01*
X1102283Y5883458D01*
X1090430Y5867144D01*
X1081276Y5849177D01*
X1075044Y5829999D01*
X1071890Y5810083D01*
Y5805000D01*
X1195000D01*
Y5928110D01*
D02*
G37*
G36*
X6033622Y5900512D02*
X5910512D01*
Y5777402D01*
X5915594D01*
X5935511Y5780556D01*
X5954689Y5786788D01*
X5972656Y5795942D01*
X5988970Y5807795D01*
X6003229Y5822054D01*
X6015081Y5838367D01*
X6024236Y5856335D01*
X6030467Y5875513D01*
X6033622Y5895429D01*
Y5900512D01*
D02*
G37*
G36*
X5900512D02*
X5777402D01*
Y5895429D01*
X5780556Y5875513D01*
X5786788Y5856335D01*
X5795942Y5838367D01*
X5807795Y5822054D01*
X5822054Y5807795D01*
X5838367Y5795942D01*
X5856335Y5786788D01*
X5875513Y5780556D01*
X5895429Y5777402D01*
X5900512D01*
Y5900512D01*
D02*
G37*
G36*
X5305358Y5876142D02*
X5300276D01*
Y5753032D01*
X5423386D01*
Y5758114D01*
X5420231Y5778031D01*
X5414000Y5797209D01*
X5404845Y5815176D01*
X5392993Y5831490D01*
X5378734Y5845748D01*
X5362420Y5857601D01*
X5344453Y5866756D01*
X5325275Y5872987D01*
X5305358Y5876142D01*
D02*
G37*
G36*
X5290276D02*
X5285193D01*
X5265276Y5872987D01*
X5246098Y5866756D01*
X5228131Y5857601D01*
X5211817Y5845748D01*
X5197559Y5831490D01*
X5185706Y5815176D01*
X5176551Y5797209D01*
X5170320Y5778031D01*
X5167165Y5758114D01*
Y5753032D01*
X5290276D01*
Y5876142D01*
D02*
G37*
G36*
X4006146D02*
X4001063D01*
Y5753031D01*
X4124173D01*
Y5758114D01*
X4121019Y5778031D01*
X4114787Y5797209D01*
X4105633Y5815176D01*
X4093780Y5831490D01*
X4079521Y5845748D01*
X4063207Y5857601D01*
X4045240Y5866756D01*
X4026062Y5872987D01*
X4006146Y5876142D01*
D02*
G37*
G36*
X3991063D02*
X3985981D01*
X3966064Y5872987D01*
X3946886Y5866756D01*
X3928919Y5857601D01*
X3912605Y5845748D01*
X3898346Y5831490D01*
X3886493Y5815176D01*
X3877339Y5797209D01*
X3871107Y5778031D01*
X3867953Y5758114D01*
Y5753031D01*
X3991063D01*
Y5876142D01*
D02*
G37*
G36*
X1328110Y5795000D02*
X1205000D01*
Y5671890D01*
X1210082D01*
X1229999Y5675044D01*
X1249177Y5681276D01*
X1267144Y5690430D01*
X1283458Y5702283D01*
X1297717Y5716542D01*
X1309570Y5732856D01*
X1318724Y5750823D01*
X1324956Y5770001D01*
X1328110Y5789917D01*
Y5795000D01*
D02*
G37*
G36*
X1195000D02*
X1071890D01*
Y5789917D01*
X1075044Y5770001D01*
X1081276Y5750823D01*
X1090430Y5732856D01*
X1102283Y5716542D01*
X1116542Y5702283D01*
X1132856Y5690430D01*
X1150823Y5681276D01*
X1170001Y5675044D01*
X1189918Y5671890D01*
X1195000D01*
Y5795000D01*
D02*
G37*
G36*
X5423386Y5743032D02*
X5300276D01*
Y5619921D01*
X5305358D01*
X5325275Y5623076D01*
X5344453Y5629307D01*
X5362420Y5638462D01*
X5378734Y5650315D01*
X5392993Y5664573D01*
X5404845Y5680887D01*
X5414000Y5698854D01*
X5420231Y5718032D01*
X5423386Y5737949D01*
Y5743032D01*
D02*
G37*
G36*
X5290276D02*
X5167165D01*
Y5737949D01*
X5170320Y5718032D01*
X5176551Y5698854D01*
X5185706Y5680887D01*
X5197559Y5664573D01*
X5211817Y5650315D01*
X5228131Y5638462D01*
X5246098Y5629307D01*
X5265276Y5623076D01*
X5285193Y5619921D01*
X5290276D01*
Y5743032D01*
D02*
G37*
G36*
X4124173Y5743031D02*
X4001063D01*
Y5619921D01*
X4006146D01*
X4026062Y5623076D01*
X4045240Y5629307D01*
X4063207Y5638462D01*
X4079521Y5650315D01*
X4093780Y5664573D01*
X4105633Y5680887D01*
X4114787Y5698854D01*
X4121019Y5718032D01*
X4124173Y5737949D01*
Y5743031D01*
D02*
G37*
G36*
X3991063D02*
X3867953D01*
Y5737949D01*
X3871107Y5718032D01*
X3877339Y5698854D01*
X3886493Y5680887D01*
X3898346Y5664573D01*
X3912605Y5650315D01*
X3928919Y5638462D01*
X3946886Y5629307D01*
X3966064Y5623076D01*
X3985981Y5619921D01*
X3991063D01*
Y5743031D01*
D02*
G37*
G36*
X5825709Y5641890D02*
X5823950D01*
X5810893Y5638391D01*
X5799186Y5631632D01*
X5789627Y5622074D01*
X5782869Y5610367D01*
X5781918Y5606819D01*
X5776552Y5606113D01*
X5774022Y5610495D01*
X5767975Y5616542D01*
X5760568Y5620818D01*
X5752308Y5623032D01*
X5743755D01*
X5735495Y5620818D01*
X5728088Y5616542D01*
X5722041Y5610495D01*
X5717765Y5603088D01*
X5715551Y5594827D01*
Y5586275D01*
X5717765Y5578014D01*
X5722041Y5570608D01*
X5728088Y5564560D01*
X5735495Y5560284D01*
X5743755Y5558071D01*
X5752308D01*
X5760568Y5560284D01*
X5767975Y5564560D01*
X5774022Y5570608D01*
X5776552Y5574990D01*
X5781918Y5574283D01*
X5782869Y5570735D01*
X5789627Y5559029D01*
X5799186Y5549470D01*
X5810893Y5542711D01*
X5823950Y5539213D01*
X5825709D01*
Y5590551D01*
Y5641890D01*
D02*
G37*
G36*
X5837467D02*
X5835709D01*
Y5595551D01*
X5882047D01*
Y5597310D01*
X5878549Y5610367D01*
X5871790Y5622074D01*
X5862231Y5631632D01*
X5850525Y5638391D01*
X5837467Y5641890D01*
D02*
G37*
G36*
X5595551Y5628095D02*
Y5595551D01*
X5628095D01*
X5625551Y5605048D01*
X5620606Y5613613D01*
X5613613Y5620606D01*
X5605048Y5625551D01*
X5595551Y5628095D01*
D02*
G37*
G36*
X5502874Y5641890D02*
X5501115D01*
X5488058Y5638391D01*
X5476351Y5631632D01*
X5466793Y5622074D01*
X5460034Y5610367D01*
X5456535Y5597310D01*
Y5595551D01*
X5502874D01*
Y5641890D01*
D02*
G37*
G36*
X1425197Y5624548D02*
X1410512D01*
Y5585709D01*
X1468378D01*
X1467543Y5592055D01*
X1463163Y5602628D01*
X1456196Y5611708D01*
X1447117Y5618675D01*
X1436543Y5623055D01*
X1425197Y5624548D01*
D02*
G37*
G36*
X1400512D02*
X1385827D01*
X1374480Y5623055D01*
X1363907Y5618675D01*
X1354827Y5611708D01*
X1347861Y5602628D01*
X1343481Y5592055D01*
X1342645Y5585709D01*
X1400512D01*
Y5624548D01*
D02*
G37*
G36*
X1240158D02*
X1225472D01*
Y5585709D01*
X1283339D01*
X1282503Y5592055D01*
X1278124Y5602628D01*
X1271157Y5611708D01*
X1262077Y5618675D01*
X1251504Y5623055D01*
X1240158Y5624548D01*
D02*
G37*
G36*
X1215472D02*
X1200787D01*
X1189441Y5623055D01*
X1178868Y5618675D01*
X1169788Y5611708D01*
X1162821Y5602628D01*
X1158441Y5592055D01*
X1157606Y5585709D01*
X1215472D01*
Y5624548D01*
D02*
G37*
G36*
X5673567Y5623032D02*
X5665015D01*
X5656754Y5620818D01*
X5649348Y5616542D01*
X5643301Y5610495D01*
X5639025Y5603088D01*
X5636811Y5594827D01*
Y5586275D01*
X5639025Y5578014D01*
X5643301Y5570608D01*
X5649348Y5564560D01*
X5656754Y5560284D01*
X5665015Y5558071D01*
X5673567D01*
X5681828Y5560284D01*
X5689235Y5564560D01*
X5695282Y5570608D01*
X5699558Y5578014D01*
X5701772Y5586275D01*
Y5594827D01*
X5699558Y5603088D01*
X5695282Y5610495D01*
X5689235Y5616542D01*
X5681828Y5620818D01*
X5673567Y5623032D01*
D02*
G37*
G36*
X5628095Y5585551D02*
X5595551D01*
Y5553007D01*
X5605048Y5555552D01*
X5613613Y5560497D01*
X5620606Y5567489D01*
X5625551Y5576054D01*
X5628095Y5585551D01*
D02*
G37*
G36*
X5514633Y5641890D02*
X5512874D01*
Y5590551D01*
Y5539213D01*
X5514633D01*
X5527690Y5542711D01*
X5539397Y5549470D01*
X5548955Y5559029D01*
X5554281Y5568254D01*
X5560048Y5568266D01*
X5560496Y5567489D01*
X5567489Y5560497D01*
X5576054Y5555552D01*
X5585551Y5553007D01*
Y5590551D01*
Y5628095D01*
X5576054Y5625551D01*
X5567489Y5620606D01*
X5560496Y5613613D01*
X5560048Y5612837D01*
X5554281Y5612848D01*
X5548955Y5622074D01*
X5539397Y5631632D01*
X5527690Y5638391D01*
X5514633Y5641890D01*
D02*
G37*
G36*
X5882047Y5585551D02*
X5835709D01*
Y5539213D01*
X5837467D01*
X5850525Y5542711D01*
X5862231Y5549470D01*
X5871790Y5559029D01*
X5878549Y5570735D01*
X5882047Y5583792D01*
Y5585551D01*
D02*
G37*
G36*
X5502874D02*
X5456535D01*
Y5583792D01*
X5460034Y5570735D01*
X5466793Y5559029D01*
X5476351Y5549470D01*
X5488058Y5542711D01*
X5501115Y5539213D01*
X5502874D01*
Y5585551D01*
D02*
G37*
G36*
X1468378Y5575709D02*
X1410512D01*
Y5536869D01*
X1425197D01*
X1436543Y5538363D01*
X1447117Y5542743D01*
X1456196Y5549709D01*
X1463163Y5558789D01*
X1467543Y5569362D01*
X1468378Y5575709D01*
D02*
G37*
G36*
X1400512D02*
X1342645D01*
X1343481Y5569362D01*
X1347861Y5558789D01*
X1354827Y5549709D01*
X1363907Y5542743D01*
X1374480Y5538363D01*
X1385827Y5536869D01*
X1400512D01*
Y5575709D01*
D02*
G37*
G36*
X1283339Y5575709D02*
X1225472D01*
Y5536869D01*
X1240158D01*
X1251504Y5538363D01*
X1262077Y5542743D01*
X1271157Y5549709D01*
X1278124Y5558789D01*
X1282503Y5569362D01*
X1283339Y5575709D01*
D02*
G37*
G36*
X1215472D02*
X1157606D01*
X1158441Y5569362D01*
X1162821Y5558789D01*
X1169788Y5549709D01*
X1178868Y5542743D01*
X1189441Y5538363D01*
X1200787Y5536869D01*
X1215472D01*
Y5575709D01*
D02*
G37*
G36*
X3534433Y5483268D02*
X3528559D01*
X3523133Y5481020D01*
X3518980Y5476867D01*
X3516732Y5471441D01*
Y5465567D01*
X3518980Y5460141D01*
X3523133Y5455988D01*
X3528559Y5453740D01*
X3534433D01*
X3539859Y5455988D01*
X3544012Y5460141D01*
X3546260Y5465567D01*
Y5471441D01*
X3544012Y5476867D01*
X3539859Y5481020D01*
X3534433Y5483268D01*
D02*
G37*
G36*
X2115990Y5516142D02*
X2104483D01*
X2093368Y5513164D01*
X2083403Y5507410D01*
X2075267Y5499274D01*
X2069514Y5489309D01*
X2066535Y5478194D01*
Y5466688D01*
X2069514Y5455573D01*
X2075267Y5445608D01*
X2083403Y5437472D01*
X2093368Y5431718D01*
X2104483Y5428740D01*
X2115990D01*
X2127104Y5431718D01*
X2137069Y5437472D01*
X2145206Y5445608D01*
X2150959Y5455573D01*
X2153937Y5466688D01*
Y5478194D01*
X2150959Y5489309D01*
X2145206Y5499274D01*
X2137069Y5507410D01*
X2127104Y5513164D01*
X2115990Y5516142D01*
D02*
G37*
G36*
X1245158Y5456516D02*
Y5398701D01*
X1278041D01*
Y5419291D01*
X1276750Y5429096D01*
X1272965Y5438233D01*
X1266945Y5446079D01*
X1259099Y5452099D01*
X1249962Y5455884D01*
X1245158Y5456516D01*
D02*
G37*
G36*
X1235158D02*
X1230353Y5455884D01*
X1221216Y5452099D01*
X1213370Y5446079D01*
X1207350Y5438233D01*
X1203565Y5429096D01*
X1202274Y5419291D01*
Y5398701D01*
X1235158D01*
Y5456516D01*
D02*
G37*
G36*
X1116999Y5430118D02*
X1107410D01*
X1098148Y5427636D01*
X1089844Y5422842D01*
X1083064Y5416061D01*
X1078269Y5407757D01*
X1075787Y5398495D01*
Y5388906D01*
X1078269Y5379644D01*
X1083064Y5371340D01*
X1089844Y5364560D01*
X1098148Y5359765D01*
X1107410Y5357283D01*
X1116999D01*
X1126261Y5359765D01*
X1134565Y5364560D01*
X1141346Y5371340D01*
X1146140Y5379644D01*
X1148622Y5388906D01*
Y5398495D01*
X1146140Y5407757D01*
X1141346Y5416061D01*
X1134565Y5422842D01*
X1126261Y5427636D01*
X1116999Y5430118D01*
D02*
G37*
G36*
X6034370Y5369311D02*
X6015748D01*
X6007999Y5368291D01*
X6000777Y5365300D01*
X5994576Y5360542D01*
X5989818Y5354341D01*
X5986827Y5347119D01*
X5986465Y5344370D01*
X6034370D01*
Y5369311D01*
D02*
G37*
G36*
X5897638D02*
X5886890D01*
Y5344370D01*
X5926921D01*
X5926559Y5347119D01*
X5923568Y5354341D01*
X5918809Y5360542D01*
X5912608Y5365300D01*
X5905387Y5368291D01*
X5897638Y5369311D01*
D02*
G37*
G36*
X5876890D02*
X5866142D01*
X5858392Y5368291D01*
X5851171Y5365300D01*
X5844970Y5360542D01*
X5840212Y5354341D01*
X5837221Y5347119D01*
X5836859Y5344370D01*
X5876890D01*
Y5369311D01*
D02*
G37*
G36*
X1278041Y5388701D02*
X1245158D01*
Y5330885D01*
X1249962Y5331518D01*
X1259099Y5335302D01*
X1266945Y5341323D01*
X1272965Y5349169D01*
X1276750Y5358305D01*
X1278041Y5368110D01*
Y5388701D01*
D02*
G37*
G36*
X1235158D02*
X1202274D01*
Y5368110D01*
X1203565Y5358305D01*
X1207350Y5349169D01*
X1213370Y5341323D01*
X1221216Y5335302D01*
X1230353Y5331518D01*
X1235158Y5330885D01*
Y5388701D01*
D02*
G37*
G36*
X1483261Y5463583D02*
X1469495D01*
X1455994Y5460897D01*
X1443276Y5455629D01*
X1431831Y5447982D01*
X1422097Y5438248D01*
X1414449Y5426802D01*
X1409181Y5414085D01*
X1406496Y5400584D01*
Y5386818D01*
X1409181Y5373317D01*
X1414449Y5360599D01*
X1422097Y5349154D01*
X1431831Y5339420D01*
X1443276Y5331772D01*
X1455994Y5326504D01*
X1469495Y5323819D01*
X1483261D01*
X1496762Y5326504D01*
X1509479Y5331772D01*
X1520925Y5339420D01*
X1530659Y5349154D01*
X1538306Y5360599D01*
X1543574Y5373317D01*
X1546260Y5386818D01*
Y5400584D01*
X1543574Y5414085D01*
X1538306Y5426802D01*
X1530659Y5438248D01*
X1520925Y5447982D01*
X1509479Y5455629D01*
X1496762Y5460897D01*
X1483261Y5463583D01*
D02*
G37*
G36*
X2115990Y5398032D02*
X2104483D01*
X2093368Y5395053D01*
X2083403Y5389300D01*
X2075267Y5381164D01*
X2069514Y5371199D01*
X2066535Y5360084D01*
Y5348577D01*
X2069514Y5337463D01*
X2075267Y5327498D01*
X2083403Y5319361D01*
X2093368Y5313608D01*
X2104483Y5310630D01*
X2115990D01*
X2127104Y5313608D01*
X2137069Y5319361D01*
X2145206Y5327498D01*
X2150959Y5337463D01*
X2153937Y5348577D01*
Y5360084D01*
X2150959Y5371199D01*
X2145206Y5381164D01*
X2137069Y5389300D01*
X2127104Y5395053D01*
X2115990Y5398032D01*
D02*
G37*
G36*
X6034370Y5334370D02*
X5986465D01*
X5986827Y5331621D01*
X5989818Y5324399D01*
X5994576Y5318198D01*
X6000777Y5313440D01*
X6007999Y5310449D01*
X6015748Y5309429D01*
X6034370D01*
Y5334370D01*
D02*
G37*
G36*
X5926921Y5334370D02*
X5886890D01*
Y5309429D01*
X5897638D01*
X5905387Y5310449D01*
X5912608Y5313440D01*
X5918809Y5318198D01*
X5923568Y5324399D01*
X5926559Y5331621D01*
X5926921Y5334370D01*
D02*
G37*
G36*
X5876890D02*
X5836859D01*
X5837221Y5331621D01*
X5840212Y5324399D01*
X5844970Y5318198D01*
X5851171Y5313440D01*
X5858392Y5310449D01*
X5866142Y5309429D01*
X5876890D01*
Y5334370D01*
D02*
G37*
G36*
X3187976Y5278543D02*
X3182103D01*
X3176676Y5276296D01*
X3172523Y5272142D01*
X3170276Y5266716D01*
Y5260843D01*
X3172523Y5255417D01*
X3176676Y5251263D01*
X3182103Y5249016D01*
X3187976D01*
X3193402Y5251263D01*
X3197555Y5255417D01*
X3199803Y5260843D01*
Y5266716D01*
X3197555Y5272142D01*
X3193402Y5276296D01*
X3187976Y5278543D01*
D02*
G37*
G36*
X1240158Y5250533D02*
X1225472D01*
Y5211693D01*
X1283339D01*
X1282503Y5218039D01*
X1278124Y5228613D01*
X1271157Y5237692D01*
X1262077Y5244659D01*
X1251504Y5249039D01*
X1240158Y5250533D01*
D02*
G37*
G36*
X1215472D02*
X1200787D01*
X1189441Y5249039D01*
X1178868Y5244659D01*
X1169788Y5237692D01*
X1162821Y5228613D01*
X1158441Y5218039D01*
X1157606Y5211693D01*
X1215472D01*
Y5250533D01*
D02*
G37*
G36*
X1425197D02*
X1410512D01*
Y5211693D01*
X1468378D01*
X1467543Y5218039D01*
X1463163Y5228613D01*
X1456196Y5237692D01*
X1447117Y5244659D01*
X1436543Y5249039D01*
X1425197Y5250533D01*
D02*
G37*
G36*
X1400512D02*
X1385827D01*
X1374480Y5249039D01*
X1363907Y5244659D01*
X1354827Y5237692D01*
X1347861Y5228613D01*
X1343481Y5218039D01*
X1342645Y5211693D01*
X1400512D01*
Y5250533D01*
D02*
G37*
G36*
X1468378Y5201693D02*
X1410512D01*
Y5162853D01*
X1425197D01*
X1436543Y5164347D01*
X1447117Y5168727D01*
X1456196Y5175694D01*
X1463163Y5184773D01*
X1467543Y5195346D01*
X1468378Y5201693D01*
D02*
G37*
G36*
X1400512D02*
X1342645D01*
X1343481Y5195346D01*
X1347861Y5184773D01*
X1354827Y5175694D01*
X1363907Y5168727D01*
X1374480Y5164347D01*
X1385827Y5162853D01*
X1400512D01*
Y5201693D01*
D02*
G37*
G36*
X1283339Y5201693D02*
X1225472D01*
Y5162853D01*
X1240158D01*
X1251504Y5164347D01*
X1262077Y5168727D01*
X1271157Y5175694D01*
X1278124Y5184773D01*
X1282503Y5195346D01*
X1283339Y5201693D01*
D02*
G37*
G36*
X1215472D02*
X1157606D01*
X1158441Y5195346D01*
X1162821Y5184773D01*
X1169788Y5175694D01*
X1178868Y5168727D01*
X1189441Y5164347D01*
X1200787Y5162853D01*
X1215472D01*
Y5201693D01*
D02*
G37*
G36*
X3197741Y5171779D02*
X3192259D01*
X3187195Y5169682D01*
X3183318Y5165806D01*
X3181220Y5160741D01*
Y5155259D01*
X3183318Y5150194D01*
X3187195Y5146318D01*
X3192259Y5144221D01*
X3197741D01*
X3202805Y5146318D01*
X3206682Y5150194D01*
X3208780Y5155259D01*
Y5160741D01*
X3206682Y5165806D01*
X3202805Y5169682D01*
X3197741Y5171779D01*
D02*
G37*
G36*
X5713661Y5135386D02*
Y5123110D01*
X5725937D01*
X5723814Y5128235D01*
X5718786Y5133263D01*
X5713661Y5135386D01*
D02*
G37*
G36*
X5703661D02*
X5698537Y5133263D01*
X5693508Y5128235D01*
X5691386Y5123110D01*
X5703661D01*
Y5135386D01*
D02*
G37*
G36*
X5725937Y5113110D02*
X5713661D01*
Y5100835D01*
X5718786Y5102957D01*
X5723814Y5107985D01*
X5725937Y5113110D01*
D02*
G37*
G36*
X5703661D02*
X5691386D01*
X5693508Y5107985D01*
X5698537Y5102957D01*
X5703661Y5100835D01*
Y5113110D01*
D02*
G37*
G36*
X3978937Y4982764D02*
X3973063D01*
X3967637Y4980516D01*
X3963484Y4976363D01*
X3961236Y4970937D01*
Y4965063D01*
X3963484Y4959637D01*
X3967637Y4955484D01*
X3973063Y4953236D01*
X3978937D01*
X3984363Y4955484D01*
X3988516Y4959637D01*
X3990764Y4965063D01*
Y4970937D01*
X3988516Y4976363D01*
X3984363Y4980516D01*
X3978937Y4982764D01*
D02*
G37*
G36*
X3884827Y4967520D02*
X3878953D01*
X3873527Y4965272D01*
X3869374Y4961119D01*
X3867126Y4955693D01*
Y4949819D01*
X3869374Y4944393D01*
X3873527Y4940240D01*
X3878953Y4937992D01*
X3884827D01*
X3890253Y4940240D01*
X3894406Y4944393D01*
X3896654Y4949819D01*
Y4955693D01*
X3894406Y4961119D01*
X3890253Y4965272D01*
X3884827Y4967520D01*
D02*
G37*
G36*
X3245227Y4946299D02*
X3244961D01*
Y4911299D01*
X3279961D01*
Y4911565D01*
X3277235Y4921739D01*
X3271969Y4930860D01*
X3264521Y4938307D01*
X3255400Y4943573D01*
X3245227Y4946299D01*
D02*
G37*
G36*
X3234961D02*
X3234695D01*
X3224521Y4943573D01*
X3215400Y4938307D01*
X3207953Y4930860D01*
X3202686Y4921739D01*
X3199961Y4911565D01*
Y4911299D01*
X3234961D01*
Y4946299D01*
D02*
G37*
G36*
X5897638Y4926792D02*
X5886890D01*
Y4901851D01*
X5926921D01*
X5926559Y4904600D01*
X5923568Y4911821D01*
X5918809Y4918022D01*
X5912608Y4922780D01*
X5905387Y4925771D01*
X5897638Y4926792D01*
D02*
G37*
G36*
X5876890D02*
X5866142D01*
X5858392Y4925771D01*
X5851171Y4922780D01*
X5844970Y4918022D01*
X5840212Y4911821D01*
X5837221Y4904600D01*
X5836859Y4901851D01*
X5876890D01*
Y4926792D01*
D02*
G37*
G36*
X6034370D02*
X6015748D01*
X6007999Y4925771D01*
X6000777Y4922780D01*
X5994576Y4918022D01*
X5989818Y4911821D01*
X5986827Y4904600D01*
X5986465Y4901850D01*
X6034370D01*
Y4926792D01*
D02*
G37*
G36*
X1178019Y4941102D02*
X1176260D01*
Y4894764D01*
X1222599D01*
Y4896523D01*
X1219100Y4909580D01*
X1212341Y4921286D01*
X1202783Y4930845D01*
X1191076Y4937604D01*
X1178019Y4941102D01*
D02*
G37*
G36*
X1166260D02*
X1164501D01*
X1151444Y4937604D01*
X1139737Y4930845D01*
X1130179Y4921286D01*
X1123420Y4909580D01*
X1119921Y4896523D01*
Y4894764D01*
X1166260D01*
Y4941102D01*
D02*
G37*
G36*
X3344558Y4941221D02*
X3335363D01*
X3326481Y4938841D01*
X3318518Y4934243D01*
X3312017Y4927741D01*
X3307419Y4919778D01*
X3305039Y4910897D01*
Y4901702D01*
X3307419Y4892820D01*
X3312017Y4884857D01*
X3318518Y4878355D01*
X3326481Y4873758D01*
X3335363Y4871378D01*
X3344558D01*
X3353440Y4873758D01*
X3361403Y4878355D01*
X3367905Y4884857D01*
X3372502Y4892820D01*
X3374882Y4901702D01*
Y4910897D01*
X3372502Y4919778D01*
X3367905Y4927741D01*
X3361403Y4934243D01*
X3353440Y4938841D01*
X3344558Y4941221D01*
D02*
G37*
G36*
X6034370Y4891850D02*
X5986465D01*
X5986827Y4889101D01*
X5989818Y4881880D01*
X5994576Y4875679D01*
X6000777Y4870921D01*
X6007999Y4867929D01*
X6015748Y4866909D01*
X6034370D01*
Y4891850D01*
D02*
G37*
G36*
X5926921Y4891851D02*
X5886890D01*
Y4866909D01*
X5897638D01*
X5905387Y4867929D01*
X5912608Y4870921D01*
X5918809Y4875679D01*
X5923568Y4881880D01*
X5926559Y4889101D01*
X5926921Y4891851D01*
D02*
G37*
G36*
X5876890D02*
X5836859D01*
X5837221Y4889101D01*
X5840212Y4881880D01*
X5844970Y4875679D01*
X5851171Y4870921D01*
X5858392Y4867929D01*
X5866142Y4866909D01*
X5876890D01*
Y4891851D01*
D02*
G37*
G36*
X3279961Y4901299D02*
X3244961D01*
Y4866299D01*
X3245227D01*
X3255400Y4869025D01*
X3264521Y4874291D01*
X3271969Y4881739D01*
X3277235Y4890860D01*
X3279961Y4901033D01*
Y4901299D01*
D02*
G37*
G36*
X3234961D02*
X3199961D01*
Y4901033D01*
X3202686Y4890860D01*
X3207953Y4881739D01*
X3215400Y4874291D01*
X3224521Y4869025D01*
X3234695Y4866299D01*
X3234961D01*
Y4901299D01*
D02*
G37*
G36*
X1222599Y4884764D02*
X1176260D01*
Y4838425D01*
X1178019D01*
X1191076Y4841924D01*
X1202783Y4848683D01*
X1212341Y4858241D01*
X1219100Y4869948D01*
X1222599Y4883005D01*
Y4884764D01*
D02*
G37*
G36*
X1166260D02*
X1119921D01*
Y4883005D01*
X1123420Y4869948D01*
X1130179Y4858241D01*
X1139737Y4848683D01*
X1151444Y4841924D01*
X1164501Y4838425D01*
X1166260D01*
Y4884764D01*
D02*
G37*
G36*
X1393709Y4949803D02*
X1381882D01*
X1370283Y4947496D01*
X1359356Y4942970D01*
X1349522Y4936399D01*
X1341160Y4928037D01*
X1334589Y4918203D01*
X1330063Y4907276D01*
X1327756Y4895677D01*
Y4883850D01*
X1330063Y4872251D01*
X1334589Y4861324D01*
X1341160Y4851491D01*
X1349522Y4843128D01*
X1359356Y4836557D01*
X1370283Y4832032D01*
X1381882Y4829724D01*
X1393709D01*
X1405308Y4832032D01*
X1416235Y4836557D01*
X1426068Y4843128D01*
X1434431Y4851491D01*
X1441002Y4861324D01*
X1445527Y4872251D01*
X1447835Y4883850D01*
Y4895677D01*
X1445527Y4907276D01*
X1441002Y4918203D01*
X1434431Y4928037D01*
X1426068Y4936399D01*
X1416235Y4942970D01*
X1405308Y4947496D01*
X1393709Y4949803D01*
D02*
G37*
G36*
X3344558Y4841221D02*
X3335363D01*
X3326481Y4838841D01*
X3318518Y4834243D01*
X3312017Y4827741D01*
X3307419Y4819778D01*
X3305039Y4810897D01*
Y4801702D01*
X3307419Y4792820D01*
X3312017Y4784857D01*
X3318518Y4778355D01*
X3326481Y4773758D01*
X3335363Y4771378D01*
X3344558D01*
X3353440Y4773758D01*
X3361403Y4778355D01*
X3367905Y4784857D01*
X3372502Y4792820D01*
X3374882Y4801702D01*
Y4810897D01*
X3372502Y4819778D01*
X3367905Y4827741D01*
X3361403Y4834243D01*
X3353440Y4838841D01*
X3344558Y4841221D01*
D02*
G37*
G36*
X3244558D02*
X3235363D01*
X3226481Y4838841D01*
X3218518Y4834243D01*
X3212017Y4827741D01*
X3207419Y4819778D01*
X3205039Y4810897D01*
Y4801702D01*
X3207419Y4792820D01*
X3212017Y4784857D01*
X3218518Y4778355D01*
X3226481Y4773758D01*
X3235363Y4771378D01*
X3244558D01*
X3253440Y4773758D01*
X3261403Y4778355D01*
X3267905Y4784857D01*
X3272502Y4792820D01*
X3274882Y4801702D01*
Y4810897D01*
X3272502Y4819778D01*
X3267905Y4827741D01*
X3261403Y4834243D01*
X3253440Y4838841D01*
X3244558Y4841221D01*
D02*
G37*
G36*
X2606846Y4785811D02*
X2597154D01*
X2587791Y4783302D01*
X2579398Y4778456D01*
X2572544Y4771602D01*
X2567698Y4763208D01*
X2565189Y4753846D01*
Y4744154D01*
X2567698Y4734792D01*
X2572544Y4726398D01*
X2579398Y4719544D01*
X2587791Y4714698D01*
X2597154Y4712189D01*
X2606846D01*
X2616209Y4714698D01*
X2624602Y4719544D01*
X2631456Y4726398D01*
X2636302Y4734792D01*
X2638811Y4744154D01*
Y4753846D01*
X2636302Y4763208D01*
X2631456Y4771602D01*
X2624602Y4778456D01*
X2616209Y4783302D01*
X2606846Y4785811D01*
D02*
G37*
G36*
X5966352Y4742283D02*
X5965630D01*
Y4703819D01*
X6004095D01*
Y4704541D01*
X6001132Y4715596D01*
X5995410Y4725507D01*
X5987318Y4733599D01*
X5977407Y4739321D01*
X5966352Y4742283D01*
D02*
G37*
G36*
X5955630D02*
X5954908D01*
X5943853Y4739321D01*
X5933942Y4733599D01*
X5925850Y4725507D01*
X5920127Y4715596D01*
X5917166Y4704541D01*
Y4703819D01*
X5955630D01*
Y4742283D01*
D02*
G37*
G36*
X5317897Y4731299D02*
X5312024D01*
X5306598Y4729051D01*
X5302444Y4724898D01*
X5300197Y4719472D01*
Y4713599D01*
X5302444Y4708172D01*
X5306598Y4704019D01*
X5312024Y4701772D01*
X5317897D01*
X5323324Y4704019D01*
X5327477Y4708172D01*
X5329724Y4713599D01*
Y4719472D01*
X5327477Y4724898D01*
X5323324Y4729051D01*
X5317897Y4731299D01*
D02*
G37*
G36*
X5773439Y4718661D02*
X5772717D01*
Y4680197D01*
X5811181D01*
Y4680919D01*
X5808219Y4691974D01*
X5802497Y4701885D01*
X5794404Y4709977D01*
X5784493Y4715699D01*
X5773439Y4718661D01*
D02*
G37*
G36*
X5762717D02*
X5761994D01*
X5750940Y4715699D01*
X5741029Y4709977D01*
X5732936Y4701885D01*
X5727214Y4691974D01*
X5724252Y4680919D01*
Y4680197D01*
X5762717D01*
Y4718661D01*
D02*
G37*
G36*
X1393886Y4770669D02*
X1381705D01*
X1369940Y4767517D01*
X1359391Y4761427D01*
X1350778Y4752814D01*
X1344688Y4742265D01*
X1341535Y4730500D01*
Y4718319D01*
X1344688Y4706554D01*
X1350778Y4696005D01*
X1359391Y4687392D01*
X1369940Y4681302D01*
X1381705Y4678150D01*
X1393886D01*
X1405651Y4681302D01*
X1416200Y4687392D01*
X1424812Y4696005D01*
X1430903Y4706554D01*
X1434055Y4718319D01*
Y4730500D01*
X1430903Y4742265D01*
X1424812Y4752814D01*
X1416200Y4761427D01*
X1405651Y4767517D01*
X1393886Y4770669D01*
D02*
G37*
G36*
X1177350D02*
X1165170D01*
X1153404Y4767517D01*
X1142856Y4761427D01*
X1134243Y4752814D01*
X1128152Y4742265D01*
X1125000Y4730500D01*
Y4718319D01*
X1128152Y4706554D01*
X1134243Y4696005D01*
X1142856Y4687392D01*
X1153404Y4681302D01*
X1165170Y4678150D01*
X1177350D01*
X1189116Y4681302D01*
X1199664Y4687392D01*
X1208277Y4696005D01*
X1214367Y4706554D01*
X1217520Y4718319D01*
Y4730500D01*
X1214367Y4742265D01*
X1208277Y4752814D01*
X1199664Y4761427D01*
X1189116Y4767517D01*
X1177350Y4770669D01*
D02*
G37*
G36*
X3344558Y4741221D02*
X3335363D01*
X3326481Y4738841D01*
X3318518Y4734243D01*
X3312017Y4727741D01*
X3307419Y4719778D01*
X3305039Y4710897D01*
Y4701702D01*
X3307419Y4692820D01*
X3312017Y4684857D01*
X3318518Y4678355D01*
X3326481Y4673758D01*
X3335363Y4671378D01*
X3344558D01*
X3353440Y4673758D01*
X3361403Y4678355D01*
X3367905Y4684857D01*
X3372502Y4692820D01*
X3374882Y4701702D01*
Y4710897D01*
X3372502Y4719778D01*
X3367905Y4727741D01*
X3361403Y4734243D01*
X3353440Y4738841D01*
X3344558Y4741221D01*
D02*
G37*
G36*
X3244558D02*
X3235363D01*
X3226481Y4738841D01*
X3218518Y4734243D01*
X3212017Y4727741D01*
X3207419Y4719778D01*
X3205039Y4710897D01*
Y4701702D01*
X3207419Y4692820D01*
X3212017Y4684857D01*
X3218518Y4678355D01*
X3226481Y4673758D01*
X3235363Y4671378D01*
X3244558D01*
X3253440Y4673758D01*
X3261403Y4678355D01*
X3267905Y4684857D01*
X3272502Y4692820D01*
X3274882Y4701702D01*
Y4710897D01*
X3272502Y4719778D01*
X3267905Y4727741D01*
X3261403Y4734243D01*
X3253440Y4738841D01*
X3244558Y4741221D01*
D02*
G37*
G36*
X6004095Y4693819D02*
X5965630D01*
Y4655354D01*
X5966352D01*
X5977407Y4658316D01*
X5987318Y4664039D01*
X5995410Y4672131D01*
X6001132Y4682042D01*
X6004095Y4693097D01*
Y4693819D01*
D02*
G37*
G36*
X5955630D02*
X5917166D01*
Y4693097D01*
X5920127Y4682042D01*
X5925850Y4672131D01*
X5933942Y4664039D01*
X5943853Y4658316D01*
X5954908Y4655354D01*
X5955630D01*
Y4693819D01*
D02*
G37*
G36*
X5811181Y4670197D02*
X5772717D01*
Y4631732D01*
X5773439D01*
X5784493Y4634694D01*
X5794404Y4640417D01*
X5802497Y4648509D01*
X5808219Y4658420D01*
X5811181Y4669475D01*
Y4670197D01*
D02*
G37*
G36*
X5762717D02*
X5724252D01*
Y4669475D01*
X5727214Y4658420D01*
X5732936Y4648509D01*
X5741029Y4640417D01*
X5750940Y4634694D01*
X5761994Y4631732D01*
X5762717D01*
Y4670197D01*
D02*
G37*
G36*
X3245227Y4646299D02*
X3244961D01*
Y4611299D01*
X3279961D01*
Y4611565D01*
X3277235Y4621739D01*
X3271969Y4630860D01*
X3264521Y4638307D01*
X3255400Y4643573D01*
X3245227Y4646299D01*
D02*
G37*
G36*
X3234961D02*
X3234695D01*
X3224521Y4643573D01*
X3215400Y4638307D01*
X3207953Y4630860D01*
X3202686Y4621739D01*
X3199961Y4611565D01*
Y4611299D01*
X3234961D01*
Y4646299D01*
D02*
G37*
G36*
X3344558Y4641221D02*
X3335363D01*
X3326481Y4638841D01*
X3318518Y4634243D01*
X3312017Y4627741D01*
X3307419Y4619778D01*
X3305039Y4610897D01*
Y4601702D01*
X3307419Y4592820D01*
X3312017Y4584857D01*
X3318518Y4578355D01*
X3326481Y4573758D01*
X3335363Y4571378D01*
X3344558D01*
X3353440Y4573758D01*
X3361403Y4578355D01*
X3367905Y4584857D01*
X3372502Y4592820D01*
X3374882Y4601702D01*
Y4610897D01*
X3372502Y4619778D01*
X3367905Y4627741D01*
X3361403Y4634243D01*
X3353440Y4638841D01*
X3344558Y4641221D01*
D02*
G37*
G36*
X3279961Y4601299D02*
X3244961D01*
Y4566299D01*
X3245227D01*
X3255400Y4569025D01*
X3264521Y4574291D01*
X3271969Y4581739D01*
X3277235Y4590860D01*
X3279961Y4601033D01*
Y4601299D01*
D02*
G37*
G36*
X3234961D02*
X3199961D01*
Y4601033D01*
X3202686Y4590860D01*
X3207953Y4581739D01*
X3215400Y4574291D01*
X3224521Y4569025D01*
X3234695Y4566299D01*
X3234961D01*
Y4601299D01*
D02*
G37*
G36*
X1178019Y4610394D02*
X1176260D01*
Y4564055D01*
X1222599D01*
Y4565814D01*
X1219100Y4578871D01*
X1212341Y4590578D01*
X1202783Y4600136D01*
X1191076Y4606895D01*
X1178019Y4610394D01*
D02*
G37*
G36*
X1166260D02*
X1164501D01*
X1151444Y4606895D01*
X1139737Y4600136D01*
X1130179Y4590578D01*
X1123420Y4578871D01*
X1119921Y4565814D01*
Y4564055D01*
X1166260D01*
Y4610394D01*
D02*
G37*
G36*
X3884435Y4682087D02*
X3879345D01*
X3874642Y4680139D01*
X3871042Y4676539D01*
X3869095Y4671836D01*
Y4666746D01*
X3871042Y4662043D01*
X3870387Y4660220D01*
X3868909Y4657106D01*
X3864629Y4655333D01*
X3861030Y4651734D01*
X3859082Y4647031D01*
Y4641941D01*
X3861030Y4637238D01*
X3863820Y4634448D01*
X3864564Y4632674D01*
X3864277Y4628372D01*
X3862153Y4626248D01*
X3860205Y4621545D01*
Y4616455D01*
X3862153Y4611752D01*
X3862638Y4611266D01*
X3864687Y4606983D01*
X3862638Y4604734D01*
X3861153Y4603248D01*
X3859205Y4598545D01*
Y4593455D01*
X3861153Y4588752D01*
X3864752Y4585153D01*
X3864899Y4584759D01*
X3865217Y4579548D01*
X3862800Y4577131D01*
X3860852Y4572428D01*
Y4567338D01*
X3862800Y4562635D01*
X3866399Y4559036D01*
X3871102Y4557088D01*
X3876193D01*
X3880896Y4559036D01*
X3884495Y4562635D01*
X3886443Y4567338D01*
Y4572428D01*
X3884495Y4577131D01*
X3880896Y4580731D01*
X3880749Y4581125D01*
X3880431Y4586335D01*
X3882847Y4588752D01*
X3884795Y4593455D01*
Y4598545D01*
X3882847Y4603248D01*
X3882362Y4603734D01*
X3880313Y4608017D01*
X3882362Y4610266D01*
X3883847Y4611752D01*
X3885795Y4616455D01*
Y4621545D01*
X3883847Y4626248D01*
X3881057Y4629038D01*
X3880312Y4630811D01*
X3880600Y4635114D01*
X3882724Y4637238D01*
X3884672Y4641941D01*
Y4647031D01*
X3882724Y4651734D01*
X3883379Y4653557D01*
X3884858Y4656671D01*
X3889138Y4658444D01*
X3892737Y4662043D01*
X3894685Y4666746D01*
Y4671836D01*
X3892737Y4676539D01*
X3889138Y4680139D01*
X3884435Y4682087D01*
D02*
G37*
G36*
X3742110Y4552165D02*
X3736236D01*
X3730810Y4549918D01*
X3726657Y4545765D01*
X3724409Y4540338D01*
Y4534465D01*
X3726657Y4529039D01*
X3730810Y4524886D01*
X3736236Y4522638D01*
X3742110D01*
X3747536Y4524886D01*
X3751689Y4529039D01*
X3753937Y4534465D01*
Y4540338D01*
X3751689Y4545765D01*
X3747536Y4549918D01*
X3742110Y4552165D01*
D02*
G37*
G36*
X3874003Y4544500D02*
X3868913D01*
X3864210Y4542552D01*
X3860611Y4538953D01*
X3858663Y4534250D01*
Y4529160D01*
X3860611Y4524457D01*
X3864210Y4520858D01*
X3868913Y4518910D01*
X3874003D01*
X3878706Y4520858D01*
X3882305Y4524457D01*
X3884253Y4529160D01*
Y4534250D01*
X3882305Y4538953D01*
X3878706Y4542552D01*
X3874003Y4544500D01*
D02*
G37*
G36*
X3245227Y4546299D02*
X3244961D01*
Y4511299D01*
X3279961D01*
Y4511565D01*
X3277235Y4521739D01*
X3271969Y4530860D01*
X3264521Y4538307D01*
X3255400Y4543573D01*
X3245227Y4546299D01*
D02*
G37*
G36*
X3234961D02*
X3234695D01*
X3224521Y4543573D01*
X3215400Y4538307D01*
X3207953Y4530860D01*
X3202686Y4521739D01*
X3199961Y4511565D01*
Y4511299D01*
X3234961D01*
Y4546299D01*
D02*
G37*
G36*
X1222599Y4554055D02*
X1176260D01*
Y4507717D01*
X1178019D01*
X1191076Y4511215D01*
X1202783Y4517974D01*
X1212341Y4527533D01*
X1219100Y4539239D01*
X1222599Y4552296D01*
Y4554055D01*
D02*
G37*
G36*
X1166260D02*
X1119921D01*
Y4552296D01*
X1123420Y4539239D01*
X1130179Y4527533D01*
X1139737Y4517974D01*
X1151444Y4511215D01*
X1164501Y4507717D01*
X1166260D01*
Y4554055D01*
D02*
G37*
G36*
X1393709Y4619095D02*
X1381882D01*
X1370283Y4616787D01*
X1359356Y4612261D01*
X1349522Y4605691D01*
X1341160Y4597328D01*
X1334589Y4587494D01*
X1330063Y4576568D01*
X1327756Y4564968D01*
Y4553142D01*
X1330063Y4541542D01*
X1334589Y4530616D01*
X1341160Y4520782D01*
X1349522Y4512419D01*
X1359356Y4505849D01*
X1370283Y4501323D01*
X1381882Y4499016D01*
X1393709D01*
X1405308Y4501323D01*
X1416235Y4505849D01*
X1426068Y4512419D01*
X1434431Y4520782D01*
X1441002Y4530616D01*
X1445527Y4541542D01*
X1447835Y4553142D01*
Y4564968D01*
X1445527Y4576568D01*
X1441002Y4587494D01*
X1434431Y4597328D01*
X1426068Y4605691D01*
X1416235Y4612261D01*
X1405308Y4616787D01*
X1393709Y4619095D01*
D02*
G37*
G36*
X3979937Y4526764D02*
X3974063D01*
X3968637Y4524516D01*
X3964484Y4520363D01*
X3962236Y4514937D01*
Y4509063D01*
X3964484Y4503637D01*
X3968637Y4499484D01*
X3974063Y4497236D01*
X3979937D01*
X3985363Y4499484D01*
X3989516Y4503637D01*
X3991764Y4509063D01*
Y4514937D01*
X3989516Y4520363D01*
X3985363Y4524516D01*
X3979937Y4526764D01*
D02*
G37*
G36*
X4094993Y4520993D02*
X4089119D01*
X4083693Y4518745D01*
X4079540Y4514592D01*
X4077292Y4509166D01*
Y4503293D01*
X4079540Y4497866D01*
X4083693Y4493713D01*
X4089119Y4491466D01*
X4094993D01*
X4100419Y4493713D01*
X4104572Y4497866D01*
X4106820Y4503293D01*
Y4509166D01*
X4104572Y4514592D01*
X4100419Y4518745D01*
X4094993Y4520993D01*
D02*
G37*
G36*
X3344558Y4541221D02*
X3335363D01*
X3326481Y4538841D01*
X3318518Y4534243D01*
X3312017Y4527741D01*
X3307419Y4519778D01*
X3305039Y4510897D01*
Y4501702D01*
X3307419Y4492820D01*
X3312017Y4484857D01*
X3318518Y4478355D01*
X3326481Y4473758D01*
X3335363Y4471378D01*
X3344558D01*
X3353440Y4473758D01*
X3361403Y4478355D01*
X3367905Y4484857D01*
X3372502Y4492820D01*
X3374882Y4501702D01*
Y4510897D01*
X3372502Y4519778D01*
X3367905Y4527741D01*
X3361403Y4534243D01*
X3353440Y4538841D01*
X3344558Y4541221D01*
D02*
G37*
G36*
X3279961Y4501299D02*
X3244961D01*
Y4466299D01*
X3245227D01*
X3255400Y4469025D01*
X3264521Y4474291D01*
X3271969Y4481739D01*
X3277235Y4490860D01*
X3279961Y4501033D01*
Y4501299D01*
D02*
G37*
G36*
X3234961D02*
X3199961D01*
Y4501033D01*
X3202686Y4490860D01*
X3207953Y4481739D01*
X3215400Y4474291D01*
X3224521Y4469025D01*
X3234695Y4466299D01*
X3234961D01*
Y4501299D01*
D02*
G37*
G36*
X4094350Y4484177D02*
X4088477D01*
X4083050Y4481929D01*
X4078897Y4477776D01*
X4076650Y4472350D01*
Y4466477D01*
X4078897Y4461050D01*
X4083050Y4456897D01*
X4088477Y4454650D01*
X4094350D01*
X4099776Y4456897D01*
X4103930Y4461050D01*
X4106177Y4466477D01*
Y4472350D01*
X4103930Y4477776D01*
X4099776Y4481929D01*
X4094350Y4484177D01*
D02*
G37*
G36*
X3245227Y4446299D02*
X3244961D01*
Y4411299D01*
X3279961D01*
Y4411565D01*
X3277235Y4421739D01*
X3271969Y4430860D01*
X3264521Y4438307D01*
X3255400Y4443573D01*
X3245227Y4446299D01*
D02*
G37*
G36*
X3234961D02*
X3234695D01*
X3224521Y4443573D01*
X3215400Y4438307D01*
X3207953Y4430860D01*
X3202686Y4421739D01*
X3199961Y4411565D01*
Y4411299D01*
X3234961D01*
Y4446299D01*
D02*
G37*
G36*
X4130070Y4437764D02*
X4124197D01*
X4118771Y4435516D01*
X4114618Y4431363D01*
X4112370Y4425937D01*
Y4420063D01*
X4114618Y4414637D01*
X4118771Y4410484D01*
X4124197Y4408236D01*
X4130070D01*
X4135497Y4410484D01*
X4139650Y4414637D01*
X4141898Y4420063D01*
Y4425937D01*
X4139650Y4431363D01*
X4135497Y4435516D01*
X4130070Y4437764D01*
D02*
G37*
G36*
X4191913Y4416339D02*
X4186040D01*
X4180613Y4414091D01*
X4176460Y4409938D01*
X4174213Y4404511D01*
Y4398638D01*
X4176460Y4393212D01*
X4180613Y4389059D01*
X4186040Y4386811D01*
X4191913D01*
X4197339Y4389059D01*
X4201493Y4393212D01*
X4203740Y4398638D01*
Y4404511D01*
X4201493Y4409938D01*
X4197339Y4414091D01*
X4191913Y4416339D01*
D02*
G37*
G36*
X4085614D02*
X4079740D01*
X4074314Y4414091D01*
X4070161Y4409938D01*
X4067913Y4404511D01*
Y4398638D01*
X4070161Y4393212D01*
X4074314Y4389059D01*
X4079740Y4386811D01*
X4085614D01*
X4091040Y4389059D01*
X4095193Y4393212D01*
X4097441Y4398638D01*
Y4404511D01*
X4095193Y4409938D01*
X4091040Y4414091D01*
X4085614Y4416339D01*
D02*
G37*
G36*
X3979315Y4408465D02*
X3973441D01*
X3968015Y4406217D01*
X3963862Y4402064D01*
X3961614Y4396637D01*
Y4390764D01*
X3963862Y4385338D01*
X3968015Y4381185D01*
X3973441Y4378937D01*
X3979315D01*
X3984741Y4381185D01*
X3988894Y4385338D01*
X3991142Y4390764D01*
Y4396637D01*
X3988894Y4402064D01*
X3984741Y4406217D01*
X3979315Y4408465D01*
D02*
G37*
G36*
X3344558Y4441221D02*
X3335363D01*
X3326481Y4438841D01*
X3318518Y4434243D01*
X3312017Y4427741D01*
X3307419Y4419778D01*
X3305039Y4410897D01*
Y4401702D01*
X3307419Y4392820D01*
X3312017Y4384857D01*
X3318518Y4378355D01*
X3326481Y4373758D01*
X3335363Y4371378D01*
X3344558D01*
X3353440Y4373758D01*
X3361403Y4378355D01*
X3367905Y4384857D01*
X3372502Y4392820D01*
X3374882Y4401702D01*
Y4410897D01*
X3372502Y4419778D01*
X3367905Y4427741D01*
X3361403Y4434243D01*
X3353440Y4438841D01*
X3344558Y4441221D01*
D02*
G37*
G36*
X3279961Y4401299D02*
X3244961D01*
Y4366299D01*
X3245227D01*
X3255400Y4369025D01*
X3264521Y4374291D01*
X3271969Y4381739D01*
X3277235Y4390860D01*
X3279961Y4401033D01*
Y4401299D01*
D02*
G37*
G36*
X3234961D02*
X3199961D01*
Y4401033D01*
X3202686Y4390860D01*
X3207953Y4381739D01*
X3215400Y4374291D01*
X3224521Y4369025D01*
X3234695Y4366299D01*
X3234961D01*
Y4401299D01*
D02*
G37*
G36*
X3577740Y4384842D02*
X3571866D01*
X3566440Y4382595D01*
X3562287Y4378442D01*
X3560039Y4373015D01*
Y4367142D01*
X3562287Y4361716D01*
X3566440Y4357563D01*
X3571866Y4355315D01*
X3577740D01*
X3583166Y4357563D01*
X3587319Y4361716D01*
X3589567Y4367142D01*
Y4373015D01*
X3587319Y4378442D01*
X3583166Y4382595D01*
X3577740Y4384842D01*
D02*
G37*
G36*
X5530496Y4353346D02*
X5524622D01*
X5519196Y4351099D01*
X5515043Y4346946D01*
X5512795Y4341519D01*
Y4335646D01*
X5515043Y4330220D01*
X5519196Y4326067D01*
X5524622Y4323819D01*
X5530496D01*
X5535922Y4326067D01*
X5540075Y4330220D01*
X5542323Y4335646D01*
Y4341519D01*
X5540075Y4346946D01*
X5535922Y4351099D01*
X5530496Y4353346D01*
D02*
G37*
G36*
X4325771D02*
X4319898D01*
X4314472Y4351099D01*
X4310319Y4346946D01*
X4308071Y4341519D01*
Y4335646D01*
X4310319Y4330220D01*
X4314472Y4326067D01*
X4319898Y4323819D01*
X4325771D01*
X4331198Y4326067D01*
X4335351Y4330220D01*
X4337598Y4335646D01*
Y4341519D01*
X4335351Y4346946D01*
X4331198Y4351099D01*
X4325771Y4353346D01*
D02*
G37*
G36*
X4085614D02*
X4079740D01*
X4074314Y4351099D01*
X4070161Y4346946D01*
X4067913Y4341519D01*
Y4335646D01*
X4070161Y4330220D01*
X4074314Y4326067D01*
X4079740Y4323819D01*
X4085614D01*
X4091040Y4326067D01*
X4095193Y4330220D01*
X4097441Y4335646D01*
Y4341519D01*
X4095193Y4346946D01*
X4091040Y4351099D01*
X4085614Y4353346D01*
D02*
G37*
G36*
X3443819Y4256063D02*
X3442060D01*
X3429003Y4252564D01*
X3417296Y4245806D01*
X3407738Y4236247D01*
X3402412Y4227022D01*
X3396645Y4227010D01*
X3396197Y4227786D01*
X3389204Y4234779D01*
X3380639Y4239724D01*
X3371142Y4242269D01*
Y4204724D01*
Y4167180D01*
X3380639Y4169725D01*
X3389204Y4174670D01*
X3396197Y4181663D01*
X3396645Y4182439D01*
X3402412Y4182427D01*
X3407738Y4173202D01*
X3417296Y4163643D01*
X3429003Y4156884D01*
X3442060Y4153386D01*
X3443819D01*
Y4204724D01*
Y4256063D01*
D02*
G37*
G36*
X5573000Y4231341D02*
Y4218000D01*
X5586341D01*
X5583987Y4223682D01*
X5578682Y4228987D01*
X5573000Y4231341D01*
D02*
G37*
G36*
X5563000D02*
X5557318Y4228987D01*
X5552013Y4223682D01*
X5549659Y4218000D01*
X5563000D01*
Y4231341D01*
D02*
G37*
G36*
X3455578Y4256063D02*
X3453819D01*
Y4209724D01*
X3500157D01*
Y4211483D01*
X3496659Y4224540D01*
X3489900Y4236247D01*
X3480341Y4245806D01*
X3468635Y4252564D01*
X3455578Y4256063D01*
D02*
G37*
G36*
X3361142Y4242269D02*
X3351645Y4239724D01*
X3343080Y4234779D01*
X3336087Y4227786D01*
X3331142Y4219222D01*
X3328598Y4209724D01*
X3361142D01*
Y4242269D01*
D02*
G37*
G36*
X3120984Y4256063D02*
X3119225D01*
X3106168Y4252564D01*
X3094462Y4245806D01*
X3084903Y4236247D01*
X3078144Y4224540D01*
X3074646Y4211483D01*
Y4209724D01*
X3120984D01*
Y4256063D01*
D02*
G37*
G36*
X5586341Y4208000D02*
X5573000D01*
Y4194659D01*
X5578682Y4197013D01*
X5583987Y4202318D01*
X5586341Y4208000D01*
D02*
G37*
G36*
X5563000D02*
X5549659D01*
X5552013Y4202318D01*
X5557318Y4197013D01*
X5563000Y4194659D01*
Y4208000D01*
D02*
G37*
G36*
X3291678Y4237205D02*
X3283126D01*
X3274865Y4234991D01*
X3267458Y4230715D01*
X3261411Y4224668D01*
X3257135Y4217261D01*
X3254921Y4209001D01*
Y4200448D01*
X3257135Y4192188D01*
X3261411Y4184781D01*
X3267458Y4178734D01*
X3274865Y4174458D01*
X3283126Y4172244D01*
X3291678D01*
X3299939Y4174458D01*
X3307345Y4178734D01*
X3313392Y4184781D01*
X3317668Y4192188D01*
X3319882Y4200448D01*
Y4209001D01*
X3317668Y4217261D01*
X3313392Y4224668D01*
X3307345Y4230715D01*
X3299939Y4234991D01*
X3291678Y4237205D01*
D02*
G37*
G36*
X3132743Y4256063D02*
X3130984D01*
Y4204724D01*
Y4153386D01*
X3132743D01*
X3145800Y4156884D01*
X3157507Y4163643D01*
X3167065Y4173202D01*
X3173824Y4184908D01*
X3174775Y4188457D01*
X3180141Y4189163D01*
X3182671Y4184781D01*
X3188718Y4178734D01*
X3196124Y4174458D01*
X3204385Y4172244D01*
X3212938D01*
X3221198Y4174458D01*
X3228605Y4178734D01*
X3234652Y4184781D01*
X3238928Y4192188D01*
X3241142Y4200448D01*
Y4209001D01*
X3238928Y4217261D01*
X3234652Y4224668D01*
X3228605Y4230715D01*
X3221198Y4234991D01*
X3212938Y4237205D01*
X3204385D01*
X3196124Y4234991D01*
X3188718Y4230715D01*
X3182671Y4224668D01*
X3180141Y4220286D01*
X3174775Y4220992D01*
X3173824Y4224540D01*
X3167065Y4236247D01*
X3157507Y4245806D01*
X3145800Y4252564D01*
X3132743Y4256063D01*
D02*
G37*
G36*
X3361142Y4199724D02*
X3328598D01*
X3331142Y4190227D01*
X3336087Y4181663D01*
X3343080Y4174670D01*
X3351645Y4169725D01*
X3361142Y4167180D01*
Y4199724D01*
D02*
G37*
G36*
X3500157D02*
X3453819D01*
Y4153386D01*
X3455578D01*
X3468635Y4156884D01*
X3480341Y4163643D01*
X3489900Y4173202D01*
X3496659Y4184908D01*
X3500157Y4197966D01*
Y4199724D01*
D02*
G37*
G36*
X3120984D02*
X3074646D01*
Y4197966D01*
X3078144Y4184908D01*
X3084903Y4173202D01*
X3094462Y4163643D01*
X3106168Y4156884D01*
X3119225Y4153386D01*
X3120984D01*
Y4199724D01*
D02*
G37*
G36*
X3829708Y4140748D02*
X3823835D01*
X3818409Y4138500D01*
X3814256Y4134347D01*
X3812008Y4128921D01*
Y4123048D01*
X3814256Y4117621D01*
X3818409Y4113468D01*
X3823835Y4111221D01*
X3829708D01*
X3835135Y4113468D01*
X3839288Y4117621D01*
X3841535Y4123048D01*
Y4128921D01*
X3839288Y4134347D01*
X3835135Y4138500D01*
X3829708Y4140748D01*
D02*
G37*
G36*
X5773439Y4147795D02*
X5772717D01*
Y4109331D01*
X5811181D01*
Y4110053D01*
X5808219Y4121107D01*
X5802497Y4131019D01*
X5794404Y4139111D01*
X5784493Y4144833D01*
X5773439Y4147795D01*
D02*
G37*
G36*
X5762717D02*
X5761994D01*
X5750940Y4144833D01*
X5741029Y4139111D01*
X5732936Y4131019D01*
X5727214Y4121107D01*
X5724252Y4110053D01*
Y4109331D01*
X5762717D01*
Y4147795D01*
D02*
G37*
G36*
X5966352Y4124173D02*
X5965630D01*
Y4085709D01*
X6004095D01*
Y4086431D01*
X6001132Y4097485D01*
X5995410Y4107397D01*
X5987318Y4115489D01*
X5977407Y4121211D01*
X5966352Y4124173D01*
D02*
G37*
G36*
X5955630D02*
X5954908D01*
X5943853Y4121211D01*
X5933942Y4115489D01*
X5925850Y4107397D01*
X5920127Y4097485D01*
X5917166Y4086431D01*
Y4085709D01*
X5955630D01*
Y4124173D01*
D02*
G37*
G36*
X5811181Y4099331D02*
X5772717D01*
Y4060866D01*
X5773439D01*
X5784493Y4063828D01*
X5794404Y4069550D01*
X5802497Y4077643D01*
X5808219Y4087554D01*
X5811181Y4098609D01*
Y4099331D01*
D02*
G37*
G36*
X5762717D02*
X5724252D01*
Y4098609D01*
X5727214Y4087554D01*
X5732936Y4077643D01*
X5741029Y4069550D01*
X5750940Y4063828D01*
X5761994Y4060866D01*
X5762717D01*
Y4099331D01*
D02*
G37*
G36*
X6004095Y4075709D02*
X5965630D01*
Y4037244D01*
X5966352D01*
X5977407Y4040206D01*
X5987318Y4045928D01*
X5995410Y4054021D01*
X6001132Y4063932D01*
X6004095Y4074986D01*
Y4075709D01*
D02*
G37*
G36*
X5955630D02*
X5917166D01*
Y4074986D01*
X5920127Y4063932D01*
X5925850Y4054021D01*
X5933942Y4045928D01*
X5943853Y4040206D01*
X5954908Y4037244D01*
X5955630D01*
Y4075709D01*
D02*
G37*
G36*
X4892700Y4046260D02*
X4886827D01*
X4881401Y4044012D01*
X4877248Y4039859D01*
X4875000Y4034433D01*
Y4028559D01*
X4877248Y4023133D01*
X4881401Y4018980D01*
X4886827Y4016732D01*
X4892700D01*
X4898127Y4018980D01*
X4902280Y4023133D01*
X4904528Y4028559D01*
Y4034433D01*
X4902280Y4039859D01*
X4898127Y4044012D01*
X4892700Y4046260D01*
D02*
G37*
G36*
X3230111Y4005512D02*
X3218708D01*
X3207693Y4002560D01*
X3197818Y3996859D01*
X3189755Y3988796D01*
X3184054Y3978921D01*
X3181102Y3967906D01*
Y3956503D01*
X3184054Y3945489D01*
X3189755Y3935614D01*
X3197818Y3927550D01*
X3207693Y3921849D01*
X3218708Y3918898D01*
X3230111D01*
X3241125Y3921849D01*
X3251001Y3927550D01*
X3259064Y3935614D01*
X3264765Y3945489D01*
X3267716Y3956503D01*
Y3967906D01*
X3264765Y3978921D01*
X3259064Y3988796D01*
X3251001Y3996859D01*
X3241125Y4002560D01*
X3230111Y4005512D01*
D02*
G37*
G36*
X2486017D02*
X2474613D01*
X2463599Y4002560D01*
X2453724Y3996859D01*
X2445661Y3988796D01*
X2439959Y3978921D01*
X2437008Y3967906D01*
Y3956503D01*
X2439959Y3945489D01*
X2445661Y3935614D01*
X2453724Y3927550D01*
X2463599Y3921849D01*
X2474613Y3918898D01*
X2486017D01*
X2497031Y3921849D01*
X2506906Y3927550D01*
X2514969Y3935614D01*
X2520671Y3945489D01*
X2523622Y3956503D01*
Y3967906D01*
X2520671Y3978921D01*
X2514969Y3988796D01*
X2506906Y3996859D01*
X2497031Y4002560D01*
X2486017Y4005512D01*
D02*
G37*
G36*
X3229872Y3903701D02*
X3229409D01*
Y3867205D01*
X3265905D01*
Y3867668D01*
X3263077Y3878222D01*
X3257615Y3887684D01*
X3249889Y3895410D01*
X3240426Y3900873D01*
X3229872Y3903701D01*
D02*
G37*
G36*
X2485778D02*
X2485315D01*
Y3867205D01*
X2521811D01*
Y3867668D01*
X2518983Y3878222D01*
X2513520Y3887684D01*
X2505794Y3895410D01*
X2496332Y3900873D01*
X2485778Y3903701D01*
D02*
G37*
G36*
X3219409D02*
X3218946D01*
X3208392Y3900873D01*
X3198930Y3895410D01*
X3191204Y3887684D01*
X3185741Y3878222D01*
X3182913Y3867668D01*
Y3867205D01*
X3219409D01*
Y3903701D01*
D02*
G37*
G36*
X2475315D02*
X2474852D01*
X2464298Y3900873D01*
X2454836Y3895410D01*
X2447110Y3887684D01*
X2441647Y3878222D01*
X2438819Y3867668D01*
Y3867205D01*
X2475315D01*
Y3903701D01*
D02*
G37*
G36*
X5305358Y3986378D02*
X5300275D01*
Y3863268D01*
X5423386D01*
Y3868350D01*
X5420231Y3888267D01*
X5414000Y3907445D01*
X5404845Y3925412D01*
X5392993Y3941726D01*
X5378734Y3955985D01*
X5362420Y3967837D01*
X5344453Y3976992D01*
X5325275Y3983223D01*
X5305358Y3986378D01*
D02*
G37*
G36*
X5290275D02*
X5285193D01*
X5265276Y3983223D01*
X5246098Y3976992D01*
X5228131Y3967837D01*
X5211817Y3955985D01*
X5197559Y3941726D01*
X5185706Y3925412D01*
X5176551Y3907445D01*
X5170320Y3888267D01*
X5167165Y3868350D01*
Y3863268D01*
X5290275D01*
Y3986378D01*
D02*
G37*
G36*
X4006146D02*
X4001063D01*
Y3863267D01*
X4124173D01*
Y3868350D01*
X4121019Y3888267D01*
X4114787Y3907445D01*
X4105633Y3925412D01*
X4093780Y3941726D01*
X4079521Y3955985D01*
X4063207Y3967837D01*
X4045240Y3976992D01*
X4026062Y3983223D01*
X4006146Y3986378D01*
D02*
G37*
G36*
X3991063D02*
X3985981D01*
X3966064Y3983223D01*
X3946886Y3976992D01*
X3928919Y3967837D01*
X3912605Y3955985D01*
X3898346Y3941726D01*
X3886493Y3925412D01*
X3877339Y3907445D01*
X3871107Y3888267D01*
X3867953Y3868350D01*
Y3863267D01*
X3991063D01*
Y3986378D01*
D02*
G37*
G36*
X3265905Y3857205D02*
X3229409D01*
Y3820709D01*
X3229872D01*
X3240426Y3823537D01*
X3249889Y3829000D01*
X3257615Y3836726D01*
X3263077Y3846188D01*
X3265905Y3856742D01*
Y3857205D01*
D02*
G37*
G36*
X3219409D02*
X3182913D01*
Y3856742D01*
X3185741Y3846188D01*
X3191204Y3836726D01*
X3198930Y3829000D01*
X3208392Y3823537D01*
X3218946Y3820709D01*
X3219409D01*
Y3857205D01*
D02*
G37*
G36*
X2521811D02*
X2485315D01*
Y3820709D01*
X2485778D01*
X2496332Y3823537D01*
X2505794Y3829000D01*
X2513520Y3836726D01*
X2518983Y3846188D01*
X2521811Y3856742D01*
Y3857205D01*
D02*
G37*
G36*
X2475315D02*
X2438819D01*
Y3856742D01*
X2441647Y3846188D01*
X2447110Y3836726D01*
X2454836Y3829000D01*
X2464298Y3823537D01*
X2474852Y3820709D01*
X2475315D01*
Y3857205D01*
D02*
G37*
G36*
X5451364Y3764764D02*
X5446274D01*
X5441571Y3762816D01*
X5437971Y3759216D01*
X5436024Y3754514D01*
Y3749423D01*
X5437971Y3744720D01*
X5441571Y3741121D01*
X5446274Y3739173D01*
X5451364D01*
X5456067Y3741121D01*
X5459666Y3744720D01*
X5461614Y3749423D01*
Y3754514D01*
X5459666Y3759216D01*
X5456067Y3762816D01*
X5451364Y3764764D01*
D02*
G37*
G36*
X5423386Y3853268D02*
X5300275D01*
Y3730157D01*
X5305358D01*
X5325275Y3733312D01*
X5344453Y3739543D01*
X5362420Y3748698D01*
X5378734Y3760551D01*
X5392993Y3774809D01*
X5404845Y3791123D01*
X5414000Y3809090D01*
X5420231Y3828269D01*
X5423386Y3848185D01*
Y3853268D01*
D02*
G37*
G36*
X5290275D02*
X5167165D01*
Y3848185D01*
X5170320Y3828269D01*
X5176551Y3809090D01*
X5185706Y3791123D01*
X5197559Y3774809D01*
X5211817Y3760551D01*
X5228131Y3748698D01*
X5246098Y3739543D01*
X5265276Y3733312D01*
X5285193Y3730157D01*
X5290275D01*
Y3853268D01*
D02*
G37*
G36*
X4124173Y3853267D02*
X4001063D01*
Y3730157D01*
X4006146D01*
X4026062Y3733312D01*
X4045240Y3739543D01*
X4063207Y3748698D01*
X4079521Y3760551D01*
X4093780Y3774809D01*
X4105633Y3791123D01*
X4114787Y3809090D01*
X4121019Y3828269D01*
X4124173Y3848185D01*
Y3853267D01*
D02*
G37*
G36*
X3991063D02*
X3867953D01*
Y3848185D01*
X3871107Y3828269D01*
X3877339Y3809090D01*
X3886493Y3791123D01*
X3898346Y3774809D01*
X3912605Y3760551D01*
X3928919Y3748698D01*
X3946886Y3739543D01*
X3966064Y3733312D01*
X3985981Y3730157D01*
X3991063D01*
Y3853267D01*
D02*
G37*
G36*
X3229204Y3798622D02*
X3219615D01*
X3210353Y3796140D01*
X3202049Y3791346D01*
X3195268Y3784565D01*
X3190474Y3776261D01*
X3187992Y3766999D01*
Y3757410D01*
X3190474Y3748148D01*
X3195268Y3739844D01*
X3202049Y3733064D01*
X3210353Y3728269D01*
X3219615Y3725787D01*
X3229204D01*
X3238466Y3728269D01*
X3246770Y3733064D01*
X3253550Y3739844D01*
X3258345Y3748148D01*
X3260827Y3757410D01*
Y3766999D01*
X3258345Y3776261D01*
X3253550Y3784565D01*
X3246770Y3791346D01*
X3238466Y3796140D01*
X3229204Y3798622D01*
D02*
G37*
G36*
X2485109D02*
X2475521D01*
X2466258Y3796140D01*
X2457954Y3791346D01*
X2451174Y3784565D01*
X2446380Y3776261D01*
X2443898Y3766999D01*
Y3757410D01*
X2446380Y3748148D01*
X2451174Y3739844D01*
X2457954Y3733064D01*
X2466258Y3728269D01*
X2475521Y3725787D01*
X2485109D01*
X2494372Y3728269D01*
X2502676Y3733064D01*
X2509456Y3739844D01*
X2514251Y3748148D01*
X2516732Y3757410D01*
Y3766999D01*
X2514251Y3776261D01*
X2509456Y3784565D01*
X2502676Y3791346D01*
X2494372Y3796140D01*
X2485109Y3798622D01*
D02*
G37*
G36*
X5451364Y3729331D02*
X5446274D01*
X5441571Y3727383D01*
X5437971Y3723783D01*
X5436024Y3719081D01*
Y3713990D01*
X5437971Y3709287D01*
X5441571Y3705688D01*
X5446274Y3703740D01*
X5451364D01*
X5456067Y3705688D01*
X5459666Y3709287D01*
X5461614Y3713990D01*
Y3719081D01*
X5459666Y3723783D01*
X5456067Y3727383D01*
X5451364Y3729331D01*
D02*
G37*
G36*
X5069866Y3680118D02*
X5063992D01*
X5058566Y3677870D01*
X5054413Y3673717D01*
X5052165Y3668291D01*
Y3662418D01*
X5054413Y3656991D01*
X5058566Y3652838D01*
X5063992Y3650590D01*
X5069866D01*
X5075292Y3652838D01*
X5079445Y3656991D01*
X5081693Y3662418D01*
Y3668291D01*
X5079445Y3673717D01*
X5075292Y3677870D01*
X5069866Y3680118D01*
D02*
G37*
G36*
X5451364Y3623032D02*
X5446274D01*
X5441571Y3621084D01*
X5437971Y3617484D01*
X5436024Y3612781D01*
Y3607691D01*
X5437971Y3602988D01*
X5441571Y3599389D01*
X5446274Y3597441D01*
X5451364D01*
X5456067Y3599389D01*
X5459666Y3602988D01*
X5461614Y3607691D01*
Y3612781D01*
X5459666Y3617484D01*
X5456067Y3621084D01*
X5451364Y3623032D01*
D02*
G37*
G36*
Y3552165D02*
X5446274D01*
X5441571Y3550218D01*
X5437971Y3546618D01*
X5436024Y3541915D01*
Y3536825D01*
X5437971Y3532122D01*
X5441571Y3528523D01*
X5446274Y3526575D01*
X5451364D01*
X5456067Y3528523D01*
X5459666Y3532122D01*
X5461614Y3536825D01*
Y3541915D01*
X5459666Y3546618D01*
X5456067Y3550218D01*
X5451364Y3552165D01*
D02*
G37*
G36*
X1565201Y3632047D02*
X1560118D01*
Y3508937D01*
X1683228D01*
Y3514019D01*
X1680074Y3533936D01*
X1673842Y3553114D01*
X1664688Y3571081D01*
X1652835Y3587395D01*
X1638576Y3601654D01*
X1622263Y3613507D01*
X1604295Y3622661D01*
X1585117Y3628893D01*
X1565201Y3632047D01*
D02*
G37*
G36*
X1550118D02*
X1545036D01*
X1525119Y3628893D01*
X1505941Y3622661D01*
X1487974Y3613507D01*
X1471660Y3601654D01*
X1457401Y3587395D01*
X1445549Y3571081D01*
X1436394Y3553114D01*
X1430162Y3533936D01*
X1427008Y3514019D01*
Y3508937D01*
X1550118D01*
Y3632047D01*
D02*
G37*
G36*
X2470712D02*
X2465630D01*
Y3508937D01*
X2588740D01*
Y3514019D01*
X2585586Y3533936D01*
X2579354Y3553114D01*
X2570200Y3571081D01*
X2558347Y3587395D01*
X2544088Y3601654D01*
X2527774Y3613507D01*
X2509807Y3622661D01*
X2490629Y3628893D01*
X2470712Y3632047D01*
D02*
G37*
G36*
X2455630D02*
X2450547D01*
X2430631Y3628893D01*
X2411453Y3622661D01*
X2393485Y3613507D01*
X2377172Y3601654D01*
X2362913Y3587395D01*
X2351060Y3571081D01*
X2341906Y3553114D01*
X2335674Y3533936D01*
X2332520Y3514019D01*
Y3508937D01*
X2455630D01*
Y3632047D01*
D02*
G37*
G36*
X5451364Y3516732D02*
X5446274D01*
X5441571Y3514784D01*
X5437971Y3511185D01*
X5436024Y3506482D01*
Y3501392D01*
X5437971Y3496689D01*
X5441571Y3493090D01*
X5446274Y3491142D01*
X5451364D01*
X5456067Y3493090D01*
X5459666Y3496689D01*
X5461614Y3501392D01*
Y3506482D01*
X5459666Y3511185D01*
X5456067Y3514784D01*
X5451364Y3516732D01*
D02*
G37*
G36*
X2588740Y3498937D02*
X2465630D01*
Y3375827D01*
X2470712D01*
X2490629Y3378981D01*
X2509807Y3385213D01*
X2527774Y3394367D01*
X2544088Y3406220D01*
X2558347Y3420479D01*
X2570200Y3436793D01*
X2579354Y3454760D01*
X2585586Y3473938D01*
X2588740Y3493854D01*
Y3498937D01*
D02*
G37*
G36*
X2455630D02*
X2332520D01*
Y3493854D01*
X2335674Y3473938D01*
X2341906Y3454760D01*
X2351060Y3436793D01*
X2362913Y3420479D01*
X2377172Y3406220D01*
X2393485Y3394367D01*
X2411453Y3385213D01*
X2430631Y3378981D01*
X2450547Y3375827D01*
X2455630D01*
Y3498937D01*
D02*
G37*
G36*
X1683228Y3498937D02*
X1560118D01*
Y3375827D01*
X1565201D01*
X1585117Y3378981D01*
X1604295Y3385213D01*
X1622263Y3394367D01*
X1638576Y3406220D01*
X1652835Y3420479D01*
X1664688Y3436793D01*
X1673842Y3454760D01*
X1680074Y3473938D01*
X1683228Y3493854D01*
Y3498937D01*
D02*
G37*
G36*
X1550118D02*
X1427008D01*
Y3493854D01*
X1430162Y3473938D01*
X1436394Y3454760D01*
X1445549Y3436793D01*
X1457401Y3420479D01*
X1471660Y3406220D01*
X1487974Y3394367D01*
X1505941Y3385213D01*
X1525119Y3378981D01*
X1545036Y3375827D01*
X1550118D01*
Y3498937D01*
D02*
G37*
G36*
X6074803Y3902965D02*
X5484252D01*
X5480485Y3901404D01*
X5478925Y3897638D01*
Y3787402D01*
X5480485Y3783635D01*
X5484252Y3782075D01*
X5526169D01*
Y3409449D01*
X5527729Y3405682D01*
X5531496Y3404122D01*
X5553728D01*
Y3362205D01*
X5555288Y3358438D01*
X5559055Y3356878D01*
X5736220D01*
X5739987Y3358438D01*
X5741547Y3362205D01*
Y3411996D01*
X6074803D01*
X6078570Y3413556D01*
X6080130Y3417323D01*
Y3897638D01*
X6078570Y3901404D01*
X6074803Y3902965D01*
D02*
G37*
G36*
X2517604Y3363386D02*
X2504128D01*
X2491111Y3359898D01*
X2479440Y3353160D01*
X2469911Y3343631D01*
X2463173Y3331960D01*
X2460157Y3320706D01*
X2455157Y3321365D01*
Y3356496D01*
X2366575D01*
Y3267913D01*
X2455157D01*
Y3303045D01*
X2460157Y3303703D01*
X2463173Y3292450D01*
X2469911Y3280779D01*
X2479440Y3271250D01*
X2490445Y3264896D01*
X2490804Y3262205D01*
X2490445Y3259514D01*
X2479440Y3253160D01*
X2469911Y3243631D01*
X2463173Y3231960D01*
X2461128Y3224329D01*
X2455172Y3221420D01*
X2454133Y3221860D01*
X2452139Y3229300D01*
X2446308Y3239400D01*
X2438062Y3247647D01*
X2427962Y3253478D01*
X2416697Y3256496D01*
X2405035D01*
X2393770Y3253478D01*
X2383671Y3247647D01*
X2375424Y3239400D01*
X2369593Y3229300D01*
X2366575Y3218036D01*
Y3206374D01*
X2369593Y3195109D01*
X2375424Y3185009D01*
X2383671Y3176763D01*
X2393770Y3170932D01*
X2405035Y3167913D01*
X2416697D01*
X2427962Y3170932D01*
X2438062Y3176763D01*
X2446308Y3185009D01*
X2452139Y3195109D01*
X2454133Y3202549D01*
X2455172Y3202989D01*
X2461128Y3200080D01*
X2463173Y3192450D01*
X2469911Y3180779D01*
X2479440Y3171250D01*
X2491111Y3164512D01*
X2493889Y3163767D01*
Y3158767D01*
X2491810Y3158210D01*
X2480552Y3151711D01*
X2471360Y3142519D01*
X2464860Y3131261D01*
X2461496Y3118704D01*
Y3117205D01*
X2510866D01*
X2560236D01*
Y3118704D01*
X2556872Y3131261D01*
X2550372Y3142519D01*
X2541180Y3151711D01*
X2529922Y3158210D01*
X2527844Y3158767D01*
Y3163767D01*
X2530621Y3164512D01*
X2542292Y3171250D01*
X2551821Y3180779D01*
X2558559Y3192450D01*
X2562047Y3205467D01*
Y3218943D01*
X2558559Y3231960D01*
X2551821Y3243631D01*
X2542292Y3253160D01*
X2531287Y3259514D01*
X2530929Y3262205D01*
X2531287Y3264896D01*
X2542292Y3271250D01*
X2551821Y3280779D01*
X2558559Y3292450D01*
X2562047Y3305467D01*
Y3318943D01*
X2558559Y3331960D01*
X2551821Y3343631D01*
X2542292Y3353160D01*
X2530621Y3359898D01*
X2517604Y3363386D01*
D02*
G37*
G36*
X4897146Y3278496D02*
X4888854D01*
X4880843Y3276350D01*
X4873661Y3272203D01*
X4867797Y3266339D01*
X4863650Y3259157D01*
X4861504Y3251146D01*
Y3242854D01*
X4863650Y3234843D01*
X4867797Y3227661D01*
X4873661Y3221797D01*
X4880843Y3217650D01*
X4888854Y3215504D01*
X4897146D01*
X4905157Y3217650D01*
X4912339Y3221797D01*
X4918203Y3227661D01*
X4922350Y3234843D01*
X4924496Y3242854D01*
Y3251146D01*
X4922350Y3259157D01*
X4918203Y3266339D01*
X4912339Y3272203D01*
X4905157Y3276350D01*
X4897146Y3278496D01*
D02*
G37*
G36*
X5333645Y3144685D02*
X5327772D01*
X5322346Y3142437D01*
X5318193Y3138284D01*
X5315945Y3132858D01*
Y3126985D01*
X5318193Y3121558D01*
X5322346Y3117405D01*
X5327772Y3115157D01*
X5333645D01*
X5339072Y3117405D01*
X5343225Y3121558D01*
X5345472Y3126985D01*
Y3132858D01*
X5343225Y3138284D01*
X5339072Y3142437D01*
X5333645Y3144685D01*
D02*
G37*
G36*
X5909075Y3118307D02*
X5901949D01*
X5895365Y3115580D01*
X5890326Y3110541D01*
X5887598Y3103957D01*
Y3096831D01*
X5890326Y3090247D01*
X5895365Y3085207D01*
X5901949Y3082480D01*
X5909075D01*
X5915659Y3085207D01*
X5920698Y3090247D01*
X5923425Y3096831D01*
Y3103957D01*
X5920698Y3110541D01*
X5915659Y3115580D01*
X5909075Y3118307D01*
D02*
G37*
G36*
X2416697Y3156496D02*
X2405035D01*
X2393770Y3153478D01*
X2383671Y3147647D01*
X2375424Y3139400D01*
X2369593Y3129300D01*
X2366575Y3118036D01*
Y3106374D01*
X2369593Y3095109D01*
X2375424Y3085009D01*
X2383671Y3076763D01*
X2393770Y3070932D01*
X2405035Y3067913D01*
X2416697D01*
X2427962Y3070932D01*
X2438062Y3076763D01*
X2446308Y3085009D01*
X2452139Y3095109D01*
X2455157Y3106374D01*
Y3118036D01*
X2452139Y3129300D01*
X2446308Y3139400D01*
X2438062Y3147647D01*
X2427962Y3153478D01*
X2416697Y3156496D01*
D02*
G37*
G36*
X2560236Y3107205D02*
X2515866D01*
Y3062835D01*
X2517366D01*
X2529922Y3066199D01*
X2541180Y3072699D01*
X2550372Y3081891D01*
X2556872Y3093149D01*
X2560236Y3105705D01*
Y3107205D01*
D02*
G37*
G36*
X2505866D02*
X2461496D01*
Y3105705D01*
X2464860Y3093149D01*
X2471360Y3081891D01*
X2480552Y3072699D01*
X2491810Y3066199D01*
X2504366Y3062835D01*
X2505866D01*
Y3107205D01*
D02*
G37*
G36*
X5815866Y3078674D02*
X5808648Y3076740D01*
X5801430Y3072573D01*
X5795537Y3066680D01*
X5791370Y3059462D01*
X5789436Y3052244D01*
X5815866D01*
Y3078674D01*
D02*
G37*
G36*
X5995158Y3078675D02*
Y3052244D01*
X6021588D01*
X6019654Y3059462D01*
X6015487Y3066680D01*
X6009593Y3072573D01*
X6002375Y3076740D01*
X5995158Y3078675D01*
D02*
G37*
G36*
X5985158D02*
X5977940Y3076740D01*
X5970722Y3072573D01*
X5964828Y3066680D01*
X5960661Y3059462D01*
X5958727Y3052244D01*
X5985158D01*
Y3078675D01*
D02*
G37*
G36*
X5815866Y3042244D02*
X5789436D01*
X5791370Y3035026D01*
X5795537Y3027808D01*
X5801430Y3021915D01*
X5808648Y3017748D01*
X5815866Y3015814D01*
Y3042244D01*
D02*
G37*
G36*
X6021588Y3042244D02*
X5995158D01*
Y3015814D01*
X6002375Y3017748D01*
X6009593Y3021915D01*
X6015487Y3027808D01*
X6019654Y3035026D01*
X6021588Y3042244D01*
D02*
G37*
G36*
X5985158D02*
X5958727D01*
X5960661Y3035026D01*
X5964828Y3027808D01*
X5970722Y3021915D01*
X5977940Y3017748D01*
X5985158Y3015814D01*
Y3042244D01*
D02*
G37*
G36*
X5910876Y3054528D02*
X5905786D01*
X5901083Y3052580D01*
X5897483Y3048980D01*
X5895535Y3044277D01*
Y3039187D01*
X5897483Y3034484D01*
X5900668Y3031299D01*
X5897483Y3028114D01*
X5895535Y3023411D01*
Y3018321D01*
X5897483Y3013618D01*
X5901083Y3010019D01*
X5905786Y3008071D01*
X5910876D01*
X5915579Y3010019D01*
X5919178Y3013618D01*
X5921126Y3018321D01*
Y3023411D01*
X5919178Y3028114D01*
X5915993Y3031299D01*
X5919178Y3034484D01*
X5921126Y3039187D01*
Y3044277D01*
X5919178Y3048980D01*
X5915579Y3052580D01*
X5910876Y3054528D01*
D02*
G37*
G36*
X5825866Y3078675D02*
Y3047244D01*
Y3015814D01*
X5833084Y3017748D01*
X5840302Y3021915D01*
X5842821Y3024435D01*
X5843166Y3024358D01*
X5847441Y3021983D01*
Y3018321D01*
X5849389Y3013618D01*
X5852988Y3010019D01*
X5857691Y3008071D01*
X5862781D01*
X5867484Y3010019D01*
X5871084Y3013618D01*
X5873032Y3018321D01*
Y3023411D01*
X5871084Y3028114D01*
X5867899Y3031299D01*
X5871084Y3034484D01*
X5873032Y3039187D01*
Y3044277D01*
X5871084Y3048980D01*
X5867484Y3052580D01*
X5862781Y3054528D01*
X5857691D01*
X5856944Y3054218D01*
X5850991Y3057115D01*
X5850362Y3059462D01*
X5846195Y3066680D01*
X5840302Y3072573D01*
X5833084Y3076740D01*
X5825866Y3078675D01*
D02*
G37*
G36*
X2516697Y3056496D02*
X2505035D01*
X2493770Y3053478D01*
X2483671Y3047647D01*
X2475424Y3039400D01*
X2469593Y3029300D01*
X2466575Y3018036D01*
Y3006374D01*
X2469593Y2995109D01*
X2475424Y2985009D01*
X2483671Y2976763D01*
X2493770Y2970932D01*
X2505035Y2967913D01*
X2516697D01*
X2527962Y2970932D01*
X2538062Y2976763D01*
X2546308Y2985009D01*
X2552139Y2995109D01*
X2555157Y3006374D01*
Y3018036D01*
X2552139Y3029300D01*
X2546308Y3039400D01*
X2538062Y3047647D01*
X2527962Y3053478D01*
X2516697Y3056496D01*
D02*
G37*
G36*
X2416697D02*
X2405035D01*
X2393770Y3053478D01*
X2383671Y3047647D01*
X2375424Y3039400D01*
X2369593Y3029300D01*
X2366575Y3018036D01*
Y3006374D01*
X2369593Y2995109D01*
X2375424Y2985009D01*
X2383671Y2976763D01*
X2393770Y2970932D01*
X2405035Y2967913D01*
X2416697D01*
X2427962Y2970932D01*
X2438062Y2976763D01*
X2446308Y2985009D01*
X2452139Y2995109D01*
X2455157Y3006374D01*
Y3018036D01*
X2452139Y3029300D01*
X2446308Y3039400D01*
X2438062Y3047647D01*
X2427962Y3053478D01*
X2416697Y3056496D01*
D02*
G37*
G36*
X5466937Y2997315D02*
X5461063D01*
X5455637Y2995067D01*
X5451484Y2990914D01*
X5449236Y2985488D01*
Y2979615D01*
X5451484Y2974188D01*
X5455637Y2970035D01*
X5461063Y2967787D01*
X5466937D01*
X5472363Y2970035D01*
X5476516Y2974188D01*
X5478764Y2979615D01*
Y2985488D01*
X5476516Y2990914D01*
X5472363Y2995067D01*
X5466937Y2997315D01*
D02*
G37*
G36*
X5977937Y2996866D02*
X5972063D01*
X5966637Y2994619D01*
X5962484Y2990465D01*
X5960236Y2985039D01*
Y2979166D01*
X5962484Y2973739D01*
X5966637Y2969586D01*
X5972063Y2967339D01*
X5977937D01*
X5983363Y2969586D01*
X5987516Y2973739D01*
X5989764Y2979166D01*
Y2985039D01*
X5987516Y2990465D01*
X5983363Y2994619D01*
X5977937Y2996866D01*
D02*
G37*
G36*
X5713661Y2970032D02*
Y2957756D01*
X5725937D01*
X5723814Y2962881D01*
X5718786Y2967909D01*
X5713661Y2970032D01*
D02*
G37*
G36*
X5703661D02*
X5698537Y2967909D01*
X5693508Y2962881D01*
X5691386Y2957756D01*
X5703661D01*
Y2970032D01*
D02*
G37*
G36*
X5725937Y2947756D02*
X5713661D01*
Y2935480D01*
X5718786Y2937603D01*
X5723814Y2942631D01*
X5725937Y2947756D01*
D02*
G37*
G36*
X5703661D02*
X5691386D01*
X5693508Y2942631D01*
X5698537Y2937603D01*
X5703661Y2935480D01*
Y2947756D01*
D02*
G37*
G36*
X5908057Y2979331D02*
X5902967D01*
X5898264Y2977383D01*
X5894664Y2973783D01*
X5892717Y2969081D01*
Y2963990D01*
X5894516Y2959646D01*
X5892717Y2955301D01*
Y2950211D01*
X5894516Y2945866D01*
X5892717Y2941521D01*
Y2936431D01*
X5894664Y2931728D01*
X5898264Y2928129D01*
X5902967Y2926181D01*
X5908057D01*
X5912760Y2928129D01*
X5916359Y2931728D01*
X5916513Y2932100D01*
X5922411Y2933273D01*
X5922752Y2932932D01*
X5927455Y2930984D01*
X5932545D01*
X5937248Y2932932D01*
X5940847Y2936532D01*
X5942795Y2941234D01*
Y2946325D01*
X5940847Y2951028D01*
X5937741Y2954134D01*
X5940847Y2957240D01*
X5942795Y2961943D01*
Y2967033D01*
X5940847Y2971736D01*
X5937248Y2975336D01*
X5932545Y2977284D01*
X5927455D01*
X5922752Y2975336D01*
X5921604Y2974187D01*
X5916558Y2973799D01*
X5915513Y2974630D01*
X5912760Y2977383D01*
X5908057Y2979331D01*
D02*
G37*
G36*
X5865545Y2977284D02*
X5860455D01*
X5855752Y2975336D01*
X5852153Y2971736D01*
X5850205Y2967033D01*
Y2961943D01*
X5852153Y2957240D01*
X5855259Y2954134D01*
X5852153Y2951028D01*
X5850205Y2946325D01*
Y2941234D01*
X5852153Y2936532D01*
X5855752Y2932932D01*
X5860455Y2930984D01*
X5865545D01*
X5870248Y2932932D01*
X5873847Y2936532D01*
X5875795Y2941234D01*
Y2946325D01*
X5873847Y2951028D01*
X5870741Y2954134D01*
X5873847Y2957240D01*
X5875795Y2961943D01*
Y2967033D01*
X5873847Y2971736D01*
X5870248Y2975336D01*
X5865545Y2977284D01*
D02*
G37*
G36*
X5644749Y3005905D02*
X5639658D01*
X5634956Y3003958D01*
X5631356Y3000358D01*
X5629408Y2995655D01*
Y2990565D01*
X5631356Y2985862D01*
X5634541Y2982677D01*
X5631356Y2979492D01*
X5629408Y2974789D01*
Y2969699D01*
X5631356Y2964996D01*
X5634956Y2961397D01*
X5639658Y2959449D01*
X5644749D01*
X5649452Y2961397D01*
X5650883Y2962828D01*
X5655883Y2960757D01*
Y2960250D01*
X5657831Y2955547D01*
X5661016Y2952362D01*
X5657831Y2949177D01*
X5655883Y2944474D01*
Y2939384D01*
X5657831Y2934681D01*
X5661430Y2931082D01*
X5666133Y2929134D01*
X5671223D01*
X5675926Y2931082D01*
X5679525Y2934681D01*
X5681473Y2939384D01*
Y2944474D01*
X5679525Y2949177D01*
X5676340Y2952362D01*
X5679525Y2955547D01*
X5681473Y2960250D01*
Y2965340D01*
X5679525Y2970043D01*
X5675926Y2973643D01*
X5671223Y2975591D01*
X5666133D01*
X5661430Y2973643D01*
X5659999Y2972212D01*
X5654999Y2974283D01*
Y2974789D01*
X5653051Y2979492D01*
X5649866Y2982677D01*
X5653051Y2985862D01*
X5654999Y2990565D01*
Y2995655D01*
X5653051Y3000358D01*
X5649452Y3003958D01*
X5644749Y3005905D01*
D02*
G37*
G36*
X2417366Y2961575D02*
X2415866D01*
Y2917205D01*
X2460236D01*
Y2918704D01*
X2456872Y2931261D01*
X2450372Y2942519D01*
X2441180Y2951711D01*
X2429922Y2958210D01*
X2417366Y2961575D01*
D02*
G37*
G36*
X2405866D02*
X2404366D01*
X2391810Y2958210D01*
X2380552Y2951711D01*
X2371360Y2942519D01*
X2364860Y2931261D01*
X2361496Y2918704D01*
Y2917205D01*
X2405866D01*
Y2961575D01*
D02*
G37*
G36*
X5790937Y2938866D02*
X5785063D01*
X5779637Y2936619D01*
X5775484Y2932465D01*
X5773236Y2927039D01*
Y2921166D01*
X5775484Y2915739D01*
X5779637Y2911586D01*
X5785063Y2909339D01*
X5790937D01*
X5796363Y2911586D01*
X5800516Y2915739D01*
X5802764Y2921166D01*
Y2927039D01*
X5800516Y2932465D01*
X5796363Y2936619D01*
X5790937Y2938866D01*
D02*
G37*
G36*
X5233937Y2938315D02*
X5228063D01*
X5222637Y2936067D01*
X5218484Y2931914D01*
X5216236Y2926488D01*
Y2920615D01*
X5218484Y2915188D01*
X5222637Y2911035D01*
X5228063Y2908787D01*
X5233937D01*
X5239363Y2911035D01*
X5243516Y2915188D01*
X5245764Y2920615D01*
Y2926488D01*
X5243516Y2931914D01*
X5239363Y2936067D01*
X5233937Y2938315D01*
D02*
G37*
G36*
X5862781Y2897047D02*
X5857691D01*
X5852988Y2895099D01*
X5849389Y2891500D01*
X5847441Y2886797D01*
Y2883529D01*
X5842617Y2881282D01*
X5840302Y2883597D01*
X5833084Y2887764D01*
X5825866Y2889698D01*
Y2858268D01*
Y2826837D01*
X5833084Y2828771D01*
X5840302Y2832939D01*
X5846195Y2838832D01*
X5850362Y2846050D01*
X5850950Y2848241D01*
X5856896Y2851117D01*
X5857691Y2850787D01*
X5862781D01*
X5867484Y2852735D01*
X5871084Y2856335D01*
X5873032Y2861038D01*
Y2866128D01*
X5871084Y2870831D01*
X5867997Y2873917D01*
X5871084Y2877004D01*
X5873032Y2881707D01*
Y2886797D01*
X5871084Y2891500D01*
X5867484Y2895099D01*
X5862781Y2897047D01*
D02*
G37*
G36*
X5333645Y2900591D02*
X5327772D01*
X5322346Y2898343D01*
X5318193Y2894190D01*
X5315945Y2888764D01*
Y2882890D01*
X5318193Y2877464D01*
X5322346Y2873311D01*
X5327772Y2871063D01*
X5333645D01*
X5339072Y2873311D01*
X5343225Y2877464D01*
X5345472Y2882890D01*
Y2888764D01*
X5343225Y2894190D01*
X5339072Y2898343D01*
X5333645Y2900591D01*
D02*
G37*
G36*
X2516697Y2956496D02*
X2505035D01*
X2493770Y2953478D01*
X2483671Y2947647D01*
X2475424Y2939400D01*
X2469593Y2929300D01*
X2466575Y2918036D01*
Y2906374D01*
X2469593Y2895109D01*
X2475424Y2885009D01*
X2483671Y2876763D01*
X2493770Y2870932D01*
X2505035Y2867913D01*
X2516697D01*
X2527962Y2870932D01*
X2538062Y2876763D01*
X2546308Y2885009D01*
X2552139Y2895109D01*
X2555157Y2906374D01*
Y2918036D01*
X2552139Y2929300D01*
X2546308Y2939400D01*
X2538062Y2947647D01*
X2527962Y2953478D01*
X2516697Y2956496D01*
D02*
G37*
G36*
X5815866Y2889698D02*
X5808648Y2887764D01*
X5801430Y2883597D01*
X5795537Y2877703D01*
X5791370Y2870485D01*
X5789436Y2863268D01*
X5815866D01*
Y2889698D01*
D02*
G37*
G36*
X5995158Y2889698D02*
Y2863267D01*
X6021588D01*
X6019654Y2870485D01*
X6015487Y2877703D01*
X6009593Y2883597D01*
X6002375Y2887764D01*
X5995158Y2889698D01*
D02*
G37*
G36*
X2460236Y2907205D02*
X2415866D01*
Y2862835D01*
X2417366D01*
X2429922Y2866199D01*
X2441180Y2872699D01*
X2450372Y2881891D01*
X2456872Y2893149D01*
X2460236Y2905705D01*
Y2907205D01*
D02*
G37*
G36*
X2405866D02*
X2361496D01*
Y2905705D01*
X2364860Y2893149D01*
X2371360Y2881891D01*
X2380552Y2872699D01*
X2391810Y2866199D01*
X2404366Y2862835D01*
X2405866D01*
Y2907205D01*
D02*
G37*
G36*
X5617270Y2893701D02*
X5612179D01*
X5607476Y2891753D01*
X5603877Y2888153D01*
X5601929Y2883451D01*
Y2878360D01*
X5603877Y2873657D01*
X5607476Y2870058D01*
X5612179Y2868110D01*
X5616535D01*
Y2863203D01*
X5618483Y2858500D01*
X5622083Y2854901D01*
X5626786Y2852953D01*
X5631876D01*
X5636579Y2854901D01*
X5640178Y2858500D01*
X5642126Y2863203D01*
Y2868293D01*
X5640178Y2872996D01*
X5636579Y2876595D01*
X5631876Y2878543D01*
X5627520D01*
Y2883451D01*
X5625572Y2888153D01*
X5621972Y2891753D01*
X5617270Y2893701D01*
D02*
G37*
G36*
X5815866Y2853268D02*
X5789436D01*
X5791370Y2846050D01*
X5795537Y2838832D01*
X5801430Y2832939D01*
X5808648Y2828771D01*
X5815866Y2826837D01*
Y2853268D01*
D02*
G37*
G36*
X6021588Y2853267D02*
X5995158D01*
Y2826837D01*
X6002375Y2828771D01*
X6009593Y2832939D01*
X6015487Y2838832D01*
X6019654Y2846050D01*
X6021588Y2853267D01*
D02*
G37*
G36*
X5946103Y2897047D02*
X5941013D01*
X5936310Y2895099D01*
X5932711Y2891500D01*
X5930763Y2886797D01*
Y2881707D01*
X5932711Y2877004D01*
X5935797Y2873917D01*
X5932711Y2870831D01*
X5930763Y2866128D01*
Y2861038D01*
X5932711Y2856335D01*
X5936310Y2852735D01*
X5941013Y2850787D01*
X5946103D01*
X5950806Y2852735D01*
X5953504Y2855433D01*
X5957912Y2854309D01*
X5958546Y2853943D01*
X5960661Y2846050D01*
X5964828Y2838832D01*
X5970722Y2832939D01*
X5977940Y2828771D01*
X5985158Y2826837D01*
Y2858267D01*
Y2889698D01*
X5977940Y2887764D01*
X5970722Y2883597D01*
X5964828Y2877703D01*
X5960661Y2870485D01*
X5960386Y2869458D01*
X5955117Y2869113D01*
X5954406Y2870831D01*
X5951319Y2873917D01*
X5954406Y2877004D01*
X5956354Y2881707D01*
Y2886797D01*
X5954406Y2891500D01*
X5950806Y2895099D01*
X5946103Y2897047D01*
D02*
G37*
G36*
X5905512Y2830044D02*
X5899137Y2828776D01*
X5893732Y2825165D01*
X5890121Y2819761D01*
X5888853Y2813386D01*
Y2796850D01*
X5890121Y2790475D01*
X5893732Y2785071D01*
X5899137Y2781460D01*
X5905512Y2780192D01*
X5911887Y2781460D01*
X5917291Y2785071D01*
X5920902Y2790475D01*
X5922171Y2796850D01*
Y2813386D01*
X5920902Y2819761D01*
X5917291Y2825165D01*
X5911887Y2828776D01*
X5905512Y2830044D01*
D02*
G37*
G36*
X2516697Y2856496D02*
X2505035D01*
X2493770Y2853478D01*
X2483671Y2847647D01*
X2475424Y2839400D01*
X2469593Y2829300D01*
X2466575Y2818036D01*
Y2806374D01*
X2469593Y2795109D01*
X2475424Y2785009D01*
X2483671Y2776763D01*
X2493770Y2770932D01*
X2505035Y2767913D01*
X2516697D01*
X2527962Y2770932D01*
X2538062Y2776763D01*
X2546308Y2785009D01*
X2552139Y2795109D01*
X2555157Y2806374D01*
Y2818036D01*
X2552139Y2829300D01*
X2546308Y2839400D01*
X2538062Y2847647D01*
X2527962Y2853478D01*
X2516697Y2856496D01*
D02*
G37*
G36*
X2416697D02*
X2405035D01*
X2393770Y2853478D01*
X2383671Y2847647D01*
X2375424Y2839400D01*
X2369593Y2829300D01*
X2366575Y2818036D01*
Y2806374D01*
X2369593Y2795109D01*
X2375424Y2785009D01*
X2383671Y2776763D01*
X2393770Y2770932D01*
X2405035Y2767913D01*
X2416697D01*
X2427962Y2770932D01*
X2438062Y2776763D01*
X2446308Y2785009D01*
X2452139Y2795109D01*
X2455157Y2806374D01*
Y2818036D01*
X2452139Y2829300D01*
X2446308Y2839400D01*
X2438062Y2847647D01*
X2427962Y2853478D01*
X2416697Y2856496D01*
D02*
G37*
G36*
X2517366Y2761575D02*
X2515866D01*
Y2717205D01*
X2560236D01*
Y2718704D01*
X2556872Y2731261D01*
X2550372Y2742519D01*
X2541180Y2751711D01*
X2529922Y2758210D01*
X2517366Y2761575D01*
D02*
G37*
G36*
X2505866D02*
X2504366D01*
X2491810Y2758210D01*
X2480552Y2751711D01*
X2471360Y2742519D01*
X2464860Y2731261D01*
X2461496Y2718704D01*
Y2717205D01*
X2505866D01*
Y2761575D01*
D02*
G37*
G36*
X4975378Y2743110D02*
X4969504D01*
X4964078Y2740863D01*
X4959925Y2736709D01*
X4957677Y2731283D01*
Y2725410D01*
X4959925Y2719983D01*
X4964078Y2715830D01*
X4969504Y2713583D01*
X4975378D01*
X4980804Y2715830D01*
X4984957Y2719983D01*
X4987205Y2725410D01*
Y2731283D01*
X4984957Y2736709D01*
X4980804Y2740863D01*
X4975378Y2743110D01*
D02*
G37*
G36*
X2416697Y2756496D02*
X2405035D01*
X2393770Y2753478D01*
X2383671Y2747647D01*
X2375424Y2739400D01*
X2369593Y2729300D01*
X2366575Y2718036D01*
Y2706374D01*
X2369593Y2695109D01*
X2375424Y2685009D01*
X2383671Y2676763D01*
X2393770Y2670932D01*
X2405035Y2667913D01*
X2416697D01*
X2427962Y2670932D01*
X2438062Y2676763D01*
X2446308Y2685009D01*
X2452139Y2695109D01*
X2455157Y2706374D01*
Y2718036D01*
X2452139Y2729300D01*
X2446308Y2739400D01*
X2438062Y2747647D01*
X2427962Y2753478D01*
X2416697Y2756496D01*
D02*
G37*
G36*
X2560236Y2707205D02*
X2515866D01*
Y2662835D01*
X2517366D01*
X2529922Y2666199D01*
X2541180Y2672699D01*
X2550372Y2681891D01*
X2556872Y2693149D01*
X2560236Y2705705D01*
Y2707205D01*
D02*
G37*
G36*
X2505866D02*
X2461496D01*
Y2705705D01*
X2464860Y2693149D01*
X2471360Y2681891D01*
X2480552Y2672699D01*
X2491810Y2666199D01*
X2504366Y2662835D01*
X2505866D01*
Y2707205D01*
D02*
G37*
G36*
X5550181Y2672244D02*
X5544307D01*
X5538881Y2669996D01*
X5534728Y2665843D01*
X5532480Y2660417D01*
Y2654544D01*
X5534728Y2649117D01*
X5538881Y2644964D01*
X5544307Y2642716D01*
X5550181D01*
X5555607Y2644964D01*
X5559760Y2649117D01*
X5562008Y2654544D01*
Y2660417D01*
X5559760Y2665843D01*
X5555607Y2669996D01*
X5550181Y2672244D01*
D02*
G37*
G36*
X2516697Y2656496D02*
X2505035D01*
X2493770Y2653478D01*
X2483671Y2647647D01*
X2475424Y2639400D01*
X2469593Y2629300D01*
X2466575Y2618036D01*
Y2606374D01*
X2469593Y2595109D01*
X2475424Y2585009D01*
X2483671Y2576763D01*
X2493770Y2570932D01*
X2505035Y2567913D01*
X2516697D01*
X2527962Y2570932D01*
X2538062Y2576763D01*
X2546308Y2585009D01*
X2552139Y2595109D01*
X2555157Y2606374D01*
Y2618036D01*
X2552139Y2629300D01*
X2546308Y2639400D01*
X2538062Y2647647D01*
X2527962Y2653478D01*
X2516697Y2656496D01*
D02*
G37*
G36*
X2416697D02*
X2405035D01*
X2393770Y2653478D01*
X2383671Y2647647D01*
X2375424Y2639400D01*
X2369593Y2629300D01*
X2366575Y2618036D01*
Y2606374D01*
X2369593Y2595109D01*
X2375424Y2585009D01*
X2383671Y2576763D01*
X2393770Y2570932D01*
X2405035Y2567913D01*
X2416697D01*
X2427962Y2570932D01*
X2438062Y2576763D01*
X2446308Y2585009D01*
X2452139Y2595109D01*
X2455157Y2606374D01*
Y2618036D01*
X2452139Y2629300D01*
X2446308Y2639400D01*
X2438062Y2647647D01*
X2427962Y2653478D01*
X2416697Y2656496D01*
D02*
G37*
G36*
X5535111Y2583669D02*
X5526889D01*
X5519292Y2580523D01*
X5513477Y2574708D01*
X5510331Y2567111D01*
Y2558889D01*
X5513477Y2551292D01*
X5519292Y2545477D01*
X5526889Y2542331D01*
X5535111D01*
X5542708Y2545477D01*
X5548523Y2551292D01*
X5551669Y2558889D01*
Y2567111D01*
X5548523Y2574708D01*
X5542708Y2580523D01*
X5535111Y2583669D01*
D02*
G37*
G36*
X5333645Y2554134D02*
X5327772D01*
X5322346Y2551886D01*
X5318193Y2547733D01*
X5315945Y2542307D01*
Y2536433D01*
X5318193Y2531007D01*
X5322346Y2526854D01*
X5327772Y2524606D01*
X5333645D01*
X5339072Y2526854D01*
X5343225Y2531007D01*
X5345472Y2536433D01*
Y2542307D01*
X5343225Y2547733D01*
X5339072Y2551886D01*
X5333645Y2554134D01*
D02*
G37*
G36*
X5909075Y2527756D02*
X5901949D01*
X5895365Y2525029D01*
X5890326Y2519990D01*
X5887598Y2513406D01*
Y2506279D01*
X5890326Y2499695D01*
X5895365Y2494656D01*
X5901949Y2491929D01*
X5909075D01*
X5915659Y2494656D01*
X5920698Y2499695D01*
X5923425Y2506279D01*
Y2513406D01*
X5920698Y2519990D01*
X5915659Y2525029D01*
X5909075Y2527756D01*
D02*
G37*
G36*
X2516697Y2556496D02*
X2505035D01*
X2493770Y2553478D01*
X2483671Y2547647D01*
X2475424Y2539400D01*
X2469593Y2529300D01*
X2466575Y2518036D01*
Y2506374D01*
X2469593Y2495109D01*
X2475424Y2485009D01*
X2483671Y2476763D01*
X2493770Y2470932D01*
X2505035Y2467913D01*
X2516697D01*
X2527962Y2470932D01*
X2538062Y2476763D01*
X2546308Y2485009D01*
X2552139Y2495109D01*
X2555157Y2506374D01*
Y2518036D01*
X2552139Y2529300D01*
X2546308Y2539400D01*
X2538062Y2547647D01*
X2527962Y2553478D01*
X2516697Y2556496D01*
D02*
G37*
G36*
X2416697D02*
X2405035D01*
X2393770Y2553478D01*
X2383671Y2547647D01*
X2375424Y2539400D01*
X2369593Y2529300D01*
X2366575Y2518036D01*
Y2506374D01*
X2369593Y2495109D01*
X2375424Y2485009D01*
X2383671Y2476763D01*
X2393770Y2470932D01*
X2405035Y2467913D01*
X2416697D01*
X2427962Y2470932D01*
X2438062Y2476763D01*
X2446308Y2485009D01*
X2452139Y2495109D01*
X2455157Y2506374D01*
Y2518036D01*
X2452139Y2529300D01*
X2446308Y2539400D01*
X2438062Y2547647D01*
X2427962Y2553478D01*
X2416697Y2556496D01*
D02*
G37*
G36*
X5815866Y2488123D02*
X5808648Y2486189D01*
X5801430Y2482022D01*
X5795537Y2476129D01*
X5791370Y2468911D01*
X5789436Y2461693D01*
X5815866D01*
Y2488123D01*
D02*
G37*
G36*
X5995158Y2488123D02*
Y2461693D01*
X6021588D01*
X6019654Y2468911D01*
X6015487Y2476129D01*
X6009593Y2482022D01*
X6002375Y2486189D01*
X5995158Y2488123D01*
D02*
G37*
G36*
X5985158D02*
X5977940Y2486189D01*
X5970722Y2482022D01*
X5964828Y2476129D01*
X5960661Y2468911D01*
X5958727Y2461693D01*
X5985158D01*
Y2488123D01*
D02*
G37*
G36*
X5815866Y2451693D02*
X5789436D01*
X5791370Y2444475D01*
X5795537Y2437257D01*
X5801430Y2431364D01*
X5808648Y2427197D01*
X5815866Y2425263D01*
Y2451693D01*
D02*
G37*
G36*
X6021588Y2451693D02*
X5995158D01*
Y2425262D01*
X6002375Y2427197D01*
X6009593Y2431364D01*
X6015487Y2437257D01*
X6019654Y2444475D01*
X6021588Y2451693D01*
D02*
G37*
G36*
X5985158D02*
X5958727D01*
X5960661Y2444475D01*
X5964828Y2437257D01*
X5970722Y2431364D01*
X5977940Y2427197D01*
X5985158Y2425262D01*
Y2451693D01*
D02*
G37*
G36*
X5910876Y2464370D02*
X5905786D01*
X5901083Y2462422D01*
X5897483Y2458823D01*
X5895535Y2454120D01*
Y2449030D01*
X5897483Y2444327D01*
X5900668Y2441142D01*
X5897483Y2437957D01*
X5895535Y2433254D01*
Y2428164D01*
X5897483Y2423461D01*
X5901083Y2419861D01*
X5905786Y2417913D01*
X5910876D01*
X5915579Y2419861D01*
X5919178Y2423461D01*
X5921126Y2428164D01*
Y2433254D01*
X5919178Y2437957D01*
X5915993Y2441142D01*
X5919178Y2444327D01*
X5921126Y2449030D01*
Y2454120D01*
X5919178Y2458823D01*
X5915579Y2462422D01*
X5910876Y2464370D01*
D02*
G37*
G36*
X5825866Y2488123D02*
Y2456693D01*
Y2425262D01*
X5833084Y2427197D01*
X5840302Y2431364D01*
X5842617Y2433679D01*
X5847441Y2431432D01*
Y2428164D01*
X5849389Y2423461D01*
X5852988Y2419861D01*
X5857691Y2417913D01*
X5862781D01*
X5867484Y2419861D01*
X5871084Y2423461D01*
X5873032Y2428164D01*
Y2433254D01*
X5871084Y2437957D01*
X5867899Y2441142D01*
X5871084Y2444327D01*
X5873032Y2449030D01*
Y2454120D01*
X5871084Y2458823D01*
X5867484Y2462422D01*
X5862781Y2464370D01*
X5857691D01*
X5856849Y2464021D01*
X5850908Y2466875D01*
X5850362Y2468911D01*
X5846195Y2476129D01*
X5840302Y2482022D01*
X5833084Y2486189D01*
X5825866Y2488123D01*
D02*
G37*
G36*
X2517366Y2461575D02*
X2515866D01*
Y2417205D01*
X2560236D01*
Y2418704D01*
X2556872Y2431261D01*
X2550372Y2442519D01*
X2541180Y2451711D01*
X2529922Y2458210D01*
X2517366Y2461575D01*
D02*
G37*
G36*
X2505866D02*
X2504366D01*
X2491810Y2458210D01*
X2480552Y2451711D01*
X2471360Y2442519D01*
X2464860Y2431261D01*
X2461496Y2418704D01*
Y2417205D01*
X2505866D01*
Y2461575D01*
D02*
G37*
G36*
X5466937Y2406764D02*
X5461063D01*
X5455637Y2404516D01*
X5451484Y2400363D01*
X5449236Y2394937D01*
Y2389063D01*
X5451484Y2383637D01*
X5455637Y2379484D01*
X5461063Y2377236D01*
X5466937D01*
X5472363Y2379484D01*
X5476516Y2383637D01*
X5478764Y2389063D01*
Y2394937D01*
X5476516Y2400363D01*
X5472363Y2404516D01*
X5466937Y2406764D01*
D02*
G37*
G36*
X5977937Y2406315D02*
X5972063D01*
X5966637Y2404067D01*
X5962484Y2399914D01*
X5960236Y2394488D01*
Y2388615D01*
X5962484Y2383188D01*
X5966637Y2379035D01*
X5972063Y2376787D01*
X5977937D01*
X5983363Y2379035D01*
X5987516Y2383188D01*
X5989764Y2388615D01*
Y2394488D01*
X5987516Y2399914D01*
X5983363Y2404067D01*
X5977937Y2406315D01*
D02*
G37*
G36*
X2416697Y2456496D02*
X2405035D01*
X2393770Y2453478D01*
X2383671Y2447647D01*
X2375424Y2439400D01*
X2369593Y2429300D01*
X2366575Y2418036D01*
Y2406374D01*
X2369593Y2395109D01*
X2375424Y2385009D01*
X2383671Y2376763D01*
X2393770Y2370932D01*
X2405035Y2367913D01*
X2416697D01*
X2427962Y2370932D01*
X2438062Y2376763D01*
X2446308Y2385009D01*
X2452139Y2395109D01*
X2455157Y2406374D01*
Y2418036D01*
X2452139Y2429300D01*
X2446308Y2439400D01*
X2438062Y2447647D01*
X2427962Y2453478D01*
X2416697Y2456496D01*
D02*
G37*
G36*
X5713661Y2379480D02*
Y2367205D01*
X5725937D01*
X5723814Y2372329D01*
X5718786Y2377358D01*
X5713661Y2379480D01*
D02*
G37*
G36*
X5703661D02*
X5698537Y2377358D01*
X5693508Y2372329D01*
X5691386Y2367205D01*
X5703661D01*
Y2379480D01*
D02*
G37*
G36*
X4156480Y2396654D02*
X4150607D01*
X4145180Y2394406D01*
X4141027Y2390253D01*
X4138779Y2384827D01*
Y2378953D01*
X4141027Y2373527D01*
X4145180Y2369374D01*
X4150607Y2367126D01*
X4156480D01*
X4161906Y2369374D01*
X4166059Y2373527D01*
X4168307Y2378953D01*
Y2384827D01*
X4166059Y2390253D01*
X4161906Y2394406D01*
X4156480Y2396654D01*
D02*
G37*
G36*
X2560236Y2407205D02*
X2515866D01*
Y2362835D01*
X2517366D01*
X2529922Y2366199D01*
X2541180Y2372699D01*
X2550372Y2381891D01*
X2556872Y2393149D01*
X2560236Y2405705D01*
Y2407205D01*
D02*
G37*
G36*
X2505866D02*
X2461496D01*
Y2405705D01*
X2464860Y2393149D01*
X2471360Y2381891D01*
X2480552Y2372699D01*
X2491810Y2366199D01*
X2504366Y2362835D01*
X2505866D01*
Y2407205D01*
D02*
G37*
G36*
X5725937Y2357205D02*
X5713661D01*
Y2344929D01*
X5718786Y2347052D01*
X5723814Y2352080D01*
X5725937Y2357205D01*
D02*
G37*
G36*
X5703661D02*
X5691386D01*
X5693508Y2352080D01*
X5698537Y2347052D01*
X5703661Y2344929D01*
Y2357205D01*
D02*
G37*
G36*
X5908057Y2388780D02*
X5902967D01*
X5898264Y2386832D01*
X5894664Y2383232D01*
X5892717Y2378529D01*
Y2373439D01*
X5894516Y2369095D01*
X5892717Y2364750D01*
Y2359660D01*
X5894516Y2355315D01*
X5892717Y2350970D01*
Y2345880D01*
X5894664Y2341177D01*
X5898264Y2337578D01*
X5902967Y2335630D01*
X5908057D01*
X5912760Y2337578D01*
X5916359Y2341177D01*
X5922100Y2341970D01*
X5922752Y2341318D01*
X5927455Y2339370D01*
X5932545D01*
X5937248Y2341318D01*
X5940847Y2344917D01*
X5942795Y2349620D01*
Y2354711D01*
X5940847Y2359413D01*
X5937662Y2362598D01*
X5940847Y2365784D01*
X5942795Y2370486D01*
Y2375577D01*
X5940847Y2380280D01*
X5937248Y2383879D01*
X5932545Y2385827D01*
X5927455D01*
X5922752Y2383879D01*
X5921869Y2382996D01*
X5916359Y2383232D01*
X5912760Y2386832D01*
X5908057Y2388780D01*
D02*
G37*
G36*
X5865545Y2385827D02*
X5860455D01*
X5855752Y2383879D01*
X5852153Y2380280D01*
X5850205Y2375577D01*
Y2370486D01*
X5852153Y2365784D01*
X5855338Y2362598D01*
X5852153Y2359413D01*
X5850205Y2354711D01*
Y2349620D01*
X5852153Y2344917D01*
X5855752Y2341318D01*
X5860455Y2339370D01*
X5865545D01*
X5870248Y2341318D01*
X5873847Y2344917D01*
X5875795Y2349620D01*
Y2354711D01*
X5873847Y2359413D01*
X5870662Y2362598D01*
X5873847Y2365784D01*
X5875795Y2370486D01*
Y2375577D01*
X5873847Y2380280D01*
X5870248Y2383879D01*
X5865545Y2385827D01*
D02*
G37*
G36*
X5644749Y2414961D02*
X5639658D01*
X5634956Y2413013D01*
X5631356Y2409413D01*
X5629408Y2404711D01*
Y2399620D01*
X5631356Y2394917D01*
X5634541Y2391732D01*
X5631356Y2388547D01*
X5629408Y2383844D01*
Y2378754D01*
X5631356Y2374051D01*
X5634956Y2370452D01*
X5639658Y2368504D01*
X5644749D01*
X5649452Y2370452D01*
X5650883Y2371883D01*
X5655883Y2370289D01*
X5657831Y2365587D01*
X5661016Y2362402D01*
X5657831Y2359216D01*
X5655883Y2354514D01*
Y2349423D01*
X5657831Y2344720D01*
X5661430Y2341121D01*
X5666133Y2339173D01*
X5671223D01*
X5675926Y2341121D01*
X5679525Y2344720D01*
X5681473Y2349423D01*
Y2354514D01*
X5679525Y2359216D01*
X5676340Y2362402D01*
X5679525Y2365587D01*
X5681473Y2370289D01*
Y2375380D01*
X5679525Y2380083D01*
X5675926Y2383682D01*
X5671223Y2385630D01*
X5666133D01*
X5661430Y2383682D01*
X5659999Y2382251D01*
X5654999Y2383844D01*
X5653051Y2388547D01*
X5649866Y2391732D01*
X5653051Y2394917D01*
X5654999Y2399620D01*
Y2404711D01*
X5653051Y2409413D01*
X5649452Y2413013D01*
X5644749Y2414961D01*
D02*
G37*
G36*
X5790937Y2348315D02*
X5785063D01*
X5779637Y2346067D01*
X5775484Y2341914D01*
X5773236Y2336488D01*
Y2330615D01*
X5775484Y2325188D01*
X5779637Y2321035D01*
X5785063Y2318787D01*
X5790937D01*
X5796363Y2321035D01*
X5800516Y2325188D01*
X5802764Y2330615D01*
Y2336488D01*
X5800516Y2341914D01*
X5796363Y2346067D01*
X5790937Y2348315D01*
D02*
G37*
G36*
X5233937Y2347764D02*
X5228063D01*
X5222637Y2345516D01*
X5218484Y2341363D01*
X5216236Y2335937D01*
Y2330063D01*
X5218484Y2324637D01*
X5222637Y2320484D01*
X5228063Y2318236D01*
X5233937D01*
X5239363Y2320484D01*
X5243516Y2324637D01*
X5245764Y2330063D01*
Y2335937D01*
X5243516Y2341363D01*
X5239363Y2345516D01*
X5233937Y2347764D01*
D02*
G37*
G36*
X5862781Y2306693D02*
X5857691D01*
X5852988Y2304745D01*
X5849389Y2301146D01*
X5847441Y2296443D01*
Y2292978D01*
X5842756Y2290591D01*
X5840302Y2293046D01*
X5833084Y2297213D01*
X5825866Y2299147D01*
Y2267716D01*
Y2236286D01*
X5833084Y2238220D01*
X5840302Y2242387D01*
X5846195Y2248281D01*
X5850362Y2255499D01*
X5850825Y2257224D01*
X5856754Y2260034D01*
X5857691Y2259646D01*
X5862781D01*
X5867484Y2261593D01*
X5871084Y2265193D01*
X5873032Y2269896D01*
Y2274986D01*
X5871084Y2279689D01*
X5867603Y2283169D01*
X5871084Y2286650D01*
X5873032Y2291352D01*
Y2296443D01*
X5871084Y2301146D01*
X5867484Y2304745D01*
X5862781Y2306693D01*
D02*
G37*
G36*
X5333645Y2310039D02*
X5327772D01*
X5322346Y2307792D01*
X5318193Y2303639D01*
X5315945Y2298212D01*
Y2292339D01*
X5318193Y2286913D01*
X5322346Y2282760D01*
X5327772Y2280512D01*
X5333645D01*
X5339072Y2282760D01*
X5343225Y2286913D01*
X5345472Y2292339D01*
Y2298212D01*
X5343225Y2303639D01*
X5339072Y2307792D01*
X5333645Y2310039D01*
D02*
G37*
G36*
X5815866Y2299147D02*
X5808648Y2297213D01*
X5801430Y2293046D01*
X5795537Y2287152D01*
X5791370Y2279934D01*
X5789436Y2272716D01*
X5815866D01*
Y2299147D01*
D02*
G37*
G36*
X5995158Y2299147D02*
Y2272716D01*
X6021588D01*
X6019654Y2279934D01*
X6015487Y2287152D01*
X6009593Y2293046D01*
X6002375Y2297213D01*
X5995158Y2299147D01*
D02*
G37*
G36*
X2516697Y2356496D02*
X2505035D01*
X2493770Y2353478D01*
X2483671Y2347647D01*
X2475424Y2339400D01*
X2469593Y2329300D01*
X2466575Y2318036D01*
Y2306374D01*
X2469593Y2295109D01*
X2475424Y2285009D01*
X2483671Y2276763D01*
X2493770Y2270932D01*
X2505035Y2267913D01*
X2516697D01*
X2527962Y2270932D01*
X2538062Y2276763D01*
X2546308Y2285009D01*
X2552139Y2295109D01*
X2555157Y2306374D01*
Y2318036D01*
X2552139Y2329300D01*
X2546308Y2339400D01*
X2538062Y2347647D01*
X2527962Y2353478D01*
X2516697Y2356496D01*
D02*
G37*
G36*
X2416697D02*
X2405035D01*
X2393770Y2353478D01*
X2383671Y2347647D01*
X2375424Y2339400D01*
X2369593Y2329300D01*
X2366575Y2318036D01*
Y2306374D01*
X2369593Y2295109D01*
X2375424Y2285009D01*
X2383671Y2276763D01*
X2393770Y2270932D01*
X2405035Y2267913D01*
X2416697D01*
X2427962Y2270932D01*
X2438062Y2276763D01*
X2446308Y2285009D01*
X2452139Y2295109D01*
X2455157Y2306374D01*
Y2318036D01*
X2452139Y2329300D01*
X2446308Y2339400D01*
X2438062Y2347647D01*
X2427962Y2353478D01*
X2416697Y2356496D01*
D02*
G37*
G36*
X5617348Y2303071D02*
X5612258D01*
X5607555Y2301123D01*
X5603956Y2297524D01*
X5602008Y2292821D01*
Y2287731D01*
X5603956Y2283028D01*
X5607555Y2279428D01*
X5612258Y2277480D01*
X5616457D01*
Y2272731D01*
X5618405Y2268028D01*
X5622004Y2264428D01*
X5626707Y2262480D01*
X5631797D01*
X5636500Y2264428D01*
X5640099Y2268028D01*
X5642047Y2272731D01*
Y2277821D01*
X5640099Y2282524D01*
X5636500Y2286123D01*
X5631797Y2288071D01*
X5627598D01*
Y2292821D01*
X5625650Y2297524D01*
X5622051Y2301123D01*
X5617348Y2303071D01*
D02*
G37*
G36*
X5815866Y2262716D02*
X5789436D01*
X5791370Y2255499D01*
X5795537Y2248281D01*
X5801430Y2242387D01*
X5808648Y2238220D01*
X5815866Y2236286D01*
Y2262716D01*
D02*
G37*
G36*
X6021588Y2262716D02*
X5995158D01*
Y2236286D01*
X6002375Y2238220D01*
X6009593Y2242387D01*
X6015487Y2248281D01*
X6019654Y2255499D01*
X6021588Y2262716D01*
D02*
G37*
G36*
X5946103Y2306693D02*
X5941013D01*
X5936310Y2304745D01*
X5932711Y2301146D01*
X5930763Y2296443D01*
Y2291352D01*
X5932711Y2286650D01*
X5936191Y2283169D01*
X5932711Y2279689D01*
X5930763Y2274986D01*
Y2269896D01*
X5932711Y2265193D01*
X5936310Y2261593D01*
X5941013Y2259646D01*
X5946103D01*
X5950806Y2261593D01*
X5953504Y2264291D01*
X5956992Y2263773D01*
X5957228Y2263693D01*
X5958671Y2262926D01*
X5960661Y2255499D01*
X5964828Y2248281D01*
X5970722Y2242387D01*
X5977940Y2238220D01*
X5985158Y2236286D01*
Y2267716D01*
Y2299147D01*
X5977940Y2297213D01*
X5970722Y2293046D01*
X5964828Y2287152D01*
X5960661Y2279934D01*
X5960290Y2278549D01*
X5955021Y2278203D01*
X5954406Y2279689D01*
X5950925Y2283169D01*
X5954406Y2286650D01*
X5956354Y2291352D01*
Y2296443D01*
X5954406Y2301146D01*
X5950806Y2304745D01*
X5946103Y2306693D01*
D02*
G37*
G36*
X5905512Y2239493D02*
X5899137Y2238225D01*
X5893732Y2234614D01*
X5890121Y2229210D01*
X5888853Y2222835D01*
Y2206299D01*
X5890121Y2199924D01*
X5893732Y2194520D01*
X5899137Y2190909D01*
X5905512Y2189640D01*
X5911887Y2190909D01*
X5917291Y2194520D01*
X5920902Y2199924D01*
X5922171Y2206299D01*
Y2222835D01*
X5920902Y2229210D01*
X5917291Y2234614D01*
X5911887Y2238225D01*
X5905512Y2239493D01*
D02*
G37*
G36*
X2516697Y2256496D02*
X2505035D01*
X2493770Y2253478D01*
X2483671Y2247647D01*
X2475424Y2239400D01*
X2469593Y2229300D01*
X2466575Y2218036D01*
Y2206374D01*
X2469593Y2195109D01*
X2475424Y2185009D01*
X2483671Y2176763D01*
X2493770Y2170932D01*
X2505035Y2167913D01*
X2516697D01*
X2527962Y2170932D01*
X2538062Y2176763D01*
X2546308Y2185009D01*
X2552139Y2195109D01*
X2555157Y2206374D01*
Y2218036D01*
X2552139Y2229300D01*
X2546308Y2239400D01*
X2538062Y2247647D01*
X2527962Y2253478D01*
X2516697Y2256496D01*
D02*
G37*
G36*
X2416697D02*
X2405035D01*
X2393770Y2253478D01*
X2383671Y2247647D01*
X2375424Y2239400D01*
X2369593Y2229300D01*
X2366575Y2218036D01*
Y2206374D01*
X2369593Y2195109D01*
X2375424Y2185009D01*
X2383671Y2176763D01*
X2393770Y2170932D01*
X2405035Y2167913D01*
X2416697D01*
X2427962Y2170932D01*
X2438062Y2176763D01*
X2446308Y2185009D01*
X2452139Y2195109D01*
X2455157Y2206374D01*
Y2218036D01*
X2452139Y2229300D01*
X2446308Y2239400D01*
X2438062Y2247647D01*
X2427962Y2253478D01*
X2416697Y2256496D01*
D02*
G37*
G36*
X4064581Y2199119D02*
X4058708D01*
X4053282Y2196872D01*
X4049128Y2192718D01*
X4046881Y2187292D01*
Y2181419D01*
X4049128Y2175992D01*
X4053282Y2171839D01*
X4054295Y2171420D01*
X4054295Y2166008D01*
X4051532Y2164863D01*
X4047932Y2161264D01*
X4045984Y2156561D01*
Y2151471D01*
X4047932Y2146768D01*
X4051532Y2143168D01*
X4054908Y2141770D01*
X4056234Y2141220D01*
X4059528Y2136988D01*
Y2135762D01*
X4061475Y2131059D01*
X4065075Y2127460D01*
X4069778Y2125512D01*
X4074868D01*
X4079571Y2127460D01*
X4083170Y2131059D01*
X4084980Y2135429D01*
X4086197Y2135833D01*
X4090118Y2136090D01*
X4090887Y2134234D01*
X4095040Y2130081D01*
X4100466Y2127833D01*
X4106340D01*
X4111766Y2130081D01*
X4115919Y2134234D01*
X4118167Y2139660D01*
Y2145534D01*
X4115919Y2150960D01*
X4111766Y2155113D01*
X4106340Y2157361D01*
X4100466D01*
X4095040Y2155113D01*
X4090887Y2150960D01*
X4088639Y2145534D01*
Y2145418D01*
X4083639Y2144423D01*
X4083170Y2145555D01*
X4079571Y2149155D01*
X4076194Y2150553D01*
X4076194Y2150553D01*
X4074868Y2151103D01*
X4071677Y2155203D01*
X4071575Y2155444D01*
Y2156561D01*
X4069627Y2161264D01*
X4066028Y2164863D01*
X4065764Y2164972D01*
X4066129Y2170233D01*
X4070008Y2171839D01*
X4074161Y2175992D01*
X4076408Y2181419D01*
Y2187292D01*
X4074161Y2192718D01*
X4070008Y2196872D01*
X4064581Y2199119D01*
D02*
G37*
G36*
X4975378Y2152559D02*
X4969504D01*
X4964078Y2150311D01*
X4959925Y2146158D01*
X4957677Y2140732D01*
Y2134859D01*
X4959925Y2129432D01*
X4964078Y2125279D01*
X4969504Y2123032D01*
X4975378D01*
X4980804Y2125279D01*
X4984957Y2129432D01*
X4987205Y2134859D01*
Y2140732D01*
X4984957Y2146158D01*
X4980804Y2150311D01*
X4975378Y2152559D01*
D02*
G37*
G36*
X2417366Y2161575D02*
X2415866D01*
Y2117205D01*
X2460236D01*
Y2118704D01*
X2456872Y2131261D01*
X2450372Y2142519D01*
X2441180Y2151711D01*
X2429922Y2158210D01*
X2417366Y2161575D01*
D02*
G37*
G36*
X2405866D02*
X2404366D01*
X2391810Y2158210D01*
X2380552Y2151711D01*
X2371360Y2142519D01*
X2364860Y2131261D01*
X2361496Y2118704D01*
Y2117205D01*
X2405866D01*
Y2161575D01*
D02*
G37*
G36*
X3837837Y2142908D02*
X3831963D01*
X3826537Y2140660D01*
X3822384Y2136507D01*
X3820136Y2131081D01*
Y2125207D01*
X3822384Y2119781D01*
X3826537Y2115628D01*
X3831963Y2113380D01*
X3837837D01*
X3843263Y2115628D01*
X3847416Y2119781D01*
X3849664Y2125207D01*
Y2131081D01*
X3847416Y2136507D01*
X3843263Y2140660D01*
X3837837Y2142908D01*
D02*
G37*
G36*
X2516697Y2156496D02*
X2505035D01*
X2493770Y2153478D01*
X2483671Y2147647D01*
X2475424Y2139400D01*
X2469593Y2129300D01*
X2466575Y2118036D01*
Y2106374D01*
X2469593Y2095109D01*
X2475424Y2085009D01*
X2483671Y2076763D01*
X2493770Y2070932D01*
X2505035Y2067913D01*
X2516697D01*
X2527962Y2070932D01*
X2538062Y2076763D01*
X2546308Y2085009D01*
X2552139Y2095109D01*
X2555157Y2106374D01*
Y2118036D01*
X2552139Y2129300D01*
X2546308Y2139400D01*
X2538062Y2147647D01*
X2527962Y2153478D01*
X2516697Y2156496D01*
D02*
G37*
G36*
X2460236Y2107205D02*
X2415866D01*
Y2062835D01*
X2417366D01*
X2429922Y2066199D01*
X2441180Y2072699D01*
X2450372Y2081891D01*
X2456872Y2093149D01*
X2460236Y2105705D01*
Y2107205D01*
D02*
G37*
G36*
X2405866D02*
X2361496D01*
Y2105705D01*
X2364860Y2093149D01*
X2371360Y2081891D01*
X2380552Y2072699D01*
X2391810Y2066199D01*
X2404366Y2062835D01*
X2405866D01*
Y2107205D01*
D02*
G37*
G36*
X4175937Y2087764D02*
X4170063D01*
X4164637Y2085516D01*
X4160484Y2081363D01*
X4158236Y2075937D01*
Y2070063D01*
X4160484Y2064637D01*
X4164637Y2060484D01*
X4170063Y2058236D01*
X4175937D01*
X4181363Y2060484D01*
X4185516Y2064637D01*
X4187764Y2070063D01*
Y2075937D01*
X4185516Y2081363D01*
X4181363Y2085516D01*
X4175937Y2087764D01*
D02*
G37*
G36*
X5550181Y2081693D02*
X5544307D01*
X5538881Y2079445D01*
X5534728Y2075292D01*
X5532480Y2069866D01*
Y2063992D01*
X5534728Y2058566D01*
X5538881Y2054413D01*
X5544307Y2052165D01*
X5550181D01*
X5555607Y2054413D01*
X5559760Y2058566D01*
X5562008Y2063992D01*
Y2069866D01*
X5559760Y2075292D01*
X5555607Y2079445D01*
X5550181Y2081693D01*
D02*
G37*
G36*
X3981378Y2052626D02*
Y2028958D01*
X3971378D01*
Y2052626D01*
X3962908Y2049117D01*
X3956219Y2042428D01*
X3952599Y2033688D01*
Y2024899D01*
X3943809D01*
X3935069Y2021278D01*
X3928380Y2014589D01*
X3924760Y2005849D01*
Y1997060D01*
X3915970D01*
X3907230Y1993440D01*
X3900541Y1986750D01*
X3896921Y1978010D01*
Y1969221D01*
X3888131D01*
X3879392Y1965601D01*
X3872702Y1958911D01*
X3869082Y1950171D01*
Y1941382D01*
X3860293D01*
X3851553Y1937762D01*
X3844863Y1931073D01*
X3841243Y1922333D01*
Y1913543D01*
X3832454D01*
X3823714Y1909923D01*
X3817024Y1903234D01*
X3813516Y1894764D01*
X3837184D01*
Y1884764D01*
X3813516D01*
X3817024Y1876294D01*
X3823714Y1869604D01*
X3832454Y1865984D01*
X3841243D01*
Y1857195D01*
X3844863Y1848455D01*
X3851553Y1841766D01*
X3860293Y1838145D01*
X3869082D01*
Y1829356D01*
X3872702Y1820616D01*
X3879392Y1813927D01*
X3888131Y1810307D01*
X3896921D01*
Y1801517D01*
X3900541Y1792777D01*
X3907230Y1786088D01*
X3915970Y1782468D01*
X3924760D01*
Y1773678D01*
X3928380Y1764938D01*
X3935069Y1758249D01*
X3943809Y1754629D01*
X3952599D01*
Y1745840D01*
X3956219Y1737100D01*
X3962908Y1730410D01*
X3971378Y1726902D01*
Y1750570D01*
X3981378D01*
Y1726902D01*
X3989848Y1730410D01*
X3996537Y1737100D01*
X4000157Y1745840D01*
Y1754629D01*
X4008947D01*
X4017687Y1758249D01*
X4024376Y1764938D01*
X4027996Y1773678D01*
Y1782468D01*
X4036786D01*
X4045526Y1786088D01*
X4052215Y1792777D01*
X4055835Y1801517D01*
Y1810307D01*
X4064624D01*
X4073365Y1813927D01*
X4080054Y1820616D01*
X4083674Y1829356D01*
Y1838145D01*
X4092463D01*
X4101203Y1841766D01*
X4107893Y1848455D01*
X4111513Y1857195D01*
Y1865984D01*
X4120302D01*
X4129042Y1869604D01*
X4135732Y1876294D01*
X4139240Y1884764D01*
X4115572D01*
Y1894764D01*
X4139240D01*
X4135732Y1903234D01*
X4129042Y1909923D01*
X4120302Y1913543D01*
X4111513D01*
Y1922333D01*
X4107893Y1931073D01*
X4101203Y1937762D01*
X4092463Y1941382D01*
X4083674D01*
Y1950171D01*
X4080054Y1958911D01*
X4073365Y1965601D01*
X4064624Y1969221D01*
X4055835D01*
Y1978010D01*
X4052215Y1986750D01*
X4045526Y1993440D01*
X4036786Y1997060D01*
X4027996D01*
Y2005849D01*
X4024376Y2014589D01*
X4017687Y2021278D01*
X4008947Y2024899D01*
X4000157D01*
Y2033688D01*
X3996537Y2042428D01*
X3989848Y2049117D01*
X3981378Y2052626D01*
D02*
G37*
G36*
X4217695Y2046005D02*
X4211822D01*
X4206395Y2043758D01*
X4202242Y2039605D01*
X4199994Y2034178D01*
Y2028305D01*
X4202242Y2022879D01*
X4206395Y2018726D01*
X4211822Y2016478D01*
X4217695D01*
X4223121Y2018726D01*
X4227274Y2022879D01*
X4229522Y2028305D01*
Y2034178D01*
X4227274Y2039605D01*
X4223121Y2043758D01*
X4217695Y2046005D01*
D02*
G37*
G36*
X3740401Y2045472D02*
X3734527D01*
X3729101Y2043224D01*
X3724948Y2039071D01*
X3722700Y2033645D01*
Y2027771D01*
X3724948Y2022345D01*
X3729101Y2018192D01*
X3734527Y2015944D01*
X3740401D01*
X3745827Y2018192D01*
X3749980Y2022345D01*
X3752228Y2027771D01*
Y2033645D01*
X3749980Y2039071D01*
X3745827Y2043224D01*
X3740401Y2045472D01*
D02*
G37*
G36*
X4165484Y2048787D02*
X4160394D01*
X4155691Y2046839D01*
X4152092Y2043239D01*
X4150144Y2038537D01*
Y2033446D01*
X4152092Y2028744D01*
X4155691Y2025144D01*
X4160394Y2023196D01*
X4165425D01*
Y2018305D01*
X4167373Y2013602D01*
X4170972Y2010002D01*
X4175675Y2008054D01*
X4180765D01*
X4185468Y2010002D01*
X4189067Y2013602D01*
X4191015Y2018305D01*
Y2023395D01*
X4189067Y2028098D01*
X4185468Y2031697D01*
X4180765Y2033645D01*
X4175734D01*
Y2038537D01*
X4173786Y2043239D01*
X4170187Y2046839D01*
X4165484Y2048787D01*
D02*
G37*
G36*
X3698642Y2003714D02*
X3692769D01*
X3687343Y2001466D01*
X3683190Y1997313D01*
X3680942Y1991887D01*
Y1986013D01*
X3683190Y1980587D01*
X3687343Y1976434D01*
X3692769Y1974186D01*
X3698642D01*
X3704069Y1976434D01*
X3708222Y1980587D01*
X3710470Y1986013D01*
Y1991887D01*
X3708222Y1997313D01*
X3704069Y2001466D01*
X3698642Y2003714D01*
D02*
G37*
G36*
X2516697Y2056496D02*
X2505035D01*
X2493770Y2053478D01*
X2483671Y2047647D01*
X2475424Y2039400D01*
X2469593Y2029301D01*
X2466575Y2018036D01*
Y2006374D01*
X2469593Y1995109D01*
X2475424Y1985009D01*
X2483671Y1976763D01*
X2493770Y1970932D01*
X2505035Y1967913D01*
X2516697D01*
X2527962Y1970932D01*
X2538062Y1976763D01*
X2546308Y1985009D01*
X2552139Y1995109D01*
X2555157Y2006374D01*
Y2018036D01*
X2552139Y2029301D01*
X2546308Y2039400D01*
X2538062Y2047647D01*
X2527962Y2053478D01*
X2516697Y2056496D01*
D02*
G37*
G36*
X2416697D02*
X2405035D01*
X2393770Y2053478D01*
X2383671Y2047647D01*
X2375424Y2039400D01*
X2369593Y2029301D01*
X2366575Y2018036D01*
Y2006374D01*
X2369593Y1995109D01*
X2375424Y1985009D01*
X2383671Y1976763D01*
X2393770Y1970932D01*
X2405035Y1967913D01*
X2416697D01*
X2427962Y1970932D01*
X2438062Y1976763D01*
X2446308Y1985009D01*
X2452139Y1995109D01*
X2455157Y2006374D01*
Y2018036D01*
X2452139Y2029301D01*
X2446308Y2039400D01*
X2438062Y2047647D01*
X2427962Y2053478D01*
X2416697Y2056496D01*
D02*
G37*
G36*
X3634827Y1993110D02*
X3628953D01*
X3623527Y1990863D01*
X3619374Y1986709D01*
X3617126Y1981283D01*
Y1975410D01*
X3619374Y1969984D01*
X3623527Y1965830D01*
X3628953Y1963583D01*
X3634827D01*
X3640253Y1965830D01*
X3644406Y1969984D01*
X3646654Y1975410D01*
Y1981283D01*
X3644406Y1986709D01*
X3640253Y1990863D01*
X3634827Y1993110D01*
D02*
G37*
G36*
X2517366Y1961575D02*
X2515866D01*
Y1917205D01*
X2560236D01*
Y1918704D01*
X2556872Y1931261D01*
X2550372Y1942519D01*
X2541180Y1951711D01*
X2529922Y1958210D01*
X2517366Y1961575D01*
D02*
G37*
G36*
X2505866D02*
X2504366D01*
X2491810Y1958210D01*
X2480552Y1951711D01*
X2471360Y1942519D01*
X2464860Y1931261D01*
X2461496Y1918704D01*
Y1917205D01*
X2505866D01*
Y1961575D01*
D02*
G37*
G36*
X4388764Y1936024D02*
X4382890D01*
X4377464Y1933776D01*
X4373311Y1929623D01*
X4371063Y1924197D01*
Y1918323D01*
X4373311Y1912897D01*
X4377464Y1908744D01*
X4382890Y1906496D01*
X4388764D01*
X4394190Y1908744D01*
X4398343Y1912897D01*
X4400591Y1918323D01*
Y1924197D01*
X4398343Y1929623D01*
X4394190Y1933776D01*
X4388764Y1936024D01*
D02*
G37*
G36*
X3680102Y1932087D02*
X3674229D01*
X3668802Y1929839D01*
X3664649Y1925686D01*
X3662402Y1920259D01*
Y1914386D01*
X3664649Y1908960D01*
X3668802Y1904807D01*
X3674229Y1902559D01*
X3680102D01*
X3685528Y1904807D01*
X3689682Y1908960D01*
X3691929Y1914386D01*
Y1920259D01*
X3689682Y1925686D01*
X3685528Y1929839D01*
X3680102Y1932087D01*
D02*
G37*
G36*
X5909075Y1937205D02*
X5901949D01*
X5895365Y1934477D01*
X5890326Y1929438D01*
X5887598Y1922854D01*
Y1915728D01*
X5890326Y1909144D01*
X5895365Y1904105D01*
X5901949Y1901378D01*
X5909075D01*
X5915659Y1904105D01*
X5920698Y1909144D01*
X5923425Y1915728D01*
Y1922854D01*
X5920698Y1929438D01*
X5915659Y1934477D01*
X5909075Y1937205D01*
D02*
G37*
G36*
X5815866Y1897572D02*
X5808648Y1895638D01*
X5801430Y1891471D01*
X5795537Y1885577D01*
X5791370Y1878360D01*
X5789436Y1871142D01*
X5815866D01*
Y1897572D01*
D02*
G37*
G36*
X5995158Y1897572D02*
Y1871141D01*
X6021588D01*
X6019654Y1878360D01*
X6015487Y1885577D01*
X6009593Y1891471D01*
X6002375Y1895638D01*
X5995158Y1897572D01*
D02*
G37*
G36*
X5985158D02*
X5977940Y1895638D01*
X5970722Y1891471D01*
X5964828Y1885577D01*
X5960661Y1878360D01*
X5958727Y1871141D01*
X5985158D01*
Y1897572D01*
D02*
G37*
G36*
X2416697Y1956496D02*
X2405035D01*
X2393770Y1953478D01*
X2383671Y1947647D01*
X2375424Y1939400D01*
X2369593Y1929301D01*
X2366575Y1918036D01*
Y1906374D01*
X2369593Y1895109D01*
X2375424Y1885009D01*
X2383671Y1876763D01*
X2393770Y1870932D01*
X2405035Y1867913D01*
X2416697D01*
X2427962Y1870932D01*
X2438062Y1876763D01*
X2446308Y1885009D01*
X2452139Y1895109D01*
X2455157Y1906374D01*
Y1918036D01*
X2452139Y1929301D01*
X2446308Y1939400D01*
X2438062Y1947647D01*
X2427962Y1953478D01*
X2416697Y1956496D01*
D02*
G37*
G36*
X2560236Y1907205D02*
X2515866D01*
Y1862835D01*
X2517366D01*
X2529922Y1866199D01*
X2541180Y1872699D01*
X2550372Y1881891D01*
X2556872Y1893149D01*
X2560236Y1905705D01*
Y1907205D01*
D02*
G37*
G36*
X2505866D02*
X2461496D01*
Y1905705D01*
X2464860Y1893149D01*
X2471360Y1881891D01*
X2480552Y1872699D01*
X2491810Y1866199D01*
X2504366Y1862835D01*
X2505866D01*
Y1907205D01*
D02*
G37*
G36*
X5815866Y1861142D02*
X5789436D01*
X5791370Y1853924D01*
X5795537Y1846706D01*
X5801430Y1840813D01*
X5808648Y1836645D01*
X5815866Y1834711D01*
Y1861142D01*
D02*
G37*
G36*
X6021588Y1861141D02*
X5995158D01*
Y1834711D01*
X6002375Y1836645D01*
X6009593Y1840813D01*
X6015487Y1846706D01*
X6019654Y1853924D01*
X6021588Y1861141D01*
D02*
G37*
G36*
X5985158D02*
X5958727D01*
X5960661Y1853924D01*
X5964828Y1846706D01*
X5970722Y1840813D01*
X5977940Y1836645D01*
X5985158Y1834711D01*
Y1861141D01*
D02*
G37*
G36*
X5910876Y1873622D02*
X5905786D01*
X5901083Y1871674D01*
X5897483Y1868075D01*
X5895535Y1863372D01*
Y1858282D01*
X5897483Y1853579D01*
X5900668Y1850394D01*
X5897483Y1847209D01*
X5895535Y1842506D01*
Y1837416D01*
X5897483Y1832713D01*
X5901083Y1829113D01*
X5905786Y1827165D01*
X5910876D01*
X5915579Y1829113D01*
X5919178Y1832713D01*
X5921126Y1837416D01*
Y1842506D01*
X5919178Y1847209D01*
X5915993Y1850394D01*
X5919178Y1853579D01*
X5921126Y1858282D01*
Y1863372D01*
X5919178Y1868075D01*
X5915579Y1871674D01*
X5910876Y1873622D01*
D02*
G37*
G36*
X5825866Y1897572D02*
Y1866142D01*
Y1834711D01*
X5833084Y1836645D01*
X5840302Y1840813D01*
X5842756Y1843267D01*
X5847441Y1840881D01*
Y1837416D01*
X5849389Y1832713D01*
X5852988Y1829113D01*
X5857691Y1827165D01*
X5862781D01*
X5867484Y1829113D01*
X5871084Y1832713D01*
X5873032Y1837416D01*
Y1842506D01*
X5871084Y1847209D01*
X5867899Y1850394D01*
X5871084Y1853579D01*
X5873032Y1858282D01*
Y1863372D01*
X5871084Y1868075D01*
X5867484Y1871674D01*
X5862781Y1873622D01*
X5857691D01*
X5856896Y1873293D01*
X5850949Y1876168D01*
X5850362Y1878360D01*
X5846195Y1885577D01*
X5840302Y1891471D01*
X5833084Y1895638D01*
X5825866Y1897572D01*
D02*
G37*
G36*
X3704708Y1837598D02*
X3698835D01*
X3693409Y1835351D01*
X3689256Y1831198D01*
X3687008Y1825771D01*
Y1819898D01*
X3689256Y1814472D01*
X3693409Y1810319D01*
X3698835Y1808071D01*
X3704708D01*
X3710135Y1810319D01*
X3714288Y1814472D01*
X3716535Y1819898D01*
Y1825771D01*
X3714288Y1831198D01*
X3710135Y1835351D01*
X3704708Y1837598D01*
D02*
G37*
G36*
X2792741Y1828780D02*
X2787259D01*
X2782195Y1826682D01*
X2778318Y1822805D01*
X2776220Y1817741D01*
Y1812259D01*
X2778318Y1807195D01*
X2782195Y1803318D01*
X2787259Y1801220D01*
X2792741D01*
X2797805Y1803318D01*
X2801682Y1807195D01*
X2803780Y1812259D01*
Y1817741D01*
X2801682Y1822805D01*
X2797805Y1826682D01*
X2792741Y1828780D01*
D02*
G37*
G36*
X4248937Y1815764D02*
X4243063D01*
X4237637Y1813516D01*
X4233484Y1809363D01*
X4231236Y1803937D01*
Y1798063D01*
X4233484Y1792637D01*
X4237637Y1788484D01*
X4243063Y1786236D01*
X4248937D01*
X4254363Y1788484D01*
X4258516Y1792637D01*
X4260764Y1798063D01*
Y1803937D01*
X4258516Y1809363D01*
X4254363Y1813516D01*
X4248937Y1815764D01*
D02*
G37*
G36*
X3674937Y1812764D02*
X3669063D01*
X3663637Y1810516D01*
X3659484Y1806363D01*
X3657236Y1800937D01*
Y1795063D01*
X3659484Y1789637D01*
X3663637Y1785484D01*
X3669063Y1783236D01*
X3674937D01*
X3680363Y1785484D01*
X3684516Y1789637D01*
X3686764Y1795063D01*
Y1800937D01*
X3684516Y1806363D01*
X3680363Y1810516D01*
X3674937Y1812764D01*
D02*
G37*
G36*
X5713661Y1788929D02*
Y1776653D01*
X5725937D01*
X5723814Y1781778D01*
X5718786Y1786806D01*
X5713661Y1788929D01*
D02*
G37*
G36*
X5703661D02*
X5698537Y1786806D01*
X5693508Y1781778D01*
X5691386Y1776653D01*
X5703661D01*
Y1788929D01*
D02*
G37*
G36*
X2516697Y1856496D02*
X2505035D01*
X2493770Y1853478D01*
X2483671Y1847647D01*
X2475424Y1839400D01*
X2469593Y1829301D01*
X2466575Y1818036D01*
Y1806374D01*
X2469593Y1795109D01*
X2475424Y1785009D01*
X2483671Y1776763D01*
X2493770Y1770932D01*
X2505035Y1767913D01*
X2516697D01*
X2527962Y1770932D01*
X2538062Y1776763D01*
X2546308Y1785009D01*
X2552139Y1795109D01*
X2555157Y1806374D01*
Y1818036D01*
X2552139Y1829301D01*
X2546308Y1839400D01*
X2538062Y1847647D01*
X2527962Y1853478D01*
X2516697Y1856496D01*
D02*
G37*
G36*
X2416697D02*
X2405035D01*
X2393770Y1853478D01*
X2383671Y1847647D01*
X2375424Y1839400D01*
X2369593Y1829301D01*
X2366575Y1818036D01*
Y1806374D01*
X2369593Y1795109D01*
X2375424Y1785009D01*
X2383671Y1776763D01*
X2393770Y1770932D01*
X2405035Y1767913D01*
X2416697D01*
X2427962Y1770932D01*
X2438062Y1776763D01*
X2446308Y1785009D01*
X2452139Y1795109D01*
X2455157Y1806374D01*
Y1818036D01*
X2452139Y1829301D01*
X2446308Y1839400D01*
X2438062Y1847647D01*
X2427962Y1853478D01*
X2416697Y1856496D01*
D02*
G37*
G36*
X5725937Y1766653D02*
X5713661D01*
Y1754378D01*
X5718786Y1756501D01*
X5723814Y1761529D01*
X5725937Y1766653D01*
D02*
G37*
G36*
X5703661D02*
X5691386D01*
X5693508Y1761529D01*
X5698537Y1756501D01*
X5703661Y1754378D01*
Y1766653D01*
D02*
G37*
G36*
X5908057Y1798228D02*
X5902967D01*
X5898264Y1796281D01*
X5894664Y1792681D01*
X5892717Y1787978D01*
Y1782888D01*
X5894516Y1778543D01*
X5892717Y1774199D01*
Y1769108D01*
X5894516Y1764764D01*
X5892717Y1760419D01*
Y1755329D01*
X5894664Y1750626D01*
X5898264Y1747027D01*
X5902967Y1745079D01*
X5908057D01*
X5912760Y1747027D01*
X5916359Y1750626D01*
X5922100Y1751419D01*
X5922752Y1750767D01*
X5927455Y1748819D01*
X5932545D01*
X5937248Y1750767D01*
X5940847Y1754366D01*
X5942795Y1759069D01*
Y1764159D01*
X5940847Y1768862D01*
X5937662Y1772047D01*
X5940847Y1775232D01*
X5942795Y1779935D01*
Y1785025D01*
X5940847Y1789728D01*
X5937248Y1793328D01*
X5932545Y1795276D01*
X5927455D01*
X5922752Y1793328D01*
X5921869Y1792445D01*
X5916359Y1792681D01*
X5912760Y1796281D01*
X5908057Y1798228D01*
D02*
G37*
G36*
X5865545Y1795409D02*
X5860455D01*
X5855752Y1793462D01*
X5852153Y1789862D01*
X5850205Y1785159D01*
Y1780069D01*
X5852153Y1775366D01*
X5855700Y1771819D01*
X5852153Y1768272D01*
X5850205Y1763569D01*
Y1758478D01*
X5852153Y1753776D01*
X5855752Y1750176D01*
X5860455Y1748228D01*
X5865545D01*
X5870248Y1750176D01*
X5873847Y1753776D01*
X5875795Y1758478D01*
Y1763569D01*
X5873847Y1768272D01*
X5870300Y1771819D01*
X5873847Y1775366D01*
X5875795Y1780069D01*
Y1785159D01*
X5873847Y1789862D01*
X5870248Y1793462D01*
X5865545Y1795409D01*
D02*
G37*
G36*
X5643532Y1825000D02*
X5638441D01*
X5633739Y1823052D01*
X5630139Y1819453D01*
X5628191Y1814750D01*
Y1809660D01*
X5630139Y1804957D01*
X5630352Y1804744D01*
X5632752Y1800611D01*
X5629153Y1797012D01*
X5627205Y1792309D01*
Y1787219D01*
X5629153Y1782516D01*
X5632752Y1778916D01*
X5637455Y1776968D01*
X5642545D01*
X5647248Y1778916D01*
X5650847Y1782516D01*
X5650883Y1782601D01*
X5655883Y1781606D01*
Y1780132D01*
X5657831Y1775429D01*
X5658340Y1774920D01*
X5661272Y1771653D01*
X5658340Y1768387D01*
X5657831Y1767878D01*
X5655883Y1763175D01*
Y1758085D01*
X5657831Y1753382D01*
X5661430Y1749783D01*
X5666133Y1747835D01*
X5671223D01*
X5675926Y1749783D01*
X5679525Y1753382D01*
X5681473Y1758085D01*
Y1763175D01*
X5679525Y1767878D01*
X5679016Y1768387D01*
X5676084Y1771654D01*
X5679016Y1774920D01*
X5679525Y1775429D01*
X5681473Y1780132D01*
Y1785222D01*
X5679525Y1789925D01*
X5675926Y1793525D01*
X5671223Y1795473D01*
X5666133D01*
X5661430Y1793525D01*
X5657831Y1789925D01*
X5657795Y1789840D01*
X5652795Y1790835D01*
Y1792309D01*
X5650847Y1797012D01*
X5650635Y1797225D01*
X5648235Y1801357D01*
X5651834Y1804957D01*
X5653782Y1809660D01*
Y1814750D01*
X5651834Y1819453D01*
X5648234Y1823052D01*
X5643532Y1825000D01*
D02*
G37*
G36*
X3731283Y1810039D02*
X3725410D01*
X3719983Y1807792D01*
X3715830Y1803639D01*
X3713583Y1798212D01*
Y1792339D01*
X3715830Y1786913D01*
X3719983Y1782759D01*
X3721892Y1781969D01*
X3721208Y1777409D01*
X3721019Y1776918D01*
X3715715Y1774721D01*
X3711562Y1770568D01*
X3709314Y1765142D01*
Y1759269D01*
X3711562Y1753842D01*
X3715715Y1749689D01*
X3721142Y1747441D01*
X3727015D01*
X3732441Y1749689D01*
X3736594Y1753842D01*
X3738842Y1759269D01*
Y1765142D01*
X3736594Y1770568D01*
X3732441Y1774721D01*
X3730533Y1775512D01*
X3731217Y1780072D01*
X3731405Y1780562D01*
X3736709Y1782759D01*
X3740863Y1786913D01*
X3743110Y1792339D01*
Y1798212D01*
X3740863Y1803639D01*
X3736709Y1807792D01*
X3731283Y1810039D01*
D02*
G37*
G36*
X5789947Y1752953D02*
X5784856D01*
X5780154Y1751005D01*
X5776554Y1747406D01*
X5774606Y1742703D01*
Y1737612D01*
X5776554Y1732909D01*
X5780154Y1729310D01*
X5784856Y1727362D01*
X5789947D01*
X5794650Y1729310D01*
X5798249Y1732909D01*
X5800197Y1737612D01*
Y1742703D01*
X5798249Y1747406D01*
X5794650Y1751005D01*
X5789947Y1752953D01*
D02*
G37*
G36*
X4148937Y1748764D02*
X4143063D01*
X4137637Y1746516D01*
X4133484Y1742363D01*
X4131236Y1736937D01*
Y1731063D01*
X4133484Y1725637D01*
X4137637Y1721484D01*
X4143063Y1719236D01*
X4148937D01*
X4154363Y1721484D01*
X4158516Y1725637D01*
X4160764Y1731063D01*
Y1736937D01*
X4158516Y1742363D01*
X4154363Y1746516D01*
X4148937Y1748764D01*
D02*
G37*
G36*
X2517366Y1761575D02*
X2515866D01*
Y1717205D01*
X2560236D01*
Y1718704D01*
X2556872Y1731261D01*
X2550372Y1742519D01*
X2541180Y1751711D01*
X2529922Y1758210D01*
X2517366Y1761575D01*
D02*
G37*
G36*
X2505866D02*
X2504366D01*
X2491810Y1758210D01*
X2480552Y1751711D01*
X2471360Y1742519D01*
X2464860Y1731261D01*
X2461496Y1718704D01*
Y1717205D01*
X2505866D01*
Y1761575D01*
D02*
G37*
G36*
X4223017Y1757480D02*
X4217927D01*
X4213224Y1755532D01*
X4209625Y1751933D01*
X4207677Y1747230D01*
Y1742140D01*
X4209625Y1737437D01*
X4212712Y1734350D01*
X4209625Y1731264D01*
X4207677Y1726561D01*
Y1721471D01*
X4209625Y1716768D01*
X4213224Y1713168D01*
X4217927Y1711220D01*
X4223017D01*
X4227720Y1713168D01*
X4231320Y1716768D01*
X4233268Y1721471D01*
Y1726561D01*
X4231320Y1731264D01*
X4228233Y1734350D01*
X4231320Y1737437D01*
X4233268Y1742140D01*
Y1747230D01*
X4231320Y1751933D01*
X4227720Y1755532D01*
X4223017Y1757480D01*
D02*
G37*
G36*
X5862781Y1716732D02*
X5857691D01*
X5852988Y1714784D01*
X5849389Y1711185D01*
X5847441Y1706482D01*
Y1702426D01*
X5844488Y1700486D01*
X5842821Y1699975D01*
X5840302Y1702494D01*
X5833084Y1706662D01*
X5825866Y1708596D01*
Y1677165D01*
Y1645735D01*
X5833084Y1647669D01*
X5840302Y1651836D01*
X5846195Y1657730D01*
X5850362Y1664947D01*
X5850891Y1666921D01*
X5856830Y1669766D01*
X5857691Y1669409D01*
X5862781D01*
X5867484Y1671357D01*
X5871084Y1674957D01*
X5873032Y1679660D01*
Y1684750D01*
X5871084Y1689453D01*
X5870732Y1689804D01*
X5867503Y1693071D01*
X5870732Y1696337D01*
X5871084Y1696689D01*
X5873032Y1701392D01*
Y1706482D01*
X5871084Y1711185D01*
X5867484Y1714784D01*
X5862781Y1716732D01*
D02*
G37*
G36*
X5815866Y1708596D02*
X5808648Y1706662D01*
X5801430Y1702494D01*
X5795537Y1696601D01*
X5791370Y1689383D01*
X5789436Y1682165D01*
X5815866D01*
Y1708596D01*
D02*
G37*
G36*
X5995158D02*
Y1682165D01*
X6021588D01*
X6019654Y1689383D01*
X6015487Y1696601D01*
X6009593Y1702494D01*
X6002375Y1706662D01*
X5995158Y1708596D01*
D02*
G37*
G36*
X5617270Y1712598D02*
X5612179D01*
X5607476Y1710650D01*
X5603877Y1707051D01*
X5601929Y1702348D01*
Y1697258D01*
X5603877Y1692555D01*
X5607476Y1688956D01*
X5612179Y1687008D01*
X5616535D01*
Y1682101D01*
X5618483Y1677398D01*
X5622083Y1673798D01*
X5626786Y1671850D01*
X5631876D01*
X5636579Y1673798D01*
X5640178Y1677398D01*
X5642126Y1682101D01*
Y1687191D01*
X5640178Y1691894D01*
X5636579Y1695493D01*
X5631876Y1697441D01*
X5627520D01*
Y1702348D01*
X5625572Y1707051D01*
X5621972Y1710650D01*
X5617270Y1712598D01*
D02*
G37*
G36*
X2416697Y1756496D02*
X2405035D01*
X2393770Y1753478D01*
X2383671Y1747647D01*
X2375424Y1739400D01*
X2369593Y1729301D01*
X2366575Y1718036D01*
Y1706374D01*
X2369593Y1695109D01*
X2375424Y1685009D01*
X2383671Y1676763D01*
X2393770Y1670932D01*
X2405035Y1667913D01*
X2416697D01*
X2427962Y1670932D01*
X2438062Y1676763D01*
X2446308Y1685009D01*
X2452139Y1695109D01*
X2455157Y1706374D01*
Y1718036D01*
X2452139Y1729301D01*
X2446308Y1739400D01*
X2438062Y1747647D01*
X2427962Y1753478D01*
X2416697Y1756496D01*
D02*
G37*
G36*
X5758451Y1689961D02*
X5753360D01*
X5748658Y1688013D01*
X5745058Y1684413D01*
X5743110Y1679710D01*
Y1674620D01*
X5745058Y1669917D01*
X5748658Y1666318D01*
X5753360Y1664370D01*
X5758451D01*
X5763154Y1666318D01*
X5766753Y1669917D01*
X5768701Y1674620D01*
Y1679710D01*
X5766753Y1684413D01*
X5763154Y1688013D01*
X5758451Y1689961D01*
D02*
G37*
G36*
X2560236Y1707205D02*
X2515866D01*
Y1662835D01*
X2517366D01*
X2529922Y1666199D01*
X2541180Y1672699D01*
X2550372Y1681891D01*
X2556872Y1693149D01*
X2560236Y1705705D01*
Y1707205D01*
D02*
G37*
G36*
X2505866D02*
X2461496D01*
Y1705705D01*
X2464860Y1693149D01*
X2471360Y1681891D01*
X2480552Y1672699D01*
X2491810Y1666199D01*
X2504366Y1662835D01*
X2505866D01*
Y1707205D01*
D02*
G37*
G36*
X6021588Y1672165D02*
X5995158D01*
Y1645735D01*
X6002375Y1647669D01*
X6009593Y1651836D01*
X6015487Y1657730D01*
X6019654Y1664947D01*
X6021588Y1672165D01*
D02*
G37*
G36*
X5815866Y1672165D02*
X5789436D01*
X5791370Y1664947D01*
X5795537Y1657730D01*
X5801430Y1651836D01*
X5808648Y1647669D01*
X5815866Y1645735D01*
Y1672165D01*
D02*
G37*
G36*
X5946103Y1716732D02*
X5941013D01*
X5936310Y1714784D01*
X5932711Y1711185D01*
X5930763Y1706482D01*
Y1701392D01*
X5932711Y1696689D01*
X5933062Y1696337D01*
X5936292Y1693071D01*
X5933062Y1689804D01*
X5932711Y1689453D01*
X5930763Y1684750D01*
Y1679660D01*
X5932711Y1674957D01*
X5936310Y1671357D01*
X5941013Y1669409D01*
X5946103D01*
X5950806Y1671357D01*
X5953504Y1674055D01*
X5957577Y1673194D01*
X5958605Y1672623D01*
X5960661Y1664947D01*
X5964828Y1657730D01*
X5970722Y1651836D01*
X5977940Y1647669D01*
X5985158Y1645735D01*
Y1677165D01*
Y1708596D01*
X5977940Y1706662D01*
X5970722Y1702494D01*
X5964828Y1696601D01*
X5960661Y1689383D01*
X5960341Y1688189D01*
X5955072Y1687843D01*
X5954406Y1689453D01*
X5954054Y1689804D01*
X5950825Y1693071D01*
X5954054Y1696337D01*
X5954406Y1696689D01*
X5956354Y1701392D01*
Y1706482D01*
X5954406Y1711185D01*
X5950806Y1714784D01*
X5946103Y1716732D01*
D02*
G37*
G36*
X4106873Y1652228D02*
X4101000D01*
X4095573Y1649980D01*
X4091420Y1645827D01*
X4089173Y1640401D01*
Y1634527D01*
X4091420Y1629101D01*
X4095573Y1624948D01*
X4101000Y1622700D01*
X4106873D01*
X4112300Y1624948D01*
X4116453Y1629101D01*
X4118700Y1634527D01*
Y1640401D01*
X4116453Y1645827D01*
X4112300Y1649980D01*
X4106873Y1652228D01*
D02*
G37*
G36*
X4069866Y1647716D02*
X4063992D01*
X4058566Y1645469D01*
X4054413Y1641316D01*
X4052165Y1635889D01*
Y1630016D01*
X4054413Y1624590D01*
X4058566Y1620437D01*
X4063992Y1618189D01*
X4069866D01*
X4075292Y1620437D01*
X4079445Y1624590D01*
X4081693Y1630016D01*
Y1635889D01*
X4079445Y1641316D01*
X4075292Y1645469D01*
X4069866Y1647716D01*
D02*
G37*
G36*
X5905512Y1648942D02*
X5899137Y1647674D01*
X5893732Y1644063D01*
X5890121Y1638658D01*
X5888853Y1632283D01*
Y1615748D01*
X5890121Y1609373D01*
X5893732Y1603968D01*
X5899137Y1600357D01*
X5905512Y1599089D01*
X5911887Y1600357D01*
X5917291Y1603968D01*
X5920902Y1609373D01*
X5922171Y1615748D01*
Y1632283D01*
X5920902Y1638658D01*
X5917291Y1644063D01*
X5911887Y1647674D01*
X5905512Y1648942D01*
D02*
G37*
G36*
X2516697Y1656496D02*
X2505035D01*
X2493770Y1653478D01*
X2483671Y1647647D01*
X2475424Y1639400D01*
X2469593Y1629301D01*
X2466575Y1618036D01*
Y1606374D01*
X2469593Y1595109D01*
X2475424Y1585009D01*
X2483671Y1576763D01*
X2493770Y1570932D01*
X2505035Y1567913D01*
X2516697D01*
X2527962Y1570932D01*
X2538062Y1576763D01*
X2546308Y1585009D01*
X2552139Y1595109D01*
X2555157Y1606374D01*
Y1618036D01*
X2552139Y1629301D01*
X2546308Y1639400D01*
X2538062Y1647647D01*
X2527962Y1653478D01*
X2516697Y1656496D01*
D02*
G37*
G36*
X2416697D02*
X2405035D01*
X2393770Y1653478D01*
X2383671Y1647647D01*
X2375424Y1639400D01*
X2369593Y1629301D01*
X2366575Y1618036D01*
Y1606374D01*
X2369593Y1595109D01*
X2375424Y1585009D01*
X2383671Y1576763D01*
X2393770Y1570932D01*
X2405035Y1567913D01*
X2416697D01*
X2427962Y1570932D01*
X2438062Y1576763D01*
X2446308Y1585009D01*
X2452139Y1595109D01*
X2455157Y1606374D01*
Y1618036D01*
X2452139Y1629301D01*
X2446308Y1639400D01*
X2438062Y1647647D01*
X2427962Y1653478D01*
X2416697Y1656496D01*
D02*
G37*
G36*
X5908449Y1538386D02*
X5902575D01*
X5897149Y1536138D01*
X5892996Y1531985D01*
X5890748Y1526559D01*
Y1520685D01*
X5892996Y1515259D01*
X5897149Y1511106D01*
X5902575Y1508858D01*
X5908449D01*
X5913875Y1511106D01*
X5918028Y1515259D01*
X5920276Y1520685D01*
Y1526559D01*
X5918028Y1531985D01*
X5913875Y1536138D01*
X5908449Y1538386D01*
D02*
G37*
G36*
X2516697Y1556496D02*
X2505035D01*
X2493770Y1553478D01*
X2483671Y1547647D01*
X2475424Y1539400D01*
X2469593Y1529301D01*
X2466575Y1518036D01*
Y1506374D01*
X2469593Y1495109D01*
X2475424Y1485009D01*
X2483671Y1476763D01*
X2493770Y1470932D01*
X2505035Y1467913D01*
X2516697D01*
X2527962Y1470932D01*
X2538062Y1476763D01*
X2546308Y1485009D01*
X2552139Y1495109D01*
X2555157Y1506374D01*
Y1518036D01*
X2552139Y1529301D01*
X2546308Y1539400D01*
X2538062Y1547647D01*
X2527962Y1553478D01*
X2516697Y1556496D01*
D02*
G37*
G36*
X2416697D02*
X2405035D01*
X2393770Y1553478D01*
X2383671Y1547647D01*
X2375424Y1539400D01*
X2369593Y1529301D01*
X2366575Y1518036D01*
Y1506374D01*
X2369593Y1495109D01*
X2375424Y1485009D01*
X2383671Y1476763D01*
X2393770Y1470932D01*
X2405035Y1467913D01*
X2416697D01*
X2427962Y1470932D01*
X2438062Y1476763D01*
X2446308Y1485009D01*
X2452139Y1495109D01*
X2455157Y1506374D01*
Y1518036D01*
X2452139Y1529301D01*
X2446308Y1539400D01*
X2438062Y1547647D01*
X2427962Y1553478D01*
X2416697Y1556496D01*
D02*
G37*
G36*
X2948741Y1487780D02*
X2943259D01*
X2938195Y1485682D01*
X2934318Y1481805D01*
X2932220Y1476741D01*
Y1471259D01*
X2934318Y1466195D01*
X2938195Y1462318D01*
X2943259Y1460220D01*
X2948741D01*
X2953805Y1462318D01*
X2957682Y1466195D01*
X2959780Y1471259D01*
Y1476741D01*
X2957682Y1481805D01*
X2953805Y1485682D01*
X2948741Y1487780D01*
D02*
G37*
G36*
X2861741Y1479780D02*
X2856259D01*
X2851195Y1477682D01*
X2847318Y1473805D01*
X2845220Y1468741D01*
Y1463259D01*
X2847318Y1458195D01*
X2851195Y1454318D01*
X2856259Y1452220D01*
X2861741D01*
X2866805Y1454318D01*
X2870682Y1458195D01*
X2872780Y1463259D01*
Y1468741D01*
X2870682Y1473805D01*
X2866805Y1477682D01*
X2861741Y1479780D01*
D02*
G37*
G36*
X2417366Y1461575D02*
X2415866D01*
Y1417205D01*
X2460236D01*
Y1418704D01*
X2456872Y1431261D01*
X2450372Y1442519D01*
X2441180Y1451711D01*
X2429922Y1458210D01*
X2417366Y1461575D01*
D02*
G37*
G36*
X2405866D02*
X2404366D01*
X2391810Y1458210D01*
X2380552Y1451711D01*
X2371360Y1442519D01*
X2364860Y1431261D01*
X2361496Y1418704D01*
Y1417205D01*
X2405866D01*
Y1461575D01*
D02*
G37*
G36*
X2516697Y1456496D02*
X2505035D01*
X2493770Y1453478D01*
X2483671Y1447647D01*
X2475424Y1439400D01*
X2469593Y1429301D01*
X2466575Y1418036D01*
Y1406374D01*
X2469593Y1395109D01*
X2475424Y1385009D01*
X2483671Y1376763D01*
X2493770Y1370932D01*
X2505035Y1367913D01*
X2516697D01*
X2527962Y1370932D01*
X2538062Y1376763D01*
X2546308Y1385009D01*
X2552139Y1395109D01*
X2555157Y1406374D01*
Y1418036D01*
X2552139Y1429301D01*
X2546308Y1439400D01*
X2538062Y1447647D01*
X2527962Y1453478D01*
X2516697Y1456496D01*
D02*
G37*
G36*
X2460236Y1407205D02*
X2415866D01*
Y1362835D01*
X2417366D01*
X2429922Y1366199D01*
X2441180Y1372699D01*
X2450372Y1381891D01*
X2456872Y1393149D01*
X2460236Y1405705D01*
Y1407205D01*
D02*
G37*
G36*
X2405866D02*
X2361496D01*
Y1405705D01*
X2364860Y1393149D01*
X2371360Y1381891D01*
X2380552Y1372699D01*
X2391810Y1366199D01*
X2404366Y1362835D01*
X2405866D01*
Y1407205D01*
D02*
G37*
G36*
X1565201Y1348583D02*
X1560118D01*
Y1225472D01*
X1683228D01*
Y1230555D01*
X1680074Y1250472D01*
X1673842Y1269650D01*
X1664688Y1287617D01*
X1652835Y1303931D01*
X1638576Y1318189D01*
X1622263Y1330042D01*
X1604295Y1339197D01*
X1585117Y1345428D01*
X1565201Y1348583D01*
D02*
G37*
G36*
X1550118D02*
X1545036D01*
X1525119Y1345428D01*
X1505941Y1339197D01*
X1487974Y1330042D01*
X1471660Y1318189D01*
X1457401Y1303931D01*
X1445549Y1287617D01*
X1436394Y1269650D01*
X1430162Y1250472D01*
X1427008Y1230555D01*
Y1225472D01*
X1550118D01*
Y1348583D01*
D02*
G37*
G36*
X2470712D02*
X2465630D01*
Y1225472D01*
X2588740D01*
Y1230555D01*
X2585586Y1250472D01*
X2579354Y1269650D01*
X2570200Y1287617D01*
X2558347Y1303931D01*
X2544088Y1318189D01*
X2527774Y1330042D01*
X2509807Y1339197D01*
X2490629Y1345428D01*
X2470712Y1348583D01*
D02*
G37*
G36*
X2455630D02*
X2450547D01*
X2430631Y1345428D01*
X2411453Y1339197D01*
X2393485Y1330042D01*
X2377172Y1318189D01*
X2362913Y1303931D01*
X2351060Y1287617D01*
X2341906Y1269650D01*
X2335674Y1250472D01*
X2332520Y1230555D01*
Y1225472D01*
X2455630D01*
Y1348583D01*
D02*
G37*
G36*
X5915594Y1309213D02*
X5910512D01*
Y1186102D01*
X6033622D01*
Y1191185D01*
X6030467Y1211102D01*
X6024236Y1230280D01*
X6015081Y1248247D01*
X6003229Y1264561D01*
X5988970Y1278819D01*
X5972656Y1290672D01*
X5954689Y1299827D01*
X5935511Y1306058D01*
X5915594Y1309213D01*
D02*
G37*
G36*
X5900512D02*
X5895429D01*
X5875513Y1306058D01*
X5856335Y1299827D01*
X5838367Y1290672D01*
X5822054Y1278819D01*
X5807795Y1264561D01*
X5795942Y1248247D01*
X5786788Y1230280D01*
X5780556Y1211102D01*
X5777402Y1191185D01*
Y1186102D01*
X5900512D01*
Y1309213D01*
D02*
G37*
G36*
X1191185D02*
X1186102D01*
Y1186102D01*
X1309213D01*
Y1191185D01*
X1306058Y1211102D01*
X1299827Y1230280D01*
X1290672Y1248247D01*
X1278819Y1264561D01*
X1264561Y1278819D01*
X1248247Y1290672D01*
X1230280Y1299827D01*
X1211102Y1306058D01*
X1191185Y1309213D01*
D02*
G37*
G36*
X1176102D02*
X1171020D01*
X1151103Y1306058D01*
X1131925Y1299827D01*
X1113958Y1290672D01*
X1097644Y1278819D01*
X1083385Y1264561D01*
X1071533Y1248247D01*
X1062378Y1230280D01*
X1056147Y1211102D01*
X1052992Y1191185D01*
Y1186102D01*
X1176102D01*
Y1309213D01*
D02*
G37*
G36*
X2588740Y1215472D02*
X2465630D01*
Y1092362D01*
X2470712D01*
X2490629Y1095517D01*
X2509807Y1101748D01*
X2527774Y1110903D01*
X2544088Y1122755D01*
X2558347Y1137014D01*
X2570200Y1153328D01*
X2579354Y1171295D01*
X2585586Y1190473D01*
X2588740Y1210390D01*
Y1215472D01*
D02*
G37*
G36*
X2455630D02*
X2332520D01*
Y1210390D01*
X2335674Y1190473D01*
X2341906Y1171295D01*
X2351060Y1153328D01*
X2362913Y1137014D01*
X2377172Y1122755D01*
X2393485Y1110903D01*
X2411453Y1101748D01*
X2430631Y1095517D01*
X2450547Y1092362D01*
X2455630D01*
Y1215472D01*
D02*
G37*
G36*
X1683228Y1215472D02*
X1560118D01*
Y1092362D01*
X1565201D01*
X1585117Y1095517D01*
X1604295Y1101748D01*
X1622263Y1110903D01*
X1638576Y1122755D01*
X1652835Y1137014D01*
X1664688Y1153328D01*
X1673842Y1171295D01*
X1680074Y1190473D01*
X1683228Y1210390D01*
Y1215472D01*
D02*
G37*
G36*
X1550118D02*
X1427008D01*
Y1210390D01*
X1430162Y1190473D01*
X1436394Y1171295D01*
X1445549Y1153328D01*
X1457401Y1137014D01*
X1471660Y1122755D01*
X1487974Y1110903D01*
X1505941Y1101748D01*
X1525119Y1095517D01*
X1545036Y1092362D01*
X1550118D01*
Y1215472D01*
D02*
G37*
G36*
X6033622Y1176102D02*
X5910512D01*
Y1052992D01*
X5915594D01*
X5935511Y1056147D01*
X5954689Y1062378D01*
X5972656Y1071533D01*
X5988970Y1083385D01*
X6003229Y1097644D01*
X6015081Y1113958D01*
X6024236Y1131925D01*
X6030467Y1151103D01*
X6033622Y1171020D01*
Y1176102D01*
D02*
G37*
G36*
X5900512D02*
X5777402D01*
Y1171020D01*
X5780556Y1151103D01*
X5786788Y1131925D01*
X5795942Y1113958D01*
X5807795Y1097644D01*
X5822054Y1083385D01*
X5838367Y1071533D01*
X5856335Y1062378D01*
X5875513Y1056147D01*
X5895429Y1052992D01*
X5900512D01*
Y1176102D01*
D02*
G37*
G36*
X1309213D02*
X1186102D01*
Y1052992D01*
X1191185D01*
X1211102Y1056147D01*
X1230280Y1062378D01*
X1248247Y1071533D01*
X1264561Y1083385D01*
X1278819Y1097644D01*
X1290672Y1113958D01*
X1299827Y1131925D01*
X1306058Y1151103D01*
X1309213Y1171020D01*
Y1176102D01*
D02*
G37*
G36*
X1176102D02*
X1052992D01*
Y1171020D01*
X1056147Y1151103D01*
X1062378Y1131925D01*
X1071533Y1113958D01*
X1083385Y1097644D01*
X1097644Y1083385D01*
X1113958Y1071533D01*
X1131925Y1062378D01*
X1151103Y1056147D01*
X1171020Y1052992D01*
X1176102D01*
Y1176102D01*
D02*
G37*
%LPD*%
D67*
X5830709Y5590551D02*
D03*
X5507874D02*
D03*
X3125984Y4204724D02*
D03*
X3448819D02*
D03*
X1171260Y4559055D02*
D03*
Y4724409D02*
D03*
Y4889764D02*
D03*
X1387795Y4559055D02*
D03*
Y4724409D02*
D03*
Y4889764D02*
D03*
D68*
X5590551Y5590551D02*
D03*
X5669291D02*
D03*
X5748032D02*
D03*
X3366142Y4204724D02*
D03*
X3287402D02*
D03*
X3208661D02*
D03*
D69*
X5295276Y5748032D02*
D03*
X3996063D02*
D03*
X5295276Y3858268D02*
D03*
X3996063D02*
D03*
X2460630Y3503937D02*
D03*
X1555118Y1220472D02*
D03*
X2460630D02*
D03*
X1555118Y3503937D02*
D03*
X5905512Y5905512D02*
D03*
Y1181102D02*
D03*
X1200000Y5800000D02*
D03*
X1181102Y1181102D02*
D03*
D70*
X2410866Y3312205D02*
D03*
D71*
X2510866D02*
D03*
X2410866Y3212205D02*
D03*
X2510866D02*
D03*
X2410866Y3112205D02*
D03*
X2510866D02*
D03*
X2410866Y3012205D02*
D03*
X2510866D02*
D03*
X2410866Y2912205D02*
D03*
X2510866D02*
D03*
X2410866Y2812205D02*
D03*
X2510866D02*
D03*
X2410866Y2712205D02*
D03*
X2510866D02*
D03*
X2410866Y2612205D02*
D03*
X2510866D02*
D03*
X2410866Y2512205D02*
D03*
X2510866D02*
D03*
X2410866Y2412205D02*
D03*
X2510866D02*
D03*
X2410866Y2312205D02*
D03*
X2510866D02*
D03*
X2410866Y2212205D02*
D03*
X2510866D02*
D03*
X2410866Y2112205D02*
D03*
X2510866D02*
D03*
X2410866Y2012205D02*
D03*
X2510866D02*
D03*
X2410866Y1912205D02*
D03*
X2510866D02*
D03*
X2410866Y1812205D02*
D03*
X2510866D02*
D03*
X2410866Y1712205D02*
D03*
X2510866D02*
D03*
X2410866Y1612205D02*
D03*
X2510866D02*
D03*
X2410866Y1512205D02*
D03*
X2510866D02*
D03*
X2410866Y1412205D02*
D03*
X2510866D02*
D03*
D72*
X3239961Y4406299D02*
D03*
X3339961D02*
D03*
X3239961Y4506299D02*
D03*
X3339961D02*
D03*
X3239961Y4606299D02*
D03*
X3339961D02*
D03*
X3239961Y4706299D02*
D03*
X3339961D02*
D03*
Y4906299D02*
D03*
X3239961D02*
D03*
Y4806299D02*
D03*
X3339961D02*
D03*
D73*
X1220472Y5206693D02*
D03*
Y5580709D02*
D03*
X1405512D02*
D03*
Y5206693D02*
D03*
D74*
X1240158Y5393701D02*
D03*
D75*
X1476378D02*
D03*
D76*
X3224409Y3762205D02*
D03*
Y3862205D02*
D03*
Y3962205D02*
D03*
X2480315Y3762205D02*
D03*
Y3862205D02*
D03*
Y3962205D02*
D03*
D77*
X5767717Y4675197D02*
D03*
X5960630Y4698819D02*
D03*
X5767717Y4104331D02*
D03*
X5960630Y4080709D02*
D03*
D78*
X5881890Y5339370D02*
D03*
Y4896850D02*
D03*
D79*
X6039370Y5339370D02*
D03*
Y4896850D02*
D03*
D80*
X5990158Y2858268D02*
D03*
Y3047244D02*
D03*
X5820866D02*
D03*
Y2858268D02*
D03*
X5990158Y2267716D02*
D03*
Y2456693D02*
D03*
X5820866D02*
D03*
Y2267716D02*
D03*
X5990158Y1677165D02*
D03*
Y1866142D02*
D03*
X5820866D02*
D03*
Y1677165D02*
D03*
D81*
X3976378Y1861925D02*
D03*
X3948539Y1834086D02*
D03*
X3920700Y1806247D02*
D03*
X3948539Y1889764D02*
D03*
X3920700Y1861925D02*
D03*
X3892861Y1834086D02*
D03*
X3920700Y1917603D02*
D03*
X3892861Y1889764D02*
D03*
X3865023Y1861925D02*
D03*
X3892861Y1945441D02*
D03*
X3865023Y1917603D02*
D03*
X3837184Y1889764D02*
D03*
X4004217Y1834086D02*
D03*
X3976378Y1806247D02*
D03*
X3948539Y1778408D02*
D03*
X3976378Y1750570D02*
D03*
X4004217Y1778408D02*
D03*
X4032056Y1806247D02*
D03*
X3976378Y1917603D02*
D03*
X4004217Y1945441D02*
D03*
X4032056Y1973280D02*
D03*
X4004217Y1889764D02*
D03*
X4032056Y1917603D02*
D03*
X4059894Y1945441D02*
D03*
X4032056Y1861925D02*
D03*
X4059894Y1889764D02*
D03*
X4087733Y1917603D02*
D03*
X4059894Y1834086D02*
D03*
X4087733Y1861925D02*
D03*
X4115572Y1889764D02*
D03*
X3948539Y1945441D02*
D03*
X3976378Y1973280D02*
D03*
X4004217Y2001119D02*
D03*
X3976378Y2028958D02*
D03*
X3948539Y2001119D02*
D03*
X3920700Y1973280D02*
D03*
D82*
X5531000Y2563000D02*
D03*
X5568000Y4213000D02*
D03*
X3195000Y5158000D02*
D03*
X2859000Y1466000D02*
D03*
X2790000Y1815000D02*
D03*
X2946000Y1474000D02*
D03*
D83*
X4893000Y3247000D02*
D03*
D84*
X5860236Y2884252D02*
D03*
Y2863583D02*
D03*
X4162939Y2035992D02*
D03*
X4178220Y2020850D02*
D03*
X3872000Y4596000D02*
D03*
X3873000Y4619000D02*
D03*
X5943558Y1703937D02*
D03*
Y1682205D02*
D03*
X5860236Y2293898D02*
D03*
Y2272441D02*
D03*
X5908331Y3020866D02*
D03*
Y3041732D02*
D03*
Y2430709D02*
D03*
Y2451575D02*
D03*
Y1860827D02*
D03*
Y1839961D02*
D03*
X5860236Y1682205D02*
D03*
Y1703937D02*
D03*
X5863000Y1761024D02*
D03*
Y1782614D02*
D03*
X5930000Y1761614D02*
D03*
Y1782480D02*
D03*
X5863000Y2352165D02*
D03*
Y2373032D02*
D03*
X5930000Y2352165D02*
D03*
Y2373032D02*
D03*
Y2964488D02*
D03*
Y2943780D02*
D03*
X5863000Y2964488D02*
D03*
Y2943780D02*
D03*
X3871877Y4644486D02*
D03*
X3873648Y4569883D02*
D03*
X3871458Y4531705D02*
D03*
X5642204Y2381299D02*
D03*
Y2402165D02*
D03*
X5629331Y1684646D02*
D03*
X5614724Y1699803D02*
D03*
X5629252Y2275276D02*
D03*
X5614803Y2290276D02*
D03*
X5668678Y1760630D02*
D03*
Y1782677D02*
D03*
Y2351968D02*
D03*
Y2372835D02*
D03*
X5860236Y1839961D02*
D03*
Y1860827D02*
D03*
Y2430709D02*
D03*
Y2451575D02*
D03*
X5943558Y2293898D02*
D03*
Y2272441D02*
D03*
X5640000Y1789764D02*
D03*
X5640986Y1812205D02*
D03*
X4220472Y1744685D02*
D03*
Y1724016D02*
D03*
X5668678Y2962795D02*
D03*
Y2941929D02*
D03*
X4072323Y2138307D02*
D03*
X4058780Y2154016D02*
D03*
X5943558Y2863583D02*
D03*
Y2884252D02*
D03*
X5860236Y3041732D02*
D03*
Y3020866D02*
D03*
X5614724Y2880905D02*
D03*
X5629331Y2865748D02*
D03*
X5642204Y2993110D02*
D03*
Y2972244D02*
D03*
X5755905Y1677165D02*
D03*
X5787402Y1740158D02*
D03*
X3881890Y4669291D02*
D03*
X5448819Y3751968D02*
D03*
Y3716535D02*
D03*
Y3610236D02*
D03*
Y3539370D02*
D03*
Y3503937D02*
D03*
X5708661Y1771653D02*
D03*
Y2952756D02*
D03*
Y2362205D02*
D03*
Y5118110D02*
D03*
X5905512Y1771653D02*
D03*
Y1757874D02*
D03*
Y1785433D02*
D03*
Y2952756D02*
D03*
Y2938976D02*
D03*
Y2966535D02*
D03*
Y2375984D02*
D03*
Y2348425D02*
D03*
Y2362205D02*
D03*
D85*
X3672000Y1798000D02*
D03*
X4246000Y1801000D02*
D03*
X5231000Y2923551D02*
D03*
Y2333000D02*
D03*
X3531496Y5468504D02*
D03*
X3185039Y5263779D02*
D03*
X3701772Y1822835D02*
D03*
X5314961Y4716535D02*
D03*
X5527559Y4338583D02*
D03*
X5905512Y1523622D02*
D03*
X5066929Y3665354D02*
D03*
X4889764Y4031496D02*
D03*
X3881890Y4952756D02*
D03*
X3739173Y4537402D02*
D03*
X3574803Y4370079D02*
D03*
X4127134Y4423000D02*
D03*
X3826772Y4125984D02*
D03*
X3976378Y4393701D02*
D03*
X4385827Y1921260D02*
D03*
X5330709Y2295276D02*
D03*
Y2885827D02*
D03*
Y3129921D02*
D03*
Y2539370D02*
D03*
X5547244Y2066929D02*
D03*
X4972441Y2137795D02*
D03*
Y2728347D02*
D03*
X5547244Y2657480D02*
D03*
X4082677Y4338583D02*
D03*
X4322835D02*
D03*
X4082677Y4401575D02*
D03*
X4188976D02*
D03*
X4153543Y2381890D02*
D03*
X3631890Y1978347D02*
D03*
X3677165Y1917323D02*
D03*
X3728347Y1795276D02*
D03*
X3724078Y1762205D02*
D03*
X4066929Y1632953D02*
D03*
X4146000Y1734000D02*
D03*
X3834900Y2128144D02*
D03*
X3737464Y2030708D02*
D03*
X3695706Y1988950D02*
D03*
X4103936Y1637464D02*
D03*
X4214758Y2031242D02*
D03*
X4061645Y2184355D02*
D03*
X4103403Y2142597D02*
D03*
X4173000Y2073000D02*
D03*
X5788000Y2924102D02*
D03*
X5975000Y2982102D02*
D03*
X5464000Y2982551D02*
D03*
Y2392000D02*
D03*
X4092056Y4506229D02*
D03*
X4091413Y4469413D02*
D03*
X3977000Y4512000D02*
D03*
X3976000Y4968000D02*
D03*
X5975000Y2391551D02*
D03*
X5788000Y2333551D02*
D03*
D86*
X2602000Y4749000D02*
D03*
X2110236Y5472441D02*
D03*
Y5354331D02*
D03*
%TF.MD5,dbbd13a63e0a7e4aa47674a8e3d56067*%
M02*
