%TF.GenerationSoftware,Altium Limited,Altium Designer,22.1.2 (22)*%
G04 Layer_Color=2752767*
%FSLAX26Y26*%
%MOIN*%
%TF.SameCoordinates,747B8C89-0A35-4E4D-912B-25F4ADAE1177*%
%TF.FilePolarity,Positive*%
%TF.FileFunction,Drawing*%
%TF.Part,Single*%
G01*
G75*
%TA.AperFunction,NonConductor*%
%ADD202C,0.005000*%
%ADD203C,0.006667*%
%ADD204C,0.004000*%
D202*
X5728032Y5570551D02*
Y5610551D01*
X5768032D01*
Y5570551D01*
X5728032D01*
X5649291D02*
Y5610551D01*
X5689291D01*
Y5570551D01*
X5649291D01*
X5570551D02*
Y5610551D01*
X5610551D01*
Y5570551D01*
X5570551D01*
X3188661Y4184724D02*
Y4224724D01*
X3228661D01*
Y4184724D01*
X3188661D01*
X3267402D02*
Y4224724D01*
X3307402D01*
Y4184724D01*
X3267402D01*
X3346142D02*
Y4224724D01*
X3386142D01*
Y4184724D01*
X3346142D01*
X5295276Y5728032D02*
X5275276Y5768032D01*
X5315276D01*
X5295276Y5728032D01*
X3996063D02*
X3976063Y5768032D01*
X4016063D01*
X3996063Y5728032D01*
X5295276Y3838268D02*
X5275276Y3878268D01*
X5315276D01*
X5295276Y3838268D01*
X3996063D02*
X3976063Y3878268D01*
X4016063D01*
X3996063Y3838268D01*
X2460630Y3483937D02*
X2440630Y3523937D01*
X2480630D01*
X2460630Y3483937D01*
X1555118Y1200472D02*
X1535118Y1240472D01*
X1575118D01*
X1555118Y1200472D01*
X2460630D02*
X2440630Y1240472D01*
X2480630D01*
X2460630Y1200472D01*
X1555118Y3483937D02*
X1535118Y3523937D01*
X1575118D01*
X1555118Y3483937D01*
X2410866Y3292205D02*
X2420866Y3302205D01*
X2430866D01*
X2420866Y3312205D01*
X2430866Y3322205D01*
X2420866D01*
X2410866Y3332205D01*
X2400866Y3322205D01*
X2390866D01*
X2400866Y3312205D01*
X2390866Y3302205D01*
X2400866D01*
X2410866Y3292205D01*
X2510866D02*
X2520866Y3302205D01*
X2530866D01*
X2520866Y3312205D01*
X2530866Y3322205D01*
X2520866D01*
X2510866Y3332205D01*
X2500866Y3322205D01*
X2490866D01*
X2500866Y3312205D01*
X2490866Y3302205D01*
X2500866D01*
X2510866Y3292205D01*
X2410866Y3192205D02*
X2420866Y3202205D01*
X2430866D01*
X2420866Y3212205D01*
X2430866Y3222205D01*
X2420866D01*
X2410866Y3232205D01*
X2400866Y3222205D01*
X2390866D01*
X2400866Y3212205D01*
X2390866Y3202205D01*
X2400866D01*
X2410866Y3192205D01*
X2510866D02*
X2520866Y3202205D01*
X2530866D01*
X2520866Y3212205D01*
X2530866Y3222205D01*
X2520866D01*
X2510866Y3232205D01*
X2500866Y3222205D01*
X2490866D01*
X2500866Y3212205D01*
X2490866Y3202205D01*
X2500866D01*
X2510866Y3192205D01*
X2410866Y3092205D02*
X2420866Y3102205D01*
X2430866D01*
X2420866Y3112205D01*
X2430866Y3122205D01*
X2420866D01*
X2410866Y3132205D01*
X2400866Y3122205D01*
X2390866D01*
X2400866Y3112205D01*
X2390866Y3102205D01*
X2400866D01*
X2410866Y3092205D01*
X2510866D02*
X2520866Y3102205D01*
X2530866D01*
X2520866Y3112205D01*
X2530866Y3122205D01*
X2520866D01*
X2510866Y3132205D01*
X2500866Y3122205D01*
X2490866D01*
X2500866Y3112205D01*
X2490866Y3102205D01*
X2500866D01*
X2510866Y3092205D01*
X2410866Y2992205D02*
X2420866Y3002205D01*
X2430866D01*
X2420866Y3012205D01*
X2430866Y3022205D01*
X2420866D01*
X2410866Y3032205D01*
X2400866Y3022205D01*
X2390866D01*
X2400866Y3012205D01*
X2390866Y3002205D01*
X2400866D01*
X2410866Y2992205D01*
X2510866D02*
X2520866Y3002205D01*
X2530866D01*
X2520866Y3012205D01*
X2530866Y3022205D01*
X2520866D01*
X2510866Y3032205D01*
X2500866Y3022205D01*
X2490866D01*
X2500866Y3012205D01*
X2490866Y3002205D01*
X2500866D01*
X2510866Y2992205D01*
X2410866Y2892205D02*
X2420866Y2902205D01*
X2430866D01*
X2420866Y2912205D01*
X2430866Y2922205D01*
X2420866D01*
X2410866Y2932205D01*
X2400866Y2922205D01*
X2390866D01*
X2400866Y2912205D01*
X2390866Y2902205D01*
X2400866D01*
X2410866Y2892205D01*
X2510866D02*
X2520866Y2902205D01*
X2530866D01*
X2520866Y2912205D01*
X2530866Y2922205D01*
X2520866D01*
X2510866Y2932205D01*
X2500866Y2922205D01*
X2490866D01*
X2500866Y2912205D01*
X2490866Y2902205D01*
X2500866D01*
X2510866Y2892205D01*
X2410866Y2792205D02*
X2420866Y2802205D01*
X2430866D01*
X2420866Y2812205D01*
X2430866Y2822205D01*
X2420866D01*
X2410866Y2832205D01*
X2400866Y2822205D01*
X2390866D01*
X2400866Y2812205D01*
X2390866Y2802205D01*
X2400866D01*
X2410866Y2792205D01*
X2510866D02*
X2520866Y2802205D01*
X2530866D01*
X2520866Y2812205D01*
X2530866Y2822205D01*
X2520866D01*
X2510866Y2832205D01*
X2500866Y2822205D01*
X2490866D01*
X2500866Y2812205D01*
X2490866Y2802205D01*
X2500866D01*
X2510866Y2792205D01*
X2410866Y2692205D02*
X2420866Y2702205D01*
X2430866D01*
X2420866Y2712205D01*
X2430866Y2722205D01*
X2420866D01*
X2410866Y2732205D01*
X2400866Y2722205D01*
X2390866D01*
X2400866Y2712205D01*
X2390866Y2702205D01*
X2400866D01*
X2410866Y2692205D01*
X2510866D02*
X2520866Y2702205D01*
X2530866D01*
X2520866Y2712205D01*
X2530866Y2722205D01*
X2520866D01*
X2510866Y2732205D01*
X2500866Y2722205D01*
X2490866D01*
X2500866Y2712205D01*
X2490866Y2702205D01*
X2500866D01*
X2510866Y2692205D01*
X2410866Y2592205D02*
X2420866Y2602205D01*
X2430866D01*
X2420866Y2612205D01*
X2430866Y2622205D01*
X2420866D01*
X2410866Y2632205D01*
X2400866Y2622205D01*
X2390866D01*
X2400866Y2612205D01*
X2390866Y2602205D01*
X2400866D01*
X2410866Y2592205D01*
X2510866D02*
X2520866Y2602205D01*
X2530866D01*
X2520866Y2612205D01*
X2530866Y2622205D01*
X2520866D01*
X2510866Y2632205D01*
X2500866Y2622205D01*
X2490866D01*
X2500866Y2612205D01*
X2490866Y2602205D01*
X2500866D01*
X2510866Y2592205D01*
X2410866Y2492205D02*
X2420866Y2502205D01*
X2430866D01*
X2420866Y2512205D01*
X2430866Y2522205D01*
X2420866D01*
X2410866Y2532205D01*
X2400866Y2522205D01*
X2390866D01*
X2400866Y2512205D01*
X2390866Y2502205D01*
X2400866D01*
X2410866Y2492205D01*
X2510866D02*
X2520866Y2502205D01*
X2530866D01*
X2520866Y2512205D01*
X2530866Y2522205D01*
X2520866D01*
X2510866Y2532205D01*
X2500866Y2522205D01*
X2490866D01*
X2500866Y2512205D01*
X2490866Y2502205D01*
X2500866D01*
X2510866Y2492205D01*
X2410866Y2392205D02*
X2420866Y2402205D01*
X2430866D01*
X2420866Y2412205D01*
X2430866Y2422205D01*
X2420866D01*
X2410866Y2432205D01*
X2400866Y2422205D01*
X2390866D01*
X2400866Y2412205D01*
X2390866Y2402205D01*
X2400866D01*
X2410866Y2392205D01*
X2510866D02*
X2520866Y2402205D01*
X2530866D01*
X2520866Y2412205D01*
X2530866Y2422205D01*
X2520866D01*
X2510866Y2432205D01*
X2500866Y2422205D01*
X2490866D01*
X2500866Y2412205D01*
X2490866Y2402205D01*
X2500866D01*
X2510866Y2392205D01*
X2410866Y2292205D02*
X2420866Y2302205D01*
X2430866D01*
X2420866Y2312205D01*
X2430866Y2322205D01*
X2420866D01*
X2410866Y2332205D01*
X2400866Y2322205D01*
X2390866D01*
X2400866Y2312205D01*
X2390866Y2302205D01*
X2400866D01*
X2410866Y2292205D01*
X2510866D02*
X2520866Y2302205D01*
X2530866D01*
X2520866Y2312205D01*
X2530866Y2322205D01*
X2520866D01*
X2510866Y2332205D01*
X2500866Y2322205D01*
X2490866D01*
X2500866Y2312205D01*
X2490866Y2302205D01*
X2500866D01*
X2510866Y2292205D01*
X2410866Y2192205D02*
X2420866Y2202205D01*
X2430866D01*
X2420866Y2212205D01*
X2430866Y2222205D01*
X2420866D01*
X2410866Y2232205D01*
X2400866Y2222205D01*
X2390866D01*
X2400866Y2212205D01*
X2390866Y2202205D01*
X2400866D01*
X2410866Y2192205D01*
X2510866D02*
X2520866Y2202205D01*
X2530866D01*
X2520866Y2212205D01*
X2530866Y2222205D01*
X2520866D01*
X2510866Y2232205D01*
X2500866Y2222205D01*
X2490866D01*
X2500866Y2212205D01*
X2490866Y2202205D01*
X2500866D01*
X2510866Y2192205D01*
X2410866Y2092205D02*
X2420866Y2102205D01*
X2430866D01*
X2420866Y2112205D01*
X2430866Y2122205D01*
X2420866D01*
X2410866Y2132205D01*
X2400866Y2122205D01*
X2390866D01*
X2400866Y2112205D01*
X2390866Y2102205D01*
X2400866D01*
X2410866Y2092205D01*
X2510866D02*
X2520866Y2102205D01*
X2530866D01*
X2520866Y2112205D01*
X2530866Y2122205D01*
X2520866D01*
X2510866Y2132205D01*
X2500866Y2122205D01*
X2490866D01*
X2500866Y2112205D01*
X2490866Y2102205D01*
X2500866D01*
X2510866Y2092205D01*
X2410866Y1992205D02*
X2420866Y2002205D01*
X2430866D01*
X2420866Y2012205D01*
X2430866Y2022205D01*
X2420866D01*
X2410866Y2032205D01*
X2400866Y2022205D01*
X2390866D01*
X2400866Y2012205D01*
X2390866Y2002205D01*
X2400866D01*
X2410866Y1992205D01*
X2510866D02*
X2520866Y2002205D01*
X2530866D01*
X2520866Y2012205D01*
X2530866Y2022205D01*
X2520866D01*
X2510866Y2032205D01*
X2500866Y2022205D01*
X2490866D01*
X2500866Y2012205D01*
X2490866Y2002205D01*
X2500866D01*
X2510866Y1992205D01*
X2410866Y1892205D02*
X2420866Y1902205D01*
X2430866D01*
X2420866Y1912205D01*
X2430866Y1922205D01*
X2420866D01*
X2410866Y1932205D01*
X2400866Y1922205D01*
X2390866D01*
X2400866Y1912205D01*
X2390866Y1902205D01*
X2400866D01*
X2410866Y1892205D01*
X2510866D02*
X2520866Y1902205D01*
X2530866D01*
X2520866Y1912205D01*
X2530866Y1922205D01*
X2520866D01*
X2510866Y1932205D01*
X2500866Y1922205D01*
X2490866D01*
X2500866Y1912205D01*
X2490866Y1902205D01*
X2500866D01*
X2510866Y1892205D01*
X2410866Y1792205D02*
X2420866Y1802205D01*
X2430866D01*
X2420866Y1812205D01*
X2430866Y1822205D01*
X2420866D01*
X2410866Y1832205D01*
X2400866Y1822205D01*
X2390866D01*
X2400866Y1812205D01*
X2390866Y1802205D01*
X2400866D01*
X2410866Y1792205D01*
X2510866D02*
X2520866Y1802205D01*
X2530866D01*
X2520866Y1812205D01*
X2530866Y1822205D01*
X2520866D01*
X2510866Y1832205D01*
X2500866Y1822205D01*
X2490866D01*
X2500866Y1812205D01*
X2490866Y1802205D01*
X2500866D01*
X2510866Y1792205D01*
X2410866Y1692205D02*
X2420866Y1702205D01*
X2430866D01*
X2420866Y1712205D01*
X2430866Y1722205D01*
X2420866D01*
X2410866Y1732205D01*
X2400866Y1722205D01*
X2390866D01*
X2400866Y1712205D01*
X2390866Y1702205D01*
X2400866D01*
X2410866Y1692205D01*
X2510866D02*
X2520866Y1702205D01*
X2530866D01*
X2520866Y1712205D01*
X2530866Y1722205D01*
X2520866D01*
X2510866Y1732205D01*
X2500866Y1722205D01*
X2490866D01*
X2500866Y1712205D01*
X2490866Y1702205D01*
X2500866D01*
X2510866Y1692205D01*
X2410866Y1592205D02*
X2420866Y1602205D01*
X2430866D01*
X2420866Y1612205D01*
X2430866Y1622205D01*
X2420866D01*
X2410866Y1632205D01*
X2400866Y1622205D01*
X2390866D01*
X2400866Y1612205D01*
X2390866Y1602205D01*
X2400866D01*
X2410866Y1592205D01*
X2510866D02*
X2520866Y1602205D01*
X2530866D01*
X2520866Y1612205D01*
X2530866Y1622205D01*
X2520866D01*
X2510866Y1632205D01*
X2500866Y1622205D01*
X2490866D01*
X2500866Y1612205D01*
X2490866Y1602205D01*
X2500866D01*
X2510866Y1592205D01*
X2410866Y1492205D02*
X2420866Y1502205D01*
X2430866D01*
X2420866Y1512205D01*
X2430866Y1522205D01*
X2420866D01*
X2410866Y1532205D01*
X2400866Y1522205D01*
X2390866D01*
X2400866Y1512205D01*
X2390866Y1502205D01*
X2400866D01*
X2410866Y1492205D01*
X2510866D02*
X2520866Y1502205D01*
X2530866D01*
X2520866Y1512205D01*
X2530866Y1522205D01*
X2520866D01*
X2510866Y1532205D01*
X2500866Y1522205D01*
X2490866D01*
X2500866Y1512205D01*
X2490866Y1502205D01*
X2500866D01*
X2510866Y1492205D01*
X2410866Y1392205D02*
X2420866Y1402205D01*
X2430866D01*
X2420866Y1412205D01*
X2430866Y1422205D01*
X2420866D01*
X2410866Y1432205D01*
X2400866Y1422205D01*
X2390866D01*
X2400866Y1412205D01*
X2390866Y1402205D01*
X2400866D01*
X2410866Y1392205D01*
X2510866D02*
X2520866Y1402205D01*
X2530866D01*
X2520866Y1412205D01*
X2530866Y1422205D01*
X2520866D01*
X2510866Y1432205D01*
X2500866Y1422205D01*
X2490866D01*
X2500866Y1412205D01*
X2490866Y1402205D01*
X2500866D01*
X2510866Y1392205D01*
X3219961Y4386299D02*
X3229961Y4406299D01*
X3219961Y4426299D01*
X3239961Y4416299D01*
X3259961Y4426299D01*
X3249961Y4406299D01*
X3259961Y4386299D01*
X3239961Y4396299D01*
X3219961Y4386299D01*
X3319961D02*
X3329961Y4406299D01*
X3319961Y4426299D01*
X3339961Y4416299D01*
X3359961Y4426299D01*
X3349961Y4406299D01*
X3359961Y4386299D01*
X3339961Y4396299D01*
X3319961Y4386299D01*
X3219961Y4486299D02*
X3229961Y4506299D01*
X3219961Y4526299D01*
X3239961Y4516299D01*
X3259961Y4526299D01*
X3249961Y4506299D01*
X3259961Y4486299D01*
X3239961Y4496299D01*
X3219961Y4486299D01*
X3319961D02*
X3329961Y4506299D01*
X3319961Y4526299D01*
X3339961Y4516299D01*
X3359961Y4526299D01*
X3349961Y4506299D01*
X3359961Y4486299D01*
X3339961Y4496299D01*
X3319961Y4486299D01*
X3219961Y4586299D02*
X3229961Y4606299D01*
X3219961Y4626299D01*
X3239961Y4616299D01*
X3259961Y4626299D01*
X3249961Y4606299D01*
X3259961Y4586299D01*
X3239961Y4596299D01*
X3219961Y4586299D01*
X3319961D02*
X3329961Y4606299D01*
X3319961Y4626299D01*
X3339961Y4616299D01*
X3359961Y4626299D01*
X3349961Y4606299D01*
X3359961Y4586299D01*
X3339961Y4596299D01*
X3319961Y4586299D01*
X3219961Y4686299D02*
X3229961Y4706299D01*
X3219961Y4726299D01*
X3239961Y4716299D01*
X3259961Y4726299D01*
X3249961Y4706299D01*
X3259961Y4686299D01*
X3239961Y4696299D01*
X3219961Y4686299D01*
X3319961D02*
X3329961Y4706299D01*
X3319961Y4726299D01*
X3339961Y4716299D01*
X3359961Y4726299D01*
X3349961Y4706299D01*
X3359961Y4686299D01*
X3339961Y4696299D01*
X3319961Y4686299D01*
Y4886299D02*
X3329961Y4906299D01*
X3319961Y4926299D01*
X3339961Y4916299D01*
X3359961Y4926299D01*
X3349961Y4906299D01*
X3359961Y4886299D01*
X3339961Y4896299D01*
X3319961Y4886299D01*
X3219961D02*
X3229961Y4906299D01*
X3219961Y4926299D01*
X3239961Y4916299D01*
X3259961Y4926299D01*
X3249961Y4906299D01*
X3259961Y4886299D01*
X3239961Y4896299D01*
X3219961Y4886299D01*
Y4786299D02*
X3229961Y4806299D01*
X3219961Y4826299D01*
X3239961Y4816299D01*
X3259961Y4826299D01*
X3249961Y4806299D01*
X3259961Y4786299D01*
X3239961Y4796299D01*
X3219961Y4786299D01*
X3319961D02*
X3329961Y4806299D01*
X3319961Y4826299D01*
X3339961Y4816299D01*
X3359961Y4826299D01*
X3349961Y4806299D01*
X3359961Y4786299D01*
X3339961Y4796299D01*
X3319961Y4786299D01*
X1210472Y5196693D02*
Y5186693D01*
X1230472D01*
Y5196693D01*
X1240472D01*
Y5216693D01*
X1230472D01*
Y5226693D01*
X1210472D01*
Y5216693D01*
X1200472D01*
Y5196693D01*
X1210472D01*
Y5570709D02*
Y5560709D01*
X1230472D01*
Y5570709D01*
X1240472D01*
Y5590709D01*
X1230472D01*
Y5600709D01*
X1210472D01*
Y5590709D01*
X1200472D01*
Y5570709D01*
X1210472D01*
X1092205Y5373701D02*
X1102205D01*
X1112205Y5383701D01*
X1122205Y5373701D01*
X1132205D01*
Y5383701D01*
X1122205Y5393701D01*
X1132205Y5403701D01*
Y5413701D01*
X1122205D01*
X1112205Y5403701D01*
X1102205Y5413701D01*
X1092205D01*
Y5403701D01*
X1102205Y5393701D01*
X1092205Y5383701D01*
Y5373701D01*
X1220158Y5393701D02*
X1240158Y5413701D01*
X1260158Y5393701D01*
X1240158Y5373701D01*
X1220158Y5393701D01*
X1456378Y5373701D02*
Y5413701D01*
X1496378D01*
Y5373701D01*
X1456378D01*
X1464378Y5381701D02*
Y5405701D01*
X1488378D01*
Y5381701D01*
X1464378D01*
X1395512Y5570709D02*
Y5560709D01*
X1415512D01*
Y5570709D01*
X1425512D01*
Y5590709D01*
X1415512D01*
Y5600709D01*
X1395512D01*
Y5590709D01*
X1385512D01*
Y5570709D01*
X1395512D01*
Y5196693D02*
Y5186693D01*
X1415512D01*
Y5196693D01*
X1425512D01*
Y5216693D01*
X1415512D01*
Y5226693D01*
X1395512D01*
Y5216693D01*
X1385512D01*
Y5196693D01*
X1395512D01*
X5905512Y5885512D02*
X5885512Y5925512D01*
X5925512D01*
X5905512Y5885512D01*
Y5893512D02*
X5893512Y5917512D01*
X5917512D01*
X5905512Y5893512D01*
Y1161102D02*
X5885512Y1201102D01*
X5925512D01*
X5905512Y1161102D01*
Y1169102D02*
X5893512Y1193102D01*
X5917512D01*
X5905512Y1169102D01*
X1200000Y5780000D02*
X1180000Y5820000D01*
X1220000D01*
X1200000Y5780000D01*
Y5788000D02*
X1188000Y5812000D01*
X1212000D01*
X1200000Y5788000D01*
X1181102Y1161102D02*
X1161102Y1201102D01*
X1201102D01*
X1181102Y1161102D01*
Y1169102D02*
X1169102Y1193102D01*
X1193102D01*
X1181102Y1169102D01*
X5767717Y4655197D02*
X5777717Y4665197D01*
X5787717D01*
X5777717Y4675197D01*
X5787717Y4685197D01*
X5777717D01*
X5767717Y4695197D01*
X5757717Y4685197D01*
X5747717D01*
X5757717Y4675197D01*
X5747717Y4665197D01*
X5757717D01*
X5767717Y4655197D01*
X5960630Y4678819D02*
X5970630Y4688819D01*
X5980630D01*
X5970630Y4698819D01*
X5980630Y4708819D01*
X5970630D01*
X5960630Y4718819D01*
X5950630Y4708819D01*
X5940630D01*
X5950630Y4698819D01*
X5940630Y4688819D01*
X5950630D01*
X5960630Y4678819D01*
X5767717Y4084331D02*
X5777717Y4094331D01*
X5787717D01*
X5777717Y4104331D01*
X5787717Y4114331D01*
X5777717D01*
X5767717Y4124331D01*
X5757717Y4114331D01*
X5747717D01*
X5757717Y4104331D01*
X5747717Y4094331D01*
X5757717D01*
X5767717Y4084331D01*
X5960630Y4060709D02*
X5970630Y4070709D01*
X5980630D01*
X5970630Y4080709D01*
X5980630Y4090709D01*
X5970630D01*
X5960630Y4100709D01*
X5950630Y4090709D01*
X5940630D01*
X5950630Y4080709D01*
X5940630Y4070709D01*
X5950630D01*
X5960630Y4060709D01*
X5881890Y5319370D02*
X5891890Y5329370D01*
X5901890D01*
X5891890Y5339370D01*
X5901890Y5349370D01*
X5891890D01*
X5881890Y5359370D01*
X5871890Y5349370D01*
X5861890D01*
X5871890Y5339370D01*
X5861890Y5329370D01*
X5871890D01*
X5881890Y5319370D01*
Y5327370D02*
X5887890Y5333370D01*
X5893890D01*
X5887890Y5339370D01*
X5893890Y5345370D01*
X5887890D01*
X5881890Y5351370D01*
X5875890Y5345370D01*
X5869890D01*
X5875890Y5339370D01*
X5869890Y5333370D01*
X5875890D01*
X5881890Y5327370D01*
Y4876850D02*
X5891890Y4886850D01*
X5901890D01*
X5891890Y4896850D01*
X5901890Y4906850D01*
X5891890D01*
X5881890Y4916850D01*
X5871890Y4906850D01*
X5861890D01*
X5871890Y4896850D01*
X5861890Y4886850D01*
X5871890D01*
X5881890Y4876850D01*
Y4884850D02*
X5887890Y4890850D01*
X5893890D01*
X5887890Y4896850D01*
X5893890Y4902850D01*
X5887890D01*
X5881890Y4908850D01*
X5875890Y4902850D01*
X5869890D01*
X5875890Y4896850D01*
X5869890Y4890850D01*
X5875890D01*
X5881890Y4884850D01*
X6019370Y5319370D02*
X6029370Y5339370D01*
X6019370Y5359370D01*
X6039370Y5349370D01*
X6059370Y5359370D01*
X6049370Y5339370D01*
X6059370Y5319370D01*
X6039370Y5329370D01*
X6019370Y5319370D01*
X6027370Y5327370D02*
X6033370Y5339370D01*
X6027370Y5351370D01*
X6039370Y5345370D01*
X6051370Y5351370D01*
X6045370Y5339370D01*
X6051370Y5327370D01*
X6039370Y5333370D01*
X6027370Y5327370D01*
X6019370Y4876850D02*
X6029370Y4896850D01*
X6019370Y4916850D01*
X6039370Y4906850D01*
X6059370Y4916850D01*
X6049370Y4896850D01*
X6059370Y4876850D01*
X6039370Y4886850D01*
X6019370Y4876850D01*
X6027370Y4884850D02*
X6033370Y4896850D01*
X6027370Y4908850D01*
X6039370Y4902850D01*
X6051370Y4908850D01*
X6045370Y4896850D01*
X6051370Y4884850D01*
X6039370Y4890850D01*
X6027370Y4884850D01*
X5980158Y2848268D02*
Y2838268D01*
X6000158D01*
Y2848268D01*
X6010158D01*
Y2868268D01*
X6000158D01*
Y2878268D01*
X5980158D01*
Y2868268D01*
X5970158D01*
Y2848268D01*
X5980158D01*
X5984158Y2852268D02*
Y2846268D01*
X5996158D01*
Y2852268D01*
X6002158D01*
Y2864268D01*
X5996158D01*
Y2870268D01*
X5984158D01*
Y2864268D01*
X5978158D01*
Y2852268D01*
X5984158D01*
X5980158Y3037244D02*
Y3027244D01*
X6000158D01*
Y3037244D01*
X6010158D01*
Y3057244D01*
X6000158D01*
Y3067244D01*
X5980158D01*
Y3057244D01*
X5970158D01*
Y3037244D01*
X5980158D01*
X5984158Y3041244D02*
Y3035244D01*
X5996158D01*
Y3041244D01*
X6002158D01*
Y3053244D01*
X5996158D01*
Y3059244D01*
X5984158D01*
Y3053244D01*
X5978158D01*
Y3041244D01*
X5984158D01*
X5810866Y3037244D02*
Y3027244D01*
X5830866D01*
Y3037244D01*
X5840866D01*
Y3057244D01*
X5830866D01*
Y3067244D01*
X5810866D01*
Y3057244D01*
X5800866D01*
Y3037244D01*
X5810866D01*
X5814866Y3041244D02*
Y3035244D01*
X5826866D01*
Y3041244D01*
X5832866D01*
Y3053244D01*
X5826866D01*
Y3059244D01*
X5814866D01*
Y3053244D01*
X5808866D01*
Y3041244D01*
X5814866D01*
X5810866Y2848268D02*
Y2838268D01*
X5830866D01*
Y2848268D01*
X5840866D01*
Y2868268D01*
X5830866D01*
Y2878268D01*
X5810866D01*
Y2868268D01*
X5800866D01*
Y2848268D01*
X5810866D01*
X5814866Y2852268D02*
Y2846268D01*
X5826866D01*
Y2852268D01*
X5832866D01*
Y2864268D01*
X5826866D01*
Y2870268D01*
X5814866D01*
Y2864268D01*
X5808866D01*
Y2852268D01*
X5814866D01*
X5885512Y2785118D02*
X5895512D01*
X5905512Y2795118D01*
X5915512Y2785118D01*
X5925512D01*
Y2795118D01*
X5915512Y2805118D01*
X5925512Y2815118D01*
Y2825118D01*
X5915512D01*
X5905512Y2815118D01*
X5895512Y2825118D01*
X5885512D01*
Y2815118D01*
X5895512Y2805118D01*
X5885512Y2795118D01*
Y2785118D01*
X5893512Y2793118D02*
X5899512D01*
X5905512Y2799118D01*
X5911512Y2793118D01*
X5917512D01*
Y2799118D01*
X5911512Y2805118D01*
X5917512Y2811118D01*
Y2817118D01*
X5911512D01*
X5905512Y2811118D01*
X5899512Y2817118D01*
X5893512D01*
Y2811118D01*
X5899512Y2805118D01*
X5893512Y2799118D01*
Y2793118D01*
X5905512Y3100394D02*
Y3133716D01*
X5922173Y3150378D01*
X5938834Y3133716D01*
Y3100394D01*
Y3125386D01*
X5905512D01*
X5980158Y2257716D02*
Y2247716D01*
X6000158D01*
Y2257716D01*
X6010158D01*
Y2277716D01*
X6000158D01*
Y2287716D01*
X5980158D01*
Y2277716D01*
X5970158D01*
Y2257716D01*
X5980158D01*
X5984158Y2261716D02*
Y2255716D01*
X5996158D01*
Y2261716D01*
X6002158D01*
Y2273716D01*
X5996158D01*
Y2279716D01*
X5984158D01*
Y2273716D01*
X5978158D01*
Y2261716D01*
X5984158D01*
X5980158Y2446693D02*
Y2436693D01*
X6000158D01*
Y2446693D01*
X6010158D01*
Y2466693D01*
X6000158D01*
Y2476693D01*
X5980158D01*
Y2466693D01*
X5970158D01*
Y2446693D01*
X5980158D01*
X5984158Y2450693D02*
Y2444693D01*
X5996158D01*
Y2450693D01*
X6002158D01*
Y2462693D01*
X5996158D01*
Y2468693D01*
X5984158D01*
Y2462693D01*
X5978158D01*
Y2450693D01*
X5984158D01*
X5810866Y2446693D02*
Y2436693D01*
X5830866D01*
Y2446693D01*
X5840866D01*
Y2466693D01*
X5830866D01*
Y2476693D01*
X5810866D01*
Y2466693D01*
X5800866D01*
Y2446693D01*
X5810866D01*
X5814866Y2450693D02*
Y2444693D01*
X5826866D01*
Y2450693D01*
X5832866D01*
Y2462693D01*
X5826866D01*
Y2468693D01*
X5814866D01*
Y2462693D01*
X5808866D01*
Y2450693D01*
X5814866D01*
X5810866Y2257716D02*
Y2247716D01*
X5830866D01*
Y2257716D01*
X5840866D01*
Y2277716D01*
X5830866D01*
Y2287716D01*
X5810866D01*
Y2277716D01*
X5800866D01*
Y2257716D01*
X5810866D01*
X5814866Y2261716D02*
Y2255716D01*
X5826866D01*
Y2261716D01*
X5832866D01*
Y2273716D01*
X5826866D01*
Y2279716D01*
X5814866D01*
Y2273716D01*
X5808866D01*
Y2261716D01*
X5814866D01*
X5885512Y2194567D02*
X5895512D01*
X5905512Y2204567D01*
X5915512Y2194567D01*
X5925512D01*
Y2204567D01*
X5915512Y2214567D01*
X5925512Y2224567D01*
Y2234567D01*
X5915512D01*
X5905512Y2224567D01*
X5895512Y2234567D01*
X5885512D01*
Y2224567D01*
X5895512Y2214567D01*
X5885512Y2204567D01*
Y2194567D01*
X5893512Y2202567D02*
X5899512D01*
X5905512Y2208567D01*
X5911512Y2202567D01*
X5917512D01*
Y2208567D01*
X5911512Y2214567D01*
X5917512Y2220567D01*
Y2226567D01*
X5911512D01*
X5905512Y2220567D01*
X5899512Y2226567D01*
X5893512D01*
Y2220567D01*
X5899512Y2214567D01*
X5893512Y2208567D01*
Y2202567D01*
X5905512Y2509843D02*
Y2543165D01*
X5922173Y2559826D01*
X5938834Y2543165D01*
Y2509843D01*
Y2534834D01*
X5905512D01*
X5980158Y1667165D02*
Y1657165D01*
X6000158D01*
Y1667165D01*
X6010158D01*
Y1687165D01*
X6000158D01*
Y1697165D01*
X5980158D01*
Y1687165D01*
X5970158D01*
Y1667165D01*
X5980158D01*
X5984158Y1671165D02*
Y1665165D01*
X5996158D01*
Y1671165D01*
X6002158D01*
Y1683165D01*
X5996158D01*
Y1689165D01*
X5984158D01*
Y1683165D01*
X5978158D01*
Y1671165D01*
X5984158D01*
X5980158Y1856142D02*
Y1846142D01*
X6000158D01*
Y1856142D01*
X6010158D01*
Y1876142D01*
X6000158D01*
Y1886142D01*
X5980158D01*
Y1876142D01*
X5970158D01*
Y1856142D01*
X5980158D01*
X5984158Y1860142D02*
Y1854142D01*
X5996158D01*
Y1860142D01*
X6002158D01*
Y1872142D01*
X5996158D01*
Y1878142D01*
X5984158D01*
Y1872142D01*
X5978158D01*
Y1860142D01*
X5984158D01*
X5810866Y1856142D02*
Y1846142D01*
X5830866D01*
Y1856142D01*
X5840866D01*
Y1876142D01*
X5830866D01*
Y1886142D01*
X5810866D01*
Y1876142D01*
X5800866D01*
Y1856142D01*
X5810866D01*
X5814866Y1860142D02*
Y1854142D01*
X5826866D01*
Y1860142D01*
X5832866D01*
Y1872142D01*
X5826866D01*
Y1878142D01*
X5814866D01*
Y1872142D01*
X5808866D01*
Y1860142D01*
X5814866D01*
X5810866Y1667165D02*
Y1657165D01*
X5830866D01*
Y1667165D01*
X5840866D01*
Y1687165D01*
X5830866D01*
Y1697165D01*
X5810866D01*
Y1687165D01*
X5800866D01*
Y1667165D01*
X5810866D01*
X5814866Y1671165D02*
Y1665165D01*
X5826866D01*
Y1671165D01*
X5832866D01*
Y1683165D01*
X5826866D01*
Y1689165D01*
X5814866D01*
Y1683165D01*
X5808866D01*
Y1671165D01*
X5814866D01*
X5885512Y1604016D02*
X5895512D01*
X5905512Y1614016D01*
X5915512Y1604016D01*
X5925512D01*
Y1614016D01*
X5915512Y1624016D01*
X5925512Y1634016D01*
Y1644016D01*
X5915512D01*
X5905512Y1634016D01*
X5895512Y1644016D01*
X5885512D01*
Y1634016D01*
X5895512Y1624016D01*
X5885512Y1614016D01*
Y1604016D01*
X5893512Y1612016D02*
X5899512D01*
X5905512Y1618016D01*
X5911512Y1612016D01*
X5917512D01*
Y1618016D01*
X5911512Y1624016D01*
X5917512Y1630016D01*
Y1636016D01*
X5911512D01*
X5905512Y1630016D01*
X5899512Y1636016D01*
X5893512D01*
Y1630016D01*
X5899512Y1624016D01*
X5893512Y1618016D01*
Y1612016D01*
X5905512Y1919291D02*
Y1952614D01*
X5922173Y1969275D01*
X5938834Y1952614D01*
Y1919291D01*
Y1944283D01*
X5905512D01*
X1171260Y4609039D02*
Y4559055D01*
X1196252D01*
X1204582Y4567386D01*
Y4575716D01*
X1196252Y4584047D01*
X1171260D01*
X1196252D01*
X1204582Y4592378D01*
Y4600708D01*
X1196252Y4609039D01*
X1171260D01*
Y4774393D02*
Y4724409D01*
X1196252D01*
X1204582Y4732740D01*
Y4741071D01*
X1196252Y4749401D01*
X1171260D01*
X1196252D01*
X1204582Y4757732D01*
Y4766063D01*
X1196252Y4774393D01*
X1171260D01*
Y4939748D02*
Y4889764D01*
X1196252D01*
X1204582Y4898094D01*
Y4906425D01*
X1196252Y4914756D01*
X1171260D01*
X1196252D01*
X1204582Y4923086D01*
Y4931417D01*
X1196252Y4939748D01*
X1171260D01*
X1387795Y4609039D02*
Y4559055D01*
X1412787D01*
X1421118Y4567386D01*
Y4575716D01*
X1412787Y4584047D01*
X1387795D01*
X1412787D01*
X1421118Y4592378D01*
Y4600708D01*
X1412787Y4609039D01*
X1387795D01*
Y4774393D02*
Y4724409D01*
X1412787D01*
X1421118Y4732740D01*
Y4741071D01*
X1412787Y4749401D01*
X1387795D01*
X1412787D01*
X1421118Y4757732D01*
Y4766063D01*
X1412787Y4774393D01*
X1387795D01*
Y4939748D02*
Y4889764D01*
X1412787D01*
X1421118Y4898094D01*
Y4906425D01*
X1412787Y4914756D01*
X1387795D01*
X1412787D01*
X1421118Y4923086D01*
Y4931417D01*
X1412787Y4939748D01*
X1387795D01*
X5564323Y2604653D02*
X5555992Y2612984D01*
X5539331D01*
X5531000Y2604653D01*
Y2571331D01*
X5539331Y2563000D01*
X5555992D01*
X5564323Y2571331D01*
X4893000Y3296984D02*
Y3247000D01*
X4917992D01*
X4926323Y3255331D01*
Y3288653D01*
X4917992Y3296984D01*
X4893000D01*
X3954023Y2023264D02*
X3920700D01*
Y1973280D01*
X3954023D01*
X3920700Y1998272D02*
X3937362D01*
X3981862Y2051103D02*
X3948539D01*
Y2001119D01*
X3981862D01*
X3948539Y2026111D02*
X3965200D01*
X4009701Y2078942D02*
X3976378D01*
Y2028958D01*
X4009701D01*
X3976378Y2053950D02*
X3993039D01*
X4037539Y2051103D02*
X4004217D01*
Y2001119D01*
X4037539D01*
X4004217Y2026111D02*
X4020878D01*
X4009701Y2023264D02*
X3976378D01*
Y1973280D01*
X4009701D01*
X3976378Y1998272D02*
X3993039D01*
X3981862Y1995425D02*
X3948539D01*
Y1945441D01*
X3981862D01*
X3948539Y1970433D02*
X3965200D01*
X4148895Y1939748D02*
X4115572D01*
Y1889764D01*
X4148895D01*
X4115572Y1914756D02*
X4132234D01*
X4121056Y1911909D02*
X4087733D01*
Y1861925D01*
X4121056D01*
X4087733Y1886917D02*
X4104395D01*
X4093217Y1884070D02*
X4059894D01*
Y1834086D01*
X4093217D01*
X4059894Y1859078D02*
X4076556D01*
X4121056Y1967586D02*
X4087733D01*
Y1917603D01*
X4121056D01*
X4087733Y1942595D02*
X4104395D01*
X4093217Y1939748D02*
X4059894D01*
Y1889764D01*
X4093217D01*
X4059894Y1914756D02*
X4076556D01*
X4065378Y1911909D02*
X4032056D01*
Y1861925D01*
X4065378D01*
X4032056Y1886917D02*
X4048717D01*
X4093217Y1995425D02*
X4059894D01*
Y1945441D01*
X4093217D01*
X4059894Y1970433D02*
X4076556D01*
X4065378Y1967586D02*
X4032056D01*
Y1917603D01*
X4065378D01*
X4032056Y1942595D02*
X4048717D01*
X4037539Y1939748D02*
X4004217D01*
Y1889764D01*
X4037539D01*
X4004217Y1914756D02*
X4020878D01*
X4065378Y2023264D02*
X4032056D01*
Y1973280D01*
X4065378D01*
X4032056Y1998272D02*
X4048717D01*
X4037539Y1995425D02*
X4004217D01*
Y1945441D01*
X4037539D01*
X4004217Y1970433D02*
X4020878D01*
X4009701Y1967586D02*
X3976378D01*
Y1917603D01*
X4009701D01*
X3976378Y1942594D02*
X3993039D01*
X4065378Y1856231D02*
X4032056D01*
Y1806247D01*
X4065378D01*
X4032056Y1831239D02*
X4048717D01*
X4037539Y1828392D02*
X4004217D01*
Y1778408D01*
X4037539D01*
X4004217Y1803400D02*
X4020878D01*
X4009701Y1800553D02*
X3976378D01*
Y1750570D01*
X4009701D01*
X3976378Y1775561D02*
X3993039D01*
X3981862Y1828392D02*
X3948539D01*
Y1778408D01*
X3981862D01*
X3948539Y1803400D02*
X3965200D01*
X4009701Y1856231D02*
X3976378D01*
Y1806247D01*
X4009701D01*
X3976378Y1831239D02*
X3993039D01*
X4037539Y1884070D02*
X4004217D01*
Y1834086D01*
X4037539D01*
X4004217Y1859078D02*
X4020878D01*
X3870506Y1939748D02*
X3837184D01*
Y1889764D01*
X3870506D01*
X3837184Y1914756D02*
X3853845D01*
X3898345Y1967586D02*
X3865023D01*
Y1917603D01*
X3898345D01*
X3865023Y1942595D02*
X3881684D01*
X3926184Y1995425D02*
X3892861D01*
Y1945441D01*
X3926184D01*
X3892861Y1970433D02*
X3909523D01*
X3898345Y1911909D02*
X3865023D01*
Y1861925D01*
X3898345D01*
X3865023Y1886917D02*
X3881684D01*
X3926184Y1939748D02*
X3892861D01*
Y1889764D01*
X3926184D01*
X3892861Y1914756D02*
X3909523D01*
X3954023Y1967586D02*
X3920700D01*
Y1917603D01*
X3954023D01*
X3920700Y1942595D02*
X3937362D01*
X3926184Y1884070D02*
X3892861D01*
Y1834086D01*
X3926184D01*
X3892861Y1859078D02*
X3909523D01*
X3954023Y1911909D02*
X3920700D01*
Y1861925D01*
X3954023D01*
X3920700Y1886917D02*
X3937362D01*
X3981862Y1939748D02*
X3948539D01*
Y1889764D01*
X3981862D01*
X3948539Y1914756D02*
X3965200D01*
X3954023Y1856231D02*
X3920700D01*
Y1806247D01*
X3954023D01*
X3920700Y1831239D02*
X3937362D01*
X3981862Y1884070D02*
X3948539D01*
Y1834086D01*
X3981862D01*
X3948539Y1859078D02*
X3965200D01*
X4009701Y1911909D02*
X3976378D01*
Y1861925D01*
X4009701D01*
X3976378Y1886917D02*
X3993039D01*
X5893559Y2925905D02*
X5885228Y2934236D01*
X5868567D01*
X5860236Y2925905D01*
Y2892583D01*
X5868567Y2884252D01*
X5885228D01*
X5893559Y2892583D01*
Y2905236D02*
X5885228Y2913566D01*
X5868567D01*
X5860236Y2905236D01*
Y2871913D01*
X5868567Y2863583D01*
X5885228D01*
X5893559Y2871913D01*
X4196261Y2077645D02*
X4187931Y2085975D01*
X4171270D01*
X4162939Y2077645D01*
Y2044322D01*
X4171270Y2035992D01*
X4187931D01*
X4196261Y2044322D01*
X4211543Y2062503D02*
X4203212Y2070834D01*
X4186551D01*
X4178220Y2062503D01*
Y2029180D01*
X4186551Y2020850D01*
X4203212D01*
X4211543Y2029180D01*
X3905323Y4637653D02*
X3896992Y4645984D01*
X3880331D01*
X3872000Y4637653D01*
Y4604331D01*
X3880331Y4596000D01*
X3896992D01*
X3905323Y4604331D01*
X3906323Y4660653D02*
X3897992Y4668984D01*
X3881331D01*
X3873000Y4660653D01*
Y4627331D01*
X3881331Y4619000D01*
X3897992D01*
X3906323Y4627331D01*
X5976881Y1745590D02*
X5968550Y1753921D01*
X5951889D01*
X5943558Y1745590D01*
Y1712268D01*
X5951889Y1703937D01*
X5968550D01*
X5976881Y1712268D01*
Y1723858D02*
X5968550Y1732188D01*
X5951889D01*
X5943558Y1723858D01*
Y1690535D01*
X5951889Y1682205D01*
X5968550D01*
X5976881Y1690535D01*
X5893559Y2335551D02*
X5885228Y2343881D01*
X5868567D01*
X5860236Y2335551D01*
Y2302228D01*
X5868567Y2293898D01*
X5885228D01*
X5893559Y2302228D01*
Y2314094D02*
X5885228Y2322425D01*
X5868567D01*
X5860236Y2314094D01*
Y2280771D01*
X5868567Y2272441D01*
X5885228D01*
X5893559Y2280771D01*
X5941653Y3062519D02*
X5933323Y3070850D01*
X5916661D01*
X5908331Y3062519D01*
Y3029197D01*
X5916661Y3020866D01*
X5933323D01*
X5941653Y3029197D01*
Y3083385D02*
X5933323Y3091716D01*
X5916661D01*
X5908331Y3083385D01*
Y3050063D01*
X5916661Y3041732D01*
X5933323D01*
X5941653Y3050063D01*
Y2472362D02*
X5933323Y2480693D01*
X5916661D01*
X5908331Y2472362D01*
Y2439039D01*
X5916661Y2430709D01*
X5933323D01*
X5941653Y2439039D01*
Y2493228D02*
X5933323Y2501559D01*
X5916661D01*
X5908331Y2493228D01*
Y2459905D01*
X5916661Y2451575D01*
X5933323D01*
X5941653Y2459905D01*
Y1902480D02*
X5933323Y1910811D01*
X5916661D01*
X5908331Y1902480D01*
Y1869157D01*
X5916661Y1860827D01*
X5933323D01*
X5941653Y1869157D01*
Y1881614D02*
X5933323Y1889944D01*
X5916661D01*
X5908331Y1881614D01*
Y1848291D01*
X5916661Y1839961D01*
X5933323D01*
X5941653Y1848291D01*
X5893559Y1723858D02*
X5885228Y1732188D01*
X5868567D01*
X5860236Y1723858D01*
Y1690535D01*
X5868567Y1682205D01*
X5885228D01*
X5893559Y1690535D01*
Y1745590D02*
X5885228Y1753921D01*
X5868567D01*
X5860236Y1745590D01*
Y1712268D01*
X5868567Y1703937D01*
X5885228D01*
X5893559Y1712268D01*
X5896323Y1802677D02*
X5887992Y1811007D01*
X5871331D01*
X5863000Y1802677D01*
Y1769354D01*
X5871331Y1761024D01*
X5887992D01*
X5896323Y1769354D01*
Y1824267D02*
X5887992Y1832598D01*
X5871331D01*
X5863000Y1824267D01*
Y1790945D01*
X5871331Y1782614D01*
X5887992D01*
X5896323Y1790945D01*
X5963323Y1803267D02*
X5954992Y1811598D01*
X5938331D01*
X5930000Y1803267D01*
Y1769945D01*
X5938331Y1761614D01*
X5954992D01*
X5963323Y1769945D01*
Y1824133D02*
X5954992Y1832464D01*
X5938331D01*
X5930000Y1824133D01*
Y1790811D01*
X5938331Y1782480D01*
X5954992D01*
X5963323Y1790811D01*
X5896323Y2393819D02*
X5887992Y2402149D01*
X5871331D01*
X5863000Y2393819D01*
Y2360496D01*
X5871331Y2352165D01*
X5887992D01*
X5896323Y2360496D01*
Y2414685D02*
X5887992Y2423015D01*
X5871331D01*
X5863000Y2414685D01*
Y2381362D01*
X5871331Y2373032D01*
X5887992D01*
X5896323Y2381362D01*
X5963323Y2393819D02*
X5954992Y2402149D01*
X5938331D01*
X5930000Y2393819D01*
Y2360496D01*
X5938331Y2352165D01*
X5954992D01*
X5963323Y2360496D01*
Y2414685D02*
X5954992Y2423015D01*
X5938331D01*
X5930000Y2414685D01*
Y2381362D01*
X5938331Y2373032D01*
X5954992D01*
X5963323Y2381362D01*
Y3006141D02*
X5954992Y3014472D01*
X5938331D01*
X5930000Y3006141D01*
Y2972819D01*
X5938331Y2964488D01*
X5954992D01*
X5963323Y2972819D01*
Y2985433D02*
X5954992Y2993763D01*
X5938331D01*
X5930000Y2985433D01*
Y2952110D01*
X5938331Y2943780D01*
X5954992D01*
X5963323Y2952110D01*
X5896323Y3006141D02*
X5887992Y3014472D01*
X5871331D01*
X5863000Y3006141D01*
Y2972819D01*
X5871331Y2964488D01*
X5887992D01*
X5896323Y2972819D01*
Y2985433D02*
X5887992Y2993763D01*
X5871331D01*
X5863000Y2985433D01*
Y2952110D01*
X5871331Y2943780D01*
X5887992D01*
X5896323Y2952110D01*
X5601323Y4262984D02*
X5568000D01*
Y4237992D01*
X5584661D01*
X5568000D01*
Y4213000D01*
X3228323Y5207984D02*
X3195000D01*
Y5182992D01*
X3211661D01*
X3195000D01*
Y5158000D01*
X3905200Y4686139D02*
X3896869Y4694470D01*
X3880207D01*
X3871877Y4686139D01*
Y4652816D01*
X3880207Y4644486D01*
X3896869D01*
X3905200Y4652816D01*
X3906970Y4611537D02*
X3898639Y4619867D01*
X3881978D01*
X3873648Y4611537D01*
Y4578214D01*
X3881978Y4569883D01*
X3898639D01*
X3906970Y4578214D01*
X3904781Y4573358D02*
X3896450Y4581689D01*
X3879789D01*
X3871458Y4573358D01*
Y4540036D01*
X3879789Y4531705D01*
X3896450D01*
X3904781Y4540036D01*
X2892323Y1515984D02*
X2859000D01*
Y1490992D01*
X2875661D01*
X2859000D01*
Y1466000D01*
X2823323Y1864984D02*
X2790000D01*
Y1839992D01*
X2806661D01*
X2790000D01*
Y1815000D01*
X2979323Y1523984D02*
X2946000D01*
Y1498992D01*
X2962661D01*
X2946000D01*
Y1474000D01*
X5675526Y2422952D02*
X5667195Y2431283D01*
X5650534D01*
X5642204Y2422952D01*
Y2389630D01*
X5650534Y2381299D01*
X5667195D01*
X5675526Y2389630D01*
Y2443819D02*
X5667195Y2452149D01*
X5650534D01*
X5642204Y2443819D01*
Y2410496D01*
X5650534Y2402165D01*
X5667195D01*
X5675526Y2410496D01*
X5662653Y1726299D02*
X5654323Y1734630D01*
X5637661D01*
X5629331Y1726299D01*
Y1692976D01*
X5637661Y1684646D01*
X5654323D01*
X5662653Y1692976D01*
X5648047Y1741456D02*
X5639716Y1749787D01*
X5623055D01*
X5614724Y1741456D01*
Y1708134D01*
X5623055Y1699803D01*
X5639716D01*
X5648047Y1708134D01*
X5662575Y2316929D02*
X5654244Y2325259D01*
X5637583D01*
X5629252Y2316929D01*
Y2283606D01*
X5637583Y2275276D01*
X5654244D01*
X5662575Y2283606D01*
X5648126Y2331929D02*
X5639795Y2340259D01*
X5623134D01*
X5614803Y2331929D01*
Y2298606D01*
X5623134Y2290276D01*
X5639795D01*
X5648126Y2298606D01*
X5702001Y1802283D02*
X5693670Y1810614D01*
X5677009D01*
X5668678Y1802283D01*
Y1768960D01*
X5677009Y1760630D01*
X5693670D01*
X5702001Y1768960D01*
Y1824330D02*
X5693670Y1832661D01*
X5677009D01*
X5668678Y1824330D01*
Y1791008D01*
X5677009Y1782677D01*
X5693670D01*
X5702001Y1791008D01*
Y2393622D02*
X5693670Y2401952D01*
X5677009D01*
X5668678Y2393622D01*
Y2360299D01*
X5677009Y2351968D01*
X5693670D01*
X5702001Y2360299D01*
Y2414488D02*
X5693670Y2422818D01*
X5677009D01*
X5668678Y2414488D01*
Y2381165D01*
X5677009Y2372835D01*
X5693670D01*
X5702001Y2381165D01*
X5893559Y1881614D02*
X5885228Y1889944D01*
X5868567D01*
X5860236Y1881614D01*
Y1848291D01*
X5868567Y1839961D01*
X5885228D01*
X5893559Y1848291D01*
Y1902480D02*
X5885228Y1910811D01*
X5868567D01*
X5860236Y1902480D01*
Y1869157D01*
X5868567Y1860827D01*
X5885228D01*
X5893559Y1869157D01*
Y2472362D02*
X5885228Y2480693D01*
X5868567D01*
X5860236Y2472362D01*
Y2439039D01*
X5868567Y2430709D01*
X5885228D01*
X5893559Y2439039D01*
Y2493228D02*
X5885228Y2501559D01*
X5868567D01*
X5860236Y2493228D01*
Y2459905D01*
X5868567Y2451575D01*
X5885228D01*
X5893559Y2459905D01*
X5976881Y2335551D02*
X5968550Y2343881D01*
X5951889D01*
X5943558Y2335551D01*
Y2302228D01*
X5951889Y2293898D01*
X5968550D01*
X5976881Y2302228D01*
Y2314094D02*
X5968550Y2322425D01*
X5951889D01*
X5943558Y2314094D01*
Y2280771D01*
X5951889Y2272441D01*
X5968550D01*
X5976881Y2280771D01*
X5673323Y1831417D02*
X5664992Y1839748D01*
X5648331D01*
X5640000Y1831417D01*
Y1798094D01*
X5648331Y1789764D01*
X5664992D01*
X5673323Y1798094D01*
X5674309Y1853858D02*
X5665978Y1862188D01*
X5649317D01*
X5640986Y1853858D01*
Y1820535D01*
X5649317Y1812205D01*
X5665978D01*
X5674309Y1820535D01*
X4253795Y1786338D02*
X4245464Y1794669D01*
X4228803D01*
X4220472Y1786338D01*
Y1753016D01*
X4228803Y1744685D01*
X4245464D01*
X4253795Y1753016D01*
Y1765669D02*
X4245464Y1773999D01*
X4228803D01*
X4220472Y1765669D01*
Y1732346D01*
X4228803Y1724016D01*
X4245464D01*
X4253795Y1732346D01*
X5702001Y3004448D02*
X5693670Y3012779D01*
X5677009D01*
X5668678Y3004448D01*
Y2971126D01*
X5677009Y2962795D01*
X5693670D01*
X5702001Y2971126D01*
Y2983582D02*
X5693670Y2991913D01*
X5677009D01*
X5668678Y2983582D01*
Y2950260D01*
X5677009Y2941929D01*
X5693670D01*
X5702001Y2950260D01*
X4105645Y2179960D02*
X4097315Y2188291D01*
X4080653D01*
X4072323Y2179960D01*
Y2146638D01*
X4080653Y2138307D01*
X4097315D01*
X4105645Y2146638D01*
X4092102Y2195669D02*
X4083771Y2203999D01*
X4067110D01*
X4058780Y2195669D01*
Y2162346D01*
X4067110Y2154016D01*
X4083771D01*
X4092102Y2162346D01*
X5976881Y2905236D02*
X5968550Y2913566D01*
X5951889D01*
X5943558Y2905236D01*
Y2871913D01*
X5951889Y2863583D01*
X5968550D01*
X5976881Y2871913D01*
Y2925905D02*
X5968550Y2934236D01*
X5951889D01*
X5943558Y2925905D01*
Y2892583D01*
X5951889Y2884252D01*
X5968550D01*
X5976881Y2892583D01*
X5893559Y3083385D02*
X5885228Y3091716D01*
X5868567D01*
X5860236Y3083385D01*
Y3050063D01*
X5868567Y3041732D01*
X5885228D01*
X5893559Y3050063D01*
Y3062519D02*
X5885228Y3070850D01*
X5868567D01*
X5860236Y3062519D01*
Y3029197D01*
X5868567Y3020866D01*
X5885228D01*
X5893559Y3029197D01*
X5648047Y2922559D02*
X5639716Y2930889D01*
X5623055D01*
X5614724Y2922559D01*
Y2889236D01*
X5623055Y2880905D01*
X5639716D01*
X5648047Y2889236D01*
X5662653Y2907401D02*
X5654323Y2915732D01*
X5637661D01*
X5629331Y2907401D01*
Y2874079D01*
X5637661Y2865748D01*
X5654323D01*
X5662653Y2874079D01*
X5675526Y3034763D02*
X5667195Y3043094D01*
X5650534D01*
X5642204Y3034763D01*
Y3001441D01*
X5650534Y2993110D01*
X5667195D01*
X5675526Y3001441D01*
Y3013897D02*
X5667195Y3022228D01*
X5650534D01*
X5642204Y3013897D01*
Y2980575D01*
X5650534Y2972244D01*
X5667195D01*
X5675526Y2980575D01*
X3705323Y1847984D02*
X3672000D01*
Y1822992D01*
X3688661D01*
X3672000D01*
Y1798000D01*
X2635323Y4790653D02*
X2626992Y4798984D01*
X2610331D01*
X2602000Y4790653D01*
Y4757331D01*
X2610331Y4749000D01*
X2626992D01*
X2635323Y4757331D01*
Y4773992D01*
X2618661D01*
X4279323Y1850984D02*
X4246000D01*
Y1825992D01*
X4262661D01*
X4246000D01*
Y1801000D01*
X5264323Y2973535D02*
X5231000D01*
Y2948543D01*
X5247661D01*
X5231000D01*
Y2923551D01*
X5264323Y2382984D02*
X5231000D01*
Y2357992D01*
X5247661D01*
X5231000D01*
Y2333000D01*
X3564819Y5518488D02*
X3531496D01*
Y5493496D01*
X3548157D01*
X3531496D01*
Y5468504D01*
X3218362Y5313763D02*
X3185039D01*
Y5288771D01*
X3201701D01*
X3185039D01*
Y5263779D01*
X3735094Y1872818D02*
X3701772D01*
Y1847826D01*
X3718433D01*
X3701772D01*
Y1822835D01*
X5348283Y4766519D02*
X5314961D01*
Y4741527D01*
X5331622D01*
X5314961D01*
Y4716535D01*
X5560882Y4388566D02*
X5527559D01*
Y4363575D01*
X5544220D01*
X5527559D01*
Y4338583D01*
X5938834Y1573606D02*
X5905512D01*
Y1548614D01*
X5922173D01*
X5905512D01*
Y1523622D01*
X5738047Y1652346D02*
X5704724D01*
Y1627354D01*
X5721386D01*
X5704724D01*
Y1602362D01*
X5789228Y1718819D02*
X5780897Y1727149D01*
X5764236D01*
X5755905Y1718819D01*
Y1685496D01*
X5764236Y1677165D01*
X5780897D01*
X5789228Y1685496D01*
X5820724Y1781811D02*
X5812394Y1790141D01*
X5795732D01*
X5787402Y1781811D01*
Y1748488D01*
X5795732Y1740158D01*
X5812394D01*
X5820724Y1748488D01*
X5100252Y3715338D02*
X5066929D01*
Y3690346D01*
X5083590D01*
X5066929D01*
Y3665354D01*
X4923086Y4081480D02*
X4889764D01*
Y4056488D01*
X4906425D01*
X4889764D01*
Y4031496D01*
X3915212Y4710944D02*
X3906882Y4719275D01*
X3890220D01*
X3881890Y4710944D01*
Y4677622D01*
X3890220Y4669291D01*
X3906882D01*
X3915212Y4677622D01*
X5482141Y3793622D02*
X5473811Y3801952D01*
X5457150D01*
X5448819Y3793622D01*
Y3760299D01*
X5457150Y3751968D01*
X5473811D01*
X5482141Y3760299D01*
Y3758189D02*
X5473811Y3766519D01*
X5457150D01*
X5448819Y3758189D01*
Y3724866D01*
X5457150Y3716535D01*
X5473811D01*
X5482141Y3724866D01*
Y3651889D02*
X5473811Y3660220D01*
X5457150D01*
X5448819Y3651889D01*
Y3618567D01*
X5457150Y3610236D01*
X5473811D01*
X5482141Y3618567D01*
Y3581023D02*
X5473811Y3589354D01*
X5457150D01*
X5448819Y3581023D01*
Y3547701D01*
X5457150Y3539370D01*
X5473811D01*
X5482141Y3547701D01*
Y3545590D02*
X5473811Y3553921D01*
X5457150D01*
X5448819Y3545590D01*
Y3512268D01*
X5457150Y3503937D01*
X5473811D01*
X5482141Y3512268D01*
X5741984Y1813307D02*
X5733653Y1821637D01*
X5716992D01*
X5708661Y1813307D01*
Y1779984D01*
X5716992Y1771653D01*
X5733653D01*
X5741984Y1779984D01*
Y2994409D02*
X5733653Y3002740D01*
X5716992D01*
X5708661Y2994409D01*
Y2961086D01*
X5716992Y2952756D01*
X5733653D01*
X5741984Y2961086D01*
Y2403858D02*
X5733653Y2412189D01*
X5716992D01*
X5708661Y2403858D01*
Y2370535D01*
X5716992Y2362205D01*
X5733653D01*
X5741984Y2370535D01*
Y5159763D02*
X5733653Y5168094D01*
X5716992D01*
X5708661Y5159763D01*
Y5126441D01*
X5716992Y5118110D01*
X5733653D01*
X5741984Y5126441D01*
X3915212Y5002740D02*
X3881890D01*
Y4977748D01*
X3898551D01*
X3881890D01*
Y4952756D01*
X3772496Y4587385D02*
X3739173D01*
Y4562394D01*
X3755834D01*
X3739173D01*
Y4537402D01*
X3608126Y4420062D02*
X3574803D01*
Y4395071D01*
X3591464D01*
X3574803D01*
Y4370079D01*
X4160456Y4472984D02*
X4127134D01*
Y4447992D01*
X4143795D01*
X4127134D01*
Y4423000D01*
X3860094Y4175968D02*
X3826772D01*
Y4150976D01*
X3843433D01*
X3826772D01*
Y4125984D01*
X4009701Y4443685D02*
X3976378D01*
Y4418693D01*
X3993039D01*
X3976378D01*
Y4393701D01*
X4419149Y1971244D02*
X4385827D01*
Y1946252D01*
X4402488D01*
X4385827D01*
Y1921260D01*
X5364031Y2345260D02*
X5330709D01*
Y2320268D01*
X5347370D01*
X5330709D01*
Y2295276D01*
X5364031Y2935811D02*
X5330709D01*
Y2910819D01*
X5347370D01*
X5330709D01*
Y2885827D01*
X5364031Y3179905D02*
X5330709D01*
Y3154913D01*
X5347370D01*
X5330709D01*
Y3129921D01*
X5364031Y2589354D02*
X5330709D01*
Y2564362D01*
X5347370D01*
X5330709D01*
Y2539370D01*
X5580567Y2116913D02*
X5547244D01*
Y2091921D01*
X5563905D01*
X5547244D01*
Y2066929D01*
X5005764Y2187779D02*
X4972441D01*
Y2162787D01*
X4989102D01*
X4972441D01*
Y2137795D01*
X5005764Y2778330D02*
X4972441D01*
Y2753338D01*
X4989102D01*
X4972441D01*
Y2728347D01*
X5580567Y2707464D02*
X5547244D01*
Y2682472D01*
X5563905D01*
X5547244D01*
Y2657480D01*
X4116000Y4388566D02*
X4082677D01*
Y4363575D01*
X4099338D01*
X4082677D01*
Y4338583D01*
X4356157Y4388566D02*
X4322835D01*
Y4363575D01*
X4339496D01*
X4322835D01*
Y4338583D01*
X4116000Y4451559D02*
X4082677D01*
Y4426567D01*
X4099338D01*
X4082677D01*
Y4401575D01*
X4222299Y4451559D02*
X4188976D01*
Y4426567D01*
X4205638D01*
X4188976D01*
Y4401575D01*
X2143559Y5514094D02*
X2135228Y5522425D01*
X2118567D01*
X2110236Y5514094D01*
Y5480771D01*
X2118567Y5472441D01*
X2135228D01*
X2143559Y5480771D01*
Y5497433D01*
X2126898D01*
X2143559Y5395984D02*
X2135228Y5404315D01*
X2118567D01*
X2110236Y5395984D01*
Y5362661D01*
X2118567Y5354331D01*
X2135228D01*
X2143559Y5362661D01*
Y5379323D01*
X2126898D01*
X4186866Y2431874D02*
X4153543D01*
Y2406882D01*
X4170205D01*
X4153543D01*
Y2381890D01*
X3665212Y2028330D02*
X3631890D01*
Y2003338D01*
X3648551D01*
X3631890D01*
Y1978347D01*
X3710488Y1967307D02*
X3677165D01*
Y1942315D01*
X3693827D01*
X3677165D01*
Y1917323D01*
X3761669Y1845259D02*
X3728347D01*
Y1820267D01*
X3745008D01*
X3728347D01*
Y1795276D01*
X3757401Y1812189D02*
X3724078D01*
Y1787197D01*
X3740740D01*
X3724078D01*
Y1762205D01*
X4100252Y1682937D02*
X4066929D01*
Y1657945D01*
X4083590D01*
X4066929D01*
Y1632953D01*
X4179323Y1783984D02*
X4146000D01*
Y1758992D01*
X4162661D01*
X4146000D01*
Y1734000D01*
X3868223Y2178128D02*
X3834900D01*
Y2153136D01*
X3851561D01*
X3834900D01*
Y2128144D01*
X3770787Y2080692D02*
X3737464D01*
Y2055700D01*
X3754125D01*
X3737464D01*
Y2030708D01*
X3729028Y2038934D02*
X3695706D01*
Y2013942D01*
X3712367D01*
X3695706D01*
Y1988950D01*
X4137259Y1687448D02*
X4103936D01*
Y1662456D01*
X4120598D01*
X4103936D01*
Y1637464D01*
X4248081Y2081226D02*
X4214758D01*
Y2056234D01*
X4231420D01*
X4214758D01*
Y2031242D01*
X4094967Y2234339D02*
X4061645D01*
Y2209347D01*
X4078306D01*
X4061645D01*
Y2184355D01*
X4136725Y2192581D02*
X4103403D01*
Y2167589D01*
X4120064D01*
X4103403D01*
Y2142597D01*
X4206323Y2122984D02*
X4173000D01*
Y2097992D01*
X4189661D01*
X4173000D01*
Y2073000D01*
X5821323Y2974086D02*
X5788000D01*
Y2949094D01*
X5804661D01*
X5788000D01*
Y2924102D01*
X6008323Y3032086D02*
X5975000D01*
Y3007094D01*
X5991661D01*
X5975000D01*
Y2982102D01*
X5497323Y3032535D02*
X5464000D01*
Y3007543D01*
X5480661D01*
X5464000D01*
Y2982551D01*
X5497323Y2441984D02*
X5464000D01*
Y2416992D01*
X5480661D01*
X5464000D01*
Y2392000D01*
X5938834Y1813307D02*
X5930504Y1821637D01*
X5913842D01*
X5905512Y1813307D01*
Y1779984D01*
X5913842Y1771653D01*
X5930504D01*
X5938834Y1779984D01*
Y1799527D02*
X5930504Y1807858D01*
X5913842D01*
X5905512Y1799527D01*
Y1766205D01*
X5913842Y1757874D01*
X5930504D01*
X5938834Y1766205D01*
Y1827086D02*
X5930504Y1835417D01*
X5913842D01*
X5905512Y1827086D01*
Y1793764D01*
X5913842Y1785433D01*
X5930504D01*
X5938834Y1793764D01*
Y2994409D02*
X5930504Y3002740D01*
X5913842D01*
X5905512Y2994409D01*
Y2961086D01*
X5913842Y2952756D01*
X5930504D01*
X5938834Y2961086D01*
Y2980630D02*
X5930504Y2988960D01*
X5913842D01*
X5905512Y2980630D01*
Y2947307D01*
X5913842Y2938976D01*
X5930504D01*
X5938834Y2947307D01*
Y3008189D02*
X5930504Y3016519D01*
X5913842D01*
X5905512Y3008189D01*
Y2974866D01*
X5913842Y2966535D01*
X5930504D01*
X5938834Y2974866D01*
Y2417637D02*
X5930504Y2425968D01*
X5913842D01*
X5905512Y2417637D01*
Y2384315D01*
X5913842Y2375984D01*
X5930504D01*
X5938834Y2384315D01*
Y2390078D02*
X5930504Y2398409D01*
X5913842D01*
X5905512Y2390078D01*
Y2356756D01*
X5913842Y2348425D01*
X5930504D01*
X5938834Y2356756D01*
Y2403858D02*
X5930504Y2412189D01*
X5913842D01*
X5905512Y2403858D01*
Y2370535D01*
X5913842Y2362205D01*
X5930504D01*
X5938834Y2370535D01*
X4125379Y4556213D02*
X4092056D01*
Y4531221D01*
X4108717D01*
X4092056D01*
Y4506229D01*
X4124736Y4519397D02*
X4091413D01*
Y4494405D01*
X4108075D01*
X4091413D01*
Y4469413D01*
X4010323Y4561984D02*
X3977000D01*
Y4536992D01*
X3993661D01*
X3977000D01*
Y4512000D01*
X4009323Y5017984D02*
X3976000D01*
Y4992992D01*
X3992661D01*
X3976000D01*
Y4968000D01*
X6008323Y2441535D02*
X5975000D01*
Y2416543D01*
X5991661D01*
X5975000D01*
Y2391551D01*
X5821323Y2383535D02*
X5788000D01*
Y2358543D01*
X5804661D01*
X5788000D01*
Y2333551D01*
D203*
X5523937Y5590551D02*
G03*
X5523937Y5590551I-20000J0D01*
G01*
X5854646D02*
G03*
X5854646Y5590551I-20000J0D01*
G01*
X3472756Y4204724D02*
G03*
X3472756Y4204724I-20000J0D01*
G01*
X3142047D02*
G03*
X3142047Y4204724I-20000J0D01*
G01*
X3244409Y3762205D02*
G03*
X3244409Y3762205I-20000J0D01*
G01*
Y3862205D02*
G03*
X3244409Y3862205I-20000J0D01*
G01*
Y3962205D02*
G03*
X3244409Y3962205I-20000J0D01*
G01*
X2500315Y3762205D02*
G03*
X2500315Y3762205I-20000J0D01*
G01*
Y3862205D02*
G03*
X2500315Y3862205I-20000J0D01*
G01*
Y3962205D02*
G03*
X2500315Y3962205I-20000J0D01*
G01*
D204*
X3236409Y3762205D02*
G03*
X3236409Y3762205I-12000J0D01*
G01*
Y3862205D02*
G03*
X3236409Y3862205I-12000J0D01*
G01*
Y3962205D02*
G03*
X3236409Y3962205I-12000J0D01*
G01*
X2492315Y3762205D02*
G03*
X2492315Y3762205I-12000J0D01*
G01*
Y3862205D02*
G03*
X2492315Y3862205I-12000J0D01*
G01*
Y3962205D02*
G03*
X2492315Y3962205I-12000J0D01*
G01*
%TF.MD5,e77e53298ef84042e49b907169d74763*%
M02*
