%TF.GenerationSoftware,Altium Limited,Altium Designer,22.1.2 (22)*%
G04 Layer_Color=0*
%FSLAX26Y26*%
%MOIN*%
%TF.SameCoordinates,747B8C89-0A35-4E4D-912B-25F4ADAE1177*%
%TF.FilePolarity,Positive*%
%TF.FileFunction,Plated,1,8,PTH,Drill*%
%TF.Part,Single*%
G01*
G75*
%TA.AperFunction,ComponentDrill*%
%ADD180C,0.031496*%
%ADD181C,0.059055*%
%ADD182C,0.118110*%
%ADD183C,0.051181*%
%ADD184C,0.030000*%
%ADD185O,0.078740X0.039370*%
%ADD186C,0.062992*%
%ADD187O,0.031496X0.082677*%
%ADD188C,0.066929*%
%ADD189C,0.039370*%
%ADD190C,0.169291*%
%ADD191O,0.055118X0.023622*%
%ADD192O,0.055118X0.023622*%
%ADD193O,0.070866X0.023622*%
%ADD194C,0.027559*%
%ADD195C,0.057087*%
%TA.AperFunction,ViaDrill,NotFilled*%
%ADD196C,0.003937*%
%ADD197C,0.009842*%
%ADD198C,0.011811*%
%ADD199C,0.007874*%
%ADD200C,0.028000*%
D180*
X5748032Y5590551D02*
D03*
X5669291D02*
D03*
X5590551D02*
D03*
X3208661Y4204724D02*
D03*
X3287402D02*
D03*
X3366142D02*
D03*
D181*
X5503937Y5590551D02*
D03*
X5834646D02*
D03*
X3452756Y4204724D02*
D03*
X3122047D02*
D03*
D182*
X5295276Y5748032D02*
D03*
X3996063D02*
D03*
X5295276Y3858268D02*
D03*
X3996063D02*
D03*
X2460630Y3503937D02*
D03*
X1555118Y1220472D02*
D03*
X2460630D02*
D03*
X1555118Y3503937D02*
D03*
D183*
X2410866Y3312205D02*
D03*
X2510866D02*
D03*
X2410866Y3212205D02*
D03*
X2510866D02*
D03*
X2410866Y3112205D02*
D03*
X2510866D02*
D03*
X2410866Y3012205D02*
D03*
X2510866D02*
D03*
X2410866Y2912205D02*
D03*
X2510866D02*
D03*
X2410866Y2812205D02*
D03*
X2510866D02*
D03*
X2410866Y2712205D02*
D03*
X2510866D02*
D03*
X2410866Y2612205D02*
D03*
X2510866D02*
D03*
X2410866Y2512205D02*
D03*
X2510866D02*
D03*
X2410866Y2412205D02*
D03*
X2510866D02*
D03*
X2410866Y2312205D02*
D03*
X2510866D02*
D03*
X2410866Y2212205D02*
D03*
X2510866D02*
D03*
X2410866Y2112205D02*
D03*
X2510866D02*
D03*
X2410866Y2012205D02*
D03*
X2510866D02*
D03*
X2410866Y1912205D02*
D03*
X2510866D02*
D03*
X2410866Y1812205D02*
D03*
X2510866D02*
D03*
X2410866Y1712205D02*
D03*
X2510866D02*
D03*
X2410866Y1612205D02*
D03*
X2510866D02*
D03*
X2410866Y1512205D02*
D03*
X2510866D02*
D03*
X2410866Y1412205D02*
D03*
X2510866D02*
D03*
X5767717Y4675197D02*
D03*
X5960630Y4698819D02*
D03*
X5767717Y4104331D02*
D03*
X5960630Y4080709D02*
D03*
D184*
X3239961Y4406299D02*
D03*
X3339961D02*
D03*
X3239961Y4506299D02*
D03*
X3339961D02*
D03*
X3239961Y4606299D02*
D03*
X3339961D02*
D03*
X3239961Y4706299D02*
D03*
X3339961D02*
D03*
Y4906299D02*
D03*
X3239961D02*
D03*
Y4806299D02*
D03*
X3339961D02*
D03*
D185*
X1220472Y5206693D02*
D03*
Y5580709D02*
D03*
X1405512D02*
D03*
Y5206693D02*
D03*
D186*
X1112205Y5393701D02*
D03*
D187*
X1240158D02*
D03*
D188*
X1476378D02*
D03*
D189*
X3224409Y3762205D02*
D03*
Y3862205D02*
D03*
Y3962205D02*
D03*
X2480315Y3762205D02*
D03*
Y3862205D02*
D03*
Y3962205D02*
D03*
D190*
X5905512Y5905512D02*
D03*
Y1181102D02*
D03*
X1200000Y5800000D02*
D03*
X1181102Y1181102D02*
D03*
D191*
X5881890Y5339370D02*
D03*
D192*
Y4896850D02*
D03*
D193*
X6039370Y5339370D02*
D03*
Y4896850D02*
D03*
D194*
X5990158Y2858268D02*
D03*
Y3047244D02*
D03*
X5820866D02*
D03*
Y2858268D02*
D03*
X5990158Y2267716D02*
D03*
Y2456693D02*
D03*
X5820866D02*
D03*
Y2267716D02*
D03*
X5990158Y1677165D02*
D03*
Y1866142D02*
D03*
X5820866D02*
D03*
Y1677165D02*
D03*
D195*
X1171260Y4559055D02*
D03*
Y4724409D02*
D03*
Y4889764D02*
D03*
X1387795Y4559055D02*
D03*
Y4724409D02*
D03*
Y4889764D02*
D03*
D196*
X5531000Y2563000D02*
D03*
X5860236Y2884252D02*
D03*
Y2863583D02*
D03*
X4162939Y2035992D02*
D03*
X4178220Y2020850D02*
D03*
X3872000Y4596000D02*
D03*
X3873000Y4619000D02*
D03*
X5943558Y1703937D02*
D03*
Y1682205D02*
D03*
X5860236Y2293898D02*
D03*
Y2272441D02*
D03*
X5908331Y3020866D02*
D03*
Y3041732D02*
D03*
Y2430709D02*
D03*
Y2451575D02*
D03*
Y1860827D02*
D03*
Y1839961D02*
D03*
X5860236Y1682205D02*
D03*
Y1703937D02*
D03*
X5863000Y1761024D02*
D03*
Y1782614D02*
D03*
X5930000Y1761614D02*
D03*
Y1782480D02*
D03*
X5863000Y2352165D02*
D03*
Y2373032D02*
D03*
X5930000Y2352165D02*
D03*
Y2373032D02*
D03*
Y2964488D02*
D03*
Y2943780D02*
D03*
X5863000Y2964488D02*
D03*
Y2943780D02*
D03*
X3871877Y4644486D02*
D03*
X3873648Y4569883D02*
D03*
X3871458Y4531705D02*
D03*
X5642204Y2381299D02*
D03*
Y2402165D02*
D03*
X5629331Y1684646D02*
D03*
X5614724Y1699803D02*
D03*
X5629252Y2275276D02*
D03*
X5614803Y2290276D02*
D03*
X5668678Y1760630D02*
D03*
Y1782677D02*
D03*
Y2351968D02*
D03*
Y2372835D02*
D03*
X5860236Y1839961D02*
D03*
Y1860827D02*
D03*
Y2430709D02*
D03*
Y2451575D02*
D03*
X5943558Y2293898D02*
D03*
Y2272441D02*
D03*
X5640000Y1789764D02*
D03*
X5640986Y1812205D02*
D03*
X4220472Y1744685D02*
D03*
Y1724016D02*
D03*
X5668678Y2962795D02*
D03*
Y2941929D02*
D03*
X4072323Y2138307D02*
D03*
X4058780Y2154016D02*
D03*
X5943558Y2863583D02*
D03*
Y2884252D02*
D03*
X5860236Y3041732D02*
D03*
Y3020866D02*
D03*
X5614724Y2880905D02*
D03*
X5629331Y2865748D02*
D03*
X5642204Y2993110D02*
D03*
Y2972244D02*
D03*
X5755905Y1677165D02*
D03*
X5787402Y1740158D02*
D03*
X3881890Y4669291D02*
D03*
X5448819Y3751968D02*
D03*
Y3716535D02*
D03*
Y3610236D02*
D03*
Y3539370D02*
D03*
Y3503937D02*
D03*
X5708661Y1771653D02*
D03*
Y2952756D02*
D03*
Y2362205D02*
D03*
Y5118110D02*
D03*
X5905512Y1771653D02*
D03*
Y1757874D02*
D03*
Y1785433D02*
D03*
Y2952756D02*
D03*
Y2938976D02*
D03*
Y2966535D02*
D03*
Y2375984D02*
D03*
Y2348425D02*
D03*
Y2362205D02*
D03*
D197*
X4893000Y3247000D02*
D03*
D198*
X3920700Y1973280D02*
D03*
X3948539Y2001119D02*
D03*
X3976378Y2028958D02*
D03*
X4004217Y2001119D02*
D03*
X3976378Y1973280D02*
D03*
X3948539Y1945441D02*
D03*
X4115572Y1889764D02*
D03*
X4087733Y1861925D02*
D03*
X4059894Y1834086D02*
D03*
X4087733Y1917603D02*
D03*
X4059894Y1889764D02*
D03*
X4032056Y1861925D02*
D03*
X4059894Y1945441D02*
D03*
X4032056Y1917603D02*
D03*
X4004217Y1889764D02*
D03*
X4032056Y1973280D02*
D03*
X4004217Y1945441D02*
D03*
X3976378Y1917603D02*
D03*
X4032056Y1806247D02*
D03*
X4004217Y1778408D02*
D03*
X3976378Y1750570D02*
D03*
X3948539Y1778408D02*
D03*
X3976378Y1806247D02*
D03*
X4004217Y1834086D02*
D03*
X3837184Y1889764D02*
D03*
X3865023Y1917603D02*
D03*
X3892861Y1945441D02*
D03*
X3865023Y1861925D02*
D03*
X3892861Y1889764D02*
D03*
X3920700Y1917603D02*
D03*
X3892861Y1834086D02*
D03*
X3920700Y1861925D02*
D03*
X3948539Y1889764D02*
D03*
X3920700Y1806247D02*
D03*
X3948539Y1834086D02*
D03*
X3976378Y1861925D02*
D03*
D199*
X5568000Y4213000D02*
D03*
X3195000Y5158000D02*
D03*
X2859000Y1466000D02*
D03*
X2790000Y1815000D02*
D03*
X2946000Y1474000D02*
D03*
X3672000Y1798000D02*
D03*
X4246000Y1801000D02*
D03*
X5231000Y2923551D02*
D03*
Y2333000D02*
D03*
X3531496Y5468504D02*
D03*
X3185039Y5263779D02*
D03*
X3701772Y1822835D02*
D03*
X5314961Y4716535D02*
D03*
X5527559Y4338583D02*
D03*
X5905512Y1523622D02*
D03*
X5704724Y1602362D02*
D03*
X5066929Y3665354D02*
D03*
X4889764Y4031496D02*
D03*
X3881890Y4952756D02*
D03*
X3739173Y4537402D02*
D03*
X3574803Y4370079D02*
D03*
X4127134Y4423000D02*
D03*
X3826772Y4125984D02*
D03*
X3976378Y4393701D02*
D03*
X4385827Y1921260D02*
D03*
X5330709Y2295276D02*
D03*
Y2885827D02*
D03*
Y3129921D02*
D03*
Y2539370D02*
D03*
X5547244Y2066929D02*
D03*
X4972441Y2137795D02*
D03*
Y2728347D02*
D03*
X5547244Y2657480D02*
D03*
X4082677Y4338583D02*
D03*
X4322835D02*
D03*
X4082677Y4401575D02*
D03*
X4188976D02*
D03*
X4153543Y2381890D02*
D03*
X3631890Y1978347D02*
D03*
X3677165Y1917323D02*
D03*
X3728347Y1795276D02*
D03*
X3724078Y1762205D02*
D03*
X4066929Y1632953D02*
D03*
X4146000Y1734000D02*
D03*
X3834900Y2128144D02*
D03*
X3737464Y2030708D02*
D03*
X3695706Y1988950D02*
D03*
X4103936Y1637464D02*
D03*
X4214758Y2031242D02*
D03*
X4061645Y2184355D02*
D03*
X4103403Y2142597D02*
D03*
X4173000Y2073000D02*
D03*
X5788000Y2924102D02*
D03*
X5975000Y2982102D02*
D03*
X5464000Y2982551D02*
D03*
Y2392000D02*
D03*
X4092056Y4506229D02*
D03*
X4091413Y4469413D02*
D03*
X3977000Y4512000D02*
D03*
X3976000Y4968000D02*
D03*
X5975000Y2391551D02*
D03*
X5788000Y2333551D02*
D03*
D200*
X2602000Y4749000D02*
D03*
X2110236Y5472441D02*
D03*
Y5354331D02*
D03*
%TF.MD5,6065d97aecd0d957f7a99b0c9c231e6b*%
M02*
