%TF.GenerationSoftware,Altium Limited,Altium Designer,22.2.1 (43)*%
G04 Layer_Physical_Order=6*
G04 Layer_Color=3394611*
%FSLAX26Y26*%
%MOIN*%
%TF.SameCoordinates,D552E928-BF45-442C-827F-4CC0F3A717A5*%
%TF.FilePolarity,Positive*%
%TF.FileFunction,Copper,L6,Inr,Signal*%
%TF.Part,Single*%
G01*
G75*
%TA.AperFunction,Conductor*%
%ADD55C,0.007874*%
%ADD56C,0.006946*%
%ADD59C,0.010000*%
%ADD64C,0.019685*%
%ADD66C,0.005000*%
%TA.AperFunction,ComponentPad*%
%ADD67C,0.082677*%
%ADD68C,0.055118*%
%ADD69C,0.236220*%
%ADD70R,0.078740X0.078740*%
%ADD71C,0.078740*%
%ADD72C,0.060000*%
%ADD73O,0.106299X0.066929*%
%ADD74O,0.055118X0.106299*%
%ADD75C,0.102362*%
%ADD76C,0.062992*%
%ADD77C,0.066929*%
%ADD78O,0.070866X0.039370*%
%ADD79O,0.086614X0.039370*%
%ADD80C,0.043307*%
%TA.AperFunction,ViaPad*%
%ADD81C,0.027559*%
%ADD82C,0.017716*%
%ADD83C,0.039370*%
%ADD84C,0.015748*%
%ADD85C,0.019685*%
%ADD86C,0.050000*%
%TA.AperFunction,Conductor*%
%ADD87C,0.005906*%
%ADD88C,0.027559*%
G36*
X6092167Y5358325D02*
X6087167Y5356627D01*
X6084164Y5360542D01*
X6077963Y5365300D01*
X6070742Y5368291D01*
X6062992Y5369311D01*
X6044370D01*
Y5339370D01*
Y5309429D01*
X6062992D01*
X6070742Y5310449D01*
X6077963Y5313440D01*
X6084164Y5318198D01*
X6087167Y5322113D01*
X6092167Y5320415D01*
Y4915805D01*
X6087167Y4914108D01*
X6084164Y4918022D01*
X6077963Y4922780D01*
X6070742Y4925771D01*
X6062992Y4926792D01*
X6044370D01*
Y4896850D01*
Y4866909D01*
X6062992D01*
X6070742Y4867929D01*
X6077963Y4870921D01*
X6084164Y4875679D01*
X6087167Y4879593D01*
X6092167Y4877896D01*
Y994447D01*
X994447D01*
Y6092167D01*
X6092167D01*
Y5358325D01*
D02*
G37*
%LPC*%
G36*
X5915594Y6033622D02*
X5910512D01*
Y5910512D01*
X6033622D01*
Y5915594D01*
X6030467Y5935511D01*
X6024236Y5954689D01*
X6015081Y5972656D01*
X6003229Y5988970D01*
X5988970Y6003229D01*
X5972656Y6015081D01*
X5954689Y6024236D01*
X5935511Y6030467D01*
X5915594Y6033622D01*
D02*
G37*
G36*
X5900512D02*
X5895429D01*
X5875513Y6030467D01*
X5856335Y6024236D01*
X5838367Y6015081D01*
X5822054Y6003229D01*
X5807795Y5988970D01*
X5795942Y5972656D01*
X5786788Y5954689D01*
X5780556Y5935511D01*
X5777402Y5915594D01*
Y5910512D01*
X5900512D01*
Y6033622D01*
D02*
G37*
G36*
X1210082Y5928110D02*
X1205000D01*
Y5805000D01*
X1328110D01*
Y5810083D01*
X1324956Y5829999D01*
X1318724Y5849177D01*
X1309570Y5867144D01*
X1297717Y5883458D01*
X1283458Y5897717D01*
X1267144Y5909570D01*
X1249177Y5918724D01*
X1229999Y5924956D01*
X1210082Y5928110D01*
D02*
G37*
G36*
X1195000D02*
X1189918D01*
X1170001Y5924956D01*
X1150823Y5918724D01*
X1132856Y5909570D01*
X1116542Y5897717D01*
X1102283Y5883458D01*
X1090430Y5867144D01*
X1081276Y5849177D01*
X1075044Y5829999D01*
X1071890Y5810083D01*
Y5805000D01*
X1195000D01*
Y5928110D01*
D02*
G37*
G36*
X6033622Y5900512D02*
X5910512D01*
Y5777402D01*
X5915594D01*
X5935511Y5780556D01*
X5954689Y5786788D01*
X5972656Y5795942D01*
X5988970Y5807795D01*
X6003229Y5822054D01*
X6015081Y5838367D01*
X6024236Y5856335D01*
X6030467Y5875513D01*
X6033622Y5895429D01*
Y5900512D01*
D02*
G37*
G36*
X5900512D02*
X5777402D01*
Y5895429D01*
X5780556Y5875513D01*
X5786788Y5856335D01*
X5795942Y5838367D01*
X5807795Y5822054D01*
X5822054Y5807795D01*
X5838367Y5795942D01*
X5856335Y5786788D01*
X5875513Y5780556D01*
X5895429Y5777402D01*
X5900512D01*
Y5900512D01*
D02*
G37*
G36*
X5305358Y5876142D02*
X5300276D01*
Y5753032D01*
X5423386D01*
Y5758114D01*
X5420231Y5778031D01*
X5414000Y5797209D01*
X5404845Y5815176D01*
X5392993Y5831490D01*
X5378734Y5845748D01*
X5362420Y5857601D01*
X5344453Y5866756D01*
X5325275Y5872987D01*
X5305358Y5876142D01*
D02*
G37*
G36*
X5290276D02*
X5285193D01*
X5265276Y5872987D01*
X5246098Y5866756D01*
X5228131Y5857601D01*
X5211817Y5845748D01*
X5197559Y5831490D01*
X5185706Y5815176D01*
X5176551Y5797209D01*
X5170320Y5778031D01*
X5167165Y5758114D01*
Y5753032D01*
X5290276D01*
Y5876142D01*
D02*
G37*
G36*
X4006146D02*
X4001063D01*
Y5753031D01*
X4124173D01*
Y5758114D01*
X4121019Y5778031D01*
X4114787Y5797209D01*
X4105633Y5815176D01*
X4093780Y5831490D01*
X4079521Y5845748D01*
X4063207Y5857601D01*
X4045240Y5866756D01*
X4026062Y5872987D01*
X4006146Y5876142D01*
D02*
G37*
G36*
X3991063D02*
X3985981D01*
X3966064Y5872987D01*
X3946886Y5866756D01*
X3928919Y5857601D01*
X3912605Y5845748D01*
X3898346Y5831490D01*
X3886493Y5815176D01*
X3877339Y5797209D01*
X3871107Y5778031D01*
X3867953Y5758114D01*
Y5753031D01*
X3991063D01*
Y5876142D01*
D02*
G37*
G36*
X1328110Y5795000D02*
X1205000D01*
Y5671890D01*
X1210082D01*
X1229999Y5675044D01*
X1249177Y5681276D01*
X1267144Y5690430D01*
X1283458Y5702283D01*
X1297717Y5716542D01*
X1309570Y5732856D01*
X1318724Y5750823D01*
X1324956Y5770001D01*
X1328110Y5789917D01*
Y5795000D01*
D02*
G37*
G36*
X1195000D02*
X1071890D01*
Y5789917D01*
X1075044Y5770001D01*
X1081276Y5750823D01*
X1090430Y5732856D01*
X1102283Y5716542D01*
X1116542Y5702283D01*
X1132856Y5690430D01*
X1150823Y5681276D01*
X1170001Y5675044D01*
X1189918Y5671890D01*
X1195000D01*
Y5795000D01*
D02*
G37*
G36*
X5423386Y5743032D02*
X5300276D01*
Y5619921D01*
X5305358D01*
X5325275Y5623076D01*
X5344453Y5629307D01*
X5362420Y5638462D01*
X5378734Y5650315D01*
X5392993Y5664573D01*
X5404845Y5680887D01*
X5414000Y5698854D01*
X5420231Y5718032D01*
X5423386Y5737949D01*
Y5743032D01*
D02*
G37*
G36*
X5290276D02*
X5167165D01*
Y5737949D01*
X5170320Y5718032D01*
X5176551Y5698854D01*
X5185706Y5680887D01*
X5197559Y5664573D01*
X5211817Y5650315D01*
X5228131Y5638462D01*
X5246098Y5629307D01*
X5265276Y5623076D01*
X5285193Y5619921D01*
X5290276D01*
Y5743032D01*
D02*
G37*
G36*
X4124173Y5743031D02*
X4001063D01*
Y5619921D01*
X4006146D01*
X4026062Y5623076D01*
X4045240Y5629307D01*
X4063207Y5638462D01*
X4079521Y5650315D01*
X4093780Y5664573D01*
X4105633Y5680887D01*
X4114787Y5698854D01*
X4121019Y5718032D01*
X4124173Y5737949D01*
Y5743031D01*
D02*
G37*
G36*
X3991063D02*
X3867953D01*
Y5737949D01*
X3871107Y5718032D01*
X3877339Y5698854D01*
X3886493Y5680887D01*
X3898346Y5664573D01*
X3912605Y5650315D01*
X3928919Y5638462D01*
X3946886Y5629307D01*
X3966064Y5623076D01*
X3985981Y5619921D01*
X3991063D01*
Y5743031D01*
D02*
G37*
G36*
X5825709Y5641890D02*
X5823950D01*
X5810893Y5638391D01*
X5799186Y5631632D01*
X5789627Y5622074D01*
X5782869Y5610367D01*
X5781918Y5606819D01*
X5776552Y5606113D01*
X5774022Y5610495D01*
X5767975Y5616542D01*
X5760568Y5620818D01*
X5752308Y5623032D01*
X5743755D01*
X5735495Y5620818D01*
X5728088Y5616542D01*
X5722041Y5610495D01*
X5717765Y5603088D01*
X5715551Y5594827D01*
Y5586275D01*
X5717765Y5578014D01*
X5722041Y5570608D01*
X5728088Y5564560D01*
X5735495Y5560284D01*
X5743755Y5558071D01*
X5752308D01*
X5760568Y5560284D01*
X5767975Y5564560D01*
X5774022Y5570608D01*
X5776552Y5574990D01*
X5781918Y5574283D01*
X5782869Y5570735D01*
X5789627Y5559029D01*
X5799186Y5549470D01*
X5810893Y5542711D01*
X5823950Y5539213D01*
X5825709D01*
Y5590551D01*
Y5641890D01*
D02*
G37*
G36*
X5837467D02*
X5835709D01*
Y5595551D01*
X5882047D01*
Y5597310D01*
X5878549Y5610367D01*
X5871790Y5622074D01*
X5862231Y5631632D01*
X5850525Y5638391D01*
X5837467Y5641890D01*
D02*
G37*
G36*
X5595551Y5628095D02*
Y5595551D01*
X5628095D01*
X5625551Y5605048D01*
X5620606Y5613613D01*
X5613613Y5620606D01*
X5605048Y5625551D01*
X5595551Y5628095D01*
D02*
G37*
G36*
X5502874Y5641890D02*
X5501115D01*
X5488058Y5638391D01*
X5476351Y5631632D01*
X5466793Y5622074D01*
X5460034Y5610367D01*
X5456535Y5597310D01*
Y5595551D01*
X5502874D01*
Y5641890D01*
D02*
G37*
G36*
X1425197Y5624548D02*
X1410512D01*
Y5585709D01*
X1468378D01*
X1467543Y5592055D01*
X1463163Y5602628D01*
X1456196Y5611708D01*
X1447117Y5618675D01*
X1436543Y5623055D01*
X1425197Y5624548D01*
D02*
G37*
G36*
X1400512D02*
X1385827D01*
X1374480Y5623055D01*
X1363907Y5618675D01*
X1354827Y5611708D01*
X1347861Y5602628D01*
X1343481Y5592055D01*
X1342645Y5585709D01*
X1400512D01*
Y5624548D01*
D02*
G37*
G36*
X1240158D02*
X1225472D01*
Y5585709D01*
X1283339D01*
X1282503Y5592055D01*
X1278124Y5602628D01*
X1271157Y5611708D01*
X1262077Y5618675D01*
X1251504Y5623055D01*
X1240158Y5624548D01*
D02*
G37*
G36*
X1215472D02*
X1200787D01*
X1189441Y5623055D01*
X1178868Y5618675D01*
X1169788Y5611708D01*
X1162821Y5602628D01*
X1158441Y5592055D01*
X1157606Y5585709D01*
X1215472D01*
Y5624548D01*
D02*
G37*
G36*
X5673567Y5623032D02*
X5665015D01*
X5656754Y5620818D01*
X5649348Y5616542D01*
X5643301Y5610495D01*
X5639025Y5603088D01*
X5636811Y5594827D01*
Y5586275D01*
X5639025Y5578014D01*
X5643301Y5570608D01*
X5649348Y5564560D01*
X5656754Y5560284D01*
X5665015Y5558071D01*
X5673567D01*
X5681828Y5560284D01*
X5689235Y5564560D01*
X5695282Y5570608D01*
X5699558Y5578014D01*
X5701772Y5586275D01*
Y5594827D01*
X5699558Y5603088D01*
X5695282Y5610495D01*
X5689235Y5616542D01*
X5681828Y5620818D01*
X5673567Y5623032D01*
D02*
G37*
G36*
X5628095Y5585551D02*
X5595551D01*
Y5553007D01*
X5605048Y5555552D01*
X5613613Y5560497D01*
X5620606Y5567489D01*
X5625551Y5576054D01*
X5628095Y5585551D01*
D02*
G37*
G36*
X5514633Y5641890D02*
X5512874D01*
Y5590551D01*
Y5539213D01*
X5514633D01*
X5527690Y5542711D01*
X5539397Y5549470D01*
X5548955Y5559029D01*
X5554281Y5568254D01*
X5560048Y5568266D01*
X5560496Y5567489D01*
X5567489Y5560497D01*
X5576054Y5555552D01*
X5585551Y5553007D01*
Y5590551D01*
Y5628095D01*
X5576054Y5625551D01*
X5567489Y5620606D01*
X5560496Y5613613D01*
X5560048Y5612837D01*
X5554281Y5612848D01*
X5548955Y5622074D01*
X5539397Y5631632D01*
X5527690Y5638391D01*
X5514633Y5641890D01*
D02*
G37*
G36*
X5882047Y5585551D02*
X5835709D01*
Y5539213D01*
X5837467D01*
X5850525Y5542711D01*
X5862231Y5549470D01*
X5871790Y5559029D01*
X5878549Y5570735D01*
X5882047Y5583792D01*
Y5585551D01*
D02*
G37*
G36*
X5502874D02*
X5456535D01*
Y5583792D01*
X5460034Y5570735D01*
X5466793Y5559029D01*
X5476351Y5549470D01*
X5488058Y5542711D01*
X5501115Y5539213D01*
X5502874D01*
Y5585551D01*
D02*
G37*
G36*
X1468378Y5575709D02*
X1410512D01*
Y5536869D01*
X1425197D01*
X1436543Y5538363D01*
X1447117Y5542743D01*
X1456196Y5549709D01*
X1463163Y5558789D01*
X1467543Y5569362D01*
X1468378Y5575709D01*
D02*
G37*
G36*
X1400512D02*
X1342645D01*
X1343481Y5569362D01*
X1347861Y5558789D01*
X1354827Y5549709D01*
X1363907Y5542743D01*
X1374480Y5538363D01*
X1385827Y5536869D01*
X1400512D01*
Y5575709D01*
D02*
G37*
G36*
X1283339Y5575709D02*
X1225472D01*
Y5536869D01*
X1240158D01*
X1251504Y5538363D01*
X1262077Y5542743D01*
X1271157Y5549709D01*
X1278124Y5558789D01*
X1282503Y5569362D01*
X1283339Y5575709D01*
D02*
G37*
G36*
X1215472D02*
X1157606D01*
X1158441Y5569362D01*
X1162821Y5558789D01*
X1169788Y5549709D01*
X1178868Y5542743D01*
X1189441Y5538363D01*
X1200787Y5536869D01*
X1215472D01*
Y5575709D01*
D02*
G37*
G36*
X3534433Y5483268D02*
X3528559D01*
X3523133Y5481020D01*
X3518980Y5476867D01*
X3516732Y5471441D01*
Y5465567D01*
X3518980Y5460141D01*
X3523133Y5455988D01*
X3528559Y5453740D01*
X3534433D01*
X3539859Y5455988D01*
X3544012Y5460141D01*
X3546260Y5465567D01*
Y5471441D01*
X3544012Y5476867D01*
X3539859Y5481020D01*
X3534433Y5483268D01*
D02*
G37*
G36*
X2115990Y5516142D02*
X2104483D01*
X2093368Y5513164D01*
X2083403Y5507410D01*
X2075267Y5499274D01*
X2069514Y5489309D01*
X2066535Y5478194D01*
Y5466688D01*
X2069514Y5455573D01*
X2075267Y5445608D01*
X2083403Y5437472D01*
X2093368Y5431718D01*
X2104483Y5428740D01*
X2115990D01*
X2127104Y5431718D01*
X2137069Y5437472D01*
X2145206Y5445608D01*
X2150959Y5455573D01*
X2153937Y5466688D01*
Y5478194D01*
X2150959Y5489309D01*
X2145206Y5499274D01*
X2137069Y5507410D01*
X2127104Y5513164D01*
X2115990Y5516142D01*
D02*
G37*
G36*
X1245158Y5456516D02*
Y5398701D01*
X1278041D01*
Y5419291D01*
X1276750Y5429096D01*
X1272965Y5438233D01*
X1266945Y5446079D01*
X1259099Y5452099D01*
X1249962Y5455884D01*
X1245158Y5456516D01*
D02*
G37*
G36*
X1235158D02*
X1230353Y5455884D01*
X1221216Y5452099D01*
X1213370Y5446079D01*
X1207350Y5438233D01*
X1203565Y5429096D01*
X1202274Y5419291D01*
Y5398701D01*
X1235158D01*
Y5456516D01*
D02*
G37*
G36*
X1116999Y5430118D02*
X1107410D01*
X1098148Y5427636D01*
X1089844Y5422842D01*
X1083064Y5416061D01*
X1078269Y5407757D01*
X1075787Y5398495D01*
Y5388906D01*
X1078269Y5379644D01*
X1083064Y5371340D01*
X1089844Y5364560D01*
X1098148Y5359765D01*
X1107410Y5357283D01*
X1116999D01*
X1126261Y5359765D01*
X1134565Y5364560D01*
X1141346Y5371340D01*
X1146140Y5379644D01*
X1148622Y5388906D01*
Y5398495D01*
X1146140Y5407757D01*
X1141346Y5416061D01*
X1134565Y5422842D01*
X1126261Y5427636D01*
X1116999Y5430118D01*
D02*
G37*
G36*
X6034370Y5369311D02*
X6015748D01*
X6007999Y5368291D01*
X6000777Y5365300D01*
X5994576Y5360542D01*
X5989818Y5354341D01*
X5986827Y5347119D01*
X5986465Y5344370D01*
X6034370D01*
Y5369311D01*
D02*
G37*
G36*
X5897638D02*
X5886890D01*
Y5344370D01*
X5926921D01*
X5926559Y5347119D01*
X5923568Y5354341D01*
X5918809Y5360542D01*
X5912608Y5365300D01*
X5905387Y5368291D01*
X5897638Y5369311D01*
D02*
G37*
G36*
X5876890D02*
X5866142D01*
X5858392Y5368291D01*
X5851171Y5365300D01*
X5844970Y5360542D01*
X5840212Y5354341D01*
X5837221Y5347119D01*
X5836859Y5344370D01*
X5876890D01*
Y5369311D01*
D02*
G37*
G36*
X1278041Y5388701D02*
X1245158D01*
Y5330885D01*
X1249962Y5331518D01*
X1259099Y5335302D01*
X1266945Y5341323D01*
X1272965Y5349169D01*
X1276750Y5358305D01*
X1278041Y5368110D01*
Y5388701D01*
D02*
G37*
G36*
X1235158D02*
X1202274D01*
Y5368110D01*
X1203565Y5358305D01*
X1207350Y5349169D01*
X1213370Y5341323D01*
X1221216Y5335302D01*
X1230353Y5331518D01*
X1235158Y5330885D01*
Y5388701D01*
D02*
G37*
G36*
X1483261Y5463583D02*
X1469495D01*
X1455994Y5460897D01*
X1443276Y5455629D01*
X1431831Y5447982D01*
X1422097Y5438248D01*
X1414449Y5426802D01*
X1409181Y5414085D01*
X1406496Y5400584D01*
Y5386818D01*
X1409181Y5373317D01*
X1414449Y5360599D01*
X1422097Y5349154D01*
X1431831Y5339420D01*
X1443276Y5331772D01*
X1455994Y5326504D01*
X1469495Y5323819D01*
X1483261D01*
X1496762Y5326504D01*
X1509479Y5331772D01*
X1520925Y5339420D01*
X1530659Y5349154D01*
X1538306Y5360599D01*
X1543574Y5373317D01*
X1546260Y5386818D01*
Y5400584D01*
X1543574Y5414085D01*
X1538306Y5426802D01*
X1530659Y5438248D01*
X1520925Y5447982D01*
X1509479Y5455629D01*
X1496762Y5460897D01*
X1483261Y5463583D01*
D02*
G37*
G36*
X2115990Y5398032D02*
X2104483D01*
X2093368Y5395053D01*
X2083403Y5389300D01*
X2075267Y5381164D01*
X2069514Y5371199D01*
X2066535Y5360084D01*
Y5348577D01*
X2069514Y5337463D01*
X2075267Y5327498D01*
X2083403Y5319361D01*
X2093368Y5313608D01*
X2104483Y5310630D01*
X2115990D01*
X2127104Y5313608D01*
X2137069Y5319361D01*
X2145206Y5327498D01*
X2150959Y5337463D01*
X2153937Y5348577D01*
Y5360084D01*
X2150959Y5371199D01*
X2145206Y5381164D01*
X2137069Y5389300D01*
X2127104Y5395053D01*
X2115990Y5398032D01*
D02*
G37*
G36*
X6034370Y5334370D02*
X5986465D01*
X5986827Y5331621D01*
X5989818Y5324399D01*
X5994576Y5318198D01*
X6000777Y5313440D01*
X6007999Y5310449D01*
X6015748Y5309429D01*
X6034370D01*
Y5334370D01*
D02*
G37*
G36*
X5926921Y5334370D02*
X5886890D01*
Y5309429D01*
X5897638D01*
X5905387Y5310449D01*
X5912608Y5313440D01*
X5918809Y5318198D01*
X5923568Y5324399D01*
X5926559Y5331621D01*
X5926921Y5334370D01*
D02*
G37*
G36*
X5876890D02*
X5836859D01*
X5837221Y5331621D01*
X5840212Y5324399D01*
X5844970Y5318198D01*
X5851171Y5313440D01*
X5858392Y5310449D01*
X5866142Y5309429D01*
X5876890D01*
Y5334370D01*
D02*
G37*
G36*
X3187976Y5278543D02*
X3182103D01*
X3176676Y5276296D01*
X3172523Y5272142D01*
X3170276Y5266716D01*
Y5260843D01*
X3172523Y5255417D01*
X3176676Y5251263D01*
X3182103Y5249016D01*
X3187976D01*
X3193402Y5251263D01*
X3197555Y5255417D01*
X3199803Y5260843D01*
Y5266716D01*
X3197555Y5272142D01*
X3193402Y5276296D01*
X3187976Y5278543D01*
D02*
G37*
G36*
X1240158Y5250533D02*
X1225472D01*
Y5211693D01*
X1283339D01*
X1282503Y5218039D01*
X1278124Y5228613D01*
X1271157Y5237692D01*
X1262077Y5244659D01*
X1251504Y5249039D01*
X1240158Y5250533D01*
D02*
G37*
G36*
X1215472D02*
X1200787D01*
X1189441Y5249039D01*
X1178868Y5244659D01*
X1169788Y5237692D01*
X1162821Y5228613D01*
X1158441Y5218039D01*
X1157606Y5211693D01*
X1215472D01*
Y5250533D01*
D02*
G37*
G36*
X1425197D02*
X1410512D01*
Y5211693D01*
X1468378D01*
X1467543Y5218039D01*
X1463163Y5228613D01*
X1456196Y5237692D01*
X1447117Y5244659D01*
X1436543Y5249039D01*
X1425197Y5250533D01*
D02*
G37*
G36*
X1400512D02*
X1385827D01*
X1374480Y5249039D01*
X1363907Y5244659D01*
X1354827Y5237692D01*
X1347861Y5228613D01*
X1343481Y5218039D01*
X1342645Y5211693D01*
X1400512D01*
Y5250533D01*
D02*
G37*
G36*
X1468378Y5201693D02*
X1410512D01*
Y5162853D01*
X1425197D01*
X1436543Y5164347D01*
X1447117Y5168727D01*
X1456196Y5175694D01*
X1463163Y5184773D01*
X1467543Y5195346D01*
X1468378Y5201693D01*
D02*
G37*
G36*
X1400512D02*
X1342645D01*
X1343481Y5195346D01*
X1347861Y5184773D01*
X1354827Y5175694D01*
X1363907Y5168727D01*
X1374480Y5164347D01*
X1385827Y5162853D01*
X1400512D01*
Y5201693D01*
D02*
G37*
G36*
X1283339Y5201693D02*
X1225472D01*
Y5162853D01*
X1240158D01*
X1251504Y5164347D01*
X1262077Y5168727D01*
X1271157Y5175694D01*
X1278124Y5184773D01*
X1282503Y5195346D01*
X1283339Y5201693D01*
D02*
G37*
G36*
X1215472D02*
X1157606D01*
X1158441Y5195346D01*
X1162821Y5184773D01*
X1169788Y5175694D01*
X1178868Y5168727D01*
X1189441Y5164347D01*
X1200787Y5162853D01*
X1215472D01*
Y5201693D01*
D02*
G37*
G36*
X3197741Y5171779D02*
X3192259D01*
X3187195Y5169682D01*
X3183318Y5165806D01*
X3181220Y5160741D01*
Y5155259D01*
X3183318Y5150194D01*
X3187195Y5146318D01*
X3192259Y5144221D01*
X3197741D01*
X3202805Y5146318D01*
X3206682Y5150194D01*
X3208780Y5155259D01*
Y5160741D01*
X3206682Y5165806D01*
X3202805Y5169682D01*
X3197741Y5171779D01*
D02*
G37*
G36*
X5713661Y5135386D02*
Y5123110D01*
X5725937D01*
X5723814Y5128235D01*
X5718786Y5133263D01*
X5713661Y5135386D01*
D02*
G37*
G36*
X5703661D02*
X5698537Y5133263D01*
X5693508Y5128235D01*
X5691386Y5123110D01*
X5703661D01*
Y5135386D01*
D02*
G37*
G36*
X5725937Y5113110D02*
X5713661D01*
Y5100835D01*
X5718786Y5102957D01*
X5723814Y5107985D01*
X5725937Y5113110D01*
D02*
G37*
G36*
X5703661D02*
X5691386D01*
X5693508Y5107985D01*
X5698537Y5102957D01*
X5703661Y5100835D01*
Y5113110D01*
D02*
G37*
G36*
X3978937Y4982764D02*
X3973063D01*
X3967637Y4980516D01*
X3963484Y4976363D01*
X3961236Y4970937D01*
Y4965063D01*
X3963484Y4959637D01*
X3967637Y4955484D01*
X3973063Y4953236D01*
X3978937D01*
X3984363Y4955484D01*
X3988516Y4959637D01*
X3990764Y4965063D01*
Y4970937D01*
X3988516Y4976363D01*
X3984363Y4980516D01*
X3978937Y4982764D01*
D02*
G37*
G36*
X3884827Y4967520D02*
X3878953D01*
X3873527Y4965272D01*
X3872775Y4964520D01*
X3872068Y4964312D01*
X3871594Y4963931D01*
X3871270Y4963709D01*
X3870924Y4963512D01*
X3870549Y4963336D01*
X3870138Y4963181D01*
X3869683Y4963046D01*
X3869177Y4962935D01*
X3868620Y4962850D01*
X3868003Y4962797D01*
X3867184Y4962774D01*
X3866671Y4962544D01*
X3843276D01*
X3839820Y4961857D01*
X3836890Y4959899D01*
X3820385Y4943394D01*
X3818427Y4940464D01*
X3817740Y4937008D01*
Y4141581D01*
X3817510Y4141071D01*
X3817486Y4140263D01*
X3817431Y4139677D01*
X3817346Y4139161D01*
X3817235Y4138704D01*
X3817104Y4138305D01*
X3816954Y4137951D01*
X3816788Y4137636D01*
X3816602Y4137349D01*
X3816391Y4137079D01*
X3815991Y4136652D01*
X3815649Y4135741D01*
X3814256Y4134347D01*
X3812008Y4128921D01*
Y4123048D01*
X3814256Y4117621D01*
X3818409Y4113468D01*
X3823835Y4111221D01*
X3829708D01*
X3835135Y4113468D01*
X3839288Y4117621D01*
X3841535Y4123048D01*
Y4128921D01*
X3839288Y4134347D01*
X3837894Y4135741D01*
X3837552Y4136652D01*
X3837152Y4137079D01*
X3836941Y4137349D01*
X3836755Y4137637D01*
X3836589Y4137951D01*
X3836440Y4138305D01*
X3836309Y4138704D01*
X3836198Y4139161D01*
X3836113Y4139677D01*
X3836057Y4140262D01*
X3836033Y4141071D01*
X3835803Y4141581D01*
Y4933267D01*
X3847017Y4944481D01*
X3865810D01*
X3866223Y4944267D01*
X3866364Y4944312D01*
X3866499Y4944251D01*
X3867301Y4944226D01*
X3867856Y4944170D01*
X3868335Y4944085D01*
X3868741Y4943978D01*
X3869085Y4943855D01*
X3869375Y4943720D01*
X3869626Y4943573D01*
X3869851Y4943409D01*
X3870062Y4943220D01*
X3870440Y4942812D01*
X3871396Y4942371D01*
X3873527Y4940240D01*
X3878953Y4937992D01*
X3884827D01*
X3890253Y4940240D01*
X3894406Y4944393D01*
X3896654Y4949819D01*
Y4955693D01*
X3894406Y4961119D01*
X3890253Y4965272D01*
X3884827Y4967520D01*
D02*
G37*
G36*
X3245227Y4946299D02*
X3244961D01*
Y4911299D01*
X3279961D01*
Y4911565D01*
X3277235Y4921739D01*
X3271969Y4930860D01*
X3264521Y4938307D01*
X3255400Y4943573D01*
X3245227Y4946299D01*
D02*
G37*
G36*
X3234961D02*
X3234695D01*
X3224521Y4943573D01*
X3215400Y4938307D01*
X3207953Y4930860D01*
X3202686Y4921739D01*
X3199961Y4911565D01*
Y4911299D01*
X3234961D01*
Y4946299D01*
D02*
G37*
G36*
X5897638Y4926792D02*
X5886890D01*
Y4901851D01*
X5926921D01*
X5926559Y4904600D01*
X5923568Y4911821D01*
X5918809Y4918022D01*
X5912608Y4922780D01*
X5905387Y4925771D01*
X5897638Y4926792D01*
D02*
G37*
G36*
X5876890D02*
X5866142D01*
X5858392Y4925771D01*
X5851171Y4922780D01*
X5844970Y4918022D01*
X5840212Y4911821D01*
X5837221Y4904600D01*
X5836859Y4901851D01*
X5876890D01*
Y4926792D01*
D02*
G37*
G36*
X6034370D02*
X6015748D01*
X6007999Y4925771D01*
X6000777Y4922780D01*
X5994576Y4918022D01*
X5989818Y4911821D01*
X5986827Y4904600D01*
X5986465Y4901850D01*
X6034370D01*
Y4926792D01*
D02*
G37*
G36*
X1178019Y4941102D02*
X1176260D01*
Y4894764D01*
X1222599D01*
Y4896523D01*
X1219100Y4909580D01*
X1212341Y4921286D01*
X1202783Y4930845D01*
X1191076Y4937604D01*
X1178019Y4941102D01*
D02*
G37*
G36*
X1166260D02*
X1164501D01*
X1151444Y4937604D01*
X1139737Y4930845D01*
X1130179Y4921286D01*
X1123420Y4909580D01*
X1119921Y4896523D01*
Y4894764D01*
X1166260D01*
Y4941102D01*
D02*
G37*
G36*
X3344558Y4941221D02*
X3335363D01*
X3326481Y4938841D01*
X3318518Y4934243D01*
X3312017Y4927741D01*
X3307419Y4919778D01*
X3305039Y4910897D01*
Y4901702D01*
X3307419Y4892820D01*
X3312017Y4884857D01*
X3318518Y4878355D01*
X3326481Y4873758D01*
X3335363Y4871378D01*
X3344558D01*
X3353440Y4873758D01*
X3361403Y4878355D01*
X3367905Y4884857D01*
X3372502Y4892820D01*
X3374882Y4901702D01*
Y4910897D01*
X3372502Y4919778D01*
X3367905Y4927741D01*
X3361403Y4934243D01*
X3353440Y4938841D01*
X3344558Y4941221D01*
D02*
G37*
G36*
X6034370Y4891850D02*
X5986465D01*
X5986827Y4889101D01*
X5989818Y4881880D01*
X5994576Y4875679D01*
X6000777Y4870921D01*
X6007999Y4867929D01*
X6015748Y4866909D01*
X6034370D01*
Y4891850D01*
D02*
G37*
G36*
X5926921Y4891851D02*
X5886890D01*
Y4866909D01*
X5897638D01*
X5905387Y4867929D01*
X5912608Y4870921D01*
X5918809Y4875679D01*
X5923568Y4881880D01*
X5926559Y4889101D01*
X5926921Y4891851D01*
D02*
G37*
G36*
X5876890D02*
X5836859D01*
X5837221Y4889101D01*
X5840212Y4881880D01*
X5844970Y4875679D01*
X5851171Y4870921D01*
X5858392Y4867929D01*
X5866142Y4866909D01*
X5876890D01*
Y4891851D01*
D02*
G37*
G36*
X3279961Y4901299D02*
X3244961D01*
Y4866299D01*
X3245227D01*
X3255400Y4869025D01*
X3264521Y4874291D01*
X3271969Y4881739D01*
X3277235Y4890860D01*
X3279961Y4901033D01*
Y4901299D01*
D02*
G37*
G36*
X3234961D02*
X3199961D01*
Y4901033D01*
X3202686Y4890860D01*
X3207953Y4881739D01*
X3215400Y4874291D01*
X3224521Y4869025D01*
X3234695Y4866299D01*
X3234961D01*
Y4901299D01*
D02*
G37*
G36*
X1222599Y4884764D02*
X1176260D01*
Y4838425D01*
X1178019D01*
X1191076Y4841924D01*
X1202783Y4848683D01*
X1212341Y4858241D01*
X1219100Y4869948D01*
X1222599Y4883005D01*
Y4884764D01*
D02*
G37*
G36*
X1166260D02*
X1119921D01*
Y4883005D01*
X1123420Y4869948D01*
X1130179Y4858241D01*
X1139737Y4848683D01*
X1151444Y4841924D01*
X1164501Y4838425D01*
X1166260D01*
Y4884764D01*
D02*
G37*
G36*
X1393709Y4949803D02*
X1381882D01*
X1370283Y4947496D01*
X1359356Y4942970D01*
X1349522Y4936399D01*
X1341160Y4928037D01*
X1334589Y4918203D01*
X1330063Y4907276D01*
X1327756Y4895677D01*
Y4883850D01*
X1330063Y4872251D01*
X1334589Y4861324D01*
X1341160Y4851491D01*
X1349522Y4843128D01*
X1359356Y4836557D01*
X1370283Y4832032D01*
X1381882Y4829724D01*
X1393709D01*
X1405308Y4832032D01*
X1416235Y4836557D01*
X1426068Y4843128D01*
X1434431Y4851491D01*
X1441002Y4861324D01*
X1445527Y4872251D01*
X1447835Y4883850D01*
Y4895677D01*
X1445527Y4907276D01*
X1441002Y4918203D01*
X1434431Y4928037D01*
X1426068Y4936399D01*
X1416235Y4942970D01*
X1405308Y4947496D01*
X1393709Y4949803D01*
D02*
G37*
G36*
X3344558Y4841221D02*
X3335363D01*
X3326481Y4838841D01*
X3318518Y4834243D01*
X3312017Y4827741D01*
X3307419Y4819778D01*
X3305039Y4810897D01*
Y4801702D01*
X3307419Y4792820D01*
X3312017Y4784857D01*
X3318518Y4778355D01*
X3326481Y4773758D01*
X3330582Y4772659D01*
X3329923Y4767659D01*
X3289302D01*
X3279872Y4777089D01*
X3279734Y4777553D01*
X3278905Y4778577D01*
X3278302Y4779656D01*
X3277655Y4781273D01*
X3277036Y4783408D01*
X3276485Y4786036D01*
X3276039Y4789033D01*
X3275295Y4801186D01*
X3275286Y4806010D01*
X3274882Y4806980D01*
Y4810897D01*
X3272502Y4819778D01*
X3267905Y4827741D01*
X3261403Y4834243D01*
X3253440Y4838841D01*
X3244558Y4841221D01*
X3235363D01*
X3226481Y4838841D01*
X3218518Y4834243D01*
X3212017Y4827741D01*
X3207419Y4819778D01*
X3205039Y4810897D01*
Y4801702D01*
X3207419Y4792820D01*
X3212017Y4784857D01*
X3218518Y4778355D01*
X3226481Y4773758D01*
X3235363Y4771378D01*
X3239247D01*
X3240181Y4770975D01*
X3249570Y4770834D01*
X3257178Y4770228D01*
X3260224Y4769775D01*
X3262852Y4769224D01*
X3264987Y4768605D01*
X3266604Y4767958D01*
X3267683Y4767355D01*
X3268707Y4766525D01*
X3269171Y4766388D01*
X3280817Y4754742D01*
X3283272Y4753102D01*
X3286167Y4752526D01*
X3286168Y4752526D01*
X3598978D01*
X3654914Y4696590D01*
Y4178520D01*
X3655490Y4175624D01*
X3657130Y4173169D01*
X3747649Y4082649D01*
X3750104Y4081009D01*
X3753000Y4080433D01*
X3753001Y4080433D01*
X3882448D01*
X3885343Y4081009D01*
X3887798Y4082649D01*
X3958106Y4152957D01*
X3958106Y4152958D01*
X3959747Y4155413D01*
X3960323Y4158308D01*
X3960323Y4158309D01*
Y4381011D01*
X3964675Y4383375D01*
X3965668Y4382959D01*
X3966403Y4382203D01*
X3966953Y4381574D01*
X3967409Y4380985D01*
X3967774Y4380444D01*
X3968054Y4379955D01*
X3968258Y4379523D01*
X3968398Y4379143D01*
X3968484Y4378818D01*
X3968530Y4378533D01*
X3968559Y4377991D01*
X3968811Y4377463D01*
Y4138512D01*
X3903866Y4073567D01*
X3677134D01*
X3629567Y4121134D01*
Y4522000D01*
X3628991Y4524896D01*
X3627351Y4527350D01*
X3627350Y4527351D01*
X3491351Y4663350D01*
X3488896Y4664991D01*
X3486000Y4665567D01*
X3291394D01*
X3279872Y4677089D01*
X3279734Y4677553D01*
X3278905Y4678577D01*
X3278302Y4679656D01*
X3277655Y4681273D01*
X3277036Y4683408D01*
X3276485Y4686036D01*
X3276039Y4689033D01*
X3275295Y4701186D01*
X3275286Y4706010D01*
X3274882Y4706980D01*
Y4710897D01*
X3272502Y4719778D01*
X3267905Y4727741D01*
X3261403Y4734243D01*
X3253440Y4738841D01*
X3244558Y4741221D01*
X3235363D01*
X3226481Y4738841D01*
X3218518Y4734243D01*
X3212017Y4727741D01*
X3207419Y4719778D01*
X3205039Y4710897D01*
Y4701702D01*
X3207419Y4692820D01*
X3212017Y4684857D01*
X3218518Y4678355D01*
X3226481Y4673758D01*
X3235363Y4671378D01*
X3239247D01*
X3240181Y4670975D01*
X3249570Y4670834D01*
X3257178Y4670228D01*
X3260224Y4669775D01*
X3262852Y4669224D01*
X3264987Y4668605D01*
X3266604Y4667958D01*
X3267683Y4667355D01*
X3268707Y4666525D01*
X3269171Y4666388D01*
X3282909Y4652650D01*
X3285364Y4651009D01*
X3288260Y4650433D01*
X3288260Y4650433D01*
X3482866D01*
X3614433Y4518866D01*
Y4118000D01*
X3615009Y4115104D01*
X3616649Y4112650D01*
X3668649Y4060649D01*
X3671104Y4059009D01*
X3674000Y4058433D01*
X3907000D01*
X3909896Y4059009D01*
X3912351Y4060649D01*
X3981729Y4130028D01*
X3983369Y4132482D01*
X3983945Y4135378D01*
Y4377463D01*
X3984197Y4377991D01*
X3984226Y4378533D01*
X3984272Y4378817D01*
X3984358Y4379143D01*
X3984498Y4379523D01*
X3984702Y4379956D01*
X3984982Y4380444D01*
X3985347Y4380986D01*
X3985803Y4381573D01*
X3986352Y4382202D01*
X3987088Y4382960D01*
X3987466Y4383909D01*
X3988894Y4385338D01*
X3991142Y4390764D01*
Y4396637D01*
X3988894Y4402064D01*
X3984741Y4406217D01*
X3979315Y4408465D01*
X3973441D01*
X3968015Y4406217D01*
X3965323Y4403525D01*
X3960323Y4405590D01*
Y4433874D01*
X3963764Y4437315D01*
X4087417D01*
X4108823Y4415909D01*
X4111278Y4414269D01*
X4112913Y4413944D01*
X4114095Y4413434D01*
X4114718Y4413425D01*
X4115722Y4413357D01*
X4115785Y4413348D01*
X4115839Y4413265D01*
X4116032Y4413222D01*
X4118771Y4410484D01*
X4124197Y4408236D01*
X4130070D01*
X4135497Y4410484D01*
X4139650Y4414637D01*
X4141898Y4420063D01*
Y4425937D01*
X4139650Y4431363D01*
X4135497Y4435516D01*
X4130070Y4437764D01*
X4124197D01*
X4118771Y4435516D01*
X4114694Y4431440D01*
X4095902Y4450232D01*
X4096783Y4455657D01*
X4099776Y4456897D01*
X4103930Y4461050D01*
X4106177Y4466477D01*
Y4472350D01*
X4103930Y4477776D01*
X4099776Y4481929D01*
X4094350Y4484177D01*
X4088477D01*
X4083050Y4481929D01*
X4078897Y4477776D01*
X4076650Y4472350D01*
Y4466477D01*
X4078897Y4461050D01*
X4082499Y4457449D01*
X4082095Y4454858D01*
X4080966Y4452449D01*
X3960630D01*
X3957734Y4451873D01*
X3955279Y4450232D01*
X3947405Y4442358D01*
X3945765Y4439904D01*
X3945189Y4437008D01*
Y4161442D01*
X3879314Y4095567D01*
X3756134D01*
X3670047Y4181654D01*
Y4699724D01*
X3669471Y4702620D01*
X3667831Y4705075D01*
X3667831Y4705075D01*
X3607463Y4765443D01*
X3605008Y4767083D01*
X3602112Y4767659D01*
X3349998D01*
X3349340Y4772659D01*
X3353440Y4773758D01*
X3361403Y4778355D01*
X3367905Y4784857D01*
X3372502Y4792820D01*
X3374882Y4801702D01*
Y4810897D01*
X3372502Y4819778D01*
X3367905Y4827741D01*
X3361403Y4834243D01*
X3353440Y4838841D01*
X3344558Y4841221D01*
D02*
G37*
G36*
X2606846Y4785811D02*
X2597154D01*
X2587791Y4783302D01*
X2579398Y4778456D01*
X2572544Y4771602D01*
X2567698Y4763208D01*
X2565189Y4753846D01*
Y4744154D01*
X2567698Y4734792D01*
X2572544Y4726398D01*
X2579398Y4719544D01*
X2587791Y4714698D01*
X2597154Y4712189D01*
X2606846D01*
X2616209Y4714698D01*
X2624602Y4719544D01*
X2631456Y4726398D01*
X2636302Y4734792D01*
X2638811Y4744154D01*
Y4753846D01*
X2636302Y4763208D01*
X2631456Y4771602D01*
X2624602Y4778456D01*
X2616209Y4783302D01*
X2606846Y4785811D01*
D02*
G37*
G36*
X5966352Y4742283D02*
X5965630D01*
Y4703819D01*
X6004095D01*
Y4704541D01*
X6001132Y4715596D01*
X5995410Y4725507D01*
X5987318Y4733599D01*
X5977407Y4739321D01*
X5966352Y4742283D01*
D02*
G37*
G36*
X5955630D02*
X5954908D01*
X5943853Y4739321D01*
X5933942Y4733599D01*
X5925850Y4725507D01*
X5920127Y4715596D01*
X5917166Y4704541D01*
Y4703819D01*
X5955630D01*
Y4742283D01*
D02*
G37*
G36*
X5317897Y4731299D02*
X5312024D01*
X5306598Y4729051D01*
X5302444Y4724898D01*
X5300197Y4719472D01*
Y4713599D01*
X5302444Y4708172D01*
X5306598Y4704019D01*
X5312024Y4701772D01*
X5317897D01*
X5323324Y4704019D01*
X5327477Y4708172D01*
X5329724Y4713599D01*
Y4719472D01*
X5327477Y4724898D01*
X5323324Y4729051D01*
X5317897Y4731299D01*
D02*
G37*
G36*
X5773439Y4718661D02*
X5772717D01*
Y4680197D01*
X5811181D01*
Y4680919D01*
X5808219Y4691974D01*
X5802497Y4701885D01*
X5794404Y4709977D01*
X5784493Y4715699D01*
X5773439Y4718661D01*
D02*
G37*
G36*
X5762717D02*
X5761994D01*
X5750940Y4715699D01*
X5741029Y4709977D01*
X5732936Y4701885D01*
X5727214Y4691974D01*
X5724252Y4680919D01*
Y4680197D01*
X5762717D01*
Y4718661D01*
D02*
G37*
G36*
X1393886Y4770669D02*
X1381705D01*
X1369940Y4767517D01*
X1359391Y4761427D01*
X1350778Y4752814D01*
X1344688Y4742265D01*
X1341535Y4730500D01*
Y4718319D01*
X1344688Y4706554D01*
X1350778Y4696005D01*
X1359391Y4687392D01*
X1369940Y4681302D01*
X1381705Y4678150D01*
X1393886D01*
X1405651Y4681302D01*
X1416200Y4687392D01*
X1424812Y4696005D01*
X1430903Y4706554D01*
X1434055Y4718319D01*
Y4730500D01*
X1430903Y4742265D01*
X1424812Y4752814D01*
X1416200Y4761427D01*
X1405651Y4767517D01*
X1393886Y4770669D01*
D02*
G37*
G36*
X1177350D02*
X1165170D01*
X1153404Y4767517D01*
X1142856Y4761427D01*
X1134243Y4752814D01*
X1128152Y4742265D01*
X1125000Y4730500D01*
Y4718319D01*
X1128152Y4706554D01*
X1134243Y4696005D01*
X1142856Y4687392D01*
X1153404Y4681302D01*
X1165170Y4678150D01*
X1177350D01*
X1189116Y4681302D01*
X1199664Y4687392D01*
X1208277Y4696005D01*
X1214367Y4706554D01*
X1217520Y4718319D01*
Y4730500D01*
X1214367Y4742265D01*
X1208277Y4752814D01*
X1199664Y4761427D01*
X1189116Y4767517D01*
X1177350Y4770669D01*
D02*
G37*
G36*
X3344558Y4741221D02*
X3335363D01*
X3326481Y4738841D01*
X3318518Y4734243D01*
X3312017Y4727741D01*
X3307419Y4719778D01*
X3305039Y4710897D01*
Y4701702D01*
X3307419Y4692820D01*
X3312017Y4684857D01*
X3318518Y4678355D01*
X3326481Y4673758D01*
X3335363Y4671378D01*
X3344558D01*
X3353440Y4673758D01*
X3361403Y4678355D01*
X3367905Y4684857D01*
X3372502Y4692820D01*
X3374882Y4701702D01*
Y4710897D01*
X3372502Y4719778D01*
X3367905Y4727741D01*
X3361403Y4734243D01*
X3353440Y4738841D01*
X3344558Y4741221D01*
D02*
G37*
G36*
X6004095Y4693819D02*
X5965630D01*
Y4655354D01*
X5966352D01*
X5977407Y4658316D01*
X5987318Y4664039D01*
X5995410Y4672131D01*
X6001132Y4682042D01*
X6004095Y4693097D01*
Y4693819D01*
D02*
G37*
G36*
X5955630D02*
X5917166D01*
Y4693097D01*
X5920127Y4682042D01*
X5925850Y4672131D01*
X5933942Y4664039D01*
X5943853Y4658316D01*
X5954908Y4655354D01*
X5955630D01*
Y4693819D01*
D02*
G37*
G36*
X5811181Y4670197D02*
X5772717D01*
Y4631732D01*
X5773439D01*
X5784493Y4634694D01*
X5794404Y4640417D01*
X5802497Y4648509D01*
X5808219Y4658420D01*
X5811181Y4669475D01*
Y4670197D01*
D02*
G37*
G36*
X5762717D02*
X5724252D01*
Y4669475D01*
X5727214Y4658420D01*
X5732936Y4648509D01*
X5741029Y4640417D01*
X5750940Y4634694D01*
X5761994Y4631732D01*
X5762717D01*
Y4670197D01*
D02*
G37*
G36*
X3245227Y4646299D02*
X3244961D01*
Y4611299D01*
X3279961D01*
Y4611565D01*
X3277235Y4621739D01*
X3271969Y4630860D01*
X3264521Y4638307D01*
X3255400Y4643573D01*
X3245227Y4646299D01*
D02*
G37*
G36*
X3234961D02*
X3234695D01*
X3224521Y4643573D01*
X3215400Y4638307D01*
X3207953Y4630860D01*
X3202686Y4621739D01*
X3199961Y4611565D01*
Y4611299D01*
X3234961D01*
Y4646299D01*
D02*
G37*
G36*
X3344558Y4641221D02*
X3335363D01*
X3326481Y4638841D01*
X3318518Y4634243D01*
X3312017Y4627741D01*
X3307419Y4619778D01*
X3305039Y4610897D01*
Y4601702D01*
X3307419Y4592820D01*
X3312017Y4584857D01*
X3318518Y4578355D01*
X3326481Y4573758D01*
X3335363Y4571378D01*
X3344558D01*
X3353440Y4573758D01*
X3361403Y4578355D01*
X3367905Y4584857D01*
X3372502Y4592820D01*
X3374882Y4601702D01*
Y4610897D01*
X3372502Y4619778D01*
X3367905Y4627741D01*
X3361403Y4634243D01*
X3353440Y4638841D01*
X3344558Y4641221D01*
D02*
G37*
G36*
X3279961Y4601299D02*
X3244961D01*
Y4566299D01*
X3245227D01*
X3255400Y4569025D01*
X3264521Y4574291D01*
X3271969Y4581739D01*
X3277235Y4590860D01*
X3279961Y4601033D01*
Y4601299D01*
D02*
G37*
G36*
X3234961D02*
X3199961D01*
Y4601033D01*
X3202686Y4590860D01*
X3207953Y4581739D01*
X3215400Y4574291D01*
X3224521Y4569025D01*
X3234695Y4566299D01*
X3234961D01*
Y4601299D01*
D02*
G37*
G36*
X1178019Y4610394D02*
X1176260D01*
Y4564055D01*
X1222599D01*
Y4565814D01*
X1219100Y4578871D01*
X1212341Y4590578D01*
X1202783Y4600136D01*
X1191076Y4606895D01*
X1178019Y4610394D01*
D02*
G37*
G36*
X1166260D02*
X1164501D01*
X1151444Y4606895D01*
X1139737Y4600136D01*
X1130179Y4590578D01*
X1123420Y4578871D01*
X1119921Y4565814D01*
Y4564055D01*
X1166260D01*
Y4610394D01*
D02*
G37*
G36*
X3742110Y4552165D02*
X3736236D01*
X3730810Y4549918D01*
X3726657Y4545765D01*
X3724409Y4540338D01*
Y4534465D01*
X3726657Y4529039D01*
X3730810Y4524886D01*
X3736236Y4522638D01*
X3742110D01*
X3747536Y4524886D01*
X3751689Y4529039D01*
X3753937Y4534465D01*
Y4540338D01*
X3751689Y4545765D01*
X3747536Y4549918D01*
X3742110Y4552165D01*
D02*
G37*
G36*
X3245227Y4546299D02*
X3244961D01*
Y4511299D01*
X3279961D01*
Y4511565D01*
X3277235Y4521739D01*
X3271969Y4530860D01*
X3264521Y4538307D01*
X3255400Y4543573D01*
X3245227Y4546299D01*
D02*
G37*
G36*
X3234961D02*
X3234695D01*
X3224521Y4543573D01*
X3215400Y4538307D01*
X3207953Y4530860D01*
X3202686Y4521739D01*
X3199961Y4511565D01*
Y4511299D01*
X3234961D01*
Y4546299D01*
D02*
G37*
G36*
X1222599Y4554055D02*
X1176260D01*
Y4507717D01*
X1178019D01*
X1191076Y4511215D01*
X1202783Y4517974D01*
X1212341Y4527533D01*
X1219100Y4539239D01*
X1222599Y4552296D01*
Y4554055D01*
D02*
G37*
G36*
X1166260D02*
X1119921D01*
Y4552296D01*
X1123420Y4539239D01*
X1130179Y4527533D01*
X1139737Y4517974D01*
X1151444Y4511215D01*
X1164501Y4507717D01*
X1166260D01*
Y4554055D01*
D02*
G37*
G36*
X1393709Y4619095D02*
X1381882D01*
X1370283Y4616787D01*
X1359356Y4612261D01*
X1349522Y4605691D01*
X1341160Y4597328D01*
X1334589Y4587494D01*
X1330063Y4576568D01*
X1327756Y4564968D01*
Y4553142D01*
X1330063Y4541542D01*
X1334589Y4530616D01*
X1341160Y4520782D01*
X1349522Y4512419D01*
X1359356Y4505849D01*
X1370283Y4501323D01*
X1381882Y4499016D01*
X1393709D01*
X1405308Y4501323D01*
X1416235Y4505849D01*
X1426068Y4512419D01*
X1434431Y4520782D01*
X1441002Y4530616D01*
X1445527Y4541542D01*
X1447835Y4553142D01*
Y4564968D01*
X1445527Y4576568D01*
X1441002Y4587494D01*
X1434431Y4597328D01*
X1426068Y4605691D01*
X1416235Y4612261D01*
X1405308Y4616787D01*
X1393709Y4619095D01*
D02*
G37*
G36*
X3979937Y4526764D02*
X3974063D01*
X3968637Y4524516D01*
X3964484Y4520363D01*
X3962236Y4514937D01*
Y4509063D01*
X3964484Y4503637D01*
X3968637Y4499484D01*
X3974063Y4497236D01*
X3979937D01*
X3985363Y4499484D01*
X3989516Y4503637D01*
X3991764Y4509063D01*
Y4514937D01*
X3989516Y4520363D01*
X3985363Y4524516D01*
X3979937Y4526764D01*
D02*
G37*
G36*
X4094993Y4520993D02*
X4089119D01*
X4083693Y4518745D01*
X4079540Y4514592D01*
X4077292Y4509166D01*
Y4503293D01*
X4079540Y4497866D01*
X4083693Y4493713D01*
X4089119Y4491466D01*
X4094993D01*
X4100419Y4493713D01*
X4104572Y4497866D01*
X4106820Y4503293D01*
Y4509166D01*
X4104572Y4514592D01*
X4100419Y4518745D01*
X4094993Y4520993D01*
D02*
G37*
G36*
X3344558Y4541221D02*
X3335363D01*
X3326481Y4538841D01*
X3318518Y4534243D01*
X3312017Y4527741D01*
X3307419Y4519778D01*
X3305039Y4510897D01*
Y4501702D01*
X3307419Y4492820D01*
X3312017Y4484857D01*
X3318518Y4478355D01*
X3326481Y4473758D01*
X3335363Y4471378D01*
X3344558D01*
X3353440Y4473758D01*
X3361403Y4478355D01*
X3367905Y4484857D01*
X3372502Y4492820D01*
X3374882Y4501702D01*
Y4510897D01*
X3372502Y4519778D01*
X3367905Y4527741D01*
X3361403Y4534243D01*
X3353440Y4538841D01*
X3344558Y4541221D01*
D02*
G37*
G36*
X3279961Y4501299D02*
X3244961D01*
Y4466299D01*
X3245227D01*
X3255400Y4469025D01*
X3264521Y4474291D01*
X3271969Y4481739D01*
X3277235Y4490860D01*
X3279961Y4501033D01*
Y4501299D01*
D02*
G37*
G36*
X3234961D02*
X3199961D01*
Y4501033D01*
X3202686Y4490860D01*
X3207953Y4481739D01*
X3215400Y4474291D01*
X3224521Y4469025D01*
X3234695Y4466299D01*
X3234961D01*
Y4501299D01*
D02*
G37*
G36*
X3245227Y4446299D02*
X3244961D01*
Y4411299D01*
X3279961D01*
Y4411565D01*
X3277235Y4421739D01*
X3271969Y4430860D01*
X3264521Y4438307D01*
X3255400Y4443573D01*
X3245227Y4446299D01*
D02*
G37*
G36*
X3234961D02*
X3234695D01*
X3224521Y4443573D01*
X3215400Y4438307D01*
X3207953Y4430860D01*
X3202686Y4421739D01*
X3199961Y4411565D01*
Y4411299D01*
X3234961D01*
Y4446299D01*
D02*
G37*
G36*
X4191913Y4416339D02*
X4186040D01*
X4180613Y4414091D01*
X4176460Y4409938D01*
X4174213Y4404511D01*
Y4398638D01*
X4176460Y4393212D01*
X4180613Y4389059D01*
X4186040Y4386811D01*
X4191913D01*
X4197339Y4389059D01*
X4201493Y4393212D01*
X4203740Y4398638D01*
Y4404511D01*
X4201493Y4409938D01*
X4197339Y4414091D01*
X4191913Y4416339D01*
D02*
G37*
G36*
X4085614D02*
X4079740D01*
X4074314Y4414091D01*
X4070161Y4409938D01*
X4067913Y4404511D01*
Y4398638D01*
X4070161Y4393212D01*
X4074314Y4389059D01*
X4079740Y4386811D01*
X4085614D01*
X4091040Y4389059D01*
X4095193Y4393212D01*
X4097441Y4398638D01*
Y4404511D01*
X4095193Y4409938D01*
X4091040Y4414091D01*
X4085614Y4416339D01*
D02*
G37*
G36*
X3344558Y4441221D02*
X3335363D01*
X3326481Y4438841D01*
X3318518Y4434243D01*
X3312017Y4427741D01*
X3307419Y4419778D01*
X3305039Y4410897D01*
Y4401702D01*
X3307419Y4392820D01*
X3312017Y4384857D01*
X3318518Y4378355D01*
X3326481Y4373758D01*
X3335363Y4371378D01*
X3344558D01*
X3353440Y4373758D01*
X3361403Y4378355D01*
X3367905Y4384857D01*
X3372502Y4392820D01*
X3374882Y4401702D01*
Y4410897D01*
X3372502Y4419778D01*
X3367905Y4427741D01*
X3361403Y4434243D01*
X3353440Y4438841D01*
X3344558Y4441221D01*
D02*
G37*
G36*
X3279961Y4401299D02*
X3244961D01*
Y4366299D01*
X3245227D01*
X3255400Y4369025D01*
X3264521Y4374291D01*
X3271969Y4381739D01*
X3277235Y4390860D01*
X3279961Y4401033D01*
Y4401299D01*
D02*
G37*
G36*
X3234961D02*
X3199961D01*
Y4401033D01*
X3202686Y4390860D01*
X3207953Y4381739D01*
X3215400Y4374291D01*
X3224521Y4369025D01*
X3234695Y4366299D01*
X3234961D01*
Y4401299D01*
D02*
G37*
G36*
X5530496Y4353346D02*
X5524622D01*
X5519196Y4351099D01*
X5515043Y4346946D01*
X5512795Y4341519D01*
Y4335646D01*
X5515043Y4330220D01*
X5519196Y4326067D01*
X5524622Y4323819D01*
X5530496D01*
X5535922Y4326067D01*
X5540075Y4330220D01*
X5542323Y4335646D01*
Y4341519D01*
X5540075Y4346946D01*
X5535922Y4351099D01*
X5530496Y4353346D01*
D02*
G37*
G36*
X4325771D02*
X4319898D01*
X4314472Y4351099D01*
X4310319Y4346946D01*
X4308071Y4341519D01*
Y4335646D01*
X4310319Y4330220D01*
X4314472Y4326067D01*
X4319898Y4323819D01*
X4325771D01*
X4331198Y4326067D01*
X4335351Y4330220D01*
X4337598Y4335646D01*
Y4341519D01*
X4335351Y4346946D01*
X4331198Y4351099D01*
X4325771Y4353346D01*
D02*
G37*
G36*
X4085614D02*
X4079740D01*
X4074314Y4351099D01*
X4070161Y4346946D01*
X4067913Y4341519D01*
Y4335646D01*
X4070161Y4330220D01*
X4074314Y4326067D01*
X4079740Y4323819D01*
X4085614D01*
X4091040Y4326067D01*
X4095193Y4330220D01*
X4097441Y4335646D01*
Y4341519D01*
X4095193Y4346946D01*
X4091040Y4351099D01*
X4085614Y4353346D01*
D02*
G37*
G36*
X3443819Y4256063D02*
X3442060D01*
X3429003Y4252564D01*
X3417296Y4245806D01*
X3407738Y4236247D01*
X3402412Y4227022D01*
X3396645Y4227010D01*
X3396197Y4227786D01*
X3389204Y4234779D01*
X3380639Y4239724D01*
X3371142Y4242269D01*
Y4204724D01*
Y4167180D01*
X3380639Y4169725D01*
X3389204Y4174670D01*
X3396197Y4181663D01*
X3396645Y4182439D01*
X3402412Y4182427D01*
X3407738Y4173202D01*
X3417296Y4163643D01*
X3429003Y4156884D01*
X3442060Y4153386D01*
X3443819D01*
Y4204724D01*
Y4256063D01*
D02*
G37*
G36*
X5573000Y4231341D02*
Y4218000D01*
X5586341D01*
X5583987Y4223682D01*
X5578682Y4228987D01*
X5573000Y4231341D01*
D02*
G37*
G36*
X5563000D02*
X5557318Y4228987D01*
X5552013Y4223682D01*
X5549659Y4218000D01*
X5563000D01*
Y4231341D01*
D02*
G37*
G36*
X3455578Y4256063D02*
X3453819D01*
Y4209724D01*
X3500157D01*
Y4211483D01*
X3496659Y4224540D01*
X3489900Y4236247D01*
X3480341Y4245806D01*
X3468635Y4252564D01*
X3455578Y4256063D01*
D02*
G37*
G36*
X3361142Y4242269D02*
X3351645Y4239724D01*
X3343080Y4234779D01*
X3336087Y4227786D01*
X3331142Y4219222D01*
X3328598Y4209724D01*
X3361142D01*
Y4242269D01*
D02*
G37*
G36*
X3120984Y4256063D02*
X3119225D01*
X3106168Y4252564D01*
X3094462Y4245806D01*
X3084903Y4236247D01*
X3078144Y4224540D01*
X3074646Y4211483D01*
Y4209724D01*
X3120984D01*
Y4256063D01*
D02*
G37*
G36*
X5586341Y4208000D02*
X5573000D01*
Y4194659D01*
X5578682Y4197013D01*
X5583987Y4202318D01*
X5586341Y4208000D01*
D02*
G37*
G36*
X5563000D02*
X5549659D01*
X5552013Y4202318D01*
X5557318Y4197013D01*
X5563000Y4194659D01*
Y4208000D01*
D02*
G37*
G36*
X3291678Y4237205D02*
X3283126D01*
X3274865Y4234991D01*
X3267458Y4230715D01*
X3261411Y4224668D01*
X3257135Y4217261D01*
X3254921Y4209001D01*
Y4200448D01*
X3257135Y4192188D01*
X3261411Y4184781D01*
X3267458Y4178734D01*
X3274865Y4174458D01*
X3283126Y4172244D01*
X3291678D01*
X3299939Y4174458D01*
X3307345Y4178734D01*
X3313392Y4184781D01*
X3317668Y4192188D01*
X3319882Y4200448D01*
Y4209001D01*
X3317668Y4217261D01*
X3313392Y4224668D01*
X3307345Y4230715D01*
X3299939Y4234991D01*
X3291678Y4237205D01*
D02*
G37*
G36*
X3132743Y4256063D02*
X3130984D01*
Y4204724D01*
Y4153386D01*
X3132743D01*
X3145800Y4156884D01*
X3157507Y4163643D01*
X3167065Y4173202D01*
X3173824Y4184908D01*
X3174775Y4188457D01*
X3180141Y4189163D01*
X3182671Y4184781D01*
X3188718Y4178734D01*
X3196124Y4174458D01*
X3204385Y4172244D01*
X3212938D01*
X3221198Y4174458D01*
X3228605Y4178734D01*
X3234652Y4184781D01*
X3238928Y4192188D01*
X3241142Y4200448D01*
Y4209001D01*
X3238928Y4217261D01*
X3234652Y4224668D01*
X3228605Y4230715D01*
X3221198Y4234991D01*
X3212938Y4237205D01*
X3204385D01*
X3196124Y4234991D01*
X3188718Y4230715D01*
X3182671Y4224668D01*
X3180141Y4220286D01*
X3174775Y4220992D01*
X3173824Y4224540D01*
X3167065Y4236247D01*
X3157507Y4245806D01*
X3145800Y4252564D01*
X3132743Y4256063D01*
D02*
G37*
G36*
X3361142Y4199724D02*
X3328598D01*
X3331142Y4190227D01*
X3336087Y4181663D01*
X3343080Y4174670D01*
X3351645Y4169725D01*
X3361142Y4167180D01*
Y4199724D01*
D02*
G37*
G36*
X3500157D02*
X3453819D01*
Y4153386D01*
X3455578D01*
X3468635Y4156884D01*
X3480341Y4163643D01*
X3489900Y4173202D01*
X3496659Y4184908D01*
X3500157Y4197966D01*
Y4199724D01*
D02*
G37*
G36*
X3120984D02*
X3074646D01*
Y4197966D01*
X3078144Y4184908D01*
X3084903Y4173202D01*
X3094462Y4163643D01*
X3106168Y4156884D01*
X3119225Y4153386D01*
X3120984D01*
Y4199724D01*
D02*
G37*
G36*
X5773439Y4147795D02*
X5772717D01*
Y4109331D01*
X5811181D01*
Y4110053D01*
X5808219Y4121107D01*
X5802497Y4131019D01*
X5794404Y4139111D01*
X5784493Y4144833D01*
X5773439Y4147795D01*
D02*
G37*
G36*
X5762717D02*
X5761994D01*
X5750940Y4144833D01*
X5741029Y4139111D01*
X5732936Y4131019D01*
X5727214Y4121107D01*
X5724252Y4110053D01*
Y4109331D01*
X5762717D01*
Y4147795D01*
D02*
G37*
G36*
X5966352Y4124173D02*
X5965630D01*
Y4085709D01*
X6004095D01*
Y4086431D01*
X6001132Y4097485D01*
X5995410Y4107397D01*
X5987318Y4115489D01*
X5977407Y4121211D01*
X5966352Y4124173D01*
D02*
G37*
G36*
X5955630D02*
X5954908D01*
X5943853Y4121211D01*
X5933942Y4115489D01*
X5925850Y4107397D01*
X5920127Y4097485D01*
X5917166Y4086431D01*
Y4085709D01*
X5955630D01*
Y4124173D01*
D02*
G37*
G36*
X5811181Y4099331D02*
X5772717D01*
Y4060866D01*
X5773439D01*
X5784493Y4063828D01*
X5794404Y4069550D01*
X5802497Y4077643D01*
X5808219Y4087554D01*
X5811181Y4098609D01*
Y4099331D01*
D02*
G37*
G36*
X5762717D02*
X5724252D01*
Y4098609D01*
X5727214Y4087554D01*
X5732936Y4077643D01*
X5741029Y4069550D01*
X5750940Y4063828D01*
X5761994Y4060866D01*
X5762717D01*
Y4099331D01*
D02*
G37*
G36*
X6004095Y4075709D02*
X5965630D01*
Y4037244D01*
X5966352D01*
X5977407Y4040206D01*
X5987318Y4045928D01*
X5995410Y4054021D01*
X6001132Y4063932D01*
X6004095Y4074986D01*
Y4075709D01*
D02*
G37*
G36*
X5955630D02*
X5917166D01*
Y4074986D01*
X5920127Y4063932D01*
X5925850Y4054021D01*
X5933942Y4045928D01*
X5943853Y4040206D01*
X5954908Y4037244D01*
X5955630D01*
Y4075709D01*
D02*
G37*
G36*
X3574803Y4385132D02*
X3573349Y4384842D01*
X3571866D01*
X3570497Y4384275D01*
X3569043Y4383986D01*
X3567810Y4383162D01*
X3566440Y4382595D01*
X3565392Y4381547D01*
X3564159Y4380723D01*
X3563335Y4379490D01*
X3562287Y4378442D01*
X3561720Y4377072D01*
X3560896Y4375839D01*
X3560607Y4374385D01*
X3560039Y4373015D01*
Y4371533D01*
X3559750Y4370079D01*
Y4074803D01*
X3560896Y4069043D01*
X3564159Y4064159D01*
X3607466Y4020852D01*
X3612350Y4017589D01*
X3618110Y4016443D01*
X4889764D01*
X4891218Y4016732D01*
X4892700D01*
X4894070Y4017300D01*
X4895524Y4017589D01*
X4896757Y4018413D01*
X4898127Y4018980D01*
X4899175Y4020028D01*
X4900408Y4020852D01*
X4901232Y4022085D01*
X4902280Y4023133D01*
X4902847Y4024503D01*
X4903671Y4025736D01*
X4903960Y4027190D01*
X4904528Y4028559D01*
Y4030042D01*
X4904817Y4031496D01*
X4904528Y4032950D01*
Y4034433D01*
X4903960Y4035802D01*
X4903671Y4037257D01*
X4902847Y4038489D01*
X4902280Y4039859D01*
X4901232Y4040907D01*
X4900408Y4042140D01*
X4899175Y4042964D01*
X4898127Y4044012D01*
X4896757Y4044579D01*
X4895524Y4045403D01*
X4894070Y4045693D01*
X4892700Y4046260D01*
X4891218D01*
X4889764Y4046549D01*
X3624345D01*
X3589856Y4081038D01*
Y4370079D01*
X3589567Y4371533D01*
Y4373015D01*
X3588999Y4374385D01*
X3588710Y4375839D01*
X3587887Y4377072D01*
X3587319Y4378442D01*
X3586271Y4379490D01*
X3585447Y4380723D01*
X3584214Y4381547D01*
X3583166Y4382595D01*
X3581796Y4383162D01*
X3580564Y4383986D01*
X3579110Y4384275D01*
X3577740Y4384842D01*
X3576257D01*
X3574803Y4385132D01*
D02*
G37*
G36*
X3230111Y4005512D02*
X3218708D01*
X3207693Y4002560D01*
X3197818Y3996859D01*
X3189755Y3988796D01*
X3184054Y3978921D01*
X3181102Y3967906D01*
Y3956503D01*
X3184054Y3945489D01*
X3189755Y3935614D01*
X3197818Y3927550D01*
X3207693Y3921849D01*
X3218708Y3918898D01*
X3230111D01*
X3241125Y3921849D01*
X3251001Y3927550D01*
X3259064Y3935614D01*
X3264765Y3945489D01*
X3267716Y3956503D01*
Y3967906D01*
X3264765Y3978921D01*
X3259064Y3988796D01*
X3251001Y3996859D01*
X3241125Y4002560D01*
X3230111Y4005512D01*
D02*
G37*
G36*
X2486017D02*
X2474613D01*
X2463599Y4002560D01*
X2453724Y3996859D01*
X2445661Y3988796D01*
X2439959Y3978921D01*
X2437008Y3967906D01*
Y3956503D01*
X2439959Y3945489D01*
X2445661Y3935614D01*
X2453724Y3927550D01*
X2463599Y3921849D01*
X2474613Y3918898D01*
X2486017D01*
X2497031Y3921849D01*
X2506906Y3927550D01*
X2514969Y3935614D01*
X2520671Y3945489D01*
X2523622Y3956503D01*
Y3967906D01*
X2520671Y3978921D01*
X2514969Y3988796D01*
X2506906Y3996859D01*
X2497031Y4002560D01*
X2486017Y4005512D01*
D02*
G37*
G36*
X3884435Y4682087D02*
X3879345D01*
X3874642Y4680139D01*
X3873586Y4679083D01*
X3873306Y4678986D01*
X3873219Y4678968D01*
X3873062Y4678954D01*
X3873004Y4678923D01*
X3872934Y4678909D01*
X3872816Y4678828D01*
X3872795Y4678820D01*
X3872638Y4678771D01*
X3872372Y4678711D01*
X3872068Y4678661D01*
X3870924Y4678567D01*
X3870248Y4678554D01*
X3869718Y4678323D01*
X3862205D01*
X3858748Y4677636D01*
X3855818Y4675678D01*
X3847944Y4667804D01*
X3845986Y4664874D01*
X3845299Y4661417D01*
Y4564669D01*
X3845986Y4561213D01*
X3847944Y4558283D01*
X3863613Y4542614D01*
X3863672Y4542015D01*
X3860611Y4538953D01*
X3858663Y4534250D01*
Y4529160D01*
X3860611Y4524457D01*
X3864210Y4520858D01*
X3868913Y4518910D01*
X3874003D01*
X3878706Y4520858D01*
X3882305Y4524457D01*
X3884253Y4529160D01*
Y4534250D01*
X3883956Y4534968D01*
X3887297Y4539968D01*
X5376393D01*
X5414968Y4501393D01*
Y3916558D01*
X5409968Y3915358D01*
X5404845Y3925412D01*
X5392993Y3941726D01*
X5378734Y3955985D01*
X5362420Y3967837D01*
X5344453Y3976992D01*
X5325275Y3983223D01*
X5305358Y3986378D01*
X5300275D01*
Y3858268D01*
Y3730157D01*
X5305358D01*
X5325275Y3733312D01*
X5344453Y3739543D01*
X5362420Y3748698D01*
X5378734Y3760551D01*
X5392993Y3774809D01*
X5404845Y3791123D01*
X5409968Y3801178D01*
X5414968Y3799977D01*
Y3635055D01*
X5415656Y3631599D01*
X5417614Y3628669D01*
X5433775Y3612508D01*
X5433964Y3611996D01*
X5434953Y3610927D01*
X5435211Y3610608D01*
X5435429Y3610305D01*
X5435573Y3610075D01*
X5435651Y3609929D01*
X5435659Y3609909D01*
X5435686Y3609768D01*
X5435725Y3609709D01*
X5435744Y3609647D01*
X5435844Y3609527D01*
X5435893Y3609452D01*
X5436024Y3609184D01*
Y3607691D01*
X5437971Y3602988D01*
X5441571Y3599389D01*
X5446274Y3597441D01*
X5451364D01*
X5456067Y3599389D01*
X5459666Y3602988D01*
X5461614Y3607691D01*
Y3612781D01*
X5459666Y3617484D01*
X5456067Y3621084D01*
X5451364Y3623032D01*
X5449872D01*
X5449603Y3623162D01*
X5449528Y3623211D01*
X5449408Y3623311D01*
X5449347Y3623330D01*
X5449287Y3623369D01*
X5449146Y3623396D01*
X5449127Y3623404D01*
X5448980Y3623482D01*
X5448751Y3623626D01*
X5448499Y3623807D01*
X5447625Y3624548D01*
X5447136Y3625019D01*
X5446598Y3625230D01*
X5433032Y3638796D01*
Y3708147D01*
X5437685Y3709221D01*
X5438032Y3709227D01*
X5441571Y3705688D01*
X5446274Y3703740D01*
X5451364D01*
X5456067Y3705688D01*
X5459666Y3709287D01*
X5461614Y3713990D01*
Y3719081D01*
X5459666Y3723783D01*
X5456067Y3727383D01*
X5451364Y3729331D01*
X5446274D01*
X5441571Y3727383D01*
X5438032Y3723844D01*
X5437685Y3723850D01*
X5433032Y3724924D01*
Y3743580D01*
X5437685Y3744654D01*
X5438032Y3744660D01*
X5441571Y3741121D01*
X5446274Y3739173D01*
X5451364D01*
X5456067Y3741121D01*
X5459666Y3744720D01*
X5461614Y3749423D01*
Y3754514D01*
X5459666Y3759216D01*
X5458610Y3760272D01*
X5458514Y3760552D01*
X5458495Y3760639D01*
X5458481Y3760796D01*
X5458451Y3760854D01*
X5458436Y3760924D01*
X5458356Y3761043D01*
X5458347Y3761063D01*
X5458299Y3761221D01*
X5458238Y3761486D01*
X5458189Y3761790D01*
X5458094Y3762934D01*
X5458082Y3763611D01*
X5457851Y3764141D01*
Y4527559D01*
X5457163Y4531015D01*
X5455205Y4533945D01*
X5412881Y4576270D01*
X5409951Y4578228D01*
X5406495Y4578915D01*
X3885892D01*
X3885396Y4579143D01*
X3883940Y4579199D01*
X3883533Y4579243D01*
X3883165Y4579303D01*
X3882900Y4579364D01*
X3882742Y4579412D01*
X3882722Y4579420D01*
X3882603Y4579501D01*
X3882533Y4579515D01*
X3882475Y4579546D01*
X3882318Y4579560D01*
X3882231Y4579578D01*
X3881951Y4579675D01*
X3880896Y4580731D01*
X3880749Y4581125D01*
X3880431Y4586335D01*
X3882847Y4588752D01*
X3884795Y4593455D01*
Y4598545D01*
X3882847Y4603248D01*
X3882362Y4603734D01*
X3880313Y4608017D01*
X3882362Y4610266D01*
X3883847Y4611752D01*
X3885795Y4616455D01*
Y4621545D01*
X3883847Y4626248D01*
X3881057Y4629038D01*
X3880312Y4630811D01*
X3880600Y4635114D01*
X3882724Y4637238D01*
X3884672Y4641941D01*
Y4647031D01*
X3882724Y4651734D01*
X3883379Y4653557D01*
X3884858Y4656671D01*
X3889138Y4658444D01*
X3892737Y4662043D01*
X3894685Y4666746D01*
Y4671836D01*
X3892737Y4676539D01*
X3889138Y4680139D01*
X3884435Y4682087D01*
D02*
G37*
G36*
X3229872Y3903701D02*
X3229409D01*
Y3867205D01*
X3265905D01*
Y3867668D01*
X3263077Y3878222D01*
X3257615Y3887684D01*
X3249889Y3895410D01*
X3240426Y3900873D01*
X3229872Y3903701D01*
D02*
G37*
G36*
X2485778D02*
X2485315D01*
Y3867205D01*
X2521811D01*
Y3867668D01*
X2518983Y3878222D01*
X2513520Y3887684D01*
X2505794Y3895410D01*
X2496332Y3900873D01*
X2485778Y3903701D01*
D02*
G37*
G36*
X3219409D02*
X3218946D01*
X3208392Y3900873D01*
X3198930Y3895410D01*
X3191204Y3887684D01*
X3185741Y3878222D01*
X3182913Y3867668D01*
Y3867205D01*
X3219409D01*
Y3903701D01*
D02*
G37*
G36*
X2475315D02*
X2474852D01*
X2464298Y3900873D01*
X2454836Y3895410D01*
X2447110Y3887684D01*
X2441647Y3878222D01*
X2438819Y3867668D01*
Y3867205D01*
X2475315D01*
Y3903701D01*
D02*
G37*
G36*
X5290275Y3986378D02*
X5285193D01*
X5265276Y3983223D01*
X5246098Y3976992D01*
X5228131Y3967837D01*
X5211817Y3955985D01*
X5197559Y3941726D01*
X5185706Y3925412D01*
X5176551Y3907445D01*
X5170320Y3888267D01*
X5167165Y3868350D01*
Y3863268D01*
X5290275D01*
Y3986378D01*
D02*
G37*
G36*
X4006146D02*
X4001063D01*
Y3863267D01*
X4124173D01*
Y3868350D01*
X4121019Y3888267D01*
X4114787Y3907445D01*
X4105633Y3925412D01*
X4093780Y3941726D01*
X4079521Y3955985D01*
X4063207Y3967837D01*
X4045240Y3976992D01*
X4026062Y3983223D01*
X4006146Y3986378D01*
D02*
G37*
G36*
X3991063D02*
X3985981D01*
X3966064Y3983223D01*
X3946886Y3976992D01*
X3928919Y3967837D01*
X3912605Y3955985D01*
X3898346Y3941726D01*
X3886493Y3925412D01*
X3877339Y3907445D01*
X3871107Y3888267D01*
X3867953Y3868350D01*
Y3863267D01*
X3991063D01*
Y3986378D01*
D02*
G37*
G36*
X3265905Y3857205D02*
X3229409D01*
Y3820709D01*
X3229872D01*
X3240426Y3823537D01*
X3249889Y3829000D01*
X3257615Y3836726D01*
X3263077Y3846188D01*
X3265905Y3856742D01*
Y3857205D01*
D02*
G37*
G36*
X3219409D02*
X3182913D01*
Y3856742D01*
X3185741Y3846188D01*
X3191204Y3836726D01*
X3198930Y3829000D01*
X3208392Y3823537D01*
X3218946Y3820709D01*
X3219409D01*
Y3857205D01*
D02*
G37*
G36*
X2521811D02*
X2485315D01*
Y3820709D01*
X2485778D01*
X2496332Y3823537D01*
X2505794Y3829000D01*
X2513520Y3836726D01*
X2518983Y3846188D01*
X2521811Y3856742D01*
Y3857205D01*
D02*
G37*
G36*
X2475315D02*
X2438819D01*
Y3856742D01*
X2441647Y3846188D01*
X2447110Y3836726D01*
X2454836Y3829000D01*
X2464298Y3823537D01*
X2474852Y3820709D01*
X2475315D01*
Y3857205D01*
D02*
G37*
G36*
X5290275Y3853268D02*
X5167165D01*
Y3848185D01*
X5170320Y3828269D01*
X5176551Y3809090D01*
X5185706Y3791123D01*
X5197559Y3774809D01*
X5211817Y3760551D01*
X5228131Y3748698D01*
X5246098Y3739543D01*
X5265276Y3733312D01*
X5285193Y3730157D01*
X5290275D01*
Y3853268D01*
D02*
G37*
G36*
X4124173Y3853267D02*
X4001063D01*
Y3730157D01*
X4006146D01*
X4026062Y3733312D01*
X4045240Y3739543D01*
X4063207Y3748698D01*
X4079521Y3760551D01*
X4093780Y3774809D01*
X4105633Y3791123D01*
X4114787Y3809090D01*
X4121019Y3828269D01*
X4124173Y3848185D01*
Y3853267D01*
D02*
G37*
G36*
X3991063D02*
X3867953D01*
Y3848185D01*
X3871107Y3828269D01*
X3877339Y3809090D01*
X3886493Y3791123D01*
X3898346Y3774809D01*
X3912605Y3760551D01*
X3928919Y3748698D01*
X3946886Y3739543D01*
X3966064Y3733312D01*
X3985981Y3730157D01*
X3991063D01*
Y3853267D01*
D02*
G37*
G36*
X3229204Y3798622D02*
X3219615D01*
X3210353Y3796140D01*
X3202049Y3791346D01*
X3195268Y3784565D01*
X3190474Y3776261D01*
X3187992Y3766999D01*
Y3757410D01*
X3190474Y3748148D01*
X3195268Y3739844D01*
X3202049Y3733064D01*
X3210353Y3728269D01*
X3219615Y3725787D01*
X3229204D01*
X3238466Y3728269D01*
X3246770Y3733064D01*
X3253550Y3739844D01*
X3258345Y3748148D01*
X3260827Y3757410D01*
Y3766999D01*
X3258345Y3776261D01*
X3253550Y3784565D01*
X3246770Y3791346D01*
X3238466Y3796140D01*
X3229204Y3798622D01*
D02*
G37*
G36*
X2485109D02*
X2475521D01*
X2466258Y3796140D01*
X2457954Y3791346D01*
X2451174Y3784565D01*
X2446380Y3776261D01*
X2443898Y3766999D01*
Y3757410D01*
X2446380Y3748148D01*
X2451174Y3739844D01*
X2457954Y3733064D01*
X2466258Y3728269D01*
X2475521Y3725787D01*
X2485109D01*
X2494372Y3728269D01*
X2502676Y3733064D01*
X2509456Y3739844D01*
X2514251Y3748148D01*
X2516732Y3757410D01*
Y3766999D01*
X2514251Y3776261D01*
X2509456Y3784565D01*
X2502676Y3791346D01*
X2494372Y3796140D01*
X2485109Y3798622D01*
D02*
G37*
G36*
X5069866Y3680118D02*
X5063992D01*
X5058566Y3677870D01*
X5054413Y3673717D01*
X5052165Y3668291D01*
Y3662418D01*
X5054413Y3656991D01*
X5058566Y3652838D01*
X5063992Y3650590D01*
X5069866D01*
X5075292Y3652838D01*
X5079445Y3656991D01*
X5081693Y3662418D01*
Y3668291D01*
X5079445Y3673717D01*
X5075292Y3677870D01*
X5069866Y3680118D01*
D02*
G37*
G36*
X5451364Y3552165D02*
X5446274D01*
X5441571Y3550218D01*
X5437971Y3546618D01*
X5436024Y3541915D01*
Y3536825D01*
X5437971Y3532122D01*
X5441571Y3528523D01*
X5446274Y3526575D01*
X5451364D01*
X5456067Y3528523D01*
X5459666Y3532122D01*
X5461614Y3536825D01*
Y3541915D01*
X5459666Y3546618D01*
X5456067Y3550218D01*
X5451364Y3552165D01*
D02*
G37*
G36*
X1565201Y3632047D02*
X1560118D01*
Y3508937D01*
X1683228D01*
Y3514019D01*
X1680074Y3533936D01*
X1673842Y3553114D01*
X1664688Y3571081D01*
X1652835Y3587395D01*
X1638576Y3601654D01*
X1622263Y3613507D01*
X1604295Y3622661D01*
X1585117Y3628893D01*
X1565201Y3632047D01*
D02*
G37*
G36*
X1550118D02*
X1545036D01*
X1525119Y3628893D01*
X1505941Y3622661D01*
X1487974Y3613507D01*
X1471660Y3601654D01*
X1457401Y3587395D01*
X1445549Y3571081D01*
X1436394Y3553114D01*
X1430162Y3533936D01*
X1427008Y3514019D01*
Y3508937D01*
X1550118D01*
Y3632047D01*
D02*
G37*
G36*
X2470712D02*
X2465630D01*
Y3508937D01*
X2588740D01*
Y3514019D01*
X2585586Y3533936D01*
X2579354Y3553114D01*
X2570200Y3571081D01*
X2558347Y3587395D01*
X2544088Y3601654D01*
X2527774Y3613507D01*
X2509807Y3622661D01*
X2490629Y3628893D01*
X2470712Y3632047D01*
D02*
G37*
G36*
X2455630D02*
X2450547D01*
X2430631Y3628893D01*
X2411453Y3622661D01*
X2393485Y3613507D01*
X2377172Y3601654D01*
X2362913Y3587395D01*
X2351060Y3571081D01*
X2341906Y3553114D01*
X2335674Y3533936D01*
X2332520Y3514019D01*
Y3508937D01*
X2455630D01*
Y3632047D01*
D02*
G37*
G36*
X5451364Y3516732D02*
X5446274D01*
X5441571Y3514784D01*
X5437971Y3511185D01*
X5436024Y3506482D01*
Y3501392D01*
X5437971Y3496689D01*
X5441571Y3493090D01*
X5446274Y3491142D01*
X5451364D01*
X5456067Y3493090D01*
X5459666Y3496689D01*
X5461614Y3501392D01*
Y3506482D01*
X5459666Y3511185D01*
X5456067Y3514784D01*
X5451364Y3516732D01*
D02*
G37*
G36*
X2588740Y3498937D02*
X2465630D01*
Y3375827D01*
X2470712D01*
X2490629Y3378981D01*
X2509807Y3385213D01*
X2527774Y3394367D01*
X2544088Y3406220D01*
X2558347Y3420479D01*
X2570200Y3436793D01*
X2579354Y3454760D01*
X2585586Y3473938D01*
X2588740Y3493854D01*
Y3498937D01*
D02*
G37*
G36*
X2455630D02*
X2332520D01*
Y3493854D01*
X2335674Y3473938D01*
X2341906Y3454760D01*
X2351060Y3436793D01*
X2362913Y3420479D01*
X2377172Y3406220D01*
X2393485Y3394367D01*
X2411453Y3385213D01*
X2430631Y3378981D01*
X2450547Y3375827D01*
X2455630D01*
Y3498937D01*
D02*
G37*
G36*
X1683228Y3498937D02*
X1560118D01*
Y3375827D01*
X1565201D01*
X1585117Y3378981D01*
X1604295Y3385213D01*
X1622263Y3394367D01*
X1638576Y3406220D01*
X1652835Y3420479D01*
X1664688Y3436793D01*
X1673842Y3454760D01*
X1680074Y3473938D01*
X1683228Y3493854D01*
Y3498937D01*
D02*
G37*
G36*
X1550118D02*
X1427008D01*
Y3493854D01*
X1430162Y3473938D01*
X1436394Y3454760D01*
X1445549Y3436793D01*
X1457401Y3420479D01*
X1471660Y3406220D01*
X1487974Y3394367D01*
X1505941Y3385213D01*
X1525119Y3378981D01*
X1545036Y3375827D01*
X1550118D01*
Y3498937D01*
D02*
G37*
G36*
X6074803Y3902965D02*
X5484252D01*
X5480485Y3901404D01*
X5478925Y3897638D01*
Y3787402D01*
X5480485Y3783635D01*
X5484252Y3782075D01*
X5526169D01*
Y3409449D01*
X5527729Y3405682D01*
X5531496Y3404122D01*
X5553728D01*
Y3362205D01*
X5555288Y3358438D01*
X5559055Y3356878D01*
X5736220D01*
X5739987Y3358438D01*
X5741547Y3362205D01*
Y3411996D01*
X6074803D01*
X6078570Y3413556D01*
X6080130Y3417323D01*
Y3897638D01*
X6078570Y3901404D01*
X6074803Y3902965D01*
D02*
G37*
G36*
X2517604Y3363386D02*
X2504128D01*
X2491111Y3359898D01*
X2479440Y3353160D01*
X2469911Y3343631D01*
X2463173Y3331960D01*
X2460157Y3320706D01*
X2455157Y3321365D01*
Y3356496D01*
X2366575D01*
Y3267913D01*
X2455157D01*
Y3303045D01*
X2460157Y3303703D01*
X2463173Y3292450D01*
X2469911Y3280779D01*
X2479440Y3271250D01*
X2490445Y3264896D01*
X2490804Y3262205D01*
X2490445Y3259514D01*
X2479440Y3253160D01*
X2469911Y3243631D01*
X2463173Y3231960D01*
X2461128Y3224329D01*
X2455172Y3221420D01*
X2454133Y3221860D01*
X2452139Y3229300D01*
X2446308Y3239400D01*
X2438062Y3247647D01*
X2427962Y3253478D01*
X2416697Y3256496D01*
X2405035D01*
X2393770Y3253478D01*
X2383671Y3247647D01*
X2375424Y3239400D01*
X2369593Y3229300D01*
X2366575Y3218036D01*
Y3206374D01*
X2369593Y3195109D01*
X2375424Y3185009D01*
X2383671Y3176763D01*
X2393770Y3170932D01*
X2405035Y3167913D01*
X2416697D01*
X2427962Y3170932D01*
X2438062Y3176763D01*
X2446308Y3185009D01*
X2452139Y3195109D01*
X2454133Y3202549D01*
X2455172Y3202989D01*
X2461128Y3200080D01*
X2463173Y3192450D01*
X2469911Y3180779D01*
X2479440Y3171250D01*
X2491111Y3164512D01*
X2493889Y3163767D01*
Y3158767D01*
X2491810Y3158210D01*
X2480552Y3151711D01*
X2471360Y3142519D01*
X2464860Y3131261D01*
X2461496Y3118704D01*
Y3117205D01*
X2510866D01*
X2560236D01*
Y3118704D01*
X2556872Y3131261D01*
X2550372Y3142519D01*
X2541180Y3151711D01*
X2529922Y3158210D01*
X2527844Y3158767D01*
Y3163767D01*
X2530621Y3164512D01*
X2542292Y3171250D01*
X2551821Y3180779D01*
X2558559Y3192450D01*
X2562047Y3205467D01*
Y3218943D01*
X2558559Y3231960D01*
X2551821Y3243631D01*
X2542292Y3253160D01*
X2531287Y3259514D01*
X2530929Y3262205D01*
X2531287Y3264896D01*
X2542292Y3271250D01*
X2546411Y3275368D01*
X2547278Y3275916D01*
X2549709Y3278227D01*
X2551863Y3279990D01*
X2554049Y3281511D01*
X2556273Y3282805D01*
X2558550Y3283889D01*
X2560897Y3284773D01*
X2563333Y3285464D01*
X2565879Y3285964D01*
X2568553Y3286270D01*
X2571814Y3286391D01*
X2571824Y3286393D01*
X4424104D01*
X4481749Y3228749D01*
X4487094Y3224647D01*
X4493319Y3222068D01*
X4500000Y3221189D01*
X4874714D01*
X4880843Y3217650D01*
X4888854Y3215504D01*
X4897146D01*
X4905157Y3217650D01*
X4911286Y3221189D01*
X5996309D01*
X6030189Y3187309D01*
Y2753691D01*
X5865309Y2588811D01*
X5531000D01*
X5524319Y2587932D01*
X5518094Y2585353D01*
X5512749Y2581251D01*
X5508647Y2575906D01*
X5506068Y2569680D01*
X5505189Y2563000D01*
X5506068Y2556320D01*
X5508647Y2550094D01*
X5512749Y2544749D01*
X5518094Y2540647D01*
X5524319Y2538068D01*
X5531000Y2537189D01*
X5876000D01*
X5882681Y2538068D01*
X5888906Y2540647D01*
X5894251Y2544749D01*
X6074251Y2724749D01*
X6078353Y2730094D01*
X6080932Y2736320D01*
X6081811Y2743000D01*
Y3198000D01*
X6080932Y3204680D01*
X6078353Y3210906D01*
X6074251Y3216251D01*
X6025251Y3265251D01*
X6019906Y3269353D01*
X6013681Y3271932D01*
X6007000Y3272811D01*
X4911286D01*
X4905157Y3276350D01*
X4897146Y3278496D01*
X4888854D01*
X4880843Y3276350D01*
X4874714Y3272811D01*
X4510691D01*
X4453047Y3330456D01*
X4447701Y3334558D01*
X4441476Y3337137D01*
X4434795Y3338016D01*
X2571824D01*
X2571814Y3338018D01*
X2568554Y3338139D01*
X2565879Y3338445D01*
X2563333Y3338945D01*
X2560897Y3339636D01*
X2558550Y3340520D01*
X2556273Y3341604D01*
X2554049Y3342899D01*
X2551863Y3344420D01*
X2549709Y3346182D01*
X2547278Y3348493D01*
X2546411Y3349041D01*
X2542292Y3353160D01*
X2530621Y3359898D01*
X2517604Y3363386D01*
D02*
G37*
G36*
X5333645Y3144685D02*
X5327772D01*
X5322346Y3142437D01*
X5321005Y3141097D01*
X5320452Y3140907D01*
X5320310Y3140879D01*
X5320247Y3140837D01*
X5320155Y3140805D01*
X5320046Y3140708D01*
X5319879Y3140643D01*
X5319582Y3140555D01*
X5319157Y3140461D01*
X5318675Y3140385D01*
X5317132Y3140263D01*
X5316231Y3140247D01*
X5315748Y3140037D01*
X5182921D01*
X5179050Y3139267D01*
X5175768Y3137074D01*
X4405810Y2367116D01*
X4166719D01*
X4164648Y2372116D01*
X4166059Y2373527D01*
X4168307Y2378953D01*
Y2384827D01*
X4166059Y2390253D01*
X4161906Y2394406D01*
X4156480Y2396654D01*
X4150607D01*
X4145180Y2394406D01*
X4141027Y2390253D01*
X4138779Y2384827D01*
Y2378953D01*
X4141027Y2373527D01*
X4142438Y2372116D01*
X4140367Y2367116D01*
X3134001D01*
X3134000Y2367116D01*
X3130129Y2366346D01*
X3126847Y2364153D01*
X2782847Y2020153D01*
X2780654Y2016871D01*
X2779884Y2013000D01*
Y1828234D01*
X2779675Y1827762D01*
X2779631Y1826046D01*
X2779520Y1824827D01*
X2779467Y1824497D01*
X2779415Y1824265D01*
X2779413Y1824263D01*
X2779412Y1824256D01*
X2779393Y1824192D01*
X2779314Y1824001D01*
X2779313Y1823800D01*
X2778318Y1822805D01*
X2776220Y1817741D01*
Y1812259D01*
X2778318Y1807195D01*
X2782195Y1803318D01*
X2787259Y1801220D01*
X2792741D01*
X2797805Y1803318D01*
X2801682Y1807195D01*
X2803780Y1812259D01*
Y1817741D01*
X2801682Y1822805D01*
X2800687Y1823800D01*
X2800686Y1824001D01*
X2800607Y1824192D01*
X2800588Y1824256D01*
X2800587Y1824263D01*
X2800585Y1824265D01*
X2800533Y1824497D01*
X2800488Y1824778D01*
X2800336Y1826867D01*
X2800326Y1827692D01*
X2800116Y1828184D01*
Y2008810D01*
X3138190Y2346884D01*
X4410000D01*
X4413871Y2347654D01*
X4417153Y2349847D01*
X5187111Y3119806D01*
X5315676D01*
X5316129Y3119598D01*
X5318009Y3119529D01*
X5318612Y3119467D01*
X5319157Y3119381D01*
X5319582Y3119288D01*
X5319879Y3119200D01*
X5320046Y3119134D01*
X5320155Y3119037D01*
X5320247Y3119006D01*
X5320310Y3118964D01*
X5320452Y3118936D01*
X5321005Y3118746D01*
X5322346Y3117405D01*
X5327772Y3115157D01*
X5333645D01*
X5339072Y3117405D01*
X5343225Y3121558D01*
X5345472Y3126985D01*
Y3132858D01*
X5343225Y3138284D01*
X5339072Y3142437D01*
X5333645Y3144685D01*
D02*
G37*
G36*
X5909075Y3118307D02*
X5901949D01*
X5895365Y3115580D01*
X5890326Y3110541D01*
X5887598Y3103957D01*
Y3096831D01*
X5890326Y3090247D01*
X5895365Y3085207D01*
X5901949Y3082480D01*
X5909075D01*
X5915659Y3085207D01*
X5920698Y3090247D01*
X5923425Y3096831D01*
Y3103957D01*
X5920698Y3110541D01*
X5915659Y3115580D01*
X5909075Y3118307D01*
D02*
G37*
G36*
X2416697Y3156496D02*
X2405035D01*
X2393770Y3153478D01*
X2383671Y3147647D01*
X2375424Y3139400D01*
X2369593Y3129300D01*
X2366575Y3118036D01*
Y3106374D01*
X2369593Y3095109D01*
X2375424Y3085009D01*
X2383671Y3076763D01*
X2393770Y3070932D01*
X2405035Y3067913D01*
X2416697D01*
X2427962Y3070932D01*
X2438062Y3076763D01*
X2446308Y3085009D01*
X2452139Y3095109D01*
X2455157Y3106374D01*
Y3118036D01*
X2452139Y3129300D01*
X2446308Y3139400D01*
X2438062Y3147647D01*
X2427962Y3153478D01*
X2416697Y3156496D01*
D02*
G37*
G36*
X2560236Y3107205D02*
X2515866D01*
Y3062835D01*
X2517366D01*
X2529922Y3066199D01*
X2541180Y3072699D01*
X2550372Y3081891D01*
X2556872Y3093149D01*
X2560236Y3105705D01*
Y3107205D01*
D02*
G37*
G36*
X2505866D02*
X2461496D01*
Y3105705D01*
X2464860Y3093149D01*
X2471360Y3081891D01*
X2480552Y3072699D01*
X2491810Y3066199D01*
X2504366Y3062835D01*
X2505866D01*
Y3107205D01*
D02*
G37*
G36*
X5815866Y3078674D02*
X5808648Y3076740D01*
X5801430Y3072573D01*
X5795537Y3066680D01*
X5791370Y3059462D01*
X5789436Y3052244D01*
X5815866D01*
Y3078674D01*
D02*
G37*
G36*
X5995158Y3078675D02*
Y3052244D01*
X6021588D01*
X6019654Y3059462D01*
X6015487Y3066680D01*
X6009593Y3072573D01*
X6002375Y3076740D01*
X5995158Y3078675D01*
D02*
G37*
G36*
X5985158D02*
X5977940Y3076740D01*
X5970722Y3072573D01*
X5964828Y3066680D01*
X5960661Y3059462D01*
X5958727Y3052244D01*
X5985158D01*
Y3078675D01*
D02*
G37*
G36*
X5815866Y3042244D02*
X5789436D01*
X5791370Y3035026D01*
X5795537Y3027808D01*
X5801430Y3021915D01*
X5808648Y3017748D01*
X5815866Y3015814D01*
Y3042244D01*
D02*
G37*
G36*
X6021588Y3042244D02*
X5995158D01*
Y3015814D01*
X6002375Y3017748D01*
X6009593Y3021915D01*
X6015487Y3027808D01*
X6019654Y3035026D01*
X6021588Y3042244D01*
D02*
G37*
G36*
X5985158D02*
X5958727D01*
X5960661Y3035026D01*
X5964828Y3027808D01*
X5970722Y3021915D01*
X5977940Y3017748D01*
X5985158Y3015814D01*
Y3042244D01*
D02*
G37*
G36*
X5910876Y3054528D02*
X5905786D01*
X5901083Y3052580D01*
X5897483Y3048980D01*
X5895535Y3044277D01*
Y3039187D01*
X5897483Y3034484D01*
X5900668Y3031299D01*
X5897483Y3028114D01*
X5895535Y3023411D01*
Y3018321D01*
X5897483Y3013618D01*
X5901083Y3010019D01*
X5905786Y3008071D01*
X5910876D01*
X5915579Y3010019D01*
X5919178Y3013618D01*
X5921126Y3018321D01*
Y3023411D01*
X5919178Y3028114D01*
X5915993Y3031299D01*
X5919178Y3034484D01*
X5921126Y3039187D01*
Y3044277D01*
X5919178Y3048980D01*
X5915579Y3052580D01*
X5910876Y3054528D01*
D02*
G37*
G36*
X5825866Y3078675D02*
Y3047244D01*
Y3015814D01*
X5833084Y3017748D01*
X5840302Y3021915D01*
X5842821Y3024435D01*
X5843166Y3024358D01*
X5847441Y3021983D01*
Y3018321D01*
X5849389Y3013618D01*
X5852988Y3010019D01*
X5857691Y3008071D01*
X5862781D01*
X5867484Y3010019D01*
X5871084Y3013618D01*
X5873032Y3018321D01*
Y3023411D01*
X5871084Y3028114D01*
X5867899Y3031299D01*
X5871084Y3034484D01*
X5873032Y3039187D01*
Y3044277D01*
X5871084Y3048980D01*
X5867484Y3052580D01*
X5862781Y3054528D01*
X5857691D01*
X5856944Y3054218D01*
X5850991Y3057115D01*
X5850362Y3059462D01*
X5846195Y3066680D01*
X5840302Y3072573D01*
X5833084Y3076740D01*
X5825866Y3078675D01*
D02*
G37*
G36*
X2516697Y3056496D02*
X2505035D01*
X2493770Y3053478D01*
X2483671Y3047647D01*
X2475424Y3039400D01*
X2469593Y3029300D01*
X2466575Y3018036D01*
Y3006374D01*
X2469593Y2995109D01*
X2475424Y2985009D01*
X2483671Y2976763D01*
X2493770Y2970932D01*
X2505035Y2967913D01*
X2516697D01*
X2527962Y2970932D01*
X2538062Y2976763D01*
X2546308Y2985009D01*
X2552139Y2995109D01*
X2555157Y3006374D01*
Y3018036D01*
X2552139Y3029300D01*
X2546308Y3039400D01*
X2538062Y3047647D01*
X2527962Y3053478D01*
X2516697Y3056496D01*
D02*
G37*
G36*
X2416697D02*
X2405035D01*
X2393770Y3053478D01*
X2383671Y3047647D01*
X2375424Y3039400D01*
X2369593Y3029300D01*
X2366575Y3018036D01*
Y3006374D01*
X2369593Y2995109D01*
X2375424Y2985009D01*
X2383671Y2976763D01*
X2393770Y2970932D01*
X2405035Y2967913D01*
X2416697D01*
X2427962Y2970932D01*
X2438062Y2976763D01*
X2446308Y2985009D01*
X2452139Y2995109D01*
X2455157Y3006374D01*
Y3018036D01*
X2452139Y3029300D01*
X2446308Y3039400D01*
X2438062Y3047647D01*
X2427962Y3053478D01*
X2416697Y3056496D01*
D02*
G37*
G36*
X5777000Y3030116D02*
X5501449D01*
X5497578Y3029346D01*
X5494296Y3027153D01*
X5467476Y3000333D01*
X5467010Y3000160D01*
X5465631Y2998879D01*
X5465161Y2998497D01*
X5464715Y2998172D01*
X5464350Y2997938D01*
X5464076Y2997790D01*
X5463912Y2997719D01*
X5463766Y2997710D01*
X5463678Y2997667D01*
X5463605Y2997652D01*
X5463485Y2997572D01*
X5462959Y2997315D01*
X5461063D01*
X5455637Y2995067D01*
X5451484Y2990914D01*
X5449236Y2985488D01*
Y2979615D01*
X5451484Y2974188D01*
X5455637Y2970035D01*
X5461063Y2967787D01*
X5466937D01*
X5472363Y2970035D01*
X5476516Y2974188D01*
X5478764Y2979615D01*
Y2981511D01*
X5479021Y2982036D01*
X5479101Y2982156D01*
X5479116Y2982230D01*
X5479158Y2982317D01*
X5479168Y2982463D01*
X5479239Y2982628D01*
X5479387Y2982901D01*
X5479621Y2983267D01*
X5479909Y2983662D01*
X5480913Y2984838D01*
X5481539Y2985487D01*
X5481732Y2985977D01*
X5505639Y3009884D01*
X5636198D01*
X5637193Y3004884D01*
X5634956Y3003958D01*
X5631356Y3000358D01*
X5629408Y2995655D01*
Y2990565D01*
X5631356Y2985862D01*
X5634541Y2982677D01*
X5631356Y2979492D01*
X5629408Y2974789D01*
Y2969699D01*
X5631356Y2964996D01*
X5634956Y2961397D01*
X5639658Y2959449D01*
X5644749D01*
X5649452Y2961397D01*
X5650883Y2962828D01*
X5655883Y2960757D01*
Y2960250D01*
X5657831Y2955547D01*
X5661016Y2952362D01*
X5657831Y2949177D01*
X5655883Y2944474D01*
Y2939384D01*
X5656710Y2937386D01*
X5653593Y2932386D01*
X5246717D01*
X5246197Y2932623D01*
X5245464Y2932650D01*
X5244959Y2932705D01*
X5244489Y2932795D01*
X5244045Y2932916D01*
X5243619Y2933070D01*
X5243204Y2933259D01*
X5242792Y2933488D01*
X5242378Y2933763D01*
X5241958Y2934089D01*
X5241397Y2934594D01*
X5240529Y2934901D01*
X5239363Y2936067D01*
X5233937Y2938315D01*
X5228063D01*
X5222637Y2936067D01*
X5218484Y2931914D01*
X5216236Y2926488D01*
Y2920615D01*
X5218484Y2915188D01*
X5222637Y2911035D01*
X5228063Y2908787D01*
X5233937D01*
X5239363Y2911035D01*
X5241025Y2912697D01*
X5241989Y2913097D01*
X5242505Y2913615D01*
X5242876Y2913932D01*
X5243239Y2914195D01*
X5243602Y2914414D01*
X5243970Y2914594D01*
X5244353Y2914742D01*
X5244760Y2914860D01*
X5245200Y2914948D01*
X5245684Y2915003D01*
X5246413Y2915030D01*
X5246930Y2915268D01*
X5772283D01*
X5772803Y2915030D01*
X5773536Y2915004D01*
X5774041Y2914948D01*
X5774511Y2914859D01*
X5774955Y2914738D01*
X5775381Y2914584D01*
X5775796Y2914394D01*
X5776208Y2914165D01*
X5776622Y2913891D01*
X5777042Y2913565D01*
X5777603Y2913059D01*
X5778471Y2912752D01*
X5779637Y2911586D01*
X5785063Y2909339D01*
X5790937D01*
X5796363Y2911586D01*
X5800516Y2915739D01*
X5802764Y2921166D01*
Y2927039D01*
X5800516Y2932465D01*
X5796363Y2936619D01*
X5790937Y2938866D01*
X5785063D01*
X5779637Y2936619D01*
X5777975Y2934956D01*
X5777011Y2934556D01*
X5776495Y2934039D01*
X5776124Y2933722D01*
X5775761Y2933458D01*
X5775398Y2933240D01*
X5775030Y2933059D01*
X5774647Y2932912D01*
X5774240Y2932794D01*
X5773800Y2932706D01*
X5773316Y2932650D01*
X5772587Y2932623D01*
X5772070Y2932386D01*
X5719256D01*
X5718262Y2937386D01*
X5718786Y2937603D01*
X5723814Y2942631D01*
X5725937Y2947756D01*
X5691386D01*
X5693508Y2942631D01*
X5698537Y2937603D01*
X5699061Y2937386D01*
X5698066Y2932386D01*
X5683763D01*
X5680646Y2937386D01*
X5681473Y2939384D01*
Y2944474D01*
X5679525Y2949177D01*
X5676340Y2952362D01*
X5679525Y2955547D01*
X5681473Y2960250D01*
Y2965340D01*
X5679525Y2970043D01*
X5675926Y2973643D01*
X5671223Y2975591D01*
X5666133D01*
X5661430Y2973643D01*
X5659999Y2972212D01*
X5654999Y2974283D01*
Y2974789D01*
X5653051Y2979492D01*
X5649866Y2982677D01*
X5653051Y2985862D01*
X5654999Y2990565D01*
Y2995655D01*
X5653051Y3000358D01*
X5649452Y3003958D01*
X5647214Y3004884D01*
X5648209Y3009884D01*
X5772810D01*
X5801847Y2980847D01*
X5805129Y2978654D01*
X5809000Y2977884D01*
X5851230D01*
X5853301Y2972884D01*
X5852153Y2971736D01*
X5850205Y2967033D01*
Y2961943D01*
X5852153Y2957240D01*
X5855259Y2954134D01*
X5852153Y2951028D01*
X5850205Y2946325D01*
Y2941234D01*
X5852153Y2936532D01*
X5855752Y2932932D01*
X5860455Y2930984D01*
X5865545D01*
X5868546Y2928979D01*
Y2919773D01*
X5869158Y2916701D01*
X5870898Y2914096D01*
X5885860Y2899134D01*
X5888465Y2897394D01*
X5891537Y2896783D01*
X5891538Y2896783D01*
X5930922D01*
X5932993Y2891783D01*
X5932711Y2891500D01*
X5930763Y2886797D01*
Y2881707D01*
X5932711Y2877004D01*
X5935797Y2873917D01*
X5932711Y2870831D01*
X5930763Y2866128D01*
Y2861038D01*
X5932711Y2856335D01*
X5936310Y2852735D01*
X5941013Y2850787D01*
X5946103D01*
X5950806Y2852735D01*
X5953504Y2855433D01*
X5957912Y2854309D01*
X5958546Y2853943D01*
X5960661Y2846050D01*
X5964828Y2838832D01*
X5970722Y2832939D01*
X5977940Y2828771D01*
X5985158Y2826837D01*
Y2858267D01*
Y2889698D01*
X5977940Y2887764D01*
X5970722Y2883597D01*
X5964828Y2877703D01*
X5960661Y2870485D01*
X5960386Y2869458D01*
X5955117Y2869113D01*
X5954406Y2870831D01*
X5951319Y2873917D01*
X5954406Y2877004D01*
X5956354Y2881707D01*
Y2886797D01*
X5954406Y2891500D01*
X5953930Y2891976D01*
X5953928Y2891991D01*
X5955741Y2897236D01*
X5956535Y2897394D01*
X5959140Y2899134D01*
X5972866Y2912860D01*
X5974606Y2915465D01*
X5975217Y2918537D01*
X5975217Y2918537D01*
Y2944463D01*
X5974606Y2947535D01*
X5972866Y2950140D01*
X5972866Y2950140D01*
X5956600Y2966405D01*
X5953996Y2968146D01*
X5950924Y2968757D01*
X5943682D01*
X5943372Y2968945D01*
X5943053Y2968868D01*
X5942755Y2969004D01*
X5942367Y2969019D01*
X5941259Y2970742D01*
X5940847Y2971736D01*
X5940449Y2972135D01*
X5939840Y2973225D01*
X5941770Y2977884D01*
X5960767D01*
X5962484Y2973739D01*
X5966637Y2969586D01*
X5972063Y2967339D01*
X5977937D01*
X5983363Y2969586D01*
X5987516Y2973739D01*
X5989764Y2979166D01*
Y2985039D01*
X5987516Y2990465D01*
X5983363Y2994619D01*
X5977937Y2996866D01*
X5972063D01*
X5971450Y2996612D01*
X5970353Y2997346D01*
X5966482Y2998116D01*
X5813190D01*
X5784153Y3027153D01*
X5780871Y3029346D01*
X5777000Y3030116D01*
D02*
G37*
G36*
X5713661Y2970032D02*
Y2957756D01*
X5725937D01*
X5723814Y2962881D01*
X5718786Y2967909D01*
X5713661Y2970032D01*
D02*
G37*
G36*
X5703661D02*
X5698537Y2967909D01*
X5693508Y2962881D01*
X5691386Y2957756D01*
X5703661D01*
Y2970032D01*
D02*
G37*
G36*
X2417366Y2961575D02*
X2415866D01*
Y2917205D01*
X2460236D01*
Y2918704D01*
X2456872Y2931261D01*
X2450372Y2942519D01*
X2441180Y2951711D01*
X2429922Y2958210D01*
X2417366Y2961575D01*
D02*
G37*
G36*
X2405866D02*
X2404366D01*
X2391810Y2958210D01*
X2380552Y2951711D01*
X2371360Y2942519D01*
X2364860Y2931261D01*
X2361496Y2918704D01*
Y2917205D01*
X2405866D01*
Y2961575D01*
D02*
G37*
G36*
X5862781Y2897047D02*
X5857691D01*
X5852988Y2895099D01*
X5849389Y2891500D01*
X5847441Y2886797D01*
Y2883529D01*
X5842617Y2881282D01*
X5840302Y2883597D01*
X5833084Y2887764D01*
X5825866Y2889698D01*
Y2858268D01*
Y2826837D01*
X5833084Y2828771D01*
X5840302Y2832939D01*
X5846195Y2838832D01*
X5850362Y2846050D01*
X5850950Y2848241D01*
X5856896Y2851117D01*
X5857691Y2850787D01*
X5862781D01*
X5867484Y2852735D01*
X5871084Y2856335D01*
X5873032Y2861038D01*
Y2866128D01*
X5871084Y2870831D01*
X5867997Y2873917D01*
X5871084Y2877004D01*
X5873032Y2881707D01*
Y2886797D01*
X5871084Y2891500D01*
X5867484Y2895099D01*
X5862781Y2897047D01*
D02*
G37*
G36*
X5333645Y2900591D02*
X5327772D01*
X5322346Y2898343D01*
X5321005Y2897002D01*
X5320452Y2896813D01*
X5320310Y2896784D01*
X5320247Y2896742D01*
X5320155Y2896711D01*
X5320046Y2896614D01*
X5319879Y2896548D01*
X5319582Y2896460D01*
X5319157Y2896367D01*
X5318675Y2896291D01*
X5317132Y2896169D01*
X5316231Y2896153D01*
X5315748Y2895943D01*
X4987874D01*
X4984003Y2895173D01*
X4980721Y2892980D01*
X4406857Y2319116D01*
X3373001D01*
X3373000Y2319116D01*
X3369129Y2318346D01*
X3365847Y2316153D01*
X2672015Y1622320D01*
X2574369D01*
X2574003Y1622511D01*
X2571820Y1622702D01*
X2569756Y1623204D01*
X2567341Y1624121D01*
X2564608Y1625484D01*
X2561584Y1627312D01*
X2558394Y1629540D01*
X2546923Y1639394D01*
X2542731Y1643548D01*
X2541766Y1643942D01*
X2538062Y1647647D01*
X2527962Y1653478D01*
X2516697Y1656496D01*
X2505035D01*
X2493770Y1653478D01*
X2483671Y1647647D01*
X2475424Y1639400D01*
X2469593Y1629301D01*
X2466575Y1618036D01*
Y1606374D01*
X2469593Y1595109D01*
X2475424Y1585009D01*
X2483671Y1576763D01*
X2493770Y1570932D01*
X2505035Y1567913D01*
X2516697D01*
X2527962Y1570932D01*
X2538062Y1576763D01*
X2541766Y1580467D01*
X2542731Y1580862D01*
X2546961Y1585053D01*
X2554801Y1592064D01*
X2558295Y1594800D01*
X2561583Y1597097D01*
X2564608Y1598925D01*
X2567341Y1600289D01*
X2569756Y1601205D01*
X2571820Y1601708D01*
X2574003Y1601898D01*
X2574369Y1602089D01*
X2676205D01*
X2680076Y1602859D01*
X2683358Y1605052D01*
X3377190Y2298884D01*
X4411047D01*
X4414918Y2299654D01*
X4418200Y2301847D01*
X4992064Y2875711D01*
X5315676D01*
X5316129Y2875504D01*
X5318009Y2875435D01*
X5318612Y2875372D01*
X5319157Y2875287D01*
X5319582Y2875194D01*
X5319879Y2875105D01*
X5320046Y2875040D01*
X5320155Y2874943D01*
X5320247Y2874911D01*
X5320310Y2874870D01*
X5320452Y2874841D01*
X5321005Y2874652D01*
X5322346Y2873311D01*
X5327772Y2871063D01*
X5333645D01*
X5339072Y2873311D01*
X5343225Y2877464D01*
X5345472Y2882890D01*
Y2888764D01*
X5343225Y2894190D01*
X5339072Y2898343D01*
X5333645Y2900591D01*
D02*
G37*
G36*
X2516697Y2956496D02*
X2505035D01*
X2493770Y2953478D01*
X2483671Y2947647D01*
X2475424Y2939400D01*
X2469593Y2929300D01*
X2466575Y2918036D01*
Y2906374D01*
X2469593Y2895109D01*
X2475424Y2885009D01*
X2483671Y2876763D01*
X2493770Y2870932D01*
X2505035Y2867913D01*
X2516697D01*
X2527962Y2870932D01*
X2538062Y2876763D01*
X2546308Y2885009D01*
X2552139Y2895109D01*
X2555157Y2906374D01*
Y2918036D01*
X2552139Y2929300D01*
X2546308Y2939400D01*
X2538062Y2947647D01*
X2527962Y2953478D01*
X2516697Y2956496D01*
D02*
G37*
G36*
X5815866Y2889698D02*
X5808648Y2887764D01*
X5801430Y2883597D01*
X5795537Y2877703D01*
X5791370Y2870485D01*
X5789436Y2863268D01*
X5815866D01*
Y2889698D01*
D02*
G37*
G36*
X5995158Y2889698D02*
Y2863267D01*
X6021588D01*
X6019654Y2870485D01*
X6015487Y2877703D01*
X6009593Y2883597D01*
X6002375Y2887764D01*
X5995158Y2889698D01*
D02*
G37*
G36*
X2460236Y2907205D02*
X2415866D01*
Y2862835D01*
X2417366D01*
X2429922Y2866199D01*
X2441180Y2872699D01*
X2450372Y2881891D01*
X2456872Y2893149D01*
X2460236Y2905705D01*
Y2907205D01*
D02*
G37*
G36*
X2405866D02*
X2361496D01*
Y2905705D01*
X2364860Y2893149D01*
X2371360Y2881891D01*
X2380552Y2872699D01*
X2391810Y2866199D01*
X2404366Y2862835D01*
X2405866D01*
Y2907205D01*
D02*
G37*
G36*
X5617270Y2893701D02*
X5612179D01*
X5607476Y2891753D01*
X5603877Y2888153D01*
X5601929Y2883451D01*
Y2878360D01*
X5603877Y2873657D01*
X5607476Y2870058D01*
X5612179Y2868110D01*
X5616535D01*
Y2863203D01*
X5618483Y2858500D01*
X5622083Y2854901D01*
X5626786Y2852953D01*
X5631876D01*
X5636579Y2854901D01*
X5640178Y2858500D01*
X5642126Y2863203D01*
Y2868293D01*
X5640178Y2872996D01*
X5636579Y2876595D01*
X5631876Y2878543D01*
X5627520D01*
Y2883451D01*
X5625572Y2888153D01*
X5621972Y2891753D01*
X5617270Y2893701D01*
D02*
G37*
G36*
X5815866Y2853268D02*
X5789436D01*
X5791370Y2846050D01*
X5795537Y2838832D01*
X5801430Y2832939D01*
X5808648Y2828771D01*
X5815866Y2826837D01*
Y2853268D01*
D02*
G37*
G36*
X6021588Y2853267D02*
X5995158D01*
Y2826837D01*
X6002375Y2828771D01*
X6009593Y2832939D01*
X6015487Y2838832D01*
X6019654Y2846050D01*
X6021588Y2853267D01*
D02*
G37*
G36*
X5905512Y2830044D02*
X5899137Y2828776D01*
X5893732Y2825165D01*
X5890121Y2819761D01*
X5888853Y2813386D01*
Y2796850D01*
X5890121Y2790475D01*
X5893732Y2785071D01*
X5899137Y2781460D01*
X5905512Y2780192D01*
X5911887Y2781460D01*
X5917291Y2785071D01*
X5920902Y2790475D01*
X5922171Y2796850D01*
Y2813386D01*
X5920902Y2819761D01*
X5917291Y2825165D01*
X5911887Y2828776D01*
X5905512Y2830044D01*
D02*
G37*
G36*
X2516697Y2856496D02*
X2505035D01*
X2493770Y2853478D01*
X2483671Y2847647D01*
X2475424Y2839400D01*
X2469593Y2829300D01*
X2466575Y2818036D01*
Y2806374D01*
X2469593Y2795109D01*
X2475424Y2785009D01*
X2483671Y2776763D01*
X2493770Y2770932D01*
X2505035Y2767913D01*
X2516697D01*
X2527962Y2770932D01*
X2538062Y2776763D01*
X2546308Y2785009D01*
X2552139Y2795109D01*
X2555157Y2806374D01*
Y2818036D01*
X2552139Y2829300D01*
X2546308Y2839400D01*
X2538062Y2847647D01*
X2527962Y2853478D01*
X2516697Y2856496D01*
D02*
G37*
G36*
X2416697D02*
X2405035D01*
X2393770Y2853478D01*
X2383671Y2847647D01*
X2375424Y2839400D01*
X2369593Y2829300D01*
X2366575Y2818036D01*
Y2806374D01*
X2369593Y2795109D01*
X2375424Y2785009D01*
X2383671Y2776763D01*
X2393770Y2770932D01*
X2405035Y2767913D01*
X2416697D01*
X2427962Y2770932D01*
X2438062Y2776763D01*
X2446308Y2785009D01*
X2452139Y2795109D01*
X2455157Y2806374D01*
Y2818036D01*
X2452139Y2829300D01*
X2446308Y2839400D01*
X2438062Y2847647D01*
X2427962Y2853478D01*
X2416697Y2856496D01*
D02*
G37*
G36*
X2517366Y2761575D02*
X2515866D01*
Y2717205D01*
X2560236D01*
Y2718704D01*
X2556872Y2731261D01*
X2550372Y2742519D01*
X2541180Y2751711D01*
X2529922Y2758210D01*
X2517366Y2761575D01*
D02*
G37*
G36*
X2505866D02*
X2504366D01*
X2491810Y2758210D01*
X2480552Y2751711D01*
X2471360Y2742519D01*
X2464860Y2731261D01*
X2461496Y2718704D01*
Y2717205D01*
X2505866D01*
Y2761575D01*
D02*
G37*
G36*
X2416697Y2756496D02*
X2405035D01*
X2393770Y2753478D01*
X2383671Y2747647D01*
X2375424Y2739400D01*
X2369593Y2729300D01*
X2366575Y2718036D01*
Y2706374D01*
X2369593Y2695109D01*
X2375424Y2685009D01*
X2383671Y2676763D01*
X2393770Y2670932D01*
X2405035Y2667913D01*
X2416697D01*
X2427962Y2670932D01*
X2438062Y2676763D01*
X2446308Y2685009D01*
X2452139Y2695109D01*
X2455157Y2706374D01*
Y2718036D01*
X2452139Y2729300D01*
X2446308Y2739400D01*
X2438062Y2747647D01*
X2427962Y2753478D01*
X2416697Y2756496D01*
D02*
G37*
G36*
X2560236Y2707205D02*
X2515866D01*
Y2662835D01*
X2517366D01*
X2529922Y2666199D01*
X2541180Y2672699D01*
X2550372Y2681891D01*
X2556872Y2693149D01*
X2560236Y2705705D01*
Y2707205D01*
D02*
G37*
G36*
X2505866D02*
X2461496D01*
Y2705705D01*
X2464860Y2693149D01*
X2471360Y2681891D01*
X2480552Y2672699D01*
X2491810Y2666199D01*
X2504366Y2662835D01*
X2505866D01*
Y2707205D01*
D02*
G37*
G36*
X4975378Y2743110D02*
X4969504D01*
X4964078Y2740863D01*
X4959925Y2736709D01*
X4957677Y2731283D01*
Y2725410D01*
X4959925Y2719983D01*
X4961266Y2718643D01*
X4961455Y2718090D01*
X4961484Y2717948D01*
X4961525Y2717885D01*
X4961557Y2717793D01*
X4961654Y2717683D01*
X4961719Y2717516D01*
X4961808Y2717219D01*
X4961901Y2716795D01*
X4961977Y2716313D01*
X4962099Y2714769D01*
X4962115Y2713869D01*
X4962325Y2713385D01*
Y2692914D01*
X4963095Y2689042D01*
X4965288Y2685761D01*
X5000721Y2650327D01*
X5004003Y2648135D01*
X5007874Y2647365D01*
X5532212D01*
X5532665Y2647157D01*
X5534544Y2647088D01*
X5535148Y2647026D01*
X5535693Y2646941D01*
X5536117Y2646847D01*
X5536414Y2646759D01*
X5536581Y2646693D01*
X5536691Y2646596D01*
X5536783Y2646565D01*
X5536845Y2646523D01*
X5536987Y2646495D01*
X5537540Y2646305D01*
X5538881Y2644964D01*
X5544307Y2642716D01*
X5550181D01*
X5555607Y2644964D01*
X5559760Y2649117D01*
X5562008Y2654544D01*
Y2660417D01*
X5559760Y2665843D01*
X5555607Y2669996D01*
X5550181Y2672244D01*
X5544307D01*
X5538881Y2669996D01*
X5537540Y2668655D01*
X5536987Y2668466D01*
X5536845Y2668438D01*
X5536783Y2668396D01*
X5536691Y2668364D01*
X5536581Y2668267D01*
X5536414Y2668202D01*
X5536117Y2668114D01*
X5535693Y2668020D01*
X5535210Y2667945D01*
X5533667Y2667822D01*
X5532766Y2667806D01*
X5532283Y2667596D01*
X5012064D01*
X4982557Y2697104D01*
Y2713314D01*
X4982764Y2713767D01*
X4982833Y2715647D01*
X4982895Y2716250D01*
X4982981Y2716795D01*
X4983074Y2717219D01*
X4983163Y2717517D01*
X4983228Y2717683D01*
X4983325Y2717793D01*
X4983356Y2717885D01*
X4983398Y2717948D01*
X4983427Y2718090D01*
X4983616Y2718643D01*
X4984957Y2719983D01*
X4987205Y2725410D01*
Y2731283D01*
X4984957Y2736709D01*
X4980804Y2740863D01*
X4975378Y2743110D01*
D02*
G37*
G36*
X2516697Y2656496D02*
X2505035D01*
X2493770Y2653478D01*
X2483671Y2647647D01*
X2475424Y2639400D01*
X2469593Y2629300D01*
X2466575Y2618036D01*
Y2606374D01*
X2469593Y2595109D01*
X2475424Y2585009D01*
X2483671Y2576763D01*
X2493770Y2570932D01*
X2505035Y2567913D01*
X2516697D01*
X2527962Y2570932D01*
X2538062Y2576763D01*
X2546308Y2585009D01*
X2552139Y2595109D01*
X2555157Y2606374D01*
Y2618036D01*
X2552139Y2629300D01*
X2546308Y2639400D01*
X2538062Y2647647D01*
X2527962Y2653478D01*
X2516697Y2656496D01*
D02*
G37*
G36*
X2416697D02*
X2405035D01*
X2393770Y2653478D01*
X2383671Y2647647D01*
X2375424Y2639400D01*
X2369593Y2629300D01*
X2366575Y2618036D01*
Y2606374D01*
X2369593Y2595109D01*
X2375424Y2585009D01*
X2383671Y2576763D01*
X2393770Y2570932D01*
X2405035Y2567913D01*
X2416697D01*
X2427962Y2570932D01*
X2438062Y2576763D01*
X2446308Y2585009D01*
X2452139Y2595109D01*
X2455157Y2606374D01*
Y2618036D01*
X2452139Y2629300D01*
X2446308Y2639400D01*
X2438062Y2647647D01*
X2427962Y2653478D01*
X2416697Y2656496D01*
D02*
G37*
G36*
X5909075Y2527756D02*
X5901949D01*
X5895365Y2525029D01*
X5890326Y2519990D01*
X5887598Y2513406D01*
Y2506279D01*
X5890326Y2499695D01*
X5895365Y2494656D01*
X5901949Y2491929D01*
X5909075D01*
X5915659Y2494656D01*
X5920698Y2499695D01*
X5923425Y2506279D01*
Y2513406D01*
X5920698Y2519990D01*
X5915659Y2525029D01*
X5909075Y2527756D01*
D02*
G37*
G36*
X2516697Y2556496D02*
X2505035D01*
X2493770Y2553478D01*
X2483671Y2547647D01*
X2475424Y2539400D01*
X2469593Y2529300D01*
X2466575Y2518036D01*
Y2506374D01*
X2469593Y2495109D01*
X2475424Y2485009D01*
X2483671Y2476763D01*
X2493770Y2470932D01*
X2505035Y2467913D01*
X2516697D01*
X2527962Y2470932D01*
X2538062Y2476763D01*
X2546308Y2485009D01*
X2552139Y2495109D01*
X2555157Y2506374D01*
Y2518036D01*
X2552139Y2529300D01*
X2546308Y2539400D01*
X2538062Y2547647D01*
X2527962Y2553478D01*
X2516697Y2556496D01*
D02*
G37*
G36*
X2416697D02*
X2405035D01*
X2393770Y2553478D01*
X2383671Y2547647D01*
X2375424Y2539400D01*
X2369593Y2529300D01*
X2366575Y2518036D01*
Y2506374D01*
X2369593Y2495109D01*
X2375424Y2485009D01*
X2383671Y2476763D01*
X2393770Y2470932D01*
X2405035Y2467913D01*
X2416697D01*
X2427962Y2470932D01*
X2438062Y2476763D01*
X2446308Y2485009D01*
X2452139Y2495109D01*
X2455157Y2506374D01*
Y2518036D01*
X2452139Y2529300D01*
X2446308Y2539400D01*
X2438062Y2547647D01*
X2427962Y2553478D01*
X2416697Y2556496D01*
D02*
G37*
G36*
X5815866Y2488123D02*
X5808648Y2486189D01*
X5801430Y2482022D01*
X5795537Y2476129D01*
X5791370Y2468911D01*
X5789436Y2461693D01*
X5815866D01*
Y2488123D01*
D02*
G37*
G36*
X5995158Y2488123D02*
Y2461693D01*
X6021588D01*
X6019654Y2468911D01*
X6015487Y2476129D01*
X6009593Y2482022D01*
X6002375Y2486189D01*
X5995158Y2488123D01*
D02*
G37*
G36*
X5985158D02*
X5977940Y2486189D01*
X5970722Y2482022D01*
X5964828Y2476129D01*
X5960661Y2468911D01*
X5958727Y2461693D01*
X5985158D01*
Y2488123D01*
D02*
G37*
G36*
X5815866Y2451693D02*
X5789436D01*
X5791370Y2444475D01*
X5795537Y2437257D01*
X5801430Y2431364D01*
X5808648Y2427197D01*
X5815866Y2425263D01*
Y2451693D01*
D02*
G37*
G36*
X6021588Y2451693D02*
X5995158D01*
Y2425262D01*
X6002375Y2427197D01*
X6009593Y2431364D01*
X6015487Y2437257D01*
X6019654Y2444475D01*
X6021588Y2451693D01*
D02*
G37*
G36*
X5985158D02*
X5958727D01*
X5960661Y2444475D01*
X5964828Y2437257D01*
X5970722Y2431364D01*
X5977940Y2427197D01*
X5985158Y2425262D01*
Y2451693D01*
D02*
G37*
G36*
X5910876Y2464370D02*
X5905786D01*
X5901083Y2462422D01*
X5897483Y2458823D01*
X5895535Y2454120D01*
Y2449030D01*
X5897483Y2444327D01*
X5900668Y2441142D01*
X5897483Y2437957D01*
X5895535Y2433254D01*
Y2428164D01*
X5897483Y2423461D01*
X5901083Y2419861D01*
X5905786Y2417913D01*
X5910876D01*
X5915579Y2419861D01*
X5919178Y2423461D01*
X5921126Y2428164D01*
Y2433254D01*
X5919178Y2437957D01*
X5915993Y2441142D01*
X5919178Y2444327D01*
X5921126Y2449030D01*
Y2454120D01*
X5919178Y2458823D01*
X5915579Y2462422D01*
X5910876Y2464370D01*
D02*
G37*
G36*
X5825866Y2488123D02*
Y2456693D01*
Y2425262D01*
X5833084Y2427197D01*
X5840302Y2431364D01*
X5842617Y2433679D01*
X5847441Y2431432D01*
Y2428164D01*
X5849389Y2423461D01*
X5852988Y2419861D01*
X5857691Y2417913D01*
X5862781D01*
X5867484Y2419861D01*
X5871084Y2423461D01*
X5873032Y2428164D01*
Y2433254D01*
X5871084Y2437957D01*
X5867899Y2441142D01*
X5871084Y2444327D01*
X5873032Y2449030D01*
Y2454120D01*
X5871084Y2458823D01*
X5867484Y2462422D01*
X5862781Y2464370D01*
X5857691D01*
X5856849Y2464021D01*
X5850908Y2466875D01*
X5850362Y2468911D01*
X5846195Y2476129D01*
X5840302Y2482022D01*
X5833084Y2486189D01*
X5825866Y2488123D01*
D02*
G37*
G36*
X2517366Y2461575D02*
X2515866D01*
Y2417205D01*
X2560236D01*
Y2418704D01*
X2556872Y2431261D01*
X2550372Y2442519D01*
X2541180Y2451711D01*
X2529922Y2458210D01*
X2517366Y2461575D01*
D02*
G37*
G36*
X2505866D02*
X2504366D01*
X2491810Y2458210D01*
X2480552Y2451711D01*
X2471360Y2442519D01*
X2464860Y2431261D01*
X2461496Y2418704D01*
Y2417205D01*
X2505866D01*
Y2461575D01*
D02*
G37*
G36*
X5777964Y2441971D02*
X5502413D01*
X5498542Y2441201D01*
X5495260Y2439008D01*
X5466207Y2409956D01*
X5465714Y2409760D01*
X5465010Y2409077D01*
X5464449Y2408566D01*
X5463334Y2407664D01*
X5462979Y2407417D01*
X5462658Y2407222D01*
X5462441Y2407110D01*
X5462370Y2407081D01*
X5462212Y2407055D01*
X5462141Y2407011D01*
X5462077Y2406992D01*
X5461964Y2406901D01*
X5461743Y2406764D01*
X5461063D01*
X5455637Y2404516D01*
X5451484Y2400363D01*
X5449236Y2394937D01*
Y2389063D01*
X5451484Y2383637D01*
X5455637Y2379484D01*
X5461063Y2377236D01*
X5466937D01*
X5472363Y2379484D01*
X5476516Y2383637D01*
X5478764Y2389063D01*
Y2392403D01*
X5478950Y2392904D01*
X5478992Y2392979D01*
X5478996Y2392985D01*
X5478997Y2392988D01*
X5479053Y2393092D01*
X5479067Y2393218D01*
X5479102Y2393311D01*
X5479100Y2393370D01*
X5479107Y2393388D01*
X5479211Y2393602D01*
X5479400Y2393920D01*
X5479642Y2394268D01*
X5480591Y2395405D01*
X5481197Y2396037D01*
X5481301Y2396302D01*
X5481549Y2396442D01*
X5481643Y2396780D01*
X5506603Y2421740D01*
X5773774D01*
X5808709Y2386805D01*
X5811990Y2384612D01*
X5815862Y2383842D01*
X5849182D01*
X5851557Y2378842D01*
X5850205Y2375577D01*
Y2370486D01*
X5852153Y2365784D01*
X5855338Y2362598D01*
X5852153Y2359413D01*
X5850205Y2354711D01*
Y2349620D01*
X5852153Y2344917D01*
X5855752Y2341318D01*
X5860455Y2339370D01*
X5865545D01*
X5868546Y2337365D01*
Y2329222D01*
X5869158Y2326150D01*
X5870898Y2323545D01*
X5885860Y2308583D01*
X5888465Y2306843D01*
X5891537Y2306231D01*
X5891538Y2306231D01*
X5930726D01*
X5932797Y2301231D01*
X5932711Y2301146D01*
X5930763Y2296443D01*
Y2291352D01*
X5932711Y2286650D01*
X5936191Y2283169D01*
X5932711Y2279689D01*
X5930763Y2274986D01*
Y2269896D01*
X5932711Y2265193D01*
X5936310Y2261593D01*
X5941013Y2259646D01*
X5946103D01*
X5950806Y2261593D01*
X5953504Y2264291D01*
X5956992Y2263773D01*
X5957228Y2263693D01*
X5958671Y2262926D01*
X5960661Y2255499D01*
X5964828Y2248281D01*
X5970722Y2242387D01*
X5977940Y2238220D01*
X5985158Y2236286D01*
Y2267716D01*
Y2299147D01*
X5977940Y2297213D01*
X5970722Y2293046D01*
X5964828Y2287152D01*
X5960661Y2279934D01*
X5960290Y2278549D01*
X5955021Y2278203D01*
X5954406Y2279689D01*
X5950925Y2283169D01*
X5954406Y2286650D01*
X5956354Y2291352D01*
Y2296443D01*
X5954406Y2301146D01*
X5954170Y2301381D01*
X5955905Y2306717D01*
X5956535Y2306843D01*
X5959140Y2308583D01*
X5972866Y2322309D01*
X5974606Y2324914D01*
X5975217Y2327986D01*
X5975217Y2327986D01*
Y2353912D01*
X5974606Y2356984D01*
X5972866Y2359589D01*
X5972866Y2359589D01*
X5956600Y2375854D01*
X5953996Y2377594D01*
X5950924Y2378206D01*
X5946521D01*
X5946132Y2378842D01*
X5948938Y2383842D01*
X5959005D01*
X5959481Y2383633D01*
X5960409Y2383612D01*
X5961100Y2383562D01*
X5961656Y2383488D01*
X5962074Y2383403D01*
X5962341Y2383325D01*
X5962378Y2383311D01*
X5962405Y2383283D01*
X5962453Y2383263D01*
X5962484Y2383188D01*
X5966637Y2379035D01*
X5972063Y2376787D01*
X5977937D01*
X5983363Y2379035D01*
X5987516Y2383188D01*
X5989764Y2388615D01*
Y2394488D01*
X5987516Y2399914D01*
X5983363Y2404067D01*
X5977937Y2406315D01*
X5972063D01*
X5968303Y2404757D01*
X5968008Y2404732D01*
X5967787Y2404766D01*
X5967685Y2404741D01*
X5967616Y2404743D01*
X5967474Y2404689D01*
X5967463Y2404686D01*
X5967424Y2404683D01*
X5967401Y2404671D01*
X5966871Y2404541D01*
X5966644Y2404505D01*
X5963496Y2404293D01*
X5962564Y2404285D01*
X5962068Y2404074D01*
X5820052D01*
X5785117Y2439008D01*
X5781835Y2441201D01*
X5777964Y2441971D01*
D02*
G37*
G36*
X2416697Y2456496D02*
X2405035D01*
X2393770Y2453478D01*
X2383671Y2447647D01*
X2375424Y2439400D01*
X2369593Y2429300D01*
X2366575Y2418036D01*
Y2406374D01*
X2369593Y2395109D01*
X2375424Y2385009D01*
X2383671Y2376763D01*
X2393770Y2370932D01*
X2405035Y2367913D01*
X2416697D01*
X2427962Y2370932D01*
X2438062Y2376763D01*
X2446308Y2385009D01*
X2452139Y2395109D01*
X2455157Y2406374D01*
Y2418036D01*
X2452139Y2429300D01*
X2446308Y2439400D01*
X2438062Y2447647D01*
X2427962Y2453478D01*
X2416697Y2456496D01*
D02*
G37*
G36*
X5713661Y2379480D02*
Y2367205D01*
X5725937D01*
X5723814Y2372329D01*
X5718786Y2377358D01*
X5713661Y2379480D01*
D02*
G37*
G36*
X5703661D02*
X5698537Y2377358D01*
X5693508Y2372329D01*
X5691386Y2367205D01*
X5703661D01*
Y2379480D01*
D02*
G37*
G36*
X2560236Y2407205D02*
X2515866D01*
Y2362835D01*
X2517366D01*
X2529922Y2366199D01*
X2541180Y2372699D01*
X2550372Y2381891D01*
X2556872Y2393149D01*
X2560236Y2405705D01*
Y2407205D01*
D02*
G37*
G36*
X2505866D02*
X2461496D01*
Y2405705D01*
X2464860Y2393149D01*
X2471360Y2381891D01*
X2480552Y2372699D01*
X2491810Y2366199D01*
X2504366Y2362835D01*
X2505866D01*
Y2407205D01*
D02*
G37*
G36*
X5644749Y2414961D02*
X5639658D01*
X5634956Y2413013D01*
X5631356Y2409413D01*
X5629408Y2404711D01*
Y2399620D01*
X5631356Y2394917D01*
X5634541Y2391732D01*
X5631356Y2388547D01*
X5629408Y2383844D01*
Y2378754D01*
X5631356Y2374051D01*
X5634956Y2370452D01*
X5639658Y2368504D01*
X5644749D01*
X5649452Y2370452D01*
X5650883Y2371883D01*
X5655883Y2370289D01*
X5657831Y2365587D01*
X5661016Y2362402D01*
X5657831Y2359216D01*
X5655883Y2354514D01*
Y2349423D01*
X5656955Y2346835D01*
X5654184Y2341835D01*
X5246717D01*
X5246197Y2342072D01*
X5245464Y2342099D01*
X5244959Y2342154D01*
X5244489Y2342244D01*
X5244045Y2342365D01*
X5243619Y2342519D01*
X5243204Y2342708D01*
X5242792Y2342937D01*
X5242378Y2343211D01*
X5241958Y2343538D01*
X5241397Y2344043D01*
X5240529Y2344350D01*
X5239363Y2345516D01*
X5233937Y2347764D01*
X5228063D01*
X5222637Y2345516D01*
X5218484Y2341363D01*
X5216236Y2335937D01*
Y2330063D01*
X5218484Y2324637D01*
X5222637Y2320484D01*
X5228063Y2318236D01*
X5233937D01*
X5239363Y2320484D01*
X5241025Y2322146D01*
X5241989Y2322546D01*
X5242505Y2323063D01*
X5242876Y2323381D01*
X5243239Y2323644D01*
X5243602Y2323863D01*
X5243970Y2324043D01*
X5244353Y2324191D01*
X5244760Y2324309D01*
X5245200Y2324396D01*
X5245684Y2324452D01*
X5246413Y2324479D01*
X5246930Y2324717D01*
X5772283D01*
X5772803Y2324479D01*
X5773536Y2324453D01*
X5774041Y2324397D01*
X5774511Y2324308D01*
X5774955Y2324187D01*
X5775381Y2324032D01*
X5775796Y2323843D01*
X5776208Y2323614D01*
X5776622Y2323340D01*
X5777042Y2323013D01*
X5777603Y2322508D01*
X5778471Y2322201D01*
X5779637Y2321035D01*
X5785063Y2318787D01*
X5790937D01*
X5796363Y2321035D01*
X5800516Y2325188D01*
X5802764Y2330615D01*
Y2336488D01*
X5800516Y2341914D01*
X5796363Y2346067D01*
X5790937Y2348315D01*
X5785063D01*
X5779637Y2346067D01*
X5777975Y2344405D01*
X5777011Y2344005D01*
X5776495Y2343488D01*
X5776124Y2343170D01*
X5775761Y2342907D01*
X5775398Y2342688D01*
X5775030Y2342508D01*
X5774647Y2342360D01*
X5774240Y2342243D01*
X5773800Y2342155D01*
X5773316Y2342099D01*
X5772587Y2342072D01*
X5772070Y2341835D01*
X5719256D01*
X5718262Y2346835D01*
X5718786Y2347052D01*
X5723814Y2352080D01*
X5725937Y2357205D01*
X5691386D01*
X5693508Y2352080D01*
X5698537Y2347052D01*
X5699061Y2346835D01*
X5698066Y2341835D01*
X5683172D01*
X5680401Y2346835D01*
X5681473Y2349423D01*
Y2354514D01*
X5679525Y2359216D01*
X5676340Y2362402D01*
X5679525Y2365587D01*
X5681473Y2370289D01*
Y2375380D01*
X5679525Y2380083D01*
X5675926Y2383682D01*
X5671223Y2385630D01*
X5666133D01*
X5661430Y2383682D01*
X5659999Y2382251D01*
X5654999Y2383844D01*
X5653051Y2388547D01*
X5649866Y2391732D01*
X5653051Y2394917D01*
X5654999Y2399620D01*
Y2404711D01*
X5653051Y2409413D01*
X5649452Y2413013D01*
X5644749Y2414961D01*
D02*
G37*
G36*
X5862781Y2306693D02*
X5857691D01*
X5852988Y2304745D01*
X5849389Y2301146D01*
X5847441Y2296443D01*
Y2292978D01*
X5842756Y2290591D01*
X5840302Y2293046D01*
X5833084Y2297213D01*
X5825866Y2299147D01*
Y2267716D01*
Y2236286D01*
X5833084Y2238220D01*
X5840302Y2242387D01*
X5846195Y2248281D01*
X5850362Y2255499D01*
X5850825Y2257224D01*
X5856754Y2260034D01*
X5857691Y2259646D01*
X5862781D01*
X5867484Y2261593D01*
X5871084Y2265193D01*
X5873032Y2269896D01*
Y2274986D01*
X5871084Y2279689D01*
X5867603Y2283169D01*
X5871084Y2286650D01*
X5873032Y2291352D01*
Y2296443D01*
X5871084Y2301146D01*
X5867484Y2304745D01*
X5862781Y2306693D01*
D02*
G37*
G36*
X5333645Y2554134D02*
X5327772D01*
X5322346Y2551886D01*
X5318193Y2547733D01*
X5315945Y2542307D01*
Y2540411D01*
X5315688Y2539885D01*
X5315608Y2539765D01*
X5315593Y2539692D01*
X5315550Y2539604D01*
X5315541Y2539458D01*
X5315470Y2539294D01*
X5315321Y2539020D01*
X5315088Y2538655D01*
X5314800Y2538260D01*
X5313796Y2537083D01*
X5313169Y2536434D01*
X5312977Y2535944D01*
X5061149Y2284116D01*
X3475001D01*
X3475000Y2284116D01*
X3471129Y2283346D01*
X3467847Y2281153D01*
X3467847Y2281153D01*
X2851847Y1665153D01*
X2849654Y1661871D01*
X2848884Y1658000D01*
Y1479234D01*
X2848675Y1478762D01*
X2848631Y1477046D01*
X2848520Y1475827D01*
X2848467Y1475497D01*
X2848415Y1475265D01*
X2848413Y1475263D01*
X2848412Y1475256D01*
X2848393Y1475192D01*
X2848314Y1475001D01*
X2848313Y1474800D01*
X2847318Y1473805D01*
X2845220Y1468741D01*
Y1463259D01*
X2847318Y1458195D01*
X2851195Y1454318D01*
X2856259Y1452220D01*
X2861741D01*
X2866805Y1454318D01*
X2870682Y1458195D01*
X2872780Y1463259D01*
Y1468741D01*
X2870682Y1473805D01*
X2869687Y1474800D01*
X2869686Y1475001D01*
X2869607Y1475192D01*
X2869588Y1475256D01*
X2869587Y1475263D01*
X2869585Y1475265D01*
X2869533Y1475497D01*
X2869488Y1475778D01*
X2869336Y1477867D01*
X2869326Y1478692D01*
X2869116Y1479184D01*
Y1653810D01*
X3479190Y2263884D01*
X5065339D01*
X5069210Y2264654D01*
X5072492Y2266847D01*
X5327232Y2521588D01*
X5327699Y2521761D01*
X5329078Y2523042D01*
X5329548Y2523425D01*
X5329993Y2523749D01*
X5330359Y2523983D01*
X5330632Y2524131D01*
X5330797Y2524202D01*
X5330943Y2524212D01*
X5331030Y2524254D01*
X5331104Y2524269D01*
X5331224Y2524349D01*
X5331749Y2524606D01*
X5333645D01*
X5339072Y2526854D01*
X5343225Y2531007D01*
X5345472Y2536433D01*
Y2542307D01*
X5343225Y2547733D01*
X5339072Y2551886D01*
X5333645Y2554134D01*
D02*
G37*
G36*
X5815866Y2299147D02*
X5808648Y2297213D01*
X5801430Y2293046D01*
X5795537Y2287152D01*
X5791370Y2279934D01*
X5789436Y2272716D01*
X5815866D01*
Y2299147D01*
D02*
G37*
G36*
X5995158Y2299147D02*
Y2272716D01*
X6021588D01*
X6019654Y2279934D01*
X6015487Y2287152D01*
X6009593Y2293046D01*
X6002375Y2297213D01*
X5995158Y2299147D01*
D02*
G37*
G36*
X2516697Y2356496D02*
X2505035D01*
X2493770Y2353478D01*
X2483671Y2347647D01*
X2475424Y2339400D01*
X2469593Y2329300D01*
X2466575Y2318036D01*
Y2306374D01*
X2469593Y2295109D01*
X2475424Y2285009D01*
X2483671Y2276763D01*
X2493770Y2270932D01*
X2505035Y2267913D01*
X2516697D01*
X2527962Y2270932D01*
X2538062Y2276763D01*
X2546308Y2285009D01*
X2552139Y2295109D01*
X2555157Y2306374D01*
Y2318036D01*
X2552139Y2329300D01*
X2546308Y2339400D01*
X2538062Y2347647D01*
X2527962Y2353478D01*
X2516697Y2356496D01*
D02*
G37*
G36*
X2416697D02*
X2405035D01*
X2393770Y2353478D01*
X2383671Y2347647D01*
X2375424Y2339400D01*
X2369593Y2329300D01*
X2366575Y2318036D01*
Y2306374D01*
X2369593Y2295109D01*
X2375424Y2285009D01*
X2383671Y2276763D01*
X2393770Y2270932D01*
X2405035Y2267913D01*
X2416697D01*
X2427962Y2270932D01*
X2438062Y2276763D01*
X2446308Y2285009D01*
X2452139Y2295109D01*
X2455157Y2306374D01*
Y2318036D01*
X2452139Y2329300D01*
X2446308Y2339400D01*
X2438062Y2347647D01*
X2427962Y2353478D01*
X2416697Y2356496D01*
D02*
G37*
G36*
X5617348Y2303071D02*
X5612258D01*
X5607555Y2301123D01*
X5603956Y2297524D01*
X5602008Y2292821D01*
Y2287731D01*
X5603956Y2283028D01*
X5607555Y2279428D01*
X5612258Y2277480D01*
X5616457D01*
Y2272731D01*
X5618405Y2268028D01*
X5622004Y2264428D01*
X5626707Y2262480D01*
X5631797D01*
X5636500Y2264428D01*
X5640099Y2268028D01*
X5642047Y2272731D01*
Y2277821D01*
X5640099Y2282524D01*
X5636500Y2286123D01*
X5631797Y2288071D01*
X5627598D01*
Y2292821D01*
X5625650Y2297524D01*
X5622051Y2301123D01*
X5617348Y2303071D01*
D02*
G37*
G36*
X5815866Y2262716D02*
X5789436D01*
X5791370Y2255499D01*
X5795537Y2248281D01*
X5801430Y2242387D01*
X5808648Y2238220D01*
X5815866Y2236286D01*
Y2262716D01*
D02*
G37*
G36*
X6021588Y2262716D02*
X5995158D01*
Y2236286D01*
X6002375Y2238220D01*
X6009593Y2242387D01*
X6015487Y2248281D01*
X6019654Y2255499D01*
X6021588Y2262716D01*
D02*
G37*
G36*
X5905512Y2239493D02*
X5899137Y2238225D01*
X5893732Y2234614D01*
X5890121Y2229210D01*
X5888853Y2222835D01*
Y2206299D01*
X5890121Y2199924D01*
X5893732Y2194520D01*
X5899137Y2190909D01*
X5905512Y2189640D01*
X5911887Y2190909D01*
X5917291Y2194520D01*
X5920902Y2199924D01*
X5922171Y2206299D01*
Y2222835D01*
X5920902Y2229210D01*
X5917291Y2234614D01*
X5911887Y2238225D01*
X5905512Y2239493D01*
D02*
G37*
G36*
X2516697Y2256496D02*
X2505035D01*
X2493770Y2253478D01*
X2483671Y2247647D01*
X2475424Y2239400D01*
X2469593Y2229300D01*
X2466575Y2218036D01*
Y2206374D01*
X2469593Y2195109D01*
X2475424Y2185009D01*
X2483671Y2176763D01*
X2493770Y2170932D01*
X2505035Y2167913D01*
X2516697D01*
X2527962Y2170932D01*
X2538062Y2176763D01*
X2546308Y2185009D01*
X2552139Y2195109D01*
X2555157Y2206374D01*
Y2218036D01*
X2552139Y2229300D01*
X2546308Y2239400D01*
X2538062Y2247647D01*
X2527962Y2253478D01*
X2516697Y2256496D01*
D02*
G37*
G36*
X2416697D02*
X2405035D01*
X2393770Y2253478D01*
X2383671Y2247647D01*
X2375424Y2239400D01*
X2369593Y2229300D01*
X2366575Y2218036D01*
Y2206374D01*
X2369593Y2195109D01*
X2375424Y2185009D01*
X2383671Y2176763D01*
X2393770Y2170932D01*
X2405035Y2167913D01*
X2416697D01*
X2427962Y2170932D01*
X2438062Y2176763D01*
X2446308Y2185009D01*
X2452139Y2195109D01*
X2455157Y2206374D01*
Y2218036D01*
X2452139Y2229300D01*
X2446308Y2239400D01*
X2438062Y2247647D01*
X2427962Y2253478D01*
X2416697Y2256496D01*
D02*
G37*
G36*
X4064581Y2199119D02*
X4058708D01*
X4053282Y2196872D01*
X4049128Y2192718D01*
X4046881Y2187292D01*
Y2181419D01*
X4049128Y2175992D01*
X4053282Y2171839D01*
X4054295Y2171420D01*
X4054295Y2166008D01*
X4051532Y2164863D01*
X4047932Y2161264D01*
X4045984Y2156561D01*
Y2151471D01*
X4047932Y2146768D01*
X4051532Y2143168D01*
X4054908Y2141770D01*
X4056234Y2141220D01*
X4059528Y2136988D01*
Y2135762D01*
X4061475Y2131059D01*
X4065075Y2127460D01*
X4069778Y2125512D01*
X4074868D01*
X4079571Y2127460D01*
X4083170Y2131059D01*
X4084980Y2135429D01*
X4086197Y2135833D01*
X4090118Y2136090D01*
X4090887Y2134234D01*
X4095040Y2130081D01*
X4100466Y2127833D01*
X4106340D01*
X4111766Y2130081D01*
X4115919Y2134234D01*
X4118167Y2139660D01*
Y2145534D01*
X4115919Y2150960D01*
X4111766Y2155113D01*
X4106340Y2157361D01*
X4100466D01*
X4095040Y2155113D01*
X4090887Y2150960D01*
X4088639Y2145534D01*
Y2145418D01*
X4083639Y2144423D01*
X4083170Y2145555D01*
X4079571Y2149155D01*
X4076194Y2150553D01*
X4076194Y2150553D01*
X4074868Y2151103D01*
X4071677Y2155203D01*
X4071575Y2155444D01*
Y2156561D01*
X4069627Y2161264D01*
X4066028Y2164863D01*
X4065764Y2164972D01*
X4066129Y2170233D01*
X4070008Y2171839D01*
X4074161Y2175992D01*
X4076408Y2181419D01*
Y2187292D01*
X4074161Y2192718D01*
X4070008Y2196872D01*
X4064581Y2199119D01*
D02*
G37*
G36*
X2417366Y2161575D02*
X2415866D01*
Y2117205D01*
X2460236D01*
Y2118704D01*
X2456872Y2131261D01*
X2450372Y2142519D01*
X2441180Y2151711D01*
X2429922Y2158210D01*
X2417366Y2161575D01*
D02*
G37*
G36*
X2405866D02*
X2404366D01*
X2391810Y2158210D01*
X2380552Y2151711D01*
X2371360Y2142519D01*
X2364860Y2131261D01*
X2361496Y2118704D01*
Y2117205D01*
X2405866D01*
Y2161575D01*
D02*
G37*
G36*
X3837837Y2142908D02*
X3831963D01*
X3826537Y2140660D01*
X3822384Y2136507D01*
X3820136Y2131081D01*
Y2125207D01*
X3822384Y2119781D01*
X3826537Y2115628D01*
X3831963Y2113380D01*
X3837837D01*
X3843263Y2115628D01*
X3847416Y2119781D01*
X3849664Y2125207D01*
Y2131081D01*
X3847416Y2136507D01*
X3843263Y2140660D01*
X3837837Y2142908D01*
D02*
G37*
G36*
X2516697Y2156496D02*
X2505035D01*
X2493770Y2153478D01*
X2483671Y2147647D01*
X2475424Y2139400D01*
X2469593Y2129300D01*
X2466575Y2118036D01*
Y2106374D01*
X2469593Y2095109D01*
X2475424Y2085009D01*
X2483671Y2076763D01*
X2493770Y2070932D01*
X2505035Y2067913D01*
X2516697D01*
X2527962Y2070932D01*
X2538062Y2076763D01*
X2546308Y2085009D01*
X2552139Y2095109D01*
X2555157Y2106374D01*
Y2118036D01*
X2552139Y2129300D01*
X2546308Y2139400D01*
X2538062Y2147647D01*
X2527962Y2153478D01*
X2516697Y2156496D01*
D02*
G37*
G36*
X2460236Y2107205D02*
X2415866D01*
Y2062835D01*
X2417366D01*
X2429922Y2066199D01*
X2441180Y2072699D01*
X2450372Y2081891D01*
X2456872Y2093149D01*
X2460236Y2105705D01*
Y2107205D01*
D02*
G37*
G36*
X2405866D02*
X2361496D01*
Y2105705D01*
X2364860Y2093149D01*
X2371360Y2081891D01*
X2380552Y2072699D01*
X2391810Y2066199D01*
X2404366Y2062835D01*
X2405866D01*
Y2107205D01*
D02*
G37*
G36*
X4175937Y2087764D02*
X4170063D01*
X4164637Y2085516D01*
X4160484Y2081363D01*
X4158236Y2075937D01*
Y2070063D01*
X4160484Y2064637D01*
X4164637Y2060484D01*
X4170063Y2058236D01*
X4175937D01*
X4181363Y2060484D01*
X4185516Y2064637D01*
X4187764Y2070063D01*
Y2075937D01*
X4185516Y2081363D01*
X4181363Y2085516D01*
X4175937Y2087764D01*
D02*
G37*
G36*
X4975378Y2152559D02*
X4969504D01*
X4964078Y2150311D01*
X4959925Y2146158D01*
X4957677Y2140732D01*
Y2134859D01*
X4959925Y2129432D01*
X4961266Y2128091D01*
X4961455Y2127539D01*
X4961484Y2127396D01*
X4961525Y2127334D01*
X4961557Y2127242D01*
X4961654Y2127132D01*
X4961719Y2126965D01*
X4961808Y2126668D01*
X4961901Y2126244D01*
X4961977Y2125761D01*
X4962099Y2124218D01*
X4962115Y2123317D01*
X4962325Y2122834D01*
Y2102362D01*
X4963095Y2098491D01*
X4965288Y2095209D01*
X5000721Y2059776D01*
X5004003Y2057583D01*
X5007874Y2056813D01*
X5532212D01*
X5532665Y2056606D01*
X5534544Y2056537D01*
X5535148Y2056475D01*
X5535693Y2056389D01*
X5536117Y2056296D01*
X5536414Y2056207D01*
X5536581Y2056142D01*
X5536691Y2056045D01*
X5536783Y2056014D01*
X5536845Y2055972D01*
X5536987Y2055943D01*
X5537540Y2055754D01*
X5538881Y2054413D01*
X5544307Y2052165D01*
X5550181D01*
X5555607Y2054413D01*
X5559760Y2058566D01*
X5562008Y2063992D01*
Y2069866D01*
X5559760Y2075292D01*
X5555607Y2079445D01*
X5550181Y2081693D01*
X5544307D01*
X5538881Y2079445D01*
X5537540Y2078104D01*
X5536987Y2077915D01*
X5536845Y2077886D01*
X5536783Y2077845D01*
X5536691Y2077813D01*
X5536581Y2077716D01*
X5536414Y2077651D01*
X5536117Y2077562D01*
X5535693Y2077469D01*
X5535210Y2077393D01*
X5533667Y2077271D01*
X5532766Y2077255D01*
X5532283Y2077045D01*
X5012064D01*
X4982557Y2106552D01*
Y2122763D01*
X4982764Y2123216D01*
X4982833Y2125095D01*
X4982895Y2125699D01*
X4982981Y2126244D01*
X4983074Y2126668D01*
X4983163Y2126965D01*
X4983228Y2127132D01*
X4983325Y2127242D01*
X4983356Y2127334D01*
X4983398Y2127396D01*
X4983427Y2127539D01*
X4983616Y2128091D01*
X4984957Y2129432D01*
X4987205Y2134859D01*
Y2140732D01*
X4984957Y2146158D01*
X4980804Y2150311D01*
X4975378Y2152559D01*
D02*
G37*
G36*
X3981378Y2052626D02*
Y2028958D01*
X3971378D01*
Y2052626D01*
X3962908Y2049117D01*
X3956219Y2042428D01*
X3952599Y2033688D01*
Y2024899D01*
X3943809D01*
X3935069Y2021278D01*
X3928380Y2014589D01*
X3924760Y2005849D01*
Y1997060D01*
X3915970D01*
X3907230Y1993440D01*
X3900541Y1986750D01*
X3896921Y1978010D01*
Y1969221D01*
X3888131D01*
X3879392Y1965601D01*
X3872702Y1958911D01*
X3869082Y1950171D01*
Y1941382D01*
X3860293D01*
X3851553Y1937762D01*
X3844863Y1931073D01*
X3841243Y1922333D01*
Y1913543D01*
X3832454D01*
X3823714Y1909923D01*
X3817024Y1903234D01*
X3813516Y1894764D01*
X3837184D01*
Y1884764D01*
X3813516D01*
X3817024Y1876294D01*
X3823714Y1869604D01*
X3832454Y1865984D01*
X3841243D01*
Y1857195D01*
X3844863Y1848455D01*
X3851553Y1841766D01*
X3860293Y1838145D01*
X3869082D01*
Y1829356D01*
X3872702Y1820616D01*
X3879392Y1813927D01*
X3888131Y1810307D01*
X3896921D01*
Y1801517D01*
X3900541Y1792777D01*
X3907230Y1786088D01*
X3915970Y1782468D01*
X3924760D01*
Y1773678D01*
X3928380Y1764938D01*
X3935069Y1758249D01*
X3943809Y1754629D01*
X3952599D01*
Y1745840D01*
X3956219Y1737100D01*
X3962908Y1730410D01*
X3971378Y1726902D01*
Y1750570D01*
X3981378D01*
Y1726902D01*
X3989848Y1730410D01*
X3996537Y1737100D01*
X4000157Y1745840D01*
Y1754629D01*
X4008947D01*
X4017687Y1758249D01*
X4024376Y1764938D01*
X4027996Y1773678D01*
Y1782468D01*
X4036786D01*
X4045526Y1786088D01*
X4052215Y1792777D01*
X4055835Y1801517D01*
Y1810307D01*
X4064624D01*
X4073365Y1813927D01*
X4080054Y1820616D01*
X4083674Y1829356D01*
Y1838145D01*
X4092463D01*
X4101203Y1841766D01*
X4107893Y1848455D01*
X4111513Y1857195D01*
Y1865984D01*
X4120302D01*
X4129042Y1869604D01*
X4135732Y1876294D01*
X4139240Y1884764D01*
X4115572D01*
Y1894764D01*
X4139240D01*
X4135732Y1903234D01*
X4129042Y1909923D01*
X4120302Y1913543D01*
X4111513D01*
Y1922333D01*
X4107893Y1931073D01*
X4101203Y1937762D01*
X4092463Y1941382D01*
X4083674D01*
Y1950171D01*
X4080054Y1958911D01*
X4073365Y1965601D01*
X4064624Y1969221D01*
X4055835D01*
Y1978010D01*
X4052215Y1986750D01*
X4045526Y1993440D01*
X4036786Y1997060D01*
X4027996D01*
Y2005849D01*
X4024376Y2014589D01*
X4017687Y2021278D01*
X4008947Y2024899D01*
X4000157D01*
Y2033688D01*
X3996537Y2042428D01*
X3989848Y2049117D01*
X3981378Y2052626D01*
D02*
G37*
G36*
X4217695Y2046005D02*
X4211822D01*
X4206395Y2043758D01*
X4202242Y2039605D01*
X4199994Y2034178D01*
Y2028305D01*
X4202242Y2022879D01*
X4206395Y2018726D01*
X4211822Y2016478D01*
X4217695D01*
X4223121Y2018726D01*
X4227274Y2022879D01*
X4229522Y2028305D01*
Y2034178D01*
X4227274Y2039605D01*
X4223121Y2043758D01*
X4217695Y2046005D01*
D02*
G37*
G36*
X3740401Y2045472D02*
X3734527D01*
X3729101Y2043224D01*
X3724948Y2039071D01*
X3722700Y2033645D01*
Y2027771D01*
X3724948Y2022345D01*
X3729101Y2018192D01*
X3734527Y2015944D01*
X3740401D01*
X3745827Y2018192D01*
X3749980Y2022345D01*
X3752228Y2027771D01*
Y2033645D01*
X3749980Y2039071D01*
X3745827Y2043224D01*
X3740401Y2045472D01*
D02*
G37*
G36*
X4165484Y2048787D02*
X4160394D01*
X4155691Y2046839D01*
X4152092Y2043239D01*
X4150144Y2038537D01*
Y2033446D01*
X4152092Y2028744D01*
X4155691Y2025144D01*
X4160394Y2023196D01*
X4165425D01*
Y2018305D01*
X4167373Y2013602D01*
X4170972Y2010002D01*
X4175675Y2008054D01*
X4180765D01*
X4185468Y2010002D01*
X4189067Y2013602D01*
X4191015Y2018305D01*
Y2023395D01*
X4189067Y2028098D01*
X4185468Y2031697D01*
X4180765Y2033645D01*
X4175734D01*
Y2038537D01*
X4173786Y2043239D01*
X4170187Y2046839D01*
X4165484Y2048787D01*
D02*
G37*
G36*
X3698642Y2003714D02*
X3692769D01*
X3687343Y2001466D01*
X3683190Y1997313D01*
X3680942Y1991887D01*
Y1986013D01*
X3683190Y1980587D01*
X3687343Y1976434D01*
X3692769Y1974186D01*
X3698642D01*
X3704069Y1976434D01*
X3708222Y1980587D01*
X3710470Y1986013D01*
Y1991887D01*
X3708222Y1997313D01*
X3704069Y2001466D01*
X3698642Y2003714D01*
D02*
G37*
G36*
X2516697Y2056496D02*
X2505035D01*
X2493770Y2053478D01*
X2483671Y2047647D01*
X2475424Y2039400D01*
X2469593Y2029301D01*
X2466575Y2018036D01*
Y2006374D01*
X2469593Y1995109D01*
X2475424Y1985009D01*
X2483671Y1976763D01*
X2493770Y1970932D01*
X2505035Y1967913D01*
X2516697D01*
X2527962Y1970932D01*
X2538062Y1976763D01*
X2546308Y1985009D01*
X2552139Y1995109D01*
X2555157Y2006374D01*
Y2018036D01*
X2552139Y2029301D01*
X2546308Y2039400D01*
X2538062Y2047647D01*
X2527962Y2053478D01*
X2516697Y2056496D01*
D02*
G37*
G36*
X2416697D02*
X2405035D01*
X2393770Y2053478D01*
X2383671Y2047647D01*
X2375424Y2039400D01*
X2369593Y2029301D01*
X2366575Y2018036D01*
Y2006374D01*
X2369593Y1995109D01*
X2375424Y1985009D01*
X2383671Y1976763D01*
X2393770Y1970932D01*
X2405035Y1967913D01*
X2416697D01*
X2427962Y1970932D01*
X2438062Y1976763D01*
X2446308Y1985009D01*
X2452139Y1995109D01*
X2455157Y2006374D01*
Y2018036D01*
X2452139Y2029301D01*
X2446308Y2039400D01*
X2438062Y2047647D01*
X2427962Y2053478D01*
X2416697Y2056496D01*
D02*
G37*
G36*
X3634827Y1993110D02*
X3628953D01*
X3623527Y1990863D01*
X3619374Y1986709D01*
X3617126Y1981283D01*
Y1975410D01*
X3619374Y1969984D01*
X3623527Y1965830D01*
X3628953Y1963583D01*
X3634827D01*
X3640253Y1965830D01*
X3644406Y1969984D01*
X3646654Y1975410D01*
Y1981283D01*
X3644406Y1986709D01*
X3640253Y1990863D01*
X3634827Y1993110D01*
D02*
G37*
G36*
X2517366Y1961575D02*
X2515866D01*
Y1917205D01*
X2560236D01*
Y1918704D01*
X2556872Y1931261D01*
X2550372Y1942519D01*
X2541180Y1951711D01*
X2529922Y1958210D01*
X2517366Y1961575D01*
D02*
G37*
G36*
X2505866D02*
X2504366D01*
X2491810Y1958210D01*
X2480552Y1951711D01*
X2471360Y1942519D01*
X2464860Y1931261D01*
X2461496Y1918704D01*
Y1917205D01*
X2505866D01*
Y1961575D01*
D02*
G37*
G36*
X4388764Y1936024D02*
X4382890D01*
X4377464Y1933776D01*
X4373311Y1929623D01*
X4371063Y1924197D01*
Y1918323D01*
X4373311Y1912897D01*
X4377464Y1908744D01*
X4382890Y1906496D01*
X4388764D01*
X4394190Y1908744D01*
X4398343Y1912897D01*
X4400591Y1918323D01*
Y1924197D01*
X4398343Y1929623D01*
X4394190Y1933776D01*
X4388764Y1936024D01*
D02*
G37*
G36*
X3680102Y1932087D02*
X3674229D01*
X3668802Y1929839D01*
X3664649Y1925686D01*
X3662402Y1920259D01*
Y1914386D01*
X3664649Y1908960D01*
X3668802Y1904807D01*
X3674229Y1902559D01*
X3680102D01*
X3685528Y1904807D01*
X3689682Y1908960D01*
X3691929Y1914386D01*
Y1920259D01*
X3689682Y1925686D01*
X3685528Y1929839D01*
X3680102Y1932087D01*
D02*
G37*
G36*
X5909075Y1937205D02*
X5901949D01*
X5895365Y1934477D01*
X5890326Y1929438D01*
X5887598Y1922854D01*
Y1915728D01*
X5890326Y1909144D01*
X5895365Y1904105D01*
X5901949Y1901378D01*
X5909075D01*
X5915659Y1904105D01*
X5920698Y1909144D01*
X5923425Y1915728D01*
Y1922854D01*
X5920698Y1929438D01*
X5915659Y1934477D01*
X5909075Y1937205D01*
D02*
G37*
G36*
X5815866Y1897572D02*
X5808648Y1895638D01*
X5801430Y1891471D01*
X5795537Y1885577D01*
X5791370Y1878360D01*
X5789436Y1871142D01*
X5815866D01*
Y1897572D01*
D02*
G37*
G36*
X5995158Y1897572D02*
Y1871141D01*
X6021588D01*
X6019654Y1878360D01*
X6015487Y1885577D01*
X6009593Y1891471D01*
X6002375Y1895638D01*
X5995158Y1897572D01*
D02*
G37*
G36*
X5985158D02*
X5977940Y1895638D01*
X5970722Y1891471D01*
X5964828Y1885577D01*
X5960661Y1878360D01*
X5958727Y1871141D01*
X5985158D01*
Y1897572D01*
D02*
G37*
G36*
X2416697Y1956496D02*
X2405035D01*
X2393770Y1953478D01*
X2383671Y1947647D01*
X2375424Y1939400D01*
X2369593Y1929301D01*
X2366575Y1918036D01*
Y1906374D01*
X2369593Y1895109D01*
X2375424Y1885009D01*
X2383671Y1876763D01*
X2393770Y1870932D01*
X2405035Y1867913D01*
X2416697D01*
X2427962Y1870932D01*
X2438062Y1876763D01*
X2446308Y1885009D01*
X2452139Y1895109D01*
X2455157Y1906374D01*
Y1918036D01*
X2452139Y1929301D01*
X2446308Y1939400D01*
X2438062Y1947647D01*
X2427962Y1953478D01*
X2416697Y1956496D01*
D02*
G37*
G36*
X2560236Y1907205D02*
X2515866D01*
Y1862835D01*
X2517366D01*
X2529922Y1866199D01*
X2541180Y1872699D01*
X2550372Y1881891D01*
X2556872Y1893149D01*
X2560236Y1905705D01*
Y1907205D01*
D02*
G37*
G36*
X2505866D02*
X2461496D01*
Y1905705D01*
X2464860Y1893149D01*
X2471360Y1881891D01*
X2480552Y1872699D01*
X2491810Y1866199D01*
X2504366Y1862835D01*
X2505866D01*
Y1907205D01*
D02*
G37*
G36*
X5815866Y1861142D02*
X5789436D01*
X5791370Y1853924D01*
X5795537Y1846706D01*
X5801430Y1840813D01*
X5808648Y1836645D01*
X5815866Y1834711D01*
Y1861142D01*
D02*
G37*
G36*
X6021588Y1861141D02*
X5995158D01*
Y1834711D01*
X6002375Y1836645D01*
X6009593Y1840813D01*
X6015487Y1846706D01*
X6019654Y1853924D01*
X6021588Y1861141D01*
D02*
G37*
G36*
X5985158D02*
X5958727D01*
X5960661Y1853924D01*
X5964828Y1846706D01*
X5970722Y1840813D01*
X5977940Y1836645D01*
X5985158Y1834711D01*
Y1861141D01*
D02*
G37*
G36*
X5910876Y1873622D02*
X5905786D01*
X5901083Y1871674D01*
X5897483Y1868075D01*
X5895535Y1863372D01*
Y1858282D01*
X5897483Y1853579D01*
X5900668Y1850394D01*
X5897483Y1847209D01*
X5895535Y1842506D01*
Y1837416D01*
X5897483Y1832713D01*
X5901083Y1829113D01*
X5905786Y1827165D01*
X5910876D01*
X5915579Y1829113D01*
X5919178Y1832713D01*
X5921126Y1837416D01*
Y1842506D01*
X5919178Y1847209D01*
X5915993Y1850394D01*
X5919178Y1853579D01*
X5921126Y1858282D01*
Y1863372D01*
X5919178Y1868075D01*
X5915579Y1871674D01*
X5910876Y1873622D01*
D02*
G37*
G36*
X5825866Y1897572D02*
Y1866142D01*
Y1834711D01*
X5833084Y1836645D01*
X5840302Y1840813D01*
X5842756Y1843267D01*
X5847441Y1840881D01*
Y1837416D01*
X5849389Y1832713D01*
X5852988Y1829113D01*
X5857691Y1827165D01*
X5862781D01*
X5867484Y1829113D01*
X5871084Y1832713D01*
X5873032Y1837416D01*
Y1842506D01*
X5871084Y1847209D01*
X5867899Y1850394D01*
X5871084Y1853579D01*
X5873032Y1858282D01*
Y1863372D01*
X5871084Y1868075D01*
X5867484Y1871674D01*
X5862781Y1873622D01*
X5857691D01*
X5856896Y1873293D01*
X5850949Y1876168D01*
X5850362Y1878360D01*
X5846195Y1885577D01*
X5840302Y1891471D01*
X5833084Y1895638D01*
X5825866Y1897572D01*
D02*
G37*
G36*
X3704708Y1837598D02*
X3698835D01*
X3693409Y1835351D01*
X3689256Y1831198D01*
X3687008Y1825771D01*
Y1819898D01*
X3689256Y1814472D01*
X3693409Y1810319D01*
X3698835Y1808071D01*
X3704708D01*
X3710135Y1810319D01*
X3714288Y1814472D01*
X3716535Y1819898D01*
Y1825771D01*
X3714288Y1831198D01*
X3710135Y1835351D01*
X3704708Y1837598D01*
D02*
G37*
G36*
X4248937Y1815764D02*
X4243063D01*
X4237637Y1813516D01*
X4233484Y1809363D01*
X4231236Y1803937D01*
Y1798063D01*
X4233484Y1792637D01*
X4237637Y1788484D01*
X4243063Y1786236D01*
X4248937D01*
X4254363Y1788484D01*
X4258516Y1792637D01*
X4260764Y1798063D01*
Y1803937D01*
X4258516Y1809363D01*
X4254363Y1813516D01*
X4248937Y1815764D01*
D02*
G37*
G36*
X3674937Y1812764D02*
X3669063D01*
X3663637Y1810516D01*
X3659484Y1806363D01*
X3657236Y1800937D01*
Y1795063D01*
X3659484Y1789637D01*
X3663637Y1785484D01*
X3669063Y1783236D01*
X3674937D01*
X3680363Y1785484D01*
X3684516Y1789637D01*
X3686764Y1795063D01*
Y1800937D01*
X3684516Y1806363D01*
X3680363Y1810516D01*
X3674937Y1812764D01*
D02*
G37*
G36*
X5908057Y1798228D02*
X5902967D01*
X5898264Y1796281D01*
X5894664Y1792681D01*
X5892717Y1787978D01*
Y1782888D01*
X5892841Y1782589D01*
X5888602Y1779756D01*
X5883055Y1785303D01*
X5880450Y1787043D01*
X5877378Y1787654D01*
X5876547D01*
X5876127Y1787879D01*
X5875960Y1787829D01*
X5875801Y1787902D01*
X5875239Y1787923D01*
X5875019Y1787950D01*
X5874414Y1788494D01*
X5873847Y1789862D01*
X5870248Y1793462D01*
X5865545Y1795409D01*
X5860455D01*
X5855752Y1793462D01*
X5852153Y1789862D01*
X5850205Y1785159D01*
Y1780069D01*
X5852153Y1775366D01*
X5855700Y1771819D01*
X5852153Y1768272D01*
X5850205Y1763569D01*
Y1758478D01*
X5852153Y1753776D01*
X5855752Y1750176D01*
X5860455Y1748228D01*
X5865545D01*
X5868546Y1746223D01*
Y1738671D01*
X5869158Y1735599D01*
X5870898Y1732994D01*
X5885860Y1718032D01*
X5888465Y1716291D01*
X5891537Y1715680D01*
X5891538Y1715680D01*
X5930135D01*
X5931623Y1713084D01*
X5932502Y1710680D01*
X5930763Y1706482D01*
Y1701392D01*
X5932711Y1696689D01*
X5933062Y1696337D01*
X5936292Y1693071D01*
X5933062Y1689804D01*
X5932711Y1689453D01*
X5930763Y1684750D01*
Y1679660D01*
X5932711Y1674957D01*
X5936310Y1671357D01*
X5941013Y1669409D01*
X5946103D01*
X5950806Y1671357D01*
X5953504Y1674055D01*
X5957577Y1673194D01*
X5958605Y1672623D01*
X5960661Y1664947D01*
X5964828Y1657730D01*
X5970722Y1651836D01*
X5977940Y1647669D01*
X5985158Y1645735D01*
Y1677165D01*
Y1708596D01*
X5977940Y1706662D01*
X5970722Y1702494D01*
X5964828Y1696601D01*
X5960661Y1689383D01*
X5960341Y1688189D01*
X5955072Y1687843D01*
X5954406Y1689453D01*
X5954054Y1689804D01*
X5950825Y1693071D01*
X5954054Y1696337D01*
X5954406Y1696689D01*
X5956354Y1701392D01*
Y1706482D01*
X5954565Y1710801D01*
X5954504Y1711436D01*
X5956398Y1716264D01*
X5956535Y1716291D01*
X5959140Y1718032D01*
X5972866Y1731758D01*
X5974606Y1734362D01*
X5975217Y1737435D01*
X5975217Y1737435D01*
Y1763361D01*
X5974606Y1766433D01*
X5972866Y1769037D01*
X5972866Y1769038D01*
X5956600Y1785303D01*
X5953996Y1787043D01*
X5950924Y1787654D01*
X5943516D01*
X5943078Y1787884D01*
X5942936Y1787840D01*
X5942801Y1787902D01*
X5942239Y1787923D01*
X5942008Y1787951D01*
X5942004Y1787960D01*
X5941342Y1788534D01*
X5940847Y1789728D01*
X5937248Y1793328D01*
X5932545Y1795276D01*
X5927455D01*
X5922752Y1793328D01*
X5921869Y1792445D01*
X5916359Y1792681D01*
X5912760Y1796281D01*
X5908057Y1798228D01*
D02*
G37*
G36*
X5713661Y1788929D02*
Y1776653D01*
X5725937D01*
X5723814Y1781778D01*
X5718786Y1786806D01*
X5713661Y1788929D01*
D02*
G37*
G36*
X5703661D02*
X5698537Y1786806D01*
X5693508Y1781778D01*
X5691386Y1776653D01*
X5703661D01*
Y1788929D01*
D02*
G37*
G36*
X2516697Y1856496D02*
X2505035D01*
X2493770Y1853478D01*
X2483671Y1847647D01*
X2475424Y1839400D01*
X2469593Y1829301D01*
X2466575Y1818036D01*
Y1806374D01*
X2469593Y1795109D01*
X2475424Y1785009D01*
X2483671Y1776763D01*
X2493770Y1770932D01*
X2505035Y1767913D01*
X2516697D01*
X2527962Y1770932D01*
X2538062Y1776763D01*
X2546308Y1785009D01*
X2552139Y1795109D01*
X2555157Y1806374D01*
Y1818036D01*
X2552139Y1829301D01*
X2546308Y1839400D01*
X2538062Y1847647D01*
X2527962Y1853478D01*
X2516697Y1856496D01*
D02*
G37*
G36*
X2416697D02*
X2405035D01*
X2393770Y1853478D01*
X2383671Y1847647D01*
X2375424Y1839400D01*
X2369593Y1829301D01*
X2366575Y1818036D01*
Y1806374D01*
X2369593Y1795109D01*
X2375424Y1785009D01*
X2383671Y1776763D01*
X2393770Y1770932D01*
X2405035Y1767913D01*
X2416697D01*
X2427962Y1770932D01*
X2438062Y1776763D01*
X2446308Y1785009D01*
X2452139Y1795109D01*
X2455157Y1806374D01*
Y1818036D01*
X2452139Y1829301D01*
X2446308Y1839400D01*
X2438062Y1847647D01*
X2427962Y1853478D01*
X2416697Y1856496D01*
D02*
G37*
G36*
X5725937Y1766653D02*
X5713661D01*
Y1754378D01*
X5718786Y1756501D01*
X5723814Y1761529D01*
X5725937Y1766653D01*
D02*
G37*
G36*
X5703661D02*
X5691386D01*
X5693508Y1761529D01*
X5698537Y1756501D01*
X5703661Y1754378D01*
Y1766653D01*
D02*
G37*
G36*
X5643532Y1825000D02*
X5638441D01*
X5633739Y1823052D01*
X5630139Y1819453D01*
X5628191Y1814750D01*
Y1809660D01*
X5630139Y1804957D01*
X5630352Y1804744D01*
X5632752Y1800611D01*
X5629153Y1797012D01*
X5627205Y1792309D01*
Y1787219D01*
X5629153Y1782516D01*
X5632752Y1778916D01*
X5637455Y1776968D01*
X5642545D01*
X5647248Y1778916D01*
X5650847Y1782516D01*
X5650883Y1782601D01*
X5655883Y1781606D01*
Y1780132D01*
X5657831Y1775429D01*
X5658340Y1774920D01*
X5661272Y1771653D01*
X5658340Y1768387D01*
X5657831Y1767878D01*
X5655883Y1763175D01*
Y1758085D01*
X5657831Y1753382D01*
X5661430Y1749783D01*
X5666133Y1747835D01*
X5671223D01*
X5675926Y1749783D01*
X5679525Y1753382D01*
X5681473Y1758085D01*
Y1763175D01*
X5679525Y1767878D01*
X5679016Y1768387D01*
X5676084Y1771654D01*
X5679016Y1774920D01*
X5679525Y1775429D01*
X5681473Y1780132D01*
Y1785222D01*
X5679525Y1789925D01*
X5675926Y1793525D01*
X5671223Y1795473D01*
X5666133D01*
X5661430Y1793525D01*
X5657831Y1789925D01*
X5657795Y1789840D01*
X5652795Y1790835D01*
Y1792309D01*
X5650847Y1797012D01*
X5650635Y1797225D01*
X5648235Y1801357D01*
X5651834Y1804957D01*
X5653782Y1809660D01*
Y1814750D01*
X5651834Y1819453D01*
X5648234Y1823052D01*
X5643532Y1825000D01*
D02*
G37*
G36*
X3731283Y1810039D02*
X3725410D01*
X3719983Y1807792D01*
X3715830Y1803639D01*
X3713583Y1798212D01*
Y1792339D01*
X3715830Y1786913D01*
X3719983Y1782759D01*
X3721892Y1781969D01*
X3721208Y1777409D01*
X3721019Y1776918D01*
X3715715Y1774721D01*
X3711562Y1770568D01*
X3709314Y1765142D01*
Y1759269D01*
X3711562Y1753842D01*
X3715715Y1749689D01*
X3721142Y1747441D01*
X3727015D01*
X3732441Y1749689D01*
X3736594Y1753842D01*
X3738842Y1759269D01*
Y1765142D01*
X3736594Y1770568D01*
X3732441Y1774721D01*
X3730533Y1775512D01*
X3731217Y1780072D01*
X3731405Y1780562D01*
X3736709Y1782759D01*
X3740863Y1786913D01*
X3743110Y1792339D01*
Y1798212D01*
X3740863Y1803639D01*
X3736709Y1807792D01*
X3731283Y1810039D01*
D02*
G37*
G36*
X5789947Y1752953D02*
X5784856D01*
X5780154Y1751005D01*
X5776554Y1747406D01*
X5774606Y1742703D01*
Y1737612D01*
X5776554Y1732909D01*
X5780154Y1729310D01*
X5784856Y1727362D01*
X5789947D01*
X5794650Y1729310D01*
X5798249Y1732909D01*
X5800197Y1737612D01*
Y1742703D01*
X5798249Y1747406D01*
X5794650Y1751005D01*
X5789947Y1752953D01*
D02*
G37*
G36*
X4148937Y1748764D02*
X4143063D01*
X4137637Y1746516D01*
X4133484Y1742363D01*
X4131236Y1736937D01*
Y1731063D01*
X4133484Y1725637D01*
X4137637Y1721484D01*
X4143063Y1719236D01*
X4148937D01*
X4154363Y1721484D01*
X4158516Y1725637D01*
X4160764Y1731063D01*
Y1736937D01*
X4158516Y1742363D01*
X4154363Y1746516D01*
X4148937Y1748764D01*
D02*
G37*
G36*
X2517366Y1761575D02*
X2515866D01*
Y1717205D01*
X2560236D01*
Y1718704D01*
X2556872Y1731261D01*
X2550372Y1742519D01*
X2541180Y1751711D01*
X2529922Y1758210D01*
X2517366Y1761575D01*
D02*
G37*
G36*
X2505866D02*
X2504366D01*
X2491810Y1758210D01*
X2480552Y1751711D01*
X2471360Y1742519D01*
X2464860Y1731261D01*
X2461496Y1718704D01*
Y1717205D01*
X2505866D01*
Y1761575D01*
D02*
G37*
G36*
X4223017Y1757480D02*
X4217927D01*
X4213224Y1755532D01*
X4209625Y1751933D01*
X4207677Y1747230D01*
Y1742140D01*
X4209625Y1737437D01*
X4212712Y1734350D01*
X4209625Y1731264D01*
X4207677Y1726561D01*
Y1721471D01*
X4209625Y1716768D01*
X4213224Y1713168D01*
X4217927Y1711220D01*
X4223017D01*
X4227720Y1713168D01*
X4231320Y1716768D01*
X4233268Y1721471D01*
Y1726561D01*
X4231320Y1731264D01*
X4228233Y1734350D01*
X4231320Y1737437D01*
X4233268Y1742140D01*
Y1747230D01*
X4231320Y1751933D01*
X4227720Y1755532D01*
X4223017Y1757480D01*
D02*
G37*
G36*
X5862781Y1716732D02*
X5857691D01*
X5852988Y1714784D01*
X5849389Y1711185D01*
X5847441Y1706482D01*
Y1702426D01*
X5844488Y1700486D01*
X5842821Y1699975D01*
X5840302Y1702494D01*
X5833084Y1706662D01*
X5825866Y1708596D01*
Y1677165D01*
Y1645735D01*
X5833084Y1647669D01*
X5840302Y1651836D01*
X5846195Y1657730D01*
X5850362Y1664947D01*
X5850891Y1666921D01*
X5856830Y1669766D01*
X5857691Y1669409D01*
X5862781D01*
X5867484Y1671357D01*
X5871084Y1674957D01*
X5873032Y1679660D01*
Y1684750D01*
X5871084Y1689453D01*
X5870732Y1689804D01*
X5867503Y1693071D01*
X5870732Y1696337D01*
X5871084Y1696689D01*
X5873032Y1701392D01*
Y1706482D01*
X5871084Y1711185D01*
X5867484Y1714784D01*
X5862781Y1716732D01*
D02*
G37*
G36*
X5815866Y1708596D02*
X5808648Y1706662D01*
X5801430Y1702494D01*
X5795537Y1696601D01*
X5791370Y1689383D01*
X5789436Y1682165D01*
X5815866D01*
Y1708596D01*
D02*
G37*
G36*
X5995158D02*
Y1682165D01*
X6021588D01*
X6019654Y1689383D01*
X6015487Y1696601D01*
X6009593Y1702494D01*
X6002375Y1706662D01*
X5995158Y1708596D01*
D02*
G37*
G36*
X5617270Y1712598D02*
X5612179D01*
X5607476Y1710650D01*
X5603877Y1707051D01*
X5601929Y1702348D01*
Y1697258D01*
X5603877Y1692555D01*
X5607476Y1688956D01*
X5612179Y1687008D01*
X5616535D01*
Y1682101D01*
X5618483Y1677398D01*
X5622083Y1673798D01*
X5626786Y1671850D01*
X5631876D01*
X5636579Y1673798D01*
X5640178Y1677398D01*
X5642126Y1682101D01*
Y1687191D01*
X5640178Y1691894D01*
X5636579Y1695493D01*
X5631876Y1697441D01*
X5627520D01*
Y1702348D01*
X5625572Y1707051D01*
X5621972Y1710650D01*
X5617270Y1712598D01*
D02*
G37*
G36*
X2416697Y1756496D02*
X2405035D01*
X2393770Y1753478D01*
X2383671Y1747647D01*
X2375424Y1739400D01*
X2369593Y1729301D01*
X2366575Y1718036D01*
Y1706374D01*
X2369593Y1695109D01*
X2375424Y1685009D01*
X2383671Y1676763D01*
X2393770Y1670932D01*
X2405035Y1667913D01*
X2416697D01*
X2427962Y1670932D01*
X2438062Y1676763D01*
X2446308Y1685009D01*
X2452139Y1695109D01*
X2455157Y1706374D01*
Y1718036D01*
X2452139Y1729301D01*
X2446308Y1739400D01*
X2438062Y1747647D01*
X2427962Y1753478D01*
X2416697Y1756496D01*
D02*
G37*
G36*
X5758451Y1689961D02*
X5753360D01*
X5748658Y1688013D01*
X5745058Y1684413D01*
X5743110Y1679710D01*
Y1674620D01*
X5745058Y1669917D01*
X5748658Y1666318D01*
X5753360Y1664370D01*
X5758451D01*
X5763154Y1666318D01*
X5766753Y1669917D01*
X5768701Y1674620D01*
Y1679710D01*
X5766753Y1684413D01*
X5763154Y1688013D01*
X5758451Y1689961D01*
D02*
G37*
G36*
X2560236Y1707205D02*
X2515866D01*
Y1662835D01*
X2517366D01*
X2529922Y1666199D01*
X2541180Y1672699D01*
X2550372Y1681891D01*
X2556872Y1693149D01*
X2560236Y1705705D01*
Y1707205D01*
D02*
G37*
G36*
X2505866D02*
X2461496D01*
Y1705705D01*
X2464860Y1693149D01*
X2471360Y1681891D01*
X2480552Y1672699D01*
X2491810Y1666199D01*
X2504366Y1662835D01*
X2505866D01*
Y1707205D01*
D02*
G37*
G36*
X6021588Y1672165D02*
X5995158D01*
Y1645735D01*
X6002375Y1647669D01*
X6009593Y1651836D01*
X6015487Y1657730D01*
X6019654Y1664947D01*
X6021588Y1672165D01*
D02*
G37*
G36*
X5815866Y1672165D02*
X5789436D01*
X5791370Y1664947D01*
X5795537Y1657730D01*
X5801430Y1651836D01*
X5808648Y1647669D01*
X5815866Y1645735D01*
Y1672165D01*
D02*
G37*
G36*
X4106873Y1652228D02*
X4101000D01*
X4095573Y1649980D01*
X4091420Y1645827D01*
X4089173Y1640401D01*
Y1634527D01*
X4091420Y1629101D01*
X4095573Y1624948D01*
X4101000Y1622700D01*
X4106873D01*
X4112300Y1624948D01*
X4116453Y1629101D01*
X4118700Y1634527D01*
Y1640401D01*
X4116453Y1645827D01*
X4112300Y1649980D01*
X4106873Y1652228D01*
D02*
G37*
G36*
X4069866Y1647716D02*
X4063992D01*
X4058566Y1645469D01*
X4054413Y1641316D01*
X4052165Y1635889D01*
Y1630016D01*
X4054413Y1624590D01*
X4058566Y1620437D01*
X4063992Y1618189D01*
X4069866D01*
X4075292Y1620437D01*
X4079445Y1624590D01*
X4081693Y1630016D01*
Y1635889D01*
X4079445Y1641316D01*
X4075292Y1645469D01*
X4069866Y1647716D01*
D02*
G37*
G36*
X5905512Y1648942D02*
X5899137Y1647674D01*
X5893732Y1644063D01*
X5890121Y1638658D01*
X5888853Y1632283D01*
Y1615748D01*
X5890121Y1609373D01*
X5893732Y1603968D01*
X5899137Y1600357D01*
X5905512Y1599089D01*
X5911887Y1600357D01*
X5917291Y1603968D01*
X5920902Y1609373D01*
X5922171Y1615748D01*
Y1632283D01*
X5920902Y1638658D01*
X5917291Y1644063D01*
X5911887Y1647674D01*
X5905512Y1648942D01*
D02*
G37*
G36*
X2416697Y1656496D02*
X2405035D01*
X2393770Y1653478D01*
X2383671Y1647647D01*
X2375424Y1639400D01*
X2369593Y1629301D01*
X2366575Y1618036D01*
Y1606374D01*
X2369593Y1595109D01*
X2375424Y1585009D01*
X2383671Y1576763D01*
X2393770Y1570932D01*
X2405035Y1567913D01*
X2416697D01*
X2427962Y1570932D01*
X2438062Y1576763D01*
X2446308Y1585009D01*
X2452139Y1595109D01*
X2455157Y1606374D01*
Y1618036D01*
X2452139Y1629301D01*
X2446308Y1639400D01*
X2438062Y1647647D01*
X2427962Y1653478D01*
X2416697Y1656496D01*
D02*
G37*
G36*
X5908449Y1538386D02*
X5902575D01*
X5897149Y1536138D01*
X5892996Y1531985D01*
X5890748Y1526559D01*
Y1520685D01*
X5892996Y1515259D01*
X5897149Y1511106D01*
X5902575Y1508858D01*
X5908449D01*
X5913875Y1511106D01*
X5918028Y1515259D01*
X5920276Y1520685D01*
Y1526559D01*
X5918028Y1531985D01*
X5913875Y1536138D01*
X5908449Y1538386D01*
D02*
G37*
G36*
X2516697Y1556496D02*
X2505035D01*
X2493770Y1553478D01*
X2483671Y1547647D01*
X2475424Y1539400D01*
X2469593Y1529301D01*
X2466575Y1518036D01*
Y1506374D01*
X2469593Y1495109D01*
X2475424Y1485009D01*
X2483671Y1476763D01*
X2493770Y1470932D01*
X2505035Y1467913D01*
X2516697D01*
X2527962Y1470932D01*
X2538062Y1476763D01*
X2546308Y1485009D01*
X2552139Y1495109D01*
X2555157Y1506374D01*
Y1518036D01*
X2552139Y1529301D01*
X2546308Y1539400D01*
X2538062Y1547647D01*
X2527962Y1553478D01*
X2516697Y1556496D01*
D02*
G37*
G36*
X2416697D02*
X2405035D01*
X2393770Y1553478D01*
X2383671Y1547647D01*
X2375424Y1539400D01*
X2369593Y1529301D01*
X2366575Y1518036D01*
Y1506374D01*
X2369593Y1495109D01*
X2375424Y1485009D01*
X2383671Y1476763D01*
X2393770Y1470932D01*
X2405035Y1467913D01*
X2416697D01*
X2427962Y1470932D01*
X2438062Y1476763D01*
X2446308Y1485009D01*
X2452139Y1495109D01*
X2455157Y1506374D01*
Y1518036D01*
X2452139Y1529301D01*
X2446308Y1539400D01*
X2438062Y1547647D01*
X2427962Y1553478D01*
X2416697Y1556496D01*
D02*
G37*
G36*
X5333645Y2310039D02*
X5327772D01*
X5322346Y2307792D01*
X5318193Y2303639D01*
X5315945Y2298212D01*
Y2296316D01*
X5315688Y2295791D01*
X5315608Y2295671D01*
X5315593Y2295597D01*
X5315550Y2295510D01*
X5315541Y2295364D01*
X5315470Y2295199D01*
X5315321Y2294925D01*
X5315088Y2294560D01*
X5314800Y2294165D01*
X5313796Y2292988D01*
X5313169Y2292340D01*
X5312977Y2291849D01*
X5258243Y2237116D01*
X3631000D01*
X3627129Y2236346D01*
X3623847Y2234153D01*
X2938847Y1549153D01*
X2936654Y1545871D01*
X2935884Y1542000D01*
Y1487234D01*
X2935675Y1486762D01*
X2935631Y1485046D01*
X2935520Y1483827D01*
X2935467Y1483497D01*
X2935415Y1483265D01*
X2935413Y1483263D01*
X2935412Y1483256D01*
X2935393Y1483192D01*
X2935314Y1483001D01*
X2935313Y1482800D01*
X2934318Y1481805D01*
X2932220Y1476741D01*
Y1471259D01*
X2934318Y1466195D01*
X2938195Y1462318D01*
X2943259Y1460220D01*
X2948741D01*
X2953805Y1462318D01*
X2957682Y1466195D01*
X2959780Y1471259D01*
Y1476741D01*
X2957682Y1481805D01*
X2956687Y1482800D01*
X2956686Y1483001D01*
X2956607Y1483192D01*
X2956588Y1483256D01*
X2956587Y1483263D01*
X2956585Y1483265D01*
X2956533Y1483497D01*
X2956488Y1483778D01*
X2956336Y1485867D01*
X2956326Y1486692D01*
X2956116Y1487184D01*
Y1537810D01*
X3635190Y2216884D01*
X5262433D01*
X5266304Y2217654D01*
X5269586Y2219847D01*
X5327232Y2277494D01*
X5327699Y2277667D01*
X5329078Y2278948D01*
X5329548Y2279330D01*
X5329993Y2279655D01*
X5330359Y2279889D01*
X5330632Y2280037D01*
X5330797Y2280108D01*
X5330943Y2280117D01*
X5331030Y2280160D01*
X5331104Y2280175D01*
X5331224Y2280255D01*
X5331749Y2280512D01*
X5333645D01*
X5339072Y2282760D01*
X5343225Y2286913D01*
X5345472Y2292339D01*
Y2298212D01*
X5343225Y2303639D01*
X5339072Y2307792D01*
X5333645Y2310039D01*
D02*
G37*
G36*
X2417366Y1461575D02*
X2415866D01*
Y1417205D01*
X2460236D01*
Y1418704D01*
X2456872Y1431261D01*
X2450372Y1442519D01*
X2441180Y1451711D01*
X2429922Y1458210D01*
X2417366Y1461575D01*
D02*
G37*
G36*
X2405866D02*
X2404366D01*
X2391810Y1458210D01*
X2380552Y1451711D01*
X2371360Y1442519D01*
X2364860Y1431261D01*
X2361496Y1418704D01*
Y1417205D01*
X2405866D01*
Y1461575D01*
D02*
G37*
G36*
X2516697Y1456496D02*
X2505035D01*
X2493770Y1453478D01*
X2483671Y1447647D01*
X2475424Y1439400D01*
X2469593Y1429301D01*
X2466575Y1418036D01*
Y1406374D01*
X2469593Y1395109D01*
X2475424Y1385009D01*
X2483671Y1376763D01*
X2493770Y1370932D01*
X2505035Y1367913D01*
X2516697D01*
X2527962Y1370932D01*
X2538062Y1376763D01*
X2546308Y1385009D01*
X2552139Y1395109D01*
X2555157Y1406374D01*
Y1418036D01*
X2552139Y1429301D01*
X2546308Y1439400D01*
X2538062Y1447647D01*
X2527962Y1453478D01*
X2516697Y1456496D01*
D02*
G37*
G36*
X2460236Y1407205D02*
X2415866D01*
Y1362835D01*
X2417366D01*
X2429922Y1366199D01*
X2441180Y1372699D01*
X2450372Y1381891D01*
X2456872Y1393149D01*
X2460236Y1405705D01*
Y1407205D01*
D02*
G37*
G36*
X2405866D02*
X2361496D01*
Y1405705D01*
X2364860Y1393149D01*
X2371360Y1381891D01*
X2380552Y1372699D01*
X2391810Y1366199D01*
X2404366Y1362835D01*
X2405866D01*
Y1407205D01*
D02*
G37*
G36*
X1565201Y1348583D02*
X1560118D01*
Y1225472D01*
X1683228D01*
Y1230555D01*
X1680074Y1250472D01*
X1673842Y1269650D01*
X1664688Y1287617D01*
X1652835Y1303931D01*
X1638576Y1318189D01*
X1622263Y1330042D01*
X1604295Y1339197D01*
X1585117Y1345428D01*
X1565201Y1348583D01*
D02*
G37*
G36*
X1550118D02*
X1545036D01*
X1525119Y1345428D01*
X1505941Y1339197D01*
X1487974Y1330042D01*
X1471660Y1318189D01*
X1457401Y1303931D01*
X1445549Y1287617D01*
X1436394Y1269650D01*
X1430162Y1250472D01*
X1427008Y1230555D01*
Y1225472D01*
X1550118D01*
Y1348583D01*
D02*
G37*
G36*
X2470712D02*
X2465630D01*
Y1225472D01*
X2588740D01*
Y1230555D01*
X2585586Y1250472D01*
X2579354Y1269650D01*
X2570200Y1287617D01*
X2558347Y1303931D01*
X2544088Y1318189D01*
X2527774Y1330042D01*
X2509807Y1339197D01*
X2490629Y1345428D01*
X2470712Y1348583D01*
D02*
G37*
G36*
X2455630D02*
X2450547D01*
X2430631Y1345428D01*
X2411453Y1339197D01*
X2393485Y1330042D01*
X2377172Y1318189D01*
X2362913Y1303931D01*
X2351060Y1287617D01*
X2341906Y1269650D01*
X2335674Y1250472D01*
X2332520Y1230555D01*
Y1225472D01*
X2455630D01*
Y1348583D01*
D02*
G37*
G36*
X5915594Y1309213D02*
X5910512D01*
Y1186102D01*
X6033622D01*
Y1191185D01*
X6030467Y1211102D01*
X6024236Y1230280D01*
X6015081Y1248247D01*
X6003229Y1264561D01*
X5988970Y1278819D01*
X5972656Y1290672D01*
X5954689Y1299827D01*
X5935511Y1306058D01*
X5915594Y1309213D01*
D02*
G37*
G36*
X5900512D02*
X5895429D01*
X5875513Y1306058D01*
X5856335Y1299827D01*
X5838367Y1290672D01*
X5822054Y1278819D01*
X5807795Y1264561D01*
X5795942Y1248247D01*
X5786788Y1230280D01*
X5780556Y1211102D01*
X5777402Y1191185D01*
Y1186102D01*
X5900512D01*
Y1309213D01*
D02*
G37*
G36*
X1191185D02*
X1186102D01*
Y1186102D01*
X1309213D01*
Y1191185D01*
X1306058Y1211102D01*
X1299827Y1230280D01*
X1290672Y1248247D01*
X1278819Y1264561D01*
X1264561Y1278819D01*
X1248247Y1290672D01*
X1230280Y1299827D01*
X1211102Y1306058D01*
X1191185Y1309213D01*
D02*
G37*
G36*
X1176102D02*
X1171020D01*
X1151103Y1306058D01*
X1131925Y1299827D01*
X1113958Y1290672D01*
X1097644Y1278819D01*
X1083385Y1264561D01*
X1071533Y1248247D01*
X1062378Y1230280D01*
X1056147Y1211102D01*
X1052992Y1191185D01*
Y1186102D01*
X1176102D01*
Y1309213D01*
D02*
G37*
G36*
X2588740Y1215472D02*
X2465630D01*
Y1092362D01*
X2470712D01*
X2490629Y1095517D01*
X2509807Y1101748D01*
X2527774Y1110903D01*
X2544088Y1122755D01*
X2558347Y1137014D01*
X2570200Y1153328D01*
X2579354Y1171295D01*
X2585586Y1190473D01*
X2588740Y1210390D01*
Y1215472D01*
D02*
G37*
G36*
X2455630D02*
X2332520D01*
Y1210390D01*
X2335674Y1190473D01*
X2341906Y1171295D01*
X2351060Y1153328D01*
X2362913Y1137014D01*
X2377172Y1122755D01*
X2393485Y1110903D01*
X2411453Y1101748D01*
X2430631Y1095517D01*
X2450547Y1092362D01*
X2455630D01*
Y1215472D01*
D02*
G37*
G36*
X1683228Y1215472D02*
X1560118D01*
Y1092362D01*
X1565201D01*
X1585117Y1095517D01*
X1604295Y1101748D01*
X1622263Y1110903D01*
X1638576Y1122755D01*
X1652835Y1137014D01*
X1664688Y1153328D01*
X1673842Y1171295D01*
X1680074Y1190473D01*
X1683228Y1210390D01*
Y1215472D01*
D02*
G37*
G36*
X1550118D02*
X1427008D01*
Y1210390D01*
X1430162Y1190473D01*
X1436394Y1171295D01*
X1445549Y1153328D01*
X1457401Y1137014D01*
X1471660Y1122755D01*
X1487974Y1110903D01*
X1505941Y1101748D01*
X1525119Y1095517D01*
X1545036Y1092362D01*
X1550118D01*
Y1215472D01*
D02*
G37*
G36*
X6033622Y1176102D02*
X5910512D01*
Y1052992D01*
X5915594D01*
X5935511Y1056147D01*
X5954689Y1062378D01*
X5972656Y1071533D01*
X5988970Y1083385D01*
X6003229Y1097644D01*
X6015081Y1113958D01*
X6024236Y1131925D01*
X6030467Y1151103D01*
X6033622Y1171020D01*
Y1176102D01*
D02*
G37*
G36*
X5900512D02*
X5777402D01*
Y1171020D01*
X5780556Y1151103D01*
X5786788Y1131925D01*
X5795942Y1113958D01*
X5807795Y1097644D01*
X5822054Y1083385D01*
X5838367Y1071533D01*
X5856335Y1062378D01*
X5875513Y1056147D01*
X5895429Y1052992D01*
X5900512D01*
Y1176102D01*
D02*
G37*
G36*
X1309213D02*
X1186102D01*
Y1052992D01*
X1191185D01*
X1211102Y1056147D01*
X1230280Y1062378D01*
X1248247Y1071533D01*
X1264561Y1083385D01*
X1278819Y1097644D01*
X1290672Y1113958D01*
X1299827Y1131925D01*
X1306058Y1151103D01*
X1309213Y1171020D01*
Y1176102D01*
D02*
G37*
G36*
X1176102D02*
X1052992D01*
Y1171020D01*
X1056147Y1151103D01*
X1062378Y1131925D01*
X1071533Y1113958D01*
X1083385Y1097644D01*
X1097644Y1083385D01*
X1113958Y1071533D01*
X1131925Y1062378D01*
X1151103Y1056147D01*
X1171020Y1052992D01*
X1176102D01*
Y1176102D01*
D02*
G37*
%LPD*%
G36*
X3874352Y4946427D02*
X3873799Y4947025D01*
X3873199Y4947560D01*
X3872550Y4948033D01*
X3871854Y4948442D01*
X3871110Y4948788D01*
X3870318Y4949072D01*
X3869477Y4949292D01*
X3868589Y4949449D01*
X3867654Y4949544D01*
X3866670Y4949575D01*
X3867333Y4957449D01*
X3868309Y4957477D01*
X3869247Y4957558D01*
X3870148Y4957694D01*
X3871012Y4957884D01*
X3871838Y4958128D01*
X3872628Y4958427D01*
X3873379Y4958780D01*
X3874094Y4959188D01*
X3874771Y4959650D01*
X3875411Y4960166D01*
X3874352Y4946427D01*
D02*
G37*
G36*
X3830738Y4139931D02*
X3830827Y4138994D01*
X3830974Y4138099D01*
X3831181Y4137245D01*
X3831447Y4136435D01*
X3831772Y4135666D01*
X3832155Y4134940D01*
X3832599Y4134255D01*
X3833100Y4133613D01*
X3833661Y4133013D01*
X3819882D01*
X3820443Y4133613D01*
X3820945Y4134255D01*
X3821388Y4134940D01*
X3821772Y4135666D01*
X3822097Y4136435D01*
X3822362Y4137245D01*
X3822569Y4138099D01*
X3822717Y4138994D01*
X3822805Y4139931D01*
X3822835Y4140911D01*
X3830709D01*
X3830738Y4139931D01*
D02*
G37*
G36*
X3269969Y4801019D02*
X3270737Y4788477D01*
X3271239Y4785097D01*
X3271864Y4782118D01*
X3272612Y4779538D01*
X3273484Y4777358D01*
X3274478Y4775579D01*
X3275596Y4774200D01*
X3272060Y4770664D01*
X3270681Y4771782D01*
X3268902Y4772776D01*
X3266722Y4773648D01*
X3264142Y4774396D01*
X3261162Y4775021D01*
X3257782Y4775523D01*
X3249822Y4776158D01*
X3240261Y4776301D01*
X3269959Y4805999D01*
X3269969Y4801019D01*
D02*
G37*
G36*
Y4701019D02*
X3270737Y4688477D01*
X3271239Y4685097D01*
X3271864Y4682118D01*
X3272612Y4679538D01*
X3273484Y4677358D01*
X3274478Y4675579D01*
X3275596Y4674200D01*
X3272060Y4670664D01*
X3270681Y4671782D01*
X3268902Y4672776D01*
X3266722Y4673648D01*
X3264142Y4674396D01*
X3261162Y4675021D01*
X3257782Y4675523D01*
X3249822Y4676158D01*
X3240261Y4676301D01*
X3269959Y4705999D01*
X3269969Y4701019D01*
D02*
G37*
G36*
X4118880Y4417638D02*
X4118702Y4417851D01*
X4118459Y4418042D01*
X4118150Y4418210D01*
X4117777Y4418356D01*
X4117339Y4418479D01*
X4116836Y4418580D01*
X4116268Y4418659D01*
X4114936Y4418749D01*
X4114173Y4418760D01*
Y4423760D01*
X4114755Y4423774D01*
X4115282Y4423816D01*
X4115754Y4423885D01*
X4116171Y4423983D01*
X4116534Y4424109D01*
X4116843Y4424262D01*
X4117096Y4424443D01*
X4117296Y4424652D01*
X4117440Y4424890D01*
X4117530Y4425154D01*
X4118880Y4417638D01*
D02*
G37*
G36*
X3982434Y4385813D02*
X3981687Y4384959D01*
X3981029Y4384109D01*
X3980458Y4383263D01*
X3979975Y4382421D01*
X3979580Y4381584D01*
X3979273Y4380751D01*
X3979054Y4379921D01*
X3978922Y4379096D01*
X3978878Y4378276D01*
X3973878D01*
X3973834Y4379096D01*
X3973702Y4379921D01*
X3973483Y4380751D01*
X3973176Y4381584D01*
X3972781Y4382421D01*
X3972298Y4383263D01*
X3971727Y4384109D01*
X3971069Y4384959D01*
X3970322Y4385813D01*
X3969488Y4386672D01*
X3983268D01*
X3982434Y4385813D01*
D02*
G37*
G36*
X3876267Y4663779D02*
X3875930Y4664079D01*
X3875536Y4664346D01*
X3875086Y4664583D01*
X3874579Y4664787D01*
X3874015Y4664961D01*
X3873394Y4665102D01*
X3872717Y4665213D01*
X3871984Y4665291D01*
X3870346Y4665354D01*
Y4673228D01*
X3871193Y4673244D01*
X3872717Y4673370D01*
X3873394Y4673480D01*
X3874015Y4673622D01*
X3874579Y4673795D01*
X3875086Y4674000D01*
X3875536Y4674236D01*
X3875930Y4674504D01*
X3876267Y4674803D01*
Y4663779D01*
D02*
G37*
G36*
X3879608Y4575096D02*
X3880001Y4574828D01*
X3880452Y4574592D01*
X3880959Y4574387D01*
X3881523Y4574214D01*
X3882143Y4574072D01*
X3882820Y4573962D01*
X3883554Y4573883D01*
X3885191Y4573820D01*
Y4565946D01*
X3884344Y4565931D01*
X3882820Y4565805D01*
X3882143Y4565694D01*
X3881523Y4565553D01*
X3880959Y4565379D01*
X3880452Y4565175D01*
X3880001Y4564938D01*
X3879608Y4564671D01*
X3879271Y4564372D01*
Y4575395D01*
X3879608Y4575096D01*
D02*
G37*
G36*
X5452772Y3762665D02*
X5452898Y3761141D01*
X5453008Y3760464D01*
X5453150Y3759843D01*
X5453323Y3759280D01*
X5453528Y3758773D01*
X5453764Y3758322D01*
X5454032Y3757929D01*
X5454331Y3757592D01*
X5443307D01*
X5443606Y3757929D01*
X5443874Y3758322D01*
X5444110Y3758773D01*
X5444315Y3759280D01*
X5444488Y3759843D01*
X5444630Y3760464D01*
X5444740Y3761141D01*
X5444819Y3761875D01*
X5444882Y3763512D01*
X5452756D01*
X5452772Y3762665D01*
D02*
G37*
G36*
X5444050Y3620595D02*
X5445217Y3619606D01*
X5445774Y3619205D01*
X5446313Y3618867D01*
X5446834Y3618591D01*
X5447337Y3618377D01*
X5447823Y3618226D01*
X5448290Y3618137D01*
X5448740Y3618110D01*
X5440945Y3610315D01*
X5440918Y3610765D01*
X5440829Y3611233D01*
X5440678Y3611718D01*
X5440464Y3612221D01*
X5440188Y3612742D01*
X5439850Y3613281D01*
X5439449Y3613838D01*
X5438986Y3614412D01*
X5437873Y3615615D01*
X5443440Y3621183D01*
X5444050Y3620595D01*
D02*
G37*
G36*
X2541737Y3337146D02*
X2544599Y3334803D01*
X2547570Y3332736D01*
X2550647Y3330945D01*
X2553832Y3329429D01*
X2557124Y3328189D01*
X2560524Y3327224D01*
X2564031Y3326535D01*
X2567646Y3326122D01*
X2571368Y3325984D01*
Y3298425D01*
X2567646Y3298287D01*
X2564031Y3297874D01*
X2560524Y3297185D01*
X2557124Y3296220D01*
X2553832Y3294980D01*
X2550647Y3293465D01*
X2547570Y3291673D01*
X2544599Y3289606D01*
X2541737Y3287264D01*
X2538982Y3284646D01*
Y3339764D01*
X2541737Y3337146D01*
D02*
G37*
G36*
X5323680Y3123032D02*
X5323273Y3123391D01*
X5322793Y3123712D01*
X5322240Y3123995D01*
X5321614Y3124241D01*
X5320915Y3124449D01*
X5320143Y3124619D01*
X5319298Y3124751D01*
X5318380Y3124846D01*
X5316325Y3124921D01*
Y3134921D01*
X5317389Y3134940D01*
X5319298Y3135091D01*
X5320143Y3135224D01*
X5320915Y3135394D01*
X5321614Y3135602D01*
X5322240Y3135847D01*
X5322793Y3136131D01*
X5323273Y3136452D01*
X5323680Y3136811D01*
Y3123032D01*
D02*
G37*
G36*
X2795012Y1826642D02*
X2795192Y1824159D01*
X2795300Y1823490D01*
X2795432Y1822899D01*
X2795588Y1822388D01*
X2795769Y1821955D01*
X2795973Y1821601D01*
X2796201Y1821326D01*
X2783799D01*
X2784027Y1821601D01*
X2784231Y1821955D01*
X2784412Y1822388D01*
X2784568Y1822899D01*
X2784700Y1823490D01*
X2784808Y1824159D01*
X2784952Y1825735D01*
X2785000Y1827627D01*
X2795000D01*
X2795012Y1826642D01*
D02*
G37*
G36*
X5477706Y2989186D02*
X5476967Y2988421D01*
X5475724Y2986964D01*
X5475220Y2986273D01*
X5474795Y2985607D01*
X5474448Y2984966D01*
X5474179Y2984349D01*
X5473988Y2983758D01*
X5473876Y2983191D01*
X5473842Y2982650D01*
X5464098Y2992393D01*
X5464640Y2992427D01*
X5465207Y2992539D01*
X5465798Y2992730D01*
X5466414Y2992999D01*
X5467056Y2993346D01*
X5467722Y2993772D01*
X5468413Y2994276D01*
X5469129Y2994858D01*
X5470635Y2996257D01*
X5477706Y2989186D01*
D02*
G37*
G36*
X5937775Y2966083D02*
X5938042Y2965579D01*
X5938376Y2965134D01*
X5938776Y2964749D01*
X5939241Y2964422D01*
X5939773Y2964155D01*
X5940370Y2963948D01*
X5941033Y2963800D01*
X5941762Y2963711D01*
X5942557Y2963681D01*
X5941643Y2957776D01*
X5940299Y2957768D01*
X5934275Y2957418D01*
X5933611Y2957309D01*
X5932574Y2957047D01*
X5937573Y2966646D01*
X5937775Y2966083D01*
D02*
G37*
G36*
X5870775D02*
X5871042Y2965579D01*
X5871376Y2965134D01*
X5871776Y2964749D01*
X5872241Y2964422D01*
X5872773Y2964155D01*
X5873370Y2963948D01*
X5874033Y2963800D01*
X5874762Y2963711D01*
X5875557Y2963681D01*
X5874643Y2957776D01*
X5873299Y2957768D01*
X5867275Y2957418D01*
X5866611Y2957309D01*
X5865574Y2957047D01*
X5870573Y2966646D01*
X5870775Y2966083D01*
D02*
G37*
G36*
X5873115Y2943387D02*
X5872688Y2943385D01*
X5871062Y2943288D01*
X5870947Y2943258D01*
X5870877Y2943224D01*
X5870852Y2943186D01*
X5868827Y2949075D01*
X5873115Y2949292D01*
Y2943387D01*
D02*
G37*
G36*
X5933044Y2951083D02*
X5933611Y2950959D01*
X5935036Y2950755D01*
X5936850Y2950609D01*
X5941643Y2950492D01*
X5942557Y2944587D01*
X5941762Y2944557D01*
X5941033Y2944468D01*
X5940370Y2944320D01*
X5939773Y2944112D01*
X5939241Y2943845D01*
X5938776Y2943519D01*
X5938376Y2943134D01*
X5938042Y2942689D01*
X5937775Y2942185D01*
X5937573Y2941622D01*
X5932574Y2951221D01*
X5933044Y2951083D01*
D02*
G37*
G36*
X5781167Y2917019D02*
X5780463Y2917652D01*
X5779734Y2918219D01*
X5778979Y2918719D01*
X5778199Y2919153D01*
X5777395Y2919520D01*
X5776565Y2919820D01*
X5775710Y2920053D01*
X5774830Y2920220D01*
X5773924Y2920320D01*
X5772994Y2920354D01*
X5772786Y2927300D01*
X5773722Y2927335D01*
X5774628Y2927440D01*
X5775504Y2927614D01*
X5776349Y2927859D01*
X5777164Y2928173D01*
X5777948Y2928557D01*
X5778702Y2929011D01*
X5779425Y2929535D01*
X5780118Y2930129D01*
X5780781Y2930793D01*
X5781167Y2917019D01*
D02*
G37*
G36*
X5238537Y2930001D02*
X5239266Y2929434D01*
X5240021Y2928934D01*
X5240801Y2928501D01*
X5241605Y2928134D01*
X5242435Y2927834D01*
X5243290Y2927600D01*
X5244170Y2927433D01*
X5245076Y2927333D01*
X5246006Y2927300D01*
X5246214Y2920354D01*
X5245278Y2920319D01*
X5244372Y2920214D01*
X5243496Y2920039D01*
X5242651Y2919795D01*
X5241836Y2919480D01*
X5241052Y2919096D01*
X5240298Y2918642D01*
X5239575Y2918118D01*
X5238882Y2917525D01*
X5238219Y2916861D01*
X5237833Y2930635D01*
X5238537Y2930001D01*
D02*
G37*
G36*
X5323680Y2878937D02*
X5323273Y2879296D01*
X5322793Y2879617D01*
X5322240Y2879901D01*
X5321614Y2880147D01*
X5320915Y2880354D01*
X5320143Y2880524D01*
X5319298Y2880657D01*
X5318380Y2880751D01*
X5316325Y2880827D01*
Y2890827D01*
X5317389Y2890846D01*
X5319298Y2890997D01*
X5320143Y2891129D01*
X5320915Y2891299D01*
X5321614Y2891507D01*
X5322240Y2891753D01*
X5322793Y2892036D01*
X5323273Y2892358D01*
X5323680Y2892717D01*
Y2878937D01*
D02*
G37*
G36*
X2543308Y1635477D02*
X2555125Y1625326D01*
X2558677Y1622844D01*
X2562037Y1620814D01*
X2565202Y1619235D01*
X2568175Y1618107D01*
X2570954Y1617430D01*
X2573539Y1617205D01*
Y1607205D01*
X2570954Y1606979D01*
X2568175Y1606302D01*
X2565202Y1605174D01*
X2562037Y1603595D01*
X2558677Y1601565D01*
X2555125Y1599083D01*
X2551379Y1596151D01*
X2543308Y1588932D01*
X2538982Y1584646D01*
Y1639764D01*
X2543308Y1635477D01*
D02*
G37*
G36*
X4978972Y2720911D02*
X4978650Y2720431D01*
X4978367Y2719878D01*
X4978121Y2719252D01*
X4977913Y2718553D01*
X4977743Y2717781D01*
X4977611Y2716936D01*
X4977516Y2716018D01*
X4977441Y2713963D01*
X4967441D01*
X4967422Y2715027D01*
X4967271Y2716936D01*
X4967139Y2717781D01*
X4966968Y2718553D01*
X4966761Y2719252D01*
X4966515Y2719878D01*
X4966231Y2720431D01*
X4965910Y2720911D01*
X4965551Y2721318D01*
X4979331D01*
X4978972Y2720911D01*
D02*
G37*
G36*
X5540215Y2650591D02*
X5539808Y2650950D01*
X5539328Y2651271D01*
X5538775Y2651554D01*
X5538149Y2651800D01*
X5537450Y2652008D01*
X5536678Y2652178D01*
X5535833Y2652310D01*
X5534916Y2652405D01*
X5532861Y2652480D01*
Y2662480D01*
X5533925Y2662499D01*
X5535833Y2662650D01*
X5536678Y2662783D01*
X5537450Y2662953D01*
X5538149Y2663161D01*
X5538775Y2663406D01*
X5539328Y2663690D01*
X5539808Y2664011D01*
X5540215Y2664370D01*
Y2650591D01*
D02*
G37*
G36*
X5477355Y2399727D02*
X5476620Y2398961D01*
X5475401Y2397499D01*
X5474917Y2396803D01*
X5474517Y2396131D01*
X5474202Y2395482D01*
X5473970Y2394856D01*
X5473822Y2394253D01*
X5473759Y2393674D01*
X5473779Y2393118D01*
X5463078Y2401799D01*
X5463580Y2401882D01*
X5464111Y2402038D01*
X5464672Y2402268D01*
X5465263Y2402572D01*
X5465883Y2402949D01*
X5466532Y2403399D01*
X5467920Y2404522D01*
X5468658Y2405193D01*
X5469425Y2405939D01*
X5477355Y2399727D01*
D02*
G37*
G36*
X5966500Y2386589D02*
X5966182Y2387039D01*
X5965781Y2387442D01*
X5965298Y2387797D01*
X5964732Y2388105D01*
X5964083Y2388366D01*
X5963352Y2388579D01*
X5962538Y2388745D01*
X5961641Y2388863D01*
X5960662Y2388934D01*
X5959600Y2388958D01*
X5962613Y2398958D01*
X5963699Y2398968D01*
X5967243Y2399206D01*
X5967928Y2399315D01*
X5969059Y2399593D01*
X5969504Y2399762D01*
X5969869Y2399951D01*
X5966500Y2386589D01*
D02*
G37*
G36*
X5937524Y2375560D02*
X5937864Y2375050D01*
X5938260Y2374600D01*
X5938713Y2374210D01*
X5939221Y2373880D01*
X5939784Y2373610D01*
X5940404Y2373400D01*
X5941079Y2373250D01*
X5941811Y2373160D01*
X5942598Y2373130D01*
X5942063Y2367224D01*
X5940932Y2367211D01*
X5937871Y2367006D01*
X5936962Y2366882D01*
X5935308Y2366554D01*
X5934564Y2366349D01*
X5933876Y2366116D01*
X5933243Y2365856D01*
X5937239Y2376130D01*
X5937524Y2375560D01*
D02*
G37*
G36*
X5870524D02*
X5870864Y2375050D01*
X5871260Y2374600D01*
X5871713Y2374210D01*
X5872221Y2373880D01*
X5872784Y2373610D01*
X5873404Y2373400D01*
X5874079Y2373250D01*
X5874811Y2373160D01*
X5875598Y2373130D01*
X5875063Y2367224D01*
X5873932Y2367211D01*
X5870871Y2367006D01*
X5869962Y2366882D01*
X5868308Y2366554D01*
X5867564Y2366349D01*
X5866876Y2366116D01*
X5866243Y2365856D01*
X5870239Y2376130D01*
X5870524Y2375560D01*
D02*
G37*
G36*
X5873115Y2352835D02*
X5872690Y2352828D01*
X5871973Y2352773D01*
X5871682Y2352724D01*
X5871435Y2352662D01*
X5871234Y2352585D01*
X5871077Y2352495D01*
X5870964Y2352391D01*
X5870897Y2352273D01*
X5870874Y2352140D01*
X5867520Y2358613D01*
X5873115Y2358741D01*
Y2352835D01*
D02*
G37*
G36*
X5781167Y2326467D02*
X5780463Y2327101D01*
X5779734Y2327668D01*
X5778979Y2328168D01*
X5778199Y2328602D01*
X5777395Y2328969D01*
X5776565Y2329269D01*
X5775710Y2329502D01*
X5774830Y2329669D01*
X5773924Y2329769D01*
X5772994Y2329802D01*
X5772786Y2336749D01*
X5773722Y2336784D01*
X5774628Y2336889D01*
X5775504Y2337063D01*
X5776349Y2337308D01*
X5777164Y2337622D01*
X5777948Y2338006D01*
X5778702Y2338460D01*
X5779425Y2338984D01*
X5780118Y2339578D01*
X5780781Y2340241D01*
X5781167Y2326467D01*
D02*
G37*
G36*
X5238537Y2339450D02*
X5239266Y2338883D01*
X5240021Y2338383D01*
X5240801Y2337949D01*
X5241605Y2337583D01*
X5242435Y2337282D01*
X5243290Y2337049D01*
X5244170Y2336882D01*
X5245076Y2336782D01*
X5246006Y2336749D01*
X5246214Y2329802D01*
X5245278Y2329767D01*
X5244372Y2329663D01*
X5243496Y2329488D01*
X5242651Y2329244D01*
X5241836Y2328929D01*
X5241052Y2328545D01*
X5240298Y2328091D01*
X5239575Y2327567D01*
X5238882Y2326973D01*
X5238219Y2326310D01*
X5237833Y2340084D01*
X5238537Y2339450D01*
D02*
G37*
G36*
X5330610Y2529528D02*
X5330069Y2529494D01*
X5329502Y2529382D01*
X5328911Y2529191D01*
X5328294Y2528923D01*
X5327653Y2528575D01*
X5326987Y2528150D01*
X5326296Y2527646D01*
X5325580Y2527064D01*
X5324074Y2525664D01*
X5317003Y2532735D01*
X5317742Y2533501D01*
X5318984Y2534957D01*
X5319488Y2535648D01*
X5319914Y2536314D01*
X5320261Y2536956D01*
X5320530Y2537572D01*
X5320721Y2538164D01*
X5320833Y2538730D01*
X5320867Y2539272D01*
X5330610Y2529528D01*
D02*
G37*
G36*
X2864012Y1477642D02*
X2864192Y1475159D01*
X2864300Y1474490D01*
X2864432Y1473899D01*
X2864588Y1473388D01*
X2864769Y1472955D01*
X2864973Y1472601D01*
X2865201Y1472326D01*
X2852799D01*
X2853027Y1472601D01*
X2853231Y1472955D01*
X2853412Y1473388D01*
X2853568Y1473899D01*
X2853700Y1474490D01*
X2853808Y1475159D01*
X2853952Y1476735D01*
X2854000Y1478627D01*
X2864000D01*
X2864012Y1477642D01*
D02*
G37*
G36*
X4978972Y2130359D02*
X4978650Y2129879D01*
X4978367Y2129327D01*
X4978121Y2128700D01*
X4977913Y2128002D01*
X4977743Y2127230D01*
X4977611Y2126385D01*
X4977516Y2125467D01*
X4977441Y2123412D01*
X4967441D01*
X4967422Y2124476D01*
X4967271Y2126385D01*
X4967139Y2127230D01*
X4966968Y2128002D01*
X4966761Y2128700D01*
X4966515Y2129327D01*
X4966231Y2129879D01*
X4965910Y2130359D01*
X4965551Y2130766D01*
X4979331D01*
X4978972Y2130359D01*
D02*
G37*
G36*
X5540215Y2060039D02*
X5539808Y2060398D01*
X5539328Y2060720D01*
X5538775Y2061003D01*
X5538149Y2061249D01*
X5537450Y2061457D01*
X5536678Y2061627D01*
X5535833Y2061759D01*
X5534916Y2061854D01*
X5532861Y2061929D01*
Y2071929D01*
X5533925Y2071948D01*
X5535833Y2072099D01*
X5536678Y2072231D01*
X5537450Y2072401D01*
X5538149Y2072609D01*
X5538775Y2072855D01*
X5539328Y2073139D01*
X5539808Y2073460D01*
X5540215Y2073819D01*
Y2060039D01*
D02*
G37*
G36*
X5870567Y1785009D02*
X5870897Y1784499D01*
X5871284Y1784049D01*
X5871729Y1783659D01*
X5872230Y1783329D01*
X5872789Y1783059D01*
X5873406Y1782849D01*
X5874079Y1782699D01*
X5874810Y1782609D01*
X5875598Y1782579D01*
X5875009Y1776673D01*
X5873860Y1776660D01*
X5869838Y1776350D01*
X5868977Y1776208D01*
X5867428Y1775846D01*
X5866741Y1775626D01*
X5866111Y1775381D01*
X5870294Y1785580D01*
X5870567Y1785009D01*
D02*
G37*
G36*
X5937524Y1785009D02*
X5937864Y1784499D01*
X5938260Y1784049D01*
X5938713Y1783659D01*
X5939221Y1783329D01*
X5939784Y1783059D01*
X5940404Y1782849D01*
X5941079Y1782699D01*
X5941811Y1782609D01*
X5942598Y1782579D01*
X5942063Y1776673D01*
X5940932Y1776660D01*
X5937871Y1776454D01*
X5936962Y1776331D01*
X5935308Y1776003D01*
X5934564Y1775798D01*
X5933876Y1775565D01*
X5933243Y1775305D01*
X5937239Y1785579D01*
X5937524Y1785009D01*
D02*
G37*
G36*
X5873115Y1762284D02*
X5872684Y1762274D01*
X5872299Y1762242D01*
X5871959Y1762189D01*
X5871666Y1762115D01*
X5871419Y1762020D01*
X5871217Y1761903D01*
X5871062Y1761766D01*
X5870952Y1761607D01*
X5870889Y1761427D01*
X5870871Y1761226D01*
X5866547Y1768053D01*
X5873115Y1768190D01*
Y1762284D01*
D02*
G37*
G36*
X5330610Y2285434D02*
X5330069Y2285400D01*
X5329502Y2285288D01*
X5328911Y2285097D01*
X5328294Y2284828D01*
X5327653Y2284481D01*
X5326987Y2284055D01*
X5326296Y2283551D01*
X5325580Y2282969D01*
X5324074Y2281570D01*
X5317003Y2288641D01*
X5317742Y2289406D01*
X5318984Y2290863D01*
X5319488Y2291554D01*
X5319914Y2292220D01*
X5320261Y2292861D01*
X5320530Y2293478D01*
X5320721Y2294069D01*
X5320833Y2294636D01*
X5320867Y2295177D01*
X5330610Y2285434D01*
D02*
G37*
G36*
X2951012Y1485642D02*
X2951192Y1483159D01*
X2951300Y1482490D01*
X2951432Y1481899D01*
X2951588Y1481388D01*
X2951769Y1480955D01*
X2951973Y1480601D01*
X2952201Y1480326D01*
X2939799D01*
X2940027Y1480601D01*
X2940231Y1480955D01*
X2940412Y1481388D01*
X2940568Y1481899D01*
X2940700Y1482490D01*
X2940808Y1483159D01*
X2940952Y1484735D01*
X2941000Y1486627D01*
X2951000D01*
X2951012Y1485642D01*
D02*
G37*
D55*
X5424000Y3635055D02*
X5448819Y3610236D01*
X5380134Y4549000D02*
X5424000Y4505134D01*
Y3635055D02*
Y4505134D01*
X3873648Y4569883D02*
X5406495D01*
X5448819Y4527559D01*
X3870000Y4549000D02*
X5380134D01*
X3854331Y4564669D02*
X3870000Y4549000D01*
X3854331Y4564669D02*
Y4661417D01*
X3862205Y4669291D02*
X3881890D01*
X3854331Y4661417D02*
X3862205Y4669291D01*
X5448819Y3751968D02*
Y4527559D01*
X3881133Y4953512D02*
X3881890Y4952756D01*
X3843276Y4953512D02*
X3881133D01*
X3826772Y4125984D02*
Y4937008D01*
X3843276Y4953512D01*
D56*
X5231276Y2923827D02*
X5787724D01*
X5788000Y2924102D01*
X5231000Y2923551D02*
X5231276Y2923827D01*
Y2333276D02*
X5787724D01*
X5788000Y2333551D01*
X5231000Y2333000D02*
X5231276Y2333276D01*
D59*
X5966482Y2988000D02*
X5972379Y2982102D01*
X5777000Y3020000D02*
X5809000Y2988000D01*
X5972379Y2982102D02*
X5975000D01*
X5809000Y2988000D02*
X5966482D01*
X3134000Y2357000D02*
X4410000D01*
X5182921Y3129921D02*
X5330709D01*
X4410000Y2357000D02*
X5182921Y3129921D01*
X2859000Y1466000D02*
Y1658000D01*
X3475000Y2274000D01*
X5065339D01*
X5330709Y2539370D01*
X2946000Y1542000D02*
X3631000Y2227000D01*
X5262433D02*
X5330709Y2295276D01*
X3631000Y2227000D02*
X5262433D01*
X2790000Y2013000D02*
X3134000Y2357000D01*
X2790000Y1815000D02*
Y2013000D01*
X2946000Y1474000D02*
Y1542000D01*
X2676205Y1612205D02*
X3373000Y2309000D01*
X2507874Y1612205D02*
X2676205D01*
X3373000Y2309000D02*
X4411047D01*
X4987874Y2885827D02*
X5330709D01*
X4411047Y2309000D02*
X4987874Y2885827D01*
X5007874Y2066929D02*
X5547244D01*
X4972441Y2102362D02*
X5007874Y2066929D01*
X4972441Y2102362D02*
Y2137795D01*
Y2692914D02*
Y2728347D01*
Y2692914D02*
X5007874Y2657480D01*
X5547244D01*
X5464964Y2394407D02*
X5502413Y2431856D01*
X5777964D01*
X5815862Y2393958D01*
X5975964D01*
X5501449Y3020000D02*
X5777000D01*
X5464000Y2982551D02*
X5501449Y3020000D01*
D64*
X3618110Y4031496D02*
X4889764D01*
X3574803Y4074803D02*
X3618110Y4031496D01*
X3574803Y4074803D02*
Y4370079D01*
D66*
X3239961Y4706299D02*
X3288260Y4658000D01*
X3486000D02*
X3622000Y4522000D01*
X3288260Y4658000D02*
X3486000D01*
X3622000Y4118000D02*
Y4522000D01*
Y4118000D02*
X3674000Y4066000D01*
X3907000D01*
X3976378Y4135378D01*
Y4393701D01*
X3882448Y4088000D02*
X3952756Y4158308D01*
X3753000Y4088000D02*
X3882448D01*
X3662480Y4178520D02*
X3753000Y4088000D01*
X3662480Y4178520D02*
Y4699724D01*
X3602112Y4760092D02*
X3662480Y4699724D01*
X3952756Y4158308D02*
Y4437008D01*
X4114173Y4421260D02*
X4125394D01*
X4127134Y4423000D01*
X4090551Y4444882D02*
X4114173Y4421260D01*
X3960630Y4444882D02*
X4090551D01*
X3952756Y4437008D02*
X3960630Y4444882D01*
X3286167Y4760092D02*
X3602112D01*
X3239961Y4806299D02*
X3286167Y4760092D01*
D67*
X5830709Y5590551D02*
D03*
X5507874D02*
D03*
X3125984Y4204724D02*
D03*
X3448819D02*
D03*
X1171260Y4559055D02*
D03*
Y4724409D02*
D03*
Y4889764D02*
D03*
X1387795Y4559055D02*
D03*
Y4724409D02*
D03*
Y4889764D02*
D03*
D68*
X5590551Y5590551D02*
D03*
X5669291D02*
D03*
X5748032D02*
D03*
X3366142Y4204724D02*
D03*
X3287402D02*
D03*
X3208661D02*
D03*
D69*
X5295276Y5748032D02*
D03*
X3996063D02*
D03*
X5295276Y3858268D02*
D03*
X3996063D02*
D03*
X2460630Y3503937D02*
D03*
X1555118Y1220472D02*
D03*
X2460630D02*
D03*
X1555118Y3503937D02*
D03*
X5905512Y5905512D02*
D03*
Y1181102D02*
D03*
X1200000Y5800000D02*
D03*
X1181102Y1181102D02*
D03*
D70*
X2410866Y3312205D02*
D03*
D71*
X2510866D02*
D03*
X2410866Y3212205D02*
D03*
X2510866D02*
D03*
X2410866Y3112205D02*
D03*
X2510866D02*
D03*
X2410866Y3012205D02*
D03*
X2510866D02*
D03*
X2410866Y2912205D02*
D03*
X2510866D02*
D03*
X2410866Y2812205D02*
D03*
X2510866D02*
D03*
X2410866Y2712205D02*
D03*
X2510866D02*
D03*
X2410866Y2612205D02*
D03*
X2510866D02*
D03*
X2410866Y2512205D02*
D03*
X2510866D02*
D03*
X2410866Y2412205D02*
D03*
X2510866D02*
D03*
X2410866Y2312205D02*
D03*
X2510866D02*
D03*
X2410866Y2212205D02*
D03*
X2510866D02*
D03*
X2410866Y2112205D02*
D03*
X2510866D02*
D03*
X2410866Y2012205D02*
D03*
X2510866D02*
D03*
X2410866Y1912205D02*
D03*
X2510866D02*
D03*
X2410866Y1812205D02*
D03*
X2510866D02*
D03*
X2410866Y1712205D02*
D03*
X2510866D02*
D03*
X2410866Y1612205D02*
D03*
X2510866D02*
D03*
X2410866Y1512205D02*
D03*
X2510866D02*
D03*
X2410866Y1412205D02*
D03*
X2510866D02*
D03*
D72*
X3239961Y4406299D02*
D03*
X3339961D02*
D03*
X3239961Y4506299D02*
D03*
X3339961D02*
D03*
X3239961Y4606299D02*
D03*
X3339961D02*
D03*
X3239961Y4706299D02*
D03*
X3339961D02*
D03*
Y4906299D02*
D03*
X3239961D02*
D03*
Y4806299D02*
D03*
X3339961D02*
D03*
D73*
X1220472Y5206693D02*
D03*
Y5580709D02*
D03*
X1405512D02*
D03*
Y5206693D02*
D03*
D74*
X1240158Y5393701D02*
D03*
D75*
X1476378D02*
D03*
D76*
X3224409Y3762205D02*
D03*
Y3862205D02*
D03*
Y3962205D02*
D03*
X2480315Y3762205D02*
D03*
Y3862205D02*
D03*
Y3962205D02*
D03*
D77*
X5767717Y4675197D02*
D03*
X5960630Y4698819D02*
D03*
X5767717Y4104331D02*
D03*
X5960630Y4080709D02*
D03*
D78*
X5881890Y5339370D02*
D03*
Y4896850D02*
D03*
D79*
X6039370Y5339370D02*
D03*
Y4896850D02*
D03*
D80*
X5990158Y2858268D02*
D03*
Y3047244D02*
D03*
X5820866D02*
D03*
Y2858268D02*
D03*
X5990158Y2267716D02*
D03*
Y2456693D02*
D03*
X5820866D02*
D03*
Y2267716D02*
D03*
X5990158Y1677165D02*
D03*
Y1866142D02*
D03*
X5820866D02*
D03*
Y1677165D02*
D03*
D81*
X3976378Y1861925D02*
D03*
X3948539Y1834086D02*
D03*
X3920700Y1806247D02*
D03*
X3948539Y1889764D02*
D03*
X3920700Y1861925D02*
D03*
X3892861Y1834086D02*
D03*
X3920700Y1917603D02*
D03*
X3892861Y1889764D02*
D03*
X3865023Y1861925D02*
D03*
X3892861Y1945441D02*
D03*
X3865023Y1917603D02*
D03*
X3837184Y1889764D02*
D03*
X4004217Y1834086D02*
D03*
X3976378Y1806247D02*
D03*
X3948539Y1778408D02*
D03*
X3976378Y1750570D02*
D03*
X4004217Y1778408D02*
D03*
X4032056Y1806247D02*
D03*
X3976378Y1917603D02*
D03*
X4004217Y1945441D02*
D03*
X4032056Y1973280D02*
D03*
X4004217Y1889764D02*
D03*
X4032056Y1917603D02*
D03*
X4059894Y1945441D02*
D03*
X4032056Y1861925D02*
D03*
X4059894Y1889764D02*
D03*
X4087733Y1917603D02*
D03*
X4059894Y1834086D02*
D03*
X4087733Y1861925D02*
D03*
X4115572Y1889764D02*
D03*
X3948539Y1945441D02*
D03*
X3976378Y1973280D02*
D03*
X4004217Y2001119D02*
D03*
X3976378Y2028958D02*
D03*
X3948539Y2001119D02*
D03*
X3920700Y1973280D02*
D03*
D82*
X5531000Y2563000D02*
D03*
X5568000Y4213000D02*
D03*
X3195000Y5158000D02*
D03*
X2859000Y1466000D02*
D03*
X2790000Y1815000D02*
D03*
X2946000Y1474000D02*
D03*
D83*
X4893000Y3247000D02*
D03*
D84*
X5860236Y2884252D02*
D03*
Y2863583D02*
D03*
X4162939Y2035992D02*
D03*
X4178220Y2020850D02*
D03*
X3872000Y4596000D02*
D03*
X3873000Y4619000D02*
D03*
X5943558Y1703937D02*
D03*
Y1682205D02*
D03*
X5860236Y2293898D02*
D03*
Y2272441D02*
D03*
X5908331Y3020866D02*
D03*
Y3041732D02*
D03*
Y2430709D02*
D03*
Y2451575D02*
D03*
Y1860827D02*
D03*
Y1839961D02*
D03*
X5860236Y1682205D02*
D03*
Y1703937D02*
D03*
X5863000Y1761024D02*
D03*
Y1782614D02*
D03*
X5930000Y1761614D02*
D03*
Y1782480D02*
D03*
X5863000Y2352165D02*
D03*
Y2373032D02*
D03*
X5930000Y2352165D02*
D03*
Y2373032D02*
D03*
Y2964488D02*
D03*
Y2943780D02*
D03*
X5863000Y2964488D02*
D03*
Y2943780D02*
D03*
X3871877Y4644486D02*
D03*
X3873648Y4569883D02*
D03*
X3871458Y4531705D02*
D03*
X5642204Y2381299D02*
D03*
Y2402165D02*
D03*
X5629331Y1684646D02*
D03*
X5614724Y1699803D02*
D03*
X5629252Y2275276D02*
D03*
X5614803Y2290276D02*
D03*
X5668678Y1760630D02*
D03*
Y1782677D02*
D03*
Y2351968D02*
D03*
Y2372835D02*
D03*
X5860236Y1839961D02*
D03*
Y1860827D02*
D03*
Y2430709D02*
D03*
Y2451575D02*
D03*
X5943558Y2293898D02*
D03*
Y2272441D02*
D03*
X5640000Y1789764D02*
D03*
X5640986Y1812205D02*
D03*
X4220472Y1744685D02*
D03*
Y1724016D02*
D03*
X5668678Y2962795D02*
D03*
Y2941929D02*
D03*
X4072323Y2138307D02*
D03*
X4058780Y2154016D02*
D03*
X5943558Y2863583D02*
D03*
Y2884252D02*
D03*
X5860236Y3041732D02*
D03*
Y3020866D02*
D03*
X5614724Y2880905D02*
D03*
X5629331Y2865748D02*
D03*
X5642204Y2993110D02*
D03*
Y2972244D02*
D03*
X5755905Y1677165D02*
D03*
X5787402Y1740158D02*
D03*
X3881890Y4669291D02*
D03*
X5448819Y3751968D02*
D03*
Y3716535D02*
D03*
Y3610236D02*
D03*
Y3539370D02*
D03*
Y3503937D02*
D03*
X5708661Y1771653D02*
D03*
Y2952756D02*
D03*
Y2362205D02*
D03*
Y5118110D02*
D03*
X5905512Y1771653D02*
D03*
Y1757874D02*
D03*
Y1785433D02*
D03*
Y2952756D02*
D03*
Y2938976D02*
D03*
Y2966535D02*
D03*
Y2375984D02*
D03*
Y2348425D02*
D03*
Y2362205D02*
D03*
D85*
X3672000Y1798000D02*
D03*
X4246000Y1801000D02*
D03*
X5231000Y2923551D02*
D03*
Y2333000D02*
D03*
X3531496Y5468504D02*
D03*
X3185039Y5263779D02*
D03*
X3701772Y1822835D02*
D03*
X5314961Y4716535D02*
D03*
X5527559Y4338583D02*
D03*
X5905512Y1523622D02*
D03*
X5066929Y3665354D02*
D03*
X4889764Y4031496D02*
D03*
X3881890Y4952756D02*
D03*
X3739173Y4537402D02*
D03*
X3574803Y4370079D02*
D03*
X4127134Y4423000D02*
D03*
X3826772Y4125984D02*
D03*
X3976378Y4393701D02*
D03*
X4385827Y1921260D02*
D03*
X5330709Y2295276D02*
D03*
Y2885827D02*
D03*
Y3129921D02*
D03*
Y2539370D02*
D03*
X5547244Y2066929D02*
D03*
X4972441Y2137795D02*
D03*
Y2728347D02*
D03*
X5547244Y2657480D02*
D03*
X4082677Y4338583D02*
D03*
X4322835D02*
D03*
X4082677Y4401575D02*
D03*
X4188976D02*
D03*
X4153543Y2381890D02*
D03*
X3631890Y1978347D02*
D03*
X3677165Y1917323D02*
D03*
X3728347Y1795276D02*
D03*
X3724078Y1762205D02*
D03*
X4066929Y1632953D02*
D03*
X4146000Y1734000D02*
D03*
X3834900Y2128144D02*
D03*
X3737464Y2030708D02*
D03*
X3695706Y1988950D02*
D03*
X4103936Y1637464D02*
D03*
X4214758Y2031242D02*
D03*
X4061645Y2184355D02*
D03*
X4103403Y2142597D02*
D03*
X4173000Y2073000D02*
D03*
X5788000Y2924102D02*
D03*
X5975000Y2982102D02*
D03*
X5464000Y2982551D02*
D03*
Y2392000D02*
D03*
X4092056Y4506229D02*
D03*
X4091413Y4469413D02*
D03*
X3977000Y4512000D02*
D03*
X3976000Y4968000D02*
D03*
X5975000Y2391551D02*
D03*
X5788000Y2333551D02*
D03*
D86*
X2602000Y4749000D02*
D03*
X2110236Y5472441D02*
D03*
Y5354331D02*
D03*
D87*
X5863000Y1783386D02*
X5865663D01*
X5930000Y1762677D02*
X5932663D01*
X5930000Y1783386D02*
X5932663D01*
X5863000Y1762677D02*
X5865663D01*
X5868223Y1765237D01*
X5873115D02*
X5876575Y1761777D01*
X5868223Y1765237D02*
X5873115D01*
X5877378Y1779626D02*
X5889764Y1767241D01*
X5876575Y1738671D02*
Y1761777D01*
X5865663Y1783386D02*
X5869423Y1779626D01*
X5877378D01*
X5889764Y1744134D02*
Y1767241D01*
X5936423Y1766437D02*
X5945461D01*
X5932663Y1762677D02*
X5936423Y1766437D01*
X5936423Y1779626D02*
X5950924D01*
X5932663Y1783386D02*
X5936423Y1779626D01*
X5950924D02*
X5967189Y1763361D01*
X5945461Y1766437D02*
X5954000Y1757898D01*
Y1742898D02*
Y1757898D01*
X5967189Y1737435D02*
Y1763361D01*
X5948000Y1736898D02*
X5954000Y1742898D01*
X5953463Y1723709D02*
X5967189Y1737435D01*
X5897000Y1736898D02*
X5948000D01*
X5891537Y1723709D02*
X5953463D01*
X5889764Y1744134D02*
X5897000Y1736898D01*
X5876575Y1738671D02*
X5891537Y1723709D01*
X5863000Y2353228D02*
X5865663D01*
X5863000Y2373937D02*
X5865663D01*
Y2353228D02*
X5868223Y2355788D01*
X5873115D02*
X5876575Y2352329D01*
X5868223Y2355788D02*
X5873115D01*
X5877378Y2370177D02*
X5889764Y2357792D01*
X5876575Y2329222D02*
Y2352329D01*
X5865663Y2373937D02*
X5869423Y2370177D01*
X5877378D01*
X5889764Y2334685D02*
Y2357792D01*
X5930000Y2373937D02*
X5932663D01*
X5936423Y2356988D02*
X5945461D01*
X5932663Y2353228D02*
X5936423Y2356988D01*
X5930000Y2353228D02*
X5932663D01*
X5936423Y2370177D02*
X5950924D01*
X5932663Y2373937D02*
X5936423Y2370177D01*
X5950924D02*
X5967189Y2353912D01*
X5945461Y2356988D02*
X5954000Y2348449D01*
Y2333449D02*
Y2348449D01*
X5967189Y2327986D02*
Y2353912D01*
X5948000Y2327449D02*
X5954000Y2333449D01*
X5953463Y2314260D02*
X5967189Y2327986D01*
X5897000Y2327449D02*
X5948000D01*
X5891537Y2314260D02*
X5953463D01*
X5889764Y2334685D02*
X5897000Y2327449D01*
X5876575Y2329222D02*
X5891537Y2314260D01*
X5876575Y2919773D02*
X5891537Y2904811D01*
X5889764Y2925236D02*
X5897000Y2918000D01*
X5891537Y2904811D02*
X5953463D01*
X5897000Y2918000D02*
X5948000D01*
X5953463Y2904811D02*
X5967189Y2918537D01*
X5948000Y2918000D02*
X5954000Y2924000D01*
X5967189Y2918537D02*
Y2944463D01*
X5954000Y2924000D02*
Y2939000D01*
X5945461Y2947539D02*
X5954000Y2939000D01*
X5950924Y2960728D02*
X5967189Y2944463D01*
X5932663Y2964488D02*
X5936423Y2960728D01*
X5950924D01*
X5930000Y2943780D02*
X5932663D01*
X5936423Y2947539D01*
X5945461D01*
X5930000Y2964488D02*
X5932663D01*
X5889764Y2925236D02*
Y2948343D01*
X5869423Y2960728D02*
X5877378D01*
X5865663Y2964488D02*
X5869423Y2960728D01*
X5876575Y2919773D02*
Y2942880D01*
X5877378Y2960728D02*
X5889764Y2948343D01*
X5868223Y2946339D02*
X5873115D01*
X5876575Y2942880D01*
X5865663Y2943780D02*
X5868223Y2946339D01*
X5863000Y2964488D02*
X5865663D01*
X5863000Y2943780D02*
X5865663D01*
D88*
X2656000Y3312205D02*
X4434795D01*
X2510866D02*
X2656000D01*
X5876000Y2563000D02*
X6056000Y2743000D01*
X5531000Y2563000D02*
X5876000D01*
X6056000Y2743000D02*
Y3198000D01*
X6007000Y3247000D02*
X6056000Y3198000D01*
X4893000Y3247000D02*
X6007000D01*
X4434795Y3312205D02*
X4500000Y3247000D01*
X4893000D01*
%TF.MD5,e2b310f199535d0b6fc0aa3968be84f8*%
M02*
